<?xml version="1.0" encoding="iso-8859-1"?>
<!-- Generator: Adobe Illustrator 23.0.3, SVG Export Plug-In . SVG Version: 6.00 Build 0)  -->
<svg version="1.1" id="Capa_1" xmlns="http://www.w3.org/2000/svg" xmlns:xlink="http://www.w3.org/1999/xlink" x="0px" y="0px"
	 viewBox="0 0 512 512" style="enable-background:new 0 0 512 512;" xml:space="preserve">
<g>
	<g>
		<g>
			<g>
				<g>
					<g>
						<path style="fill:#0097FA;" d="M504.5,336.235H322.819V118.836h152.829c15.934,0,28.851,12.917,28.851,28.851V336.235z"/>
						<g>
							<path style="fill:#006AC3;" d="M458.411,184.629h17.241c15.933,0,28.849-12.916,28.849-28.849v186.808
								c0,15.933-12.916,28.849-28.849,28.849h-17.241V184.629z"/>
						</g>
					</g>
				</g>
				<g>
					<g>
						<path style="fill:#0097FA;" d="M7.5,436.133h181.681V218.734H36.351c-15.934,0-28.851,12.917-28.851,28.851V436.133z"/>
						<g>
							<path style="fill:#006AC3;" d="M53.589,284.528H36.349c-15.933,0-28.849-12.916-28.849-28.849v186.808
								c0,15.933,12.916,28.849,28.849,28.849h17.241V284.528z"/>
						</g>
					</g>
				</g>
			</g>
			<g>
				<circle style="fill:#FFBC8A;" cx="351.464" cy="170.958" r="21.714"/>
				<circle style="fill:#FFBC8A;" cx="160.535" cy="170.958" r="21.714"/>
				<g>
					<path style="fill:#BDEB73;" d="M401.673,325.804v162.139c0,5.183-4.202,9.385-9.385,9.385H119.711
						c-5.183,0-9.385-4.202-9.385-9.385V325.804c0-31.904,19.224-59.328,46.713-71.314c9.505-4.147,20.011-6.442,31.043-6.442
						h135.835c4.248,0,8.423,0.333,12.486,1c6.497,1.046,12.708,2.897,18.557,5.442c0.028,0.009,0.046,0.018,0.074,0.037
						C382.486,266.522,401.673,293.928,401.673,325.804z"/>
					<path style="fill:#9AD63B;" d="M401.674,325.808v162.137c0,5.181-4.205,9.386-9.386,9.386h-21.634
						c5.181,0,9.386-4.205,9.386-9.386V325.808c0-31.902-19.222-59.327-46.712-71.312c-5.847-2.553-12.061-4.402-18.555-5.444
						c-4.064-0.666-8.241-1.004-12.492-1.004h21.634c4.252,0,8.428,0.338,12.492,1.004c6.495,1.042,12.708,2.891,18.555,5.444
						C382.452,266.481,401.674,293.906,401.674,325.808z"/>
					<path style="fill:#FFF5F5;" d="M355.034,254.527v242.802H157.039V254.49c9.505-4.147,20.011-6.442,31.043-6.442h135.835
						c4.248,0,8.423,0.333,12.486,1c6.497,1.046,12.708,2.897,18.557,5.442C354.988,254.499,355.006,254.509,355.034,254.527z"/>
					<path style="fill:#E0D3CE;" d="M355.03,254.53v242.8h-18.21V249.12c6.35,1.05,12.42,2.88,18.14,5.37
						C354.99,254.5,355.01,254.51,355.03,254.53z"/>
					<g>
						<rect x="203.616" y="273.485" style="fill:#BDEB73;" width="104.767" height="95.279"/>
					</g>
				</g>
				<path style="fill:#FDD1A7;" d="M255.999,290.812L255.999,290.812c-44.175,0-80.617-34.585-82.926-78.699l-3.163-60.428
					c-1.342-25.647,19.091-47.177,44.772-47.177h82.634c25.682,0,46.115,21.531,44.772,47.177l-3.163,60.428
					C336.617,256.227,300.174,290.812,255.999,290.812z"/>
				<path style="fill:#FFF5F5;" d="M358.878,143.32H153.121v-25.947c0-51.27,41.563-92.833,92.833-92.833h20.091
					c51.27,0,92.833,41.563,92.833,92.833V143.32z"/>
				<path style="fill:#E0D3CE;" d="M358.875,117.375v25.943h-21.63v-25.943c0-51.017-41.141-92.408-92.056-92.824
					c0.259-0.009,0.509-0.009,0.768-0.009h20.085C317.318,24.542,358.875,66.099,358.875,117.375z"/>
				<path style="fill:#CDBFBB;" d="M359.912,156.586H152.087c-7.327,0-13.266-5.94-13.266-13.266v0
					c0-7.327,5.94-13.266,13.266-13.266h207.825c7.327,0,13.266,5.94,13.266,13.266v0
					C373.178,150.647,367.239,156.586,359.912,156.586z"/>
				<path style="fill:#9E9797;" d="M373.175,143.319c0,3.665-1.481,6.979-3.887,9.385c-2.397,2.397-5.711,3.878-9.376,3.878h-21.723
					c3.665,0,6.979-1.481,9.385-3.878c2.407-2.407,3.887-5.72,3.887-9.385c0-7.321-5.942-13.263-13.272-13.263h21.723
					C367.242,130.056,373.175,135.998,373.175,143.319z"/>
				<path style="fill:#E0D3CE;" d="M265.348,98.585h-18.696c-5.3,0-9.596-4.296-9.596-9.596V24.264c0-5.3,4.296-9.596,9.596-9.596
					h18.696c5.3,0,9.596,4.296,9.596,9.596v64.725C274.944,94.288,270.647,98.585,265.348,98.585z"/>
				<g>
					<g>
						<path style="fill:#CDBFBB;" d="M351.119,368.764h-40.931c-5.112,0-9.256-4.144-9.256-9.256v-18.353
							c0-5.112,4.144-9.256,9.256-9.256h40.931c5.112,0,9.256,4.144,9.256,9.256v18.353
							C360.374,364.62,356.23,368.764,351.119,368.764z"/>
						<path style="fill:#9E9797;" d="M360.37,341.15v18.36c0,5.11-4.14,9.25-9.25,9.25h-19.83c5.12,0,9.26-4.14,9.26-9.25v-18.36
							c0-5.11-4.14-9.25-9.26-9.25h19.83C356.23,331.9,360.37,336.04,360.37,341.15z"/>
					</g>
					<g>
						<path style="fill:#CDBFBB;" d="M201.811,368.764H160.88c-5.112,0-9.256-4.144-9.256-9.256v-18.353
							c0-5.112,4.144-9.256,9.256-9.256h40.931c5.112,0,9.256,4.144,9.256,9.256v18.353
							C211.067,364.62,206.923,368.764,201.811,368.764z"/>
					</g>
				</g>
			</g>
		</g>
	</g>
	<g>
		<path d="M475.648,111.336H366.177c-2.802-47.064-38.104-85.991-84.859-93.12c-2.45-6.446-8.675-11.048-15.97-11.048h-18.696
			c-7.288,0-13.508,4.592-15.963,11.028c-18.066,2.759-34.966,10.391-49.076,22.195c-3.177,2.658-3.598,7.388-0.94,10.565
			c1.483,1.773,3.612,2.688,5.756,2.688c1.698,0,3.405-0.573,4.809-1.748c11.108-9.293,24.246-15.539,38.318-18.277v55.369
			c0,9.427,7.669,17.097,17.096,17.097h18.696c9.427,0,17.096-7.669,17.096-17.097V33.632c39.725,7.702,68.935,42.6,68.935,83.74
			v5.181H160.621v-5.181c0-13.849,3.397-27.604,9.825-39.776c1.934-3.663,0.533-8.2-3.13-10.134c-3.664-1.935-8.2-0.532-10.134,3.13
			c-7.563,14.323-11.56,30.499-11.56,46.78v6.225c-8.292,2.726-14.3,10.53-14.3,19.722c0,4.696,1.585,9.019,4.224,12.501
			c-2.748,4.521-4.224,9.721-4.224,15.136c0,16.108,13.105,29.214,29.214,29.214c1.471,0,2.936-0.125,4.385-0.345l0.597,11.408
			H36.351C16.307,211.234,0,227.542,0,247.585v194.901c0,20.042,16.306,36.349,36.349,36.349h17.241c4.142,0,7.5-3.358,7.5-7.5
			v-27.702h41.737v44.314c0,9.311,7.575,16.886,16.886,16.886c4.142,0,7.5-3.358,7.5-7.5s-3.358-7.5-7.5-7.5
			c-1.04,0-1.886-0.846-1.886-1.886V325.81c0-24.323,12.585-46.036,31.711-58.678v61.727c-3.318,3.064-5.413,7.435-5.413,12.296
			v18.354c0,4.862,2.094,9.233,5.413,12.296v125.525c0,4.142,3.358,7.5,7.5,7.5s7.5-3.358,7.5-7.5V376.264h76.586
			c4.142,0,7.5-3.358,7.5-7.5s-3.358-7.5-7.5-7.5h-22.65c0.06-0.577,0.094-1.162,0.094-1.755v-18.354
			c0-5.798-2.962-10.915-7.451-13.924v-40.822c13.252,7.575,28.579,11.903,44.883,11.903c16.304,0,31.631-4.328,44.883-11.903
			v40.822c-4.489,3.009-7.451,8.127-7.451,13.925v18.354c0,0.593,0.033,1.178,0.094,1.755h-16.649c-4.143,0-7.5,3.358-7.5,7.5
			s3.357,7.5,7.5,7.5h70.586v121.069c0,4.142,3.357,7.5,7.5,7.5s7.5-3.358,7.5-7.5V371.804c3.318-3.063,5.412-7.434,5.412-12.296
			v-18.354c0-4.861-2.094-9.232-5.412-12.296v-61.784c4.817,3.168,9.276,6.932,13.249,11.264
			c11.905,12.983,18.462,29.842,18.462,47.471v162.137c0,1.04-0.846,1.886-1.886,1.886c-4.143,0-7.5,3.358-7.5,7.5
			s3.357,7.5,7.5,7.5c9.311,0,16.886-7.575,16.886-16.886V343.734h41.738v27.703c0,4.142,3.357,7.5,7.5,7.5h17.24
			c20.043,0,36.349-16.306,36.349-36.349v-87.045c0-4.142-3.357-7.5-7.5-7.5s-7.5,3.358-7.5,7.5v87.045
			c0,11.771-9.577,21.349-21.349,21.349h-9.74V192.129h9.74c7.971,0,15.351-2.579,21.349-6.946v34.606c0,4.142,3.357,7.5,7.5,7.5
			s7.5-3.358,7.5-7.5v-72.103C512,127.643,495.692,111.336,475.648,111.336z M267.443,88.988c0,1.156-0.94,2.097-2.096,2.097
			h-18.696c-1.156,0-2.096-0.94-2.096-2.097V24.264c0-1.156,0.94-2.096,2.096-2.096h18.696c1.155,0,2.096,0.94,2.096,2.096V88.988z
			 M365.678,170.958c0,7.837-6.376,14.214-14.214,14.214c-1.233,0-2.431-0.167-3.593-0.47l1.079-20.615h10.962
			c1.291,0,2.549-0.134,3.776-0.361C364.976,165.894,365.678,168.369,365.678,170.958z M152.087,149.086
			c-3.179,0-5.766-2.586-5.766-5.766s2.587-5.767,5.766-5.767h207.825c3.179,0,5.766,2.587,5.766,5.767s-2.587,5.766-5.766,5.766
			H152.087z M160.535,185.171c-7.837,0-14.214-6.376-14.214-14.214c0-2.585,0.702-5.062,1.991-7.232
			c1.226,0.226,2.485,0.361,3.775,0.361h10.962l1.08,20.623C162.968,185.011,161.769,185.171,160.535,185.171z M46.089,463.835
			h-9.741c-11.771,0-21.349-9.577-21.349-21.349V285.082c5.999,4.367,13.377,6.946,21.349,6.946h9.741V463.835z M102.826,325.81
			v5.962H87.54c-4.142,0-7.5,3.358-7.5,7.5s3.358,7.5,7.5,7.5h15.287v37.321H87.54c-4.142,0-7.5,3.358-7.5,7.5s3.358,7.5,7.5,7.5
			h15.287v29.54H61.089V284.527c0-4.142-3.358-7.5-7.5-7.5H36.349C24.577,277.027,15,267.45,15,255.679v-8.093
			c0-11.773,9.578-21.351,21.351-21.351h131.01c1.134,5.477,2.754,10.768,4.822,15.824
			C132.588,249.571,102.826,284.604,102.826,325.81z M181.595,352.325c4.142,0,7.5-3.358,7.5-7.5v-5.425h12.716
			c0.968,0,1.755,0.788,1.755,1.755v18.354c0,0.968-0.788,1.755-1.755,1.755H160.88c-0.968,0-1.755-0.788-1.755-1.755v-18.354
			c0-0.968,0.788-1.755,1.755-1.755h13.215v5.425C174.095,348.967,177.453,352.325,181.595,352.325z M196.116,324.399h-31.579
			v-64.771c4.748-1.699,9.729-2.911,14.892-3.547c4.618,7.309,10.243,13.903,16.687,19.589V324.399z M180.563,211.721l-2.494-47.634
			H333.93l-2.494,47.634c-2.102,40.145-35.237,71.591-75.436,71.591C215.8,283.312,182.664,251.865,180.563,211.721z
			 M330.403,352.325c4.143,0,7.5-3.358,7.5-7.5v-5.425h13.216c0.968,0,1.755,0.788,1.755,1.755v18.354
			c0,0.968-0.787,1.755-1.755,1.755h-40.932c-0.968,0-1.756-0.788-1.756-1.755v-18.354c0-0.968,0.788-1.755,1.756-1.755h12.716
			v5.425C322.903,348.967,326.261,352.325,330.403,352.325z M347.462,324.399h-31.579v-48.73
			c6.441-5.683,12.063-12.273,16.68-19.577c5.116,0.628,10.107,1.814,14.899,3.518V324.399z M475.651,177.129h-17.24
			c-4.143,0-7.5,3.358-7.5,7.5v144.105h-41.738v-2.925c0-10.992-2.115-21.732-6.118-31.72h13.709c4.143,0,7.5-3.358,7.5-7.5
			s-3.357-7.5-7.5-7.5h-21.547c-2.42-3.687-5.126-7.209-8.128-10.521h29.675c4.143,0,7.5-3.358,7.5-7.5s-3.357-7.5-7.5-7.5h-47.562
			c-8.959-5.627-18.904-9.554-29.377-11.532c3.747-9.17,6.045-19.105,6.591-29.531l0.664-12.678c1.45,0.22,2.916,0.344,4.385,0.344
			c16.108,0,29.214-13.105,29.214-29.214c0-5.425-1.472-10.622-4.22-15.141c2.636-3.482,4.22-7.802,4.22-12.497
			c0-7.019-3.509-13.224-8.855-16.984h103.826c11.773,0,21.352,9.578,21.352,21.352v8.093
			C497,167.552,487.423,177.129,475.651,177.129z"/>
		<path d="M422.067,197.75c-2.93-2.929-7.678-2.929-10.607,0l-2.781,2.781l-2.781-2.781c-2.929-2.929-7.677-2.93-10.607,0
			c-2.929,2.929-2.929,7.677,0,10.606l2.782,2.782l-2.782,2.782c-2.929,2.929-2.929,7.678,0,10.606
			c1.465,1.464,3.385,2.197,5.304,2.197s3.839-0.732,5.304-2.197l2.781-2.781l2.781,2.781c1.465,1.465,3.384,2.197,5.304,2.197
			c1.919,0,3.839-0.732,5.304-2.197c2.929-2.929,2.929-7.677,0-10.606l-2.782-2.782l2.782-2.782
			C424.996,205.427,424.996,200.678,422.067,197.75z"/>
		<path d="M408.679,178.405c4.143,0,7.5-3.358,7.5-7.5v-13.917c0-4.142-3.357-7.5-7.5-7.5s-7.5,3.358-7.5,7.5v13.917
			C401.179,175.047,404.536,178.405,408.679,178.405z"/>
		<path d="M217.29,191.447c-4.142,0-7.5,3.406-7.5,7.548s3.358,7.5,7.5,7.5s7.5-3.358,7.5-7.5v-0.096
			C224.79,194.757,221.432,191.447,217.29,191.447z"/>
		<path d="M294.709,191.447c-4.143,0-7.5,3.406-7.5,7.548s3.357,7.5,7.5,7.5s7.5-3.358,7.5-7.5v-0.096
			C302.209,194.757,298.852,191.447,294.709,191.447z"/>
		<path d="M279.703,223.394c-3.977-1.145-8.136,1.154-9.281,5.135c-1.84,6.397-7.771,10.866-14.422,10.866
			s-12.583-4.468-14.422-10.866c-1.145-3.98-5.302-6.278-9.281-5.135c-3.98,1.145-6.279,5.3-5.135,9.281
			c3.678,12.788,15.537,21.719,28.838,21.719s25.16-8.931,28.838-21.719C285.982,228.694,283.684,224.539,279.703,223.394z"/>
		<path d="M313.937,441.45H198.062c-4.142,0-7.5,3.358-7.5,7.5v20.362c0,4.142,3.358,7.5,7.5,7.5c4.142,0,7.5-3.358,7.5-7.5V456.45
			h100.874v12.862c0,4.142,3.357,7.5,7.5,7.5s7.5-3.358,7.5-7.5V448.95C321.437,444.808,318.079,441.45,313.937,441.45z"/>
		<path d="M98.54,243.242H72c-4.142,0-7.5,3.358-7.5,7.5s3.358,7.5,7.5,7.5h26.54c4.142,0,7.5-3.358,7.5-7.5
			S102.682,243.242,98.54,243.242z"/>
	</g>
</g>
<g>
</g>
<g>
</g>
<g>
</g>
<g>
</g>
<g>
</g>
<g>
</g>
<g>
</g>
<g>
</g>
<g>
</g>
<g>
</g>
<g>
</g>
<g>
</g>
<g>
</g>
<g>
</g>
<g>
</g>
</svg>
