<?xml version="1.0" encoding="iso-8859-1"?>
<!-- Generator: Adobe Illustrator 23.0.3, SVG Export Plug-In . SVG Version: 6.00 Build 0)  -->
<svg version="1.1" id="Capa_1" xmlns="http://www.w3.org/2000/svg" xmlns:xlink="http://www.w3.org/1999/xlink" x="0px" y="0px"
	 viewBox="0 0 511.997 511.997" style="enable-background:new 0 0 511.997 511.997;" xml:space="preserve">
<g>
	<g>
		<path style="fill:#B9ACAC;" d="M434.276,296.661c-34.295,1.038-60.916-19.202-70.233-27.382l-36.791,36.791
			c13.58,12.52,55.199,45.67,112.119,42.382c5.479-0.316,9.537-5.231,8.82-10.672l-4.335-32.911
			C443.225,300.089,439.095,296.515,434.276,296.661z"/>
		<path style="fill:#756F6F;" d="M268.372,389.331l-44.773-44.773l118.867-118.867l37.415,37.415c4.064,4.064,4.064,10.652,0,14.716
			L268.372,389.331z"/>
		
			<rect x="262.504" y="201.087" transform="matrix(0.7071 0.7071 -0.7071 0.7071 283.9514 -115.5014)" style="fill:#B9ACAC;" width="37.789" height="167.845"/>
		<path style="fill:#756F6F;" d="M427.554,157.575l-17.488-17.488l64.486-64.486c3.786-3.786,9.923-3.786,13.709,0l3.779,3.779
			c3.786,3.786,3.786,9.923,0,13.709L427.554,157.575z"/>
		<path style="fill:#756F6F;" d="M351.071,245.28l-30.416-30.416c-2.709-2.709-2.709-7.102,0-9.812l81.832-81.832
			c2.709-2.709,7.102-2.709,9.811,0l30.416,30.416c2.709,2.709,2.709,7.102,0,9.812l-81.832,81.832
			C358.173,247.989,353.78,247.989,351.071,245.28z"/>
		<line style="fill:#756F6F;" x1="332.643" y1="319.715" x2="309.545" y2="296.617"/>
		<path style="fill:#8EC737;" d="M344.429,314.528v163.218c0,5.215-4.233,9.448-9.448,9.448H26.573
			c-5.215,0-9.448-4.233-9.448-9.448V314.528c0-32.114,19.35-59.722,47.024-71.787c9.571-4.176,20.144-6.491,31.255-6.491h170.748
			c4.28,0,8.485,0.34,12.576,1.011c6.538,1.049,12.793,2.91,18.679,5.48C325.079,254.806,344.429,282.414,344.429,314.528z"/>
		<path style="fill:#7AA82D;" d="M344.43,314.532v163.215c0,5.21-4.23,9.449-9.449,9.449h-24.657c5.21,0,9.449-4.239,9.449-9.449
			V314.532c0-32.116-19.351-59.724-47.026-71.788c-5.883-2.576-12.141-4.432-18.678-5.479c-4.095-0.673-8.296-1.019-12.574-1.019
			h24.657c4.278,0,8.478,0.346,12.573,1.019c6.537,1.048,12.795,2.903,18.678,5.479C325.079,254.808,344.43,282.416,344.43,314.532z
			"/>
		<path style="fill:#756F6F;" d="M284.218,231.845H77.333c-7.284,0-13.188,5.904-13.188,13.188v242.16h233.261v-242.16
			C297.406,237.75,291.501,231.845,284.218,231.845z"/>
		<g>
			<g>
				<path style="fill:#B9ACAC;" d="M132.977,447.818v39.376H93.025v-39.376c0-3.826,3.099-6.934,6.925-6.934h26.093
					C129.869,440.883,132.977,443.991,132.977,447.818z"/>
			</g>
		</g>
		<g>
			<g>
				<path style="fill:#B9ACAC;" d="M200.071,447.818v39.376h-39.943v-39.376c0-3.826,3.099-6.934,6.925-6.934h26.093
					C196.973,440.883,200.071,443.991,200.071,447.818z"/>
			</g>
		</g>
		<g>
			<g>
				<path style="fill:#B9ACAC;" d="M267.175,447.818v39.376h-39.952v-39.376c0-3.826,3.108-6.934,6.934-6.934h26.093
					C264.076,440.883,267.175,443.991,267.175,447.818z"/>
			</g>
		</g>
		<path style="fill:#B9ACAC;" d="M119.666,398.115h-13.334c-7.35,0-13.308-5.958-13.308-13.308v-47.51
			c0-3.825,3.101-6.926,6.926-6.926h26.097c3.825,0,6.926,3.101,6.926,6.926v47.51C132.974,392.157,127.016,398.115,119.666,398.115
			z"/>
		<path style="fill:#B9ACAC;" d="M186.767,398.115h-13.334c-7.35,0-13.308-5.958-13.308-13.308v-47.51
			c0-3.825,3.101-6.926,6.926-6.926h26.097c3.825,0,6.926,3.101,6.926,6.926v47.51C200.074,392.157,194.116,398.115,186.767,398.115
			z"/>
		<path style="fill:#B9ACAC;" d="M253.868,398.115h-13.334c-7.35,0-13.308-5.958-13.308-13.308v-47.51
			c0-3.825,3.101-6.926,6.926-6.926h26.097c3.825,0,6.926,3.101,6.926,6.926v47.51C267.175,392.157,261.217,398.115,253.868,398.115
			z"/>
		<g>
			<g>
				<circle style="fill:#FFBC8A;" cx="276.878" cy="160.01" r="21.859"/>
			</g>
			<g>
				<circle style="fill:#FFBC8A;" cx="84.676" cy="160.01" r="21.859"/>
			</g>
			<path style="fill:#FDD1A7;" d="M180.777,280.662L180.777,280.662c-44.469,0-81.154-34.815-83.479-79.223l-5.67-111.157h178.298
				l-5.67,111.157C261.931,245.847,225.246,280.662,180.777,280.662z"/>
			<path style="fill:#8EC737;" d="M66.995,119.159c-4.239,2.788-5.534,8.43-2.909,12.772
				c11.649,19.269,59.166,35.331,116.014,35.331s104.365-16.062,116.014-35.331c2.625-4.342,1.33-9.984-2.909-12.772l-11.55-7.594
				C281.656,55.593,258.79,7.5,180.1,7.5c-74.83,0-101.556,48.093-101.556,104.064L66.995,119.159z"/>
			<path style="fill:#7AA82D;" d="M296.116,131.928c-3.941,6.527-11.987,12.679-23.119,17.957c1.615-1.711,2.961-3.461,4.028-5.229
				c2.884-4.778,1.461-10.987-3.201-14.054l-12.708-8.354c0-57.955-22.292-108.24-97.108-113.94
				c5.095-0.538,10.459-0.807,16.092-0.807c78.69,0,101.559,48.093,101.559,104.068l11.545,7.594
				C297.443,121.95,298.74,127.593,296.116,131.928z"/>
			<path style="fill:#FAC574;" d="M174.006,120.292l-18.27-23.466c-4.679-6.01,1.245-14.448,8.487-12.088l15.877,5.173l15.877-5.173
				c7.242-2.359,13.166,6.078,8.487,12.088l-18.27,23.466C183.102,124.264,177.098,124.264,174.006,120.292z"/>
		</g>
		<g>
			<g>
				<path style="fill:#CDBFBB;" d="M408.8,467.86c0,1.481-0.084,2.953-0.262,4.387c-2.165,18.165-17.622,32.253-36.377,32.253
					c-18.746,0-34.203-14.088-36.368-32.253c-0.178-1.434-0.262-2.906-0.262-4.387c0-20.237,16.403-36.639,36.63-36.639
					C392.397,431.221,408.8,447.624,408.8,467.86z"/>
				<path style="fill:#9E9797;" d="M408.8,467.86c0,1.481-0.084,2.953-0.262,4.387c-2.165,18.165-17.622,32.253-36.377,32.253
					c-3.806,0-7.48-0.581-10.929-1.659c13.544-4.237,23.714-16.122,25.439-30.594c0.178-1.434,0.262-2.906,0.262-4.387
					c0-16.431-10.807-30.331-25.701-34.98c3.449-1.078,7.123-1.659,10.929-1.659C392.397,431.221,408.8,447.624,408.8,467.86z"/>
			</g>
			<g>
				<path style="fill:#CDBFBB;" d="M475.173,467.86c0,1.481-0.084,2.953-0.262,4.387c-2.165,18.165-17.622,32.253-36.377,32.253
					c-18.746,0-34.203-14.088-36.368-32.253c-0.178-1.434-0.262-2.906-0.262-4.387c0-20.237,16.403-36.639,36.63-36.639
					C458.77,431.221,475.173,447.624,475.173,467.86z"/>
				<path style="fill:#9E9797;" d="M475.173,467.86c0,1.481-0.084,2.953-0.262,4.387c-2.165,18.165-17.622,32.253-36.377,32.253
					c-3.806,0-7.48-0.581-10.929-1.659c13.544-4.237,23.714-16.122,25.439-30.594c0.178-1.434,0.262-2.906,0.262-4.387
					c0-16.431-10.807-30.331-25.701-34.98c3.449-1.078,7.123-1.659,10.929-1.659C458.77,431.221,475.173,447.624,475.173,467.86z"/>
			</g>
		</g>
	</g>
	<g>
		<path d="M497.344,74.077l-3.779-3.779c-3.247-3.248-7.565-5.037-12.158-5.037c-4.592,0-8.91,1.789-12.158,5.036l-35.674,35.674
			l-24.563-24.563c-2.93-2.929-7.678-2.929-10.607,0l-16.52,16.52c-1.637,1.637-2.426,3.938-2.139,6.234l3.468,27.725
			l-67.861,67.861c-2.728,2.727-4.229,6.353-4.229,10.209c0,2.284,0.539,4.481,1.534,6.464l-13.907,13.907
			c-3.739-3.695-8.871-5.984-14.53-5.984h-16.524c2.241-7.159,3.641-14.702,4.051-22.524l0.653-12.8
			c1.47,0.224,2.963,0.347,4.479,0.347c16.188,0,29.358-13.17,29.358-29.358c0-7.206-2.64-14.044-7.274-19.335
			c1.342-1.549,2.544-3.168,3.57-4.865c4.729-7.822,2.442-17.889-5.206-22.918l-8.211-5.399C287.731,37.142,250.108,0,180.1,0
			C112.13,0,72.588,39.105,71.088,107.49l-8.215,5.402c-7.647,5.029-9.935,15.096-5.205,22.918c1.164,1.925,2.6,3.807,4.283,5.641
			c-4.228,5.19-6.634,11.739-6.634,18.558c0,16.188,13.17,29.358,29.358,29.358c1.503,0,2.999-0.13,4.478-0.358l0.654,12.821
			c0.409,7.819,1.808,15.358,4.049,22.515H77.334c-8.651,0-16.068,5.343-19.151,12.898c-29.563,14.26-48.557,44.359-48.557,77.288
			V477.75c0,9.345,7.603,16.948,16.948,16.948c4.143,0,7.5-3.358,7.5-7.5s-3.357-7.5-7.5-7.5c-1.074,0-1.948-0.874-1.948-1.948
			V314.532c0-24.053,12.282-46.276,32.022-59.226v38.624c0,4.142,3.357,7.5,7.5,7.5s7.5-3.358,7.5-7.5v-48.898
			c0-3.135,2.551-5.686,5.686-5.686h22.734c15.269,29.12,45.774,48.816,80.709,48.816c34.933,0,65.437-19.695,80.706-48.816h22.736
			c3.135,0,5.686,2.55,5.686,5.686v242.167c0,4.142,3.357,7.5,7.5,7.5s7.5-3.358,7.5-7.5V255.303
			c19.733,12.954,32.022,35.206,32.022,59.229v126.784c-5.583,7.393-8.9,16.587-8.9,26.544c0,4.738,0.759,9.3,2.147,13.581
			c-1.646,1.376-2.695,3.443-2.695,5.756c0,4.142,3.357,7.5,7.5,7.5c0.698,0,1.386-0.056,2.069-0.139
			c8.07,10.588,20.804,17.438,35.114,17.438c12.927,0,24.927-5.607,33.199-15.072c8.095,9.229,19.961,15.072,33.174,15.072
			c24.337,0,44.137-19.799,44.137-44.136c0-21.779-15.861-39.913-36.637-43.486v-15.358h10.004l5.76,9.844
			c1.396,2.385,3.904,3.714,6.48,3.713c1.287,0,2.591-0.331,3.781-1.028c3.575-2.092,4.777-6.686,2.686-10.261l-7.933-13.557
			c-1.346-2.299-3.81-3.712-6.474-3.712h-14.408c-0.572-3.574-3.661-6.308-7.396-6.308c-3.741,0-6.832,2.741-7.399,6.322
			c-4.014,0.146-7.224,3.437-7.224,7.486c0,4.015,3.157,7.283,7.123,7.481v15.377c-10.164,1.748-19.146,6.98-25.675,14.423
			c-6.648-7.594-15.713-12.69-25.698-14.409v-15.372h10.004l5.76,9.844c1.396,2.385,3.904,3.714,6.48,3.713
			c1.287,0,2.591-0.331,3.781-1.028c3.575-2.092,4.777-6.686,2.686-10.261l-7.933-13.557c-1.346-2.299-3.81-3.712-6.474-3.712
			H379.56c-0.572-3.574-3.661-6.308-7.396-6.308c-3.741,0-6.832,2.741-7.399,6.322c-4.014,0.146-7.224,3.437-7.224,7.486
			c0,4.015,3.157,7.283,7.123,7.481v15.377c-4.516,0.777-8.797,2.24-12.735,4.282v-95.136c4.143,2.442,8.358,4.713,12.615,6.778
			c1.055,0.512,2.17,0.754,3.268,0.754c2.783,0,5.458-1.557,6.754-4.229c1.808-3.727,0.252-8.213-3.475-10.021
			c-6.418-3.113-12.74-6.728-18.829-10.753l26.843-26.842c13.256,7.658,32.688,15.644,55.401,14.951
			c0.973-0.033,1.786,0.714,1.915,1.691l4.336,32.911c0.092,0.697-0.186,1.202-0.434,1.502c-0.247,0.298-0.688,0.663-1.384,0.704
			c-12.376,0.716-24.898-0.371-37.203-3.23c-4.033-0.935-8.065,1.573-9.003,5.608c-0.938,4.035,1.574,8.065,5.608,9.003
			c10.973,2.549,22.104,3.832,33.2,3.832c2.757,0,5.514-0.079,8.263-0.238c4.684-0.271,9.085-2.501,12.077-6.119
			c2.994-3.62,4.359-8.366,3.746-13.021l-4.336-32.912c-1.142-8.657-8.576-14.991-17.24-14.725
			c-17.993,0.555-33.741-5.436-45.09-11.632c2.8-6.534,1.55-14.403-3.775-19.729l-13.11-13.109l75.942-75.943
			c2.728-2.727,4.229-6.353,4.229-10.209s-1.502-7.482-4.229-10.209l-0.308-0.308l49.634-49.634
			C504.046,91.688,504.046,80.78,497.344,74.077z M276.878,174.368c-1.272,0-2.507-0.18-3.706-0.499l0.825-16.172
			c4.682-2.103,9.306-4.529,13.538-7.307c2.357,2.611,3.701,6.023,3.701,9.62C291.236,167.927,284.795,174.368,276.878,174.368z
			 M84.676,174.368c-7.917,0-14.358-6.441-14.358-14.358c0-3.334,1.185-6.531,3.253-9.07c4.105,2.623,8.797,5.088,14.017,7.367
			l0.794,15.573C87.186,174.197,85.95,174.368,84.676,174.368z M180.776,273.162c-40.494,0-73.872-31.677-75.988-72.105
			l-1.892-37.081c6.964,2.184,14.536,4.097,22.649,5.689c4.064,0.802,8.006-1.851,8.804-5.915c0.798-4.065-1.851-8.006-5.915-8.804
			c-34.86-6.843-52.781-18.38-57.93-26.896c-0.539-0.893-0.271-2.046,0.611-2.625l7.588-4.99c9.12,4.968,20.598,9.317,33.536,12.681
			c0.632,0.165,1.268,0.243,1.892,0.243c3.333,0,6.376-2.239,7.254-5.615c1.042-4.009-1.362-8.104-5.372-9.146
			c-11.679-3.037-21.91-6.879-29.902-11.207c0.681-26.49,7.858-48.563,20.884-64.014C122.87,24.547,147.466,15,180.1,15
			c34.071,0,59.131,9.518,74.48,28.291c12.365,15.121,18.914,36.678,19.516,64.093c-4.829,2.619-10.45,5.056-16.795,7.263
			c-3.913,1.36-5.981,5.635-4.621,9.547c1.077,3.097,3.979,5.039,7.084,5.039c0.816,0,1.648-0.135,2.463-0.418
			c7.208-2.506,13.656-5.32,19.265-8.381l7.593,4.993c0.883,0.58,1.151,1.733,0.612,2.625
			c-9.424,15.588-52.995,31.711-109.597,31.711c-6.001,0-12.146-0.196-18.269-0.584c-4.119-0.258-7.697,2.878-7.959,7.011
			c-0.262,4.134,2.878,7.697,7.012,7.959c6.436,0.408,12.9,0.614,19.216,0.614c27.657,0,55.076-3.83,77.205-10.785
			c0.454-0.143,0.913-0.29,1.375-0.439l-1.913,37.509C254.65,241.485,221.272,273.162,180.776,273.162z M437.013,158.542
			l-4.145,4.145l-11.989-11.99l4.145-4.145L437.013,158.542z M417.333,178.222l-11.99-11.99l4.928-4.928l11.989,11.99
			L417.333,178.222z M401.798,193.757l-11.99-11.99l4.928-4.928l11.99,11.99L401.798,193.757z M386.264,209.291l-11.99-11.99
			l4.928-4.928l11.99,11.99L386.264,209.291z M370.729,224.827l-11.99-11.99l4.928-4.928l11.99,11.99L370.729,224.827z
			 M326.357,209.958l4.145-4.145l7.024,7.024l-4.145,4.145L326.357,209.958z M346.036,190.278l7.024,7.024l-4.928,4.928
			l-7.024-7.024L346.036,190.278z M361.571,174.744l7.024,7.024l-4.928,4.928l-7.024-7.024L361.571,174.744z M377.106,159.208
			l7.024,7.024l-4.928,4.928l-7.024-7.024L377.106,159.208z M414.417,135.945l-4.145,4.145l-7.023-7.023l4.145-4.145
			L414.417,135.945z M392.641,143.674l7.023,7.023l-4.928,4.928l-7.023-7.024L392.641,143.674z M355.977,239.579l-11.99-11.99
			l4.145-4.145l11.99,11.99L355.977,239.579z M395.086,105.941l8.622-8.623l19.26,19.26l-3.352,3.352l-2.014-2.014
			c-2.728-2.727-6.353-4.229-10.209-4.229s-7.482,1.502-10.209,4.229l-0.533,0.533L395.086,105.941z M309.68,240.613l13.059-13.059
			l5.331,5.331c0.002,0.002,0.004,0.005,0.007,0.007s0.005,0.004,0.007,0.006l10.769,10.769l-11.161,11.161
			C322.401,249.358,316.361,244.558,309.68,240.613z M438.536,438.724c16.066,0,29.137,13.07,29.137,29.136
			s-13.07,29.136-29.137,29.136c-16.065,0-29.136-13.07-29.136-29.136S422.471,438.724,438.536,438.724z M397.066,452.75
			c-1.724,4.716-2.666,9.805-2.666,15.11c0,5.309,0.943,10.402,2.669,15.121c-5.276,8.688-14.656,14.015-24.906,14.015
			c-16.065,0-29.136-13.07-29.136-29.136s13.07-29.136,29.136-29.136C382.381,438.724,391.789,444.068,397.066,452.75z
			 M375.429,270.465c0,0.449-0.11,1.314-0.852,2.054l-24.483,24.483c-2.302-10.96-6.722-21.295-12.906-30.456l12.965-12.965
			c1.812,0.8,3.783,1.231,5.823,1.231c1.494,0,2.951-0.231,4.336-0.666l14.264,14.264
			C375.318,269.15,375.429,270.015,375.429,270.465z M486.736,87.785l-49.634,49.633l-6.771-6.771
			c-0.002-0.002-0.003-0.003-0.005-0.005s-0.003-0.003-0.005-0.005l-0.1-0.1l49.632-49.633c0.531-0.531,1.138-0.643,1.552-0.643
			c0.415,0,1.021,0.111,1.551,0.643l3.779,3.779C487.592,85.538,487.592,86.93,486.736,87.785z"/>
		<path d="M126.043,433.383H99.949c-7.953,0-14.424,6.475-14.424,14.434v39.376c0,4.142,3.357,7.5,7.5,7.5s7.5-3.358,7.5-7.5v-38.81
			h24.952v38.81c0,4.142,3.357,7.5,7.5,7.5s7.5-3.358,7.5-7.5v-39.376C140.478,439.858,134.002,433.383,126.043,433.383z"/>
		<path d="M193.147,433.383h-26.094c-7.954,0-14.425,6.475-14.425,14.434v39.376c0,4.142,3.357,7.5,7.5,7.5s7.5-3.358,7.5-7.5
			v-38.81h24.943v38.81c0,4.142,3.357,7.5,7.5,7.5s7.5-3.358,7.5-7.5v-39.376C207.571,439.858,201.101,433.383,193.147,433.383z"/>
		<path d="M260.25,433.383h-26.094c-7.959,0-14.434,6.475-14.434,14.434v39.376c0,4.142,3.357,7.5,7.5,7.5s7.5-3.358,7.5-7.5v-38.81
			h24.952v38.81c0,4.142,3.357,7.5,7.5,7.5s7.5-3.358,7.5-7.5v-39.376C274.675,439.858,268.204,433.383,260.25,433.383z"/>
		<path d="M64.149,320.797c-4.143,0-7.5,3.358-7.5,7.5v158.9c0,4.142,3.357,7.5,7.5,7.5s7.5-3.358,7.5-7.5v-158.9
			C71.649,324.155,68.291,320.797,64.149,320.797z"/>
		<path d="M106.332,405.615h13.334c11.474,0,20.808-9.334,20.808-20.808v-47.51c0-7.955-6.472-14.426-14.427-14.426H99.951
			c-7.955,0-14.427,6.472-14.427,14.426v47.51C85.525,396.281,94.859,405.615,106.332,405.615z M119.666,390.615h-13.334
			c-3.202,0-5.808-2.605-5.808-5.808v-21.029h24.949v21.029C125.474,388.01,122.868,390.615,119.666,390.615z M125.474,337.872
			v10.907h-24.949v-10.907H125.474z"/>
		<path d="M193.149,322.872h-26.097c-7.955,0-14.427,6.472-14.427,14.426v47.51c0,11.473,9.334,20.808,20.808,20.808h13.334
			c11.474,0,20.808-9.334,20.808-20.808v-47.51C207.574,329.343,201.103,322.872,193.149,322.872z M192.574,337.872v10.907h-24.949
			v-10.907H192.574z M186.767,390.615h-13.334c-3.202,0-5.808-2.605-5.808-5.808v-21.029h24.949v21.029
			C192.574,388.01,189.969,390.615,186.767,390.615z"/>
		<path d="M260.249,322.872h-26.097c-7.955,0-14.427,6.472-14.427,14.426v47.51c0,11.473,9.334,20.808,20.808,20.808h13.334
			c11.474,0,20.808-9.334,20.808-20.808v-47.51C274.675,329.343,268.203,322.872,260.249,322.872z M259.675,337.872v10.907h-24.949
			v-10.907H259.675z M253.867,390.615h-13.334c-3.202,0-5.808-2.605-5.808-5.808v-21.029h24.949v21.029
			C259.675,388.01,257.069,390.615,253.867,390.615z"/>
		<path d="M141.81,180.685c-4.143,0-7.5,3.406-7.5,7.548s3.357,7.5,7.5,7.5s7.5-3.358,7.5-7.5v-0.097
			C149.31,183.995,145.952,180.685,141.81,180.685z"/>
		<path d="M219.744,180.685c-4.143,0-7.5,3.406-7.5,7.548s3.357,7.5,7.5,7.5s7.5-3.358,7.5-7.5v-0.097
			C227.244,183.995,223.887,180.685,219.744,180.685z"/>
		<path d="M204.624,212.843c-3.984-1.144-8.137,1.154-9.281,5.135c-1.858,6.461-7.848,10.974-14.566,10.974
			c-6.718,0-12.707-4.513-14.565-10.974c-1.146-3.981-5.302-6.276-9.281-5.135c-3.98,1.145-6.279,5.3-5.135,9.281
			c3.696,12.853,15.613,21.829,28.981,21.829s25.286-8.976,28.982-21.829C210.903,218.143,208.605,213.988,204.624,212.843z"/>
		<path d="M180.099,130.771C180.1,130.771,180.099,130.771,180.099,130.771c4.729,0,9.108-2.14,12.014-5.872l18.27-23.466
			c4.137-5.314,4.316-12.588,0.446-18.1c-3.869-5.512-10.771-7.814-17.175-5.727L180.1,82.023l-13.554-4.416
			c-6.403-2.087-13.307,0.216-17.176,5.727c-3.869,5.512-3.689,12.786,0.448,18.099l18.27,23.466
			C170.992,128.63,175.37,130.771,180.099,130.771z M161.572,92.106c0.02-0.094,0.128-0.247,0.162-0.274c0,0,0.051,0,0.165,0.037
			l15.877,5.173c1.51,0.492,3.137,0.492,4.646,0l15.877-5.173c0.077-0.025,0.125-0.033,0.134-0.039
			c0.082,0.05,0.189,0.205,0.203,0.246c0,0-0.018,0.049-0.091,0.143l-18.27,23.465c-0.063,0.085-0.285,0.086-0.353,0.001
			c0,0,0,0,0,0l-18.27-23.466C161.605,92.155,161.58,92.112,161.572,92.106z"/>
		<path d="M359.454,467.86c0,4.142,3.357,7.5,7.5,7.5h13.632c4.143,0,7.5-3.358,7.5-7.5s-3.357-7.5-7.5-7.5h-13.632
			C362.812,460.36,359.454,463.718,359.454,467.86z"/>
		<path d="M433.327,475.36h13.632c4.143,0,7.5-3.358,7.5-7.5s-3.357-7.5-7.5-7.5h-13.632c-4.143,0-7.5,3.358-7.5,7.5
			S429.185,475.36,433.327,475.36z"/>
	</g>
</g>
<g>
</g>
<g>
</g>
<g>
</g>
<g>
</g>
<g>
</g>
<g>
</g>
<g>
</g>
<g>
</g>
<g>
</g>
<g>
</g>
<g>
</g>
<g>
</g>
<g>
</g>
<g>
</g>
<g>
</g>
</svg>
