<?xml version="1.0" encoding="iso-8859-1"?>
<!-- Generator: Adobe Illustrator 23.0.3, SVG Export Plug-In . SVG Version: 6.00 Build 0)  -->
<svg version="1.1" id="Capa_1" xmlns="http://www.w3.org/2000/svg" xmlns:xlink="http://www.w3.org/1999/xlink" x="0px" y="0px"
	 viewBox="0 0 512 512" style="enable-background:new 0 0 512 512;" xml:space="preserve">
<g>
	<g>
		<g>
			<g>
				<path style="fill:#E19A77;" d="M504.5,107.667v190.141c0,5.688-4.611,10.299-10.299,10.299H237.376
					c-5.688,0-10.299-4.611-10.299-10.299V107.667c0-5.688,4.611-10.299,10.299-10.299h256.825
					C499.889,97.368,504.5,101.979,504.5,107.667z"/>
				<g>
					<path style="fill:#FFF5F5;" d="M475.524,135.717v134.035c0,2.34-0.81,4.501-2.17,6.191c-1.82,2.28-4.611,3.73-7.751,3.73
						H236.996c-5.481,0-9.921-4.44-9.921-9.921V135.717c0-5.481,4.44-9.921,9.921-9.921h228.606
						C471.083,125.796,475.524,130.236,475.524,135.717z"/>
					<path style="fill:#E84649;" d="M475.524,135.717v134.035c0,2.34-0.81,4.501-2.17,6.191L323.206,125.796h142.397
						C471.083,125.796,475.524,130.236,475.524,135.717z"/>
					<path style="fill:#A4E540;" d="M475.524,135.717v81.529l-91.451-91.45h81.529C471.083,125.796,475.524,130.236,475.524,135.717
						z"/>
					<path style="fill:#65BAFC;" d="M475.524,161.99v107.762c0,5.481-4.44,9.921-9.921,9.921H357.84L475.524,161.99z"/>
				</g>
			</g>
			<g>
				<g>
					<g>
						<g>
							<path style="fill:#FCD79F;" d="M327.767,271.696H120.384V104.211c0-33.801,27.401-61.202,61.202-61.202h84.979
								c33.801,0,61.202,27.401,61.202,61.202V271.696z"/>
							<path style="fill:#006AC3;" d="M327.767,307.896V447.27c0,5.506-4.469,9.975-9.975,9.975H113.425
								c-5.506,0-9.975-4.469-9.975-9.975V307.896c0-44.746,36.267-81.013,81.013-81.013h62.291
								C291.5,226.883,327.767,263.15,327.767,307.896z"/>
							<path style="fill:#FFBC8A;" d="M103.453,373.768v73.502c0,5.506,4.469,9.975,9.975,9.975h35.38v-83.477H103.453z"/>
							<path style="fill:#0057A1;" d="M327.767,307.896V447.27c0,5.506-4.469,9.975-9.975,9.975h-11.68V307.896
								c0-44.746-36.267-81.013-81.013-81.013h21.655C291.5,226.883,327.767,263.15,327.767,307.896z"/>
							<path style="fill:#FFBC8A;" d="M327.767,373.768v73.502c0,5.506-4.469,9.975-9.975,9.975h-35.38v-83.477H327.767z"/>
							<path style="fill:#F5A871;" d="M327.767,373.768v73.502c0,5.506-4.469,9.975-9.975,9.975h-11.68v-83.477H327.767z"/>
							<g>
								<path style="fill:#FCD79F;" d="M274.362,191.262v88.793c0,7.106,7.25,11.909,13.793,9.139l13.412-5.678
									c15.882-6.723,26.2-22.296,26.2-39.543v-52.712"/>
							</g>
							<g>
								<g>
									<circle style="fill:#F5A871;" cx="135.699" cy="156.706" r="20.607"/>
								</g>
							</g>
							<path style="fill:#FFBC8A;" d="M274.364,110.523v103.233c-3.732,6.758-8.585,12.782-14.301,17.844
								c-11.889,10.53-27.5,16.852-44.451,16.852c-33.902,0-62.474-25.287-66.582-58.941l-6.242-51.1
								c-2.044-16.752,11.036-31.53,27.917-31.53h89.815C265.581,106.881,270.295,108.21,274.364,110.523z"/>
							<g>
								<path style="fill:#FCD79F;" d="M221.471,118.319h-40.379c-31.848,0-57.665-25.818-57.665-57.665v0
									c0-13.199,10.7-23.899,23.899-23.899h49.475c13.625,0,24.67,11.045,24.67,24.67V118.319z"/>
								<path style="fill:#FAC574;" d="M209.746,118.319h40.379c31.848,0,57.665-25.818,57.665-57.665v0
									c0-13.199-10.7-23.899-23.899-23.899h-49.475c-13.625,0-24.67,11.045-24.67,24.67V118.319z"/>
								<path style="fill:#E8B76B;" d="M307.79,60.651c0,31.85-25.82,57.67-57.67,57.67h-18.86c31.85,0,57.67-25.82,57.67-57.67
									c0-6.6-2.67-12.57-7-16.9c-4.33-4.33-10.3-7-16.9-7h18.86c6.6,0,12.57,2.67,16.9,7
									C305.12,48.081,307.79,54.051,307.79,60.651z"/>
							</g>
						</g>
						<g>
							<g>
								<circle style="fill:#E84649;" cx="215.609" cy="318.432" r="24.298"/>
							</g>
						</g>
					</g>
				</g>
				<g>
					<path style="fill:#FFCBA1;" d="M54.13,77.062c-1.47-4.014-6.47-5.346-9.677-2.518C31.846,85.662,7.5,110.4,7.5,135.641
						c0,34.059,24.475,40.782,38.204,40.782c15.387,0,38.204-11.439,38.204-40.782C83.908,105.964,62.415,99.686,54.13,77.062z"/>
					<path style="fill:#DB885D;" d="M73.169,178.324l-1.528,52.678l-6.825,234.602c-0.156,5.366-4.551,9.636-9.92,9.636h-17.44
						c-5.369,0-9.764-4.269-9.92-9.636l-6.825-234.602l-1.528-52.678c-0.159-5.587,4.327-10.212,9.924-10.212h34.14
						C68.842,168.112,73.328,172.736,73.169,178.324z"/>
					<path style="fill:#C86D3D;" d="M73.169,178.324l-1.528,52.678l-6.828,234.602c-0.149,5.369-4.545,9.637-9.914,9.637H37.451
						c-0.327,0-0.645-0.02-0.963-0.05c4.913-0.486,8.783-4.555,8.932-9.587l6.818-234.602l1.528-52.678
						c0.159-5.587-4.327-10.212-9.924-10.212h19.402C68.842,168.112,73.328,172.736,73.169,178.324z"/>
					<path style="fill:#EFE2DD;" d="M73.169,178.324l-1.528,52.678H20.709l-1.528-52.678c-0.159-5.587,4.327-10.212,9.924-10.212
						h34.14C68.842,168.112,73.328,172.736,73.169,178.324z"/>
					<path style="fill:#CDBFBB;" d="M73.169,178.324l-1.528,52.678H52.238l1.528-52.678c0.159-5.587-4.327-10.212-9.924-10.212
						h19.402C68.842,168.112,73.328,172.736,73.169,178.324z"/>
				</g>
			</g>
		</g>
		<g>
			<g>
				<path style="fill:#A4E540;" d="M318.209,475.244h29.158c4.742,0,8.399-4.174,7.776-8.875l-3.263-24.603l-4.369-32.991
					l-2.957-22.316h-23.531l-2.957,22.316l-4.369,32.991l-3.263,24.603C309.81,471.07,313.468,475.244,318.209,475.244z"/>
				<polygon style="fill:#EFE2DD;" points="313.696,441.767 351.88,441.767 347.511,408.776 318.065,408.776 				"/>
				<path style="fill:#EFE2DD;" d="M322.81,386.46h19.955c1.779,0,3.221-1.442,3.221-3.221v-15.332c0-4.332-3.512-7.844-7.844-7.844
					h-10.709c-4.332,0-7.844,3.512-7.844,7.844v15.332C319.589,385.018,321.031,386.46,322.81,386.46z"/>
			</g>
			<g>
				<path style="fill:#E84649;" d="M412.061,360.063h-29.158c-4.742,0-8.399,4.174-7.776,8.875l3.263,24.603l4.369,32.991
					l2.957,22.316h23.531l2.957-22.316l4.369-32.991l3.263-24.603C420.46,364.238,416.803,360.063,412.061,360.063z"/>
				<polygon style="fill:#EFE2DD;" points="416.574,393.541 378.391,393.541 382.76,426.532 412.205,426.532 				"/>
				<path style="fill:#EFE2DD;" d="M407.461,448.848h-19.955c-1.779,0-3.221,1.442-3.221,3.221V467.4
					c0,4.332,3.512,7.844,7.844,7.844h10.709c4.332,0,7.844-3.512,7.844-7.844v-15.332
					C410.682,450.289,409.24,448.848,407.461,448.848z"/>
			</g>
			<g>
				<path style="fill:#65BAFC;" d="M447.601,475.244h29.158c4.742,0,8.399-4.174,7.776-8.875l-3.263-24.603l-4.369-32.991
					l-2.957-22.316h-23.531l-2.957,22.316l-4.369,32.991l-3.263,24.603C439.202,471.07,442.859,475.244,447.601,475.244z"/>
				<polygon style="fill:#EFE2DD;" points="443.088,441.767 481.271,441.767 476.902,408.776 447.457,408.776 				"/>
				<path style="fill:#EFE2DD;" d="M452.201,386.46h19.955c1.779,0,3.221-1.442,3.221-3.221v-15.332
					c0-4.332-3.512-7.844-7.844-7.844h-10.709c-4.332,0-7.844,3.512-7.844,7.844v15.332
					C448.981,385.018,450.422,386.46,452.201,386.46z"/>
			</g>
		</g>
	</g>
	<g>
		<path d="M494.201,89.867H382.21c-4.143,0-7.5,3.358-7.5,7.5s3.357,7.5,7.5,7.5h111.991c1.543,0,2.799,1.256,2.799,2.799v190.141
			c0,1.543-1.256,2.799-2.799,2.799H334.974c-0.367-4.551-1.086-9.031-2.142-13.428h132.769c9.606,0,17.422-7.815,17.422-17.422
			v-21.882c0-4.142-3.357-7.5-7.5-7.5s-7.5,3.358-7.5,7.5v21.882c0,1.335-1.087,2.422-2.422,2.422h-89.658l92.08-92.081v32.024
			c0,4.142,3.357,7.5,7.5,7.5s7.5-3.358,7.5-7.5v-76.404c0-9.606-7.815-17.422-17.422-17.422H335.268v-13.428h11.189
			c4.143,0,7.5-3.358,7.5-7.5s-3.357-7.5-7.5-7.5h-12.678c-2.741-13.035-9.237-24.936-18.947-34.516
			c-2.528-14.795-15.436-26.095-30.941-26.095h-49.476c-7.01,0-13.497,2.26-18.787,6.081c-5.448-3.946-11.978-6.081-18.826-6.081
			h-49.476c-17.313,0-31.398,14.085-31.398,31.398c0,5.892,0.8,11.598,2.273,17.031c-3.525,8.412-5.317,17.335-5.317,26.526v36.109
			c-3.325,4.617-5.292,10.274-5.292,16.386c0,6.111,1.967,11.769,5.292,16.385v82.609c-10.73,14.734-16.932,32.833-16.932,52.19
			V447.27c0,9.636,7.839,17.475,17.475,17.475c4.143,0,7.5-3.358,7.5-7.5s-3.357-7.5-7.5-7.5c-1.364,0-2.475-1.11-2.475-2.475
			v-66.002h30.35v75.977c0,4.142,3.357,7.5,7.5,7.5s7.5-3.358,7.5-7.5V345.531c0-4.142-3.357-7.5-7.5-7.5s-7.5,3.358-7.5,7.5v20.737
			h-30.35v-58.376c0-33.597,22.474-62.63,54.811-71.095c13.285,11.947,30.82,19.155,49.849,19.155
			c18.229,0,35.78-6.654,49.423-18.737c0.622-0.551,1.225-1.118,1.826-1.687v44.528c0,5.859,2.916,11.289,7.801,14.525
			c2.902,1.923,6.248,2.904,9.617,2.904c2.3,0,4.611-0.457,6.8-1.384l13.412-5.678c4.244-1.797,8.143-4.13,11.641-6.894
			c2.741,7.785,4.135,15.948,4.135,24.362v46.458c-4.4,2.335-7.536,6.744-8.088,11.919h-22.261v-20.737c0-4.142-3.357-7.5-7.5-7.5
			s-7.5,3.358-7.5,7.5v111.713c0,4.142,3.357,7.5,7.5,7.5s7.5-3.358,7.5-7.5v-75.977h22.171v1.972c0,1.733,0.423,3.366,1.156,4.816
			l-10.249,77.328c-0.58,4.383,0.759,8.803,3.673,12.127c2.913,3.324,7.119,5.231,11.539,5.231h29.159
			c4.421,0,8.627-1.907,11.54-5.232c2.913-3.325,4.251-7.746,3.67-12.128l-10.247-77.326c0.733-1.45,1.156-3.083,1.156-4.816
			v-15.332c0-8.461-6.884-15.344-15.345-15.344h-2.874v-36.957h158.934c9.814,0,17.799-7.985,17.799-17.799V107.667
			C512,97.852,504.016,89.867,494.201,89.867z M380.966,133.295l56.323,56.323l-19.826,19.827l-76.149-76.149H380.966z
			 M327.763,272.178c-0.147-0.332-0.302-0.662-0.453-0.993c5.091-7.948,7.958-17.333,7.958-27.212v-95.509l71.588,71.588
			l-52.126,52.126H327.763z M468.023,135.717v23.166l-20.128,20.128l-45.716-45.716h63.422
			C466.937,133.295,468.023,134.382,468.023,135.717z M234.415,44.256h49.476c9.042,0,16.398,7.356,16.398,16.398
			c0,27.661-22.504,50.165-50.165,50.165h-32.878V61.425C217.246,51.958,224.948,44.256,234.415,44.256z M147.326,44.256h49.476
			c3.219,0,6.298,0.898,8.974,2.546c-2.251,4.391-3.53,9.359-3.53,14.623v49.394h-21.153c-27.661,0-50.165-22.504-50.165-50.165
			C130.928,51.612,138.284,44.256,147.326,44.256z M122.592,156.706c0-7.228,5.88-13.107,13.107-13.107
			c0.056,0,0.111,0.005,0.167,0.005l3.15,25.783c-1.077,0.28-2.193,0.426-3.317,0.426
			C128.472,169.813,122.592,163.933,122.592,156.706z M142.574,113.174c-3.497,4.519-5.851,9.819-6.884,15.425
			c-2.709,0.001-5.326,0.394-7.806,1.114v-25.501c0-1.883,0.1-3.75,0.291-5.599C132.184,104.187,137.044,109.107,142.574,113.174z
			 M127.884,239.732v-56.033c2.483,0.72,5.103,1.114,7.815,1.114c1.73,0,3.451-0.166,5.142-0.48l0.743,6.086
			c1.546,12.66,6.23,24.26,13.203,34.071C144.811,228.018,135.745,233.215,127.884,239.732z M298.644,276.609l-13.412,5.678
			c-1.045,0.443-1.88,0.057-2.285-0.211s-1.085-0.888-1.085-2.021l0.003-112.848c0-4.142-3.357-7.5-7.5-7.5s-7.5,3.358-7.5,7.5
			l-0.003,44.559c-3.157,5.315-7.11,10.092-11.771,14.219c-10.897,9.651-24.918,14.966-39.479,14.966
			c-30.07,0-55.494-22.505-59.139-52.35l-6.242-51.099c-0.754-6.183,1.367-12.341,5.612-16.776c7.77,3.278,16.301,5.093,25.25,5.093
			h69.031c5.786,0,11.395-0.768,16.74-2.19v7.825c0,4.142,3.357,7.5,7.5,7.5s7.5-3.358,7.5-7.5v-13.917
			c15.206-8.519,26.666-22.948,31.24-40.163c4.668,8.054,7.163,17.224,7.163,26.837v139.762
			C320.268,258.238,311.779,271.048,298.644,276.609z M338.952,401.275h-12.329l0.969-7.315h10.39L338.952,401.275z
			 M324.638,416.275h16.301l2.383,17.991h-21.066L324.638,416.275z M347.625,467.624c-0.103,0.117-0.207,0.117-0.258,0.117h-29.159
			c-0.051,0-0.156,0-0.259-0.117c-0.103-0.118-0.089-0.223-0.083-0.272l2.397-18.085h25.049l2.396,18.085
			C347.714,467.402,347.729,467.507,347.625,467.624z M338.486,367.907v11.051h-11.397v-11.051c0-0.19,0.154-0.344,0.344-0.344
			h10.709C338.332,367.563,338.486,367.717,338.486,367.907z"/>
		<path d="M180.733,159.998c-4.143,0-7.5,3.401-7.5,7.543s3.357,7.5,7.5,7.5s7.5-3.358,7.5-7.5v-0.086
			C188.233,163.313,184.876,159.998,180.733,159.998z"/>
		<path d="M250.486,159.998c-4.143,0-7.5,3.401-7.5,7.543s3.357,7.5,7.5,7.5s7.5-3.358,7.5-7.5v-0.086
			C257.986,163.313,254.629,159.998,250.486,159.998z"/>
		<path d="M237.172,188.811c-3.978-1.146-8.136,1.153-9.281,5.134c-1.566,5.448-6.617,9.253-12.28,9.253
			c-5.664,0-10.715-3.805-12.281-9.253c-1.146-3.981-5.301-6.278-9.281-5.134c-3.98,1.145-6.279,5.3-5.135,9.281
			c3.405,11.838,14.384,20.106,26.697,20.106c12.313,0,23.291-8.268,26.696-20.106C243.451,194.111,241.152,189.956,237.172,188.811
			z"/>
		<path d="M299.937,113.821c-4.143,0-7.5,3.358-7.5,7.5v66.031c0,4.142,3.357,7.5,7.5,7.5s7.5-3.358,7.5-7.5v-66.031
			C307.437,117.179,304.079,113.821,299.937,113.821z"/>
		<path d="M215.608,286.634c-17.533,0-31.798,14.265-31.798,31.799c0,17.534,14.265,31.798,31.798,31.798
			c17.534,0,31.799-14.265,31.799-31.798C247.407,300.898,233.143,286.634,215.608,286.634z M215.608,335.231
			c-9.263,0-16.798-7.536-16.798-16.798s7.535-16.799,16.798-16.799s16.799,7.536,16.799,16.799S224.871,335.231,215.608,335.231z"
			/>
		<path d="M176.792,381.431c-4.143,0-7.5,3.358-7.5,7.5v14.987c0,4.142,3.357,7.5,7.5,7.5s7.5-3.358,7.5-7.5v-14.987
			C184.292,384.789,180.935,381.431,176.792,381.431z"/>
		<path d="M202.671,381.431c-4.143,0-7.5,3.358-7.5,7.5v14.987c0,4.142,3.357,7.5,7.5,7.5s7.5-3.358,7.5-7.5v-14.987
			C210.171,384.789,206.813,381.431,202.671,381.431z"/>
		<path d="M228.549,381.431c-4.143,0-7.5,3.358-7.5,7.5v14.987c0,4.142,3.357,7.5,7.5,7.5s7.5-3.358,7.5-7.5v-14.987
			C236.049,384.789,232.691,381.431,228.549,381.431z"/>
		<path d="M254.428,381.431c-4.143,0-7.5,3.358-7.5,7.5v14.987c0,4.142,3.357,7.5,7.5,7.5s7.5-3.358,7.5-7.5v-14.987
			C261.928,384.789,258.57,381.431,254.428,381.431z"/>
		<path d="M73.77,93.888C68.746,87.88,64,82.205,61.172,74.481c-1.551-4.234-5.078-7.422-9.434-8.527
			c-4.32-1.096-8.898,0.012-12.246,2.964C24.743,81.925,0,107.889,0,135.641c0,10.785,2.376,25.225,13.001,35.735
			c-0.927,2.238-1.391,4.663-1.319,7.165l8.354,287.286c0.276,9.486,7.928,16.917,17.418,16.917h17.439
			c9.49,0,17.142-7.431,17.418-16.918l8.354-287.286c0.09-3.109-0.642-6.102-2.078-8.758c6.66-6.891,12.819-17.704,12.819-34.142
			C91.408,114.982,82.037,103.776,73.77,93.888z M26.677,178.106c-0.026-0.892,0.418-1.485,0.685-1.76
			c0.267-0.274,0.847-0.735,1.738-0.735h34.15c0.892,0,1.472,0.46,1.738,0.735c0.267,0.275,0.711,0.869,0.685,1.76l-1.32,45.396
			H27.997L26.677,178.106z M47.838,81.577c3.76,9.179,9.405,15.931,14.425,21.933c7.59,9.078,14.146,16.917,14.146,32.13
			c0,12.926-5.169,20.715-10.196,25.237c-0.235-0.04-0.471-0.076-0.708-0.106c1.262-5.555,1.899-11.919,1.899-19.029
			c0-4.142-3.357-7.5-7.5-7.5s-7.5,3.358-7.5,7.5c0,8.787-1.122,14.84-2.376,18.868H41c-1.059-3.91-1.995-9.902-1.995-18.868
			c0-4.142-3.357-7.5-7.5-7.5s-7.5,3.358-7.5,7.5c0,7.313,0.563,13.734,1.675,19.204c-0.501,0.099-0.993,0.227-1.481,0.369
			C18.099,155.7,15,147.083,15,135.641C15,114.05,36.818,91.557,47.838,81.577z M54.895,467.744H37.455
			c-1.321,0-2.386-1.034-2.424-2.354l-6.598-226.888h35.483L57.318,465.39C57.28,466.71,56.216,467.744,54.895,467.744z"/>
		<path d="M412.063,352.566h-29.159c-4.421,0-8.627,1.907-11.54,5.232s-4.251,7.746-3.67,12.128l10.248,77.327
			c-0.733,1.45-1.156,3.083-1.156,4.816V467.4c0,8.46,6.883,15.344,15.344,15.344h10.709c8.461,0,15.344-6.883,15.344-15.344
			v-15.332c0-1.733-0.423-3.366-1.156-4.816l10.248-77.327c0.581-4.382-0.757-8.803-3.67-12.127
			C420.69,354.473,416.483,352.566,412.063,352.566z M391.319,434.032h12.328l-0.97,7.316h-10.389L391.319,434.032z
			 M405.633,419.032h-16.301l-2.383-17.991h21.066L405.633,419.032z M382.646,367.683c0.103-0.117,0.207-0.117,0.258-0.117h29.159
			c0.051,0,0.156,0,0.259,0.117c0.104,0.117,0.089,0.222,0.083,0.272l-2.397,18.085h-25.048l-2.397-18.085
			C382.557,367.905,382.542,367.8,382.646,367.683z M402.838,467.744h-10.709c-0.189,0-0.344-0.154-0.344-0.344v-11.052h11.396
			V467.4C403.182,467.59,403.027,467.744,402.838,467.744z"/>
		<path d="M481.721,388.055c0.733-1.45,1.156-3.083,1.156-4.816v-15.332c0-8.461-6.883-15.344-15.344-15.344h-10.709
			c-8.461,0-15.344,6.883-15.344,15.344v15.332c0,1.733,0.423,3.366,1.156,4.816l-10.248,77.326
			c-0.581,4.382,0.757,8.803,3.67,12.127c2.913,3.325,7.12,5.232,11.541,5.232h29.159c4.421,0,8.627-1.907,11.54-5.232
			c2.913-3.325,4.251-7.746,3.67-12.128L481.721,388.055z M454.029,416.275h16.301l2.383,17.991h-21.066L454.029,416.275z
			 M456.015,401.275l0.969-7.315h10.389l0.969,7.315H456.015z M456.824,367.563h10.709c0.189,0,0.344,0.154,0.344,0.344v11.051
			H456.48v-11.051C456.48,367.717,456.635,367.563,456.824,367.563z M477.017,467.624c-0.103,0.117-0.207,0.117-0.258,0.117H447.6
			c-0.051,0-0.156,0-0.259-0.118c-0.104-0.117-0.089-0.221-0.083-0.271l2.397-18.085h25.048l2.397,18.085
			C477.105,467.402,477.12,467.507,477.017,467.624z"/>
	</g>
</g>
<g>
</g>
<g>
</g>
<g>
</g>
<g>
</g>
<g>
</g>
<g>
</g>
<g>
</g>
<g>
</g>
<g>
</g>
<g>
</g>
<g>
</g>
<g>
</g>
<g>
</g>
<g>
</g>
<g>
</g>
</svg>
