<?xml version="1.0" encoding="iso-8859-1"?>
<!-- Generator: Adobe Illustrator 23.0.3, SVG Export Plug-In . SVG Version: 6.00 Build 0)  -->
<svg version="1.1" id="Capa_1" xmlns="http://www.w3.org/2000/svg" xmlns:xlink="http://www.w3.org/1999/xlink" x="0px" y="0px"
	 viewBox="0 0 512 512" style="enable-background:new 0 0 512 512;" xml:space="preserve">
<g>
	<g>
		<g>
			<g>
				<g>
					<path style="fill:#FF872A;" d="M319.238,97.648c0-38.527,20.944-72.179,52.061-90.149c31.1,17.988,52.027,51.622,52.027,90.149
						l-52.044,20.821L319.238,97.648z"/>
					<path style="fill:#F36717;" d="M402.81,105.858v-8.21c0-34.124-16.421-64.411-41.778-83.376
						c3.28-2.445,6.709-4.712,10.268-6.769c31.102,17.981,52.026,51.618,52.026,90.145L402.81,105.858z"/>
					<rect x="319.238" y="97.648" style="fill:#E0D3CE;" width="104.088" height="346.892"/>
					<rect x="402.807" y="97.648" style="fill:#CDBFBB;" width="20.519" height="346.892"/>
					<circle style="fill:#B6DCFF;" cx="363.042" cy="309.446" r="31.883"/>
					<path style="fill:#65BAFC;" d="M394.928,309.448c0,17.604-14.274,31.877-31.887,31.877c-3.171,0-6.232-0.467-9.125-1.332
						c13.17-3.916,22.763-16.113,22.763-30.546c0-14.443-9.592-26.639-22.763-30.555c2.893-0.865,5.954-1.332,9.125-1.332
						C380.654,277.561,394.928,291.834,394.928,309.448z"/>
					<path style="fill:#FF872A;" d="M376.875,483.5h-15.693c-5.851,0-10.594-4.743-10.594-10.594v-78.42
						c0-5.851,4.743-10.594,10.594-10.594h15.693c5.851,0,10.594,4.743,10.594,10.594v78.42
						C387.468,478.757,382.725,483.5,376.875,483.5z"/>
					<path style="fill:#FF872A;" d="M451.478,483.5h-26.287c-5.851,0-10.594-4.743-10.594-10.594v-78.42
						c0-5.851,4.743-10.594,10.594-10.594h11.869c13.814,0,25.012,11.198,25.012,25.012v64.002
						C462.072,478.757,457.329,483.5,451.478,483.5z"/>
					<path style="fill:#F36717;" d="M462.072,408.907v63.997c0,5.855-4.741,10.596-10.596,10.596h-19.671
						c5.855,0,10.596-4.741,10.596-10.596v-63.997c0-12.196-8.727-22.355-20.268-24.562c0.964-0.298,1.998-0.457,3.061-0.457h11.868
						C450.87,383.888,462.072,395.091,462.072,408.907z"/>
				</g>
				<g>
					<g>
						<path style="fill:#FFF5F5;" d="M355.551,339.455v156.011c0,4.986-4.039,9.034-9.024,9.034H51.742
							c-4.986,0-9.034-4.048-9.034-9.034V339.455c0-18.425,6.657-35.295,17.701-48.329c7.362-8.686,16.667-15.672,27.247-20.28
							c9.15-3.99,19.256-6.203,29.875-6.203h163.209c4.087,0,8.106,0.319,12.02,0.966c6.242,0.995,12.222,2.783,17.846,5.237
							c10.58,4.618,19.894,11.594,27.256,20.29C348.894,304.169,355.551,321.039,355.551,339.455z"/>
						<path style="fill:#E0D3CE;" d="M355.559,339.455v156.011c0,4.986-4.048,9.034-9.034,9.034h-20.812
							c4.985,0,9.024-4.048,9.024-9.034V339.455c0-30.696-18.493-57.083-44.937-68.609c-5.633-2.454-11.604-4.242-17.855-5.237
							c-3.913-0.647-7.932-0.966-12.019-0.966h20.812c4.087,0,8.106,0.319,12.02,0.966c6.251,0.995,12.222,2.783,17.855,5.237
							C337.056,282.372,355.559,308.759,355.559,339.455z"/>
						<path style="fill:#756F6F;" d="M337.861,291.136c-20.078,52.029-74.609,89.344-138.726,89.344
							c-64.126,0-118.658-37.314-138.726-89.353c7.362-8.686,16.667-15.672,27.247-20.28c9.15-3.99,19.256-6.203,29.875-6.203
							h163.209c4.087,0,8.106,0.319,12.02,0.966c6.242,0.995,12.222,2.783,17.846,5.237
							C321.184,275.464,330.498,282.44,337.861,291.136z"/>
						<g>
							<rect x="181.344" y="332.952" style="fill:#E0D3CE;" width="35.582" height="171.545"/>
						</g>
						<path style="fill:#E84649;" d="M355.551,354.556v69.276c-16.319-3.082-28.677-17.411-28.677-34.638
							C326.875,371.967,339.232,357.639,355.551,354.556z"/>
					</g>
					<g>
						<g>
							<g>
								<path style="fill:#756F6F;" d="M353.022,253.48h-26.292v-66.852h26.292c4.985,0,9.027,4.041,9.027,9.027v48.798
									C362.048,249.439,358.007,253.48,353.022,253.48z"/>
							</g>
							<g>
								<path style="fill:#756F6F;" d="M45.248,186.629H71.54v66.852H45.248c-4.985,0-9.027-4.041-9.027-9.027v-48.798
									C36.221,190.67,40.262,186.629,45.248,186.629z"/>
							</g>
						</g>
						<ellipse style="fill:#FFF5F5;" cx="199.135" cy="204.981" rx="137.295" ry="136.348"/>
						<path style="fill:#E0D3CE;" d="M336.425,204.979c0,75.305-61.469,136.346-137.291,136.346c-4.065,0-8.081-0.179-12.057-0.517
							c70.186-6.063,125.243-64.56,125.243-135.829S257.263,75.213,187.077,69.15c3.976-0.338,7.992-0.517,12.057-0.517
							C274.957,68.633,336.425,129.674,336.425,204.979z"/>
						<path style="fill:#FFBC8A;" d="M243.192,277.564h-88.115c-22.188,0-40.176-17.987-40.176-40.176v-50.09
							c0-4.985,4.041-9.027,9.027-9.027h150.414c4.985,0,9.027,4.041,9.027,9.027v50.09
							C283.368,259.576,265.381,277.564,243.192,277.564z"/>
						<path style="fill:#F5A871;" d="M283.37,187.298v50.088c0,22.187-17.99,40.177-40.177,40.177H223.75
							c22.187,0,40.177-17.99,40.177-40.177v-50.088c0-4.983-4.044-9.027-9.027-9.027h19.443
							C279.327,178.271,283.37,182.315,283.37,187.298z"/>
						<g>
							<path style="fill:#1475CC;" d="M213.852,178.271h-29.435V65.52c0-4.985,4.041-9.027,9.027-9.027h11.382
								c4.985,0,9.027,4.041,9.027,9.027V178.271z"/>
						</g>
					</g>
					<rect x="42.71" y="371.894" style="fill:#1475CC;" width="27.921" height="39.368"/>
				</g>
			</g>
		</g>
	</g>
	<g>
		<path d="M437.06,376.393h-6.234V97.648c0-39.713-21.37-76.744-55.771-96.641c-2.319-1.342-5.181-1.344-7.506-0.002
			c-34.425,19.88-55.811,56.912-55.811,96.643v16.901c-22.062-27.122-53.916-46.215-90.631-51.762
			c-1.309-7.814-8.101-13.794-16.281-13.794h-11.382c-8.18,0-14.973,5.981-16.282,13.795
			c-61.669,9.311-109.578,56.755-120.478,116.34H45.247c-9.113,0-16.526,7.414-16.526,16.526v48.799
			c0,9.113,7.414,16.526,16.526,16.526h20.536c1.543,3.623,3.238,7.181,5.074,10.668c-22.115,15.274-35.646,40.776-35.646,67.814
			v156.007c0,9.115,7.416,16.531,16.531,16.531c4.142,0,7.5-3.358,7.5-7.5s-3.358-7.5-7.5-7.5c-0.844,0-1.531-0.687-1.531-1.531
			v-48.545h12.69c4.142,0,7.5-3.358,7.5-7.5s-3.358-7.5-7.5-7.5h-12.69v-13.162h20.419c4.142,0,7.5-3.358,7.5-7.5v-39.369
			c0-4.142-3.358-7.5-7.5-7.5H50.212v-24.932c0-11.767,3.136-23.179,8.795-33.165c21.519,42.356,64.773,72.156,114.837,79.758
			v118.441c0,4.142,3.358,7.5,7.5,7.5s7.5-3.358,7.5-7.5V487.64h5.46c4.142,0,7.5-3.358,7.5-7.5s-3.358-7.5-7.5-7.5h-5.46v-18.862
			h5.46c4.142,0,7.5-3.358,7.5-7.5s-3.358-7.5-7.5-7.5h-5.46v-51.134c3.41,0.208,6.838,0.335,10.291,0.335
			c3.453,0,6.881-0.129,10.291-0.336v116.853c0,4.142,3.358,7.5,7.5,7.5s7.5-3.358,7.5-7.5V386.059
			c50.109-7.606,93.394-37.458,114.903-79.874c5.646,9.94,8.725,21.33,8.725,33.277v9.362c-16.935,5.891-28.679,21.976-28.679,40.37
			s11.743,34.479,28.679,40.37v65.904c0,0.844-0.687,1.531-1.531,1.531c-4.143,0-7.5,3.358-7.5,7.5s3.357,7.5,7.5,7.5
			c9.115,0,16.531-7.416,16.531-16.531V491h13.821c9.977,0,18.094-8.117,18.094-18.094v-20.865h12.13v20.865
			c0,9.977,8.116,18.094,18.093,18.094h26.287c9.977,0,18.094-8.117,18.094-18.094v-64.002
			C469.572,390.977,454.987,376.393,437.06,376.393z M63.131,379.394v24.369H50.212v-24.369H63.131z M348.051,413.124
			c-8.272-4.872-13.677-13.87-13.677-23.93s5.404-19.058,13.677-23.93V413.124z M371.296,16.278
			c25.469,16.329,41.864,43.835,44.223,73.87h-11.288c-4.143,0-7.5,3.358-7.5,7.5s3.357,7.5,7.5,7.5h11.594v11.785h-89.088v-11.785
			h41.741c4.143,0,7.5-3.358,7.5-7.5s-3.357-7.5-7.5-7.5h-41.435C329.403,60.101,345.81,32.595,371.296,16.278z M191.917,65.52
			c0-0.842,0.685-1.527,1.527-1.527h11.382c0.842,0,1.526,0.685,1.526,1.527v105.251h-14.435V65.52z M45.247,245.98
			c-0.842,0-1.526-0.685-1.526-1.526v-48.799c0-0.842,0.685-1.526,1.526-1.526h9.505c-0.27,3.586-0.414,7.204-0.414,10.852
			c0,14.02,2.071,27.818,6.022,41H45.247z M69.156,292.691c2.858-2.971,6.003-5.689,9.401-8.112
			c6.913,10.339,15.199,19.845,24.74,28.22c1.424,1.25,3.188,1.864,4.945,1.864c2.083,0,4.157-0.863,5.639-2.552
			c2.733-3.113,2.425-7.852-0.688-10.584c-27.87-24.467-43.854-59.657-43.854-96.546c0-63.016,45.777-116.415,107.578-126.963
			v92.753h-52.989c-9.113,0-16.526,7.414-16.526,16.527v50.09c0,26.288,21.387,47.675,47.676,47.675h88.115
			c25.771,0,46.694-20.167,47.633-45.914c0.151-4.14-3.082-7.618-7.222-7.769c-4.116-0.144-7.617,3.082-7.769,7.222
			c-0.644,17.642-14.982,31.46-32.643,31.46h-88.115c-18.018,0-32.676-14.658-32.676-32.675v-50.09c0-0.842,0.685-1.527,1.526-1.527
			h150.414c0.842,0,1.526,0.685,1.526,1.527v15.825c0,4.142,3.357,7.5,7.5,7.5s7.5-3.358,7.5-7.5v-15.825
			c0-9.113-7.414-16.527-16.526-16.527h-52.989V78.015c61.773,10.552,107.578,64.024,107.578,126.966
			c0,71.047-58.226,128.848-129.795,128.848c-20.085,0-39.348-4.437-57.251-13.188c-3.723-1.819-8.213-0.277-10.032,3.445
			c-1.819,3.721-0.276,8.213,3.445,10.032c12.322,6.023,25.219,10.207,38.547,12.534v24.218
			C126.825,363.028,86.83,333.707,69.156,292.691z M343.515,194.129h9.507c0.842,0,1.526,0.685,1.526,1.526v48.799
			c0,0.842-0.685,1.526-1.526,1.526h-15.094c3.898-12.999,6.002-26.759,6.002-41C343.93,201.333,343.786,197.715,343.515,194.129z
			 M199.135,372.979c-3.455,0-6.885-0.127-10.291-0.354v-24.164c3.408,0.235,6.837,0.367,10.291,0.367
			c3.46,0,6.89-0.129,10.291-0.368v24.164C206.019,372.852,202.589,372.979,199.135,372.979z M224.425,370.869v-24.24
			c39.637-6.965,73.754-30.006,95.27-62.073c3.426,2.426,6.584,5.128,9.447,8.071C311.475,333.675,271.463,363.023,224.425,370.869z
			 M347.261,290.863c4.375-3.722,9.934-5.8,15.781-5.8c13.444,0,24.383,10.938,24.383,24.382c0,13.445-10.938,24.383-24.383,24.383
			c-0.06,0-0.12-0.007-0.181-0.007C361.806,318.036,356.334,303.24,347.261,290.863z M379.968,472.906
			c0,1.706-1.388,3.094-3.094,3.094h-13.821v-84.607h13.821c1.706,0,3.094,1.388,3.094,3.093V472.906z M394.968,437.041v-42.555
			c0-9.977-8.117-18.093-18.094-18.093h-13.821v-27.564c21.711-0.006,39.372-17.67,39.372-39.383
			c0-21.715-17.667-39.382-39.383-39.382c-9.553,0-18.631,3.427-25.73,9.565c-3.063-2.88-6.369-5.55-9.904-7.979
			c1.839-3.477,3.546-7.033,5.099-10.669h20.515c9.112,0,16.526-7.414,16.526-16.526v-48.799c0-9.113-7.414-16.526-16.526-16.526
			H341.58c-2.739-14.939-7.81-29.119-14.842-42.13v-5.066h89.088v247.102c-5.221,3.177-8.728,8.905-8.728,15.451v42.555H394.968z
			 M454.572,472.906c0,1.706-1.388,3.094-3.094,3.094h-26.287c-1.705,0-3.093-1.388-3.093-3.094v-78.42
			c0-1.706,1.388-3.093,3.093-3.093h11.869c9.656,0,17.512,7.855,17.512,17.511V472.906z"/>
		<path d="M164.338,201.955c-4.142,0-7.5,3.401-7.5,7.543s3.358,7.5,7.5,7.5s7.5-3.358,7.5-7.5v-0.086
			C171.838,205.27,168.48,201.955,164.338,201.955z"/>
		<path d="M233.931,201.955c-4.142,0-7.5,3.401-7.5,7.543s3.358,7.5,7.5,7.5s7.5-3.358,7.5-7.5v-0.086
			C241.431,205.27,238.073,201.955,233.931,201.955z"/>
		<path d="M220.652,230.702c-3.983-1.143-8.136,1.155-9.281,5.135c-1.561,5.428-6.593,9.219-12.236,9.219
			s-10.675-3.791-12.236-9.219c-1.145-3.98-5.302-6.277-9.281-5.135c-3.98,1.145-6.279,5.3-5.135,9.281
			c3.399,11.818,14.359,20.073,26.652,20.073s23.252-8.254,26.652-20.073C226.931,236.003,224.632,231.847,220.652,230.702z"/>
		<path d="M96.282,371.054c-4.142,0-7.5,3.358-7.5,7.5v125.942c0,4.142,3.358,7.5,7.5,7.5s7.5-3.358,7.5-7.5V378.554
			C103.782,374.412,100.424,371.054,96.282,371.054z"/>
		<path d="M301.988,371.054c-4.143,0-7.5,3.358-7.5,7.5v125.942c0,4.142,3.357,7.5,7.5,7.5s7.5-3.358,7.5-7.5V378.554
			C309.488,374.412,306.13,371.054,301.988,371.054z"/>
		<path d="M274.497,400.864h-27.053c-4.142,0-7.5,3.358-7.5,7.5s3.358,7.5,7.5,7.5h27.053c4.143,0,7.5-3.358,7.5-7.5
			S278.64,400.864,274.497,400.864z"/>
		<path d="M462.072,331.569c4.143,0,7.5-3.358,7.5-7.5v-0.088c0-4.142-3.357-7.456-7.5-7.456s-7.5,3.402-7.5,7.544
			S457.929,331.569,462.072,331.569z"/>
		<path d="M462.072,343.937c-4.143,0-7.5,3.402-7.5,7.544s3.357,7.5,7.5,7.5s7.5-3.358,7.5-7.5v-0.088
			C469.572,347.251,466.214,343.937,462.072,343.937z"/>
		<path d="M475.735,330.231c-4.143,0-7.5,3.358-7.5,7.5s3.357,7.5,7.5,7.5h0.088c4.143,0,7.456-3.358,7.456-7.5
			S479.877,330.231,475.735,330.231z"/>
		<path d="M448.322,345.231h0.088c4.143,0,7.456-3.358,7.456-7.5s-3.401-7.5-7.544-7.5s-7.5,3.358-7.5,7.5
			S444.179,345.231,448.322,345.231z"/>
		<path d="M56.671,87.983c4.142,0,7.5-3.358,7.5-7.5v-0.088c0-4.142-3.358-7.456-7.5-7.456s-7.5,3.402-7.5,7.544
			S52.529,87.983,56.671,87.983z"/>
		<path d="M56.671,100.352c-4.142,0-7.5,3.402-7.5,7.544s3.358,7.5,7.5,7.5s7.5-3.358,7.5-7.5v-0.088
			C64.171,103.666,60.813,100.352,56.671,100.352z"/>
		<path d="M70.333,101.646h0.088c4.142,0,7.456-3.358,7.456-7.5s-3.402-7.5-7.544-7.5s-7.5,3.358-7.5,7.5
			S66.191,101.646,70.333,101.646z"/>
		<path d="M42.92,101.646h0.088c4.142,0,7.456-3.358,7.456-7.5s-3.402-7.5-7.544-7.5s-7.5,3.358-7.5,7.5
			S38.778,101.646,42.92,101.646z"/>
		<path d="M283.368,36.803c4.143,0,7.5-3.358,7.5-7.5v-0.088c0-4.142-3.357-7.456-7.5-7.456s-7.5,3.402-7.5,7.544
			S279.225,36.803,283.368,36.803z"/>
		<path d="M283.368,49.173c-4.143,0-7.5,3.402-7.5,7.544s3.357,7.5,7.5,7.5s7.5-3.358,7.5-7.5v-0.088
			C290.868,52.486,287.51,49.173,283.368,49.173z"/>
		<path d="M297.031,50.466h0.088c4.143,0,7.456-3.358,7.456-7.5s-3.401-7.5-7.544-7.5s-7.5,3.358-7.5,7.5
			S292.888,50.466,297.031,50.466z"/>
		<path d="M269.618,50.466h0.088c4.143,0,7.456-3.358,7.456-7.5s-3.401-7.5-7.544-7.5s-7.5,3.358-7.5,7.5
			S265.475,50.466,269.618,50.466z"/>
	</g>
</g>
<g>
</g>
<g>
</g>
<g>
</g>
<g>
</g>
<g>
</g>
<g>
</g>
<g>
</g>
<g>
</g>
<g>
</g>
<g>
</g>
<g>
</g>
<g>
</g>
<g>
</g>
<g>
</g>
<g>
</g>
</svg>
