<?xml version="1.0" encoding="iso-8859-1"?>
<!-- Generator: Adobe Illustrator 23.0.3, SVG Export Plug-In . SVG Version: 6.00 Build 0)  -->
<svg version="1.1" id="Capa_1" xmlns="http://www.w3.org/2000/svg" xmlns:xlink="http://www.w3.org/1999/xlink" x="0px" y="0px"
	 viewBox="0 0 512 512" style="enable-background:new 0 0 512 512;" xml:space="preserve">
<g>
	<g>
		<g>
			<g>
				<g>
					<g>
						<g>
							<path style="fill:#F9B2B3;" d="M270.271,346.272v136.542c0,5.394-4.378,9.772-9.772,9.772H60.284
								c-5.394,0-9.772-4.378-9.772-9.772V346.272c0-43.837,35.53-79.367,79.367-79.367h61.025
								C234.741,266.905,270.271,302.436,270.271,346.272z"/>
							<path style="fill:#FFBC8A;" d="M197.608,305.846c0,30.127-14.658,88.426-37.211,104.95
								c-22.554-16.524-37.211-74.823-37.211-104.95c0-20.912,7.075-28.768,18.948-38.941h36.527
								C190.533,277.078,197.608,284.934,197.608,305.846z"/>
							<path style="fill:#F69798;" d="M270.275,346.27v136.542c0,5.394-4.378,9.772-9.772,9.772H249.06V346.27
								c0-43.837-35.53-79.367-79.367-79.367h21.215C234.745,266.903,270.275,302.433,270.275,346.27z"/>
							<path style="fill:#FDD1A7;" d="M270.277,350.972v131.842c0,5.394-4.378,9.772-9.772,9.772h-34.661V350.972H270.277z"/>
							<path style="fill:#FFBC8A;" d="M270.277,350.972v131.842c0,5.394-4.378,9.772-9.772,9.772h-11.443V350.972H270.277z"/>
							<path style="fill:#FDD1A7;" d="M50.516,350.975v131.837c0,5.394,4.378,9.772,9.772,9.772h34.661V350.975H50.516z"/>
							<g>
								<circle style="fill:#AC5E33;" cx="160.397" cy="53.162" r="45.662"/>
								<path style="fill:#904D29;" d="M206.058,53.164c0,25.221-20.443,45.664-45.664,45.664c-3.831,0-7.544-0.469-11.101-1.358
									c19.856-4.964,34.563-22.915,34.563-44.306S169.15,13.822,149.294,8.858c3.557-0.889,7.27-1.358,11.101-1.358
									C185.616,7.5,206.058,27.943,206.058,53.164z"/>
								<path style="fill:#F9B2B3;" d="M218.488,71.454v51.02H102.301v-51.02c0-10.755,6.673-20.38,16.742-24.161
									c12.874-4.834,26.809-7.479,41.351-7.479c14.543,0,28.478,2.644,41.351,7.479C211.815,51.074,218.488,60.699,218.488,71.454
									z"/>
								<path style="fill:#F69798;" d="M218.488,71.457v51.019h-19.094V65.594c0-9.977-5.726-18.977-14.589-23.238
									c5.814,1.221,11.472,2.873,16.944,4.935C211.814,51.073,218.488,60.698,218.488,71.457z"/>
								<circle style="fill:#FFBC8A;" cx="238.684" cy="192.626" r="20.189"/>
								<circle style="fill:#FFBC8A;" cx="82.11" cy="192.626" r="20.189"/>
								<path style="fill:#FDD1A7;" d="M85.286,149.68l9.887,80.95c4.026,32.964,32.015,57.742,65.224,57.742l0,0
									c33.209,0,61.198-24.778,65.224-57.742l9.887-80.95H85.286z"/>
								<line style="fill:#F69583;" x1="206.059" y1="226.204" x2="206.059" y2="226.288"/>
								<path style="fill:#AC5E33;" d="M91.795,95.34c-21.119,21.119-25.552,52.595-13.313,78.071
									c25.47,12.246,56.952,7.806,78.071-13.313c21.125-21.125,25.565-52.607,13.319-78.077
									C144.396,69.782,112.92,74.215,91.795,95.34z"/>
								<path style="fill:#C86D3D;" d="M228.999,95.34c21.119,21.119,25.552,52.595,13.313,78.071
									c-25.47,12.246-56.952,7.806-78.071-13.313c-16.918-16.918-23.135-40.479-18.65-62.275
									c2.179-10.589,10.543-18.952,21.132-21.13C188.521,72.209,212.08,78.421,228.999,95.34z"/>
								<path style="fill:#AC5E33;" d="M242.308,173.414c-5.883,2.824-12.078,4.769-18.4,5.814
									c13.847-23.697,12.586-54.42-5.511-77.188c-12.616-15.86-30.83-24.635-49.592-25.739
									c21.205-3.694,43.817,2.658,60.195,19.036C250.116,116.464,254.552,147.939,242.308,173.414z"/>
								<g>
									<path style="fill:#F69583;" d="M117.666,239.278c-3.968,0-7.184-3.217-7.184-7.184c0-3.968,3.217-7.226,7.184-7.226
										s7.184,3.174,7.184,7.142v0.085C124.85,236.061,121.634,239.278,117.666,239.278z"/>
								</g>
								<g>
									<path style="fill:#F69583;" d="M203.128,239.278c-3.968,0-7.184-3.217-7.184-7.184c0-3.968,3.217-7.226,7.184-7.226
										s7.184,3.174,7.184,7.142v0.085C210.312,236.061,207.095,239.278,203.128,239.278z"/>
								</g>
							</g>
						</g>
					</g>
				</g>
				<g>
					<g>
						<g>
							<g>
								<g>
									<g>
										<path style="fill:#F9B2B3;" d="M359.598,351.746l0-60.001c0-25.389-20.582-45.971-45.971-45.971h0
											c-25.389,0-45.971,20.582-45.971,45.971v60.001c0,15.757-1.863,31.496-6.081,46.678
											c-3.795,13.658-4.82,28.062-2.859,42.355l3.941,28.733c1.848,13.469,9.288,24.949,19.783,32.23
											c2.578,1.789,5.636,2.758,8.773,2.758h44.827c3.138,0,6.196-0.97,8.774-2.758c10.494-7.282,17.935-18.762,19.783-32.23
											l3.941-28.733c1.961-14.292,0.936-28.697-2.859-42.355C361.461,383.242,359.598,367.502,359.598,351.746z"/>
										<path style="fill:#F69798;" d="M368.539,440.775l-3.943,28.734c-1.845,13.469-9.292,24.947-19.784,32.228
											c-2.577,1.796-5.632,2.762-8.775,2.762h-18.681c3.133,0,6.188-0.966,8.765-2.762
											c10.502-7.281,17.939-18.759,19.784-32.228l3.943-28.734c1.962-14.289,0.937-28.695-2.86-42.35
											c-4.216-15.187-6.081-30.921-6.081-46.684v-59.996c0-22.185-15.724-40.7-36.63-45.015c3.016-0.625,6.149-0.956,9.35-0.956
											c25.387,0,45.971,20.585,45.971,45.971v59.996c0,15.763,1.864,31.496,6.081,46.684
											C369.476,412.08,370.501,426.486,368.539,440.775z"/>
										<path style="fill:#E84649;" d="M313.627,390.79L313.627,390.79c-11.265,0-20.397-9.132-20.397-20.397v-75.352
											c0-11.265,9.132-20.397,20.397-20.397h0c11.265,0,20.397,9.132,20.397,20.397v75.352
											C334.024,381.658,324.892,390.79,313.627,390.79z"/>
									</g>
								</g>
							</g>
						</g>
					</g>
					<g>
						<g>
							<g>
								<g>
									<g>
										<path style="fill:#F9B2B3;" d="M451.567,351.746v-60.001c0-25.389-20.582-45.971-45.971-45.971h0
											c-25.389,0-45.971,20.582-45.971,45.971v60.001c0,15.757-1.863,31.496-6.081,46.678
											c-3.795,13.658-4.82,28.062-2.859,42.355l3.941,28.733c1.848,13.469,9.288,24.949,19.783,32.23
											c2.578,1.789,5.636,2.758,8.773,2.758h44.827c3.138,0,6.196-0.97,8.774-2.758c10.494-7.282,17.935-18.762,19.783-32.23
											l3.941-28.733c1.961-14.292,0.936-28.697-2.859-42.355C453.43,383.242,451.567,367.502,451.567,351.746z"/>
										<path style="fill:#F69798;" d="M460.509,440.775l-3.943,28.734c-1.845,13.469-9.292,24.947-19.784,32.228
											c-2.577,1.796-5.632,2.762-8.774,2.762h-18.681c3.133,0,6.188-0.966,8.765-2.762
											c10.502-7.281,17.939-18.759,19.784-32.228l3.943-28.734c1.962-14.289,0.937-28.695-2.86-42.35
											c-4.217-15.187-6.081-30.921-6.081-46.684v-59.996c0-22.185-15.724-40.7-36.63-45.015c3.016-0.625,6.149-0.956,9.35-0.956
											c25.387,0,45.971,20.585,45.971,45.971v59.996c0,15.763,1.864,31.496,6.081,46.684
											C461.446,412.08,462.47,426.486,460.509,440.775z"/>
										<path style="fill:#E84649;" d="M405.596,390.79L405.596,390.79c-11.265,0-20.397-9.132-20.397-20.397v-75.352
											c0-11.265,9.132-20.397,20.397-20.397h0c11.265,0,20.397,9.132,20.397,20.397v75.352
											C425.993,381.658,416.861,390.79,405.596,390.79z"/>
									</g>
								</g>
							</g>
						</g>
					</g>
				</g>
			</g>
		</g>
	</g>
	<g>
		<path d="M126.23,216.604c4.143,0,7.5-3.357,7.5-7.5v-0.085c0-4.143-3.357-7.457-7.5-7.457s-7.5,3.399-7.5,7.542
			S122.087,216.604,126.23,216.604z"/>
		<path d="M194.565,216.604c4.143,0,7.5-3.357,7.5-7.5v-0.085c0-4.143-3.357-7.457-7.5-7.457s-7.5,3.399-7.5,7.542
			S190.422,216.604,194.565,216.604z"/>
		<path d="M160.397,258.885c12.131,0,22.946-8.146,26.301-19.809c1.145-3.98-1.154-8.136-5.135-9.281
			c-3.981-1.144-8.136,1.154-9.281,5.135c-1.517,5.272-6.403,8.955-11.885,8.955s-10.368-3.683-11.885-8.955
			c-1.146-3.98-5.303-6.279-9.281-5.135c-3.98,1.146-6.279,5.301-5.135,9.281C137.45,250.739,148.266,258.885,160.397,258.885z"/>
		<path d="M225.843,399.31c-4.143,0-7.5,3.357-7.5,7.5v85.774c0,4.143,3.357,7.5,7.5,7.5s7.5-3.357,7.5-7.5V406.81
			C233.343,402.667,229.986,399.31,225.843,399.31z"/>
		<path d="M464.875,396.416c-3.854-13.87-5.808-28.899-5.808-44.67v-60.001c0-29.483-23.987-53.471-53.472-53.471
			c-19.539,0-36.655,10.54-45.984,26.227c-9.33-15.687-26.446-26.227-45.984-26.227c-29.483,0-53.471,23.987-53.471,53.471v2.02
			c-10.056-13.266-23.822-23.483-39.751-29.218c6.675-9.539,11.164-20.766,12.659-33.008l1.41-11.543
			c1.384,0.211,2.788,0.318,4.209,0.318c15.268,0,27.688-12.421,27.688-27.688c0-10.046-5.517-19.193-13.98-24.046
			c9.399-27.205,2.613-57.841-18.089-78.543c0-0.001,0-0.001-0.001-0.001c-2.617-2.617-5.4-5.011-8.313-7.187V71.454
			c0-10.467-5.004-20.196-13.058-26.407C208.98,19.244,186.712,0,160.397,0c-26.314,0-48.581,19.242-52.534,45.044
			c-8.056,6.21-13.062,15.941-13.062,26.41V82.85c-2.91,2.174-5.691,4.567-8.31,7.186c-20.703,20.703-27.489,51.34-18.089,78.546
			c-8.581,4.885-13.981,13.995-13.981,24.044c0,15.268,12.421,27.688,27.688,27.688c1.424,0,2.827-0.114,4.209-0.324l1.411,11.549
			c1.495,12.244,5.986,23.473,12.663,33.013c-14.826,5.37-28.104,14.777-38.106,27.155c-12.426,15.377-19.269,34.753-19.269,54.559
			v4.671c0,0.013-0.002,0.026-0.002,0.039s0.002,0.026,0.002,0.039v131.798c0,9.523,7.748,17.271,17.272,17.271
			c4.143,0,7.5-3.357,7.5-7.5s-3.357-7.5-7.5-7.5c-1.253,0-2.272-1.019-2.272-2.271V358.476h29.431v134.108
			c0,4.143,3.357,7.5,7.5,7.5s7.5-3.357,7.5-7.5V330.538c0-4.143-3.357-7.5-7.5-7.5s-7.5,3.357-7.5,7.5v12.938H58.076
			c0.583-15.577,6.038-30.164,15.878-42.341c9.555-11.824,22.712-20.372,37.277-24.284c2.584,2.344,5.326,4.512,8.221,6.469
			c-2.554,6.302-3.766,13.593-3.766,22.526c0,28.438,13.834,91.624,40.279,111c1.319,0.967,2.876,1.45,4.433,1.45
			s3.113-0.483,4.433-1.45c26.445-19.376,40.278-82.562,40.278-111c0-8.932-1.211-16.224-3.765-22.525
			c2.895-1.958,5.638-4.126,8.223-6.471c24.271,6.495,43.462,25.259,50.432,49.552c0.042,0.146,0.109,0.278,0.159,0.42v16.655
			h-26.812v-12.938c0-4.143-3.357-7.5-7.5-7.5s-7.5,3.357-7.5,7.5l-0.001,41.647c0,4.143,3.357,7.5,7.5,7.5s7.5-3.357,7.5-7.5
			v-13.71h26.682c-0.479,13.322-2.375,26.059-5.677,37.94c-4.126,14.853-5.156,30.121-3.063,45.382l3.941,28.733
			c2.067,15.07,10.429,28.692,22.938,37.373c3.862,2.68,8.374,4.096,13.049,4.096h44.827c4.675,0,9.187-1.417,13.049-4.097
			c3.949-2.74,7.467-5.943,10.53-9.561c3.049,3.604,6.575,6.829,10.515,9.563c3.862,2.679,8.375,4.095,13.048,4.095h44.827
			c4.675,0,9.187-1.416,13.05-4.096c10.736-7.451,18.442-18.51,21.7-31.139c1.034-4.011-1.379-8.101-5.39-9.136
			c-4.01-1.033-8.101,1.379-9.136,5.39c-2.359,9.147-7.944,17.16-15.727,22.561c-1.339,0.929-2.895,1.42-4.498,1.42h-44.827
			c-1.604,0-3.159-0.491-4.498-1.42c-9.069-6.293-15.13-16.167-16.628-27.088l-3.941-28.732
			c-1.814-13.226-0.922-26.457,2.655-39.328c4.217-15.178,6.354-31.559,6.354-48.686v-60.001c0-21.213,17.259-38.471,38.472-38.471
			s38.471,17.258,38.471,38.471v60.001c0,17.127,2.138,33.508,6.354,48.686c3.496,12.581,4.424,25.534,2.758,38.5
			c-0.528,4.108,2.374,7.867,6.482,8.395c4.112,0.53,7.867-2.375,8.395-6.482C469.98,425.883,468.908,410.935,464.875,396.416z
			 M238.684,205.314c-0.81,0-1.607-0.081-2.388-0.229l2.704-22.139c1.601-0.592,3.19-1.237,4.762-1.943
			c4.549,1.995,7.609,6.556,7.609,11.622C251.372,199.622,245.68,205.314,238.684,205.314z M236.648,167.749
			c-22.785,9.76-49.441,4.709-67.104-12.954c-14.551-14.551-20.759-35.283-16.607-55.46c1.586-7.706,7.591-13.71,15.298-15.296
			c4.126-0.849,8.274-1.264,12.389-1.264c16.01,0,31.499,6.295,43.072,17.867C241.353,118.301,246.402,144.959,236.648,167.749z
			 M160.397,15c15.245,0,28.596,8.994,34.675,22.194c-11.229-3.237-22.851-4.88-34.677-4.88c-11.824,0-23.445,1.643-34.672,4.878
			C131.802,23.993,145.153,15,160.397,15z M109.801,71.454c0-7.584,4.773-14.472,11.879-17.14c12.369-4.645,25.395-7,38.715-7
			c13.319,0,26.345,2.355,38.714,7c7.105,2.668,11.88,9.556,11.88,17.14v2.658c-14.173-6.197-30.11-7.99-45.777-4.765
			c-1.538,0.316-3.031,0.746-4.485,1.255c-17.175-4.809-35.116-3.404-50.925,3.511V71.454z M97.098,100.644
			c12.6-12.599,29.775-18.877,47.079-17.74c-2.853,3.92-4.914,8.461-5.931,13.408c-4.287,20.828,0.299,42.131,12.312,59.136
			c-3.139,3.043-6.594,5.765-10.311,8.073c-3.52,2.185-4.602,6.808-2.417,10.327c1.42,2.288,3.871,3.546,6.379,3.546
			c1.351,0,2.717-0.364,3.948-1.129c4.392-2.726,8.485-5.924,12.235-9.479c14.398,13.658,33.238,20.865,52.336,20.865
			c3.561,0,7.129-0.253,10.68-0.757l-5.232,42.828c-3.563,29.161-28.401,51.151-57.779,51.151s-54.217-21.99-57.779-51.151
			l-5.233-42.841c3.564,0.508,7.168,0.767,10.78,0.767c1.101,0,2.203-0.023,3.304-0.071c4.138-0.181,7.347-3.682,7.166-7.82
			s-3.68-7.35-7.82-7.166c-9.156,0.398-18.313-1.272-26.669-4.842C74.394,144.958,79.443,118.299,97.098,100.644z M82.11,205.314
			c-6.996,0-12.688-5.692-12.688-12.688c0-5.057,2.98-9.6,7.603-11.625c1.566,0.703,3.158,1.347,4.769,1.94l2.704,22.135
			C83.717,205.224,82.922,205.314,82.11,205.314z M190.108,305.846c0,22.737-8.976,61.686-22.211,84.403V373.88
			c0-4.143-3.357-7.5-7.5-7.5s-7.5,3.357-7.5,7.5v16.369c-13.236-22.716-22.212-61.666-22.212-84.403
			c0-6.282,0.666-11.225,2.105-15.402c8.553,3.495,17.878,5.429,27.607,5.429c9.729,0,19.053-1.934,27.606-5.428
			C189.442,294.621,190.108,299.564,190.108,305.846z M340.539,495.579c-1.34,0.93-2.895,1.421-4.498,1.421h-44.827
			c-1.604,0-3.159-0.491-4.498-1.42c-9.069-6.293-15.13-16.166-16.628-27.088l-3.941-28.733
			c-1.814-13.224-0.922-26.456,2.654-39.327c4.217-15.177,6.355-31.557,6.355-48.686v-60.001c0-21.213,17.258-38.471,38.471-38.471
			s38.471,17.258,38.471,38.471c0,0.183,0.014,0.362,0.027,0.542v59.459c0,15.771-1.954,30.8-5.808,44.67
			c-4.126,14.852-5.157,30.12-3.063,45.383l3.941,28.732c0.672,4.899,2.02,9.641,3.949,14.115
			C348.341,488.954,344.783,492.635,340.539,495.579z"/>
		<path d="M405.596,398.29c15.383,0,27.897-12.515,27.897-27.896v-75.352c0-15.382-12.515-27.896-27.897-27.896
			c-15.382,0-27.896,12.515-27.896,27.896v75.352C377.699,385.775,390.214,398.29,405.596,398.29z M392.699,316.637l18.611,12.868
			l-18.611,9.322V316.637z M405.596,383.29c-7.111,0-12.896-5.785-12.896-12.896v-14.789l25.794-12.921v27.71
			C418.493,377.505,412.707,383.29,405.596,383.29z M405.596,282.146c7.111,0,12.897,5.785,12.897,12.896v21.192L392.699,298.4
			v-3.358C392.699,287.931,398.485,282.146,405.596,282.146z"/>
		<path d="M341.524,295.042c0-15.382-12.515-27.896-27.896-27.896s-27.896,12.515-27.896,27.896v75.352
			c0,15.382,12.515,27.896,27.896,27.896s27.896-12.515,27.896-27.896V295.042z M326.524,338.827l-18.61-9.322l18.61-12.868V338.827
			z M313.627,282.146c7.111,0,12.896,5.785,12.896,12.896v3.358l-25.793,17.834v-21.192
			C300.731,287.931,306.516,282.146,313.627,282.146z M313.627,383.29c-7.111,0-12.896-5.785-12.896-12.896v-27.71l25.793,12.921
			v14.789C326.524,377.505,320.739,383.29,313.627,383.29z"/>
		<path d="M301.278,149.479c4.143,0,7.5-3.357,7.5-7.5v-0.088c0-4.143-3.357-7.456-7.5-7.456s-7.5,3.401-7.5,7.544
			S297.135,149.479,301.278,149.479z"/>
		<path d="M301.278,161.848c-4.143,0-7.5,3.401-7.5,7.544s3.357,7.5,7.5,7.5s7.5-3.357,7.5-7.5v-0.088
			C308.778,165.161,305.42,161.848,301.278,161.848z"/>
		<path d="M314.94,163.142h0.089c4.143,0,7.455-3.357,7.455-7.5s-3.401-7.5-7.544-7.5s-7.5,3.357-7.5,7.5
			S310.797,163.142,314.94,163.142z"/>
		<path d="M287.527,163.142h0.089c4.143,0,7.456-3.357,7.456-7.5s-3.402-7.5-7.545-7.5s-7.5,3.357-7.5,7.5
			S283.384,163.142,287.527,163.142z"/>
		<path d="M331.691,88.188c4.143,0,7.5-3.357,7.5-7.5V80.6c0-4.143-3.357-7.456-7.5-7.456s-7.5,3.401-7.5,7.544
			S327.548,88.188,331.691,88.188z"/>
		<path d="M331.691,100.557c-4.143,0-7.5,3.401-7.5,7.544s3.357,7.5,7.5,7.5s7.5-3.357,7.5-7.5v-0.088
			C339.191,103.87,335.833,100.557,331.691,100.557z"/>
		<path d="M345.353,101.851h0.089c4.143,0,7.456-3.357,7.456-7.5s-3.402-7.5-7.545-7.5s-7.5,3.357-7.5,7.5
			S341.21,101.851,345.353,101.851z"/>
		<path d="M317.94,101.851h0.089c4.143,0,7.455-3.357,7.455-7.5s-3.401-7.5-7.544-7.5s-7.5,3.357-7.5,7.5
			S313.797,101.851,317.94,101.851z"/>
		<path d="M425.993,193.984c4.143,0,7.5-3.357,7.5-7.5v-0.088c0-4.143-3.357-7.456-7.5-7.456s-7.5,3.401-7.5,7.544
			S421.851,193.984,425.993,193.984z"/>
		<path d="M425.993,206.354c-4.143,0-7.5,3.401-7.5,7.544s3.357,7.5,7.5,7.5s7.5-3.357,7.5-7.5v-0.088
			C433.493,209.667,430.136,206.354,425.993,206.354z"/>
		<path d="M439.656,207.647h0.088c4.143,0,7.456-3.357,7.456-7.5s-3.401-7.5-7.544-7.5s-7.5,3.357-7.5,7.5
			S435.513,207.647,439.656,207.647z"/>
		<path d="M412.242,207.647h0.088c4.143,0,7.456-3.357,7.456-7.5s-3.401-7.5-7.544-7.5s-7.5,3.357-7.5,7.5
			S408.1,207.647,412.242,207.647z"/>
	</g>
</g>
<g>
</g>
<g>
</g>
<g>
</g>
<g>
</g>
<g>
</g>
<g>
</g>
<g>
</g>
<g>
</g>
<g>
</g>
<g>
</g>
<g>
</g>
<g>
</g>
<g>
</g>
<g>
</g>
<g>
</g>
</svg>
