<?xml version="1.0" encoding="iso-8859-1"?>
<!-- Generator: Adobe Illustrator 23.0.3, SVG Export Plug-In . SVG Version: 6.00 Build 0)  -->
<svg version="1.1" id="Capa_1" xmlns="http://www.w3.org/2000/svg" xmlns:xlink="http://www.w3.org/1999/xlink" x="0px" y="0px"
	 viewBox="0 0 511.996 511.996" style="enable-background:new 0 0 511.996 511.996;" xml:space="preserve">
<g>
	<g>
		<g>
			<g>
				<path style="fill:#9E9797;" d="M467.936,484.018h-22.684c-5.414,0-9.803-4.389-9.803-9.803v-26.605h42.289v26.605
					C477.739,479.629,473.35,484.018,467.936,484.018z"/>
				<g>
					<path style="fill:#CDBFBB;" d="M288.715,456.734h205.978c5.414,0,9.803-4.389,9.803-9.803V231.953
						c0-5.414-4.389-9.803-9.803-9.803H288.715c-5.414,0-9.803,4.389-9.803,9.803v214.979
						C278.912,452.346,283.301,456.734,288.715,456.734z"/>
					<path style="fill:#9E9797;" d="M504.5,231.95v214.982c0,5.411-4.392,9.803-9.803,9.803h-19.605
						c5.411,0,9.803-4.392,9.803-9.803V231.95c0-5.411-4.392-9.803-9.803-9.803h19.605C500.108,222.147,504.5,226.539,504.5,231.95z
						"/>
					<circle style="fill:#EFE2DD;" cx="391.704" cy="334.943" r="77.3"/>
					<circle style="fill:#CDBFBB;" cx="365.701" cy="334.943" r="20.628"/>
				</g>
			</g>
			<g>
				<g>
					<path style="fill:#00B232;" d="M188.522,409.62H37.948c-3.997,0-7.238-3.24-7.238-7.238v-86.924
						c0-3.997,3.24-7.238,7.238-7.238h150.574c3.997,0,7.238,3.24,7.238,7.238v86.924C195.76,406.38,192.52,409.62,188.522,409.62z"
						/>
					<circle style="fill:#BDEB73;" cx="113.235" cy="358.921" r="26.27"/>
				</g>
				<g>
					<circle style="fill:#9E552E;" cx="242.477" cy="56.706" r="46.728"/>
					<g>
						<g>
							<circle style="fill:#FFBC8A;" cx="322.591" cy="176.788" r="20.66"/>
						</g>
						<g>
							<circle style="fill:#FFBC8A;" cx="162.362" cy="176.788" r="20.66"/>
						</g>
					</g>
					<path style="fill:#1475CC;" d="M354.92,334.288v139.73c0,5.52-4.48,10-10,10H140.03c-5.52,0-10-4.48-10-10v-139.73
						c0-44.86,36.36-81.22,81.22-81.22h62.45C318.56,253.068,354.92,289.428,354.92,334.288z"/>
					<path style="fill:#0057A1;" d="M354.92,334.288v139.73c0,5.52-4.48,10-10,10h-11.71v-149.73c0-44.86-36.36-81.22-81.22-81.22
						h21.71C318.56,253.068,354.92,289.428,354.92,334.288z"/>
					<path style="fill:#FDD1A7;" d="M354.92,400.328v73.69c0,5.52-4.48,10-10,10h-35.47v-83.69H354.92z"/>
					<path style="fill:#FFBC8A;" d="M354.92,400.328v73.69c0,5.52-4.48,10-10,10h-11.71v-83.69H354.92z"/>
					<polygon style="fill:#FFBC8A;" points="242.477,333.041 202.44,279.664 242.477,252.967 282.513,279.664 					"/>
					<g>
						<path style="fill:#FF9846;" d="M202.634,264.972c-10.882,10.882-14.466,26.291-10.765,40.154
							c13.863,3.702,29.272,0.118,40.154-10.764c10.882-10.882,14.473-26.298,10.771-40.161
							C228.932,250.5,213.516,254.09,202.634,264.972z"/>
						<path style="fill:#FF9846;" d="M282.319,264.972c10.882,10.882,14.466,26.291,10.765,40.154
							c-13.863,3.702-29.272,0.118-40.154-10.764c-10.882-10.882-14.473-26.298-10.771-40.161
							C256.021,250.5,271.437,254.09,282.319,264.972z"/>
					</g>
					<path style="fill:#FDD1A7;" d="M165.612,132.84l10.118,82.84c4.12,33.733,32.762,59.09,66.746,59.09l0,0
						c33.984,0,62.626-25.357,66.746-59.09l10.118-82.84H165.612z"/>
					<g>
						<g>
							<line style="fill:#F69583;" x1="289.205" y1="211.15" x2="289.205" y2="211.237"/>
						</g>
					</g>
					<g>
						<path style="fill:#AC5E33;" d="M172.273,77.231c-21.612,21.612-26.149,53.823-13.624,79.894
							c26.065,12.531,58.282,7.988,79.894-13.624c21.618-21.618,26.161-53.836,13.63-79.9
							C226.102,51.076,193.891,55.613,172.273,77.231z"/>
						<path style="fill:#C86D3D;" d="M312.68,77.231c21.612,21.612,26.149,53.823,13.624,79.894
							c-26.065,12.531-58.282,7.988-79.894-13.624c-17.313-17.313-23.675-41.424-19.085-63.729
							c2.23-10.836,10.789-19.394,21.625-21.623C271.258,53.56,295.366,59.917,312.68,77.231z"/>
						<path style="fill:#AC5E33;" d="M326.3,157.128c-6.02,2.89-12.36,4.88-18.83,5.95c14.17-24.25,12.88-55.69-5.64-78.99
							c-12.91-16.23-31.55-25.21-50.75-26.34c21.7-3.78,44.84,2.72,61.6,19.48C334.29,98.848,338.83,131.058,326.3,157.128z"/>
					</g>
					<g>
						<g>
							<g>
								<path style="fill:#F69583;" d="M198.748,224.53c-4.06,0-7.352-3.292-7.352-7.352c0-4.06,3.292-7.395,7.352-7.395
									c4.06,0,7.352,3.248,7.352,7.308v0.087C206.1,221.238,202.808,224.53,198.748,224.53z"/>
							</g>
							<g>
								<path style="fill:#F69583;" d="M286.205,224.53c-4.06,0-7.352-3.292-7.352-7.352c0-4.06,3.292-7.395,7.352-7.395
									c4.06,0,7.352,3.248,7.352,7.308v0.087C293.557,221.238,290.265,224.53,286.205,224.53z"/>
							</g>
						</g>
					</g>
				</g>
			</g>
			<g>
				<path style="fill:#52CC61;" d="M208.544,502.018H16.721c-5.092,0-9.221-4.128-9.221-9.221V389.554
					c0-5.092,4.128-9.221,9.221-9.221h191.823c5.092,0,9.221,4.128,9.221,9.221v103.243
					C217.764,497.89,213.636,502.018,208.544,502.018z"/>
				<path style="fill:#00B232;" d="M217.76,389.558v103.24c0,5.09-4.12,9.22-9.22,9.22h-18.58c5.09,0,9.22-4.13,9.22-9.22v-103.24
					c0-5.1-4.13-9.22-9.22-9.22h18.58C213.64,380.338,217.76,384.458,217.76,389.558z"/>
				<circle style="fill:#BDEB73;" cx="112.632" cy="441.176" r="33.467"/>
			</g>
		</g>
	</g>
	<g>
		<path d="M494.693,214.651h-177.79l1.23-10.07c1.472,0.236,2.962,0.368,4.457,0.368c15.527,0,28.16-12.632,28.16-28.16
			c0-10.39-5.584-19.634-14.344-24.535c9.664-27.81,2.748-59.155-18.423-80.326c-6.296-6.296-13.503-11.36-21.281-15.099
			c0-0.041,0.002-0.082,0.002-0.122c0-29.902-24.327-54.229-54.229-54.229s-54.229,24.327-54.229,54.229
			c0,0.042,0.002,0.085,0.002,0.128c-7.769,3.733-14.979,8.792-21.281,15.094c-21.175,21.175-28.089,52.528-18.416,80.343
			c-8.673,4.921-14.351,14.274-14.351,24.518c0,15.527,12.632,28.16,28.159,28.16c1.494,0,2.985-0.13,4.458-0.366l1.467,12.007
			c1.548,12.675,6.235,24.288,13.21,34.115c-15.312,5.471-29.03,15.146-39.33,27.915c-5.417,6.715-9.784,14.18-13.018,22.102h-91.2
			c-8.127,0-14.738,6.611-14.738,14.738v57.375h-6.489C7.501,372.833,0,380.334,0,389.554v103.243
			c0,9.22,7.501,16.721,16.721,16.721h191.823c9.22,0,16.721-7.501,16.721-16.721V389.554c0-9.22-7.501-16.721-16.721-16.721
			h-71.012v-38.55c0-17.03,5.64-33.021,16.308-46.247c9.873-12.239,23.512-21.059,38.601-25.037
			c0.362,0.327,0.728,0.649,1.096,0.968c-9.497,12.049-12.925,28.07-8.913,43.094c0.692,2.593,2.718,4.619,5.312,5.312
			c4.163,1.112,8.403,1.653,12.615,1.653c4.972,0,9.901-0.763,14.618-2.226l17.808,23.741v64.79c0,4.142,3.357,7.5,7.5,7.5
			s7.5-3.358,7.5-7.5v-64.79l17.808-23.741c4.717,1.463,9.647,2.226,14.619,2.226c4.211,0,8.453-0.542,12.615-1.653
			c2.594-0.692,4.619-2.718,5.312-5.312c4.011-15.023,0.583-31.044-8.914-43.093c0.368-0.32,0.734-0.642,1.096-0.968
			c15.088,3.978,28.727,12.798,38.6,25.036c10.669,13.225,16.309,29.217,16.309,46.247v58.545h-30.466v-14.809
			c0-4.142-3.357-7.5-7.5-7.5s-7.5,3.358-7.5,7.5v105.999c0,4.142,3.357,7.5,7.5,7.5s7.5-3.358,7.5-7.5v-76.19h30.466v66.19
			c0,1.378-1.121,2.5-2.5,2.5c-4.143,0-7.5,3.358-7.5,7.5s3.357,7.5,7.5,7.5c9.649,0,17.5-7.851,17.5-17.5v-9.784h65.529v9.981
			c0,9.541,7.762,17.303,17.302,17.303h22.685c9.541,0,17.303-7.762,17.303-17.303v-9.981h9.454c9.541,0,17.303-7.762,17.303-17.303
			V231.953C511.996,222.413,504.234,214.651,494.693,214.651z M210.265,389.554v103.243c0,0.949-0.771,1.721-1.721,1.721H16.721
			c-0.949,0-1.721-0.772-1.721-1.721V389.554c0-0.949,0.771-1.721,1.721-1.721H41.79c4.143,0,7.5-3.358,7.5-7.5s-3.357-7.5-7.5-7.5
			h-3.58v-57.113h86.299c-0.765,3.567-1.312,7.186-1.633,10.835c-3.104-0.923-6.343-1.405-9.641-1.405
			c-18.621,0-33.771,15.149-33.771,33.771c0,4.829,1.061,9.573,3.024,13.913h-4.946c-4.143,0-7.5,3.358-7.5,7.5s3.357,7.5,7.5,7.5
			h131.001C209.493,387.833,210.265,388.605,210.265,389.554z M100.601,372.833c-0.088-0.093-0.171-0.188-0.265-0.277
			c-3.786-3.583-5.871-8.426-5.871-13.635c0-10.35,8.421-18.771,18.771-18.771c3.29,0,6.476,0.847,9.297,2.46v30.223H100.601z
			 M242.477,267.27c-30.151,0-55.646-22.57-59.302-52.499l-5.382-44.056c3.699,0.536,7.419,0.807,11.131,0.807
			c19.549-0.001,38.838-7.399,53.553-21.414c14.716,14.016,34.002,21.414,53.553,21.414c3.711,0,7.431-0.271,11.131-0.808
			l-5.382,44.057C298.122,244.7,272.629,267.27,242.477,267.27z M322.591,189.948c-0.9,0-1.776-0.108-2.635-0.282l2.799-22.91
			c1.694-0.624,3.375-1.306,5.038-2.055c4.81,2.056,7.959,6.749,7.959,12.088C335.751,184.045,329.848,189.948,322.591,189.948z
			 M242.477,17.478c19.815,0,36.235,14.77,38.854,33.876c-3.965-0.955-8.009-1.602-12.099-1.921
			c-1.032-5.263-3.597-10.103-7.474-13.98c-2.928-2.929-7.677-2.929-10.606,0.001c-2.929,2.929-2.929,7.678,0.001,10.606
			c1.091,1.091,1.941,2.355,2.546,3.725c-2.088,0.256-4.176,0.589-6.259,1.017c-1.587,0.326-3.127,0.769-4.626,1.297
			c-3.823-1.072-7.683-1.852-11.551-2.328c0.604-1.361,1.448-2.62,2.539-3.711c2.93-2.929,2.93-7.678,0.001-10.607
			c-2.929-2.928-7.678-2.93-10.606,0c-3.832,3.832-6.403,8.728-7.451,13.976c-4.093,0.321-8.145,0.974-12.122,1.933
			C206.237,32.252,222.659,17.478,242.477,17.478z M177.576,82.535c12.987-12.988,30.752-19.433,48.616-18.177
			c-2.999,4.047-5.156,8.763-6.215,13.905c-1.192,5.798-1.717,11.763-1.561,17.726c0.108,4.141,3.569,7.401,7.693,7.301
			c4.141-0.109,7.409-3.553,7.301-7.694c-0.126-4.82,0.298-9.635,1.259-14.311c1.638-7.956,7.836-14.153,15.792-15.79
			c20.711-4.26,41.985,2.109,56.914,17.039c18.137,18.136,23.311,45.528,13.265,68.929c-23.396,10.051-50.787,4.875-68.927-13.266
			c-3.585-3.585-6.73-7.599-9.348-11.931c-2.143-3.545-6.754-4.682-10.298-2.54c-3.545,2.142-4.683,6.752-2.54,10.298
			c0.979,1.62,2.024,3.199,3.119,4.743c-18.142,17.673-45.19,22.64-68.335,12.696C154.267,128.063,159.44,100.671,177.576,82.535z
			 M162.361,189.948c-7.256,0-13.159-5.903-13.159-13.16c0-5.27,3.211-10.032,7.966-12.084c1.661,0.748,3.339,1.429,5.031,2.052
			l2.799,22.913C164.138,189.844,163.26,189.948,162.361,189.948z M198.242,298.753c-1.197-9.346,1.549-18.849,7.573-26.125
			c8.073,4.559,17.051,7.659,26.562,8.953c-1.517,2.714-3.398,5.219-5.657,7.478C219.221,296.559,208.629,300.085,198.242,298.753z
			 M242.477,320.542l-11.605-15.472c2.282-1.603,4.45-3.399,6.456-5.405c1.888-1.888,3.6-3.938,5.151-6.099
			c1.549,2.155,3.254,4.205,5.147,6.099c2.006,2.006,4.173,3.802,6.455,5.405L242.477,320.542z M286.711,298.753
			c-10.385,1.332-20.978-2.195-28.478-9.695c-2.235-2.235-4.133-4.754-5.657-7.478c9.511-1.294,18.489-4.394,26.562-8.953
			C285.162,279.904,287.908,289.407,286.711,298.753z M361.616,322.47c1.31-0.428,2.687-0.656,4.085-0.656
			c7.239,0,13.129,5.889,13.129,13.128s-5.89,13.129-13.129,13.129c-1.122,0-2.216-0.155-3.28-0.429v-13.359
			C362.421,330.319,362.143,326.373,361.616,322.47z M470.239,474.215c0,1.27-1.033,2.303-2.303,2.303h-22.685
			c-1.27,0-2.302-1.033-2.302-2.303v-9.981h27.289V474.215z M496.996,446.932c0,1.27-1.033,2.303-2.303,2.303H362.421V414.55
			c9.332,3.446,19.144,5.194,29.283,5.194c46.746,0,84.778-38.021,84.799-84.762c0-0.013,0.002-0.026,0.002-0.039
			c0-0.011-0.001-0.021-0.001-0.032c-0.007-18.638-5.954-36.328-17.201-51.157c-2.502-3.3-7.207-3.946-10.508-1.444
			c-3.3,2.503-3.946,7.208-1.443,10.508c7.736,10.201,12.412,22.051,13.745,34.625h-38.798c-4.143,0-7.5,3.358-7.5,7.5
			s3.357,7.5,7.5,7.5h38.797c-3.754,34.974-33.438,62.301-69.391,62.301c-10.25,0-20.092-2.16-29.283-6.421v-35.447
			c1.083,0.125,2.176,0.195,3.28,0.195c15.511,0,28.129-12.619,28.129-28.129s-12.618-28.128-28.129-28.128
			c-2.499,0-4.967,0.339-7.349,0.983c-2.827-9.036-7.093-17.604-12.652-25.33c12.736-11.195,28.896-17.325,46.004-17.325
			c10.724,0,21.018,2.373,30.596,7.054c3.726,1.818,8.213,0.275,10.031-3.446c1.818-3.722,0.276-8.213-3.445-10.032
			c-11.646-5.69-24.156-8.576-37.182-8.576c-20.732,0-40.314,7.409-55.768,20.942c-9.223-9.065-20.346-16.046-32.479-20.381
			c4.499-6.338,8.042-13.421,10.406-21.053h180.831c1.27,0,2.303,1.033,2.303,2.302V446.932z"/>
		<path d="M53.161,322.084c-4.143,0-7.5,3.358-7.5,7.5v7.924c0,4.142,3.357,7.5,7.5,7.5s7.5-3.358,7.5-7.5v-7.924
			C60.661,325.442,57.304,322.084,53.161,322.084z"/>
		<path d="M207.512,186.108c-4.143,0-7.5,3.401-7.5,7.543s3.357,7.5,7.5,7.5s7.5-3.358,7.5-7.5v-0.086
			C215.012,189.423,211.654,186.108,207.512,186.108z"/>
		<path d="M284.941,193.565c0-4.142-3.357-7.457-7.5-7.457s-7.5,3.401-7.5,7.543s3.357,7.5,7.5,7.5s7.5-3.358,7.5-7.5V193.565z"/>
		<path d="M264.088,214.994c-3.977-1.146-8.136,1.154-9.281,5.135c-1.573,5.47-6.644,9.29-12.33,9.29s-10.757-3.82-12.33-9.29
			c-1.146-3.98-5.301-6.278-9.281-5.135c-3.98,1.145-6.279,5.3-5.135,9.281c3.411,11.86,14.41,20.144,26.746,20.144
			s23.335-8.283,26.746-20.144C270.367,220.294,268.068,216.139,264.088,214.994z"/>
		<path d="M112.632,482.143c22.589,0,40.967-18.377,40.967-40.967s-18.378-40.967-40.967-40.967s-40.967,18.377-40.967,40.967
			S90.043,482.143,112.632,482.143z M112.632,415.209c14.318,0,25.967,11.648,25.967,25.967s-11.648,25.967-25.967,25.967
			s-25.967-11.648-25.967-25.967S98.313,415.209,112.632,415.209z"/>
		<path d="M36.102,396.302c-4.143,0-7.5,3.358-7.5,7.5v10.095c0,4.142,3.357,7.5,7.5,7.5s7.5-3.358,7.5-7.5v-10.095
			C43.602,399.66,40.244,396.302,36.102,396.302z"/>
		<path d="M189.163,486.049c4.143,0,7.5-3.358,7.5-7.5v-10.095c0-4.142-3.357-7.5-7.5-7.5s-7.5,3.358-7.5,7.5v10.095
			C181.663,482.691,185.021,486.049,189.163,486.049z"/>
	</g>
</g>
<g>
</g>
<g>
</g>
<g>
</g>
<g>
</g>
<g>
</g>
<g>
</g>
<g>
</g>
<g>
</g>
<g>
</g>
<g>
</g>
<g>
</g>
<g>
</g>
<g>
</g>
<g>
</g>
<g>
</g>
</svg>
