<?xml version="1.0" encoding="iso-8859-1"?>
<!-- Generator: Adobe Illustrator 23.0.3, SVG Export Plug-In . SVG Version: 6.00 Build 0)  -->
<svg version="1.1" id="Capa_1" xmlns="http://www.w3.org/2000/svg" xmlns:xlink="http://www.w3.org/1999/xlink" x="0px" y="0px"
	 viewBox="0 0 512 512" style="enable-background:new 0 0 512 512;" xml:space="preserve">
<g>
	<g>
		<g>
			<g>
				<g>
					<path style="fill:#D77F4F;" d="M207.588,361.991V166.23H494.48c5.534,0,10.02,4.486,10.02,10.02v175.721
						c0,5.534-4.486,10.02-10.02,10.02H207.588z"/>
					<path style="fill:#2EA8FC;" d="M404.797,264.11L404.797,264.11c0,34.033,27.589,61.623,61.623,61.623H504.5V202.488h-38.081
						C432.386,202.488,404.797,230.077,404.797,264.11z"/>
					<path style="fill:#FFF5F5;" d="M404.797,264.111L404.797,264.111c0,14.37,11.649,26.02,26.02,26.02H504.5v-52.039h-73.684
						C416.446,238.091,404.797,249.74,404.797,264.111z"/>
					<path style="fill:#E84649;" d="M430.816,290.13c14.37,0,26.02-11.649,26.02-26.02v0c0-14.37-11.649-26.019-26.02-26.019V290.13
						z"/>
					<circle style="fill:#2EA8FC;" cx="335.653" cy="264.111" r="39.642"/>
				</g>
				<g>
					<g>
						<circle style="fill:#FF872A;" cx="406.409" cy="417.132" r="77.998"/>
						<path style="fill:#F36717;" d="M484.405,417.128c0,43.081-34.916,78.007-77.997,78.007c-4.188,0-8.306-0.331-12.313-0.972
							c37.22-5.901,65.674-38.152,65.674-77.035s-28.454-71.124-65.674-77.025c4.008-0.641,8.125-0.972,12.313-0.972
							C449.489,339.131,484.405,374.057,484.405,417.128z"/>
					</g>
				</g>
			</g>
		</g>
		<g>
			<g>
				<path style="fill:#E8B76B;" d="M199.907,264.748H85.846c-34.103,0-61.749-27.646-61.749-61.749v-67.845
					c0-65.33,52.96-118.29,118.29-118.29h0.979c65.33,0,118.29,52.96,118.29,118.29v67.845
					C261.656,237.102,234.01,264.748,199.907,264.748z"/>
				<path style="fill:#C99D5C;" d="M261.659,135.15V203c0,34.104-27.646,61.75-61.75,61.75h-19.406
					c34.104,0,61.75-27.646,61.75-61.75v-67.85c0-62.228-48.057-113.23-109.08-117.927c3.045-0.239,6.11-0.358,9.215-0.358h0.975
					C208.697,16.864,261.659,69.827,261.659,135.15z"/>
			</g>
			<path style="fill:#FDD1A7;" d="M278.253,310.96v174.088c0,5.571-4.508,10.079-10.069,10.079H17.572
				c-5.561,0-10.069-4.508-10.069-10.079V310.96c0-31.038,16.942-58.13,42.079-72.517c2.605-1.493,5.3-2.845,8.075-4.058
				c10.209-4.458,21.48-6.923,33.333-6.923h103.776c4.559,0,9.047,0.361,13.405,1.072c6.983,1.122,13.646,3.106,19.928,5.851
				c4.048,1.763,7.935,3.847,11.622,6.212C262.894,255.426,278.253,281.405,278.253,310.96z"/>
			<path style="fill:#FFBC8A;" d="M278.258,310.959v174.096c0,5.563-4.515,10.078-10.078,10.078h-23.23
				c5.563,0,10.078-4.515,10.078-10.078V310.959c0-34.255-20.64-63.703-50.158-76.572c-6.279-2.741-12.95-4.727-19.924-5.845
				c-4.364-0.716-8.848-1.078-13.414-1.078h23.23c4.565,0,9.05,0.363,13.414,1.078c6.974,1.119,13.645,3.104,19.924,5.845
				C257.619,247.256,278.258,276.704,278.258,310.959z"/>
			<path style="fill:#FFF5F5;" d="M239.721,240.598v254.54H49.582V238.444c2.605-1.493,5.3-2.845,8.075-4.058
				c10.209-4.458,21.48-6.923,33.333-6.923h103.776c4.559,0,9.047,0.361,13.405,1.072c6.983,1.122,13.646,3.106,19.928,5.851
				C232.146,236.149,236.034,238.233,239.721,240.598z"/>
			<g>
				<polygon style="fill:#2EA8FC;" points="192.006,434.122 144.652,462.175 97.297,434.122 97.297,384.115 192.006,384.115 				"/>
			</g>
			<path style="fill:#FAC574;" d="M239.721,240.598v119.934l-95.069,58.781l-95.069-58.781V238.444
				c2.605-1.493,5.3-2.845,8.075-4.058c10.209-4.458,21.48-6.923,33.333-6.923h103.776c4.559,0,9.047,0.361,13.405,1.072
				c6.983,1.122,13.646,3.106,19.928,5.851C232.146,236.149,236.034,238.233,239.721,240.598z"/>
			<path style="fill:#ED6264;" d="M239.721,240.598v84.736l-95.069,58.781l-95.069-58.781v-86.89c2.605-1.493,5.3-2.845,8.075-4.058
				c10.209-4.458,21.48-6.923,33.333-6.923h103.776c4.559,0,9.047,0.361,13.405,1.072c6.983,1.122,13.646,3.106,19.928,5.851
				C232.146,236.149,236.034,238.233,239.721,240.598z"/>
			<g>
				<path style="fill:#FFBC8A;" d="M144.265,320.866L144.265,320.866c-28.658,0-51.89-23.232-51.89-51.89v-42.653h103.78v42.653
					C196.155,297.634,172.923,320.866,144.265,320.866z"/>
			</g>
			<g>
				<g>
					<path style="fill:#FDD1A7;" d="M109.11,118.26c-27.165,0-48.207,23.768-44.913,50.733l4.976,40.741
						c4.55,37.249,36.177,65.249,73.703,65.249l0,0c37.526,0,69.154-28,73.703-65.249l8.727-71.449
						c1.3-10.644-7.006-20.026-17.729-20.026H109.11z"/>
					<line style="fill:#F69583;" x1="194.475" y1="204.732" x2="194.475" y2="204.828"/>
					<g>
						<path style="fill:#F69583;" d="M94.59,219.506c-4.484,0-8.118-3.635-8.118-8.118c0-4.484,3.635-8.166,8.118-8.166
							c4.484,0,8.118,3.587,8.118,8.07v0.096C102.708,215.871,99.074,219.506,94.59,219.506z"/>
					</g>
					<g>
						<path style="fill:#F69583;" d="M191.162,219.506c-4.484,0-8.118-3.635-8.118-8.118c0-4.484,3.635-8.166,8.118-8.166
							c4.484,0,8.118,3.587,8.118,8.07v0.096C199.281,215.871,195.646,219.506,191.162,219.506z"/>
					</g>
				</g>
				<path style="fill:#E8B76B;" d="M234.96,130.564c0-31.439-24.673-57.833-56.096-58.83c-0.754-0.024-44.521-0.036-44.521-0.036
					v15.559c0,30.23,24.506,54.736,54.736,54.736h45.881V130.564z"/>
			</g>
		</g>
	</g>
	<g>
		<path d="M494.48,158.73h-95.783c-4.143,0-7.5,3.358-7.5,7.5s3.357,7.5,7.5,7.5h95.783c1.39,0,2.52,1.13,2.52,2.52v18.738h-30.581
			c-38.114,0-69.122,31.008-69.122,69.123v0c0,38.114,31.008,69.123,69.122,69.123H497v18.737c0,1.39-1.13,2.52-2.52,2.52h-29.965
			c-15.265-14.17-35.686-22.857-58.107-22.857c-19.634,0-37.729,6.669-52.178,17.838c-0.528,0.319-1.02,0.701-1.461,1.149
			c-1.534,1.239-3.023,2.53-4.467,3.87h-5.149V310.65c22.441-3.604,39.643-23.097,39.643-46.539
			c0-23.441-17.201-42.935-39.643-46.539V173.73h20.149c4.143,0,7.5-3.358,7.5-7.5s-3.357-7.5-7.5-7.5h-94.146v-23.576
			c0-69.361-56.429-125.79-125.79-125.79h-0.979c-21.159,0-42.091,5.361-60.533,15.504c-3.63,1.996-4.953,6.557-2.957,10.186
			c1.996,3.63,6.556,4.955,10.186,2.958c16.234-8.929,34.666-13.648,53.305-13.648h0.979c61.09,0,110.79,49.7,110.79,110.79v67.845
			c0,11.317-3.538,22.286-10.036,31.423c-6.97-4.478-14.643-8.036-22.863-10.522c1.264-4.278,2.209-8.701,2.766-13.257l7.469-61.15
			h3.164c4.143,0,7.5-3.358,7.5-7.5s-3.357-7.5-7.5-7.5h-45.577c-26.046,0-47.236-21.19-47.236-47.236c0-4.142-3.357-7.5-7.5-7.5
			s-7.5,3.358-7.5,7.5c0,8.314,1.651,16.246,4.622,23.502H109.11c-15.094,0-29.489,6.482-39.494,17.783
			c-10.005,11.302-14.694,26.376-12.864,41.359l4.977,40.742c0.557,4.557,1.503,8.981,2.767,13.261
			c-8.059,2.458-15.733,6.045-22.798,10.606c-6.53-9.151-10.101-20.199-10.101-31.511v-67.845c0-28.781,10.987-56.054,30.939-76.793
			c2.871-2.985,2.779-7.733-0.206-10.605c-2.984-2.871-7.732-2.779-10.604,0.206c-22.653,23.549-35.129,54.515-35.129,87.193v67.845
			c0,14.614,4.67,28.884,13.204,40.652c-3.413,3.098-6.611,6.448-9.533,10.052C7.198,269.831,0,290.165,0,310.961v174.096
			c0,9.692,7.886,17.578,17.578,17.578c4.143,0,7.5-3.358,7.5-7.5s-3.357-7.5-7.5-7.5c-1.422,0-2.578-1.157-2.578-2.578V310.961
			c0-17.369,6.01-34.349,16.922-47.813c3.057-3.772,6.47-7.214,10.156-10.314v160.462c0,4.142,3.357,7.5,7.5,7.5s7.5-3.358,7.5-7.5
			v-39.312l32.72,20.23v39.908c0,2.649,1.397,5.103,3.678,6.453l47.354,28.053c1.179,0.698,2.5,1.047,3.822,1.047
			s2.645-0.349,3.822-1.047l47.354-28.053c2.28-1.35,3.678-3.803,3.678-6.453v-39.909l32.714-20.227v121.148
			c0,4.142,3.357,7.5,7.5,7.5s7.5-3.358,7.5-7.5V255.877c14.662,13.955,23.537,33.606,23.537,55.084v174.096
			c0,1.421-1.156,2.578-2.578,2.578c-4.143,0-7.5,3.358-7.5,7.5s3.357,7.5,7.5,7.5c9.692,0,17.578-7.886,17.578-17.578V369.491
			h49.694c-9.176,13.623-14.539,30.017-14.539,47.642c0,47.144,38.354,85.498,85.498,85.498s85.498-38.354,85.498-85.498
			c0-17.625-5.363-34.019-14.539-47.642h17.113c9.66,0,17.52-7.859,17.52-17.52V176.25C512,166.589,504.141,158.73,494.48,158.73z
			 M80.848,138.486c7.159-8.087,17.461-12.726,28.263-12.726h31.126c11.407,14.44,29.054,23.734,48.843,23.734h27.303l-7.247,59.332
			c-4.084,33.44-32.569,58.658-66.259,58.658c-33.688,0-62.174-25.217-66.259-58.658l-4.977-40.742
			C70.332,157.361,73.688,146.574,80.848,138.486z M188.654,268.429v0.547c0,24.477-19.913,44.39-44.39,44.39
			c-24.052,0-43.682-19.231-44.357-43.122c12.546,7.773,27.294,12.24,42.969,12.24C159.736,282.483,175.527,277.322,188.654,268.429
			z M184.506,429.848l-39.854,23.61l-39.854-23.61v-26.359l35.909,22.202c1.209,0.748,2.576,1.121,3.944,1.121
			s2.735-0.374,3.944-1.121l35.91-22.203V429.848z M232.22,356.351l-87.568,54.143l-87.573-54.146v-17.562l83.629,51.708
			c1.209,0.747,2.576,1.121,3.944,1.121s2.735-0.374,3.944-1.121l83.624-51.705V356.351z M232.22,321.154l-87.568,54.143
			l-87.573-54.146v-78.189c4.163-2.084,8.518-3.783,13.005-5.068c3.874,7.57,8.882,14.432,14.792,20.383v10.699
			c0,32.748,26.642,59.39,59.39,59.39s59.39-26.642,59.39-59.39V255.34c4.718-5.242,8.771-11.103,12.023-17.464
			c5.869,1.669,11.401,4.01,16.542,6.906V321.154z M367.796,264.11c0,17.724-14.419,32.143-32.143,32.143
			s-32.143-14.419-32.143-32.143c0-17.723,14.419-32.142,32.143-32.142S367.796,246.387,367.796,264.11z M256.035,243.559
			c8.498-11.753,13.121-25.933,13.121-40.56V173.73h58.997v43.842c-22.441,3.604-39.643,23.097-39.643,46.539
			c0,23.442,17.201,42.935,39.643,46.539v43.841h-42.396v-43.53C285.757,284.499,274.515,260.341,256.035,243.559z M398.909,487.227
			c-9.876-1.049-19.141-4.157-27.379-8.868c4.019-3.308,7.643-7.124,10.698-11.344c4.102-5.665,10.048-9.648,16.681-11.382V487.227z
			 M398.909,440.306c-11.469,1.961-21.901,8.344-28.83,17.912c-3.078,4.252-6.909,7.964-11.208,10.922
			c-12.364-11.31-20.692-26.957-22.557-44.508h62.595V440.306z M398.909,409.632h-62.595c1.865-17.555,10.197-33.205,22.565-44.516
			c4.3,2.958,8.118,6.672,11.201,10.93c6.928,9.568,17.361,15.951,28.829,17.912V409.632z M398.909,378.63
			c-6.632-1.733-12.578-5.717-16.68-11.381c-3.06-4.227-6.685-8.035-10.704-11.341c8.239-4.713,17.506-7.821,27.384-8.871V378.63z
			 M413.909,347.037c9.876,1.049,19.141,4.157,27.379,8.868c-4.019,3.308-7.643,7.125-10.698,11.344
			c-4.102,5.665-10.048,9.648-16.681,11.382V347.037z M413.909,487.227v-31.593c6.632,1.733,12.579,5.717,16.681,11.381
			c3.055,4.22,6.679,8.037,10.698,11.344C433.05,483.07,423.785,486.178,413.909,487.227z M453.948,469.14
			c-4.298-2.957-8.13-6.67-11.209-10.923c-6.928-9.568-17.361-15.951-28.829-17.912v-15.674h62.595
			C474.639,442.183,466.311,457.83,453.948,469.14z M413.909,409.632v-15.674c11.468-1.961,21.901-8.343,28.829-17.912
			c3.079-4.252,6.911-7.965,11.209-10.922c12.363,11.31,20.692,26.957,22.557,44.508H413.909z M412.297,264.11
			c0-7.541,4.537-14.033,11.02-16.918v33.836C416.834,278.143,412.297,271.652,412.297,264.11z M497,318.233h-30.581
			c-17.584,0-33.231-8.434-43.123-21.465c2.419,0.557,4.934,0.861,7.521,0.861H497V318.233z M438.316,281.028v-33.836
			c6.482,2.885,11.02,9.377,11.02,16.918S444.799,278.143,438.316,281.028z M497,282.63h-38.263
			c3.534-5.31,5.599-11.677,5.599-18.52s-2.065-13.21-5.599-18.52H497V282.63z M497,230.591h-66.184
			c-2.586,0-5.101,0.304-7.52,0.861c9.892-13.03,25.539-21.464,43.123-21.464H497V230.591z"/>
		<path d="M49.578,441.744c-4.143,0-7.5,3.358-7.5,7.5v45.891c0,4.142,3.357,7.5,7.5,7.5s7.5-3.358,7.5-7.5v-45.891
			C57.078,445.102,53.721,441.744,49.578,441.744z"/>
		<path d="M104.267,192.91c4.143,0,7.5-3.358,7.5-7.5v-0.096c0-4.142-3.357-7.452-7.5-7.452s-7.5,3.406-7.5,7.548
			S100.124,192.91,104.267,192.91z"/>
		<path d="M181.485,192.91c4.143,0,7.5-3.358,7.5-7.5v-0.096c0-4.142-3.357-7.452-7.5-7.452s-7.5,3.406-7.5,7.548
			S177.343,192.91,181.485,192.91z"/>
		<path d="M142.876,240.687c13.275,0,25.111-8.914,28.783-21.678c1.145-3.981-1.154-8.136-5.135-9.281
			c-3.978-1.145-8.135,1.154-9.281,5.135c-1.833,6.373-7.741,10.824-14.367,10.824s-12.534-4.451-14.366-10.823
			c-1.145-3.982-5.302-6.28-9.28-5.136c-3.981,1.145-6.28,5.3-5.136,9.28C117.764,231.772,129.6,240.687,142.876,240.687z"/>
	</g>
</g>
<g>
</g>
<g>
</g>
<g>
</g>
<g>
</g>
<g>
</g>
<g>
</g>
<g>
</g>
<g>
</g>
<g>
</g>
<g>
</g>
<g>
</g>
<g>
</g>
<g>
</g>
<g>
</g>
<g>
</g>
</svg>
