<?xml version="1.0" encoding="iso-8859-1"?>
<!-- Generator: Adobe Illustrator 23.0.3, SVG Export Plug-In . SVG Version: 6.00 Build 0)  -->
<svg version="1.1" id="Capa_1" xmlns="http://www.w3.org/2000/svg" xmlns:xlink="http://www.w3.org/1999/xlink" x="0px" y="0px"
	 viewBox="0 0 512 512" style="enable-background:new 0 0 512 512;" xml:space="preserve">
<g>
	<g>
		<g>
			<g>
				<circle style="fill:#9E9797;" cx="105.035" cy="71.596" r="22.351"/>
				<rect x="25.145" y="120.553" style="fill:#E84649;" width="159.779" height="316.918"/>
				<rect x="135.073" y="120.553" style="fill:#D73337;" width="49.851" height="316.918"/>
				<g>
					<polygon style="fill:#FFF5F5;" points="184.93,305.51 184.93,366.47 184.92,366.47 135.07,387.97 25.14,435.38 25.14,374.42 
						135.07,327.01 184.92,305.51 					"/>
					<polygon style="fill:#E0D3CE;" points="135.07,327.01 184.92,305.51 184.92,366.47 135.07,387.97 					"/>
					<polygon style="fill:#2EA8FC;" points="184.93,244.56 184.93,305.51 184.92,305.51 135.07,327.01 25.14,374.42 25.14,313.47 
						135.07,266.06 184.92,244.56 					"/>
					<polygon style="fill:#0086F9;" points="135.07,266.06 184.92,244.56 184.92,305.51 135.07,327.01 					"/>
					<polygon style="fill:#2EA8FC;" points="184.92,120.55 184.92,124.22 135.07,145.72 25.15,193.14 25.15,120.55 					"/>
					<polygon style="fill:#0086F9;" points="184.92,120.55 184.92,124.22 135.07,145.72 135.07,120.55 					"/>
					<polygon style="fill:#FFF5F5;" points="184.93,124.23 184.93,183.6 184.92,183.6 135.07,205.1 25.14,252.51 25.14,193.14 
						135.07,145.73 184.92,124.23 					"/>
					<polygon style="fill:#E0D3CE;" points="184.92,124.23 184.92,183.6 135.07,205.1 135.07,145.73 					"/>
				</g>
				<g>
					<path style="fill:#CDBFBB;" d="M202.57,438.8v18.92c0,4.96-4.02,8.98-8.98,8.98H16.48c-4.96,0-8.98-4.02-8.98-8.98V438.8
						c0-4.96,4.02-8.98,8.98-8.98h177.11C198.55,429.82,202.57,433.84,202.57,438.8z"/>
					<path style="fill:#9E9797;" d="M202.57,438.8v18.92c0,4.96-4.02,8.98-8.98,8.98h-58.52v-36.88h58.52
						C198.55,429.82,202.57,433.84,202.57,438.8z"/>
					<path style="fill:#CDBFBB;" d="M202.57,100.3v18.93c0,4.96-4.02,8.97-8.98,8.97H16.48c-4.96,0-8.98-4.01-8.98-8.97V100.3
						c0-4.95,4.02-8.97,8.98-8.97h177.11C198.55,91.33,202.57,95.35,202.57,100.3z"/>
					<path style="fill:#9E9797;" d="M202.57,100.3v18.93c0,4.96-4.02,8.97-8.98,8.97h-58.52V91.33h58.52
						C198.55,91.33,202.57,95.35,202.57,100.3z"/>
				</g>
			</g>
			<g>
				<g>
					<g>
						<path style="fill:#FBCC85;" d="M376.922,257.174H167.428c-5.599,0-10.137-4.539-10.137-10.137v-101.85
							c0-63.449,51.435-114.884,114.884-114.884h0c63.449,0,114.884,51.435,114.884,114.884v101.85
							C387.059,252.635,382.521,257.174,376.922,257.174z"/>
						<path style="fill:#E8B76B;" d="M387.06,145.19v101.851c0,5.596-4.542,10.137-10.137,10.137h-19.808
							c5.606,0,10.137-4.541,10.137-10.137V145.19c0-31.729-12.864-60.448-33.645-81.239
							c-18.602-18.592-43.559-30.847-71.335-33.209c3.264-0.294,6.569-0.436,9.904-0.436c31.729,0,60.448,12.864,81.239,33.645
							C374.195,84.742,387.06,113.461,387.06,145.19z"/>
					</g>
					<path style="fill:#2EA8FC;" d="M168.327,481.698c-5.599,0-10.137-4.539-10.137-10.137V329.909c0-45.47,36.86-82.33,82.33-82.33
						h63.313c45.47,0,82.33,36.86,82.33,82.33V471.56c0,5.599-4.539,10.137-10.137,10.137H168.327z"/>
					<path style="fill:#0086F9;" d="M386.162,329.914v141.646c0,5.599-4.539,10.137-10.137,10.137h-11.871V329.914
						c0-45.475-36.859-82.334-82.334-82.334h22.008C349.3,247.58,386.162,284.442,386.162,329.914z"/>
					<polygon style="fill:#FFBC8A;" points="272.25,322.271 231.816,257.604 272.25,241.404 312.683,257.604 					"/>
					<path style="fill:#FDD1A7;" d="M218.829,129.114c-13.06,0-23.175,11.427-21.592,24.39l7.278,59.587
						c4.177,34.196,33.212,59.901,67.662,59.901l0,0c34.45,0,63.485-25.704,67.662-59.901l7.278-59.586
						c1.583-12.963-8.533-24.39-21.592-24.39H218.829z"/>
					<line style="fill:#F69583;" x1="319.546" y1="235.499" x2="319.546" y2="235.587"/>
					<path style="fill:#F69583;" d="M227.848,222.062c-4.116,0-7.453-3.337-7.453-7.453s3.337-7.496,7.453-7.496
						s7.453,3.293,7.453,7.409v0.088C235.301,218.725,231.964,222.062,227.848,222.062z"/>
					<path style="fill:#F69583;" d="M316.505,222.062c-4.116,0-7.453-3.337-7.453-7.453s3.337-7.496,7.453-7.496
						c4.116,0,7.453,3.293,7.453,7.409v0.088C323.957,218.725,320.621,222.062,316.505,222.062z"/>
					<path style="fill:#FBCC85;" d="M354.043,157.713c-3.143,1.794-33.27,3.457-66.926,4.105l-14.942-21.582l-15.135,21.866
						c-32.145-0.03-61.208-1.237-66.733-4.389c-5.596-13.776-4.146-29.205,0.679-43.985h162.377
						C358.189,128.508,359.638,143.936,354.043,157.713z"/>
				</g>
			</g>
		</g>
	</g>
	<g>
		<path d="M358.99,69.583c-3.293,2.513-3.924,7.22-1.41,10.512c14.378,18.835,21.979,41.343,21.979,65.092v101.85
			c0,1.454-1.183,2.638-2.637,2.638H345c-0.228,0-0.452,0.014-0.675,0.034c-2.789-1.41-5.672-2.673-8.631-3.795
			c6.076-9.368,10.157-20.193,11.588-31.913l5.897-48.276c2.902-0.539,3.788-1.044,4.581-1.497c3.598-2.054,4.85-6.635,2.796-10.231
			c-1.928-3.38-6.089-4.687-9.566-3.134c-3.753,0.979-24.374,2.604-60,3.376l-12.649-18.271c-1.4-2.023-3.705-3.23-6.167-3.23
			c-2.461,0-4.766,1.208-6.166,3.231l-12.892,18.625c-40.681-0.163-56.324-2.216-59.194-3.451
			c-3.583-1.972-8.096-0.709-10.128,2.854c-2.054,3.598-0.801,8.178,2.797,10.23c0.749,0.427,1.864,1.063,4.614,1.748L197.07,214
			c1.431,11.719,5.512,22.543,11.588,31.912c-2.947,1.115-5.821,2.363-8.598,3.762h-32.633c-1.454,0-2.637-1.184-2.637-2.638
			v-101.85c0-59.212,48.172-107.384,107.384-107.384c22.036,0,43.214,6.63,61.245,19.174c3.402,2.367,8.075,1.526,10.439-1.873
			c2.366-3.4,1.527-8.074-1.873-10.439c-20.558-14.302-44.698-21.861-69.812-21.861c-45.136,0-84.64,24.565-105.856,61.024h-34.051
			c1.702-3.788,2.617-7.936,2.617-12.231c0-16.46-13.391-29.852-29.851-29.852S75.184,55.136,75.184,71.596
			c0,4.296,0.916,8.444,2.617,12.231H16.476C7.391,83.827,0,91.218,0,100.303v18.927c0,9.085,7.391,16.476,16.476,16.476h1.168
			V422.32h-1.168C7.391,422.32,0,429.711,0,438.796v18.927c0,9.084,7.391,16.475,16.476,16.475H150.91
			c1.279,8.475,8.591,15,17.417,15c4.143,0,7.5-3.357,7.5-7.5s-3.357-7.5-7.5-7.5c-1.454,0-2.637-1.183-2.637-2.637V329.909
			c0-33.056,21.656-62.079,53.021-71.602c3.062,3.059,6.381,5.851,9.921,8.347c0.008,0.014,0.015,0.028,0.023,0.042l37.235,59.551
			c1.371,2.191,3.774,3.523,6.359,3.523s4.988-1.332,6.359-3.523l36.889-58.997c0.146-0.233,0.275-0.472,0.393-0.715
			c3.473-2.464,6.732-5.213,9.743-8.219c31.334,9.521,53.029,38.628,53.029,71.593v53.353c0,4.143,3.357,7.5,7.5,7.5
			s7.5-3.357,7.5-7.5v-53.353c0-25.269-10.62-48.655-28.093-65.235h11.353c9.725,0,17.637-7.912,17.637-17.638v-101.85
			c0-27.066-8.664-52.722-25.057-74.193C366.989,67.701,362.282,67.066,358.99,69.583z M32.644,198.071l117.147-50.524v43.039
			L32.644,241.11V198.071z M95.867,83.271c-3.612-2.842-5.684-7.097-5.684-11.676c0-8.189,6.662-14.852,14.852-14.852
			c8.188,0,14.851,6.662,14.851,14.852c0,4.579-2.071,8.834-5.684,11.676c-0.222,0.175-0.429,0.362-0.626,0.556H96.494
			C96.297,83.633,96.089,83.446,95.867,83.271z M15,119.229v-18.927c0-0.813,0.662-1.476,1.476-1.476h142.444
			c-2.874,6.995-5.124,14.309-6.667,21.878H16.476C15.662,120.705,15,120.043,15,119.229z M139.374,135.705l-106.73,46.031v-46.031
			H139.374z M32.644,379.358l118.078-50.925c-0.008,0.493-0.031,0.982-0.031,1.477v43.158L37.442,421.908
			c-0.281,0.121-0.547,0.262-0.805,0.412h-3.993V379.358z M150.69,422.32H74.363l76.328-32.918V422.32z M15,457.723v-18.927
			c0-0.813,0.662-1.476,1.476-1.476H150.69v21.877H16.476C15.662,459.197,15,458.536,15,457.723z M152.638,311.271L32.644,363.023
			v-44.621l33.977-14.654c3.804-1.641,5.558-6.054,3.917-9.856c-1.64-3.805-6.052-5.56-9.856-3.917l-28.037,12.092v-44.621
			l117.147-50.524v40.115c0,1.475,0.202,2.901,0.545,4.272l-56.955,24.563c-3.804,1.641-5.558,6.054-3.917,9.856
			c1.223,2.836,3.986,4.532,6.891,4.532c0.991,0,1.998-0.197,2.966-0.615l61.188-26.389c2.126,0.911,4.464,1.418,6.92,1.418h11.321
			C165.677,277.071,156.448,293.275,152.638,311.271z M257.033,169.603c0.002,0,0.004,0,0.007,0c2.461,0,4.766-1.208,6.167-3.231
			l8.969-12.958l8.775,12.675c1.43,2.064,3.788,3.286,6.311,3.229c16.887-0.326,32.94-0.906,45.206-1.636
			c1.959-0.116,3.753-0.232,5.404-0.347l-5.478,44.847c-3.712,30.392-29.599,53.31-60.217,53.31
			c-30.617,0-56.506-22.918-60.218-53.31l-5.384-44.078C216.84,168.946,232.586,169.579,257.033,169.603z M272.25,308.124
			l-18.751-29.99c5.992,1.529,12.248,2.357,18.678,2.357c6.493,0,12.808-0.844,18.853-2.402L272.25,308.124z"/>
		<path d="M386.162,411.514c-4.143,0-7.5,3.357-7.5,7.5v52.547c0,1.454-1.183,2.637-2.637,2.637c-4.143,0-7.5,3.357-7.5,7.5
			s3.357,7.5,7.5,7.5c9.725,0,17.637-7.912,17.637-17.637v-52.547C393.662,414.871,390.305,411.514,386.162,411.514z"/>
		<path d="M236.731,198.26c4.143,0,7.5-3.357,7.5-7.5v-0.088c0-4.143-3.357-7.456-7.5-7.456s-7.5,3.401-7.5,7.544
			S232.589,198.26,236.731,198.26z"/>
		<path d="M307.621,198.26c4.143,0,7.5-3.357,7.5-7.5v-0.088c0-4.143-3.357-7.456-7.5-7.456s-7.5,3.401-7.5,7.544
			S303.479,198.26,307.621,198.26z"/>
		<path d="M272.177,242.12c12.46,0,23.568-8.366,27.014-20.345c1.145-3.981-1.154-8.137-5.135-9.281
			c-3.982-1.141-8.137,1.153-9.281,5.135c-1.607,5.589-6.787,9.491-12.598,9.491s-10.991-3.902-12.599-9.491
			c-1.146-3.98-5.303-6.28-9.281-5.135c-3.98,1.145-6.279,5.3-5.135,9.281C248.607,233.754,259.716,242.12,272.177,242.12z"/>
		<path d="M206.064,337.654c-4.143,0-7.5,3.357-7.5,7.5v136.543c0,4.143,3.357,7.5,7.5,7.5s7.5-3.357,7.5-7.5V345.154
			C213.564,341.012,210.207,337.654,206.064,337.654z"/>
		<path d="M343.679,337.654c-4.143,0-7.5,3.357-7.5,7.5v136.543c0,4.143,3.357,7.5,7.5,7.5s7.5-3.357,7.5-7.5V345.154
			C351.179,341.012,347.821,337.654,343.679,337.654z"/>
		<path d="M272.175,341.771c-4.143,0-7.5,3.357-7.5,7.5v132.427c0,4.143,3.357,7.5,7.5,7.5s7.5-3.357,7.5-7.5V349.271
			C279.675,345.128,276.317,341.771,272.175,341.771z"/>
		<path d="M303.096,375.361c-4.143,0-7.5,3.401-7.5,7.544s3.357,7.5,7.5,7.5s7.5-3.357,7.5-7.5v-0.087
			C310.596,378.676,307.238,375.361,303.096,375.361z"/>
		<path d="M303.096,424.497c-4.143,0-7.5,3.401-7.5,7.544s3.357,7.5,7.5,7.5s7.5-3.357,7.5-7.5v-0.088
			C310.596,427.811,307.238,424.497,303.096,424.497z"/>
		<path d="M486.317,437.832c-1.966,0-3.877,0.229-5.718,0.649L466.133,413.6l25.611-44.049c2.082-3.581,0.867-8.171-2.714-10.253
			c-3.579-2.084-8.172-0.866-10.253,2.714l-21.319,36.668l-21.319-36.668c-2.082-3.583-6.676-4.796-10.253-2.714
			c-3.581,2.082-4.796,6.672-2.714,10.253l25.611,44.049l-14.467,24.882c-1.84-0.42-3.752-0.65-5.718-0.65
			c-14.161,0-25.683,11.521-25.683,25.683s11.521,25.683,25.683,25.683s25.683-11.521,25.683-25.683
			c0-6.785-2.65-12.959-6.962-17.556l10.139-17.438l10.139,17.438c-4.313,4.596-6.963,10.771-6.963,17.556
			c0,14.161,11.521,25.683,25.684,25.683c14.161,0,25.683-11.521,25.683-25.683S500.479,437.832,486.317,437.832z M428.599,474.197
			c-5.891,0-10.683-4.792-10.683-10.683s4.792-10.683,10.683-10.683s10.683,4.792,10.683,10.683S434.489,474.197,428.599,474.197z
			 M486.317,474.197c-5.891,0-10.684-4.792-10.684-10.683s4.793-10.683,10.684-10.683S497,457.624,497,463.515
			S492.208,474.197,486.317,474.197z"/>
		<path d="M448.641,316.805h34.269c4.143,0,7.5-3.357,7.5-7.5s-3.357-7.5-7.5-7.5h-34.269c-4.906,0-8.91-3.892-9.114-8.749h36.715
			c4.143,0,7.5-3.357,7.5-7.5s-3.357-7.5-7.5-7.5h-36.734v-9.798h36.734c4.143,0,7.5-3.357,7.5-7.5s-3.357-7.5-7.5-7.5h-36.734
			v-9.798h36.734c4.143,0,7.5-3.357,7.5-7.5s-3.357-7.5-7.5-7.5h-36.734v-9.797h36.734c4.143,0,7.5-3.357,7.5-7.5
			s-3.357-7.5-7.5-7.5h-36.734v-9.798h36.734c4.143,0,7.5-3.357,7.5-7.5s-3.357-7.5-7.5-7.5h-36.715
			c0.204-4.857,4.208-8.749,9.114-8.749h34.269c4.143,0,7.5-3.357,7.5-7.5s-3.357-7.5-7.5-7.5h-34.269
			c-13.308,0-24.134,10.826-24.134,24.134v113.421C424.507,305.979,435.333,316.805,448.641,316.805z"/>
	</g>
</g>
<g>
</g>
<g>
</g>
<g>
</g>
<g>
</g>
<g>
</g>
<g>
</g>
<g>
</g>
<g>
</g>
<g>
</g>
<g>
</g>
<g>
</g>
<g>
</g>
<g>
</g>
<g>
</g>
<g>
</g>
</svg>
