<?xml version="1.0" encoding="iso-8859-1"?>
<!-- Generator: Adobe Illustrator 23.0.3, SVG Export Plug-In . SVG Version: 6.00 Build 0)  -->
<svg version="1.1" id="Capa_1" xmlns="http://www.w3.org/2000/svg" xmlns:xlink="http://www.w3.org/1999/xlink" x="0px" y="0px"
	 viewBox="0 0 512 512" style="enable-background:new 0 0 512 512;" xml:space="preserve">
<g>
	<g>
		<g>
			<g>
				<g>
					<path style="fill:#C86D3D;" d="M311.423,254.916H197.577c-34.039,0-61.632-27.594-61.632-61.632v-67.717
						c0-65.206,52.86-118.067,118.067-118.067h0.977c65.206,0,118.067,52.86,118.067,118.067v67.717
						C373.056,227.323,345.462,254.916,311.423,254.916z"/>
					<path style="fill:#AC5E33;" d="M373.059,125.562v67.723c0,34.04-27.594,61.634-61.634,61.634h-19.369
						c34.04,0,61.634-27.594,61.634-61.634v-67.723c0-62.11-47.966-113.016-108.874-117.705c3.039-0.238,6.099-0.358,9.198-0.358
						h0.973C320.196,7.5,373.059,60.363,373.059,125.562z"/>
				</g>
				<g>
					<path style="fill:#FDD1A7;" d="M392.625,301.038v173.768c0,5.553-4.506,10.059-10.059,10.059H126.434
						c-5.553,0-10.059-4.506-10.059-10.059V301.038c0-34.19,20.601-63.582,50.063-76.428c10.19-4.446,21.446-6.91,33.275-6.91
						h109.573c4.557,0,9.033,0.362,13.388,1.076c6.961,1.117,13.62,3.098,19.887,5.834
						C372.024,237.456,392.625,266.848,392.625,301.038z"/>
					<path style="fill:#FFBC8A;" d="M392.625,301.04v173.768c0,5.553-4.506,10.059-10.059,10.059H359.38
						c5.553,0,10.059-4.506,10.059-10.059V301.04c0-34.19-20.601-63.583-50.063-76.428c-6.267-2.736-12.926-4.718-19.887-5.834
						c-4.355-0.714-8.832-1.076-13.388-1.076h23.186c4.557,0,9.033,0.362,13.388,1.076c6.961,1.117,13.62,3.098,19.886,5.834
						C372.024,237.457,392.625,266.85,392.625,301.04z"/>
					<path style="fill:#CDBFBB;" d="M298.498,413.413h-87.996c-24.336,0-44.063-19.728-44.063-44.063V228.606
						c0-6.023,4.883-10.906,10.906-10.906h154.31c6.023,0,10.906,4.883,10.906,10.906V369.35
						C342.561,393.686,322.833,413.413,298.498,413.413z"/>
					<path style="fill:#B9ACAC;" d="M342.563,228.607v140.744c0,24.332-19.729,44.061-44.061,44.061h-21.092
						c24.343,0,44.072-19.729,44.072-44.061V228.607c0-6.02-4.886-10.906-10.906-10.906h21.082
						C337.677,217.701,342.563,222.587,342.563,228.607z"/>
					<path style="fill:#FFBC8A;" d="M262.882,325.122h-16.765c-20.573,0-37.25-16.678-37.25-37.25V217.7h91.266v70.172
						C300.133,308.444,283.455,325.122,262.882,325.122z"/>
				</g>
				<g>
					<g>
						<path style="fill:#FDD1A7;" d="M220.797,108.704c-27.114,0-48.116,23.724-44.829,50.637l4.967,40.665
							c4.541,37.179,36.109,65.126,73.564,65.126l0,0c37.455,0,69.023-27.947,73.564-65.126l8.71-71.314
							c1.298-10.624-6.993-19.988-17.695-19.988H220.797z"/>
						<line style="fill:#F69583;" x1="306.001" y1="195.014" x2="306.001" y2="195.109"/>
						<g>
							<path style="fill:#F69583;" d="M206.305,209.76c-4.475,0-8.103-3.628-8.103-8.103c0-4.475,3.628-8.15,8.103-8.15
								c4.475,0,8.103,3.58,8.103,8.055v0.095C214.408,206.132,210.78,209.76,206.305,209.76z"/>
						</g>
						<g>
							<path style="fill:#F69583;" d="M302.695,209.76c-4.475,0-8.103-3.628-8.103-8.103c0-4.475,3.628-8.15,8.103-8.15
								c4.475,0,8.103,3.58,8.103,8.055v0.095C310.798,206.132,307.17,209.76,302.695,209.76z"/>
						</g>
					</g>
					<path style="fill:#C86D3D;" d="M346.41,120.985c0-31.38-24.626-57.724-55.99-58.719c-0.753-0.024-44.437-0.036-44.437-0.036
						v15.53c0,30.173,24.46,54.633,54.633,54.633h45.795V120.985z"/>
				</g>
			</g>
			<g>
				<g>
					<path style="fill:#756F6F;" d="M93.333,504.5h43.886c6.456,0,11.689-5.234,11.689-11.689v-43.295H81.643v43.295
						C81.643,499.266,86.877,504.5,93.333,504.5z"/>
					<g>
						<path style="fill:#D73337;" d="M79.305,470.102h71.572c3.228,0,5.845-2.617,5.845-5.845v-54.621H73.46v54.621
							C73.46,467.485,76.077,470.102,79.305,470.102z"/>
					</g>
					<g>
						
							<rect x="73.46" y="409.636" transform="matrix(-1 -4.486379e-11 4.486379e-11 -1 191.9255 854.5538)" style="fill:#FFF5F5;" width="45.005" height="35.281"/>
					</g>
					<path style="fill:#E84649;" d="M55.419,332.069h9.133v-19.142c0-12.365,10.024-22.389,22.389-22.389h61.566
						c18.192,0,32.939,14.747,32.939,32.939v75.312c0,12.521-10.15,22.671-22.671,22.671H62.291
						c-12.555,0-22.734-10.178-22.734-22.734V347.93C39.558,339.17,46.659,332.069,55.419,332.069z"/>
					<path style="fill:#D73337;" d="M181.446,323.474v75.311c0,12.524-10.15,22.674-22.674,22.674H138.04
						c12.514,0,22.665-10.15,22.665-22.674v-75.311c0-18.19-14.747-32.937-32.937-32.937h20.742
						C166.699,290.537,181.446,305.284,181.446,323.474z"/>
				</g>
				<g>
					<path style="fill:#756F6F;" d="M418.667,504.5h-43.886c-6.456,0-11.69-5.234-11.69-11.689v-43.295h67.265v43.295
						C430.357,499.266,425.123,504.5,418.667,504.5z"/>
					<g>
						<path style="fill:#D73337;" d="M432.695,470.102h-71.572c-3.228,0-5.845-2.617-5.845-5.845v-54.621h83.261v54.621
							C438.54,467.485,435.923,470.102,432.695,470.102z"/>
					</g>
					<g>
						<rect x="393.535" y="409.636" style="fill:#FFF5F5;" width="45.005" height="35.281"/>
					</g>
					<path style="fill:#E84649;" d="M456.581,332.069h-9.133v-19.142c0-12.365-10.024-22.389-22.389-22.389h-61.566
						c-18.192,0-32.939,14.747-32.939,32.939v75.312c0,12.521,10.15,22.671,22.671,22.671h96.485
						c12.555,0,22.734-10.178,22.734-22.734V347.93C472.442,339.17,465.341,332.069,456.581,332.069z"/>
					<path style="fill:#D73337;" d="M472.442,347.93v50.798c0,12.552-10.178,22.73-22.73,22.73h-25.001
						c12.561,0,22.74-10.178,22.74-22.73v-66.662h9.128C465.341,332.067,472.442,339.168,472.442,347.93z"/>
				</g>
			</g>
		</g>
	</g>
	<g>
		<path d="M215.963,183.228c4.142,0,7.5-3.357,7.5-7.5v-0.096c0-4.143-3.358-7.452-7.5-7.452s-7.5,3.405-7.5,7.548
			S211.821,183.228,215.963,183.228z"/>
		<path d="M293.037,183.228c4.142,0,7.5-3.357,7.5-7.5v-0.096c0-4.143-3.358-7.452-7.5-7.452s-7.5,3.405-7.5,7.548
			S288.895,183.228,293.037,183.228z"/>
		<path d="M254.5,230.914c13.257,0,25.076-8.901,28.741-21.646c1.145-3.98-1.154-8.136-5.134-9.281
			c-3.981-1.146-8.136,1.154-9.281,5.135c-1.828,6.354-7.719,10.793-14.326,10.793c-6.607,0-12.499-4.438-14.326-10.793
			c-1.145-3.98-5.301-6.283-9.281-5.135c-3.98,1.146-6.279,5.301-5.135,9.281C229.424,222.013,241.243,230.914,254.5,230.914z"/>
		<path d="M472.442,360.136c4.142,0,7.5-3.357,7.5-7.5v-4.705c0-12.882-10.48-23.361-23.362-23.361h-1.633v-11.642
			c0-16.481-13.408-29.89-29.889-29.89h-26.735c-4.011-19.831-14.692-37.722-29.802-50.797c7.784-11.42,12.034-25.066,12.034-38.957
			v-67.717C380.556,56.329,324.227,0,254.989,0h-0.977c-69.238,0-125.567,56.329-125.567,125.567v67.717
			c0,13.889,4.22,27.471,11.975,38.88c-15.191,13.034-25.729,30.821-29.748,50.874h-23.73c-16.481,0-29.889,13.408-29.889,29.89
			v11.642h-1.633c-12.882,0-23.362,10.479-23.362,23.361v50.796c0,16.671,13.563,30.233,30.234,30.233h3.669v15.958v19.339
			c0,5.529,3.38,10.282,8.183,12.304v16.249c0,10.581,8.608,19.189,19.189,19.189c4.142,0,7.5-3.357,7.5-7.5s-3.358-7.5-7.5-7.5
			c-2.31,0-4.189-1.879-4.189-4.189v-15.209h52.265v15.209c0,2.311-1.879,4.189-4.189,4.189c-4.142,0-7.5,3.357-7.5,7.5
			s3.358,7.5,7.5,7.5c10.581,0,19.189-8.608,19.189-19.189v-16.424c4.602-2.107,7.814-6.745,7.814-12.13v-35.799
			c5.17-0.947,9.886-3.208,13.778-6.434v64.337c0,4.143,3.358,7.5,7.5,7.5s7.5-3.357,7.5-7.5v-68.505
			c4.644,1.675,9.53,2.683,14.545,2.968c0.145,0.008,0.288,0.012,0.431,0.012c3.948,0,7.255-3.085,7.481-7.076
			c0.234-4.135-2.928-7.678-7.063-7.912c-7.059-0.4-13.755-2.827-19.448-6.993c0-0.022,0.002-0.043,0.002-0.065v-75.312
			c0-12.67-5.861-23.992-15.009-31.412v-63.46c0-1.878,1.528-3.405,3.406-3.405h3.063c4.957,10.724,12.153,20.143,20.96,27.706
			v34.965c0,24.676,20.075,44.751,44.75,44.751h16.765c24.675,0,44.75-20.075,44.75-44.751v-34.965
			c8.807-7.563,16.003-16.981,20.96-27.706h3.063c1.878,0,3.406,1.527,3.406,3.405v66.146c-7.409,7.334-12.009,17.501-12.009,28.726
			v72.96c-6.735,6.109-15.448,9.475-24.555,9.475h-55.134c-4.142,0-7.5,3.357-7.5,7.5s3.358,7.5,7.5,7.5h55.134
			c7.133,0,14.093-1.47,20.502-4.248v69.697c0,4.143,3.358,7.5,7.5,7.5s7.5-3.357,7.5-7.5v-64.336
			c3.893,3.226,8.609,5.487,13.778,6.434v35.798c0,5.384,3.211,10.022,7.814,12.13v16.424c0,10.581,8.608,19.189,19.189,19.189
			c4.142,0,7.5-3.357,7.5-7.5s-3.358-7.5-7.5-7.5c-2.31,0-4.189-1.879-4.189-4.189v-15.209h52.265v15.209
			c0,2.311-1.879,4.189-4.189,4.189c-4.142,0-7.5,3.357-7.5,7.5s3.358,7.5,7.5,7.5c10.581,0,19.189-8.608,19.189-19.189v-16.249
			c4.802-2.022,8.183-6.775,8.183-12.304v-35.296h3.669c16.671,0,30.234-13.563,30.234-30.234v-10.695c0-4.143-3.358-7.5-7.5-7.5
			s-7.5,3.357-7.5,7.5v10.695c0,8.4-6.834,15.234-15.234,15.234h-96.485c-8.365,0-15.171-6.806-15.171-15.172v-75.312
			c0-14.027,11.412-25.439,25.439-25.439h61.566c8.21,0,14.889,6.68,14.889,14.89v65.866c0,4.143,3.358,7.5,7.5,7.5
			s7.5-3.357,7.5-7.5v-39.225h1.633c4.611,0,8.362,3.751,8.362,8.361v4.705C464.942,356.778,468.3,360.136,472.442,360.136z
			 M393.535,452.418h37.504v10.184h-68.261v-33.641h23.257v15.957C386.035,449.061,389.393,452.418,393.535,452.418z
			 M431.04,437.418h-30.004v-8.457h30.004V437.418z M110.965,428.96v8.458H80.96v-8.458H110.965z M149.222,462.602H80.96v-10.184
			h37.504c4.142,0,7.5-3.357,7.5-7.5V428.96h23.257V462.602z M173.947,398.789c0,8.365-6.806,15.171-15.171,15.171H62.292
			c-8.4,0-15.234-6.834-15.234-15.233v-50.796c0-4.61,3.751-8.361,8.362-8.361h1.633v39.225c0,4.143,3.358,7.5,7.5,7.5
			s7.5-3.357,7.5-7.5v-65.866c0-8.21,6.679-14.89,14.889-14.89h61.566c14.027,0,25.439,11.412,25.439,25.439V398.789z
			 M148.508,283.038h-22.482c4.619-19.082,16.4-35.467,32.913-45.961v47.332C155.609,283.519,152.114,283.038,148.508,283.038z
			 M292.633,287.871c0,16.404-13.346,29.751-29.75,29.751h-16.765c-16.404,0-29.75-13.347-29.75-29.751v-24.733
			c11.433,6.063,24.426,9.493,38.133,9.493s26.7-3.43,38.133-9.493V287.871z M333.774,210.332c0.747-3.073,1.343-6.21,1.735-9.417
			l7.453-61.021h3.144c4.142,0,7.5-3.357,7.5-7.5s-3.358-7.5-7.5-7.5h-45.491c-25.989,0-47.133-21.145-47.133-47.134
			c0-4.143-3.358-7.5-7.5-7.5s-7.5,3.357-7.5,7.5c0,8.293,1.646,16.205,4.607,23.444h-22.292c-5.842,0-11.585,0.951-17.069,2.827
			c-3.919,1.341-6.009,5.605-4.668,9.524c1.065,3.115,3.978,5.074,7.096,5.074c0.805,0,1.624-0.131,2.428-0.405
			c3.918-1.341,8.027-2.021,12.214-2.021h31.061c11.388,14.413,29.004,23.689,48.757,23.689h27.235l-7.231,59.203
			c-4.076,33.37-32.501,58.535-66.12,58.535s-62.044-25.165-66.12-58.535l-4.967-40.664c-0.854-6.995,0.258-14.051,3.217-20.406
			c1.749-3.755,0.122-8.217-3.633-9.965c-3.754-1.749-8.216-0.122-9.965,3.633c-4.144,8.9-5.703,18.775-4.509,28.557l4.967,40.664
			c0.392,3.207,0.987,6.344,1.735,9.417c-5.473,0.631-10.224,3.663-13.159,8.022c-3.283,1.497-6.447,3.173-9.485,5.011
			c-5.917-8.856-9.137-19.35-9.137-30.081v-67.717C143.445,64.601,193.045,15,254.012,15h0.977
			c60.967,0,110.567,49.601,110.567,110.567v67.717c0,10.89-3.149,21.213-9.142,30.116c-3.043-1.858-6.204-3.547-9.478-5.041
			C344.001,213.997,339.249,210.963,333.774,210.332z M350.062,285.34v-48.231c16.331,10.479,28.262,27.026,32.898,45.929h-19.467
			C358.785,283.038,354.267,283.855,350.062,285.34z"/>
		<path d="M256,466.01c-4.142,0-7.5,3.357-7.5,7.5v11.355c0,4.143,3.358,7.5,7.5,7.5s7.5-3.357,7.5-7.5V473.51
			C263.5,469.367,260.142,466.01,256,466.01z"/>
	</g>
</g>
<g>
</g>
<g>
</g>
<g>
</g>
<g>
</g>
<g>
</g>
<g>
</g>
<g>
</g>
<g>
</g>
<g>
</g>
<g>
</g>
<g>
</g>
<g>
</g>
<g>
</g>
<g>
</g>
<g>
</g>
</svg>
