<?xml version="1.0" encoding="iso-8859-1"?>
<!-- Generator: Adobe Illustrator 23.0.3, SVG Export Plug-In . SVG Version: 6.00 Build 0)  -->
<svg version="1.1" id="Capa_1" xmlns="http://www.w3.org/2000/svg" xmlns:xlink="http://www.w3.org/1999/xlink" x="0px" y="0px"
	 viewBox="0 0 512 512" style="enable-background:new 0 0 512 512;" xml:space="preserve">
<g>
	<g>
		<g>
			<path style="fill:#E84649;" d="M401.113,328.198v153.199c0,4.895-3.973,8.868-8.868,8.868H102.768
				c-4.895,0-8.868-3.973-8.868-8.868V328.198c0-30.143,18.162-56.056,44.137-67.381c8.983-3.92,18.907-6.092,29.336-6.092H327.64
				c4.017,0,7.964,0.319,11.804,0.949c6.137,0.984,12.008,2.731,17.533,5.144C382.951,272.142,401.113,298.055,401.113,328.198z"/>
			<path style="fill:#D73337;" d="M401.117,328.194v153.203c0,4.896-3.976,8.871-8.871,8.871h-20.437
				c4.896,0,8.862-3.975,8.862-8.871V328.194c0-30.143-18.16-56.055-44.129-67.374c-5.532-2.41-11.395-4.165-17.534-5.142
				c-3.843-0.636-7.79-0.949-11.803-0.949h20.437c4.013,0,7.96,0.313,11.803,0.949c6.139,0.977,12.002,2.733,17.534,5.142
				C382.948,272.139,401.117,298.05,401.117,328.194z"/>
		</g>
		<g>
			<circle style="fill:#FFBC8A;" cx="337.708" cy="181.94" r="20.517"/>
			<circle style="fill:#FFBC8A;" cx="157.305" cy="181.94" r="20.517"/>
			<path style="fill:#FDD1A7;" d="M247.507,295.187L247.507,295.187c-41.74,0-76.173-32.678-78.355-74.36l-5.322-101.674h167.354
				l-5.322,101.674C323.679,262.508,289.246,295.187,247.507,295.187z"/>
			<path style="fill:#756F6F;" d="M158.493,49.451v121.586c0,7.821,6.34,14.161,14.161,14.161h0c3.008,0,5.668-1.951,6.572-4.82l0,0
				c3.971-12.603,15.658-21.174,28.872-21.174h78.817c13.214,0,24.901,8.571,28.872,21.174v0c0.904,2.869,3.564,4.82,6.572,4.82h0
				c7.821,0,14.161-6.34,14.161-14.161V49.451c0-23.169-18.782-41.951-41.951-41.951h-94.124
				C177.275,7.5,158.493,26.282,158.493,49.451z"/>
			<path style="fill:#5B5555;" d="M336.523,49.447v121.589c0,3.909-1.585,7.458-4.156,10.019c-2.562,2.562-6.101,4.146-10.01,4.146
				c-1.509,0-2.922-0.484-4.07-1.338c-1.158-0.844-2.049-2.049-2.495-3.482c-0.427-1.357-0.939-2.666-1.546-3.919
				c0.693-1.67,1.072-3.501,1.072-5.427V49.447c0-23.16-18.777-41.947-41.946-41.947h21.196
				C317.737,7.5,336.523,26.286,336.523,49.447z"/>
			<path style="fill:#E8B76B;" d="M259.919,312.259h-24.825c-5.24,0-9.488-4.248-9.488-9.488v-16.165
				c0-5.24,4.248-9.488,9.488-9.488h24.825c5.24,0,9.488,4.248,9.488,9.488v16.165C269.407,308.011,265.159,312.259,259.919,312.259
				z"/>
			<path style="fill:#C99D5C;" d="M269.406,286.609v16.158c0,5.247-4.251,9.488-9.488,9.488h-19.042
				c5.237,0,9.488-4.241,9.488-9.488v-16.158c0-5.247-4.251-9.488-9.488-9.488h19.042
				C265.156,277.121,269.406,281.362,269.406,286.609z"/>
		</g>
		<g>
			<path style="fill:#E8B76B;" d="M272.17,420.482h-30.826c-5.24,0-9.488-4.248-9.488-9.488v-7.774c0-5.24,4.248-9.488,9.488-9.488
				h30.826c5.24,0,9.488,4.248,9.488,9.488v7.774C281.658,416.234,277.41,420.482,272.17,420.482z"/>
			<path style="fill:#C99D5C;" d="M281.662,403.223v7.771c0,5.237-4.251,9.488-9.488,9.488h-17.913c5.247,0,9.488-4.251,9.488-9.488
				v-7.771c0-5.247-4.241-9.488-9.488-9.488h17.913C277.412,393.735,281.662,397.977,281.662,403.223z"/>
		</g>
		<g>
			<path style="fill:#E8B76B;" d="M272.173,368.854h-30.826c-5.24,0-9.488-4.248-9.488-9.488v-7.774c0-5.24,4.248-9.488,9.488-9.488
				h30.826c5.24,0,9.488,4.248,9.488,9.488v7.774C281.661,364.606,277.413,368.854,272.173,368.854z"/>
			<path style="fill:#C99D5C;" d="M281.665,351.595v7.771c0,5.237-4.251,9.488-9.488,9.488h-17.913c5.247,0,9.488-4.251,9.488-9.488
				v-7.771c0-5.247-4.241-9.488-9.488-9.488h17.913C277.414,342.107,281.665,346.348,281.665,351.595z"/>
		</g>
		<g>
			<path style="fill:#E8B76B;" d="M272.17,472.666h-30.826c-5.24,0-9.488-4.248-9.488-9.488v-7.774c0-5.24,4.248-9.488,9.488-9.488
				h30.826c5.24,0,9.488,4.248,9.488,9.488v7.774C281.658,468.418,277.41,472.666,272.17,472.666z"/>
			<path style="fill:#C99D5C;" d="M281.662,455.407v7.771c0,5.237-4.251,9.488-9.488,9.488h-17.913c5.247,0,9.488-4.251,9.488-9.488
				v-7.771c0-5.247-4.241-9.488-9.488-9.488h17.913C277.412,445.919,281.662,450.161,281.662,455.407z"/>
		</g>
		<path style="fill:#756F6F;" d="M139.918,273.931l-28.862,34.26c-3.746,4.447-10.388,5.015-14.835,1.269l-5.448-4.589
			c-4.447-3.746-5.015-10.388-1.269-14.835l28.862-34.26c3.746-4.447,10.388-5.015,14.835-1.269l5.448,4.589
			C143.096,262.842,143.664,269.484,139.918,273.931z"/>
		<path style="fill:#756F6F;" d="M355.095,273.931l28.862,34.26c3.746,4.447,10.388,5.015,14.835,1.269l5.448-4.589
			c4.447-3.746,5.015-10.388,1.269-14.835l-28.862-34.26c-3.746-4.447-10.388-5.015-14.835-1.269l-5.448,4.589
			C351.917,262.842,351.349,269.484,355.095,273.931z"/>
		<g>
			<path style="fill:#E0D3CE;" d="M417.249,59.038v184.077h-26.566V59.038c0-5.237,4.241-9.488,9.488-9.488h7.59
				C412.999,49.55,417.249,53.8,417.249,59.038z"/>
			<rect x="390.681" y="167.834" style="fill:#E8B76B;" width="26.566" height="36.114"/>
			<path style="fill:#E84649;" d="M417.249,59.038v22.211h-26.566V59.038c0-5.237,4.241-9.488,9.488-9.488h7.59
				C412.999,49.55,417.249,53.8,417.249,59.038z"/>
			<path style="fill:#EFE2DD;" d="M415.486,504.5h-23.044c-5.24,0-9.488-4.248-9.488-9.488v-257.6c0-5.24,4.248-9.488,9.488-9.488
				h23.044c5.24,0,9.488,4.248,9.488,9.488v257.6C424.974,500.252,420.726,504.5,415.486,504.5z"/>
			<path style="fill:#CDBFBB;" d="M424.972,237.412v257.6c0,5.237-4.251,9.488-9.488,9.488h-18.16c5.237,0,9.488-4.251,9.488-9.488
				v-257.6c0-5.237-4.251-9.488-9.488-9.488h18.16C420.722,227.924,424.972,232.175,424.972,237.412z"/>
			<rect x="382.954" y="292.443" style="fill:#E8B76B;" width="42.02" height="29.083"/>
			<rect x="406.812" y="292.443" style="fill:#C99D5C;" width="18.16" height="29.081"/>
		</g>
	</g>
	<g>
		<path d="M203.431,208.431c0,4.142,3.358,7.5,7.5,7.5s7.5-3.358,7.5-7.5v-0.09c0-4.142-3.358-7.455-7.5-7.455
			S203.431,204.289,203.431,208.431z"/>
		<path d="M276.582,208.431c0,4.142,3.357,7.5,7.5,7.5s7.5-3.358,7.5-7.5v-0.09c0-4.142-3.357-7.455-7.5-7.455
			S276.582,204.289,276.582,208.431z"/>
		<path d="M260.736,236.223c-1.688,5.869-7.128,9.967-13.23,9.967c-6.102,0-11.542-4.099-13.23-9.967
			c-1.145-3.981-5.301-6.283-9.281-5.135c-3.981,1.145-6.28,5.3-5.135,9.281c3.526,12.26,14.894,20.822,27.646,20.822
			c12.752,0,24.12-8.562,27.646-20.822c1.145-3.98-1.154-8.136-5.135-9.281C266.035,229.944,261.881,232.242,260.736,236.223z"/>
		<path d="M146.505,359.09c-4.142,0-7.5,3.358-7.5,7.5v123.675c0,4.142,3.358,7.5,7.5,7.5s7.5-3.358,7.5-7.5V366.59
			C154.005,362.448,150.647,359.09,146.505,359.09z"/>
		<path d="M348.508,359.09c-4.143,0-7.5,3.358-7.5,7.5v123.675c0,4.142,3.357,7.5,7.5,7.5s7.5-3.358,7.5-7.5V366.59
			C356.008,362.448,352.65,359.09,348.508,359.09z"/>
		<path d="M424.973,401.37c-4.143,0-7.5,3.358-7.5,7.5v95.63c0,4.142,3.357,7.5,7.5,7.5s7.5-3.358,7.5-7.5v-95.63
			C432.473,404.728,429.116,401.37,424.973,401.37z"/>
		<path d="M424.747,223.189V59.038c0-9.367-7.621-16.988-16.988-16.988h-7.59c-9.367,0-16.988,7.621-16.988,16.988V223.19
			c-4.645,3.035-7.727,8.272-7.727,14.223v8.472c-1.677-0.688-3.465-1.13-5.323-1.289c-4.806-0.407-9.469,1.073-13.151,4.175
			l-3.281,2.764c-8.302-2.823-16.978-4.278-25.833-4.303c3.147-8.296,5.017-17.071,5.485-26.013l0.603-11.52
			c1.241,0.168,2.495,0.258,3.754,0.258c15.449,0,28.018-12.568,28.018-28.017c0-13.278-9.287-24.42-21.705-27.291V49.451
			C344.02,22.184,321.836,0,294.568,0h-14.965c-4.143,0-7.5,3.358-7.5,7.5s3.357,7.5,7.5,7.5h14.965
			c18.997,0,34.452,15.455,34.452,34.451v121.586c0,3.525-2.753,6.419-6.222,6.647c-5.107-15.559-19.47-25.979-35.884-25.979
			h-78.817c-16.414,0-30.775,10.42-35.883,25.979c-3.469-0.228-6.222-3.122-6.222-6.647V49.451
			c0-18.997,15.455-34.451,34.451-34.451h45.237c4.142,0,7.5-3.358,7.5-7.5s-3.358-7.5-7.5-7.5h-45.237
			c-27.268,0-49.451,22.184-49.451,49.451v105.197c-12.418,2.871-21.705,14.013-21.705,27.291c0,15.448,12.568,28.017,28.017,28.017
			c1.258,0,2.512-0.093,3.754-0.261l0.603,11.523c0.474,9.055,2.38,17.81,5.511,26.013c-8.864,0.022-17.548,1.478-25.859,4.303
			l-3.28-2.764c-7.603-6.404-18.998-5.431-25.403,2.172l-28.861,34.259c-3.103,3.683-4.585,8.354-4.175,13.152
			c0.41,4.798,2.665,9.149,6.348,12.252l2.026,1.706c-1.037,5.212-1.566,10.536-1.566,15.889V481.4
			c0,9.025,7.343,16.368,16.368,16.368c4.142,0,7.5-3.358,7.5-7.5s-3.358-7.5-7.5-7.5c-0.754,0-1.368-0.614-1.368-1.368V328.201
			c0-2.955,0.199-5.897,0.587-8.807c0.328,0.018,0.655,0.043,0.985,0.043c0.52,0,1.043-0.022,1.567-0.067
			c4.798-0.41,9.149-2.665,12.251-6.348l28.862-34.26c3.103-3.683,4.585-8.353,4.175-13.151c-0.028-0.332-0.087-0.656-0.133-0.984
			c5.727-1.59,11.652-2.401,17.68-2.401h7.271c10.005,15.993,25.165,28.616,43.459,35.28v5.264c0,9.367,7.621,16.988,16.988,16.988
			h4.913v14.914c-8.741,0.687-15.648,8.005-15.648,16.92v7.773c0,8.915,6.907,16.233,15.648,16.92V386.3
			c-8.742,0.686-15.65,8.004-15.65,16.92v7.774c0,8.916,6.908,16.234,15.65,16.92v10.57c-8.742,0.686-15.65,8.004-15.65,16.92v7.774
			c0,8.916,6.908,16.234,15.65,16.92v10.17c0,4.142,3.358,7.5,7.5,7.5s7.5-3.358,7.5-7.5v-10.102h17.163
			c9.367,0,16.988-7.621,16.988-16.988v-7.774c0-9.367-7.621-16.988-16.988-16.988h-17.163v-10.435h17.163
			c9.367,0,16.988-7.621,16.988-16.988v-7.774c0-9.367-7.621-16.988-16.988-16.988h-17.163v-9.878h17.166
			c9.367,0,16.988-7.621,16.988-16.988v-7.773c0-9.367-7.621-16.988-16.988-16.988h-17.166v-14.846h4.912
			c9.367,0,16.988-7.621,16.988-16.988v-5.264c4.924-1.795,9.691-4.038,14.216-6.707c3.567-2.104,4.754-6.702,2.649-10.27
			c-2.104-3.568-6.701-4.753-10.271-2.65c-2.371,1.399-4.823,2.657-7.337,3.769c-2.127-6.956-8.603-12.032-16.246-12.032h-24.825
			c-7.646,0-14.124,5.079-16.248,12.039c-24.184-10.701-40.799-34.375-42.204-61.223l-1.464-27.961
			c5.221-0.918,9.563-4.638,11.201-9.84c3.002-9.527,11.73-15.928,21.719-15.928h78.817c9.989,0,18.717,6.401,21.719,15.929
			c1.64,5.201,5.982,8.921,11.202,9.839l-1.464,27.961c-0.662,12.635-4.688,24.871-11.643,35.385
			c-2.285,3.455-1.337,8.108,2.118,10.393c1.273,0.842,2.71,1.246,4.131,1.246c2.433,0,4.819-1.182,6.263-3.363
			c0.408-0.616,0.8-1.242,1.191-1.868h7.205c6.029,0,11.953,0.811,17.68,2.401c-0.046,0.328-0.104,0.652-0.133,0.984
			c-0.41,4.798,1.072,9.469,4.175,13.151l26.095,30.976V504.5c0,4.142,3.357,7.5,7.5,7.5s7.5-3.358,7.5-7.5V329.026h27.02v45.921
			c0,4.142,3.357,7.5,7.5,7.5s7.5-3.358,7.5-7.5V237.413C432.473,231.462,429.392,226.224,424.747,223.189z M134.182,269.099
			l-28.862,34.26c-0.703,0.835-1.591,1.026-2.058,1.066c-0.405,0.033-1.138,0.009-1.87-0.454c-0.25-0.231-0.521-0.441-0.804-0.638
			l-4.984-4.198c-0.835-0.703-1.026-1.591-1.066-2.058c-0.04-0.467-0.002-1.375,0.702-2.209l28.861-34.259
			c0.598-0.71,1.456-1.076,2.319-1.076c0.689,0,1.382,0.233,1.949,0.711l5.448,4.589c0.834,0.703,1.026,1.591,1.066,2.058
			C134.923,267.356,134.885,268.264,134.182,269.099z M274.158,455.404v7.774c0,1.096-0.892,1.988-1.988,1.988h-30.826
			c-1.096,0-1.988-0.892-1.988-1.988v-7.774c0-1.096,0.892-1.988,1.988-1.988h30.826
			C273.266,453.417,274.158,454.308,274.158,455.404z M274.158,403.22v7.774c0,1.096-0.892,1.988-1.988,1.988h-30.826
			c-1.096,0-1.988-0.892-1.988-1.988v-7.774c0-1.096,0.892-1.988,1.988-1.988h30.826
			C273.266,401.232,274.158,402.124,274.158,403.22z M274.161,351.592v7.773c0,1.096-0.892,1.988-1.988,1.988h-30.826
			c-1.096,0-1.988-0.892-1.988-1.988v-7.773c0-1.096,0.892-1.988,1.988-1.988h30.826
			C273.269,349.604,274.161,350.496,274.161,351.592z M233.106,286.605c0-1.096,0.892-1.988,1.988-1.988h24.825
			c1.097,0,1.988,0.892,1.988,1.988v16.165c0,1.096-0.892,1.988-1.988,1.988h-24.825c-1.096,0-1.988-0.892-1.988-1.988V286.605z
			 M157.304,194.957c-7.177,0-13.017-5.839-13.017-13.017c0-4.888,2.711-9.15,6.705-11.375v0.473c0,7.202,3.536,13.59,8.96,17.531
			l0.316,6.042C159.308,194.834,158.32,194.957,157.304,194.957z M350.725,181.94c0,7.177-5.84,13.017-13.018,13.017
			c-1.003,0-1.995-0.132-2.964-0.357l0.316-6.031c5.424-3.941,8.96-10.329,8.96-17.531v-0.473
			C348.014,172.79,350.725,177.052,350.725,181.94z M409.747,196.447H398.18v-21.114h11.566V196.447z M409.747,160.333H398.18
			V88.749h11.566V160.333z M409.747,211.447v8.977H398.18v-8.977H409.747z M390.454,237.413c0-1.096,0.892-1.988,1.988-1.988h23.044
			c1.096,0,1.987,0.892,1.987,1.988v47.53h-27.02V237.413z M400.169,57.05h7.59c1.097,0,1.988,0.892,1.988,1.988v14.711H398.18
			V59.038C398.18,57.942,399.072,57.05,400.169,57.05z M360.13,266.89c0.04-0.467,0.231-1.354,1.066-2.058l5.447-4.589
			c0.834-0.703,1.743-0.741,2.209-0.701c0.467,0.04,1.354,0.231,2.058,1.066l4.544,5.394v20.455l-14.623-17.358
			C360.128,268.264,360.09,267.356,360.13,266.89z M390.454,314.026v-14.083h27.02v14.083H390.454z"/>
	</g>
</g>
<g>
</g>
<g>
</g>
<g>
</g>
<g>
</g>
<g>
</g>
<g>
</g>
<g>
</g>
<g>
</g>
<g>
</g>
<g>
</g>
<g>
</g>
<g>
</g>
<g>
</g>
<g>
</g>
<g>
</g>
</svg>
