<?xml version="1.0" encoding="iso-8859-1"?>
<!-- Generator: Adobe Illustrator 23.0.3, SVG Export Plug-In . SVG Version: 6.00 Build 0)  -->
<svg version="1.1" id="Capa_1" xmlns="http://www.w3.org/2000/svg" xmlns:xlink="http://www.w3.org/1999/xlink" x="0px" y="0px"
	 viewBox="0 0 512.005 512.005" style="enable-background:new 0 0 512.005 512.005;" xml:space="preserve">
<g>
	<g>
		<g>
			<g>
				<path style="fill:#FFF5F5;" d="M494.447,370.508H343.443c-5.555,0-10.058-4.503-10.058-10.058v-242.04
					c0-5.555,4.503-10.058,10.058-10.058h151.004c5.555,0,10.058,4.503,10.058,10.058v242.04
					C504.504,366.005,500.001,370.508,494.447,370.508z"/>
				<path style="fill:#EFE2DD;" d="M504.503,118.413V360.45c0,5.552-4.506,10.058-10.058,10.058h-21.644
					c5.552,0,10.058-4.506,10.058-10.058V118.413c0-5.562-4.506-10.058-10.058-10.058h21.644
					C499.997,108.355,504.503,112.851,504.503,118.413z"/>
			</g>
			<g>
				<path style="fill:#E84649;" d="M459.208,208.271c-7.678-7.676-20.125-7.675-27.802,0.002l-12.461,12.461l0,0l-12.461-12.462
					c-7.677-7.677-20.124-7.678-27.802-0.002l0,0c-7.68,7.678-7.681,20.128-0.002,27.807l40.266,40.266l40.266-40.266
					C466.89,228.399,466.889,215.949,459.208,208.271L459.208,208.271z"/>
			</g>
		</g>
		<g>
			<g>
				<circle style="fill:#FFF5F5;" cx="76.401" cy="302.259" r="68.886"/>
				<g>
					<g>
						<path style="fill:#E84649;" d="M20.153,342.061l56.249-39.801l-11.637,67.915C46.924,367.097,30.749,357.04,20.153,342.061z"
							/>
						<path style="fill:#E84649;" d="M132.659,262.469l-56.257,39.79l11.637-67.915C105.889,237.423,122.064,247.48,132.659,262.469
							z"/>
						<path style="fill:#E84649;" d="M76.401,302.259L8.486,290.622c3.079-17.85,13.136-34.025,28.124-44.61L76.401,302.259z"/>
						<path style="fill:#E84649;" d="M144.317,313.896c-3.077,17.84-13.135,34.015-28.115,44.622l-39.8-56.259L144.317,313.896z"/>
					</g>
				</g>
				<circle style="fill:#F37D7E;" cx="76.401" cy="302.259" r="39.318"/>
				<path style="fill:#ED6264;" d="M115.152,308.895c-3.661,21.403-23.987,35.785-45.39,32.114
					c-1.569-0.272-3.098-0.624-4.586-1.076c13.859-4.144,24.903-15.821,27.508-31.038c3.399-19.834-8.7-38.732-27.528-44.314
					c5.612-1.69,11.707-2.132,17.883-1.076C104.44,267.175,118.823,287.492,115.152,308.895z"/>
			</g>
			<g>
				<g>
					<g>
						<path style="fill:#756F6F;" d="M422.359,302.574v157.988c0,5.048-4.097,9.145-9.146,9.145H114.687
							c-5.048,0-9.145-4.097-9.145-9.145V302.574c0-31.086,18.73-57.809,45.517-69.487c9.264-4.042,19.498-6.283,30.253-6.283
							h165.277c4.143,0,8.213,0.329,12.173,0.979c6.329,1.015,12.383,2.817,18.081,5.304
							C403.629,244.765,422.359,271.489,422.359,302.574z"/>
						<path style="fill:#5B5555;" d="M422.364,302.57v157.993c0,5.049-4.1,9.149-9.149,9.149h-21.076c5.049,0,9.139-4.1,9.139-9.149
							V302.57c0-31.086-18.728-57.808-45.508-69.481c-5.705-2.485-11.751-4.295-18.082-5.303c-3.963-0.656-8.033-0.978-12.172-0.978
							h21.076c4.139,0,8.209,0.323,12.172,0.978c6.331,1.008,12.378,2.818,18.082,5.303
							C403.626,244.762,422.364,271.484,422.364,302.57z"/>
						<g>
							<g>
								<path style="fill:#D77F4F;" d="M232.478,21.06h22.976c28.471,0,51.551,23.08,51.551,51.551v0
									c0,25.083-21.78,44.61-46.714,41.881l-23.688-2.592c-13.912-1.522-27.228,6.062-33.015,18.804l-11.421,25.147
									c-1.63,3.59-6.462,4.206-8.944,1.143c-4.955-6.114-12.399-16.635-18.913-31.278C142.419,76.502,178.615,21.06,232.478,21.06
									z"/>
							</g>
							<circle style="fill:#FFBC8A;" cx="170.93" cy="150.92" r="21.158"/>
							<path style="fill:#E84649;" d="M214.368,250.534l4.327,42.087c0.774,7.528,9.483,11.315,15.516,6.746l29.741-22.522v-26.311
								H214.368z"/>
							<path style="fill:#E84649;" d="M313.537,250.534l-4.327,42.087c-0.774,7.528-9.483,11.315-15.516,6.746l-29.741-22.522
								v-26.311H313.537z"/>
							<path style="fill:#FDD1A7;" d="M263.95,267.707L263.95,267.707c-43.044,0-78.554-33.7-80.805-76.685l-2.513-47.999
								c-1.618-30.907,23.006-56.853,53.955-56.853h58.724c30.949,0,55.573,25.947,53.955,56.853l-2.513,47.999
								C342.505,234.008,306.995,267.707,263.95,267.707z"/>
							<path style="fill:#C86D3D;" d="M278.208,13.62h-8.136c-31.543,0-57.114,25.571-57.114,57.114v0
								c0,27.789,24.13,49.423,51.755,46.401l26.244-2.871c15.413-1.686,30.166,6.716,36.578,20.834l12.654,27.86
								c1.806,3.977,7.159,4.66,9.909,1.267c0.183-0.225,0.368-0.456,0.557-0.692C398.92,103.095,355.552,13.62,278.208,13.62z"/>
							<path style="fill:#AC5E33;" d="M350.654,163.53c-0.186,0.235-0.372,0.47-0.558,0.695c-2.749,3.395-8.102,2.71-9.912-1.272
								l-3.904-8.601c36.154-57.925-2.681-135.4-71.741-140.468c1.82-0.176,3.669-0.264,5.528-0.264h8.141
								C355.556,13.619,398.922,103.09,350.654,163.53z"/>
						</g>
					</g>
				</g>
			</g>
			<g>
				<circle style="fill:#FFF5F5;" cx="99.179" cy="429.499" r="68.886"/>
				<g>
					<g>
						<path style="fill:#2EA8FC;" d="M50.46,478.228l48.719-48.729v68.905C81.075,498.384,63.434,491.203,50.46,478.228z"/>
						<path style="fill:#2EA8FC;" d="M147.908,380.78l-48.729,48.719v-68.905C117.293,360.614,134.934,367.795,147.908,380.78z"/>
						<path style="fill:#2EA8FC;" d="M99.179,429.499H30.274c0.02-18.114,7.201-35.755,20.186-48.719L99.179,429.499z"/>
						<path style="fill:#2EA8FC;" d="M168.084,429.499c-0.02,18.104-7.201,35.745-20.176,48.729l-48.729-48.729H168.084z"/>
					</g>
				</g>
				<circle style="fill:#8ECBFD;" cx="99.179" cy="429.499" r="39.318"/>
				<path style="fill:#65BAFC;" d="M138.498,429.504c0,21.714-17.601,39.315-39.315,39.315c-3.902,0-7.674-0.563-11.234-1.629
					c16.243-4.828,28.081-19.874,28.081-37.686c0-17.822-11.838-32.868-28.081-37.696c3.56-1.056,7.332-1.629,11.234-1.629
					C120.897,390.179,138.498,407.779,138.498,429.504z"/>
			</g>
			<g>
				<circle style="fill:#FFF5F5;" cx="407.723" cy="421.094" r="68.886"/>
				<g>
					<g>
						<path style="fill:#52CC61;" d="M359.004,469.823l48.719-48.729v68.905C389.62,489.978,371.979,482.797,359.004,469.823z"/>
						<path style="fill:#52CC61;" d="M456.453,372.374l-48.729,48.719v-68.905C425.837,352.209,443.478,359.39,456.453,372.374z"/>
						<path style="fill:#52CC61;" d="M407.723,421.094h-68.905c0.02-18.114,7.201-35.755,20.186-48.719L407.723,421.094z"/>
						<path style="fill:#52CC61;" d="M476.628,421.094c-0.02,18.104-7.201,35.745-20.176,48.729l-48.729-48.729H476.628z"/>
					</g>
				</g>
				<circle style="fill:#BDEB73;" cx="407.723" cy="421.094" r="39.318"/>
				<path style="fill:#9AD63B;" d="M447.039,421.099c0,21.714-17.601,39.315-39.315,39.315c-3.902,0-7.674-0.573-11.234-1.629
					c16.243-4.838,28.081-19.874,28.081-37.686c0-17.822-11.838-32.858-28.081-37.696c3.56-1.056,7.332-1.629,11.234-1.629
					C429.438,381.773,447.039,399.374,447.039,421.099z"/>
			</g>
		</g>
	</g>
	<g>
		<path d="M167.819,395.8v-53.634c0-4.143-3.358-7.5-7.5-7.5s-7.5,3.357-7.5,7.5v33.014c-10.674-10.542-24.43-17.956-39.776-20.783
			v-51.819c0-20.933,9.409-40.421,25.813-53.467c3.242-2.578,3.78-7.296,1.202-10.538c-2.578-3.242-7.295-3.78-10.539-1.202
			c-1.991,1.583-3.893,3.248-5.712,4.981c-9.993-7.919-21.821-13.208-34.505-15.381c-20.109-3.444-40.359,1.146-57.016,12.93
			C15.63,251.684,4.559,269.249,1.113,289.359c-6.168,35.993,13.84,70.521,46.638,83.712c-15.325,13.98-24.958,34.099-24.958,56.428
			c0,42.119,34.267,76.386,76.386,76.386s76.386-34.267,76.386-76.386c0-12.011-2.795-23.378-7.756-33.5
			C167.811,395.932,167.819,395.867,167.819,395.8z M145.388,421.999c-1.184-7.322-4.075-14.076-8.246-19.85l10.395-10.393
			c6.695,8.559,11.167,18.927,12.553,30.243H145.388z M15.094,299.364l14.495,2.484c-0.069,7.42,1.641,14.569,4.78,20.966
			l-12.058,8.532C17.161,321.766,14.537,310.768,15.094,299.364z M45.04,296.886c2.963-17.293,19.442-28.953,36.735-25.987
			c7.445,1.276,14.07,5.085,18.898,10.799c-1.732,6.733-2.631,13.738-2.631,20.88v22.994c-7.333,6.802-17.144,9.74-27.015,8.048
			C53.735,330.657,42.078,314.179,45.04,296.886z M99.179,461.317c-17.545,0-31.818-14.273-31.818-31.818
			s14.273-31.818,31.818-31.818c17.544,0,31.818,14.273,31.818,31.818S116.723,461.317,99.179,461.317z M126.537,391.541
			c-5.776-4.175-12.533-7.067-19.858-8.252v-14.701c11.32,1.386,21.692,5.861,30.253,12.561L126.537,391.541z M74.598,357.194
			l1.393-8.132c0.111,0.001,0.223,0.007,0.334,0.007c7.158,0,14.222-1.66,20.624-4.779l1.093,1.545v7.307
			C89.853,353.263,81.975,354.679,74.598,357.194z M106.338,266.25c-4.357-3.632-9.34-6.428-14.74-8.271l2.484-14.499
			c7.184,2.153,13.893,5.593,19.821,10.173C111.005,257.632,108.473,261.844,106.338,266.25z M91.679,368.588v14.701
			c-7.324,1.185-14.079,4.076-19.854,8.249l-10.394-10.394C69.991,374.447,80.361,369.973,91.679,368.588z M71.829,467.462
			c5.774,4.171,12.528,7.062,19.85,8.246v14.701c-11.316-1.385-21.684-5.857-30.243-12.553L71.829,467.462z M106.679,475.709
			c7.324-1.185,14.079-4.076,19.853-8.249l10.394,10.394c-8.56,6.697-18.93,11.17-30.248,12.556V475.709z M79.297,240.952
			l-2.484,14.496c-7.419-0.068-14.565,1.641-20.961,4.778l-8.509-12.028C57.167,242.892,68.145,240.403,79.297,240.952z
			 M35.098,256.86l8.509,12.027c-5.089,4.987-9.08,11.156-11.484,18.175l-14.496-2.484C20.822,273.88,26.824,264.357,35.098,256.86z
			 M30.973,343.592l12.06-8.533c4.987,5.087,11.155,9.077,18.173,11.481l-2.484,14.495
			C47.739,357.753,38.265,351.613,30.973,343.592z M50.824,391.751l10.394,10.394c-4.173,5.775-7.064,12.53-8.249,19.854H38.268
			C39.653,410.681,44.127,400.311,50.824,391.751z M38.268,436.999h14.701c1.185,7.326,4.078,14.083,8.252,19.858l-10.393,10.395
			C44.129,458.691,39.654,448.319,38.268,436.999z M147.533,467.247l-10.394-10.394c4.173-5.775,7.065-12.53,8.249-19.854h14.702
			C158.704,448.317,154.231,458.687,147.533,467.247z"/>
		<path d="M494.447,100.851H463.47c-4.143,0-7.5,3.357-7.5,7.5s3.357,7.5,7.5,7.5h30.977c1.41,0,2.558,1.147,2.558,2.558V360.45
			c0,1.41-1.147,2.558-2.558,2.558h-37.199c-7.908-6.752-17.197-11.926-27.389-15.018v-45.412c0-8.059-1.173-15.845-3.319-23.221
			l37.975-37.975c5.13-5.131,7.955-11.952,7.955-19.208c-0.001-7.256-2.827-14.076-7.958-19.207
			c-10.593-10.586-27.822-10.582-38.409,0.004l-7.157,7.158l-7.158-7.157c-10.587-10.59-27.817-10.594-38.408-0.004
			c-5.037,5.035-7.771,11.688-7.943,18.516c-6.062-1.409-12.366-2.178-18.85-2.178h-0.413c3.435-8.693,5.558-18.065,6.072-27.892
			l1.047-20.008c0.964-0.691,1.855-1.5,2.626-2.452l0.598-0.742c12.356-15.472,19.555-33.636,21.386-52.36h49.715
			c4.143,0,7.5-3.357,7.5-7.5s-3.357-7.5-7.5-7.5h-49.395c-0.715-12.897-3.962-25.793-9.839-38.008
			C351.547,27.855,316.995,6.12,278.209,6.12h-8.136c-10.846,0-21.07,2.699-30.054,7.441c-0.005,0-0.009-0.001-0.014-0.001h-7.526
			c-18.435,0-35.784,5.901-50.171,17.064c-3.272,2.54-3.867,7.251-1.328,10.523c1.478,1.905,3.692,2.902,5.931,2.902
			c1.606,0,3.225-0.514,4.592-1.574c8.49-6.589,18.261-10.916,28.723-12.812c-9.221,11.172-14.767,25.485-14.767,41.068
			c0,4.864,0.661,9.659,1.922,14.269c-15.493,7.658-26.873,21.51-31.726,37.654c-1.532-0.255-3.088-0.39-4.66-0.393
			c-7.766-17.755-7.585-37.154,0.538-54.678c1.742-3.758,0.107-8.217-3.65-9.959c-3.756-1.738-8.216-0.108-9.959,3.65
			c-9.648,20.813-10.166,43.776-1.536,64.964c-8.44,4.993-14.116,14.184-14.116,24.681c0,15.802,12.856,28.658,28.658,28.658
			c1.381,0,2.745-0.105,4.091-0.297l0.635,12.132c0.514,9.827,2.637,19.199,6.072,27.892h-0.413c-5.342,0-10.692,0.511-15.902,1.519
			c-4.066,0.786-6.726,4.721-5.939,8.787c0.694,3.586,3.834,6.077,7.355,6.077c0.472,0,0.952-0.044,1.432-0.138
			c4.273-0.826,8.665-1.245,13.054-1.245h8.071c4.891,7.665,10.927,14.509,17.863,20.311l3.986,38.771
			c0.644,6.268,4.479,11.51,10.257,14.021c2.244,0.976,4.588,1.456,6.911,1.456c3.66,0,7.265-1.192,10.337-3.519l17.714-13.414
			v177.779c0,4.143,3.357,7.5,7.5,7.5s7.5-3.357,7.5-7.5V291.933l17.713,13.413c3.072,2.327,6.678,3.52,10.337,3.52
			c2.323,0,4.668-0.48,6.911-1.456c5.778-2.513,9.612-7.754,10.257-14.021l3.986-38.776c6.933-5.801,12.968-12.643,17.858-20.306
			h8.071c37.646,0,68.272,30.627,68.272,68.272v42.474c-2.351-0.219-4.728-0.344-7.135-0.344c-11.466,0-22.342,2.556-32.111,7.102
			v-9.644c0-4.143-3.357-7.5-7.5-7.5s-7.5,3.357-7.5,7.5v18.867c-17.805,13.997-29.274,35.708-29.274,60.06
			c0,42.119,34.267,76.386,76.386,76.386s76.386-34.267,76.386-76.386c0-15.974-4.937-30.812-13.353-43.086h23.691
			c9.682,0,17.558-7.876,17.558-17.558V118.409C512.005,108.727,504.129,100.851,494.447,100.851z M278.209,21.12
			c32.97,0,62.343,18.479,76.656,48.228c6.762,14.054,9.607,29.507,8.229,44.689c-1.414,15.584-7.349,30.549-17.182,43.385
			l-11.549-25.427c-7.106-15.646-22.573-25.448-39.453-25.448c-1.578,0-3.172,0.086-4.769,0.261l-26.244,2.872
			c-11.059,1.205-22.137-2.354-30.414-9.775c-8.278-7.421-13.025-18.054-13.025-29.171c0-27.356,22.257-49.613,49.614-49.613
			H278.209z M170.93,164.579c-7.531,0-13.658-6.127-13.658-13.658s6.127-13.659,13.658-13.659c0.746,0,1.481,0.068,2.206,0.186
			c-0.091,1.977-0.098,3.967,0.007,5.968l1.086,20.749C173.159,164.43,172.058,164.579,170.93,164.579z M229.683,293.388
			c-0.894,0.676-1.77,0.455-2.211,0.265c-0.442-0.192-1.201-0.682-1.316-1.799l-2.72-26.461c9.462,4.884,19.912,8.098,30.954,9.287
			L229.683,293.388z M301.749,291.854c-0.114,1.117-0.873,1.606-1.315,1.799c-0.44,0.19-1.316,0.412-2.212-0.266l-24.706-18.708
			c11.042-1.189,21.491-4.403,30.953-9.288L301.749,291.854z M263.95,260.208c-39.069,0-71.272-30.563-73.314-69.577l-2.512-47.999
			c-0.956-18.26,9.082-35.515,25.202-43.826c2.739,4.523,6.135,8.672,10.145,12.267c11.447,10.263,26.776,15.193,42.059,13.517
			l26.243-2.872c12.225-1.339,23.85,5.286,28.934,16.48l12.653,27.858c1.079,2.378,2.795,4.308,4.894,5.671l-0.988,18.904
			C335.222,229.645,303.019,260.208,263.95,260.208z M381.379,226.951c-0.024-0.065-0.042-0.132-0.068-0.197
			c-1.841-4.542-0.792-9.715,2.674-13.179c4.742-4.741,12.456-4.739,17.196,0.002l12.462,12.461c2.928,2.928,7.677,2.928,10.606,0
			l12.461-12.461c4.741-4.74,12.455-4.742,17.196-0.003c2.298,2.297,3.563,5.352,3.563,8.6c0,3.249-1.265,6.303-3.563,8.6
			l-33.446,33.446C411.94,247.877,398.164,234.705,381.379,226.951z M453.933,413.594c-1.184-7.322-4.075-14.076-8.247-19.85
			l10.395-10.393c6.695,8.559,11.167,18.927,12.552,30.243H453.933z M400.223,360.182v14.701
			c-7.324,1.185-14.079,4.076-19.854,8.249l-10.394-10.394C378.535,366.042,388.905,361.568,400.223,360.182z M407.723,452.912
			c-17.544,0-31.817-14.273-31.817-31.818s14.273-31.818,31.817-31.818c17.545,0,31.818,14.273,31.818,31.818
			S425.268,452.912,407.723,452.912z M435.081,383.136c-5.776-4.175-12.532-7.067-19.858-8.252v-14.701
			c11.32,1.386,21.692,5.861,30.253,12.561L435.081,383.136z M380.374,459.057c5.774,4.171,12.528,7.062,19.85,8.246v14.701
			c-11.315-1.385-21.684-5.857-30.243-12.552L380.374,459.057z M415.223,467.304c7.324-1.185,14.079-4.076,19.854-8.249
			l10.394,10.394c-8.56,6.697-18.93,11.17-30.248,12.556V467.304z M359.369,383.345l10.395,10.394
			c-4.173,5.775-7.065,12.53-8.249,19.854h-14.702C348.198,402.276,352.672,391.905,359.369,383.345z M346.812,428.594h14.702
			c1.185,7.326,4.077,14.083,8.252,19.858l-10.393,10.395C352.673,450.286,348.198,439.914,346.812,428.594z M456.078,458.841
			l-10.394-10.394c4.173-5.775,7.064-12.53,8.249-19.854h14.701C467.249,439.911,462.775,450.281,456.078,458.841z"/>
		<path d="M226.232,170.693c-4.142,0-7.5,3.404-7.5,7.547s3.358,7.5,7.5,7.5s7.5-3.357,7.5-7.5v-0.094
			C233.732,174.004,230.374,170.693,226.232,170.693z"/>
		<path d="M301.669,170.693c-4.143,0-7.5,3.404-7.5,7.547s3.357,7.5,7.5,7.5s7.5-3.357,7.5-7.5v-0.094
			C309.169,174.004,305.811,170.693,301.669,170.693z"/>
		<path d="M287.1,201.831c-3.978-1.144-8.135,1.154-9.281,5.135c-1.77,6.151-7.473,10.448-13.869,10.448
			s-12.099-4.296-13.868-10.447c-1.145-3.981-5.298-6.282-9.281-5.136c-3.981,1.145-6.28,5.3-5.135,9.28
			c3.607,12.543,15.238,21.303,28.284,21.303c13.046,0,24.678-8.76,28.285-21.302C293.38,207.132,291.081,202.976,287.1,201.831z"/>
		<path d="M291.946,357.959c-4.143,0-7.5,3.403-7.5,7.546s3.357,7.5,7.5,7.5s7.5-3.357,7.5-7.5v-0.093
			C299.446,361.269,296.089,357.959,291.946,357.959z"/>
		<path d="M291.946,400.032c-4.143,0-7.5,3.404-7.5,7.547s3.357,7.5,7.5,7.5s7.5-3.357,7.5-7.5v-0.094
			C299.446,403.343,296.089,400.032,291.946,400.032z"/>
	</g>
</g>
<g>
</g>
<g>
</g>
<g>
</g>
<g>
</g>
<g>
</g>
<g>
</g>
<g>
</g>
<g>
</g>
<g>
</g>
<g>
</g>
<g>
</g>
<g>
</g>
<g>
</g>
<g>
</g>
<g>
</g>
</svg>
