<?xml version="1.0" encoding="iso-8859-1"?>
<!-- Generator: Adobe Illustrator 23.0.3, SVG Export Plug-In . SVG Version: 6.00 Build 0)  -->
<svg version="1.1" id="Capa_1" xmlns="http://www.w3.org/2000/svg" xmlns:xlink="http://www.w3.org/1999/xlink" x="0px" y="0px"
	 viewBox="0 0 512 512" style="enable-background:new 0 0 512 512;" xml:space="preserve">
<g>
	<g>
		<g>
			<path style="fill:#FFF5F5;" d="M368.286,342.207V479.59c0,4.39-3.563,7.953-7.953,7.953H100.741c-4.39,0-7.953-3.563-7.953-7.953
				V342.207c0-27.031,16.287-50.269,39.581-60.425c8.056-3.515,16.955-5.464,26.308-5.464h143.721c3.603,0,7.142,0.286,10.585,0.851
				c5.503,0.883,10.768,2.449,15.723,4.613C351.999,291.938,368.286,315.176,368.286,342.207z"/>
			<path style="fill:#EFE2DD;" d="M368.29,342.204v137.387c0,4.39-3.565,7.955-7.955,7.955h-18.327c4.39,0,7.947-3.565,7.947-7.955
				V342.204c0-27.032-16.285-50.268-39.573-60.419c-4.961-2.161-10.219-3.735-15.724-4.612c-3.446-0.57-6.985-0.851-10.585-0.851
				H302.4c3.599,0,7.139,0.281,10.585,0.851c5.505,0.876,10.763,2.45,15.724,4.612C351.996,291.935,368.29,315.172,368.29,342.204z"
				/>
			<g>
				<g>
					<g>
						<circle style="fill:#FFBC8A;" cx="311.427" cy="208.128" r="18.399"/>
					</g>
					<g>
						<circle style="fill:#FFBC8A;" cx="149.647" cy="208.128" r="18.399"/>
					</g>
				</g>
				<g>
					<g>
						<path style="fill:#D73337;" d="M288.683,347.457c5.254,12.312,5.141,25.817,0.66,38.653c-1.719,4.924-7.277,7.43-12.028,5.277
							c-12.445-5.64-22.337-14.93-27.614-27.296c-6.419-15.042-4.831-31.874,2.949-47.082
							C269.014,321.915,282.264,332.416,288.683,347.457z"/>
					</g>
					<g>
						<path style="fill:#E84649;" d="M177.098,276.38c-2.198,5.294-3.401,11.005-3.401,16.963c0,27.448,25.449,49.699,56.841,49.699
							s56.841-22.251,56.841-49.699c0-5.958-1.202-11.669-3.401-16.963H177.098z"/>
					</g>
				</g>
				<path style="fill:#FDD1A7;" d="M230.537,309.683L230.537,309.683c-37.431,0-68.309-29.305-70.266-66.684l-3.097-59.171
					c-0.911-17.399,12.952-32.007,30.375-32.007h85.976c17.423,0,31.286,14.607,30.375,32.007L300.803,243
					C298.846,280.379,267.967,309.683,230.537,309.683z"/>
				<path style="fill:#FFF5F5;" d="M346.383,91.96c-1.36-24.195-20.921-43.799-45.112-45.234c-8.19-0.486-15.958,1.098-22.86,4.249
					C276.084,26.581,255.543,7.5,230.539,7.5s-45.545,19.081-47.872,43.475c-6.901-3.152-14.669-4.735-22.858-4.249
					c-24.191,1.434-43.752,21.037-45.114,45.232c-1.383,24.583,15.707,45.433,38.66,49.961v48.127c0,3.628,2.295,6.855,5.724,8.041
					c10.766,3.723,36.165,10.929,71.46,10.929c38.89,0,62.009-6.913,71.747-10.695c3.277-1.273,5.436-4.42,5.436-7.935v-48.466
					C330.675,137.39,347.765,116.541,346.383,91.96z"/>
				<path style="fill:#EFE2DD;" d="M307.721,141.919v48.47c0,3.509-2.16,6.66-5.437,7.928c-3.178,1.241-7.785,2.803-13.91,4.357
					c2.214-1.571,3.58-4.134,3.58-6.928v-53.826c22.945-4.527,40.042-25.382,38.658-49.961
					c-1.268-22.507-18.293-41.042-40.131-44.666c3.482-0.58,7.098-0.786,10.794-0.563c24.186,1.429,43.747,21.034,45.104,45.229
					C347.763,116.537,330.675,137.393,307.721,141.919z"/>
			</g>
			<g>
				<path style="fill:#756F6F;" d="M56.194,504.5h-10.79c-6.517,0-11.801-5.283-11.801-11.801v-81.382h34.391v81.382
					C67.994,499.217,62.711,504.5,56.194,504.5z"/>
				<path style="fill:#5B5555;" d="M67.994,411.321V492.7c0,6.518-5.287,11.797-11.797,11.797H45.4c-1.112,0-2.183-0.152-3.199-0.44
					c4.959-1.392,8.598-5.95,8.598-11.357v-81.379H67.994z"/>
				<path style="fill:#CDBFBB;" d="M86.179,416.875H33.603V249.204c0-29.037,23.539-52.576,52.576-52.576h0
					c3.65,0,6.609,2.959,6.609,6.609v207.029C92.788,413.916,89.829,416.875,86.179,416.875z"/>
				<path style="fill:#EFE2DD;" d="M92.788,203.234v207.031c0,3.647-2.959,6.606-6.606,6.606H61.388
					c3.647,0,6.606-2.959,6.606-6.606V203.234c0-1.12-0.28-2.167-0.768-3.087c5.879-2.271,12.269-3.519,18.955-3.519
					c1.824,0,3.471,0.736,4.671,1.935C92.052,199.763,92.788,201.411,92.788,203.234z"/>
			</g>
		</g>
		<g>
			<path style="fill:#E84649;" d="M79.053,94.35l-7.884,21.525c-3.677,10.038,7.817,23.478,25.673,30.018
				c17.856,6.54,35.311,3.704,38.988-6.334l7.884-21.525L79.053,94.35z"/>
			
				<ellipse transform="matrix(0.3439 -0.939 0.939 0.3439 -26.6388 174.2577)" style="fill:#FFBA82;" cx="111.384" cy="106.192" rx="19.357" ry="34.431"/>
		</g>
		<g>
			<path style="fill:#C86D3D;" d="M426.715,349.589h-35.926v-89.558c0-9.921,8.042-17.963,17.963-17.963h0
				c9.921,0,17.963,8.042,17.963,17.963V349.589z"/>
			<path style="fill:#AC5E33;" d="M426.713,260.032v89.556h-16.311v-89.556c0-4.964-2.009-9.446-5.258-12.704
				c-1.33-1.321-2.857-2.437-4.544-3.303c2.446-1.25,5.223-1.955,8.151-1.955c4.955,0,9.455,2.009,12.704,5.259
				C424.704,250.586,426.713,255.068,426.713,260.032z"/>
			<path style="fill:#DB885D;" d="M469.465,503.907H348.04c-4.931,0-8.928-3.997-8.928-8.928V334.752
				c0-4.931,3.997-8.928,8.928-8.928h121.425c4.931,0,8.928,3.997,8.928,8.928v160.227
				C478.393,499.91,474.396,503.907,469.465,503.907z"/>
			<path style="fill:#C86D3D;" d="M478.397,334.75v160.23c0,4.928-4,8.928-8.928,8.928h-17.963c4.928,0,8.928-4,8.928-8.928V334.75
				c0-4.928-4-8.928-8.928-8.928h17.963C474.397,325.822,478.397,329.822,478.397,334.75z"/>
		</g>
		<g>
			<path style="fill:#E3F6C5;" d="M368.773,186.862L368.773,186.862c-5.761-4.339-6.913-12.526-2.575-18.287l37.479-49.762
				c2.966-3.939,8.564-4.727,12.503-1.76l6.598,4.97c3.939,2.966,4.727,8.564,1.76,12.503l-37.479,49.762
				C382.721,190.048,374.534,191.201,368.773,186.862z"/>
			<g>
				<path style="fill:#A4E540;" d="M389.633,202.573L389.633,202.573c-5.761-4.339-6.913-12.526-2.575-18.287l53.592-71.156
					c2.966-3.939,8.564-4.727,12.503-1.76l6.598,4.97c3.939,2.966,4.727,8.564,1.76,12.503l-53.593,71.156
					C403.581,205.759,395.393,206.912,389.633,202.573z"/>
			</g>
		</g>
	</g>
	<g>
		<path d="M139.965,369.136c-4.143,0-7.5,3.357-7.5,7.5v110.907c0,4.143,3.357,7.5,7.5,7.5s7.5-3.357,7.5-7.5V376.636
			C147.465,372.493,144.107,369.136,139.965,369.136z"/>
		<path d="M197.74,239.384c4.143,0,7.5-3.357,7.5-7.5v-0.081c0-4.143-3.357-7.459-7.5-7.459s-7.5,3.397-7.5,7.54
			S193.598,239.384,197.74,239.384z"/>
		<path d="M263.338,239.384c4.143,0,7.5-3.357,7.5-7.5v-0.081c0-4.143-3.357-7.459-7.5-7.459s-7.5,3.397-7.5,7.54
			S259.195,239.384,263.338,239.384z"/>
		<path d="M205.003,260.739c3.257,11.323,13.758,19.231,25.536,19.231s22.279-7.908,25.536-19.231
			c1.145-3.98-1.154-8.136-5.135-9.281c-3.978-1.144-8.135,1.154-9.281,5.135c-1.419,4.933-5.991,8.378-11.12,8.378
			s-9.701-3.445-11.12-8.378c-1.146-3.98-5.301-6.279-9.281-5.135C206.157,252.604,203.858,256.759,205.003,260.739z"/>
		<path d="M175.845,399.055c-4.143,0-7.5,3.397-7.5,7.54s3.357,7.5,7.5,7.5s7.5-3.357,7.5-7.5v-0.081
			C183.345,402.371,179.987,399.055,175.845,399.055z"/>
		<path d="M175.845,437.002c-4.143,0-7.5,3.398-7.5,7.541s3.357,7.5,7.5,7.5s7.5-3.357,7.5-7.5v-0.081
			C183.345,440.319,179.987,437.002,175.845,437.002z"/>
		<path d="M208.816,399.055c-4.143,0-7.5,3.397-7.5,7.54s3.357,7.5,7.5,7.5s7.5-3.357,7.5-7.5v-0.081
			C216.316,402.371,212.959,399.055,208.816,399.055z"/>
		<path d="M208.816,437.002c-4.143,0-7.5,3.398-7.5,7.541s3.357,7.5,7.5,7.5s7.5-3.357,7.5-7.5v-0.081
			C216.316,440.319,212.959,437.002,208.816,437.002z"/>
		<path d="M469.467,318.324h-35.25V260.03c0-14.04-11.423-25.463-25.463-25.463s-25.463,11.423-25.463,25.463v58.294h-11.493
			c-10.166-29.63-37.676-49.409-69.186-49.499c3.231-7.897,5.213-16.453,5.683-25.434l0.497-9.501
			c0.872,0.088,1.751,0.136,2.636,0.136c14.28,0,25.898-11.618,25.898-25.898c0-12.992-9.616-23.776-22.103-25.619v-21.893
			c0-0.009,0-0.019,0-0.028v-12.867c23.796-7.585,40.08-30.706,38.648-56.183c-0.444-7.915-2.554-15.506-6.269-22.563
			c-1.931-3.665-6.466-5.072-10.131-3.143s-5.072,6.466-3.143,10.131c2.706,5.14,4.242,10.663,4.565,16.416
			c1.133,20.153-12.893,38.286-32.624,42.179c-3.515,0.693-6.048,3.776-6.048,7.358v12.559c-7.002,1.257-18.926,3.101-28.615,3.101
			c-4.143,0-7.5,3.357-7.5,7.5s3.357,7.5,7.5,7.5c9.696,0,20.941-1.566,28.615-2.868v20.675c0,0.419-0.256,0.789-0.652,0.943
			c-9.794,3.805-31.786,10.187-69.031,10.187c-2.825,0-5.579-0.053-8.272-0.144V175.7c0-4.143-3.357-7.5-7.5-7.5s-7.5,3.357-7.5,7.5
			v24.702c-5.055-0.486-9.789-1.101-14.165-1.795v-13.086c0-4.143-3.357-7.5-7.5-7.5s-7.5,3.357-7.5,7.5v10.171
			c-7.527-1.749-13.157-3.513-16.571-4.694c-0.403-0.14-0.675-0.522-0.675-0.953v-20.341c2.777,0.471,6.013,0.976,9.49,1.432
			c0.331,0.043,0.659,0.064,0.984,0.064c3.708,0,6.932-2.75,7.427-6.526c0.538-4.107-2.355-7.873-6.462-8.411
			c-4.36-0.571-8.369-1.236-11.439-1.788v-12.557c0-3.583-2.534-6.665-6.049-7.358c-2.829-0.558-5.577-1.428-8.216-2.572
			l4.166-11.374c0.01-0.028,0.016-0.056,0.026-0.084c2.665-7.384,0.436-16.013-6.132-23.69
			c-4.999-5.845-12.223-10.914-20.594-14.498c5.067-15.789,19.398-27.132,36.194-28.128c6.727-0.402,13.218,0.807,19.3,3.584
			c2.207,1.008,4.766,0.886,6.865-0.327c2.102-1.213,3.485-3.368,3.716-5.783C192.13,30.771,209.501,15,230.541,15
			s38.411,15.771,40.406,36.687c0.23,2.415,1.614,4.57,3.716,5.783c2.1,1.213,4.657,1.334,6.865,0.327
			c6.084-2.777,12.581-3.983,19.301-3.584c4.208,0.249,8.346,1.165,12.298,2.723c3.853,1.519,8.209-0.375,9.728-4.229
			c1.518-3.854-0.376-8.209-4.229-9.728c-5.428-2.138-11.116-3.396-16.907-3.739c-5.902-0.354-11.827,0.246-17.512,1.739
			C277.789,17.066,256.149,0,230.541,0c-25.602,0-47.236,17.058-53.66,40.96c-5.662-1.498-11.52-2.075-17.515-1.722
			c-23.082,1.369-42.762,16.991-49.647,38.712c-18.002-3.399-33.308,1.812-37.707,13.821l-7.885,21.524
			c-5.266,14.377,7.69,31.419,30.137,39.641c7.476,2.737,14.779,4.049,21.392,4.049c11.378,0,20.694-3.893,25.322-11.071
			c1.598,0.679,3.225,1.284,4.879,1.809v34.785c-12.49,1.841-22.107,12.626-22.107,25.619c0,14.28,11.618,25.898,25.899,25.898
			c0.881,0,1.76-0.055,2.636-0.145l0.498,9.51c0.47,8.981,2.451,17.538,5.683,25.435c-23.708,0.069-44.798,11.439-58.176,28.993
			v-31.871c0-4.143-3.357-7.5-7.5-7.5s-7.5,3.357-7.5,7.5v143.427h-9.794V205.421c3.151-0.769,6.425-1.218,9.794-1.284v28.137
			c0,4.143,3.357,7.5,7.5,7.5s7.5-3.357,7.5-7.5v-29.036c0-7.78-6.329-14.109-14.109-14.109c-7.415,0-14.516,1.359-21.078,3.827
			c-0.382,0.113-0.757,0.267-1.126,0.445c-22.163,8.851-37.871,30.521-37.871,55.805v243.495c0,10.643,8.658,19.301,19.301,19.301
			h10.79c10.642,0,19.3-8.658,19.3-19.301v-68.324h9.795v55.219c0,8.521,6.933,15.452,15.453,15.452c4.143,0,7.5-3.357,7.5-7.5
			s-3.357-7.5-7.5-7.5c-0.25,0-0.453-0.203-0.453-0.452V342.21c0-32.195,26.193-58.389,58.39-58.389h7.972
			c0.12,0.172,0.236,0.348,0.357,0.519c-0.528,2.968-0.811,5.986-0.811,9.003c0,31.54,28.863,57.199,64.342,57.199
			c2.699,0,5.354-0.166,7.966-0.454c0.564,5.86,1.99,11.539,4.298,16.947c2.777,6.506,6.686,12.339,11.578,17.394l-37.122,99.86
			c-1.443,3.883,0.534,8.2,4.417,9.644c0.861,0.32,1.744,0.472,2.612,0.472c3.044,0,5.908-1.868,7.031-4.889l35.411-95.257
			c2.372,1.445,4.867,2.771,7.49,3.959c2.113,0.958,4.394,1.438,6.68,1.438c2.184,0,4.372-0.438,6.421-1.315
			c4.258-1.824,7.575-5.38,9.104-9.758c5.288-15.146,4.996-30.386-0.843-44.069c-2.926-6.856-7.122-12.968-12.468-18.259
			c7.401-9.315,11.767-20.665,11.767-32.912c0-3.021-0.283-6.043-0.811-9.008c0.12-0.169,0.235-0.343,0.354-0.514h7.973
			c23.372,0,44.005,13.611,53.307,34.503h-7.662c-9.059,0-16.429,7.369-16.429,16.428v47.595c0,4.143,3.357,7.5,7.5,7.5
			s7.5-3.357,7.5-7.5v-47.595c0-0.787,0.641-1.428,1.429-1.428h18.936v43.807c0,4.143,3.357,7.5,7.5,7.5s7.5-3.357,7.5-7.5v-43.807
			h87.489c0.787,0,1.428,0.641,1.428,1.428v160.228c0,0.787-0.641,1.428-1.428,1.428h-60.705v-91.6c0-4.143-3.357-7.5-7.5-7.5
			s-7.5,3.357-7.5,7.5v91.6h-45.72c-0.788,0-1.429-0.641-1.429-1.428v-78.958c0-4.143-3.357-7.5-7.5-7.5s-7.5,3.357-7.5,7.5v78.958
			c0,9.059,7.37,16.428,16.429,16.428h121.425c9.059,0,16.428-7.369,16.428-16.428V334.752
			C485.895,325.693,478.525,318.324,469.467,318.324z M60.496,212.182v191.635H41.105V249.204
			C41.105,233.887,48.786,220.331,60.496,212.182z M60.496,492.699c0,2.371-1.929,4.301-4.3,4.301h-10.79
			c-2.371,0-4.301-1.93-4.301-4.301v-68.324h19.391V492.699z M322.327,208.128c0,6.01-4.889,10.898-10.898,10.898
			c-0.626,0-1.243-0.06-1.85-0.163l0.895-17.089c1.28-1.259,2.341-2.718,3.127-4.327
			C318.573,198.457,322.327,202.862,322.327,208.128z M295.093,208.627l-1.779,33.981c-1.749,33.407-29.323,59.576-62.775,59.576
			c-33.453,0-61.027-26.169-62.775-59.575l-1.808-34.526c14.063,3.963,36.211,8.432,64.585,8.432
			C260.842,216.515,281.987,212.424,295.093,208.627z M99.312,91.966c4.61,0,10.142,0.892,16.152,3.093
			c7.338,2.688,13.823,6.891,17.79,11.529c2.921,3.416,4.199,6.727,3.421,8.862c-0.001,0.002-0.002,0.003-0.002,0.005l-0.005,0.013
			c-1.681,4.531-13.938,7.506-29.361,1.859c-7.339-2.688-13.823-6.891-17.791-11.53c-2.923-3.417-4.201-6.731-3.42-8.866
			C87.112,94.158,92.08,91.966,99.312,91.966z M99.423,138.852c-15.437-5.654-22.872-15.857-21.21-20.397l0.727-1.985
			c5.659,6.23,13.845,11.512,23.21,14.941c7.476,2.738,14.779,4.05,21.392,4.05c2.059,0,4.041-0.142,5.95-0.393l-0.701,1.913
			C127.127,141.519,114.861,144.505,99.423,138.852z M149.649,219.026c-6.01,0-10.899-4.889-10.899-10.898
			c0-5.331,3.85-9.772,8.914-10.709c0.762,1.467,1.748,2.807,2.92,3.974l0.914,17.461
			C150.893,218.956,150.279,219.026,149.649,219.026z M181.832,300.062c13.363,10.724,30.313,17.122,48.707,17.122
			c18.396,0,35.347-6.399,48.711-17.125c-3.773,20.087-24.175,35.484-48.709,35.484
			C206.008,335.542,185.607,320.147,181.832,300.062z M282.264,383.64c-0.196,0.563-0.615,0.813-0.847,0.912
			c-0.347,0.148-0.685,0.149-1.004,0.005c-11.211-5.08-19.444-13.175-23.812-23.408c-1.934-4.531-3.03-9.335-3.302-14.314
			c1.247-0.421,2.472-0.879,3.681-1.365l3.298,5.031c1.439,2.197,3.836,3.39,6.279,3.39c1.41,0,2.837-0.397,4.104-1.229
			c3.465-2.271,4.432-6.92,2.161-10.384l-2.597-3.962c0.734-0.513,1.455-1.039,2.162-1.579c4.048,3.967,7.212,8.542,9.397,13.664
			C286.134,360.588,286.299,372.082,282.264,383.64z M398.291,260.03c0-5.77,4.693-10.463,10.463-10.463s10.463,4.693,10.463,10.463
			v58.294h-20.926V260.03z"/>
		<path d="M439.116,448.451v-21.408c0-4.143-3.357-7.5-7.5-7.5s-7.5,3.357-7.5,7.5v21.408c0,4.143,3.357,7.5,7.5,7.5
			S439.116,452.594,439.116,448.451z"/>
		<path d="M364.264,192.854c3.697,2.784,8.036,4.129,12.343,4.129c0.303,0,0.605-0.012,0.907-0.026
			c1.075,4.48,3.651,8.626,7.609,11.608c3.696,2.784,8.036,4.128,12.343,4.128c6.24,0,12.411-2.824,16.447-8.182l53.591-71.156
			c2.641-3.505,3.758-7.828,3.146-12.174c-0.612-4.346-2.88-8.192-6.385-10.832l-6.598-4.969
			c-7.235-5.451-17.556-3.997-23.007,3.238l-6.273,8.33c-0.352-0.316-0.711-0.626-1.096-0.916l-6.598-4.969
			c-3.505-2.641-7.827-3.757-12.174-3.146c-4.346,0.612-8.192,2.88-10.832,6.385l-37.479,49.762
			C353.39,173.118,355.208,186.033,364.264,192.854z M446.643,117.643c0.28-0.372,0.709-0.568,1.143-0.568
			c0.3,0,0.602,0.094,0.858,0.287l6.599,4.97c0.39,0.294,0.517,0.674,0.555,0.94c0.037,0.268,0.021,0.667-0.274,1.059
			l-53.591,71.156c-1.846,2.449-5.335,2.939-7.785,1.096c-2.441-1.839-2.935-5.319-1.107-7.766c0.004-0.006,0.009-0.011,0.013-0.016
			L446.643,117.643z M372.191,173.087l37.479-49.762c0.294-0.39,0.674-0.517,0.94-0.555c0.063-0.009,0.132-0.015,0.207-0.015
			c0.246,0,0.552,0.063,0.852,0.289l6.599,4.97c0.625,0.47,0.75,1.358,0.288,1.986l-37.488,49.774
			c-0.004,0.005-0.007,0.01-0.01,0.015c-1.847,2.435-5.326,2.922-7.771,1.082C370.839,179.027,370.348,175.535,372.191,173.087z"/>
	</g>
</g>
<g>
</g>
<g>
</g>
<g>
</g>
<g>
</g>
<g>
</g>
<g>
</g>
<g>
</g>
<g>
</g>
<g>
</g>
<g>
</g>
<g>
</g>
<g>
</g>
<g>
</g>
<g>
</g>
<g>
</g>
</svg>
