<?xml version="1.0" encoding="iso-8859-1"?>
<!-- Generator: Adobe Illustrator 23.0.3, SVG Export Plug-In . SVG Version: 6.00 Build 0)  -->
<svg version="1.1" id="Capa_1" xmlns="http://www.w3.org/2000/svg" xmlns:xlink="http://www.w3.org/1999/xlink" x="0px" y="0px"
	 viewBox="0 0 512.051 512.051" style="enable-background:new 0 0 512.051 512.051;" xml:space="preserve">
<g>
	<g>
		<g>
			<g>
				<path style="fill:#9E9797;" d="M320.728,304.122l0.015,172.651c0,5.517-4.477,9.995-9.993,9.995l-290.254,0.024
					c-5.517,0-9.995-4.477-9.995-9.993l-0.015-172.651c-0.003-33.971,20.463-63.176,49.735-75.941
					c10.124-4.418,21.307-6.868,33.06-6.869l144.637-0.012c4.527,0,8.975,0.359,13.302,1.068c6.916,1.109,13.533,3.077,19.759,5.795
					C300.255,240.95,320.726,270.151,320.728,304.122z"/>
				<rect x="60.243" y="443.532" style="fill:#FFF5F5;" width="210.759" height="43.261"/>
				<rect x="247.296" y="443.532" style="fill:#E0D3CE;" width="23.706" height="43.261"/>
				<path style="fill:#756F6F;" d="M320.729,304.124l0.015,172.651c0,5.517-4.477,9.995-9.993,9.995l-23.037,0.002
					c5.517,0,9.994-4.478,9.993-9.995l-0.015-172.651c-0.003-33.971-20.474-63.172-49.748-75.932
					c-6.227-2.718-12.843-4.686-19.759-5.795c-4.328-0.709-8.775-1.069-13.302-1.068l23.037-0.002c4.527,0,8.975,0.359,13.303,1.068
					c6.916,1.109,13.533,3.077,19.759,5.795C300.255,240.952,320.726,270.153,320.729,304.124z"/>
				<g>
					<circle style="fill:#FFBC8A;" cx="267.251" cy="141.539" r="23.122"/>
					<circle style="fill:#FFBC8A;" cx="63.94" cy="141.556" r="23.122"/>
					<g>
						<g>
							<path style="fill:#E84649;" d="M112.862,282.116l7.866,17.527c3,6.684,11.985,7.875,16.622,2.202l40.7-49.785l-45.738,0.004
								C116.85,252.066,106.531,268.009,112.862,282.116z"/>
						</g>
						<g>
							<path style="fill:#E84649;" d="M218.354,282.107l-7.863,17.528c-2.999,6.685-11.984,7.877-16.622,2.205l-40.708-49.778
								l45.738-0.004C214.361,252.058,224.682,267.999,218.354,282.107z"/>
						</g>
					</g>
					<path style="fill:#FDD1A7;" d="M165.607,269.174L165.607,269.174c-47.039,0.004-85.848-36.82-88.311-83.795l-3.374-64.347
						c-1.432-27.31,20.325-50.238,47.672-50.241l87.993-0.007c27.347-0.002,49.107,22.923,47.68,50.233l-3.363,64.347
						C251.449,232.34,212.646,269.17,165.607,269.174z"/>
					<path style="fill:#AA613C;" d="M142.689,63.588c16.704,24.491,16.551,55.496,2.148,79.304c-1.43,2.363-3.835,4.004-6.557,4.472
						c-27.422,4.719-56.344-6.458-73.047-30.949c-0.439-0.644-0.867-1.292-1.282-1.945c-32.065-50.318,42.256-101.007,77.397-52.786
						C141.803,62.31,142.25,62.945,142.689,63.588z"/>
					<path style="fill:#C47A4A;" d="M217.654,18.51c38.134,19.042,59.408,58.392,57.28,98.401c-0.144,2.707-1.411,5.243-3.488,6.985
						c-30.703,25.74-74.941,32.377-113.075,13.335c-29.915-14.938-49.454-42.373-55.46-72.819
						c-3.738-18.948,5.818-38.085,23.21-46.482C154.068,4.437,187.739,3.572,217.654,18.51z"/>
					<path style="fill:#AA613C;" d="M274.936,116.907c-0.148,2.707-1.413,5.247-3.488,6.986c-4.397,3.686-9.071,6.976-13.962,9.851
						c0.781-1.196,1.294-2.569,1.492-4.012c5.444-39.691-12.489-80.667-48.91-102.81c-23.18-14.09-49.671-18.023-74.314-13.062
						c25.838-9.416,55.352-8.606,81.902,4.654C255.787,37.554,277.061,76.9,274.936,116.907z"/>
				</g>
				<g>
					<rect x="10.494" y="381.077" style="fill:#E84649;" width="49.742" height="41.57"/>
				</g>
			</g>
			<g>
				<path style="fill:#E84649;" d="M381.698,46.862L381.698,46.862c-8.616,0.001-15.6,6.986-15.6,15.602l0.024,341.577l31.202-0.003
					L397.3,62.462C397.299,53.846,390.314,46.861,381.698,46.862z"/>
				<g>
					<path style="fill:#FAC574;" d="M423.76,360.228l-84.084,0.007c-22.374,0.002-40.511,18.141-40.509,40.516l0.008,93.555
						c0,5.659,4.588,10.246,10.247,10.246l144.615-0.012c5.659,0,10.246-4.588,10.246-10.247l-0.008-93.555
						C464.274,378.362,446.134,360.226,423.76,360.228z"/>
					<path style="fill:#D8AA64;" d="M464.288,494.295l-0.008-93.561c-0.002-22.373-18.148-40.506-40.521-40.504l-18.065,0.002
						c22.373-0.002,40.509,18.131,40.511,40.504l0.008,93.561c0,5.657-4.582,10.241-10.239,10.241l18.066-0.002
						C459.696,504.535,464.289,499.952,464.288,494.295z"/>
					<path style="fill:#FDE5C2;" d="M464.288,494.295l-0.002-25.783c0,5.657-4.592,10.25-10.249,10.251l-144.614,0.012
						c-5.657,0-10.25-4.592-10.251-10.249l0.002,25.783c0,5.657,4.594,10.25,10.251,10.249l144.614-0.012
						C459.696,504.545,464.289,499.952,464.288,494.295z"/>
					<path style="fill:#FBCC85;" d="M464.288,494.295l-0.002-25.783c0,5.657-4.592,10.25-10.249,10.251l-7.826,0.001l0.001,15.533
						c0,5.657-4.582,10.241-10.239,10.241l0.01,0.01l18.056-0.002C459.696,504.545,464.289,499.952,464.288,494.295z"/>
				</g>
			</g>
		</g>
		<g>
			<circle style="fill:#B6DCFF;" cx="470.202" cy="286.638" r="31.362"/>
			<path style="fill:#8ECBFD;" d="M501.559,286.633c0,17.327-14.038,31.364-31.354,31.364c-3.269,0-6.435-0.502-9.396-1.424
				c12.726-3.996,21.958-15.892,21.958-29.94c0-14.048-9.232-25.934-21.958-29.919c2.961-0.932,6.127-1.435,9.396-1.435
				C487.521,255.279,501.559,269.317,501.559,286.633z"/>
		</g>
		<g>
			<circle style="fill:#B6DCFF;" cx="452.183" cy="176.122" r="21.986"/>
			<path style="fill:#8ECBFD;" d="M474.163,176.464c-0.188,12.141-10.177,21.833-22.317,21.645c-3.36-0.052-6.535-0.86-9.362-2.256
				c7.493-3.409,12.753-10.9,12.89-19.68c0.136-8.78-4.889-16.431-12.272-20.071c2.869-1.308,6.067-2.017,9.427-1.965
				C464.669,154.325,474.351,164.324,474.163,176.464z"/>
		</g>
		<g>
			<circle style="fill:#B6DCFF;" cx="308.087" cy="57.922" r="21.986"/>
			<path style="fill:#8ECBFD;" d="M330.066,58.263c-0.189,12.141-10.177,21.833-22.317,21.645c-3.36-0.052-6.535-0.86-9.362-2.256
				c7.493-3.409,12.753-10.9,12.89-19.68s-4.889-16.431-12.272-20.071c2.869-1.308,6.067-2.017,9.427-1.965
				C320.572,36.125,330.255,46.123,330.066,58.263z"/>
		</g>
	</g>
	<g>
		<path d="M278.491,354.529c0-4.142-3.358-7.5-7.501-7.5c-4.142,0-7.499,3.358-7.499,7.5l0.007,81.502H134.49
			c-4.143,0-7.5,3.358-7.5,7.5s3.357,7.5,7.5,7.5h129.009l0.003,32.784c0,4.142,3.358,7.5,7.501,7.5c4.142,0,7.499-3.358,7.499-7.5
			L278.491,354.529z"/>
		<path d="M124.379,163.804c-4.143,0-7.5,3.358-7.5,7.5v0.102c0,4.142,3.357,7.5,7.5,7.5s7.5-3.358,7.5-7.5v-0.102
			C131.879,167.162,128.522,163.804,124.379,163.804z"/>
		<path d="M206.817,163.798c-4.143,0-7.5,3.358-7.5,7.5v0.102c0,4.142,3.357,7.5,7.5,7.5s7.5-3.358,7.5-7.5v-0.102
			C214.317,167.155,210.96,163.798,206.817,163.798z"/>
		<path d="M190.706,197.85c-3.979-1.145-8.136,1.154-9.28,5.136c-2.018,7.02-8.525,11.923-15.823,11.923
			c-7.3,0-13.808-4.902-15.826-11.921c-1.146-3.981-5.303-6.28-9.281-5.134c-3.98,1.145-6.279,5.3-5.135,9.281
			c3.857,13.41,16.294,22.775,30.243,22.774c13.948-0.001,26.383-9.368,30.238-22.779
			C196.986,203.15,194.687,198.995,190.706,197.85z"/>
		<path d="M238.832,378.885c4.142,0,7.499-3.358,7.499-7.5c0-4.143-3.358-7.5-7.501-7.5l-36.406,0.003
			c-4.142,0-7.499,3.358-7.499,7.5c0,4.143,3.358,7.5,7.501,7.5L238.832,378.885z"/>
		<path d="M471.775,400.736c-0.002-26.474-21.542-48.011-48.017-48.008l-18.935,0.002L404.8,62.461
			c-0.001-12.737-10.365-23.099-23.103-23.099c-12.737,0.001-23.1,10.365-23.1,23.103l0.007,88.345c0,4.142,3.358,7.5,7.501,7.5
			c4.142,0,7.499-3.358,7.499-7.5l-0.007-88.345c0-4.467,3.635-8.102,8.101-8.103c4.467,0,8.101,3.634,8.102,8.1l0.024,290.268
			l-16.201,0.001l-0.015-166.596c0-4.142-3.358-7.5-7.501-7.5c-4.142,0-7.499,3.358-7.499,7.5l0.015,166.596l-18.947,0.002
			c-3.908,0-7.743,0.47-11.445,1.372l-0.004-49.982c-0.002-22.51-8.336-44.074-23.466-60.718
			c-13.217-14.539-30.644-24.283-49.713-27.948c3.595-9.272,5.8-19.255,6.346-29.703l0.733-14.023
			c1.678,0.282,3.387,0.428,5.123,0.428c0.001,0,0.003,0,0.005,0c8.18,0,15.869-3.187,21.652-8.971s8.968-13.475,8.967-21.654
			c-0.001-11.077-5.934-21.121-15.37-26.536c1.412-43.413-22.524-83.739-61.499-103.201c-31.063-15.512-66.837-15.74-98.144-0.624
			c-10.675,5.154-18.828,13.735-23.573,23.926C80.135,37.266,62.423,49.625,53.879,66.92c-7.229,14.635-7.042,30.603,0.374,45.594
			c-12.151,4.064-20.935,15.544-20.934,29.045c0.001,16.885,13.739,30.621,30.625,30.62c1.719,0,3.435-0.152,5.127-0.44
			l0.736,14.033c0.548,10.448,2.753,20.43,6.349,29.701c-19.07,3.667-36.498,13.414-49.713,27.957
			c-15.128,16.647-23.458,38.212-23.456,60.722l0.015,172.65c0,4.673,1.82,9.066,5.125,12.371c3.305,3.304,7.698,5.123,12.371,5.123
			c4.142,0,7.499-3.358,7.499-7.5s-3.358-7.5-7.501-7.5c-0.898,0-1.491-0.458-1.764-0.73s-0.73-0.865-0.73-1.764l-0.004-46.654
			l34.74-0.003l0.005,56.644c0,4.142,3.358,7.5,7.501,7.5c4.142,0,7.499-3.358,7.499-7.5l-0.003-35.757h29.862
			c4.143,0,7.5-3.358,7.5-7.5s-3.357-7.5-7.5-7.5H67.738l-0.007-81.485c0-4.142-3.358-7.5-7.501-7.5c-4.142,0-7.499,3.358-7.499,7.5
			l0.001,19.029l-34.74,0.003l-0.006-69.427c-0.004-37.922,27.766-69.534,65.007-74.598c6.485,10.962,15.083,20.502,25.221,28.077
			c-5.247,8.075-6.275,18.469-2.197,27.556l7.866,17.528c2.481,5.527,7.549,9.303,13.555,10.099
			c0.778,0.103,1.554,0.154,2.323,0.154c5.171,0,10.056-2.291,13.394-6.374l22.451-27.462l22.455,27.458
			c3.339,4.082,8.222,6.371,13.392,6.371c0.771,0,1.548-0.051,2.326-0.154c6.006-0.797,11.072-4.573,13.553-10.101l7.863-17.528
			c4.081-9.095,3.108-19.469-2.182-27.57c10.128-7.574,18.718-17.11,25.197-28.065c37.239,5.058,65.011,36.665,65.015,74.585
			l0.004,56.538c-2.671,1.77-5.186,3.818-7.503,6.136c-9.067,9.069-14.061,21.126-14.06,33.951l0.008,93.555
			c0,4.741,1.846,9.197,5.198,12.549s7.809,5.197,12.55,5.197l144.615-0.012c4.74,0,9.196-1.847,12.548-5.199
			c3.352-3.353,5.197-7.809,5.196-12.549L471.775,400.736z M52.734,388.576l0.002,26.57l-34.74,0.003l-0.002-26.57L52.734,388.576z
			 M278.299,152.585c-2.95,2.951-6.873,4.576-11.047,4.576c-0.001,0-0.002,0-0.002,0c-1.49,0-2.933-0.228-4.329-0.631l0.934-17.869
			c4.297-2.695,8.448-5.697,12.41-9.019c0.18-0.151,0.341-0.321,0.515-0.479c3.785,2.912,6.093,7.442,6.094,12.374
			C282.873,145.711,281.249,149.634,278.299,152.585z M67.327,73.564c5.313-10.754,15.862-19.126,27.528-22.35
			c-0.481,4.8-0.273,9.729,0.697,14.649c1.266,6.414,3.122,12.788,5.521,18.944c1.502,3.86,5.848,5.769,9.71,4.267
			c3.86-1.503,5.771-5.851,4.267-9.71c-2.077-5.335-3.686-10.854-4.78-16.403c-3.08-15.616,4.779-31.356,19.112-38.277
			c27.092-13.08,58.046-12.884,84.921,0.536c34.32,17.137,55.18,52.972,53.142,91.294c-0.034,0.632-0.331,1.228-0.816,1.634
			c-29.408,24.654-70.588,29.51-104.906,12.373c-11.13-5.558-20.918-13.062-29.093-22.305c-2.744-3.103-7.484-3.393-10.587-0.649
			c-3.103,2.744-3.394,7.484-0.649,10.587c5.715,6.461,12.12,12.173,19.123,17.11c-0.661,1.274-1.358,2.528-2.096,3.747
			c-0.305,0.503-0.832,0.863-1.412,0.963c-25.357,4.362-51.094-6.543-65.58-27.785c-0.396-0.579-0.778-1.162-1.152-1.749
			C62.587,98.376,61.54,85.279,67.327,73.564z M63.942,157.178c-8.613,0-15.622-7.007-15.623-15.621
			c-0.001-8.305,6.517-15.098,14.704-15.577c1.246,1.536,2.538,3.025,3.883,4.455l1.369,26.111
			C66.878,156.95,65.434,157.178,63.942,157.178z M131.543,297.098c-0.723,0.884-1.646,0.908-2.133,0.844
			c-0.486-0.064-1.372-0.328-1.84-1.371l-7.866-17.527c-2.255-5.024-1.219-9.887,1.176-13.412
			c8.785,4.635,18.368,7.946,28.481,9.671L131.543,297.098z M211.511,279.037l-7.863,17.528c-0.468,1.043-1.354,1.307-1.84,1.371
			c-0.49,0.065-1.411,0.041-2.134-0.844L181.852,275.3c10.118-1.727,19.706-5.043,28.494-9.683
			C213.036,269.541,213.532,274.53,211.511,279.037z M165.606,261.674c-0.002,0-0.004,0-0.007,0
			c-43.062,0-78.559-33.684-80.813-76.688l-2.182-41.623c12.856,8.118,27.876,12.559,43.301,12.559
			c4.529,0,9.094-0.383,13.647-1.166c4.876-0.839,9.142-3.748,11.703-7.981c0.734-1.213,1.428-2.458,2.101-3.716
			c0.558,0.29,1.102,0.6,1.666,0.882c15.768,7.874,32.785,11.73,49.706,11.73c14.953,0,29.821-3.035,43.686-8.951l-1.999,38.253
			C244.166,227.979,208.671,261.671,165.606,261.674z M316.335,377.405c2.33-2.331,4.948-4.269,7.773-5.784
			c0.086-0.043,0.173-0.085,0.257-0.131c4.668-2.451,9.889-3.755,15.313-3.755l84.083-0.007
			c18.202-0.001,33.013,14.807,33.015,33.009l0.006,67.813c-0.012,0.967-0.503,1.61-0.801,1.907
			c-0.301,0.301-0.953,0.806-1.941,0.806l-19.915,0.002l-0.004-56.176c0-4.142-3.358-7.5-7.501-7.5c-4.142,0-7.499,3.358-7.499,7.5
			l0.004,56.176l-14.293,0.001l-0.002-34.533c0-4.142-3.358-7.5-7.5-7.5c-4.143,0-7.5,3.358-7.5,7.5l0.002,34.533l-80.413,0.007
			c-1.508,0-2.735-1.223-2.744-2.73l-0.006-67.795C306.667,391.932,310.101,383.641,316.335,377.405z M419.125,486.265l0.001,10.777
			l-14.293,0.001l-0.001-10.777L419.125,486.265z M309.422,497.051c-0.989,0-1.642-0.504-1.942-0.804
			c-0.3-0.3-0.804-0.952-0.804-1.942l-0.001-8.265c0.897,0.14,1.809,0.234,2.745,0.234l80.412-0.007l0.001,10.777L309.422,497.051z
			 M455.98,496.234c-0.301,0.301-0.952,0.805-1.942,0.805l-19.911,0.002l-0.001-10.777l19.916-0.002
			c0.928,0,1.841-0.092,2.741-0.231l0.001,8.262C456.783,495.282,456.279,495.934,455.98,496.234z"/>
		<path d="M470.201,247.776c-21.428,0-38.861,17.433-38.861,38.862s17.434,38.862,38.861,38.862
			c21.429,0,38.862-17.433,38.862-38.862S491.63,247.776,470.201,247.776z M470.201,310.5c-13.157,0-23.861-10.705-23.861-23.862
			s10.704-23.862,23.861-23.862s23.862,10.705,23.862,23.862S483.358,310.5,470.201,310.5z"/>
		<path d="M451.726,205.605c0.157,0.002,0.313,0.004,0.47,0.004c7.701,0,14.969-2.943,20.511-8.315
			c5.655-5.482,8.837-12.838,8.959-20.713c0.122-7.875-2.829-15.326-8.312-20.98c-5.481-5.655-12.838-8.837-20.713-8.959
			c-16.271-0.227-29.688,12.769-29.94,29.024c-0.122,7.875,2.829,15.326,8.312,20.981
			C436.494,202.301,443.851,205.483,451.726,205.605z M452.18,161.637c0.076,0,0.152,0,0.229,0.001
			c3.868,0.06,7.482,1.623,10.176,4.401c2.692,2.778,4.143,6.439,4.083,10.308c-0.061,3.869-1.623,7.482-4.401,10.176
			c-2.777,2.694-6.458,4.142-10.308,4.083c-3.869-0.06-7.483-1.623-10.177-4.401c-2.692-2.778-4.143-6.439-4.083-10.308
			C437.821,167.987,444.296,161.637,452.18,161.637z"/>
		<path d="M307.629,87.404c0.157,0.002,0.313,0.004,0.47,0.004c7.701,0,14.969-2.943,20.511-8.315
			c5.655-5.482,8.837-12.838,8.959-20.713c0.252-16.256-12.768-29.687-29.024-29.94c-7.923-0.129-15.326,2.83-20.98,8.312
			c-5.655,5.482-8.837,12.838-8.959,20.713C278.353,73.72,291.372,87.152,307.629,87.404z M298.004,47.521
			c2.723-2.64,6.293-4.085,10.076-4.085c0.077,0,0.154,0.001,0.23,0.002c7.987,0.125,14.384,6.723,14.26,14.709
			c-0.061,3.869-1.623,7.482-4.401,10.176c-2.777,2.693-6.416,4.138-10.308,4.083c-7.986-0.124-14.383-6.723-14.259-14.709
			C293.663,53.828,295.226,50.214,298.004,47.521z"/>
	</g>
</g>
<g>
</g>
<g>
</g>
<g>
</g>
<g>
</g>
<g>
</g>
<g>
</g>
<g>
</g>
<g>
</g>
<g>
</g>
<g>
</g>
<g>
</g>
<g>
</g>
<g>
</g>
<g>
</g>
<g>
</g>
</svg>
