<?xml version="1.0" encoding="iso-8859-1"?>
<!-- Generator: Adobe Illustrator 23.0.3, SVG Export Plug-In . SVG Version: 6.00 Build 0)  -->
<svg version="1.1" id="Capa_1" xmlns="http://www.w3.org/2000/svg" xmlns:xlink="http://www.w3.org/1999/xlink" x="0px" y="0px"
	 viewBox="0 0 512.003 512.003" style="enable-background:new 0 0 512.003 512.003;" xml:space="preserve">
<g>
	<g>
		<g>
			<g>
				<g>
					<g>
						<g>
							<g>
								<g>
									<g>
										<path style="fill:#52CC61;" d="M158.98,21.809c-54.853-0.763-99.558,43.473-99.558,98.15
											c0,58.97,53.082,92.888,81.176,118.934c6.473,6.001,16.984,1.419,16.984-7.408l0-13.367
											c54.677,0,98.913-44.705,98.15-99.558C254.997,65.692,211.849,22.544,158.98,21.809z"/>
									</g>
									<g>
										<path style="fill:#00B232;" d="M255.733,118.557c0.707,50.882-37.288,93.019-86.427,98.863
											c36.765-14.548,62.641-50.636,62.057-92.711c-0.738-52.861-43.88-96.013-96.751-96.751
											c-4.439-0.062-8.817,0.174-13.113,0.687c11.575-4.583,24.236-7.023,37.482-6.838
											C211.853,22.545,254.995,65.696,255.733,118.557z"/>
									</g>
								</g>
							</g>
						</g>
					</g>
				</g>
			</g>
		</g>
		<g>
			<g>
				<g>
					<g>
						<g>
							<g>
								<path style="fill:#E84649;" d="M504.503,324.826v156.326c0,4.995-4.054,9.049-9.049,9.049H200.069
									c-4.995,0-9.049-4.054-9.049-9.049V324.826c0-30.758,18.533-57.2,45.038-68.756c9.167-4,19.293-6.217,29.935-6.217H429.53
									c4.099,0,8.126,0.326,12.044,0.968c6.262,1.004,12.253,2.787,17.89,5.249C485.97,267.626,504.503,294.068,504.503,324.826z"
									/>
								<path style="fill:#FFBC8A;" d="M347.76,322.847L347.76,322.847c-17.718,0-32.082-14.364-32.082-32.082v-35.484h64.164
									v35.484C379.842,308.483,365.479,322.847,347.76,322.847z"/>
								<path style="fill:#D73337;" d="M504.505,324.825v156.327c0,4.995-4.054,9.048-9.048,9.048H474.6
									c4.995,0,9.048-4.054,9.048-9.048V324.825c0-30.755-18.531-57.203-45.042-68.758c-5.637-2.461-11.627-4.244-17.888-5.248
									c-3.918-0.642-7.944-0.968-12.043-0.968h20.856c4.099,0,8.125,0.326,12.043,0.968c6.261,1.004,12.251,2.787,17.888,5.248
									C485.974,267.622,504.505,294.07,504.505,324.825z"/>
								<rect x="191.019" y="368.468" style="fill:#FFF5F5;" width="313.482" height="86.6"/>
								<rect x="483.651" y="368.468" style="fill:#E0D3CE;" width="20.85" height="86.6"/>
							</g>
							<g>
								<g>
									<g>
										<circle style="fill:#9E9797;" cx="439.804" cy="172.502" r="20.936"/>
									</g>
									<g>
										<circle style="fill:#FFBC8A;" cx="255.718" cy="172.502" r="20.936"/>
									</g>
								</g>
								<path style="fill:#FDD1A7;" d="M347.761,282.563L347.761,282.563c-42.591,0-77.728-33.345-79.954-75.878l-5.431-103.749
									h170.769l-5.431,103.749C425.489,249.217,390.353,282.563,347.761,282.563z"/>
								<g>
									<path style="fill:#9E552E;" d="M347.761,142.025c0,0,65.908-30.762,83.633,17.753l31.28-29.513l-15.382-43.733h-99.531
										V142.025z"/>
									<path style="fill:#C86D3D;" d="M347.761,78.991c0,0,18.713-27.145,65.908-27.145c43.153,0,71.316,45.387,53.358,85.209
										c-1.74,3.859-7.323,3.507-8.491-0.562c-4.244-14.787-16.486-38.501-51.358-38.501c-50.67,0-59.417,44.032-59.417,44.032
										V78.991z"/>
									<path style="fill:#9E552E;" d="M347.761,142.025c0,0-65.908-30.762-83.634,17.753l-31.28-29.513l15.382-43.733h99.531
										V142.025z"/>
									<path style="fill:#C86D3D;" d="M347.761,78.991c0,0-18.713-27.145-65.908-27.145c-43.153,0-71.316,45.387-53.358,85.209
										c1.74,3.859,7.323,3.507,8.491-0.562c4.244-14.787,16.486-38.501,51.358-38.501c50.67,0,59.417,44.032,59.417,44.032
										V78.991z"/>
								</g>
							</g>
						</g>
					</g>
				</g>
			</g>
		</g>
		<g>
			<rect x="37.371" y="337.665" style="fill:#756F6F;" width="153.648" height="62.654"/>
			<path style="fill:#CDBFBB;" d="M211.42,490.204H16.97c-6.239,0-10.769-5.933-9.126-11.952l21.805-79.847
				c1.123-4.114,4.861-6.968,9.126-6.968h150.842c4.265,0,8.002,2.854,9.126,6.968l21.805,79.847
				C222.189,484.271,217.659,490.204,211.42,490.204z"/>
			<path style="fill:#9E9797;" d="M211.422,490.204h-17.511c6.241,0,10.767-5.936,9.124-11.952l-21.803-79.85
				c-1.122-4.113-4.858-6.968-9.124-6.968h17.511c4.265,0,8.001,2.856,9.124,6.968l21.803,79.85
				C222.189,484.268,217.663,490.204,211.422,490.204z"/>
			<path style="fill:#CDBFBB;" d="M218.734,342.463v16.545c0,5.224-4.235,9.46-9.46,9.46h-24.292c-5.224,0-9.46-4.235-9.46-9.46
				v-12.619H52.859v12.619c0,5.224-4.235,9.46-9.46,9.46H19.116c-5.224,0-9.46-4.235-9.46-9.46v-16.554
				c0-18.505,15.001-33.506,33.506-33.506h142.056C203.729,308.947,218.734,323.953,218.734,342.463z"/>
			<path style="fill:#9E9797;" d="M218.731,342.466v16.541c0,5.226-4.23,9.465-9.456,9.465h-17.511c5.226,0,9.456-4.239,9.456-9.465
				v-16.541c0-18.517-15.005-33.522-33.513-33.522h17.511C203.726,308.943,218.731,323.949,218.731,342.466z"/>
			<g>
				<g>
					<circle style="fill:#5B5555;" cx="114.195" cy="413.878" r="45.41"/>
				</g>
				<g>
					<circle style="fill:#CDBFBB;" cx="114.195" cy="413.878" r="19.803"/>
				</g>
			</g>
		</g>
	</g>
	<g>
		<path d="M115.364,98.121h29.978c4.143,0,7.5-3.358,7.5-7.5s-3.357-7.5-7.5-7.5h-29.978c-4.143,0-7.5,3.358-7.5,7.5
			S111.221,98.121,115.364,98.121z"/>
		<path d="M115.364,139.206h84.444c4.143,0,7.5-3.358,7.5-7.5s-3.357-7.5-7.5-7.5h-84.444c-4.143,0-7.5,3.358-7.5,7.5
			S111.221,139.206,115.364,139.206z"/>
		<path d="M115.364,168.876h84.444c4.143,0,7.5-3.358,7.5-7.5s-3.357-7.5-7.5-7.5h-84.444c-4.143,0-7.5,3.358-7.5,7.5
			S111.221,168.876,115.364,168.876z"/>
		<path d="M512.003,430.031c0-4.142-3.357-7.5-7.5-7.5s-7.5,3.358-7.5,7.5v17.534h-38.182v-71.597h38.182v18.668
			c0,4.142,3.357,7.5,7.5,7.5s7.5-3.358,7.5-7.5v-69.81c0-32.823-19.445-62.51-49.536-75.63c-1.745-0.762-3.519-1.456-5.311-2.093
			v-52.098c6.735-5.205,11.084-13.354,11.084-22.505c0-10.316-5.382-19.339-13.622-24.324l2.508-2.366
			c1.466,0.791,3.111,1.288,4.868,1.415c5.096,0.361,9.763-2.413,11.87-7.087c9.653-21.406,7.856-45.888-4.806-65.489
			c-12.258-18.975-32.964-30.304-55.389-30.304c-35.679,0-56.458,14.511-65.908,23.49c-9.45-8.98-30.229-23.49-65.908-23.49
			c-14.392,0-28.072,4.673-39.27,13.033c-19.651-26.624-50.418-42.609-83.499-43.07c-18.924-0.268-37.569,4.54-53.908,13.889
			c-3.595,2.057-4.841,6.639-2.784,10.234c2.059,3.596,6.642,4.841,10.235,2.784c14.01-8.017,30.018-12.13,46.248-11.909
			c28.97,0.403,55.879,14.708,72.695,38.446c-1.83,2.169-3.538,4.469-5.106,6.896c-12.663,19.602-14.46,44.083-4.807,65.49
			c2.108,4.674,6.76,7.454,11.872,7.086c1.756-0.127,3.401-0.625,4.866-1.415l2.547,2.403c-8.265,5.056-13.66,14.181-13.66,24.288
			c0,1.672,0.153,3.308,0.432,4.901c-17.313,21.13-42.763,33.216-70.132,33.216c-4.143,0-7.5,3.358-7.5,7.5v13.367
			c0,1.485-0.979,2.134-1.562,2.389c-0.587,0.254-1.73,0.532-2.824-0.481c-4.616-4.28-9.824-8.711-15.338-13.402
			c-28.263-24.046-63.437-53.973-63.437-100.033c0-21.174,7.454-41.776,20.988-58.013c2.652-3.182,2.224-7.911-0.958-10.563
			s-7.91-2.223-10.563,0.958c-15.777,18.927-24.467,42.94-24.467,67.617c0,52.993,39.717,86.784,68.717,111.457
			c5.389,4.584,10.479,8.915,14.86,12.978c3.359,3.115,7.578,4.737,11.897,4.737c2.388,0,4.805-0.496,7.125-1.508
			c6.514-2.844,10.561-9.027,10.561-16.136v-6.127c26.822-1.871,51.606-13.749,69.88-33.449c5.193,5.55,12.573,9.028,20.755,9.028
			c1.441,0,2.861-0.115,4.261-0.325l0.338,6.464c0.664,12.69,4.021,24.621,9.472,35.276h-3.797c-11.447,0-22.528,2.302-32.933,6.842
			c-22.256,9.703-39.334,29.118-46.181,52.295c-0.552-0.022-1.104-0.042-1.66-0.042H43.163c-22.611,0-41.007,18.396-41.007,41.006
			v16.555c0,9.352,7.608,16.959,16.96,16.959h10.755v10.517c-3.565,2.206-6.299,5.703-7.457,9.945L0.609,476.277
			c-1.404,5.143-0.354,10.522,2.881,14.76s8.148,6.667,13.479,6.667h23.004c4.143,0,7.5-3.358,7.5-7.5s-3.357-7.5-7.5-7.5H16.969
			c-0.801,0-1.289-0.419-1.557-0.77c-0.269-0.352-0.544-0.933-0.333-1.706l21.805-79.848c0.231-0.85,1.009-1.443,1.89-1.443h24.673
			c-1.398,4.741-2.162,9.752-2.162,14.94c0,29.175,23.735,52.91,52.91,52.91s52.91-23.735,52.91-52.91
			c0-5.188-0.763-10.199-2.162-14.94h24.673c0.881,0,1.658,0.593,1.89,1.443l21.805,79.847c0.211,0.773-0.064,1.354-0.333,1.706
			c-0.268,0.351-0.756,0.77-1.557,0.77H75.369c-4.143,0-7.5,3.358-7.5,7.5s3.357,7.5,7.5,7.5h136.052
			c5.331,0,10.244-2.43,13.479-6.667s4.285-9.617,2.881-14.76l-3.744-13.712h12.664v27.639c0,4.142,3.357,7.5,7.5,7.5
			s7.5-3.358,7.5-7.5v-27.639h192.12v27.636c0,4.142,3.357,7.5,7.5,7.5s7.5-3.358,7.5-7.5v-27.636h38.182v18.586
			c0,0.854-0.694,1.549-1.549,1.549c-4.143,0-7.5,3.358-7.5,7.5s3.357,7.5,7.5,7.5c9.125,0,16.549-7.424,16.549-16.549V430.031z
			 M376.494,262.372l6.801,3.393c-10.521,5.918-22.644,9.298-35.533,9.298c-38.615,0-70.445-30.208-72.464-68.77l-2.502-47.802
			c3.566-7.476,8.816-12.589,15.969-15.554c22.528-9.34,55.501,5.735,55.825,5.885c1.961,0.98,4.37,0.889,6.337,0.003
			c0.329-0.154,33.304-15.229,55.832-5.889c7.176,2.975,12.438,8.111,16.004,15.626c-0.039,0.249-0.065,0.503-0.079,0.76
			l-2.458,46.971c-1.028,19.645-9.804,37.109-23.262,49.529l-13.772-6.871c-3.712-1.851-8.212-0.344-10.06,3.363
			C371.282,256.02,372.788,260.523,376.494,262.372z M323.178,286.551c7.808,2.28,16.056,3.512,24.583,3.512
			c8.526,0,16.773-1.232,24.581-3.511v4.214c0,13.555-11.027,24.582-24.582,24.582s-24.582-11.027-24.582-24.582V286.551z
			 M433.709,147.283c-5.11-8.384-12.228-14.493-21.255-18.224c-17.073-7.056-37.325-3.776-51.247,0.184
			c0.933-1.523,1.984-3.083,3.192-4.644c9.813-12.679,24.206-19.107,42.779-19.107c24.934,0,36.627,13.625,42.094,27.104
			L433.709,147.283z M261.814,147.283l-15.565-14.686c5.468-13.479,17.162-27.104,42.095-27.104
			c26.041,0,39.422,12.978,46.052,23.774c-13.924-3.97-34.221-7.276-51.327-0.207C274.042,132.79,266.925,138.899,261.814,147.283z
			 M416.018,257.353h13.512c3.462,0,6.901,0.27,10.259,0.788c-1.38,2.406-3.327,4.496-5.777,6.111
			c-5.119,3.377-11.278,3.96-16.927,1.607l-5.928-2.957C412.854,261.123,414.475,259.271,416.018,257.353z M442.156,243.33
			c-4.124-0.642-8.365-0.977-12.626-0.977h-3.797c5.451-10.656,8.808-22.586,9.472-35.276l0.338-6.464
			c1.4,0.21,2.821,0.324,4.261,0.324c0.792,0,1.575-0.041,2.352-0.105V243.33z M453.24,172.502c0,7.408-6.027,13.436-13.436,13.436
			c-1.189,0-2.346-0.169-3.468-0.469l1.104-21.082l5.285-4.987C448.74,160.747,453.24,166.19,453.24,172.502z M413.67,59.346
			c17.568,0,33.164,8.544,42.789,23.443c8.428,13.046,10.686,28.873,6.492,43.631c-9.56-22.955-29.48-35.928-55.772-35.928
			c-26.441,0-42.568,11.102-51.917,21.639V81.605C360.028,76.115,377.547,59.346,413.67,59.346z M239.064,82.789
			c9.625-14.898,25.221-23.443,42.789-23.443c36.123,0,53.642,16.769,58.408,22.259v30.527c-9.349-10.538-25.477-21.64-51.917-21.64
			c-26.291,0-46.212,12.974-55.773,35.928C228.379,111.663,230.636,95.835,239.064,82.789z M255.718,185.937
			c-7.408,0-13.436-6.027-13.436-13.436c0-6.282,4.407-11.756,10.508-13.109l5.293,4.994l1.103,21.083
			C258.065,185.768,256.909,185.937,255.718,185.937z M239.056,262.944c8.504-3.71,17.566-5.591,26.937-5.591h13.512
			c7.771,9.658,17.545,17.608,28.674,23.256v10.156c0,21.826,17.757,39.582,39.582,39.582s39.582-17.756,39.582-39.582V280.61
			c4.05-2.055,7.925-4.408,11.584-7.046l11.672,5.823c0.13,0.065,0.262,0.126,0.396,0.183c4.2,1.799,8.638,2.687,13.057,2.687
			c6.378,0,12.713-1.852,18.22-5.483c5.525-3.644,9.716-8.765,12.224-14.653c0.662,0.264,1.32,0.538,1.973,0.823
			c24.623,10.736,40.534,35.026,40.534,61.881v36.142h-38.182v-8.4c0-4.142-3.357-7.5-7.5-7.5s-7.5,3.358-7.5,7.5v8.4h-192.12v-8.4
			c0-4.142-3.357-7.5-7.5-7.5s-7.5,3.358-7.5,7.5v8.4h-10.589c0.074-0.644,0.123-1.296,0.123-1.959v-16.545
			c0-16.816-10.176-31.294-24.691-37.618C207.312,286.279,221.126,270.762,239.056,262.944z M17.156,359.008v-16.555
			c0-14.34,11.667-26.006,26.007-26.006h142.056c14.345,0,26.016,11.67,26.016,26.016v16.545c0,1.081-0.879,1.959-1.96,1.959
			h-24.292c-1.081,0-1.96-0.879-1.96-1.959v-12.62c0-4.142-3.357-7.5-7.5-7.5H52.859c-4.143,0-7.5,3.358-7.5,7.5v12.62
			c0,1.081-0.879,1.959-1.96,1.959H19.116C18.035,360.968,17.156,360.089,17.156,359.008z M114.195,451.788
			c-20.903,0-37.91-17.006-37.91-37.91s17.007-37.91,37.91-37.91s37.91,17.006,37.91,37.91S135.098,451.788,114.195,451.788z
			 M114.195,360.968c-18.068,0-34.042,9.109-43.592,22.97H44.871v-8.044c8.664-0.75,15.488-8.03,15.488-16.885v-5.12h107.663v5.12
			c0,8.858,6.829,16.14,15.497,16.885v8.044h-25.732C148.238,370.077,132.263,360.968,114.195,360.968z M219.94,447.565
			l-13.964-51.135c-1.158-4.243-3.892-7.739-7.457-9.946v-10.517h38.182v71.597H219.94z M251.701,447.565v-71.597h192.12v71.597
			H251.701z"/>
		<path d="M312.156,189.789c-4.143,0-7.5,3.402-7.5,7.544s3.357,7.5,7.5,7.5s7.5-3.358,7.5-7.5v-0.088
			C319.656,193.103,316.299,189.789,312.156,189.789z"/>
		<path d="M383.368,204.833c4.143,0,7.5-3.358,7.5-7.5v-0.088c0-4.142-3.357-7.456-7.5-7.456s-7.5,3.402-7.5,7.544
			S379.225,204.833,383.368,204.833z"/>
		<path d="M369.73,219.198c-3.98-1.145-8.136,1.155-9.28,5.136c-1.618,5.628-6.836,9.559-12.688,9.559s-11.069-3.931-12.688-9.56
			c-1.146-3.981-5.303-6.276-9.281-5.135c-3.98,1.145-6.279,5.3-5.135,9.281c3.457,12.019,14.603,20.413,27.104,20.413
			s23.647-8.395,27.104-20.414C376.01,224.498,373.712,220.343,369.73,219.198z"/>
		<path d="M400.764,345.624h18.76c4.143,0,7.5-3.358,7.5-7.5s-3.357-7.5-7.5-7.5h-18.76c-4.143,0-7.5,3.358-7.5,7.5
			S396.622,345.624,400.764,345.624z"/>
		<path d="M114.195,386.575c-15.056,0-27.304,12.248-27.304,27.303s12.248,27.304,27.304,27.304s27.304-12.249,27.304-27.304
			S129.251,386.575,114.195,386.575z M114.195,426.182c-6.784,0-12.304-5.52-12.304-12.304s5.52-12.303,12.304-12.303
			s12.304,5.519,12.304,12.303S120.979,426.182,114.195,426.182z"/>
	</g>
</g>
<g>
</g>
<g>
</g>
<g>
</g>
<g>
</g>
<g>
</g>
<g>
</g>
<g>
</g>
<g>
</g>
<g>
</g>
<g>
</g>
<g>
</g>
<g>
</g>
<g>
</g>
<g>
</g>
<g>
</g>
</svg>
