<?xml version="1.0" encoding="iso-8859-1"?>
<!-- Generator: Adobe Illustrator 23.0.3, SVG Export Plug-In . SVG Version: 6.00 Build 0)  -->
<svg version="1.1" id="Capa_1" xmlns="http://www.w3.org/2000/svg" xmlns:xlink="http://www.w3.org/1999/xlink" x="0px" y="0px"
	 viewBox="0 0 512 512" style="enable-background:new 0 0 512 512;" xml:space="preserve">
<g>
	<g>
		<g>
			<g id="XMLID_10759_">
				<g id="XMLID_411_">
					<g id="XMLID_719_">
						<g id="XMLID_722_">
							<path style="fill:#5B5555;" d="M394.808,504.5c-53.16,0-96.409-43.249-96.409-96.409s43.249-96.409,96.409-96.409
								s96.409,43.249,96.409,96.409S447.969,504.5,394.808,504.5z M394.808,338.719c-38.252,0-69.372,31.12-69.372,69.372
								s31.12,69.372,69.372,69.372s69.372-31.12,69.372-69.372S433.06,338.719,394.808,338.719z"/>
						</g>
					</g>
				</g>
				<g id="XMLID_11102_">
					<path style="fill:#B9ACAC;" d="M350.864,232.41h-159.34v41.097h122.679l-94.439,82.521v37.021l137.834-122.697
						C355.301,262.426,353.051,240.367,350.864,232.41z"/>
				</g>
				<path style="fill:#ED6264;" d="M399.923,436.257c-6.399-0.001-12.067-4.54-13.475-10.793l-52.424-238.629h28.327l51.099,232.544
					c1.675,7.421-3.016,14.847-10.46,16.533c-1.007,0.229-2.039,0.345-3.065,0.345C399.924,436.257,399.924,436.257,399.923,436.257
					z"/>
				<g id="XMLID_721_">
					<path style="fill:#B9ACAC;" d="M412.231,245.872c-6.631,0-12.026-5.395-12.026-12.026s5.395-12.025,12.026-12.025
						c8.242,0,14.947-6.706,14.947-14.948s-6.705-14.947-14.947-14.947H307.6c-6.631,0-12.025-5.395-12.025-12.026
						c0-6.631,5.394-12.025,12.025-12.025h104.631c21.504,0,38.999,17.494,38.999,38.999S433.735,245.872,412.231,245.872z"/>
				</g>
			</g>
		</g>
		<g>
			<g>
				<g>
					<path style="fill:#756F6F;" d="M257.354,346.99v146.99c0,5.807-4.713,10.52-10.52,10.52H31.299
						c-5.807,0-10.52-4.713-10.52-10.52V346.99c0-47.191,38.249-85.44,85.44-85.44h65.695
						C219.105,261.55,257.354,299.799,257.354,346.99z"/>
					<g>
						<rect x="125.087" y="278.429" style="fill:#F37D7E;" width="28.284" height="226.071"/>
					</g>
					<path style="fill:#FDD1A7;" d="M20.78,416.462v77.519c0,5.807,4.713,10.52,10.52,10.52h37.313v-88.038H20.78z"/>
					<path style="fill:#5B5555;" d="M257.354,346.99v146.99c0,5.807-4.713,10.52-10.52,10.52h-12.318V346.99
						c0-47.191-38.249-85.44-85.44-85.44h22.838C219.105,261.55,257.354,299.799,257.354,346.99z"/>
					<path style="fill:#FDD1A7;" d="M257.354,416.462v77.519c0,5.807-4.713,10.52-10.52,10.52h-37.313v-88.038H257.354z"/>
					<path style="fill:#FFBC8A;" d="M257.354,416.462v77.519c0,5.807-4.713,10.52-10.52,10.52h-12.318v-88.038H257.354z"/>
					<rect x="209.526" y="416.464" style="fill:#F37D7E;" width="47.831" height="33.483"/>
					<rect x="234.514" y="416.464" style="fill:#ED6264;" width="22.842" height="33.483"/>
					<g>
						<g>
							<circle style="fill:#FFBC8A;" cx="223.346" cy="182.638" r="21.733"/>
						</g>
						<g>
							<circle style="fill:#FFBC8A;" cx="54.791" cy="182.638" r="21.733"/>
						</g>
						<path style="fill:#FDD1A7;" d="M58.21,136.406l10.644,87.144c4.334,35.486,34.464,62.16,70.214,62.16l0,0
							c35.75,0,65.88-26.674,70.214-62.16l10.644-87.144H58.21z"/>
						<g>
							<line style="fill:#F69583;" x1="188.225" y1="218.785" x2="188.225" y2="218.876"/>
						</g>
						<path style="fill:#AC5E33;" d="M65.217,77.908c-22.735,22.735-27.507,56.619-14.332,84.045
							c27.419,13.183,61.31,8.403,84.045-14.332c22.741-22.741,27.521-56.633,14.338-84.052
							C121.843,50.394,87.959,55.167,65.217,77.908z"/>
						<path style="fill:#C86D3D;" d="M212.92,77.908c22.735,22.735,27.507,56.619,14.332,84.045
							c-27.419,13.183-61.31,8.403-84.045-14.332c-18.213-18.213-24.905-43.577-20.077-67.04
							c2.346-11.399,11.35-20.402,22.749-22.747C169.345,53.007,194.706,59.694,212.92,77.908z"/>
						<path style="fill:#AC5E33;" d="M227.247,161.956c-6.333,3.04-13.002,5.134-19.808,6.259
							c14.906-25.51,13.549-58.584-5.933-83.094c-13.581-17.073-33.189-26.52-53.387-27.709c22.827-3.976,47.17,2.861,64.8,20.492
							C235.652,100.648,240.428,134.531,227.247,161.956z"/>
						<g>
							<g>
								<path style="fill:#F69583;" d="M93.068,232.859c-4.271,0-7.734-3.463-7.734-7.734s3.463-7.779,7.734-7.779
									s7.734,3.417,7.734,7.688v0.091C100.802,229.397,97.339,232.859,93.068,232.859z"/>
							</g>
							<g>
								<path style="fill:#F69583;" d="M185.069,232.859c-4.271,0-7.734-3.463-7.734-7.734s3.463-7.779,7.734-7.779
									s7.734,3.417,7.734,7.688v0.091C192.803,229.397,189.34,232.859,185.069,232.859z"/>
							</g>
						</g>
					</g>
				</g>
			</g>
			<g>
				<g>
					<path style="fill:#5B5555;" d="M227.054,109.008V80.391c-7.442-38.093-44.003-67.016-87.986-67.016
						S58.524,42.298,51.082,80.391v28.617H227.054z"/>
					<path style="fill:#B9ACAC;" d="M77.23,130.086H45.572v-79.3c0-8.742,7.087-15.829,15.829-15.829h0
						c8.742,0,15.829,7.087,15.829,15.829V130.086z"/>
					<path style="fill:#B9ACAC;" d="M232.565,130.086h-31.658v-79.3c0-8.742,7.087-15.829,15.829-15.829h0
						c8.742,0,15.829,7.087,15.829,15.829V130.086z"/>
					<path style="fill:#B9ACAC;" d="M126.804,81.273h-26.356V20.678c0-7.278,5.9-13.178,13.178-13.178h0
						c7.278,0,13.178,5.9,13.178,13.178V81.273z"/>
					<path style="fill:#B9ACAC;" d="M177.689,81.273h-26.356V20.678c0-7.278,5.9-13.178,13.178-13.178h0
						c7.278,0,13.178,5.9,13.178,13.178V81.273z"/>
				</g>
				<g>
					<path style="fill:#F37D7E;" d="M229.804,141.002c7.485,0,12.566-7.501,9.916-14.502
						c-14.387-38.005-54.016-65.309-100.651-65.309S52.803,88.495,38.417,126.501c-2.65,7.001,2.431,14.502,9.916,14.502H229.804z"
						/>
				</g>
			</g>
		</g>
	</g>
	<g>
		<path d="M395.819,304.194l-23.022-104.77h39.434c4.106,0,7.447,3.341,7.447,7.447s-3.341,7.447-7.447,7.447
			c-10.767,0-19.526,8.759-19.526,19.525c0,10.768,8.76,19.527,19.526,19.527c25.64,0,46.499-20.859,46.499-46.5
			c0-25.64-20.859-46.499-46.499-46.499H307.6c-10.767,0-19.525,8.759-19.525,19.525s8.759,19.526,19.525,19.526h21.511
			l5.599,25.486h-36.239c-4.143,0-7.5,3.357-7.5,7.5s3.357,7.5,7.5,7.5h39.534l6.955,31.659l-80.192,71.382
			c-0.213-5.005-0.835-9.916-1.81-14.706l56.184-49.09c2.354-2.056,3.186-5.356,2.087-8.283c-1.098-2.926-3.896-4.864-7.021-4.864
			h-96.591c-4.516-2.538-9.281-4.716-14.267-6.496c4.145-5.967,7.485-12.548,9.858-19.601h49.237c4.143,0,7.5-3.357,7.5-7.5
			s-3.357-7.5-7.5-7.5h-45.785c0.019-0.152,0.047-0.3,0.066-0.452l1.591-13.027c1.65,0.286,3.327,0.439,5.028,0.439
			c16.119,0,29.232-13.114,29.232-29.233c0-10.908-5.917-20.586-15.178-25.628c1.384-3.938,2.459-7.985,3.223-12.104
			c1.557-1.161,2.94-2.572,4.072-4.212c3.404-4.929,4.166-11.228,2.038-16.848c-1.857-4.907-4.103-9.616-6.674-14.123
			c0-0.034,0.005-0.066,0.005-0.1V50.786c0-12.863-10.466-23.329-23.329-23.329c-3.988,0-7.745,1.008-11.032,2.78
			c-6.294-5.475-13.332-10.123-20.975-13.874C182.737,7.026,174.432,0,164.511,0c-5.865,0-11.156,2.466-14.923,6.401
			c-6.959-0.688-14.082-0.687-21.041,0C124.781,2.466,119.49,0,113.625,0c-9.921,0-18.226,7.026-20.217,16.362
			c-7.643,3.752-14.681,8.399-20.975,13.874c-3.287-1.772-7.044-2.78-11.032-2.78c-12.863,0-23.329,10.466-23.329,23.329v58.836
			c0,0.033,0.005,0.066,0.005,0.099c-2.571,4.508-4.817,9.218-6.675,14.125c-2.127,5.622-1.365,11.92,2.039,16.849
			c1.131,1.637,2.511,3.046,4.065,4.206c0.765,4.124,1.846,8.169,3.231,12.11c-9.241,5.066-15.179,14.822-15.179,25.627
			c0,16.119,13.114,29.233,29.233,29.233c1.704,0,3.382-0.146,5.028-0.431l1.59,13.019c1.586,12.987,6.326,24.904,13.374,35.05
			c-9.025,3.239-17.465,7.859-25.184,13.798c-3.282,2.526-3.896,7.235-1.37,10.519c1.478,1.92,3.701,2.926,5.95,2.926
			c1.596,0,3.205-0.508,4.568-1.556c8.04-6.188,17.016-10.644,26.694-13.315c9.01,8.486,19.996,14.848,32.145,18.324V504.5
			c0,4.143,3.357,7.5,7.5,7.5s7.5-3.357,7.5-7.5V292.928c2.141,0.177,4.301,0.282,6.482,0.282c2.29,0,4.557-0.11,6.802-0.305V504.5
			c0,4.143,3.357,7.5,7.5,7.5s7.5-3.357,7.5-7.5V290.105c12.027-3.497,22.907-9.821,31.84-18.239
			c33.764,9.295,57.144,39.837,57.144,75.119v61.977h-32.828v-22.28c0-4.143-3.357-7.5-7.5-7.5s-7.5,3.357-7.5,7.5V504.5
			c0,4.143,3.357,7.5,7.5,7.5s7.5-3.357,7.5-7.5v-47.053h32.828v36.533c0,1.665-1.354,3.02-3.02,3.02c-4.143,0-7.5,3.357-7.5,7.5
			s3.357,7.5,7.5,7.5c9.936,0,18.02-8.084,18.02-18.02V362.958l83.796-74.59l5.315,24.191
			c-37.909,16.273-63.067,54.071-63.067,95.532c0,57.296,46.613,103.909,103.909,103.909s103.909-46.613,103.909-103.909
			C498.717,351.133,452.65,304.74,395.819,304.194z M258.256,312.437c-4.714-11.836-11.799-22.524-20.758-31.428h56.728
			L258.256,312.437z M82.671,41.221c3.207-2.754,6.638-5.263,10.277-7.506v28.927c-2.796,1.135-5.538,2.366-8.218,3.699V50.786
			C84.73,47.378,83.99,44.142,82.671,41.221z M139.068,68.691c42.317,0,79.947,24.299,93.638,60.465
			c0.532,1.407,0.008,2.491-0.353,3.013c-0.344,0.498-1.132,1.333-2.55,1.333H48.333c-1.417,0-2.206-0.835-2.55-1.333
			c-0.36-0.521-0.885-1.605-0.352-3.013C59.121,92.99,96.75,68.691,139.068,68.691z M185.189,33.715
			c3.639,2.243,7.07,4.752,10.277,7.506c-1.319,2.921-2.06,6.157-2.06,9.565v15.556c-2.68-1.333-5.422-2.564-8.218-3.699V33.715z
			 M56.546,156.294c-1.095-2.537-2.023-5.14-2.791-7.792h68.722C103.637,162.603,78.432,165.76,56.546,156.294z M224.382,148.502
			c-0.768,2.654-1.697,5.257-2.791,7.792c-21.883,9.462-47.09,6.308-65.93-7.792H224.382z M223.346,196.871
			c-1.092,0-2.161-0.134-3.204-0.374l3.017-24.697c1.903-0.694,3.789-1.461,5.654-2.305c5.293,2.188,8.765,7.306,8.765,13.143
			C237.579,190.486,231.194,196.871,223.346,196.871z M225.065,50.786v38.808c-5.03-5.293-10.611-10.099-16.658-14.344V50.786
			c0-4.593,3.736-8.329,8.329-8.329S225.065,46.193,225.065,50.786z M164.511,15c3.131,0,5.678,2.547,5.678,5.678v36.984
			c-3.719-0.968-7.512-1.752-11.356-2.372V20.678C158.833,17.547,161.38,15,164.511,15z M143.833,21.009v32.777
			c-1.582-0.06-3.17-0.095-4.765-0.095s-3.182,0.034-4.765,0.095V21.01C137.474,20.846,140.663,20.846,143.833,21.009z M113.625,15
			c3.131,0,5.678,2.547,5.678,5.678V55.29c-3.844,0.62-7.636,1.404-11.355,2.372V20.678C107.948,17.547,110.495,15,113.625,15z
			 M53.072,50.786c0-4.593,3.736-8.329,8.329-8.329s8.329,3.736,8.329,8.329V75.25c-6.047,4.245-11.628,9.05-16.658,14.343V50.786z
			 M54.792,196.871c-7.849,0-14.233-6.385-14.233-14.233c0-5.783,3.489-10.948,8.768-13.141c1.865,0.844,3.75,1.61,5.652,2.304
			l3.018,24.71C56.956,196.749,55.885,196.871,54.792,196.871z M139.069,278.21c-31.916,0-58.901-23.89-62.771-55.569l-5.723-46.855
			c4.039,0.612,8.103,0.923,12.157,0.923c20.586,0,40.897-7.836,56.336-22.676c15.44,14.841,35.748,22.676,56.335,22.676
			c4.054,0,8.118-0.311,12.158-0.923l-5.723,46.855C197.969,254.32,170.984,278.21,139.069,278.21z M217.027,442.447v-18.485h32.828
			v18.485H217.027z M303.075,179.898c0-2.495,2.03-4.525,4.525-4.525h104.631c17.368,0,31.499,14.131,31.499,31.499
			c0,17.369-14.131,31.5-31.499,31.5c-2.496,0-4.526-2.031-4.526-4.527c0-2.495,2.03-4.525,4.526-4.525
			c12.378,0,22.447-10.069,22.447-22.447s-10.069-22.447-22.447-22.447H307.6C305.105,184.425,303.075,182.395,303.075,179.898z
			 M357.439,199.425l48.695,221.605c0.768,3.398-1.387,6.794-4.811,7.569c-0.457,0.104-0.929,0.157-1.399,0.157
			c-2.877,0-5.524-2.124-6.15-4.902l-5.447-24.793c-0.889-4.045-4.884-6.606-8.935-5.716c-4.046,0.889-6.604,4.889-5.716,8.935
			l5.456,24.831c2.172,9.644,10.916,16.644,20.793,16.646c1.591,0,3.183-0.179,4.723-0.53c11.475-2.6,18.705-14.038,16.128-25.457
			l-15.526-70.657c29.339,4.985,51.43,30.536,51.43,60.979c0,34.116-27.756,61.871-61.872,61.871s-61.871-27.755-61.871-61.871
			c0-22.069,11.673-42.151,30.326-53.21l2.661,12.112c0.77,3.504,3.873,5.893,7.318,5.893c0.532,0,1.074-0.058,1.616-0.177
			c4.046-0.889,6.604-4.889,5.716-8.935l-36.106-164.35H357.439z M394.808,497c-49.024,0-88.909-39.885-88.909-88.909
			c0-34.513,20.373-66.068,51.352-80.58l2.657,12.096c-25.667,13.089-41.971,39.399-41.971,68.483
			c0,42.387,34.484,76.871,76.871,76.871c42.388,0,76.872-34.484,76.872-76.871c0-39.852-30.472-72.958-69.849-76.535l-2.696-12.268
			c47.022,2.265,84.582,41.229,84.582,88.802C483.717,457.115,443.833,497,394.808,497z"/>
		<path d="M68.612,379.182c-4.143,0-7.5,3.357-7.5,7.5v22.28H28.283v-61.977c0-12.766,3.163-25.437,9.147-36.645
			c1.951-3.653,0.57-8.197-3.084-10.148c-3.656-1.952-8.198-0.57-10.148,3.084c-7.141,13.373-10.915,28.487-10.915,43.709V493.98
			c0,9.936,8.084,18.02,18.02,18.02c4.143,0,7.5-3.357,7.5-7.5s-3.357-7.5-7.5-7.5c-1.665,0-3.02-1.354-3.02-3.02v-70.019h32.829
			V504.5c0,4.143,3.357,7.5,7.5,7.5s7.5-3.357,7.5-7.5V386.682C76.112,382.539,72.754,379.182,68.612,379.182z"/>
		<path d="M102.287,192.832c-4.143,0-7.5,3.402-7.5,7.545s3.357,7.5,7.5,7.5s7.5-3.357,7.5-7.5v-0.091
			C109.787,196.144,106.429,192.832,102.287,192.832z"/>
		<path d="M175.85,192.832c-4.143,0-7.5,3.402-7.5,7.545s3.357,7.5,7.5,7.5s7.5-3.357,7.5-7.5v-0.091
			C183.35,196.144,179.993,192.832,175.85,192.832z"/>
		<path d="M161.695,223.203c-3.978-1.145-8.135,1.154-9.281,5.135c-1.702,5.92-7.19,10.055-13.345,10.055
			c-6.155,0-11.644-4.135-13.346-10.055c-1.146-3.98-5.301-6.278-9.281-5.135c-3.98,1.146-6.279,5.301-5.135,9.281
			c3.541,12.311,14.957,20.908,27.762,20.908s24.22-8.598,27.761-20.908C167.974,228.504,165.675,224.349,161.695,223.203z"/>
		<path d="M96.032,114.904c10.943-11.031,26.629-17.357,43.036-17.357c16.406,0,32.093,6.326,43.037,17.357
			c1.466,1.479,3.395,2.218,5.324,2.218c1.909,0,3.819-0.725,5.282-2.176c2.94-2.917,2.959-7.666,0.042-10.606
			c-13.74-13.85-33.309-21.793-53.686-21.793c-20.378,0-39.945,7.943-53.685,21.793c-2.917,2.94-2.898,7.689,0.042,10.606
			C88.365,117.862,93.114,117.845,96.032,114.904z"/>
		<path d="M209.525,344.595c4.143,0,7.5-3.357,7.5-7.5v-16.794c0-4.143-3.357-7.5-7.5-7.5s-7.5,3.357-7.5,7.5v16.794
			C202.025,341.237,205.382,344.595,209.525,344.595z"/>
		<path d="M185.069,312.801c-4.143,0-7.5,3.357-7.5,7.5v16.794c0,4.143,3.357,7.5,7.5,7.5s7.5-3.357,7.5-7.5v-16.794
			C192.569,316.158,189.211,312.801,185.069,312.801z"/>
	</g>
</g>
<g>
</g>
<g>
</g>
<g>
</g>
<g>
</g>
<g>
</g>
<g>
</g>
<g>
</g>
<g>
</g>
<g>
</g>
<g>
</g>
<g>
</g>
<g>
</g>
<g>
</g>
<g>
</g>
<g>
</g>
</svg>
