<?xml version="1.0" encoding="iso-8859-1"?>
<!-- Generator: Adobe Illustrator 23.0.3, SVG Export Plug-In . SVG Version: 6.00 Build 0)  -->
<svg version="1.1" id="Capa_1" xmlns="http://www.w3.org/2000/svg" xmlns:xlink="http://www.w3.org/1999/xlink" x="0px" y="0px"
	 viewBox="0 0 511.992 511.992" style="enable-background:new 0 0 511.992 511.992;" xml:space="preserve">
<g>
	<g>
		<g>
			<path style="fill:#FFF5F5;" d="M222.148,52.51v206.811c0,5.16-4.051,9.375-9.154,9.636c-0.164,0.01-0.328,0.01-0.492,0.01H50.263
				c-5.324,0-9.646-4.321-9.646-9.646V52.51c0-5.324,4.321-9.646,9.646-9.646h162.239C217.826,42.864,222.148,47.185,222.148,52.51z
				"/>
			<path style="fill:#E0D3CE;" d="M222.148,52.51v206.811c0,5.16-4.051,9.375-9.154,9.636h-25.146c5.324,0,9.646-4.312,9.646-9.646
				V52.51c0-5.334-4.321-9.646-9.646-9.646h24.654C217.826,42.864,222.148,47.185,222.148,52.51z"/>
		</g>
		<g>
			<g>
				<g>
					<path style="fill:#C86D3D;" d="M486.491,504.492H191.533c-5.387,0-9.755-4.367-9.755-9.755V326.225
						c0-44.635,36.184-80.819,80.819-80.819h152.83c44.635,0,80.819,36.184,80.819,80.819v168.512
						C496.246,500.124,491.878,504.492,486.491,504.492z"/>
					<g>
						<g>
							<path style="fill:#DB885D;" d="M398.194,253.419l36.898,28.295c4.797,3.679,5.004,10.837,0.426,14.786l-54.601,47.105
								l17.057,24.889c2.624,3.829,2.109,8.992-1.219,12.227l-57.743,56.127v-183.43H398.194z"/>
						</g>
						<g>
							<path style="fill:#DB885D;" d="M279.83,253.419l-36.898,28.295c-4.798,3.679-5.004,10.837-0.426,14.786l54.601,47.105
								l-17.057,24.889c-2.624,3.829-2.109,8.992,1.219,12.227l57.743,56.127v-183.43H279.83z"/>
						</g>
					</g>
					<path style="fill:#AC5E33;" d="M496.241,326.224v168.514c0,5.384-4.36,9.754-9.754,9.754h-20.922
						c5.384,0,9.754-4.37,9.754-9.754V326.224c0-44.633-36.186-80.819-80.819-80.819h20.922
						C460.065,245.405,496.241,281.591,496.241,326.224z"/>
				</g>
			</g>
			<g>
				<g>
					<circle style="fill:#FFBC8A;" cx="438.23" cy="154.266" r="22.568"/>
				</g>
				<g>
					<circle style="fill:#FFBC8A;" cx="239.794" cy="154.266" r="22.568"/>
				</g>
			</g>
			<path style="fill:#FDD1A7;" d="M339.012,272.98L339.012,272.98c-45.912,0-83.787-35.944-86.187-81.793l-5.854-111.836h184.082
				l-5.854,111.836C422.799,237.036,384.923,272.98,339.012,272.98z"/>
			<g>
				<ellipse style="fill:#DB885D;" cx="339.012" cy="115.935" rx="159.187" ry="46.616"/>
				<path style="fill:#C86D3D;" d="M498.197,115.939c0,14.131-21.482,26.803-55.407,35.346
					c18.488-9.973,29.367-22.169,29.367-35.346s-10.87-25.372-29.348-35.346C476.724,89.137,498.197,101.799,498.197,115.939z"/>
			</g>
			<g>
				<path style="fill:#C86D3D;" d="M432.063,38.447v64.897c0,4.599-3.278,8.538-7.8,9.38c-24.648,4.586-53.893,7.243-85.251,7.243
					s-60.603-2.658-85.251-7.243c-4.522-0.841-7.8-4.78-7.8-9.38V38.447c0-22.832,23.899-37.79,44.431-27.803
					c15.327,7.455,31.665,15.366,48.62,15.366c16.956,0,33.293-7.911,48.62-15.366C408.164,0.657,432.063,15.615,432.063,38.447z"/>
				<path style="fill:#AC5E33;" d="M432.063,38.448v64.894c0,4.596-3.28,8.543-7.8,9.382c-6.608,1.23-13.549,2.317-20.767,3.252
					c1.85-1.745,2.975-4.214,2.975-6.913V38.448c0-12.958-7.704-23.38-18.116-28.137C408.721,1.014,432.063,15.879,432.063,38.448z"
					/>
				<path style="fill:#FBCC85;" d="M432.063,70.514v32.829c0,4.596-3.28,8.543-7.8,9.382c-6.608,1.23-13.549,2.317-20.767,3.252
					c-19.709,2.574-41.534,3.995-64.484,3.995c-31.36,0-60.604-2.66-85.251-7.247c-4.52-0.839-7.8-4.786-7.8-9.382V70.514
					c0,4.596,3.28,8.534,7.8,9.373c24.648,4.586,53.891,7.247,85.251,7.247c24.114,0,46.978-1.573,67.459-4.396
					c6.159-0.839,12.1-1.792,17.792-2.851C428.783,79.048,432.063,75.11,432.063,70.514z"/>
				<path style="fill:#D8AA64;" d="M432.063,70.514v32.829c0,4.596-3.28,8.543-7.8,9.382c-6.608,1.23-13.549,2.317-20.767,3.252
					c1.85-1.745,2.975-4.214,2.975-6.913V82.738c6.159-0.839,12.1-1.792,17.792-2.851C428.783,79.048,432.063,75.11,432.063,70.514z
					"/>
			</g>
		</g>
		<g>
			<path style="fill:#B9ACAC;" d="M123.105,341.419V486.28c0,10.053-8.158,18.211-18.211,18.211
				c-10.053,0-18.211-8.158-18.211-18.211V341.419H123.105z"/>
			<path style="fill:#756F6F;" d="M123.104,341.415v144.867c0,10.053-8.156,18.209-18.209,18.209c-3.321,0-6.43-0.888-9.105-2.443
				c5.441-3.149,9.105-9.034,9.105-15.767V341.415H123.104z"/>
			<path style="fill:#FBCC85;" d="M123.104,458.141v28.142c0,10.053-8.156,18.209-18.209,18.209c-3.321,0-6.43-0.888-9.105-2.443
				c-5.44-3.149-9.105-9.034-9.105-15.767v-28.142H123.104z"/>
			<path style="fill:#D8AA64;" d="M123.104,458.141v28.142c0,10.053-8.156,18.209-18.209,18.209c-3.321,0-6.43-0.888-9.105-2.443
				c5.441-3.149,9.105-9.034,9.105-15.767v-28.142H123.104z"/>
			<circle style="fill:#FBCC85;" cx="104.895" cy="268.919" r="91.102"/>
			<path style="fill:#77D47D;" d="M167.571,268.925c0,34.608-28.056,62.664-62.678,62.664c-14.124,0-27.161-4.681-37.651-12.569
				c-5.92-4.446-11.027-9.939-15.046-16.175c-6.319-9.774-9.981-21.42-9.981-33.92c0-34.622,28.069-62.678,62.678-62.678
				c12.513,0,24.146,3.648,33.934,9.967c6.236,4.02,11.715,9.127,16.175,15.033C162.891,241.737,167.571,254.774,167.571,268.925z"
				/>
			<path style="fill:#B0E5B1;" d="M155.003,231.247l-87.76,87.773c-5.92-4.446-11.027-9.939-15.046-16.175l86.631-86.631
				C145.063,220.234,150.542,225.342,155.003,231.247z"/>
			<path style="fill:#B0E5B1;" d="M167.571,268.925c0,34.608-28.056,62.664-62.678,62.664c-9.237,0-17.992-1.996-25.88-5.575
				l82.983-82.983C165.575,250.919,167.571,259.688,167.571,268.925z"/>
		</g>
	</g>
	<g>
		<path d="M417.594,237.934c8.766-13.42,14.199-29.252,15.095-46.356l0.403-7.702c1.691,0.293,3.409,0.457,5.138,0.457
			c16.579,0,30.067-13.488,30.067-30.067c0-1.006-0.065-2.007-0.165-3.004c24.646-9.429,37.566-21.508,37.566-35.327
			c0-24.402-39.86-37.72-66.136-43.844V38.447c0-13.326-6.745-25.502-18.042-32.569c-11.295-7.065-25.19-7.806-37.169-1.978
			c-14.769,7.183-30.039,14.61-45.341,14.61c-15.301,0-30.571-7.428-45.34-14.61c-11.979-5.828-25.875-5.087-37.169,1.978
			c-11.298,7.067-18.042,19.243-18.042,32.569V72.09c-2.802,0.653-5.761,1.388-8.814,2.212V52.51
			c0-9.454-7.691-17.146-17.146-17.146H50.262c-9.454,0-17.146,7.691-17.146,17.146v148.731c0,0.047,0.006,0.093,0.007,0.141
			C16.498,219.04,6.293,242.809,6.293,268.919c0,45.478,30.951,83.856,72.893,95.195v122.163c0,14.177,11.533,25.71,25.71,25.71
			s25.71-11.533,25.71-25.71V364.114c16.729-4.523,31.708-13.344,43.673-25.206v155.829c0,9.515,7.74,17.255,17.255,17.255
			c4.143,0,7.5-3.357,7.5-7.5s-3.357-7.5-7.5-7.5c-1.243,0-2.255-1.012-2.255-2.255V326.225c0-1.886,0.072-3.786,0.214-5.648
			c0.027-0.356,0.02-0.707-0.002-1.053c6.325-10.533,10.737-22.338,12.757-34.933c13.721-19.851,36.217-31.683,60.349-31.683h5.576
			l-29.806,22.855c-4.085,3.134-6.513,7.882-6.66,13.027c-0.148,5.146,2.002,10.025,5.899,13.389l49.52,42.723l-13.264,19.354
			c-4.701,6.86-3.786,16.047,2.178,21.844l55.471,53.918v63.189c0,4.143,3.357,7.5,7.5,7.5s7.5-3.357,7.5-7.5v-63.189l55.472-53.918
			c5.963-5.797,6.879-14.983,2.178-21.844L390.897,344.9l11.396-9.832c3.136-2.706,3.485-7.442,0.779-10.578
			c-2.707-3.138-7.442-3.486-10.578-0.779l-16.477,14.216c-2.893,2.496-3.447,6.767-1.287,9.918l17.057,24.89
			c0.562,0.82,0.452,1.917-0.26,2.609l-45.017,43.756v-138.92c18.501-1.465,35.532-8.303,49.491-18.99l34.524,26.475
			c0.669,0.513,0.786,1.195,0.797,1.557c0.01,0.361-0.067,1.05-0.705,1.6L418.46,301.31c-3.136,2.705-3.485,7.441-0.779,10.578
			c1.483,1.719,3.576,2.601,5.682,2.601c1.735,0,3.479-0.599,4.896-1.821l12.159-10.489c3.897-3.363,6.048-8.243,5.899-13.389
			s-2.576-9.895-6.662-13.027l-29.805-22.855h5.577c40.429,0,73.319,32.891,73.319,73.318v168.512c0,1.243-1.012,2.255-2.255,2.255
			c-4.143,0-7.5,3.357-7.5,7.5s3.357,7.5,7.5,7.5c9.515,0,17.255-7.74,17.255-17.255V326.225
			C503.746,278.251,465.296,239.089,417.594,237.934z M339.012,265.48c-41.937,0-76.504-32.806-78.697-74.685l-1.411-26.953
			c24.185,4.051,51.604,6.208,80.108,6.208c28.504,0,55.923-2.157,80.108-6.208l-1.411,26.951
			C415.516,232.674,380.948,265.48,339.012,265.48z M243.732,160.959l0.404,7.718c-1.397,0.421-2.845,0.657-4.343,0.657
			c-7.636,0-13.947-5.713-14.922-13.087C230.808,157.97,237.113,159.542,243.732,160.959z M229.646,182.567
			c3.172,1.141,6.588,1.766,10.147,1.766c1.743,0,3.458-0.147,5.14-0.436l0.402,7.682c0.895,17.106,6.329,32.94,15.098,46.361
			c-10.706,0.261-21.112,2.454-30.787,6.344V182.567z M438.23,169.334c-1.48,0-2.943-0.224-4.344-0.644l0.404-7.73
			c6.62-1.417,12.925-2.989,18.861-4.712C452.177,163.62,445.866,169.334,438.23,169.334z M264.458,18.594
			c6.883-4.307,15.35-4.756,22.653-1.206c15.536,7.557,33.145,16.122,51.9,16.122c18.757,0,36.365-8.565,51.902-16.122
			c7.299-3.552,15.769-3.101,22.651,1.206c6.887,4.308,10.998,11.729,10.998,19.853v33.95c-0.549-0.021-1.109,0.012-1.672,0.117
			c-25.033,4.657-54.038,7.119-83.88,7.119c-29.841,0-58.846-2.462-83.879-7.119c-0.563-0.105-1.122-0.138-1.672-0.116V38.447
			C253.461,30.324,257.572,22.902,264.458,18.594z M252.388,120.096c3.325,0.619,6.883,1.226,10.574,1.804
			c4.098,0.646,7.929-2.159,8.569-6.251c0.64-4.093-2.158-7.929-6.251-8.569c-3.55-0.555-6.964-1.137-10.149-1.73
			c-0.968-0.18-1.671-1.023-1.671-2.006V87.452c25.677,4.696,55.225,7.181,85.551,7.181c30.327,0,59.875-2.485,85.552-7.181v15.891
			c0,0.982-0.703,1.826-1.673,2.007c-25.025,4.656-54.031,7.117-83.879,7.117c-13.56,0-27.056-0.512-40.112-1.521
			c-4.156-0.343-7.736,2.771-8.056,6.899c-0.319,4.13,2.77,7.736,6.899,8.056c13.439,1.039,27.324,1.565,41.269,1.565
			c30.753,0,60.707-2.549,86.622-7.37c8.071-1.501,13.93-8.547,13.93-16.754v-15.83c35.252,8.664,51.136,20.318,51.136,28.422
			c0,6.315-10.799,16.853-41.232,25.765c-29.401,8.61-68.628,13.352-110.455,13.352c-41.826,0-81.053-4.741-110.454-13.352
			c-30.434-8.912-41.232-19.449-41.232-25.765c0-8.093,15.883-19.754,51.136-28.421v15.829
			C238.461,111.55,244.318,118.596,252.388,120.096z M115.605,450.641h-21.42v-54.33h21.42V450.641z M104.895,496.987
			c-5.905,0-10.71-4.805-10.71-10.71v-20.636h21.42v20.636C115.605,492.182,110.801,496.987,104.895,496.987z M115.605,381.311
			h-21.42v-14.374c3.519,0.382,7.091,0.584,10.71,0.584s7.191-0.202,10.71-0.584V381.311z M104.895,352.521
			c-46.099,0-83.603-37.504-83.603-83.603c0-46.098,37.504-83.602,83.603-83.602s83.603,37.504,83.603,83.602
			C188.498,315.017,150.994,352.521,104.895,352.521z M203.17,260.893c-4.098-50.629-46.607-90.576-98.274-90.576
			c-21.123,0-40.715,6.679-56.778,18.033V52.51c0-1.183,0.963-2.146,2.146-2.146h162.238c1.183,0,2.146,0.963,2.146,2.146v26.406
			c-21.444,7.516-42.321,19.366-42.321,37.019c0,13.816,12.916,25.895,37.556,35.323c-0.099,0.996-0.154,1.999-0.154,3.008
			c0,6.07,1.814,11.722,4.92,16.453v81.334C210.599,254.671,206.76,257.626,203.17,260.893z M286.236,372.734l17.057-24.89
			c2.16-3.151,1.605-7.422-1.287-9.918l-54.601-47.105c-0.638-0.55-0.715-1.238-0.705-1.6c0.011-0.361,0.128-1.044,0.795-1.557
			l34.525-26.475c13.959,10.687,30.99,17.525,49.491,18.99v138.92l-45.016-43.756C285.784,374.651,285.675,373.554,286.236,372.734z
			"/>
		<path d="M243.368,368.624c-4.143,0-7.5,3.357-7.5,7.5v128.368c0,4.143,3.357,7.5,7.5,7.5s7.5-3.357,7.5-7.5V376.124
			C250.868,371.981,247.511,368.624,243.368,368.624z"/>
		<path d="M434.656,368.624c-4.143,0-7.5,3.357-7.5,7.5v128.368c0,4.143,3.357,7.5,7.5,7.5s7.5-3.357,7.5-7.5V376.124
			C442.156,371.981,438.799,368.624,434.656,368.624z"/>
		<path d="M298.781,175.856c-4.143,0-7.5,3.407-7.5,7.55s3.357,7.5,7.5,7.5s7.5-3.357,7.5-7.5v-0.1
			C306.281,179.164,302.924,175.856,298.781,175.856z"/>
		<path d="M379.243,175.856c-4.143,0-7.5,3.407-7.5,7.55s3.357,7.5,7.5,7.5s7.5-3.357,7.5-7.5v-0.1
			C386.743,179.164,383.386,175.856,379.243,175.856z"/>
		<path d="M363.566,209.047c-3.978-1.145-8.135,1.154-9.281,5.135c-1.948,6.775-8.229,11.507-15.273,11.507
			s-13.324-4.731-15.272-11.507c-1.146-3.98-5.302-6.279-9.281-5.135c-3.98,1.146-6.279,5.301-5.135,9.281
			c3.787,13.165,15.995,22.36,29.688,22.36s25.902-9.195,29.689-22.36C369.845,214.348,367.547,210.193,363.566,209.047z"/>
		<path d="M352.763,376.285c0,4.143,3.357,7.5,7.5,7.5s7.5-3.357,7.5-7.5v-0.1c0-4.143-3.357-7.45-7.5-7.45
			S352.763,372.142,352.763,376.285z"/>
		<path d="M317.76,368.735c-4.143,0-7.5,3.407-7.5,7.55s3.357,7.5,7.5,7.5s7.5-3.357,7.5-7.5v-0.1
			C325.26,372.043,321.902,368.735,317.76,368.735z"/>
		<path d="M407.019,440.037c-4.143,0-7.5,3.407-7.5,7.55s3.357,7.5,7.5,7.5s7.5-3.357,7.5-7.5v-0.1
			C414.519,443.344,411.162,440.037,407.019,440.037z"/>
		<path d="M370.236,440.037c-4.143,0-7.5,3.407-7.5,7.55s3.357,7.5,7.5,7.5s7.5-3.357,7.5-7.5v-0.1
			C377.736,443.344,374.379,440.037,370.236,440.037z"/>
		<path d="M407.019,473.409c-4.143,0-7.5,3.407-7.5,7.55s3.357,7.5,7.5,7.5s7.5-3.357,7.5-7.5v-0.1
			C414.519,476.716,411.162,473.409,407.019,473.409z"/>
		<path d="M370.236,473.409c-4.143,0-7.5,3.407-7.5,7.55s3.357,7.5,7.5,7.5s7.5-3.357,7.5-7.5v-0.1
			C377.736,476.716,374.379,473.409,370.236,473.409z"/>
		<path d="M168.824,239.928c-11.365-25.017-36.459-41.181-63.931-41.181c-38.696,0-70.178,31.481-70.178,70.178
			c0,27.467,16.171,52.556,41.199,63.919c9.133,4.144,18.883,6.245,28.979,6.245c17.378,0,34.056-6.403,46.961-18.029
			c3.077-2.772,3.324-7.515,0.552-10.593c-2.774-3.078-7.517-3.323-10.593-0.552c-10.145,9.141-23.257,14.174-36.92,14.174
			c-7.943,0-15.608-1.65-22.779-4.904c-19.682-8.936-32.398-28.663-32.398-50.26c0-30.425,24.753-55.178,55.178-55.178
			c21.603,0,41.336,12.712,50.272,32.382c3.255,7.174,4.905,14.844,4.905,22.796c0,4.945-0.67,9.885-1.991,14.682
			c-1.101,3.994,1.245,8.123,5.238,9.223c3.999,1.1,8.123-1.246,9.223-5.238c1.679-6.095,2.53-12.375,2.53-18.666
			C175.071,258.821,172.97,249.066,168.824,239.928z"/>
		<path d="M78.226,89.173h27.977c4.143,0,7.5-3.357,7.5-7.5s-3.357-7.5-7.5-7.5H78.226c-4.143,0-7.5,3.357-7.5,7.5
			S74.084,89.173,78.226,89.173z"/>
		<path d="M78.226,122.431h79.989c4.143,0,7.5-3.357,7.5-7.5s-3.357-7.5-7.5-7.5H78.226c-4.143,0-7.5,3.357-7.5,7.5
			S74.084,122.431,78.226,122.431z"/>
		<path d="M176.931,136.7H78.226c-4.143,0-7.5,3.357-7.5,7.5s3.357,7.5,7.5,7.5h98.705c4.143,0,7.5-3.357,7.5-7.5
			S181.074,136.7,176.931,136.7z"/>
	</g>
</g>
<g>
</g>
<g>
</g>
<g>
</g>
<g>
</g>
<g>
</g>
<g>
</g>
<g>
</g>
<g>
</g>
<g>
</g>
<g>
</g>
<g>
</g>
<g>
</g>
<g>
</g>
<g>
</g>
<g>
</g>
</svg>
