<?xml version="1.0" encoding="iso-8859-1"?>
<!-- Generator: Adobe Illustrator 23.0.3, SVG Export Plug-In . SVG Version: 6.00 Build 0)  -->
<svg version="1.1" id="Capa_1" xmlns="http://www.w3.org/2000/svg" xmlns:xlink="http://www.w3.org/1999/xlink" x="0px" y="0px"
	 viewBox="0 0 511.997 511.997" style="enable-background:new 0 0 511.997 511.997;" xml:space="preserve">
<g>
	<g>
		<g>
			<g>
				<g>
					<path style="fill:#756F6F;" d="M322.427,359.258H466.06c19.595-18.85,31.79-45.34,31.79-74.681
						c0-57.225-46.387-103.612-103.602-103.612c-57.225,0-103.612,46.387-103.612,103.612
						C290.636,313.918,302.831,340.408,322.427,359.258z M394.248,271.324c7.315,0,13.253,5.938,13.253,13.253
						c0,7.315-5.938,13.253-13.253,13.253c-7.325,0-13.253-5.938-13.253-13.253C380.995,277.262,386.923,271.324,394.248,271.324z"
						/>
					<path style="fill:#5B5555;" d="M497.853,284.576c0,29.339-12.199,55.836-31.795,74.68h-20.487
						c19.596-18.843,31.795-45.34,31.795-74.68c0-53.767-40.954-97.968-93.354-103.107c3.367-0.337,6.783-0.505,10.238-0.505
						C451.463,180.964,497.853,227.354,497.853,284.576z"/>
					<g>
						<path style="fill:#E84649;" d="M394.248,242.183c-23.423,0-42.405,18.982-42.405,42.395c0,23.413,18.982,42.395,42.405,42.395
							c23.413,0,42.395-18.982,42.395-42.395C436.643,261.165,417.661,242.183,394.248,242.183z M394.248,297.831
							c-7.325,0-13.253-5.938-13.253-13.253c0-7.315,5.928-13.253,13.253-13.253c7.315,0,13.253,5.938,13.253,13.253
							C407.502,291.893,401.563,297.831,394.248,297.831z"/>
					</g>
				</g>
				<g>
					<path style="fill:#9E9797;" d="M394.248,296.743c-57.225,0-103.612,46.387-103.612,103.612
						c0,57.225,46.387,103.612,103.612,103.612c57.215,0,103.602-46.387,103.602-103.612
						C497.851,343.131,451.463,296.743,394.248,296.743z M394.248,413.609c-7.325,0-13.253-5.938-13.253-13.253
						c0-7.315,5.928-13.253,13.253-13.253c7.315,0,13.253,5.938,13.253,13.253C407.502,407.671,401.563,413.609,394.248,413.609z"/>
					<path style="fill:#756F6F;" d="M497.853,400.358c0,57.223-46.39,103.613-103.603,103.613c-3.456,0-6.872-0.168-10.238-0.505
						c52.4-5.139,93.354-49.341,93.354-103.108c0-53.777-40.954-97.969-93.354-103.108c3.367-0.337,6.783-0.505,10.238-0.505
						C451.463,296.746,497.853,343.126,497.853,400.358z"/>
					<g>
						<path style="fill:#ED6264;" d="M394.248,357.961c-23.423,0-42.405,18.982-42.405,42.395c0,23.413,18.982,42.395,42.405,42.395
							c23.413,0,42.395-18.982,42.395-42.395C436.643,376.943,417.661,357.961,394.248,357.961z M394.248,413.609
							c-7.325,0-13.253-5.938-13.253-13.253c0-7.315,5.928-13.253,13.253-13.253c7.315,0,13.253,5.938,13.253,13.253
							C407.502,407.671,401.563,413.609,394.248,413.609z"/>
					</g>
				</g>
			</g>
			<g>
				<g>
					<g>
						
							<ellipse transform="matrix(0.9397 -0.342 0.342 0.9397 -15.424 157.664)" style="fill:#65BAFC;" cx="439.367" cy="122.569" rx="19.748" ry="11.483"/>
					</g>
					<g>
						
							<ellipse transform="matrix(0.9397 -0.342 0.342 0.9397 -24.6728 136.8171)" style="fill:#65BAFC;" cx="375.628" cy="138.372" rx="19.748" ry="11.483"/>
					</g>
				</g>
			</g>
		</g>
		<g>
			<g>
				<g>
					<path style="fill:#F37D7E;" d="M255.707,263.02H25.293c-6.158,0-11.149-4.992-11.149-11.149V133.856
						C14.144,64.072,70.716,7.5,140.5,7.5h0c69.784,0,126.356,56.571,126.356,126.356v118.014
						C266.856,258.028,261.864,263.02,255.707,263.02z"/>
					<path style="fill:#ED6264;" d="M266.857,133.86v118.016c0,6.154-4.995,11.149-11.149,11.149h-21.786
						c6.166,0,11.149-4.995,11.149-11.149V133.86c0-34.898-14.149-66.484-37.005-89.351c-20.459-20.448-47.909-33.928-78.459-36.526
						c3.59-0.323,7.225-0.479,10.893-0.479c34.898,0,66.484,14.149,89.352,37.005C252.708,67.376,266.857,98.963,266.857,133.86z"/>
				</g>
				<path style="fill:#2EA8FC;" d="M265.873,337.029v155.794c0,6.153-4.995,11.148-11.148,11.148H26.278
					c-6.153,0-11.148-4.995-11.148-11.148V337.029c0-33.854,18.58-63.372,46.101-78.906c11.887-6.713,25.443-10.818,39.887-11.528
					c0.1-0.01,0.2-0.02,0.3-0.02c1.408-0.07,2.837-0.1,4.265-0.1h69.636c1.428,0,2.857,0.03,4.265,0.1
					c14.564,0.679,28.22,4.785,40.187,11.548C247.293,273.656,265.873,303.175,265.873,337.029z"/>
				<path style="fill:#0086F9;" d="M265.87,337.031v155.791c0,6.158-4.992,11.149-11.149,11.149h-13.056v-166.94
					c0-50.016-40.539-90.556-90.556-90.556h24.205C225.326,246.475,265.87,287.018,265.87,337.031z"/>
				<g>
					<g>
						<path style="fill:#F69798;" d="M219.772,258.123V504.5h-40.187V246.575C194.149,247.255,207.805,251.36,219.772,258.123z"/>
						<path style="fill:#F69798;" d="M101.418,246.575V504.5H61.231V258.123c11.887-6.713,25.443-10.818,39.887-11.528
							C101.218,246.585,101.318,246.575,101.418,246.575z"/>
						<path style="fill:#DAEDFF;" d="M179.585,246.575V504.5h-78.466V246.595c0.1-0.01,0.2-0.02,0.3-0.02
							c1.408-0.07,2.837-0.1,4.265-0.1h69.636C176.748,246.475,178.176,246.505,179.585,246.575z"/>
					</g>
					<rect x="101.114" y="371.406" style="fill:#E84649;" width="78.472" height="48.103"/>
				</g>
				<g>
					<g>
						<path style="fill:#2EA8FC;" d="M71.685,168.216h-23.89c-4.479,0-8.11,3.631-8.11,8.11v29.53c0,4.479,3.631,8.11,8.11,8.11
							h23.89V168.216z"/>
					</g>
					<g>
						<path style="fill:#2EA8FC;" d="M209.018,213.966h23.89c4.479,0,8.11-3.631,8.11-8.11v-29.53c0-4.479-3.631-8.11-8.11-8.11
							h-23.89V213.966z"/>
					</g>
				</g>
				<path style="fill:#FDD1A7;" d="M81.827,116.18c-14.364,0-25.49,12.568-23.748,26.825l8.005,65.537
					c4.594,37.611,36.528,65.882,74.418,65.882l0,0c37.89,0,69.825-28.271,74.418-65.882l8.005-65.537
					c1.741-14.258-9.385-26.825-23.748-26.825H81.827z"/>
				<line style="fill:#F69583;" x1="192.601" y1="233.187" x2="192.601" y2="233.284"/>
				<path style="fill:#F69583;" d="M91.747,218.408c-4.527,0-8.197-3.67-8.197-8.197c0-4.527,3.67-8.245,8.197-8.245
					c4.527,0,8.197,3.621,8.197,8.148v0.097C99.944,214.738,96.274,218.408,91.747,218.408z"/>
				<path style="fill:#F69583;" d="M189.256,218.408c-4.527,0-8.197-3.67-8.197-8.197c0-4.527,3.67-8.245,8.197-8.245
					c4.527,0,8.197,3.621,8.197,8.148v0.097C197.453,214.738,193.783,218.408,189.256,218.408z"/>
				<path style="fill:#F37D7E;" d="M230.543,147.634c-3.456,1.973-36.592,3.802-73.609,4.515L140.5,128.412l-16.646,24.049
					c-35.355-0.033-67.32-1.36-73.397-4.828c-6.155-15.152-4.56-32.121,0.747-48.377h178.592
					C235.103,115.512,236.697,132.482,230.543,147.634z"/>
			</g>
		</g>
	</g>
	<g>
		<path d="M505.353,284.577c0-61.266-49.843-111.108-111.108-111.108c-19.923,0-39.477,5.345-56.547,15.455
			c-3.564,2.111-4.742,6.712-2.631,10.275c2.111,3.564,6.71,4.742,10.275,2.631c14.757-8.741,31.667-13.361,48.902-13.361
			c52.994,0,96.108,43.114,96.108,96.108c0,15.619-3.767,30.842-10.93,44.521c-10.262-12.247-23.109-22.255-37.695-29.179
			c1.596-4.93,2.412-10.067,2.412-15.342c0-27.513-22.383-49.896-49.896-49.896c-27.513,0-49.896,22.384-49.896,49.896
			c0,5.277,0.819,10.413,2.415,15.341c-14.588,6.924-27.436,16.934-37.699,29.182c-7.165-13.678-10.928-28.893-10.928-44.524
			c0-22.379,7.862-44.17,22.137-61.359c2.646-3.187,2.208-7.915-0.978-10.562c-3.186-2.646-7.915-2.209-10.562,0.978
			c-16.506,19.877-25.597,45.071-25.597,70.943c0,20.56,5.626,40.508,16.287,57.922c-10.327,16.862-16.287,36.676-16.287,57.856
			c0,61.266,49.843,111.108,111.108,111.108s111.108-49.843,111.108-111.108c0-21.183-5.962-40.999-16.291-57.863
			C499.719,325.081,505.353,305.12,505.353,284.577z M359.348,284.577c0-19.242,15.654-34.896,34.896-34.896
			c19.242,0,34.896,15.654,34.896,34.896c0,3.373-0.48,6.661-1.41,9.83c-4.474-1.417-9.069-2.562-13.766-3.407
			c0.67-2.049,1.033-4.212,1.033-6.423c0-11.443-9.31-20.753-20.752-20.753c-11.443,0-20.753,9.31-20.753,20.753
			c0,2.213,0.363,4.376,1.032,6.424c-4.698,0.845-9.292,1.99-13.767,3.407C359.827,291.239,359.348,287.951,359.348,284.577z
			 M388.492,284.577c0-3.172,2.581-5.753,5.753-5.753c3.172,0,5.752,2.581,5.752,5.753c0,1.889-0.945,3.65-2.484,4.722
			c-1.086-0.031-2.175-0.052-3.268-0.052c-1.094,0-2.183,0.02-3.269,0.052C389.436,288.228,388.492,286.469,388.492,284.577z
			 M394.245,496.464c-52.994,0-96.108-43.114-96.108-96.108s43.114-96.108,96.108-96.108s96.108,43.114,96.108,96.108
			S447.239,496.464,394.245,496.464z"/>
		<path d="M394.245,350.459c-27.513,0-49.896,22.384-49.896,49.896s22.383,49.896,49.896,49.896
			c27.513,0,49.896-22.384,49.896-49.896S421.757,350.459,394.245,350.459z M394.245,435.252c-19.242,0-34.896-15.654-34.896-34.896
			s15.654-34.896,34.896-34.896c19.242,0,34.896,15.654,34.896,34.896S413.486,435.252,394.245,435.252z"/>
		<path d="M394.245,379.603c-11.443,0-20.753,9.31-20.753,20.753s9.31,20.753,20.753,20.753c11.443,0,20.752-9.31,20.752-20.753
			S405.688,379.603,394.245,379.603z M394.245,406.108c-3.172,0-5.753-2.581-5.753-5.753s2.581-5.753,5.753-5.753
			c3.172,0,5.752,2.581,5.752,5.753S397.417,406.108,394.245,406.108z"/>
		<path d="M369.088,158.636c4.085,0,8.521-0.784,13.033-2.426c12.488-4.546,20.299-13.749,19.979-22.681V66.438l48.739-13.346
			v49.621c-5.311-0.915-11.561-0.313-17.964,2.017c-14.596,5.313-22.813,16.988-19.112,27.158
			c2.557,7.025,9.934,10.944,19.064,10.944c4.085,0,8.521-0.784,13.033-2.426c12.527-4.56,20.347-13.806,19.975-22.764
			c0-0.028,0.004-74.381,0.004-74.381c0-2.339-1.091-4.544-2.951-5.963c-1.858-1.418-4.273-1.888-6.53-1.271l-63.739,17.453
			c-3.259,0.893-5.519,3.854-5.519,7.233v57.802c-5.311-0.915-11.56-0.313-17.964,2.017c-6.182,2.25-11.568,5.866-15.166,10.182
			c-4.479,5.371-5.917,11.56-3.945,16.977C352.581,154.717,359.958,158.636,369.088,158.636z M440.729,126.312
			c-6.661,2.425-11.671,1.34-12.813,0.425c0.286-1.434,3.425-5.485,10.088-7.91c6.662-2.424,11.671-1.339,12.813-0.425
			C450.531,119.835,447.392,123.887,440.729,126.312z M374.265,134.629c6.663-2.425,11.671-1.339,12.813-0.425
			c-0.286,1.434-3.425,5.485-10.088,7.91c-6.662,2.425-11.672,1.338-12.813,0.425C364.463,141.105,367.603,137.054,374.265,134.629z
			"/>
		<path d="M140.5,0C66.691,0,6.644,60.048,6.644,133.856v118.015c0,10.283,8.366,18.649,18.649,18.649h8.313
			c-16.271,17.655-25.973,41.164-25.973,66.505v155.796c0,10.283,8.366,18.649,18.65,18.649c4.142,0,7.5-3.357,7.5-7.5
			s-3.358-7.5-7.5-7.5c-2.013,0-3.65-1.637-3.65-3.649V337.025c0-25.843,11.908-49.435,31.1-64.831v74.82c0,4.143,3.358,7.5,7.5,7.5
			s7.5-3.357,7.5-7.5v-84.405c4.188-2.077,8.594-3.813,13.184-5.179c3.588,3.622,7.502,6.91,11.697,9.817v237.25
			c0,4.143,3.358,7.5,7.5,7.5s7.5-3.357,7.5-7.5v-77.488h63.472v77.488c0,4.143,3.358,7.5,7.5,7.5s7.5-3.357,7.5-7.5V267.461
			c4.31-2.958,8.325-6.32,12.001-10.031c4.589,1.365,8.995,3.101,13.182,5.177v241.889c0,4.143,3.358,7.5,7.5,7.5s7.5-3.357,7.5-7.5
			V272.193c19.193,15.396,31.102,38.989,31.102,64.833v58.68c0,4.143,3.358,7.5,7.5,7.5s7.5-3.357,7.5-7.5v-58.68
			c0-25.341-9.702-48.85-25.973-66.505h8.31c10.283,0,18.649-8.366,18.649-18.649V133.856C274.356,60.048,214.309,0,140.5,0z
			 M58.274,206.466H47.795c-0.336,0-0.61-0.273-0.61-0.609v-29.53c0-0.337,0.274-0.61,0.61-0.61h6.722L58.274,206.466z
			 M108.614,412.009v-33.103h63.472v33.103H108.614z M172.085,363.906h-63.472v-88.423c9.849,4.144,20.629,6.44,31.888,6.44
			c11.144,0,21.817-2.252,31.584-6.315V363.906z M140.501,266.924c-34.053,0-62.845-25.49-66.974-59.292l-6.031-49.379
			c11.2,0.955,28.687,1.682,56.351,1.708c0.002,0,0.004,0,0.007,0c2.461,0,4.766-1.208,6.167-3.231l10.48-15.141l10.267,14.83
			c1.431,2.065,3.814,3.282,6.311,3.229c18.566-0.358,36.213-0.997,49.689-1.798c2.521-0.15,4.784-0.299,6.842-0.447l-6.135,50.228
			C203.347,241.434,174.554,266.924,140.501,266.924z M226.485,175.716h6.423c0.336,0,0.61,0.273,0.61,0.61v29.53
			c0,0.336-0.273,0.609-0.61,0.609h-10.179L226.485,175.716z M259.356,251.871c0,2.013-1.637,3.649-3.649,3.649h-25.817
			c-6.364-4.263-13.29-7.8-20.669-10.51c4.736-7.125,8.398-15.045,10.751-23.545h12.937c8.607,0,15.61-7.002,15.61-15.609v-29.53
			c0-8.607-7.002-15.61-15.61-15.61h-4.591l0.601-4.918c3.518-0.613,4.51-1.175,5.344-1.651c3.597-2.054,4.848-6.635,2.794-10.231
			c-1.94-3.397-6.136-4.702-9.624-3.106c-3.991,1.089-26.838,2.905-66.624,3.761l-14.142-20.427c-1.401-2.023-3.706-3.23-6.167-3.23
			c-2.461,0-4.766,1.208-6.167,3.231l-14.403,20.809c-45.521-0.168-62.78-2.484-65.825-3.871c-3.586-1.997-8.122-0.738-10.162,2.835
			c-2.053,3.598-0.801,8.179,2.796,10.231c0.842,0.481,2.115,1.205,5.385,1.981l0.56,4.587h-4.89c-8.607,0-15.61,7.003-15.61,15.61
			v29.53c0,8.607,7.003,15.609,15.61,15.609h13.236c2.352,8.5,6.014,16.419,10.75,23.544c-7.378,2.71-14.305,6.248-20.669,10.51
			h-25.82c-2.012,0-3.649-1.637-3.649-3.649V133.856C21.644,68.318,74.963,15,140.5,15c65.537,0,118.855,53.318,118.855,118.856
			V251.871z"/>
		<path d="M61.232,374.087c-4.142,0-7.5,3.357-7.5,7.5v122.91c0,4.143,3.358,7.5,7.5,7.5s7.5-3.357,7.5-7.5v-122.91
			C68.732,377.444,65.375,374.087,61.232,374.087z"/>
		<path d="M265.87,427.528c-4.142,0-7.5,3.357-7.5,7.5v57.793c0,2.013-1.637,3.649-3.649,3.649c-4.142,0-7.5,3.357-7.5,7.5
			s3.358,7.5,7.5,7.5c10.283,0,18.649-8.366,18.649-18.649v-57.793C273.37,430.886,270.012,427.528,265.87,427.528z"/>
		<path d="M101.518,176.433c-4.142,0-7.5,3.405-7.5,7.548s3.358,7.5,7.5,7.5s7.5-3.357,7.5-7.5v-0.096
			C109.018,179.742,105.66,176.433,101.518,176.433z"/>
		<path d="M179.486,176.433c-4.142,0-7.5,3.405-7.5,7.548s3.358,7.5,7.5,7.5s7.5-3.357,7.5-7.5v-0.096
			C186.986,179.742,183.628,176.433,179.486,176.433z"/>
		<path d="M164.359,208.604c-3.983-1.143-8.136,1.154-9.281,5.135c-1.859,6.467-7.854,10.982-14.576,10.982
			c-6.722,0-12.716-4.516-14.576-10.982c-1.145-3.98-5.298-6.28-9.281-5.135c-3.98,1.146-6.279,5.3-5.135,9.281
			c3.698,12.856,15.62,21.836,28.992,21.836c13.373,0,25.294-8.979,28.992-21.836C170.638,213.904,168.339,209.75,164.359,208.604z"
			/>
	</g>
</g>
<g>
</g>
<g>
</g>
<g>
</g>
<g>
</g>
<g>
</g>
<g>
</g>
<g>
</g>
<g>
</g>
<g>
</g>
<g>
</g>
<g>
</g>
<g>
</g>
<g>
</g>
<g>
</g>
<g>
</g>
</svg>
