<?xml version="1.0" encoding="iso-8859-1"?>
<!-- Generator: Adobe Illustrator 23.0.3, SVG Export Plug-In . SVG Version: 6.00 Build 0)  -->
<svg version="1.1" id="Capa_1" xmlns="http://www.w3.org/2000/svg" xmlns:xlink="http://www.w3.org/1999/xlink" x="0px" y="0px"
	 viewBox="0 0 511.997 511.997" style="enable-background:new 0 0 511.997 511.997;" xml:space="preserve">
<g>
	<g>
		<g>
			<g>
				<path style="fill:#FF872A;" d="M134.318,481.517H31.867c-13.457,0-24.367-10.909-24.367-24.367V158.037
					c0-7.623,3.629-14.792,9.772-19.305l0.521-0.383c39.079-28.708,92.317-28.555,131.23,0.378l0,0
					c6.079,4.52,9.661,11.648,9.661,19.223v299.201C158.685,470.608,147.775,481.517,134.318,481.517z"/>
				<path style="fill:#F36717;" d="M158.687,157.952v299.199c0,13.457-10.909,24.367-24.367,24.367h-2.226V157.952
					c0-3.79-0.9-7.471-2.55-10.761c-1.65-3.29-4.07-6.201-7.111-8.461c-15.812-11.751-33.974-18.762-52.596-21.002
					c27.453-3.33,55.886,3.68,79.189,21.002c3.04,2.26,5.451,5.171,7.111,8.461C157.797,150.481,158.687,154.161,158.687,157.952z"
					/>
				<g>
					<rect x="7.5" y="188.975" style="fill:#756F6F;" width="151.185" height="65.965"/>
					<rect x="132.094" y="188.975" style="fill:#5B5555;" width="26.593" height="65.966"/>
				</g>
				<g>
					<rect x="7.5" y="369.669" style="fill:#756F6F;" width="151.185" height="50.965"/>
				</g>
				<path style="fill:#756F6F;" d="M83.092,138.48L83.092,138.48c-8.254,0-14.945-6.691-14.945-14.945V66.168
					c0-5.523,4.478-10.001,10.001-10.001h9.888c5.523,0,10.001,4.478,10.001,10.001v57.367
					C98.037,131.789,91.346,138.48,83.092,138.48z"/>
				<g>
					<g>
						<g>
							<path style="fill:#1475CC;" d="M412.087,314.175v175.197c0,5.601-4.541,10.142-10.142,10.142H107.411
								c-5.601,0-10.142-4.541-10.142-10.142V314.175c0-34.471,20.77-64.105,50.475-77.056c10.273-4.483,21.622-6.967,33.549-6.967
								h146.77c4.594,0,9.107,0.365,13.498,1.085c7.018,1.126,13.732,3.124,20.05,5.882
								C391.316,250.07,412.087,279.703,412.087,314.175z"/>
							<rect x="147.745" y="395.739" style="fill:#FF872A;" width="213.864" height="71.775"/>
							<rect x="147.745" y="395.739" style="fill:#93DD96;" width="213.864" height="45.865"/>
							<path style="fill:#0057A1;" d="M412.087,314.177v175.197c0,5.598-4.544,10.142-10.142,10.142h-23.377
								c5.598,0,10.142-4.543,10.142-10.142V314.177c0-34.471-20.77-64.105-50.475-77.056c-6.318-2.759-13.032-4.756-20.05-5.882
								c-4.391-0.72-8.904-1.085-13.499-1.085h23.376c4.594,0,9.107,0.365,13.499,1.085c7.018,1.126,13.732,3.124,20.05,5.882
								C391.316,250.071,412.087,279.705,412.087,314.177z"/>
						</g>
						<g>
							<path style="fill:#FDD1A7;" d="M251.678,283.219L251.678,283.219c-49.352,0-90.065-38.638-92.645-87.922l-3.534-67.51
								c-1.5-28.652,21.328-52.706,50.02-52.706h92.319c28.691,0,51.519,24.054,50.02,52.706l-3.534,67.51
								C341.743,244.581,301.03,283.219,251.678,283.219z"/>
							<g>
								<path style="fill:#1475CC;" d="M339.086,110.996H164.27c-6.26,0-11.157-5.453-10.423-11.681
									c4.425-37.465,29.873-68.481,64.214-80.949c10.486-3.806,21.81-5.882,33.617-5.882s23.131,2.076,33.617,5.882
									c34.34,12.467,59.789,43.484,64.214,80.949C350.243,105.543,345.346,110.996,339.086,110.996z"/>
								<path style="fill:#0057A1;" d="M339.086,111h-24.169c6.26,0,11.157-5.453,10.423-11.681
									c-4.425-37.465-29.873-68.481-64.214-80.949c-6.847-2.485-14.061-4.236-21.527-5.148c3.953-0.482,7.99-0.734,12.079-0.734
									c11.807,0,23.131,2.076,33.617,5.882c34.34,12.467,59.789,43.484,64.214,80.949C350.243,105.548,345.346,111,339.086,111z"
									/>
							</g>
						</g>
						<g>
							<path style="fill:#52CC61;" d="M356.025,149.018v35.264c0,18.762-15.212,33.974-33.974,33.974h-36.994
								c-8.161,0-15.452-4.571-19.142-11.511c-0.9-1.69-1.58-3.53-2.01-5.481l-5.621-25.503c-0.34-1.55-1.2-2.89-2.37-3.83
								c-1.17-0.94-2.65-1.49-4.24-1.49c-0.76,0-1.49,0.13-2.18,0.36c-1.96,0.67-3.54,2.21-4.22,4.22
								c-0.08,0.24-0.15,0.49-0.21,0.74l-5.621,25.503c-2.19,9.921-10.981,16.992-21.152,16.992h-36.994
								c-3.78,0-7.431-0.62-10.831-1.76c-7.491-2.52-13.822-7.581-17.942-14.162c-3.29-5.231-5.191-11.411-5.191-18.042v-35.274
								c0-5.991,4.861-10.851,10.851-10.851h186.981C351.165,138.167,356.025,143.028,356.025,149.018z"/>
							<path style="fill:#93DD96;" d="M282.127,138.167l-32.634,32.634c-1.96,0.67-3.54,2.21-4.22,4.22l-43.235,43.235h-16.492
								l80.089-80.089H282.127z"/>
							<path style="fill:#93DD96;" d="M248.783,138.167l-78.319,78.329c-7.491-2.52-13.822-7.581-17.942-14.162l64.167-64.167
								H248.783z"/>
							<path style="fill:#93DD96;" d="M356.025,149.018v7.081l-62.157,62.157h-8.811c-8.161,0-15.452-4.571-19.142-11.511
								l68.578-68.578h10.671C351.165,138.167,356.025,143.028,356.025,149.018z"/>
						</g>
					</g>
					<g>
						<path style="fill:#FF872A;" d="M290.5,283.226c0,6.53-1.749,12.636-4.809,17.911c-6.177,10.704-17.756,17.897-31.013,17.897
							s-24.836-7.193-31.013-17.897c-3.06-5.275-4.809-11.381-4.809-17.911c0-19.787,16.035-35.822,35.822-35.822
							S290.5,263.439,290.5,283.226z"/>
						<path style="fill:#52CC61;" d="M285.691,301.137c-6.177,10.704-17.756,17.897-31.013,17.897s-24.836-7.193-31.013-17.897
							c6.177-10.704,17.756-17.911,31.013-17.911S279.514,290.432,285.691,301.137z"/>
					</g>
				</g>
			</g>
		</g>
		<g>
			<path style="fill:#FF872A;" d="M478.333,424.287h-66.12l-25.949-170.136c-1.731-11.352,7.055-21.579,18.538-21.579h80.941
				c11.483,0,20.269,10.228,18.538,21.579L478.333,424.287z"/>
			<path style="fill:#F36717;" d="M504.277,254.152l-25.943,170.139h-21.472l25.953-170.139c1.73-11.351-7.061-21.582-18.542-21.582
				h21.472C497.227,232.57,506.018,242.801,504.277,254.152z"/>
			<circle style="fill:#E0D3CE;" cx="445.273" cy="439.18" r="42.337"/>
			<circle style="fill:#756F6F;" cx="445.273" cy="454.404" r="27.113"/>
		</g>
	</g>
	<path d="M505.658,234.218c-4.993-5.813-12.251-9.146-19.914-9.146h-11.628c-1.304-2.214-3.706-3.705-6.461-3.705
		s-5.157,1.49-6.461,3.705h-31.84c-1.304-2.214-3.706-3.705-6.461-3.705s-5.157,1.49-6.461,3.705h-11.628
		c-7.663,0-14.921,3.333-19.914,9.146c-1.455,1.694-2.666,3.55-3.633,5.512c-10.522-7.504-22.578-12.741-35.229-15.285
		c0.98-2.731,1.846-5.516,2.593-8.349c9.099-7.614,14.9-19.046,14.9-31.811V149.02c0-6.474-3.379-12.164-8.457-15.431l0.283-5.41
		c0.304-5.812-0.262-11.563-1.672-17.139c2.621-3.626,3.813-8.123,3.285-12.6c-6.293-53.281-51.554-93.459-105.281-93.459
		s-98.989,40.179-105.282,93.46c-0.529,4.478,0.664,8.976,3.288,12.603c-1.409,5.574-1.979,11.322-1.675,17.136l0.038,0.721
		c-4.754-3.131-9.733-5.908-14.882-8.32v-5.291c0-17.61-11.639-32.554-27.628-37.542v-11.58c0-9.65-7.851-17.501-17.501-17.501
		h-9.888c-9.65,0-17.501,7.851-17.501,17.501v9.806h-4.142c-4.142,0-7.5,3.358-7.5,7.5s3.358,7.5,7.5,7.5h4.142v20.614
		c-17.014,3.313-33.301,10.438-47.295,20.717l-0.521,0.382C4.797,138.59,0,148.066,0,158.037v299.114
		c0,17.571,14.295,31.867,31.867,31.867h57.904v0.358c0,9.728,7.914,17.642,17.642,17.642c4.142,0,7.5-3.358,7.5-7.5
		s-3.358-7.5-7.5-7.5c-1.457,0-2.642-1.185-2.642-2.642V314.179c0-16.013,4.907-30.975,13.394-43.356v20.02
		c0,35.234,28.665,63.898,63.898,63.898h45.499c7.278,0,14.034-2.263,19.614-6.114v39.611h-91.93v-10.915c0-4.142-3.358-7.5-7.5-7.5
		s-7.5,3.358-7.5,7.5v122.193c0,4.142,3.358,7.5,7.5,7.5s7.5-3.358,7.5-7.5v-24.503h91.93v24.503c0,4.142,3.358,7.5,7.5,7.5
		s7.5-3.358,7.5-7.5v-24.503h91.936v21.728c0,4.142,3.358,7.5,7.5,7.5s7.5-3.358,7.5-7.5V377.322c0-4.142-3.358-7.5-7.5-7.5
		s-7.5,3.358-7.5,7.5v10.917h-91.936v-62.368c12.643-2.217,23.414-9.927,29.751-20.579c0.196-0.294,0.374-0.597,0.526-0.913
		c3.522-6.262,5.541-13.478,5.541-21.16c0-1.259-0.066-2.503-0.172-3.735c17.933-9.297,32.417-23.585,41.883-40.942
		c14.741,2.235,28.273,8.641,39.442,18.68l6.602,43.288c0.625,4.095,4.45,6.908,8.545,6.283c4.095-0.625,6.908-4.45,6.283-8.545
		l-6.898-45.228c-0.495-3.247,0.448-6.538,2.588-9.029s5.251-3.92,8.536-3.92h10.589v15.012c0,4.142,3.358,7.5,7.5,7.5
		s7.5-3.358,7.5-7.5v-15.012h29.762v15.012c0,4.142,3.358,7.5,7.5,7.5s7.5-3.358,7.5-7.5v-15.012h10.589
		c3.284,0,6.396,1.429,8.536,3.92s3.083,5.782,2.588,9.029L474.614,398.93c-2.52-1.842-5.215-3.455-8.06-4.804l2.607-25.847
		c0.416-4.121-2.589-7.799-6.71-8.214c-4.125-0.42-7.799,2.587-8.214,6.709l-2.322,23.025c-2.174-0.291-4.388-0.456-6.641-0.456
		c-2.253,0-4.467,0.165-6.641,0.456l-2.322-23.025c-0.416-4.122-4.096-7.125-8.214-6.709c-4.121,0.416-7.125,4.093-6.709,8.214
		l2.607,25.847c-2.846,1.349-5.541,2.963-8.06,4.804l-9.919-65.033c-0.624-4.095-4.449-6.908-8.545-6.283
		c-4.095,0.625-6.908,4.45-6.283,8.545l11.717,76.822c-4.728,7.618-7.467,16.593-7.467,26.199c0,10.692,3.396,20.599,9.149,28.725
		v21.471c0,1.457-1.185,2.642-2.642,2.642c-4.142,0-7.5,3.358-7.5,7.5s3.358,7.5,7.5,7.5c9.728,0,17.642-7.914,17.642-17.642v-7.506
		c7.03,4.246,15.189,6.795,23.909,7.103c0.589,0.03,1.183,0.045,1.779,0.045s1.19-0.015,1.779-0.045
		c26.658-0.942,48.058-22.908,48.058-49.792c0-9.606-2.739-18.581-7.467-26.199l24.052-157.698
		C512.851,247.707,510.65,240.03,505.658,234.218z M247.176,403.239v30.865h-91.93v-30.865H247.176z M155.246,460.014v-10.91h91.93
		v10.91H155.246z M262.176,460.014v-10.91h91.936v10.91H262.176z M354.111,403.239v30.865h-91.936v-30.865H354.111z
		 M157.798,225.696c-8.852,2.329-17.116,5.929-24.633,10.56v-39.781h8.495c2.389,7.755,6.996,14.544,13.077,19.629
		C155.598,219.366,156.622,222.566,157.798,225.696z M154.831,184.289V149.02c0-1.848,1.503-3.352,3.352-3.352h16.608
		c4.142,0,7.5-3.358,7.5-7.5s-3.358-7.5-7.5-7.5h-11.63l-0.172-3.274c-0.158-3.016,0.006-6.004,0.47-8.94
		c0.271,0.012,0.539,0.043,0.811,0.043h174.817c0.273,0,0.541-0.031,0.812-0.043c0.464,2.936,0.626,5.925,0.468,8.94l-0.171,3.274
		H210.543c-4.142,0-7.5,3.358-7.5,7.5s3.358,7.5,7.5,7.5h134.626c1.848,0,3.352,1.503,3.352,3.352v35.265
		c0,14.598-11.876,26.474-26.474,26.474h-36.99c-6.592,0-12.405-4.672-13.824-11.109l-5.62-25.506
		c-1.43-6.491-7.291-11.202-13.938-11.202c-6.646,0-12.507,4.71-13.938,11.201l-5.62,25.506
		c-1.418,6.437-7.232,11.109-13.823,11.109h-36.994C166.705,210.758,154.831,198.884,154.831,184.289z M161.293,100.199
		c5.401-45.732,44.259-80.219,90.385-80.219c46.126,0,84.983,34.487,90.385,80.219c0.133,1.129-0.397,1.918-0.726,2.287
		c-0.336,0.378-1.076,1.012-2.251,1.012H164.27c-1.176,0-1.915-0.634-2.251-1.012C161.69,102.116,161.16,101.328,161.293,100.199z
		 M141.116,142.316c-0.82,2.08-1.286,4.336-1.286,6.704v32.455h-6.666v-44.062C135.887,138.925,138.54,140.561,141.116,142.316z
		 M118.151,114.749c-4.141-1.291-8.354-2.352-12.614-3.177V93.974C112.908,98.033,117.955,105.803,118.151,114.749z M75.647,66.167
		c0-1.379,1.122-2.501,2.501-2.501h9.888c1.379,0,2.501,1.122,2.501,2.501v9.806h-14.89V66.167z M90.537,90.974v32.561
		c0,4.105-3.34,7.445-7.445,7.445s-7.445-3.34-7.445-7.445V90.974H90.537z M21.713,144.775l0.52-0.382
		c11.495-8.444,24.763-14.445,38.662-17.532c1.612,10.804,10.951,19.119,22.197,19.119c11.256,0,20.601-8.329,22.201-19.148
		c4.368,0.965,8.668,2.224,12.872,3.748v50.894H52.942v-5.514c0-4.142-3.358-7.5-7.5-7.5s-7.5,3.358-7.5,7.5v5.514H15v-23.438
		C15,152.821,17.509,147.864,21.713,144.775z M45.442,395.852c4.142,0,7.5-3.358,7.5-7.5v-11.183h36.829v35.964H15v-35.964h22.942
		v11.183C37.942,392.494,41.3,395.852,45.442,395.852z M31.867,474.018c-9.3,0-16.867-7.566-16.867-16.867v-29.018h74.771v45.884
		H31.867z M89.771,314.179v47.99H52.942v-19.667c0-4.142-3.358-7.5-7.5-7.5s-7.5,3.358-7.5,7.5v19.667H15v-99.729h36.791
		c4.142,0,7.5-3.358,7.5-7.5s-3.358-7.5-7.5-7.5H15v-50.965h22.942v10.334c0,4.142,3.358,7.5,7.5,7.5s7.5-3.358,7.5-7.5v-10.334
		h65.223v50.965H87.543c-4.142,0-7.5,3.358-7.5,7.5s3.358,7.5,7.5,7.5h18.175C95.613,277.225,89.771,295.077,89.771,314.179z
		 M227.562,339.742h-45.499c-26.963,0-48.898-21.936-48.898-48.898v-36.242c8.865-7.157,19.414-12.395,31.094-15.036
		c10.572,18.778,27.064,33.898,47.128,42.712c-0.007,0.314-0.024,0.626-0.024,0.942c0,7.682,2.019,14.898,5.541,21.16
		c0.151,0.316,0.33,0.619,0.526,0.914c6.198,10.42,16.638,18.029,28.925,20.431C243.938,333.819,236.433,339.742,227.562,339.742z
		 M226.363,283.219c0-15.613,12.702-28.315,28.315-28.315c15.613,0,28.315,12.702,28.315,28.315c0,0.995-0.053,1.979-0.154,2.948
		c-7.741-6.618-17.706-10.441-28.161-10.441c-10.456,0-20.42,3.823-28.162,10.441C226.416,285.197,226.363,284.214,226.363,283.219z
		 M254.678,311.534c-8.821,0-16.711-4.056-21.907-10.398c5.325-6.504,13.364-10.41,21.907-10.41s16.582,3.907,21.907,10.41
		C271.388,307.479,263.499,311.534,254.678,311.534z M293.783,264.607c-6.974-14.595-21.88-24.703-39.105-24.703
		c-18.217,0-33.832,11.31-40.222,27.272c-18.159-8.824-32.587-23.83-40.72-42.12c2.455,0.455,4.981,0.704,7.565,0.704h36.994
		c13.577,0,25.551-9.623,28.472-22.882l4.909-22.278l4.909,22.278c2.921,13.259,14.896,22.882,28.472,22.882h36.99
		c2.596,0,5.133-0.251,7.598-0.71C322.292,241.667,309.782,255.529,293.783,264.607z M425.66,454.404
		c0-10.815,8.799-19.613,19.614-19.613s19.613,8.798,19.613,19.613s-8.798,19.613-19.613,19.613S425.66,465.219,425.66,454.404z
		 M479.148,447.289c-3.29-15.684-17.227-27.498-33.875-27.498s-30.585,11.814-33.875,27.498c-0.623-2.604-0.963-5.317-0.963-8.109
		c0-19.209,15.628-34.837,34.838-34.837s34.837,15.628,34.837,34.837C480.111,441.972,479.771,444.685,479.148,447.289z"/>
</g>
<g>
</g>
<g>
</g>
<g>
</g>
<g>
</g>
<g>
</g>
<g>
</g>
<g>
</g>
<g>
</g>
<g>
</g>
<g>
</g>
<g>
</g>
<g>
</g>
<g>
</g>
<g>
</g>
<g>
</g>
</svg>
