<?xml version="1.0" encoding="iso-8859-1"?>
<!-- Generator: Adobe Illustrator 23.0.3, SVG Export Plug-In . SVG Version: 6.00 Build 0)  -->
<svg version="1.1" id="Capa_1" xmlns="http://www.w3.org/2000/svg" xmlns:xlink="http://www.w3.org/1999/xlink" x="0px" y="0px"
	 viewBox="0 0 512 512" style="enable-background:new 0 0 512 512;" xml:space="preserve">
<g>
	<g>
		<g>
			<path style="fill:#E84649;" d="M491.625,200.799h-57.353v-57.353c0-7.111-5.764-12.875-12.875-12.875h-64.939
				c-7.111,0-12.875,5.764-12.875,12.875v57.353H286.23c-7.111,0-12.875,5.764-12.875,12.875v64.939
				c0,7.111,5.764,12.875,12.875,12.875h57.353v57.353c0,7.111,5.764,12.875,12.875,12.875h64.939
				c7.111,0,12.875-5.764,12.875-12.875v-57.353h57.353c7.111,0,12.875-5.764,12.875-12.875v-64.939
				C504.5,206.563,498.736,200.799,491.625,200.799z"/>
		</g>
		<g>
			<circle style="fill:#8ECBFD;" cx="424.287" cy="135.423" r="38.87"/>
			<path style="fill:#2EA8FC;" d="M463.155,135.421c0,21.472-17.4,38.873-38.863,38.873c-3.634,0-7.145-0.495-10.475-1.427
				c16.373-4.576,28.389-19.608,28.389-37.446c0-17.829-12.016-32.86-28.389-37.436c3.33-0.932,6.84-1.427,10.475-1.427
				C445.754,96.558,463.155,113.958,463.155,135.421z"/>
		</g>
		<g>
			<g>
				<g>
					<path style="fill:#65BAFC;" d="M59.144,198.925H26.839v-30.661c0-5.245,4.252-9.497,9.497-9.497h13.311
						c5.245,0,9.497,4.252,9.497,9.497V198.925z"/>
					<g>
						<path style="fill:#DAEDFF;" d="M61.38,405.616H24.604c-6.299,0-11.406-5.106-11.406-11.406V195.948
							c0-6.299,5.106-11.406,11.406-11.406H61.38c6.299,0,11.406,5.106,11.406,11.406v198.263
							C72.785,400.51,67.679,405.616,61.38,405.616z"/>
						<path style="fill:#8ECBFD;" d="M72.782,195.952v198.258c0,6.296-5.1,11.406-11.406,11.406h-19.25
							c6.306,0,11.406-5.109,11.406-11.406V195.952c0-6.306-5.1-11.406-11.406-11.406h19.25
							C67.682,184.546,72.782,189.646,72.782,195.952z"/>
						<path style="fill:#F69798;" d="M72.782,195.952v114.162H13.198V195.952c0-6.306,5.109-11.406,11.406-11.406h36.772
							C67.682,184.546,72.782,189.646,72.782,195.952z"/>
						<path style="fill:#ED6264;" d="M72.782,195.952v114.162h-19.25V195.952c0-6.306-5.1-11.406-11.406-11.406h19.25
							C67.682,184.546,72.782,189.646,72.782,195.952z"/>
						<path style="fill:#DAEDFF;" d="M68.986,486.738H16.997c-5.245,0-9.497-4.252-9.497-9.497v-13.199
							c0-5.245,4.252-9.497,9.497-9.497h51.989c5.245,0,9.497,4.252,9.497,9.497v13.199
							C78.483,482.486,74.231,486.738,68.986,486.738z"/>
						<path style="fill:#8ECBFD;" d="M78.48,464.04v13.201c0,5.242-4.245,9.497-9.497,9.497H47.957c5.242,0,9.497-4.255,9.497-9.497
							V464.04c0-5.242-4.255-9.497-9.497-9.497h21.026C74.235,454.543,78.48,458.798,78.48,464.04z"/>
					</g>
				</g>
			</g>
			<g>
				<circle style="fill:#F69798;" cx="424.285" cy="445.047" r="41.688"/>
				<path style="fill:#ED6264;" d="M453.761,474.528c-10.722,10.722-25.839,14.385-39.558,10.979
					c7.107-1.77,13.842-5.423,19.398-10.979c16.287-16.287,16.287-42.678,0-58.956c-5.556-5.556-12.292-9.219-19.398-10.988
					c13.719-3.406,28.836,0.257,39.558,10.988C470.049,431.85,470.049,458.241,453.761,474.528z"/>
			</g>
			<g>
				<g>
					<path style="fill:#AC5E33;" d="M318.722,245.965H138.516c-16.465,0-29.812-13.347-29.812-29.812v-91.571
						c0-54.852,44.467-99.319,99.319-99.319h41.192c54.852,0,99.319,44.467,99.319,99.319v91.571
						C348.534,232.618,335.187,245.965,318.722,245.965z"/>
					<path style="fill:#904D29;" d="M348.539,124.578v91.578c0,16.462-13.348,29.81-29.821,29.81h-21.557
						c16.462,0,29.81-13.348,29.81-29.81v-91.578c0-54.849-44.46-99.32-99.32-99.32h21.568
						C304.069,25.258,348.539,69.729,348.539,124.578z"/>
					<path style="fill:#B0E5B1;" d="M341.667,486.738H115.571c-6.095,0-11.035-4.941-11.035-11.035V321.504
						c0-49.497,40.125-89.623,89.623-89.623h68.921c49.497,0,89.623,40.125,89.623,89.623v154.199
						C352.702,481.797,347.762,486.738,341.667,486.738z"/>
					<path style="fill:#77D47D;" d="M352.702,321.509v154.194c0,6.095-4.941,11.035-11.035,11.035h-12.922V321.509
						c0-49.504-40.124-89.627-89.627-89.627h23.957C312.574,231.882,352.702,272.009,352.702,321.509z"/>
					<g>
						<path style="fill:#FDD1A7;" d="M143.798,108.955l11.165,91.415c4.547,37.225,36.154,65.207,73.655,65.207l0,0
							c37.502,0,69.109-27.981,73.656-65.207l11.166-91.415H143.798z"/>
						<path style="fill:#AC5E33;" d="M326.816,119.138c-1.046,8.009-3.359,15.884-6.93,23.314
							c-28.765,13.837-64.315,8.821-88.174-15.028c-1.524-1.524-2.959-3.103-4.327-4.727c-1.379,1.624-2.825,3.204-4.349,4.727
							c-23.848,23.848-59.398,28.865-88.163,15.028c-13.826-28.765-8.821-64.315,15.028-88.163
							c21.179-21.167,51.545-27.486,78.219-18.976c2.024-0.912,4.171-1.624,6.396-2.08c10.923-2.247,22.224-2.113,33.092,0.401
							c13.648,3.137,26.607,10.022,37.241,20.656C322.544,71.987,329.863,96.113,326.816,119.138z"/>
						<path style="fill:#904D29;" d="M326.816,119.138c-2.058-38.297-25.817-70.833-59.209-85.504
							c13.648,3.137,26.607,10.022,37.241,20.656C322.544,71.987,329.863,96.113,326.816,119.138z"/>
						<g>
							<line style="fill:#F69583;" x1="280.184" y1="195.371" x2="280.184" y2="195.467"/>
						</g>
						<g>
							<g>
								<path style="fill:#F69583;" d="M180.364,210.136c-4.481,0-8.113-3.632-8.113-8.113c0-4.481,3.632-8.161,8.113-8.161
									c4.481,0,8.113,3.584,8.113,8.065v0.096C188.477,206.503,184.845,210.136,180.364,210.136z"/>
							</g>
							<g>
								<path style="fill:#F69583;" d="M276.874,210.136c-4.481,0-8.113-3.632-8.113-8.113c0-4.481,3.632-8.161,8.113-8.161
									s8.113,3.584,8.113,8.065v0.096C284.987,206.503,281.354,210.136,276.874,210.136z"/>
							</g>
						</g>
					</g>
					<line style="fill:#FF6672;" x1="226.374" y1="352.713" x2="226.374" y2="352.808"/>
				</g>
				<g>
					<g>
						<g>
							<g>
								<path style="fill:#FFF5F5;" d="M247.103,427.245c-4.084,0-7.002-3.982-5.745-7.867c2.51-7.756,8.622-13.231,15.763-13.231
									c7.141,0,13.253,5.475,15.763,13.231c1.258,3.885-1.661,7.867-5.745,7.867H247.103z"/>
							</g>
						</g>
						<g>
							<g>
								<path style="fill:#FFF5F5;" d="M302.834,427.245c-4.084,0-7.002-3.982-5.745-7.867c2.51-7.756,8.622-13.231,15.763-13.231
									s13.253,5.475,15.763,13.231c1.258,3.885-1.661,7.867-5.745,7.867H302.834z"/>
							</g>
						</g>
					</g>
				</g>
				<g>
					<circle style="fill:#FFF5F5;" cx="206.179" cy="341.41" r="27.038"/>
				</g>
			</g>
		</g>
	</g>
	<g>
		<path d="M491.625,193.299h-49.853V178.36c16.924-6.918,28.884-23.552,28.884-42.936c0-25.568-20.802-46.37-46.37-46.37
			c-21.291,0-39.264,14.429-44.686,34.018h-23.142c-0.149,0-0.295,0.019-0.443,0.022c-0.8-58.216-48.398-105.331-106.8-105.331
			h-41.192c-58.9,0-106.819,47.919-106.819,106.819v91.571c0,16.482,10.747,30.493,25.599,35.418
			c-3.797,3.646-7.309,7.594-10.468,11.818c-12.625,16.882-19.299,36.978-19.299,58.114v51.318c0,4.142,3.358,7.5,7.5,7.5
			s7.5-3.358,7.5-7.5v-51.318c0-17.873,5.64-34.862,16.311-49.131c9.607-12.846,23.003-22.742,38.005-28.158
			c0.363,0.426,0.731,0.847,1.102,1.266c-3.646,6.823-5.588,14.453-5.588,22.206v41.858c0,9.901,3.612,19.184,10.207,26.434
			c-0.281,1.77-0.431,3.584-0.431,5.432c0,19.044,15.494,34.538,34.538,34.538s34.538-15.494,34.538-34.538
			s-15.494-34.538-34.538-34.538c-10.925,0-20.674,5.104-27.007,13.047c-1.508-3.199-2.307-6.719-2.307-10.375v-41.858
			c0-3.931,0.74-7.813,2.134-11.462c13.831,10.594,31.076,16.852,49.62,16.852c17.534,0,33.905-5.596,47.329-15.159
			c1.005,3.147,1.539,6.441,1.539,9.769v60.378c-15.909,3.45-27.865,17.63-27.865,34.557v37.367
			c-6.995,2.579-12.694,8.723-15.399,17.08c-1.324,4.093-0.603,8.616,1.932,12.099c2.54,3.492,6.633,5.577,10.949,5.577h20.036
			c4.316,0,8.409-2.084,10.949-5.577c2.534-3.483,3.256-8.006,1.931-12.1c-2.705-8.356-8.403-14.5-15.398-17.079v-37.367
			c0-11.229,9.136-20.365,20.365-20.365s20.365,9.136,20.365,20.365v37.367c-6.996,2.578-12.694,8.723-15.399,17.08
			c-1.324,4.093-0.603,8.616,1.932,12.099c1.805,2.482,4.401,4.234,7.297,5.051v52.518c0,4.142,3.358,7.5,7.5,7.5s7.5-3.358,7.5-7.5
			v-51.992h8.688c4.316,0,8.41-2.085,10.95-5.577c2.534-3.483,3.255-8.007,1.931-12.099c-2.705-8.356-8.403-14.501-15.398-17.08
			v-37.367c0-16.927-11.956-31.107-27.865-34.557v-60.378c0-6.986-1.58-13.873-4.556-20.161c1.017-1.073,1.997-2.182,2.956-3.31
			c15.001,5.415,28.397,15.312,38.004,28.157c10.671,14.269,16.311,31.258,16.311,49.131v154.199c0,1.949-1.586,3.535-3.535,3.535
			c-4.142,0-7.5,3.358-7.5,7.5s3.358,7.5,7.5,7.5c10.22,0,18.535-8.315,18.535-18.535V369.216h61.195
			c11.235,0,20.375-9.14,20.375-20.375v-49.853h6.863c4.142,0,7.5-3.358,7.5-7.5s-3.358-7.5-7.5-7.5h-14.363
			c-4.142,0-7.5,3.358-7.5,7.5v57.353c0,2.964-2.412,5.375-5.375,5.375h-61.195v-32.712c0-21.137-6.673-41.232-19.299-58.114
			c-3.159-4.224-6.671-8.172-10.468-11.818c14.851-4.925,25.599-18.936,25.599-35.418v-78.04c0.142-0.011,0.28-0.042,0.424-0.042
			h21.539c1.378,24.341,21.61,43.723,46.289,43.723c0.834,0,1.662-0.025,2.486-0.068v19.073c0,4.142,3.358,7.5,7.5,7.5h57.353
			c2.964,0,5.375,2.412,5.375,5.375v64.939c0,2.964-2.411,5.375-5.375,5.375h-7.594c-4.142,0-7.5,3.358-7.5,7.5s3.358,7.5,7.5,7.5
			h7.594c11.235,0,20.375-9.141,20.375-20.375v-64.939C512,202.439,502.86,193.299,491.625,193.299z M206.179,321.873
			c10.773,0,19.538,8.765,19.538,19.538s-8.765,19.538-19.538,19.538s-19.538-8.765-19.538-19.538S195.406,321.873,206.179,321.873z
			 M249.265,419.745c1.77-3.717,4.763-6.098,7.856-6.098s6.086,2.381,7.857,6.098H249.265z M304.995,419.745
			c1.77-3.717,4.763-6.098,7.857-6.098c3.093,0,6.086,2.381,7.856,6.098H304.995z M162.408,199.461l-5.207-42.631
			c25.248,3.328,51.259-4.83,70.175-23.157c16.156,15.652,37.485,23.894,59.096,23.894c4.539,0,9.091-0.368,13.61-1.104
			l-5.252,42.998c-4.081,33.417-32.545,58.616-66.21,58.616S166.49,232.877,162.408,199.461z M341.034,216.153
			c0,12.303-10.009,22.312-22.312,22.312h-5.282c-0.014,0-0.028,0.002-0.042,0.002c-4.37-2.659-8.942-4.975-13.669-6.911
			c5.162-9.111,8.653-19.328,9.99-30.277l5.976-48.924c2.509-0.924,4.991-1.965,7.435-3.14c3.733-1.795,5.304-6.276,3.509-10.009
			c-1.794-3.732-6.275-5.306-10.009-3.509c-26.672,12.823-58.666,7.367-79.61-13.578c-1.308-1.308-2.627-2.744-3.921-4.27
			c-1.425-1.679-3.517-2.647-5.719-2.647s-4.294,0.969-5.719,2.649c-1.256,1.481-2.578,2.917-3.929,4.268
			c-20.946,20.945-52.938,26.401-79.61,13.578c-3.735-1.794-8.214-0.224-10.009,3.509c-1.795,3.733-0.224,8.214,3.509,10.009
			c3.284,1.579,6.636,2.917,10.031,4.043l5.865,48.021c1.337,10.949,4.829,21.167,9.991,30.277c-4.727,1.937-9.3,4.253-13.669,6.911
			c-0.014,0-0.028-0.002-0.042-0.002h-5.282c-12.303,0-22.312-10.009-22.312-22.312v-91.571c0-50.629,41.19-91.819,91.819-91.819
			h41.192c50.629,0,91.819,41.19,91.819,91.819V216.153z M424.287,104.053c14.712,0,27.086,10.183,30.457,23.87h-60.915
			C397.201,114.237,409.574,104.053,424.287,104.053z M393.829,142.924h60.915c-3.371,13.687-15.745,23.87-30.457,23.87
			S397.201,156.61,393.829,142.924z"/>
		<path d="M68.986,447.045H50.492v-33.929h10.888c10.425,0,18.906-8.481,18.906-18.906V195.948c0-8.597-5.773-15.858-13.641-18.145
			v-9.539c0-9.087-7.174-16.509-16.152-16.954V45.606c0-4.142-3.358-7.5-7.5-7.5s-7.5,3.358-7.5,7.5V151.31
			c-8.979,0.444-16.152,7.867-16.152,16.954v9.539c-7.868,2.287-13.641,9.548-13.641,18.145v19.641c0,4.142,3.358,7.5,7.5,7.5
			s7.5-3.358,7.5-7.5v-19.641c0-2.154,1.752-3.906,3.905-3.906h36.776c2.154,0,3.906,1.752,3.906,3.906v106.667H20.698v-53.834
			c0-4.142-3.358-7.5-7.5-7.5s-7.5,3.358-7.5,7.5v145.43c0,10.425,8.481,18.906,18.905,18.906h10.888v33.929H16.997
			C7.625,447.045,0,454.67,0,464.042v13.199c0,9.372,7.625,16.997,16.997,16.997h51.989c9.372,0,16.997-7.625,16.997-16.997v-13.199
			C85.983,454.67,78.358,447.045,68.986,447.045z M36.336,166.267h13.311c1.101,0,1.997,0.896,1.997,1.997v8.778H34.339v-8.778
			C34.339,167.163,35.235,166.267,36.336,166.267z M65.285,394.211c0,2.154-1.752,3.906-3.906,3.906H50.492v-80.501h14.793V394.211z
			 M24.604,398.116c-2.153,0-3.905-1.752-3.905-3.906v-76.595h14.793v80.501H24.604z M70.983,477.241
			c0,1.101-0.896,1.997-1.997,1.997H16.997c-1.101,0-1.997-0.896-1.997-1.997v-13.199c0-1.101,0.896-1.997,1.997-1.997h51.989
			c1.101,0,1.997,0.896,1.997,1.997V477.241z"/>
		<path d="M389.504,410.266c-19.178,19.179-19.178,50.385,0,69.563c9.589,9.589,22.186,14.384,34.782,14.384
			c12.596,0,25.192-4.795,34.781-14.384c19.178-19.178,19.178-50.384,0-69.563C439.888,391.087,408.683,391.088,389.504,410.266z
			 M400.11,420.872c6.666-6.666,15.419-9.998,24.175-9.998c6.361,0,12.718,1.769,18.278,5.288L395.4,463.326
			C387.039,450.115,388.603,432.381,400.11,420.872z M448.46,469.222c-11.508,11.508-29.243,13.072-42.454,4.71l47.164-47.163
			C461.532,439.98,459.968,457.714,448.46,469.222z"/>
		<path d="M115.571,479.238c-1.949,0-3.535-1.586-3.535-3.535v-66.112c0-4.142-3.358-7.5-7.5-7.5s-7.5,3.358-7.5,7.5v66.112
			c0,10.22,8.315,18.535,18.535,18.535c4.142,0,7.5-3.358,7.5-7.5S119.713,479.238,115.571,479.238z"/>
		<path d="M190.035,168.513c-4.142,0-7.5,3.406-7.5,7.548s3.358,7.5,7.5,7.5s7.5-3.358,7.5-7.5v-0.096
			C197.535,171.823,194.177,168.513,190.035,168.513z"/>
		<path d="M267.204,168.513c-4.142,0-7.5,3.406-7.5,7.548s3.358,7.5,7.5,7.5s7.5-3.358,7.5-7.5v-0.096
			C274.704,171.823,271.346,168.513,267.204,168.513z"/>
		<path d="M252.253,200.359c-3.981-1.145-8.136,1.154-9.281,5.135c-1.831,6.367-7.733,10.813-14.353,10.813
			c-6.62,0-12.522-4.446-14.353-10.813c-1.145-3.981-5.298-6.278-9.281-5.135c-3.981,1.145-6.28,5.3-5.135,9.281
			c3.668,12.757,15.499,21.667,28.769,21.667c13.269,0,25.099-8.91,28.769-21.667C258.532,205.659,256.233,201.504,252.253,200.359z
			"/>
		<path d="M206.179,348.91c4.142,0,7.5-3.358,7.5-7.5v-0.097c0-4.142-3.358-7.451-7.5-7.451s-7.5,3.406-7.5,7.548
			S202.037,348.91,206.179,348.91z"/>
		<path d="M150.452,375.818c-4.142,0-7.5,3.358-7.5,7.5v103.419c0,4.142,3.358,7.5,7.5,7.5s7.5-3.358,7.5-7.5V383.318
			C157.952,379.176,154.594,375.818,150.452,375.818z"/>
	</g>
</g>
<g>
</g>
<g>
</g>
<g>
</g>
<g>
</g>
<g>
</g>
<g>
</g>
<g>
</g>
<g>
</g>
<g>
</g>
<g>
</g>
<g>
</g>
<g>
</g>
<g>
</g>
<g>
</g>
<g>
</g>
</svg>
