<?xml version="1.0" encoding="iso-8859-1"?>
<!-- Generator: Adobe Illustrator 23.0.3, SVG Export Plug-In . SVG Version: 6.00 Build 0)  -->
<svg version="1.1" id="Capa_1" xmlns="http://www.w3.org/2000/svg" xmlns:xlink="http://www.w3.org/1999/xlink" x="0px" y="0px"
	 viewBox="0 0 512 512" style="enable-background:new 0 0 512 512;" xml:space="preserve">
<g>
	<g>
		<g>
			<g>
				<g>
					
						<rect x="360.911" y="217.565" transform="matrix(-1.836970e-16 1 -1 -1.836970e-16 666.2445 -206.1025)" style="fill:#EFE2DD;" width="150.525" height="25.012"/>
				</g>
				<g>
					<circle style="fill:#E84649;" cx="436.174" cy="97.856" r="68.326"/>
					<path style="fill:#D73337;" d="M504.498,97.861c0,37.725-30.589,68.325-68.325,68.325c-4.13,0-8.179-0.365-12.116-1.063
						c31.956-5.729,56.209-33.666,56.209-67.262c0-33.606-24.253-61.543-56.209-67.272c3.938-0.699,7.986-1.063,12.116-1.063
						C473.909,29.526,504.498,60.125,504.498,97.861z"/>
				</g>
				<g>
					<path style="fill:#EFE2DD;" d="M457.513,110.362h-42.678c-5.59,0-10.122-4.532-10.122-10.122v-4.767
						c0-5.59,4.532-10.122,10.122-10.122h42.678c5.59,0,10.122,4.532,10.122,10.122v4.767
						C467.636,105.83,463.104,110.362,457.513,110.362z"/>
				</g>
			</g>
			<g>
				<g>
					<g>
						<g>
							<path style="fill:#EFE2DD;" d="M7.5,166.297c0-4.811,3.9-8.712,8.712-8.712h100.244c4.811,0,8.712,3.9,8.712,8.712v283.167
								c0,4.811-3.9,8.712-8.712,8.712H16.212c-4.811,0-8.712-3.9-8.712-8.712"/>
							<path style="fill:#CDBFBB;" d="M125.171,166.298V449.46c0,4.818-3.903,8.712-8.712,8.712H96.174
								c4.809,0,8.712-3.894,8.712-8.712V166.298c0-4.809-3.903-8.712-8.712-8.712h20.285
								C121.268,157.587,125.171,161.489,125.171,166.298z"/>
						</g>
					</g>
					<g>
						<g>
							<circle style="fill:#52CC61;" cx="66.335" cy="393.537" r="29.18"/>
							<path style="fill:#00B232;" d="M95.51,393.537c0,16.114-13.061,29.175-29.175,29.175c-3.387,0-6.64-0.573-9.665-1.641
								c11.372-3.988,19.52-14.807,19.52-27.534c0-12.727-8.148-23.546-19.52-27.534c3.024-1.069,6.278-1.641,9.665-1.641
								C82.449,364.362,95.51,377.423,95.51,393.537z"/>
						</g>
						<g>
							<circle style="fill:#FFA964;" cx="66.335" cy="307.881" r="29.18"/>
							<path style="fill:#FF872A;" d="M95.51,307.881c0,16.114-13.061,29.175-29.175,29.175c-3.387,0-6.64-0.573-9.665-1.641
								c11.372-3.988,19.52-14.807,19.52-27.534c0-12.727-8.148-23.546-19.52-27.534c3.024-1.069,6.278-1.641,9.665-1.641
								C82.449,278.706,95.51,291.767,95.51,307.881z"/>
						</g>
						<g>
							<circle style="fill:#E84649;" cx="66.335" cy="222.225" r="29.18"/>
							<path style="fill:#D73337;" d="M95.51,222.225c0,16.114-13.061,29.175-29.175,29.175c-3.387,0-6.64-0.573-9.665-1.641
								c11.372-3.988,19.52-14.807,19.52-27.534c0-12.727-8.148-23.546-19.52-27.534c3.024-1.069,6.278-1.641,9.665-1.641
								C82.449,193.05,95.51,206.111,95.51,222.225z"/>
						</g>
					</g>
				</g>
				<g>
					<g>
						<g>
							<path style="fill:#9E9797;" d="M419.968,324.705v149.129c0,4.765-3.867,8.633-8.633,8.633H129.549
								c-4.765,0-8.633-3.867-8.633-8.633V324.705c0-29.342,17.68-54.567,42.965-65.591c8.745-3.816,18.405-5.931,28.557-5.931
								h156.009c3.911,0,7.752,0.311,11.49,0.924c5.974,0.958,11.689,2.659,17.067,5.007
								C402.288,270.138,419.968,295.362,419.968,324.705z"/>
							<path style="fill:#756F6F;" d="M419.969,324.703v149.13c0,4.765-3.867,8.632-8.632,8.632h-19.896
								c4.765,0,8.632-3.867,8.632-8.632v-149.13c0-29.339-17.678-54.57-42.969-65.592c-5.378-2.348-11.092-4.048-17.065-5.006
								c-3.738-0.613-7.579-0.924-11.489-0.924h19.896c3.91,0,7.751,0.311,11.489,0.924c5.973,0.958,11.687,2.659,17.065,5.006
								C402.292,270.134,419.969,295.364,419.969,324.703z"/>
						</g>
						<g>
							<g>
								<g>
									<circle style="fill:#FFBC8A;" cx="358.248" cy="179.393" r="19.972"/>
								</g>
								<g>
									<circle style="fill:#FFBC8A;" cx="182.637" cy="179.393" r="19.972"/>
								</g>
							</g>
							<path style="fill:#FDD1A7;" d="M270.442,284.387L270.442,284.387c-40.631,0-74.149-31.81-76.273-72.385l-5.181-98.972
								h162.907l-5.181,98.972C344.591,252.577,311.073,284.387,270.442,284.387z"/>
							<g>
								<path style="fill:#5B5555;" d="M270.442,150.319c0,0,62.874-29.345,79.783,16.936l29.84-28.154l-14.674-41.72h-94.949
									V150.319z"/>
								<path style="fill:#756F6F;" d="M270.442,90.187c0,0,17.851-25.895,62.874-25.895c41.166,0,68.033,43.298,50.901,81.287
									c-1.66,3.682-6.986,3.346-8.1-0.536c-4.048-14.106-15.727-36.729-48.993-36.729c-48.338,0-56.682,42.005-56.682,42.005
									V90.187z"/>
								<path style="fill:#5B5555;" d="M270.442,150.319c0,0-62.874-29.345-79.783,16.936L160.82,139.1l14.674-41.72h94.949V150.319
									z"/>
								<path style="fill:#756F6F;" d="M270.442,90.187c0,0-17.851-25.895-62.874-25.895c-41.166,0-68.033,43.298-50.901,81.287
									c1.66,3.682,6.986,3.346,8.1-0.536c4.048-14.106,15.727-36.729,48.993-36.729c48.338,0,56.682,42.005,56.682,42.005V90.187z
									"/>
							</g>
						</g>
					</g>
					<g>
						<g>
							<path style="fill:#B6DCFF;" d="M486.37,357.123v36.948c-7.998,0-15.682,1.382-22.814,3.925
								c-9.592,3.418-18.179,8.919-25.237,15.977c-7.519,7.519-13.286,16.788-16.622,27.144c-2.128,6.588-3.28,13.609-3.28,20.897
								H394.37c0-7.288-1.152-14.309-3.28-20.897c-3.335-10.357-9.103-19.626-16.622-27.144
								c-7.058-7.058-15.645-12.558-25.237-15.977c-7.132-2.543-14.816-3.925-22.814-3.925v-36.948H486.37z"/>
							<path style="fill:#65BAFC;" d="M458.452,357.123c4.284,8.145,6.708,17.414,6.708,27.236c0,4.69-0.553,9.26-1.603,13.637
								c7.132-2.543,14.816-3.925,22.814-3.925v-36.948H458.452z M391.089,441.117c2.128,6.588,3.28,13.609,3.28,20.897h24.048
								c0-7.288,1.152-14.309,3.28-20.897c-4.883,1.318-10.015,2.018-15.304,2.018S395.973,442.435,391.089,441.117z
								 M326.417,357.123v36.948c7.998,0,15.682,1.382,22.814,3.925c-1.05-4.377-1.603-8.947-1.603-13.637
								c0-9.822,2.423-19.091,6.708-27.236H326.417z"/>
							<g>
								<g>
									<path style="fill:#1475CC;" d="M406.394,286.256c-54.181,0-98.106,43.926-98.106,98.106s43.925,98.106,98.106,98.106
										s98.106-43.926,98.106-98.106S460.575,286.256,406.394,286.256z M406.394,456.953c-40.093,0-72.59-32.497-72.59-72.59
										s32.497-72.59,72.59-72.59s72.59,32.497,72.59,72.59S446.487,456.953,406.394,456.953z"/>
								</g>
							</g>
						</g>
						<g>
							<ellipse style="fill:#1475CC;" cx="406.394" cy="392.173" rx="15.203" ry="12.208"/>
						</g>
					</g>
				</g>
			</g>
		</g>
	</g>
	<g>
		<path d="M414.835,77.85c-9.717,0-17.622,7.905-17.622,17.622v4.768c0,9.717,7.905,17.622,17.622,17.622h42.679
			c9.717,0,17.622-7.905,17.622-17.622v-4.768c0-9.717-7.905-17.622-17.622-17.622H414.835z M460.136,95.472v4.768
			c0,1.446-1.176,2.622-2.622,2.622h-42.679c-1.446,0-2.622-1.176-2.622-2.622v-4.768c0-1.446,1.176-2.622,2.622-2.622h42.679
			C458.959,92.85,460.136,94.026,460.136,95.472z"/>
		<path d="M66.335,430.216c20.225,0,36.68-16.454,36.68-36.68s-16.455-36.68-36.68-36.68s-36.68,16.454-36.68,36.68
			S46.11,430.216,66.335,430.216z M66.335,371.857c11.954,0,21.68,9.726,21.68,21.68s-9.726,21.68-21.68,21.68
			s-21.68-9.726-21.68-21.68S54.381,371.857,66.335,371.857z"/>
		<path d="M66.335,344.561c20.225,0,36.68-16.454,36.68-36.68s-16.455-36.681-36.68-36.681s-36.68,16.455-36.68,36.681
			S46.11,344.561,66.335,344.561z M66.335,286.201c11.954,0,21.68,9.726,21.68,21.681c0,11.954-9.726,21.68-21.68,21.68
			s-21.68-9.726-21.68-21.68C44.656,295.926,54.381,286.201,66.335,286.201z"/>
		<path d="M66.335,258.905c20.225,0,36.68-16.454,36.68-36.68s-16.455-36.68-36.68-36.68s-36.68,16.454-36.68,36.68
			S46.11,258.905,66.335,258.905z M66.335,200.545c11.954,0,21.68,9.726,21.68,21.68s-9.726,21.68-21.68,21.68
			s-21.68-9.726-21.68-21.68S54.381,200.545,66.335,200.545z"/>
		<path d="M171.65,355.668c-4.142,0-7.5,3.357-7.5,7.5v119.301c0,4.143,3.358,7.5,7.5,7.5s7.5-3.357,7.5-7.5V363.168
			C179.15,359.026,175.792,355.668,171.65,355.668z"/>
		<path d="M243.977,202.997c0-4.143-3.358-7.458-7.5-7.458s-7.5,3.399-7.5,7.542s3.358,7.5,7.5,7.5s7.5-3.357,7.5-7.5V202.997z"/>
		<path d="M304.41,195.539c-4.142,0-7.5,3.399-7.5,7.542s3.358,7.5,7.5,7.5s7.5-3.357,7.5-7.5v-0.084
			C311.91,198.854,308.552,195.539,304.41,195.539z"/>
		<path d="M291.497,223.608c-3.983-1.146-8.136,1.154-9.281,5.135c-1.502,5.222-6.343,8.869-11.772,8.869
			c-5.429,0-10.27-3.647-11.772-8.869c-1.146-3.981-5.302-6.281-9.281-5.135c-3.98,1.146-6.279,5.301-5.134,9.281
			c3.34,11.612,14.109,19.723,26.188,19.723c12.079,0,22.848-8.11,26.188-19.723C297.776,228.909,295.477,224.753,291.497,223.608z"
			/>
		<path d="M456.18,291.252V171.006c7.977-2.176,15.574-5.655,22.519-10.367c3.428-2.325,4.321-6.989,1.995-10.417
			s-6.99-4.322-10.417-1.995c-10.08,6.839-21.873,10.454-34.103,10.454c-15.951,0-30.955-6.111-42.369-17.204
			c5.966-18.679,3.388-38.981-7.361-55.618c-2.162-3.347-4.601-6.444-7.271-9.273c8.843-23.773,31.402-39.555,57.001-39.555
			c33.54,0,60.826,27.286,60.826,60.825c0,9.154-1.986,17.957-5.903,26.163c-1.784,3.738-0.2,8.215,3.538,9.999
			c1.042,0.498,2.142,0.733,3.225,0.733c2.8,0,5.487-1.576,6.774-4.271c4.888-10.24,7.366-21.216,7.366-32.624
			c0-41.811-34.015-75.825-75.826-75.825c-30.17,0-56.952,17.592-69.101,44.561c-9.946-6.318-21.587-9.799-33.758-9.799
			c-33.844,0-53.7,13.655-62.874,22.282c-9.173-8.627-29.03-22.282-62.874-22.282c-21.51,0-41.371,10.865-53.128,29.065
			c-12.144,18.798-13.868,42.276-4.61,62.805c2.071,4.593,6.657,7.334,11.666,6.963c1.638-0.118,3.178-0.564,4.561-1.272
			l1.931,1.822c-7.769,4.929-12.823,13.61-12.823,23.218c0,15.147,12.324,27.472,27.472,27.472c1.252,0,2.501-0.096,3.74-0.267
			l0.303,5.796c0.626,11.958,3.751,23.209,8.823,33.289h-3.065c-10.968,0-21.585,2.206-31.554,6.556
			c-11.071,4.827-20.63,12-28.216,20.779v-106.72c0-8.939-7.272-16.212-16.211-16.212H16.211C7.272,150.085,0,157.358,0,166.297
			v78.157c0,4.143,3.358,7.5,7.5,7.5s7.5-3.357,7.5-7.5v-78.157c0-0.668,0.543-1.212,1.211-1.212h100.245
			c0.668,0,1.211,0.544,1.211,1.212v132.824c-2.771,8.097-4.251,16.721-4.251,25.583v125.971H16.211
			c-0.668,0-1.211-0.543-1.211-1.211V280.208c0-4.143-3.358-7.5-7.5-7.5s-7.5,3.357-7.5,7.5v169.257
			c0,8.938,7.272,16.211,16.211,16.211h97.205v8.158c0,8.896,7.237,16.133,16.133,16.133c4.142,0,7.5-3.357,7.5-7.5
			s-3.358-7.5-7.5-7.5c-0.625,0-1.133-0.508-1.133-1.133V324.705c0-25.481,15.097-48.528,38.464-58.717
			c8.067-3.52,16.666-5.305,25.557-5.305h12.728c15.41,19.076,38.977,31.204,65.276,31.204s49.866-12.128,65.276-31.204h12.728
			c3.477,0,6.935,0.277,10.302,0.829c5.246,0.842,10.378,2.347,15.257,4.477c7.433,3.241,14.124,7.84,19.791,13.534
			c-15.199,1.818-29.837,6.899-42.906,14.989c-3.522,2.18-4.61,6.803-2.43,10.324c2.18,3.521,6.802,4.609,10.324,2.43
			c14.276-8.837,30.739-13.508,47.608-13.508c49.96,0,90.605,40.646,90.605,90.605s-40.645,90.604-90.605,90.604
			s-90.605-40.645-90.605-90.604c0-20.016,6.4-38.99,18.507-54.872c2.511-3.294,1.877-8-1.417-10.512
			c-3.294-2.511-8.001-1.877-10.511,1.418c-14.117,18.517-21.579,40.636-21.579,63.966c0,42.278,24.977,78.826,60.946,95.682v2.421
			c0,4.143,3.358,7.5,7.5,7.5c3.051,0,5.672-1.825,6.843-4.441c9.607,2.884,19.782,4.442,30.315,4.442
			c58.231,0,105.605-47.374,105.605-105.604C511.999,344.123,489.374,309.073,456.18,291.252z M441.18,173.509v111.142
			c-3.268-1.143-6.608-2.13-10.012-2.951v-108.2c1.661,0.108,3.328,0.182,5.007,0.182
			C437.85,173.681,439.519,173.617,441.18,173.509z M370.719,179.393c0,6.877-5.595,12.472-12.472,12.472
			c-1.007,0-1.991-0.132-2.949-0.364l1.031-19.694l4.818-4.546C366.68,168.579,370.719,173.595,370.719,179.393z M188.38,154.792
			l-14.365-13.553c5.214-12.683,16.288-25.425,39.746-25.425c24.069,0,36.716,11.697,43.153,21.759
			c-13.303-3.688-32.268-6.575-48.317,0.058C200.044,141.166,193.276,146.918,188.38,154.792z M352.505,154.792
			c-4.896-7.874-11.665-13.627-20.217-17.161c-16.028-6.625-34.961-3.754-48.26-0.074c0.767-1.204,1.611-2.427,2.559-3.651
			c9.292-12.006,22.931-18.093,40.537-18.093c23.458,0,34.532,12.742,39.745,25.425L352.505,154.792z M333.316,71.792
			c16.64,0,31.413,8.094,40.529,22.205c7.803,12.08,10.023,26.677,6.413,40.386c-9.318-21.462-28.254-33.569-53.134-33.569
			c-24.79,0-40.129,10.186-49.182,20.089V97.38v-4.569C282.566,87.526,299.201,71.792,333.316,71.792z M167.04,93.998
			c9.117-14.111,23.889-22.205,40.529-22.205c34.115,0,50.75,15.733,55.374,21.019v4.569v23.522
			c-9.053-9.903-24.392-20.089-49.182-20.089c-24.88,0-43.815,12.107-53.134,33.569C157.016,120.674,159.236,106.077,167.04,93.998z
			 M182.637,191.865c-6.877,0-12.472-5.595-12.472-12.472c0-5.771,4.008-10.804,9.579-12.125l4.811,4.539l1.032,19.71
			C184.632,191.748,183.646,191.865,182.637,191.865z M270.442,276.887c-36.654,0-66.867-28.673-68.783-65.276l-2.34-44.7
			c-0.013-0.251-0.039-0.498-0.076-0.742c3.365-7.048,8.312-11.868,15.05-14.662c21.19-8.786,52.203,5.252,52.951,5.595
			c1.976,0.901,4.397,1,6.371,0.012c8.692-4.057,35.148-12.975,52.944-5.621c6.751,2.791,11.708,7.611,15.078,14.666
			c-0.029,0.212-0.055,0.426-0.066,0.643l-2.345,44.809C337.31,248.214,307.096,276.887,270.442,276.887z M380.004,252.24
			c-6.034-2.634-12.386-4.497-18.855-5.534c-4.142-0.679-8.415-1.022-12.702-1.022h-3.065c5.072-10.08,8.197-21.331,8.823-33.289
			l0.303-5.788c1.232,0.167,2.479,0.259,3.74,0.259c15.148,0,27.472-12.324,27.472-27.472c0-9.644-5.081-18.303-12.822-23.218
			l1.931-1.822c1.384,0.708,2.925,1.154,4.563,1.272c2.232,0.16,4.374-0.294,6.249-1.248c8.852,7.934,19.271,13.569,30.528,16.629
			v108.208c-1.092-0.101-2.189-0.185-3.29-0.251C404.529,267.215,393.21,257.999,380.004,252.24z"/>
		<path d="M406.394,464.453c44.162,0,80.09-35.928,80.09-80.09s-35.928-80.09-80.09-80.09c-44.162,0-80.09,35.928-80.09,80.09
			S362.232,464.453,406.394,464.453z M344.443,404.312c6.27,1.954,12.092,4.897,17.292,8.647v18.691
			C353.866,424.214,347.845,414.85,344.443,404.312z M376.735,428.519c3.478,5.217,6.168,10.999,7.896,17.179
			c-2.721-0.968-5.355-2.118-7.896-3.425V428.519z M400.763,449.193c-5.242-30.578-28.895-54.98-59.347-61.123
			c-0.069-1.228-0.113-2.463-0.113-3.708c0-6.881,1.082-13.512,3.07-19.742h124.041c1.988,6.23,3.07,12.861,3.07,19.742
			c0,1.244-0.043,2.479-0.112,3.706c-30.41,6.143-54.106,30.64-59.347,61.125c-1.858,0.16-3.733,0.259-5.631,0.259
			C404.495,449.453,402.621,449.354,400.763,449.193z M428.16,445.697c5.502-19.601,20.709-35.294,40.183-41.381
			C462.125,423.573,447.167,438.931,428.16,445.697z M461.395,349.621h-33.927v-24.916c0-0.639-0.013-1.28-0.029-1.92
			C441.575,327.629,453.524,337.204,461.395,349.621z M406.394,319.273c1.977,0,3.93,0.104,5.863,0.277
			c0.136,1.711,0.211,3.436,0.211,5.155v24.916h-61.075C362.942,331.402,383.272,319.273,406.394,319.273z"/>
		<path d="M429.097,392.173c0-10.867-10.185-19.709-22.703-19.709c-12.518,0-22.703,8.842-22.703,19.709
			s10.185,19.708,22.703,19.708C418.912,411.881,429.097,403.041,429.097,392.173z M398.691,392.173
			c0-2.223,3.294-4.709,7.703-4.709s7.703,2.486,7.703,4.709s-3.294,4.708-7.703,4.708S398.691,394.396,398.691,392.173z"/>
		<path d="M445.553,387.464h5.067c4.142,0,7.5-3.357,7.5-7.5s-3.358-7.5-7.5-7.5h-5.067c-4.142,0-7.5,3.357-7.5,7.5
			S441.411,387.464,445.553,387.464z"/>
		<path d="M367.235,372.464h-5.068c-4.142,0-7.5,3.357-7.5,7.5s3.358,7.5,7.5,7.5h5.068c4.142,0,7.5-3.357,7.5-7.5
			S371.377,372.464,367.235,372.464z"/>
		<path d="M273.269,313.918c-4.142,0-7.5,3.357-7.5,7.5v161.047c0,4.143,3.358,7.5,7.5,7.5s7.5-3.357,7.5-7.5V321.418
			C280.769,317.276,277.411,313.918,273.269,313.918z"/>
		<path d="M245.5,441.705c-4.142,0-7.5,3.399-7.5,7.542s3.358,7.5,7.5,7.5s7.5-3.357,7.5-7.5v-0.083
			C253,445.021,249.642,441.705,245.5,441.705z"/>
		<path d="M245.5,390.375c-4.142,0-7.5,3.399-7.5,7.542s3.358,7.5,7.5,7.5s7.5-3.357,7.5-7.5v-0.083
			C253,393.691,249.642,390.375,245.5,390.375z"/>
		<path d="M241.5,361.875c0-4.143-3.358-7.5-7.5-7.5h-27.735c-4.142,0-7.5,3.357-7.5,7.5s3.358,7.5,7.5,7.5H234
			C238.142,369.375,241.5,366.017,241.5,361.875z"/>
	</g>
</g>
<g>
</g>
<g>
</g>
<g>
</g>
<g>
</g>
<g>
</g>
<g>
</g>
<g>
</g>
<g>
</g>
<g>
</g>
<g>
</g>
<g>
</g>
<g>
</g>
<g>
</g>
<g>
</g>
<g>
</g>
</svg>
