<?xml version="1.0" encoding="iso-8859-1"?>
<!-- Generator: Adobe Illustrator 23.0.3, SVG Export Plug-In . SVG Version: 6.00 Build 0)  -->
<svg version="1.1" id="Capa_1" xmlns="http://www.w3.org/2000/svg" xmlns:xlink="http://www.w3.org/1999/xlink" x="0px" y="0px"
	 viewBox="0 0 512 512" style="enable-background:new 0 0 512 512;" xml:space="preserve">
<g>
	<g>
		<g>
			<g>
				<g>
					<circle style="fill:#FFBC8A;" cx="365.61" cy="163.449" r="21.736"/>
					<circle style="fill:#FFBC8A;" cx="174.486" cy="163.449" r="21.736"/>
					<path style="fill:#FFA964;" d="M415.871,318.173v162.305c0,5.188-4.206,9.395-9.395,9.395H133.62
						c-5.188,0-9.395-4.206-9.395-9.395V318.173c0-31.937,19.244-59.389,46.761-71.387c9.515-4.151,20.031-6.449,31.075-6.449
						h135.974c4.253,0,8.431,0.334,12.499,1.001c6.504,1.047,12.721,2.9,18.576,5.448c0.028,0.009,0.046,0.018,0.074,0.037
						C396.664,258.83,415.871,286.264,415.871,318.173z"/>
					<path style="fill:#FF872A;" d="M216.284,253.192l4.691,45.635c0.839,8.163,10.282,12.269,16.824,7.315l32.248-24.421v-28.53
						H216.284z"/>
					<path style="fill:#FF872A;" d="M323.813,253.192l-4.691,45.635c-0.839,8.163-10.282,12.269-16.824,7.315l-32.248-24.421v-28.53
						H323.813z"/>
					<path style="fill:#FF872A;" d="M415.872,318.176v162.303c0,5.186-4.209,9.395-9.395,9.395H384.82
						c5.186,0,9.395-4.209,9.395-9.395V318.176c0-31.934-19.241-59.387-46.76-71.385c-5.853-2.556-12.073-4.406-18.574-5.449
						c-4.068-0.667-8.249-1.005-12.505-1.005h21.656c4.256,0,8.437,0.338,12.505,1.005c6.501,1.043,12.721,2.894,18.574,5.449
						C396.63,258.789,415.872,286.241,415.872,318.176z"/>
					<path style="fill:#FDD1A7;" d="M270.048,283.926L270.048,283.926c-44.22,0-80.7-34.62-83.011-78.779l-3.166-60.49
						c-1.344-25.673,19.11-47.226,44.818-47.226h82.719c25.708,0,46.162,21.553,44.818,47.226l-3.166,60.49
						C350.748,249.306,314.268,283.926,270.048,283.926z"/>
					<path style="fill:#FFA964;" d="M373.032,136.284H167.065V110.31c0-51.322,41.605-92.927,92.927-92.927h20.112
						c51.322,0,92.927,41.605,92.927,92.927V136.284z"/>
					<path style="fill:#FF872A;" d="M373.029,110.313v25.97h-21.652v-25.97c0-51.069-41.183-92.502-92.15-92.919
						c0.259-0.009,0.51-0.009,0.769-0.009h20.105C331.429,17.385,373.029,58.984,373.029,110.313z"/>
					<path style="fill:#FF872A;" d="M374.067,149.564H166.03c-7.334,0-13.28-5.946-13.28-13.28v0c0-7.334,5.946-13.28,13.28-13.28
						h208.037c7.334,0,13.28,5.946,13.28,13.28v0C387.347,143.618,381.401,149.564,374.067,149.564z"/>
					<path style="fill:#F36717;" d="M387.343,136.283c0,3.669-1.482,6.986-3.891,9.395c-2.4,2.4-5.717,3.882-9.385,3.882h-21.745
						c3.669,0,6.986-1.482,9.395-3.882c2.409-2.409,3.891-5.726,3.891-9.395c0-7.329-5.948-13.277-13.286-13.277h21.745
						C381.405,123.006,387.343,128.954,387.343,136.283z"/>
					<path style="fill:#FF872A;" d="M279.406,91.503H260.69c-5.305,0-9.606-4.301-9.606-9.606V17.106
						c0-5.305,4.301-9.606,9.606-9.606h18.715c5.305,0,9.606,4.301,9.606,9.606v64.791
						C289.012,87.202,284.711,91.503,279.406,91.503z"/>
				</g>
				<g>
					<g>
						<path style="fill:#2EA8FC;" d="M169.823,408.472H47.763c-3.451,0-6.655,1.791-8.463,4.731l-16.493,26.825
							c-0.961,1.563-1.47,3.361-1.472,5.195l-0.04,49.335c-0.004,5.49,4.445,9.943,9.934,9.943h155.129
							c5.487,0,9.934-4.448,9.934-9.934v-49.332c0-1.841-0.511-3.645-1.477-5.212l-16.535-26.827
							C176.472,410.259,173.271,408.472,169.823,408.472z"/>
						<path style="fill:#0086F9;" d="M196.29,445.229v49.334c0,5.494-4.441,9.934-9.934,9.934h-20.564
							c5.494,0,9.934-4.441,9.934-9.934v-49.334c0-1.838-0.507-3.646-1.47-5.206l-16.541-26.833
							c-1.808-2.931-5.007-4.719-8.454-4.719h20.564c3.447,0,6.646,1.788,8.454,4.719l16.541,26.833
							C195.783,441.583,196.29,443.391,196.29,445.229z"/>
					</g>
				</g>
			</g>
			<g>
				<g>
					<path style="fill:#FF872A;" d="M478.824,489.872h-8.763c-10.742,0-19.45-8.708-19.45-19.45V362.52
						c0-10.742,8.708-19.45,19.45-19.45h8.763c10.742,0,19.45,8.708,19.45,19.45v107.902
						C498.273,481.164,489.565,489.872,478.824,489.872z"/>
					<path style="fill:#F36717;" d="M498.273,362.516v107.91c0,10.741-8.709,19.45-19.45,19.45h-8.759
						c-2.112,0-4.144-0.34-6.036-0.961c7.788-2.543,13.414-9.86,13.414-18.489v-107.91c0-8.629-5.626-15.946-13.414-18.489
						c1.892-0.621,3.924-0.961,6.036-0.961h8.759C489.565,343.066,498.273,351.775,498.273,362.516z"/>
				</g>
				<path style="fill:#EFE2DD;" d="M467.143,150.829h14.597c5.169,0,9.487,3.935,9.967,9.081l4.14,44.428
					c0.547,5.87-4.072,10.939-9.967,10.939h-22.877c-5.895,0-10.514-5.069-9.967-10.939l4.14-44.428
					C457.656,154.764,461.975,150.829,467.143,150.829z"/>
				<path style="fill:#CDBFBB;" d="M485.885,215.273h-17.017c5.886,0,10.511-5.065,9.96-10.931l-4.134-44.435
					c-0.44-4.735-4.144-8.449-8.759-8.999c0.401-0.06,0.801-0.08,1.211-0.08h14.595c5.165,0,9.49,3.934,9.97,9.079l4.134,44.435
					C496.396,210.208,491.771,215.273,485.885,215.273z"/>
			</g>
		</g>
		<g>
			<circle style="fill:#9E9797;" cx="66.714" cy="318.648" r="17.813"/>
			<path style="fill:#FBCC85;" d="M64.57,144.255c-27.589,1.088-49.96,23.662-50.818,51.259
				c-0.429,13.808,4.429,26.47,12.701,36.125c9.956,11.62,15.954,26.07,16.507,41.299h47.505
				c0.519-15.011,6.101-29.462,16.051-40.77c8.208-9.328,13.187-21.564,13.187-34.967C119.702,167.225,94.811,143.062,64.57,144.255
				z"/>
			<path style="fill:#E8B76B;" d="M119.7,197.197c0,13.404-4.975,25.646-13.183,34.976c-9.95,11.302-15.536,25.756-16.056,40.762
				H68.818c0.511-15.006,6.096-29.46,16.046-40.762c8.208-9.329,13.184-21.572,13.184-34.976c0-25.556-18.089-46.888-42.163-51.873
				c2.823-0.591,5.726-0.951,8.689-1.071C94.814,143.062,119.7,167.227,119.7,197.197z"/>
			<path style="fill:#EFE2DD;" d="M87.012,313.731H46.417c-5.528,0-10.01-4.482-10.01-10.01V280.57c0-5.528,4.482-10.01,10.01-10.01
				h40.595c5.528,0,10.01,4.482,10.01,10.01v23.151C97.022,309.249,92.54,313.731,87.012,313.731z"/>
		</g>
	</g>
	<g>
		<path d="M363.105,351.4c-4.143,0-7.5,3.357-7.5,7.5v130.976c0,4.143,3.357,7.5,7.5,7.5s7.5-3.357,7.5-7.5V358.9
			C370.605,354.758,367.248,351.4,363.105,351.4z"/>
		<path d="M354.228,234.38c3.58-8.98,5.789-18.674,6.321-28.841l0.69-13.178c1.437,0.215,2.896,0.324,4.371,0.324
			c16.121,0,29.236-13.115,29.236-29.236c0-5.319-1.414-10.42-4.059-14.879c2.539-3.446,4.059-7.686,4.059-12.285
			c0-9.2-6.015-17.011-14.314-19.737v-6.236c0-49.619-36.42-91.8-85.142-99.244C292.941,4.61,286.71,0,279.406,0H260.69
			c-7.296,0-13.523,4.601-15.977,11.048c-22.675,3.467-43.493,14.61-59.057,31.736c-16.825,18.512-26.091,42.493-26.091,67.527
			v6.236c-8.3,2.726-14.315,10.537-14.315,19.737c0,4.608,1.526,8.856,4.075,12.306c-2.641,4.477-4.075,9.611-4.075,14.858
			c0,16.121,13.115,29.236,29.236,29.236c1.464,0,2.924-0.123,4.37-0.342l0.691,13.195c0.532,10.167,2.741,19.861,6.321,28.842
			c-18.017,3.467-34.483,12.676-46.971,26.415c-14.297,15.73-22.171,36.109-22.171,57.383v57.526H67.384c-4.143,0-7.5,3.357-7.5,7.5
			v17.768H47.762c-6.014,0-11.704,3.183-14.851,8.304L16.42,436.098c-1.688,2.744-2.582,5.898-2.584,9.119l-0.041,49.334
			c-0.004,4.66,1.808,9.041,5.102,12.338c3.293,3.296,7.673,5.111,12.333,5.111h99.773c4.143,0,7.5-3.357,7.5-7.5
			s-3.357-7.5-7.5-7.5H31.229c-0.878,0-1.456-0.447-1.723-0.714c-0.266-0.267-0.713-0.845-0.712-1.723l0.037-44.646h159.961v44.647
			c0,1.343-1.092,2.435-2.435,2.435h-20.499c-4.143,0-7.5,3.357-7.5,7.5s3.357,7.5,7.5,7.5h20.499
			c9.613,0,17.435-7.821,17.435-17.435v-28.916h31.688c4.143,0,7.5-3.357,7.5-7.5s-3.357-7.5-7.5-7.5h-31.688v-5.416
			c0-3.232-0.896-6.396-2.593-9.147l-16.535-26.829c-0.055-0.09-0.117-0.174-0.174-0.263v-46c0-4.143-3.357-7.5-7.5-7.5
			s-7.5,3.357-7.5,7.5v37.978h-11.789v-17.768c0-4.143-3.357-7.5-7.5-7.5h-18.476v-57.526c0-35.594,26.194-65.231,61.233-69.739
			c4.766,7.702,10.638,14.633,17.41,20.561l3.146,30.594c0.675,6.565,4.691,12.056,10.744,14.688
			c2.351,1.022,4.807,1.525,7.24,1.525c3.833,0,7.61-1.249,10.828-3.686l20.221-15.313v193.064c0,4.143,3.357,7.5,7.5,7.5
			s7.5-3.357,7.5-7.5V296.808l20.222,15.313c3.218,2.437,6.994,3.686,10.828,3.686c2.433,0,4.89-0.504,7.239-1.524
			c6.053-2.632,10.069-8.122,10.745-14.688l3.145-30.595c6.771-5.927,12.643-12.858,17.409-20.56
			c35.04,4.508,61.233,34.146,61.233,69.739V480.48c0,1.045-0.85,1.896-1.895,1.896c-4.143,0-7.5,3.357-7.5,7.5s3.357,7.5,7.5,7.5
			c9.315,0,16.895-7.579,16.895-16.896V318.178c0-21.273-7.874-41.652-22.171-57.383
			C388.711,247.056,372.246,237.847,354.228,234.38z M74.884,390.704h41.842v10.268H74.884V390.704z M45.691,417.129
			c0.438-0.714,1.232-1.157,2.071-1.157h122.061c0.852,0,1.627,0.433,2.073,1.157l10.964,17.789H34.753L45.691,417.129z
			 M142.702,390.704v10.268h-10.976v-10.268H142.702z M166.03,142.063c-3.188,0-5.78-2.593-5.78-5.779c0-3.188,2.593-5.78,5.78-5.78
			h208.037c3.187,0,5.779,2.593,5.779,5.78c0,3.187-2.593,5.779-5.779,5.779H166.03z M365.61,177.685
			c-1.223,0-2.417-0.169-3.578-0.469l1.055-20.152h10.98c1.389,0,2.745-0.143,4.059-0.404c1.121,2.06,1.721,4.377,1.721,6.789
			C379.846,171.298,373.46,177.685,365.61,177.685z M258.585,17.106c0-1.161,0.944-2.106,2.105-2.106h18.716
			c1.161,0,2.105,0.945,2.105,2.106v64.79c0,1.161-0.944,2.106-2.105,2.106H260.69c-1.161,0-2.105-0.945-2.105-2.106V17.106z
			 M196.756,52.872c12.462-13.711,28.872-22.918,46.829-26.413v55.438c0,9.433,7.674,17.106,17.105,17.106h18.716
			c9.432,0,17.105-7.674,17.105-17.106V26.478c39.724,7.719,69.021,42.783,69.021,83.833v5.193H174.565v-5.193
			C174.565,89.016,182.446,68.617,196.756,52.872z M174.486,177.685c-7.85,0-14.236-6.387-14.236-14.236
			c0-2.42,0.596-4.723,1.725-6.788c1.313,0.261,2.667,0.404,4.056,0.404h10.979l1.055,20.157
			C176.907,177.52,175.714,177.685,174.486,177.685z M233.273,300.162c-1.228,0.93-2.428,0.626-3.033,0.363
			c-0.605-0.264-1.646-0.934-1.803-2.466l-1.823-17.724c6.757,3.696,14.02,6.572,21.671,8.458L233.273,300.162z M311.661,298.06
			c-0.157,1.531-1.197,2.202-1.804,2.466c-0.606,0.263-1.806,0.564-3.032-0.363l-15.014-11.369
			c7.651-1.886,14.915-4.763,21.672-8.458L311.661,298.06z M270.048,276.427c-40.244,0-73.417-31.482-75.521-71.672l-2.497-47.691
			h156.037l-2.498,47.691C343.466,244.944,310.293,276.427,270.048,276.427z"/>
		<path d="M231.299,184.468c-4.143,0-7.5,3.405-7.5,7.548s3.357,7.5,7.5,7.5s7.5-3.357,7.5-7.5v-0.096
			C238.799,187.777,235.442,184.468,231.299,184.468z"/>
		<path d="M308.797,184.468c-4.143,0-7.5,3.405-7.5,7.548s3.357,7.5,7.5,7.5s7.5-3.357,7.5-7.5v-0.096
			C316.297,187.777,312.939,184.468,308.797,184.468z"/>
		<path d="M293.774,216.447c-3.977-1.142-8.136,1.153-9.281,5.135c-1.843,6.407-7.782,10.882-14.444,10.882
			s-12.603-4.475-14.444-10.881c-1.144-3.982-5.305-6.278-9.28-5.136c-3.981,1.145-6.28,5.3-5.136,9.28
			c3.68,12.798,15.548,21.736,28.86,21.736c13.312,0,25.179-8.938,28.86-21.735C300.053,221.748,297.755,217.593,293.774,216.447z"
			/>
		<path d="M336.914,387.736h-32.296c-4.143,0-7.5,3.357-7.5,7.5s3.357,7.5,7.5,7.5h32.296c4.143,0,7.5-3.357,7.5-7.5
			S341.056,387.736,336.914,387.736z"/>
		<path d="M235.48,387.736h-32.296c-4.143,0-7.5,3.357-7.5,7.5s3.357,7.5,7.5,7.5h32.296c4.143,0,7.5-3.357,7.5-7.5
			S239.623,387.736,235.48,387.736z"/>
		<path d="M336.914,450.649h-32.296c-4.143,0-7.5,3.357-7.5,7.5s3.357,7.5,7.5,7.5h32.296c4.143,0,7.5-3.357,7.5-7.5
			S341.056,450.649,336.914,450.649z"/>
		<path d="M101.843,459.053c-4.143,0-7.5,3.357-7.5,7.5s3.357,7.5,7.5,7.5h13.9c4.143,0,7.5-3.357,7.5-7.5s-3.357-7.5-7.5-7.5
			H101.843z"/>
		<path d="M481.942,335.756V222.777h3.938c4.915,0,9.633-2.084,12.942-5.717c3.311-3.633,4.948-8.524,4.492-13.419l-4.141-44.428
			c-0.844-9.056-8.339-15.885-17.435-15.885h-14.597c-9.096,0-16.591,6.829-17.435,15.885l-4.141,44.429
			c-0.456,4.894,1.182,9.784,4.492,13.418c3.311,3.633,8.027,5.717,12.942,5.717h3.939v112.979
			c-13.396,1.551-23.832,12.959-23.832,26.764v14.98c0,4.143,3.357,7.5,7.5,7.5s7.5-3.357,7.5-7.5v-14.98
			c0-6.589,5.36-11.95,11.95-11.95h8.764c6.589,0,11.949,5.361,11.949,11.95v107.901c0,6.59-5.36,11.95-11.949,11.95h-8.764
			c-6.59,0-11.95-5.36-11.95-11.95v-58.063c0-4.143-3.357-7.5-7.5-7.5s-7.5,3.357-7.5,7.5v58.063c0,14.86,12.09,26.95,26.95,26.95
			h8.764c14.859,0,26.949-12.09,26.949-26.95V362.521C505.773,348.715,495.337,337.308,481.942,335.756z M461.148,206.958
			c-0.279-0.307-0.734-0.964-0.645-1.924l4.141-44.428c0.121-1.299,1.195-2.277,2.499-2.277h14.597c1.304,0,2.378,0.979,2.499,2.277
			l4.141,44.427c0.09,0.962-0.365,1.618-0.644,1.925c-0.279,0.306-0.891,0.819-1.855,0.819h-22.878
			C462.039,207.777,461.426,207.264,461.148,206.958z"/>
		<path d="M34.939,267.378c-3.687,3.213-6.032,7.929-6.032,13.192v23.15c0,7.939,5.315,14.651,12.57,16.79
			c0.957,13.091,11.906,23.452,25.238,23.452c13.33,0,24.279-10.361,25.237-23.452c7.256-2.139,12.571-8.851,12.571-16.79v-23.15
			c0-5.274-2.354-10-6.055-13.213c1.526-11.23,6.302-21.852,13.679-30.236c9.709-11.034,15.057-25.212,15.057-39.921
			c0-9.12-1.993-17.902-5.924-26.104c-1.79-3.736-6.272-5.313-10.005-3.522c-3.735,1.791-5.313,6.27-3.522,10.005
			c2.954,6.162,4.451,12.765,4.451,19.622c0,11.06-4.02,21.718-11.318,30.013c-8.818,10.022-14.692,22.551-16.931,35.846H49.445
			c-2.284-13.216-8.219-25.707-17.297-36.301c-7.383-8.617-11.253-19.63-10.899-31.012c0.737-23.735,19.896-43.062,43.617-43.998
			c7.645-0.296,14.981,1.239,21.805,4.578c3.725,1.824,8.214,0.28,10.033-3.439c1.821-3.721,0.281-8.213-3.439-10.033
			c-8.953-4.382-18.973-6.489-28.99-6.094c-31.553,1.245-57.037,26.951-58.018,58.521c-0.471,15.128,4.679,29.773,14.501,41.237
			C28.475,245.525,33.361,256.18,34.939,267.378z M87.011,278.06c1.385,0,2.511,1.126,2.511,2.511v3.852H43.907v-3.852
			c0-1.385,1.126-2.511,2.51-2.511H87.011z M89.522,303.721c0,1.385-1.126,2.511-2.511,2.511H46.417c-1.384,0-2.51-1.126-2.51-2.511
			v-4.299h45.615V303.721z M66.715,328.962c-4.793,0-8.822-3.292-9.973-7.73h19.945C75.535,325.67,71.508,328.962,66.715,328.962z"
			/>
	</g>
</g>
<g>
</g>
<g>
</g>
<g>
</g>
<g>
</g>
<g>
</g>
<g>
</g>
<g>
</g>
<g>
</g>
<g>
</g>
<g>
</g>
<g>
</g>
<g>
</g>
<g>
</g>
<g>
</g>
<g>
</g>
</svg>
