<?xml version="1.0" encoding="iso-8859-1"?>
<!-- Generator: Adobe Illustrator 23.0.3, SVG Export Plug-In . SVG Version: 6.00 Build 0)  -->
<svg version="1.1" id="Capa_1" xmlns="http://www.w3.org/2000/svg" xmlns:xlink="http://www.w3.org/1999/xlink" x="0px" y="0px"
	 viewBox="0 0 511.992 511.992" style="enable-background:new 0 0 511.992 511.992;" xml:space="preserve">
<g>
	<g>
		<g>
			<g>
				<g>
					<g>
						<path style="fill:#52CC61;" d="M367.91,489.728H86.227c-5.145,0-9.316-4.171-9.316-9.316V319.485
							c0-42.626,34.555-77.181,77.181-77.181h145.952c42.626,0,77.181,34.555,77.181,77.181v160.927
							C377.226,485.557,373.055,489.728,367.91,489.728z"/>
						<rect x="135.729" y="394.516" style="fill:#FBCC85;" width="182.678" height="95.212"/>
						<rect x="298.321" y="394.516" style="fill:#E8B76B;" width="20.087" height="95.212"/>
						<path style="fill:#00B232;" d="M377.221,319.483v160.929c0,5.142-4.164,9.315-9.315,9.315h-19.98
							c5.142,0,9.315-4.173,9.315-9.315V319.483c0-42.624-34.557-77.181-77.181-77.181h19.98
							C342.673,242.302,377.221,276.859,377.221,319.483z"/>
					</g>
				</g>
				<g>
					<g>
						<g>
							<path style="fill:#FFA964;" d="M463.976,262.161c-9.542,9.542-12.588,23.115-9.138,35.237
								c12.116,3.455,25.7,0.409,35.242-9.133c9.542-9.542,12.588-23.126,9.138-35.247
								C487.092,249.573,473.518,252.619,463.976,262.161z"/>
						</g>
						<g>
							<g>
								<g>
									<path style="fill:#FF872A;" d="M490.077,288.261c-8.05,8.05-18.97,11.478-29.466,10.275c5.2-1.81,10.092-4.93,14.232-9.35
										c9.408-10.072,12.499-24.334,9.283-37.16c5.027-0.732,10.178-0.404,15.089,0.992
										C502.672,265.14,499.62,278.718,490.077,288.261z"/>
								</g>
							</g>
						</g>
					</g>
					<g>
						<g>
							<path style="fill:#FFA964;" d="M463.976,327.849c-9.542,9.542-12.588,23.115-9.138,35.237
								c12.116,3.455,25.7,0.409,35.242-9.133c9.542-9.542,12.588-23.126,9.138-35.247
								C487.092,315.261,473.518,318.307,463.976,327.849z"/>
						</g>
						<g>
							<g>
								<g>
									<path style="fill:#FF872A;" d="M490.077,353.949c-8.05,8.05-18.97,11.478-29.466,10.275c5.2-1.81,10.092-4.93,14.232-9.35
										c9.408-10.072,12.499-24.334,9.283-37.16c5.027-0.732,10.178-0.404,15.089,0.992
										C502.672,330.828,499.62,344.406,490.077,353.949z"/>
								</g>
							</g>
						</g>
					</g>
					<g>
						<g>
							<path style="fill:#FFA964;" d="M463.976,393.537c-9.542,9.542-12.588,23.115-9.138,35.237
								c12.116,3.455,25.7,0.409,35.242-9.133c9.542-9.542,12.588-23.126,9.138-35.247
								C487.092,380.949,473.518,383.995,463.976,393.537z"/>
						</g>
						<g>
							<g>
								<g>
									<path style="fill:#FF872A;" d="M490.077,419.637c-8.05,8.05-18.97,11.478-29.466,10.275c5.2-1.81,10.092-4.93,14.232-9.35
										c9.408-10.072,12.499-24.334,9.283-37.16c5.027-0.732,10.178-0.404,15.089,0.992
										C502.672,396.516,499.62,410.094,490.077,419.637z"/>
								</g>
							</g>
						</g>
					</g>
					<g>
						<g>
							<path style="fill:#FFA964;" d="M442.952,262.161c9.542,9.542,12.588,23.115,9.138,35.237
								c-12.116,3.455-25.7,0.409-35.242-9.133c-9.542-9.542-12.588-23.126-9.138-35.247
								C419.836,249.573,433.41,252.619,442.952,262.161z"/>
						</g>
						<g>
							<path style="fill:#FF872A;" d="M452.088,297.4c-5.344,1.522-10.978,1.782-16.418,0.78
								c4.237-10.467,3.495-22.764-3.101-32.981c-4.035-6.24-9.678-10.824-16.043-13.53c9.533-0.279,19.153,3.226,26.423,10.496
								C452.493,271.699,455.536,285.277,452.088,297.4z"/>
						</g>
					</g>
					<g>
						<g>
							<path style="fill:#FFA964;" d="M442.952,327.848c9.542,9.542,12.588,23.115,9.138,35.237
								c-12.116,3.455-25.7,0.409-35.242-9.133c-9.542-9.542-12.588-23.126-9.138-35.247
								C419.836,315.26,433.41,318.306,442.952,327.848z"/>
						</g>
						<g>
							<g>
								<path style="fill:#FF872A;" d="M452.088,363.083c-5.344,1.522-10.978,1.782-16.418,0.78
									c4.237-10.467,3.486-22.764-3.101-32.971c-4.035-6.25-9.678-10.824-16.043-13.539c9.533-0.279,19.144,3.216,26.423,10.496
									C452.493,337.391,455.536,350.959,452.088,363.083z"/>
							</g>
						</g>
					</g>
					<g>
						<g>
							<path style="fill:#FFA964;" d="M442.952,393.535c9.542,9.542,12.588,23.115,9.138,35.237
								c-12.116,3.455-25.7,0.409-35.242-9.133c-9.542-9.542-12.588-23.126-9.138-35.247
								C419.836,380.947,433.41,383.993,442.952,393.535z"/>
						</g>
						<g>
							<path style="fill:#FF872A;" d="M452.088,428.775c-5.344,1.521-10.968,1.781-16.418,0.78
								c4.237-10.467,3.495-22.774-3.101-32.981c-4.035-6.25-9.678-10.824-16.043-13.539c9.533-0.279,19.144,3.216,26.423,10.496
								C452.493,403.074,455.536,416.652,452.088,428.775z"/>
						</g>
					</g>
				</g>
				<g>
					<g>
						<path style="fill:#E8B76B;" d="M315.932,37.054V99.03c0,4.392-3.131,8.154-7.449,8.958
							c-23.538,4.379-51.467,6.917-81.414,6.917s-57.876-2.538-81.414-6.917c-4.318-0.803-7.449-4.565-7.449-8.958V37.054
							c0-21.804,22.823-36.089,42.431-26.552c14.637,7.12,30.24,14.675,46.432,14.675s31.795-7.555,46.432-14.675
							C293.109,0.965,315.932,15.25,315.932,37.054z"/>
						<path style="fill:#C99D5C;" d="M315.932,37.055v61.974c0,4.389-3.133,8.159-7.449,8.96c-6.31,1.175-12.939,2.213-19.832,3.105
							c1.767-1.666,2.841-4.025,2.841-6.602V37.055c0-12.375-7.357-22.327-17.301-26.871
							C293.641,1.306,315.932,15.502,315.932,37.055z"/>
					</g>
					<g>
						<ellipse style="fill:#FBCC85;" cx="227.069" cy="123.126" rx="177.143" ry="51.874"/>
						<path style="fill:#E8B76B;" d="M404.21,123.131c0,15.725-23.905,29.826-61.657,39.333
							c20.574-11.098,32.68-24.669,32.68-39.333s-12.096-28.234-32.659-39.333C380.315,93.305,404.21,107.396,404.21,123.131z"/>
					</g>
					<path style="fill:#FFBC8A;" d="M227.069,310.386L227.069,310.386c-17.598,0-31.863-14.266-31.863-31.863v-43.15h63.726v43.15
						C258.932,296.12,244.666,310.386,227.069,310.386z"/>
					<g>
						<g>
							<circle style="fill:#FFBC8A;" cx="321.821" cy="153.142" r="21.552"/>
						</g>
						<g>
							<circle style="fill:#FFBC8A;" cx="132.316" cy="153.142" r="21.552"/>
						</g>
					</g>
					<path style="fill:#FDD1A7;" d="M303.73,126.188c4.508,0.773,7.741,4.768,7.574,9.339l-1.931,52.872
						c-1.142,21.897-10.761,41.418-25.569,55.477c-14.808,14.049-34.813,22.636-56.737,22.636
						c-43.839,0-80.013-34.329-82.306-78.113l-1.931-52.872c-0.167-4.571,3.066-8.565,7.574-9.339
						c22.507-3.862,48.698-6.073,76.663-6.073S281.223,122.326,303.73,126.188z"/>
				</g>
			</g>
			<g>
				<g>
					<path style="fill:#EFE2DD;" d="M122.997,288.17L122.997,288.17c-7.032,0-12.733,5.701-12.733,12.733v71.05
						c0,6.618-5.365,11.983-11.983,11.983h0c-6.618,0-11.983-5.365-11.983-11.983v-71.05c0-7.032-5.701-12.733-12.733-12.733h0
						c-7.032,0-12.733,5.701-12.733,12.733v71.05c0,6.618-5.365,11.983-11.983,11.983h0c-6.618,0-11.983-5.365-11.983-11.983
						l0-70.69c0-6.856-5.269-12.755-12.117-13.078c-7.312-0.344-13.348,5.482-13.348,12.718v103.659
						c0,16.916,13.713,30.63,30.63,30.63H105.1c16.916,0,30.63-13.713,30.63-30.63V300.903
						C135.729,293.871,130.029,288.17,122.997,288.17z"/>
				</g>
				<path style="fill:#9E9797;" d="M78.212,504.492h-8.873c-5.318,0-9.63-4.311-9.63-9.63v-72.92
					c0-7.768,6.298-14.066,14.066-14.066h0c7.768,0,14.066,6.298,14.066,14.066v72.92C87.841,500.181,83.53,504.492,78.212,504.492z
					"/>
			</g>
		</g>
	</g>
	<g>
		<path d="M377.225,426.69c-4.143,0-7.5,3.357-7.5,7.5v46.222c0,1.001-0.814,1.815-1.815,1.815c-4.143,0-7.5,3.357-7.5,7.5
			s3.357,7.5,7.5,7.5c9.272,0,16.815-7.543,16.815-16.815V434.19C384.725,430.048,381.368,426.69,377.225,426.69z"/>
		<path d="M301.292,234.835c9.267-13.522,14.701-29.359,15.571-46.045c0.002-0.039,0.003-0.078,0.005-0.117l0.251-6.877
			c1.551,0.254,3.122,0.398,4.702,0.398c10.026,0,18.881-5.105,24.104-12.852c54.344-14,65.786-32.844,65.786-46.215
			c0-17.732-19.806-32.905-57.276-43.878c-9.528-2.791-19.924-5.23-31.004-7.298V37.054c0-12.844-6.5-24.578-17.389-31.39
			c-10.885-6.809-24.275-7.522-35.822-1.905c-14.068,6.843-28.616,13.918-43.152,13.918c-14.535,0-29.083-7.076-43.151-13.918
			c-11.546-5.616-24.938-4.904-35.823,1.906c-10.888,6.812-17.389,18.545-17.389,31.389V71.95
			c-11.079,2.068-21.476,4.507-31.004,7.298c-37.471,10.973-57.276,26.146-57.276,43.878c0,13.41,11.483,32.24,65.787,46.216
			c5.223,7.746,14.078,12.851,24.104,12.851c1.579,0,3.149-0.143,4.698-0.397l0.251,6.876c0.001,0.04,0.003,0.079,0.005,0.119
			c0.895,17.086,6.531,32.834,15.567,46.035c-31.678,0.464-60.184,18.421-74.342,46.476c-1.581-0.398-3.227-0.633-4.93-0.633
			c-11.156,0-20.233,9.077-20.233,20.233v71.05c0,2.472-2.011,4.482-4.483,4.482s-4.483-2.011-4.483-4.482v-70.69
			c0-11.026-8.462-20.062-19.265-20.57c-5.59-0.256-10.893,1.717-14.933,5.57c-3.983,3.801-6.268,9.137-6.268,14.641v43.863
			c0,4.143,3.358,7.5,7.5,7.5s7.5-3.357,7.5-7.5v-43.863c0-1.444,0.576-2.79,1.622-3.787c1.044-0.998,2.415-1.528,3.874-1.439
			c2.74,0.129,4.97,2.635,4.97,5.586v70.69c0,10.742,8.74,19.482,19.483,19.482s19.483-8.74,19.483-19.482v-71.05
			c0-2.886,2.348-5.233,5.233-5.233s5.233,2.348,5.233,5.233v71.05c0,10.742,8.74,19.482,19.483,19.482s19.483-8.74,19.483-19.482
			v-71.05c0-2.886,2.348-5.233,5.233-5.233s5.233,2.348,5.233,5.233v103.659c0,12.754-10.376,23.13-23.13,23.13h-9.759v-5.749
			c0-11.892-9.674-21.566-21.566-21.566s-21.566,9.675-21.566,21.566v5.749H42.03c-12.753,0-23.129-10.376-23.129-23.13v-24.592
			c0-4.143-3.358-7.5-7.5-7.5s-7.5,3.357-7.5,7.5v24.592c0,21.024,17.105,38.13,38.129,38.13h10.179v61.8c0,4.143,3.358,7.5,7.5,7.5
			s7.5-3.357,7.5-7.5v-82.549c0-3.621,2.945-6.566,6.566-6.566s6.566,2.945,6.566,6.566v82.549c0,4.143,3.358,7.5,7.5,7.5
			s7.5-3.357,7.5-7.5v-61.8h9.759c8.692,0,16.709-2.93,23.13-7.845v52.085c0,4.143,3.358,7.5,7.5,7.5s7.5-3.357,7.5-7.5v-84.916
			h167.678v84.916c0,4.143,3.357,7.5,7.5,7.5s7.5-3.357,7.5-7.5V367.137c0-4.143-3.357-7.5-7.5-7.5s-7.5,3.357-7.5,7.5v19.88
			h-14.724V249.804h3.86c38.422,0,69.681,31.259,69.681,69.682V399c0,4.143,3.357,7.5,7.5,7.5s7.5-3.357,7.5-7.5v-79.515
			C384.725,273.21,347.41,235.508,301.292,234.835z M321.821,167.193c-1.412,0-2.81-0.218-4.145-0.628l0.99-27.111
			c1.026-0.235,2.079-0.364,3.155-0.364c7.748,0,14.052,6.304,14.052,14.052S329.569,167.193,321.821,167.193z M145.706,37.054
			c0-7.641,3.867-14.62,10.344-18.673c6.474-4.049,14.438-4.474,21.307-1.134c14.87,7.232,31.723,15.43,49.712,15.43
			c17.99,0,34.843-8.197,49.712-15.43c6.866-3.339,14.831-2.917,21.307,1.134c6.477,4.052,10.344,11.032,10.344,18.673V69.44
			c-24.941-3.719-52.654-5.688-81.363-5.688c-28.709,0-56.422,1.969-81.363,5.688V37.054z M132.316,167.193
			c-7.748,0-14.052-6.304-14.052-14.052s6.304-14.052,14.052-14.052c1.073,0,2.125,0.132,3.151,0.367l0.99,27.11
			C135.123,166.976,133.726,167.193,132.316,167.193z M150.324,135.254c-0.03-0.817,0.549-1.536,1.348-1.674
			c22.741-3.902,48.812-5.965,75.395-5.965c4.335,0,8.855,0.061,13.436,0.18c4.134,0.125,7.585-3.16,7.693-7.302
			c0.108-4.141-3.161-7.585-7.302-7.692c-4.71-0.123-9.362-0.186-13.827-0.186c-27.419,0-54.367,2.138-77.932,6.182
			c-4.148,0.711-7.714,2.95-10.185,6.062c-2.161-0.506-4.378-0.769-6.634-0.769c-15.778,0-28.65,12.646-29.034,28.334
			c-33.606-9.92-45.857-21.721-45.857-29.298c0-18.529,64.538-44.374,169.643-44.374s169.643,25.845,169.643,44.374
			c0,7.542-12.234,19.361-45.857,29.293c-0.386-15.686-13.256-28.329-29.033-28.329c-2.26,0-4.477,0.264-6.637,0.77
			c-2.471-3.113-6.037-5.352-10.186-6.063c-8.95-1.536-18.494-2.813-28.368-3.793c-4.122-0.423-7.796,2.6-8.204,6.722
			c-0.41,4.122,2.6,7.795,6.722,8.204c9.521,0.946,18.712,2.175,27.313,3.65c0.798,0.138,1.378,0.856,1.348,1.674l-1.93,52.811
			c-1.016,19.221-9.269,37.108-23.238,50.371c-13.985,13.27-32.302,20.577-51.575,20.577c-39.849,0-72.699-31.159-74.813-70.947
			L150.324,135.254z M202.706,270.648c7.758,2.179,15.924,3.365,24.361,3.365c8.336,0,16.518-1.156,24.366-3.359v7.868
			c0,13.434-10.93,24.363-24.364,24.363c-13.434,0-24.363-10.93-24.363-24.363V270.648z M143.23,300.903
			c0-11.156-9.077-20.233-20.233-20.233s-20.233,9.077-20.233,20.233v71.05c0,2.472-2.011,4.482-4.483,4.482
			c-2.472,0-4.483-2.011-4.483-4.482v-71.05c0-3.875-1.114-7.486-3.011-10.566c11.373-24.695,35.978-40.533,63.306-40.533h3.86
			v137.213H143.23V300.903z M172.953,387.017V255.89c4.597,3.469,9.533,6.502,14.752,9.046v13.586
			c0,21.705,17.658,39.363,39.363,39.363s39.363-17.658,39.363-39.363v-13.584c5.172-2.522,10.11-5.547,14.752-9.055v131.133
			H172.953z"/>
		<path d="M464.679,371.963c11.357,0,22.456-4.46,30.704-12.706c11.126-11.127,15.36-27.452,11.049-42.604
			c-0.711-2.499-2.665-4.452-5.165-5.162c-14.141-4.016-29.301-0.588-40.304,8.931v-14.326c1.24,0.106,2.48,0.179,3.717,0.179
			c11.357,0,22.456-4.46,30.703-12.706c11.126-11.127,15.36-27.452,11.049-42.604c-0.711-2.499-2.665-4.452-5.165-5.162
			c-14.141-4.016-29.301-0.588-40.304,8.931v-6.739c0-4.143-3.357-7.5-7.5-7.5s-7.5,3.357-7.5,7.5v6.738
			c-11.002-9.518-26.161-12.948-40.303-8.93c-2.5,0.71-4.454,2.663-5.165,5.162c-4.312,15.151-0.077,31.477,11.049,42.604
			c8.248,8.247,19.345,12.706,30.703,12.706c1.237,0,2.476-0.072,3.716-0.179v14.324c-11.002-9.518-26.161-12.948-40.303-8.931
			c-2.5,0.71-4.454,2.663-5.165,5.162c-4.312,15.152-0.077,31.478,11.05,42.604c8.248,8.247,19.345,12.706,30.703,12.706
			c1.236,0,2.476-0.072,3.715-0.179v14.324c-11.002-9.518-26.161-12.948-40.303-8.93c-2.5,0.71-4.454,2.663-5.165,5.162
			c-4.312,15.151-0.077,31.477,11.049,42.604c8.248,8.247,19.345,12.706,30.703,12.706c1.237,0,2.476-0.072,3.716-0.179v67.023
			c0,4.143,3.357,7.5,7.5,7.5s7.5-3.357,7.5-7.5v-67.021c1.24,0.106,2.48,0.179,3.717,0.179c11.357,0,22.456-4.46,30.703-12.706
			c11.126-11.127,15.36-27.452,11.049-42.604c-0.711-2.499-2.665-4.452-5.165-5.162c-14.141-4.016-29.301-0.588-40.304,8.931
			v-14.326C462.203,371.891,463.442,371.963,464.679,371.963z M469.28,333.152c6.239-6.238,14.98-9.162,23.597-8.103
			c1.067,8.618-1.859,17.359-8.1,23.6c-6.244,6.242-14.984,9.17-23.596,8.097C460.114,348.132,463.04,339.392,469.28,333.152z
			 M469.28,267.465c6.239-6.238,14.98-9.167,23.597-8.103c1.066,8.617-1.86,17.358-8.101,23.599
			c-6.242,6.243-14.983,9.166-23.595,8.097C460.113,282.444,463.04,273.704,469.28,267.465z M445.747,291.058
			c-8.613,1.072-17.353-1.854-23.595-8.097c-6.24-6.24-9.167-14.981-8.101-23.599c8.617-1.061,17.359,1.864,23.597,8.103
			C443.888,273.704,446.815,282.444,445.747,291.058z M445.747,356.745c-8.613,1.073-17.353-1.854-23.595-8.097
			c-6.241-6.24-9.168-14.981-8.101-23.6c8.617-1.062,17.359,1.863,23.597,8.103C443.888,339.391,446.814,348.131,445.747,356.745z
			 M445.747,422.432c-8.613,1.077-17.353-1.853-23.595-8.097c-6.24-6.24-9.167-14.981-8.101-23.599
			c8.617-1.058,17.359,1.863,23.597,8.103C443.888,405.078,446.815,413.818,445.747,422.432z M469.28,398.841
			c6.239-6.237,14.98-9.165,23.597-8.103c1.066,8.617-1.86,17.358-8.101,23.599c-6.242,6.243-14.983,9.168-23.595,8.097
			C460.113,413.82,463.04,405.08,469.28,398.841z"/>
		<path d="M188.649,188.47c4.142,0,7.5-3.357,7.5-7.5v-0.096c0-4.143-3.358-7.452-7.5-7.452s-7.5,3.405-7.5,7.548
			S184.506,188.47,188.649,188.47z"/>
		<path d="M265.489,188.47c4.143,0,7.5-3.357,7.5-7.5v-0.096c0-4.143-3.357-7.452-7.5-7.452s-7.5,3.405-7.5,7.548
			S261.346,188.47,265.489,188.47z"/>
		<path d="M227.068,236.012c13.227,0,25.02-8.881,28.677-21.598c1.145-3.98-1.154-8.136-5.135-9.281
			c-3.982-1.144-8.136,1.155-9.281,5.135c-1.819,6.326-7.684,10.744-14.261,10.744c-6.578,0-12.442-4.418-14.261-10.744
			c-1.145-3.98-5.301-6.284-9.281-5.135c-3.981,1.145-6.28,5.3-5.135,9.281C202.049,227.13,213.841,236.012,227.068,236.012z"/>
		<path d="M276.667,434.622h-99.196c-4.142,0-7.5,3.357-7.5,7.5s3.358,7.5,7.5,7.5h99.196c4.143,0,7.5-3.357,7.5-7.5
			S280.809,434.622,276.667,434.622z"/>
		<path d="M394.074,68.353c4.143,0,7.5-3.357,7.5-7.5c0-4.704,3.827-8.531,8.531-8.531c2.619,0,4.964,1.189,6.53,3.052
			c-1.958,1.353-3.242,3.611-3.242,6.171c0,4.143,3.357,7.5,7.5,7.5h10.487c4.143,0,7.5-3.357,7.5-7.5
			c0-2.561-1.285-4.818-3.243-6.172c1.566-1.864,3.911-3.052,6.531-3.052c4.704,0,8.531,3.827,8.531,8.531
			c0,4.143,3.357,7.5,7.5,7.5s7.5-3.357,7.5-7.5c0-12.976-10.556-23.531-23.531-23.531c-6.19,0-11.826,2.406-16.032,6.328
			c-4.205-3.921-9.841-6.328-16.031-6.328c-12.976,0-23.531,10.556-23.531,23.531C386.574,64.995,389.931,68.353,394.074,68.353z"/>
		<path d="M31.973,238.012c4.142,0,7.5-3.357,7.5-7.5c0-4.704,3.827-8.531,8.531-8.531c2.619,0,4.964,1.188,6.53,3.052
			c-1.958,1.353-3.243,3.611-3.243,6.171c0,4.143,3.358,7.5,7.5,7.5h10.488c4.142,0,7.5-3.357,7.5-7.5
			c0-2.561-1.285-4.818-3.243-6.172c1.566-1.864,3.911-3.052,6.53-3.052c4.704,0,8.531,3.827,8.531,8.531c0,4.143,3.358,7.5,7.5,7.5
			s7.5-3.357,7.5-7.5c0-12.976-10.556-23.531-23.531-23.531c-6.19,0-11.826,2.406-16.031,6.328
			c-4.205-3.921-9.841-6.328-16.031-6.328c-12.975,0-23.531,10.556-23.531,23.531C24.473,234.654,27.831,238.012,31.973,238.012z"/>
		<path d="M437.43,175.667c-12.976,0-23.531,10.556-23.531,23.531c0,4.143,3.357,7.5,7.5,7.5s7.5-3.357,7.5-7.5
			c0-4.704,3.827-8.531,8.531-8.531c2.619,0,4.964,1.188,6.53,3.052c-1.958,1.353-3.243,3.611-3.243,6.172
			c0,4.143,3.357,7.5,7.5,7.5h10.488c4.143,0,7.5-3.357,7.5-7.5c0-2.561-1.285-4.819-3.243-6.172
			c1.566-1.864,3.911-3.052,6.53-3.052c4.704,0,8.531,3.827,8.531,8.531c0,4.143,3.357,7.5,7.5,7.5s7.5-3.357,7.5-7.5
			c0-12.976-10.556-23.531-23.531-23.531c-6.19,0-11.826,2.406-16.031,6.327C449.256,178.073,443.62,175.667,437.43,175.667z"/>
	</g>
</g>
<g>
</g>
<g>
</g>
<g>
</g>
<g>
</g>
<g>
</g>
<g>
</g>
<g>
</g>
<g>
</g>
<g>
</g>
<g>
</g>
<g>
</g>
<g>
</g>
<g>
</g>
<g>
</g>
<g>
</g>
</svg>
