<?xml version="1.0" encoding="iso-8859-1"?>
<!-- Generator: Adobe Illustrator 23.0.3, SVG Export Plug-In . SVG Version: 6.00 Build 0)  -->
<svg version="1.1" id="Capa_1" xmlns="http://www.w3.org/2000/svg" xmlns:xlink="http://www.w3.org/1999/xlink" x="0px" y="0px"
	 viewBox="0 0 512 512" style="enable-background:new 0 0 512 512;" xml:space="preserve">
<g>
	<g>
		<g>
			<g>
				<g>
					<path style="fill:#FF872A;" d="M361.041,486.714h-37.817c-6.931,0-12.55-5.619-12.55-12.55c0-6.931,5.619-12.55,12.55-12.55
						h37.817c13.84,0,25.1-11.26,25.1-25.1V261.369c0-27.68,22.519-50.199,50.199-50.199s50.199,22.519,50.199,50.199v98.839
						c0,6.931-5.619,12.55-12.55,12.55c-6.931,0-12.55-5.619-12.55-12.55v-98.839c0-13.84-11.26-25.1-25.1-25.1
						s-25.1,11.26-25.1,25.1v175.146C411.24,464.195,388.721,486.714,361.041,486.714z"/>
				</g>
			</g>
			<path style="fill:#CDBFBB;" d="M479.908,452.831H468.07c-5.327,0-9.726-4.16-10.024-9.478l-3.047-54.393h37.98l-3.047,54.393
				C489.634,448.671,485.235,452.831,479.908,452.831z"/>
			<path style="fill:#9E9797;" d="M486.583,399.626h-25.187c-9.895,0-17.917-8.022-17.917-17.917v0
				c0-9.895,8.022-17.917,17.917-17.917h25.187c9.895,0,17.917,8.022,17.917,17.917v0
				C504.5,391.604,496.478,399.626,486.583,399.626z"/>
		</g>
		<g>
			<path style="fill:#FF872A;" d="M301.545,139.454H94.968v-26.051c0-51.474,41.728-93.203,93.203-93.203h20.172
				c51.474,0,93.203,41.728,93.203,93.203V139.454z"/>
			<path style="fill:#F36717;" d="M301.543,113.406v26.047h-21.717v-26.047c0-51.22-41.305-92.776-92.423-93.194
				c0.26-0.009,0.511-0.009,0.771-0.009h20.165C259.82,20.203,301.543,61.926,301.543,113.406z"/>
			<path style="fill:#FAC574;" d="M207.642,94.541h-18.771c-5.321,0-9.635-4.314-9.635-9.635V19.924
				c0-5.321,4.314-9.635,9.635-9.635h18.771c5.321,0,9.635,4.314,9.635,9.635v64.983C217.277,90.227,212.963,94.541,207.642,94.541z
				"/>
		</g>
		<path style="fill:#F36717;" d="M389.015,152.046c0,56.387-85.405,134.175-190.758,134.175S7.5,208.434,7.5,152.046
			s85.405-70.021,190.758-70.021S389.015,95.659,389.015,152.046z"/>
		<path style="fill:#E0530B;" d="M389.015,152.042c0,56.394-85.409,134.183-190.758,134.183c-21.676,0-42.509-3.293-61.926-9.016
			c11.596,1.938,23.574,2.992,35.822,2.992c105.348,0,190.757-77.789,190.757-134.183c0-28.594-21.957-46.183-57.338-56.585
			C355.944,98.429,389.015,116.953,389.015,152.042z"/>
		<g>
			<g>
				<path style="fill:#0057A1;" d="M320.029,329.498v162.786c0,5.211-4.217,9.428-9.417,9.428H85.903
					c-5.201,0-9.417-4.217-9.417-9.428V329.498c0-32.027,19.297-59.557,46.896-71.594c9.538-4.167,20.09-6.466,31.164-6.466h87.423
					c4.267,0,8.454,0.331,12.53,1.004c6.526,1.044,12.761,2.901,18.634,5.462c0.03,0.01,0.05,0.02,0.07,0.04
					C300.772,269.981,320.029,297.501,320.029,329.498z"/>
				<path style="fill:#004480;" d="M320.029,329.508v162.776c0,5.211-4.217,9.428-9.417,9.428h-21.726
					c5.211,0,9.427-4.217,9.427-9.418V329.508c0-32.027-19.297-59.567-46.896-71.594c-5.873-2.57-12.108-4.428-18.634-5.472
					c-4.076-0.663-8.273-1.004-12.54-1.004h21.716c4.277,0,8.464,0.341,12.55,1.004c6.516,1.044,12.751,2.901,18.624,5.472
					C300.732,269.941,320.029,297.48,320.029,329.508z"/>
				<path style="fill:#A4E540;" d="M320.029,455.93v36.354c0,5.211-4.217,9.428-9.417,9.428H85.903
					c-5.201,0-9.417-4.217-9.417-9.428V455.93H320.029z"/>
				<path style="fill:#8EC737;" d="M320.029,455.93v36.354c0,5.211-4.217,9.428-9.417,9.428h-21.726
					c5.211,0,9.427-4.217,9.427-9.418V455.93H320.029z"/>
				<rect x="76.486" y="351.786" style="fill:#A4E540;" width="243.543" height="48.191"/>
				<rect x="298.313" y="351.786" style="fill:#8EC737;" width="21.716" height="48.191"/>
				<g>
					<g>
						<path style="fill:#FCD79F;" d="M349.113,253.939c-5.657-1.659-13.056-4.375-20.461-8.667
							c-15.411-8.931-35.423-4.189-44.534,11.117c-9.182,15.425-4.045,35.354,11.414,44.428c14.146,8.303,45.944,5.029,60.264-33.46
							C357.873,261.776,354.827,255.615,349.113,253.939z"/>
						<circle style="fill:#FBCC85;" cx="279.592" cy="228.192" r="35.072"/>
					</g>
				</g>
			</g>
			<rect x="181.691" y="260.358" style="fill:#FF872A;" width="33.134" height="241.353"/>
		</g>
		<g>
			<g>
				<g>
					<g>
						<circle style="fill:#FFBC8A;" cx="279.888" cy="174.668" r="20.934"/>
					</g>
					<g>
						<circle style="fill:#FFBC8A;" cx="117.535" cy="174.668" r="20.934"/>
					</g>
					<path style="fill:#FDD1A7;" d="M120.828,130.137l10.252,83.938c4.175,34.18,33.196,59.873,67.631,59.873l0,0
						c34.435,0,63.456-25.693,67.631-59.873l10.252-83.938H120.828z"/>
					<g>
						<line style="fill:#F69583;" x1="246.059" y1="209.485" x2="246.059" y2="209.573"/>
					</g>
					<path style="fill:#E8B76B;" d="M107.737,135.579c1.082,6.582,3.094,13.041,6.036,19.165
						c26.41,12.698,59.055,8.094,80.953-13.804c6.71-6.71,11.789-14.431,15.252-22.669h-87.566
						C113.226,118.271,106.247,126.516,107.737,135.579z"/>
					<path style="fill:#E8B76B;" d="M187.442,118.271c3.463,8.238,8.544,15.959,15.255,22.669
						c21.898,21.898,54.543,26.502,80.953,13.804c2.942-6.124,4.954-12.583,6.036-19.165c1.49-9.063-5.489-17.308-14.674-17.308
						H187.442z"/>
					<g>
						<g>
							<path style="fill:#F69583;" d="M154.403,223.042c-4.114,0-7.449-3.335-7.449-7.449s3.335-7.493,7.449-7.493
								c4.114,0,7.449,3.291,7.449,7.405v0.088C161.852,219.707,158.517,223.042,154.403,223.042z"/>
						</g>
						<g>
							<path style="fill:#F69583;" d="M243.019,223.042c-4.114,0-7.449-3.335-7.449-7.449s3.335-7.493,7.449-7.493
								s7.449,3.291,7.449,7.405v0.088C250.468,219.707,247.133,223.042,243.019,223.042z"/>
						</g>
					</g>
				</g>
			</g>
		</g>
	</g>
	<g>
		<path d="M512,381.708c0-11.422-7.573-21.106-17.961-24.3v-23.352h6.291c4.142,0,7.5-3.357,7.5-7.5s-3.358-7.5-7.5-7.5h-6.291
			v-57.688c0-31.815-25.884-57.699-57.699-57.699s-57.699,25.884-57.699,57.699v81.936c0,4.143,3.358,7.5,7.5,7.5s7.5-3.357,7.5-7.5
			v-81.936c0-23.544,19.155-42.699,42.699-42.699s42.699,19.155,42.699,42.699v57.688h-10.1v-57.688c0-17.976-14.624-32.6-32.6-32.6
			s-32.6,14.624-32.6,32.6v175.146c0,23.544-19.155,42.699-42.699,42.699h-33.512v-10.1h33.512c17.976,0,32.6-14.624,32.6-32.6
			v-57.816c0-4.143-3.358-7.5-7.5-7.5s-7.5,3.357-7.5,7.5v57.816c0,9.704-7.895,17.6-17.6,17.6h-33.512V329.498
			c0-6.693-0.782-13.318-2.309-19.77c0.469-0.151,0.938-0.3,1.403-0.465c11.35-4.04,26.843-14.135,36.203-39.29
			c1.718-4.618,1.441-9.787-0.76-14.18c-2.191-4.373-6.143-7.672-10.842-9.051c-3.336-0.978-6.617-2.149-9.759-3.475
			c34.171-27.477,55.05-61.776,55.05-91.22c0-22.863-12.212-40.836-36.296-53.419c-14.376-7.51-32.959-13.165-56.346-17.109
			c-11.934-35.784-43.019-61.967-80.221-67.649c-2.453-6.465-8.695-11.081-16.01-11.081h-18.771c-7.314,0-13.555,4.615-16.009,11.08
			c-37.31,5.691-68.308,31.838-80.238,67.676c-11.674,1.969-22.134,4.354-31.427,7.168C20.59,101.013,0,122.322,0,152.046
			c0,15.862,6.037,33.417,17.458,50.765c1.441,2.189,3.833,3.377,6.271,3.377c1.416,0,2.847-0.4,4.117-1.236
			c3.46-2.278,4.418-6.929,2.14-10.389C20.182,179.67,15,164.969,15,152.046c0-22.654,16.534-38.675,50.546-48.979
			c30.084-9.113,73.495-13.543,132.711-13.543c13.896,0,27.095,0.247,39.232,0.735c4.136,0.156,7.629-3.055,7.795-7.193
			c0.166-4.139-3.054-7.628-7.193-7.795c-4.311-0.173-8.76-0.315-13.315-0.428V29.279c27.624,5.368,50.884,24.092,62.114,49.781
			c-4.085-0.504-8.288-0.967-12.626-1.386c-4.133-0.412-7.788,2.621-8.187,6.743c-0.398,4.123,2.621,7.788,6.744,8.187
			c73.14,7.07,108.694,26.514,108.694,59.443c0,26.507-21.055,58.497-55.078,83.891c-1.55-0.59-3.131-1.081-4.741-1.476
			c0.091-0.619,0.175-1.24,0.24-1.866c1.176-11.311-2.123-22.402-9.289-31.231c-2.973-3.663-6.469-6.753-10.365-9.208
			c3.778-4.827,6.039-10.897,6.039-17.489c0-10.37-5.767-19.838-14.566-24.797c1.479-4.245,2.597-8.616,3.33-13.075
			c1.069-6.503-0.763-13.113-5.026-18.135c-4.257-5.015-10.471-7.891-17.048-7.891h-152.6c-6.577,0-12.791,2.876-17.048,7.891
			c-4.264,5.021-6.096,11.632-5.027,18.135c0.733,4.458,1.852,8.829,3.33,13.073c-8.802,4.956-14.566,14.418-14.566,24.799
			c0,15.679,12.755,28.434,28.434,28.434c1.558,0,3.094-0.126,4.604-0.372l1.497,12.253c1.398,11.448,5.334,22.035,11.179,31.251
			c-4.944,1.166-9.772,2.76-14.43,4.794c-4.62,2.015-8.992,4.415-13.099,7.138c-20.703-9.717-39.767-22.633-55.237-37.464
			c-2.991-2.866-7.738-2.767-10.604,0.224c-2.866,2.99-2.766,7.738,0.224,10.604c15.002,14.383,33.104,27.08,52.772,37.064
			c-15.99,15.795-25.454,37.585-25.454,60.902v162.786c0,9.334,7.589,16.928,16.917,16.928c4.142,0,7.5-3.357,7.5-7.5
			s-3.358-7.5-7.5-7.5c-1.057,0-1.917-0.865-1.917-1.928V463.43h34.225v37.766c0,4.143,3.358,7.5,7.5,7.5s7.5-3.357,7.5-7.5V463.43
			h40.979v38.281c0,4.143,3.358,7.5,7.5,7.5s7.5-3.357,7.5-7.5V280.833c3.124,0.395,6.299,0.615,9.521,0.615
			c2.91,0,5.781-0.186,8.613-0.509v220.772c0,4.143,3.358,7.5,7.5,7.5s7.5-3.357,7.5-7.5V463.43h40.979v37.766
			c0,4.143,3.358,7.5,7.5,7.5s7.5-3.357,7.5-7.5V463.43h34.225v28.854c0,1.063-0.86,1.928-1.917,1.928c-4.142,0-7.5,3.357-7.5,7.5
			s3.358,7.5,7.5,7.5c8.675,0,15.837-6.57,16.799-14.997h33.631c31.815,0,57.699-25.884,57.699-57.699V261.369
			c0-9.704,7.895-17.6,17.6-17.6s17.6,7.896,17.6,17.6v96.04c-10.388,3.194-17.961,12.878-17.961,24.3
			c0,9.228,4.945,17.322,12.323,21.775l2.257,40.287c0.52,9.286,8.212,16.56,17.512,16.56h11.838c9.299,0,16.992-7.273,17.513-16.56
			l2.256-40.287C507.055,399.03,512,390.937,512,381.708z M171.737,29.279v45.569c-23.338,0.589-43.981,1.994-62.116,4.231
			C120.84,53.357,144.038,34.649,171.737,29.279z M198.257,74.525c-3.907,0-7.745,0.02-11.521,0.059v-54.66
			c0-1.177,0.958-2.135,2.135-2.135h18.771c1.177,0,2.135,0.958,2.135,2.135v54.661C205.993,74.546,202.155,74.525,198.257,74.525z
			 M222.324,359.287h40.979v33.191h-40.979V359.287z M278.304,359.287h34.225v33.191h-34.225V359.287z M324.892,251.762
			c6.699,3.882,14.138,7.035,22.109,9.373c0.934,0.274,1.415,0.9,1.654,1.378c0.202,0.402,0.484,1.227,0.111,2.229
			c-7.343,19.736-18.831,27.419-27.174,30.389c-9.617,3.423-18.005,1.719-22.265-0.781c-8.633-5.068-13.249-14.57-12.09-24.292
			c6.819-1.234,13.431-4.143,19.181-8.809c4.329-3.513,7.854-7.753,10.468-12.492C319.696,249.299,322.378,250.305,324.892,251.762z
			 M307.017,231.044c-0.762,7.325-4.331,13.915-10.049,18.557c-5.719,4.641-12.902,6.77-20.228,6.016
			c-5.929-0.616-11.375-3.073-15.696-7.019c6.71-9.75,11.224-21.174,12.743-33.614l1.497-12.258
			c1.512,0.246,3.048,0.376,4.603,0.376c2.798,0,5.501-0.413,8.057-1.17c5.132,1.622,9.629,4.662,13.057,8.885
			C305.642,216.536,307.778,223.719,307.017,231.044z M285.149,162.315c4.875,2.086,8.172,6.961,8.172,12.354
			c0,7.407-6.026,13.434-13.434,13.434c-0.946,0-1.874-0.101-2.782-0.292l2.856-23.38
			C281.707,163.789,283.437,163.087,285.149,162.315z M209.978,125.771h65.033c2.197,0,4.191,0.923,5.614,2.599
			c1.429,1.684,2.019,3.812,1.66,5.993c-0.835,5.079-2.278,10.019-4.298,14.722c-23.75,10.22-51.566,4.974-69.986-13.448
			c-3.041-3.04-5.738-6.337-8.076-9.865H209.978z M116.797,128.37c1.423-1.676,3.417-2.599,5.614-2.599h60.246
			c1.807,3.625,3.887,7.09,6.228,10.382c-18.421,17.995-45.928,23.053-69.449,12.931c-2.021-4.704-3.464-9.645-4.298-14.722
			C114.779,132.181,115.368,130.053,116.797,128.37z M117.535,188.102c-7.408,0-13.434-6.026-13.434-13.434
			c0-5.398,3.295-10.268,8.171-12.354c1.713,0.772,3.444,1.475,5.189,2.116l2.855,23.377
			C119.41,187.998,118.482,188.102,117.535,188.102z M174.19,392.478h-40.979v-33.191h40.979V392.478z M118.211,392.478H83.986
			v-33.191h34.225V392.478z M83.986,448.43v-40.952h34.225v40.952H83.986z M133.211,448.43v-40.952h40.979v40.952H133.211z
			 M174.19,344.287h-40.979v-2.293c0-4.143-3.358-7.5-7.5-7.5s-7.5,3.357-7.5,7.5v2.293H83.986v-14.789
			c0-28.083,16.641-53.487,42.398-64.721c6.08-2.657,12.509-4.414,19.127-5.256c8.036,7.954,17.819,14.099,28.679,17.832V344.287z
			 M138.525,213.166l-5.468-44.77c3.786,0.555,7.592,0.836,11.391,0.836c19.814-0.001,39.364-7.511,54.263-21.736
			c14.901,14.227,34.448,21.736,54.263,21.736c3.798,0,7.605-0.281,11.391-0.837l-5.468,44.771
			c-3.71,30.376-29.584,53.283-60.187,53.283C168.109,266.449,142.235,243.542,138.525,213.166z M251.374,260.063
			c5.991,5.31,13.213,8.677,20.773,10.015c-1.121,14.977,6.264,29.387,19.588,37.207c5.268,3.093,11.774,4.683,18.603,4.738
			c1.447,5.684,2.19,11.546,2.19,17.475v14.789h-34.225v-2.293c0-4.143-3.358-7.5-7.5-7.5s-7.5,3.357-7.5,7.5v2.293h-40.979v-66.625
			C233.301,274.044,243.217,267.977,251.374,260.063z M222.324,448.43v-40.952h40.979v40.952H222.324z M278.304,448.43v-40.952
			h34.225v40.952H278.304z M479.039,334.057v22.233h-10.1v-22.233H479.039z M461.396,371.291h25.187
			c5.744,0,10.417,4.674,10.417,10.418s-4.673,10.417-10.417,10.417h-25.187c-5.744,0-10.417-4.673-10.417-10.417
			S455.652,371.291,461.396,371.291z M479.908,445.331H468.07c-1.347,0-2.46-1.054-2.536-2.398l-2.006-35.807h20.921l-2.005,35.807
			C482.369,444.277,481.255,445.331,479.908,445.331z"/>
		<path d="M163.282,184.21c-4.142,0-7.5,3.401-7.5,7.544s3.358,7.5,7.5,7.5s7.5-3.357,7.5-7.5v-0.088
			C170.782,187.524,167.424,184.21,163.282,184.21z"/>
		<path d="M241.64,191.667c0-4.143-3.358-7.456-7.5-7.456s-7.5,3.401-7.5,7.544s3.358,7.5,7.5,7.5s7.5-3.357,7.5-7.5V191.667z"/>
		<path d="M220.581,213.475c-3.98-1.144-8.135,1.155-9.281,5.135c-1.606,5.585-6.783,9.485-12.589,9.485
			c-5.806,0-10.983-3.9-12.589-9.485c-1.145-3.98-5.299-6.28-9.281-5.135c-3.981,1.145-6.28,5.3-5.135,9.281
			c3.444,11.975,14.549,20.339,27.005,20.339c12.457,0,23.562-8.364,27.005-20.339C226.861,218.775,224.562,214.62,220.581,213.475z
			"/>
	</g>
</g>
<g>
</g>
<g>
</g>
<g>
</g>
<g>
</g>
<g>
</g>
<g>
</g>
<g>
</g>
<g>
</g>
<g>
</g>
<g>
</g>
<g>
</g>
<g>
</g>
<g>
</g>
<g>
</g>
<g>
</g>
</svg>
