<?xml version="1.0" encoding="iso-8859-1"?>
<!-- Generator: Adobe Illustrator 23.0.3, SVG Export Plug-In . SVG Version: 6.00 Build 0)  -->
<svg version="1.1" id="Capa_1" xmlns="http://www.w3.org/2000/svg" xmlns:xlink="http://www.w3.org/1999/xlink" x="0px" y="0px"
	 viewBox="0 0 512 512" style="enable-background:new 0 0 512 512;" xml:space="preserve">
<g>
	<g>
		<g>
			<g>
				<path style="fill:#DB885D;" d="M400.963,306.798v160.911c0,5.144-4.17,9.314-9.314,9.314H121.137
					c-5.144,0-9.314-4.17-9.314-9.314V306.798c0-31.662,19.078-58.879,46.359-70.774c9.433-4.115,19.859-6.393,30.808-6.393h134.806
					c4.216,0,8.359,0.331,12.391,0.992c6.448,1.038,12.612,2.875,18.417,5.401c0.028,0.009,0.046,0.018,0.074,0.037
					C381.922,247.965,400.963,275.163,400.963,306.798z"/>
				<path style="fill:#C86D3D;" d="M400.964,306.801V467.71c0,5.142-4.173,9.315-9.315,9.315h-21.47
					c5.142,0,9.315-4.173,9.315-9.315V306.801c0-31.66-19.076-58.877-46.359-70.772c-5.803-2.534-11.969-4.369-18.415-5.402
					c-4.033-0.661-8.178-0.997-12.398-0.997h21.47c4.22,0,8.365,0.335,12.398,0.997c6.446,1.034,12.612,2.869,18.415,5.402
					C381.888,247.924,400.964,275.141,400.964,306.801z"/>
				<path style="fill:#0097FA;" d="M354.678,236.061v240.963H158.182V236.024c9.433-4.115,19.859-6.393,30.808-6.393h134.806
					c4.216,0,8.359,0.331,12.391,0.992c6.448,1.038,12.612,2.875,18.417,5.401C354.632,236.033,354.65,236.042,354.678,236.061z"/>
				<path style="fill:#0076F8;" d="M354.674,236.064v240.961h-18.072v-246.33c6.302,1.042,12.326,2.858,18.003,5.329
					C354.634,236.034,354.654,236.044,354.674,236.064z"/>
				<g>
					<rect x="204.407" y="254.875" style="fill:#DB885D;" width="103.973" height="94.557"/>
				</g>
			</g>
			<path style="fill:#CDBFBB;" d="M350.792,349.432h-40.621c-5.073,0-9.185-4.112-9.185-9.185v-18.214
				c0-5.073,4.112-9.185,9.185-9.185h40.621c5.073,0,9.185,4.112,9.185,9.185v18.214
				C359.977,345.32,355.865,349.432,350.792,349.432z"/>
			<path style="fill:#9E9797;" d="M359.973,322.027v18.221c0,5.071-4.109,9.18-9.18,9.18h-19.68c5.081,0,9.19-4.109,9.19-9.18
				v-18.221c0-5.071-4.109-9.18-9.19-9.18h19.68C355.865,312.847,359.973,316.956,359.973,322.027z"/>
			<path style="fill:#CDBFBB;" d="M202.616,349.432h-40.621c-5.073,0-9.185-4.112-9.185-9.185v-18.214
				c0-5.073,4.112-9.185,9.185-9.185h40.621c5.073,0,9.185,4.112,9.185,9.185v18.214
				C211.801,345.32,207.689,349.432,202.616,349.432z"/>
			<g>
				<circle style="fill:#FFBC8A;" cx="351.135" cy="152.897" r="21.549"/>
				<circle style="fill:#FFBC8A;" cx="161.652" cy="152.897" r="21.549"/>
				<path style="fill:#FDD1A7;" d="M256.393,271.843L256.393,271.843c-43.84,0-80.007-34.323-82.298-78.103l-3.139-59.971
					c-1.332-25.452,18.946-46.82,44.433-46.82h82.008c25.487,0,45.766,21.368,44.433,46.82l-3.139,59.971
					C336.4,237.52,300.233,271.843,256.393,271.843z"/>
				<path style="fill:#0097FA;" d="M380.793,114.616c4.372,3.339,5.196,9.593,1.841,13.953
					c-13.834,17.977-65.106,31.324-126.24,31.324s-112.406-13.347-126.24-31.324c-3.355-4.36-2.531-10.613,1.841-13.953
					l29.95-22.877l11.77-55.831c2.326-11.034,12.062-18.932,23.339-18.932h118.682c11.277,0,21.013,7.897,23.339,18.932
					l11.77,55.831L380.793,114.616z"/>
				<path style="fill:#0076F8;" d="M382.63,128.568c-4.13,5.37-11.59,10.32-21.66,14.63c2.21-1.65,4.04-3.41,5.46-5.25
					c3.53-4.58,2.66-11.15-1.93-14.65l-28.581-24.402L322.59,36.028c-1.99-9.43-9.13-16.68-18.1-19.05h11.24
					c11.28,0,21.02,7.9,23.34,18.93l11.77,55.83l29.95,22.88C385.16,117.958,385.99,124.208,382.63,128.568z"/>
				<ellipse style="fill:#BDEB73;" cx="296.323" cy="98.896" rx="16.488" ry="32.975"/>
				<path style="fill:#8EC737;" d="M312.813,98.892c0,18.211-7.383,32.978-16.494,32.978c-2.671,0-5.198-1.277-7.428-3.543
					c5.369-5.441,9.047-16.583,9.047-29.435c0-12.851-3.678-23.985-9.047-29.426c2.23-2.266,4.757-3.543,7.428-3.543
					C305.43,65.923,312.813,80.681,312.813,98.892z"/>
			</g>
		</g>
		<g>
			<g>
				<path style="fill:#E84649;" d="M155.877,399.093H33.941c-3.448,0-6.648,1.789-8.454,4.726L9.011,430.617
					c-0.96,1.561-1.469,3.357-1.47,5.19L7.5,485.091c-0.004,5.484,4.44,9.932,9.924,9.932h154.971c5.481,0,9.924-4.443,9.924-9.924
					v-49.282c0-1.839-0.511-3.642-1.476-5.207l-16.518-26.8C162.519,400.878,159.321,399.093,155.877,399.093z"/>
				<path style="fill:#D73337;" d="M182.316,435.813v49.284c0,5.488-4.436,9.924-9.924,9.924h-20.543
					c5.488,0,9.924-4.436,9.924-9.924v-49.284c0-1.836-0.506-3.642-1.469-5.2l-16.524-26.805c-1.806-2.928-5.002-4.714-8.446-4.714
					h20.543c3.444,0,6.639,1.786,8.445,4.714l16.524,26.805C181.81,432.17,182.316,433.977,182.316,435.813z"/>
			</g>
		</g>
		<g>
			<g>
				<path style="fill:#756F6F;" d="M447.03,495.021L447.03,495.021c7.521,0,13.619-6.097,13.619-13.619V331.771
					c0-7.521-6.097-13.619-13.619-13.619h0c-7.521,0-13.619,6.097-13.619,13.619v149.631
					C433.411,488.923,439.508,495.021,447.03,495.021z"/>
				<circle style="fill:#E84649;" cx="458.448" cy="336.117" r="30.173"/>
			</g>
		</g>
	</g>
	<g>
		<path d="M339.576,223.614c3.758-9.149,6.06-19.069,6.605-29.482l0.655-12.519c1.422,0.213,2.859,0.333,4.298,0.333
			c16.018,0,29.049-13.031,29.049-29.05c0-3.618-0.669-7.151-1.949-10.463c4.327-2.906,7.819-6.011,10.342-9.291
			c2.848-3.701,4.08-8.288,3.469-12.917c-0.611-4.628-2.991-8.736-6.701-11.569l-27.737-21.188l-11.196-53.107
			c-3.04-14.419-15.942-24.885-30.678-24.885H197.053c-14.736,0-27.638,10.466-30.678,24.885l-11.196,53.107l-27.737,21.188
			c-3.709,2.833-6.089,6.941-6.701,11.568c-0.611,4.629,0.62,9.217,3.468,12.918c2.661,3.458,6.208,6.554,10.33,9.332
			c-1.271,3.306-1.938,6.83-1.938,10.422c0,16.019,13.031,29.05,29.049,29.05c1.44,0,2.877-0.121,4.298-0.334l0.655,12.52
			c0.545,10.414,2.847,20.334,6.606,29.484c-17.733,3.345-33.962,12.275-46.381,25.698c-14.514,15.688-22.507,36.104-22.507,57.489
			v62.547h-50.78c-4.142,0-7.5,3.357-7.5,7.5v14.742H33.941c-6.009,0-11.697,3.18-14.843,8.299L2.623,426.688
			c-1.687,2.742-2.58,5.894-2.582,9.113L0,485.085c-0.004,4.657,1.807,9.035,5.098,12.33c3.292,3.294,7.669,5.108,12.326,5.108
			h154.971c9.607,0,17.424-7.816,17.424-17.425v-49.282c0-3.23-0.896-6.393-2.591-9.143l-16.518-26.8
			c-1.318-2.138-3.039-3.914-5.029-5.271v-37.672h75.443c4.142,0,7.5-3.357,7.5-7.5s-3.358-7.5-7.5-7.5h-21.908
			c0.056-0.554,0.085-1.116,0.085-1.685v-18.215c0-5.763-2.938-10.852-7.395-13.851V267.57c13.141,7.493,28.33,11.773,44.486,11.773
			c16.156,0,31.346-4.281,44.487-11.773v40.612c-4.456,2.999-7.395,8.088-7.395,13.851v18.215c0,0.569,0.029,1.13,0.085,1.685
			h-16.694c-4.142,0-7.5,3.357-7.5,7.5s3.358,7.5,7.5,7.5h70.229v120.095c0,4.143,3.358,7.5,7.5,7.5s7.5-3.357,7.5-7.5V352.475
			c3.294-3.05,5.372-7.395,5.372-12.228v-18.215c0-4.832-2.078-9.178-5.372-12.228v-61.19c4.686,3.092,9.03,6.757,12.912,10.965
			c11.895,12.896,18.445,29.668,18.445,47.225v160.908c0,1.001-0.814,1.814-1.814,1.814c-4.142,0-7.5,3.357-7.5,7.5
			s3.358,7.5,7.5,7.5c9.271,0,16.814-7.543,16.814-16.814V306.804c0-21.337-7.962-41.72-22.419-57.395
			C373.618,235.938,357.353,226.968,339.576,223.614z M365.184,152.896c0,7.747-6.303,14.05-14.049,14.05
			c-1.203,0-2.372-0.159-3.507-0.45l0.563-10.762c6.061-1.838,11.617-3.87,16.617-6.072
			C365.055,150.713,365.184,151.796,365.184,152.896z M181.053,37.455c1.585-7.521,8.314-12.979,16-12.979h118.682
			c7.686,0,14.415,5.458,16,12.979l10.692,50.717c-6.748,3.006-14.167,5.635-22.177,7.861c-0.616-16.335-6.474-29.437-14.948-34.878
			c1.347-1.797,3.487-2.967,5.901-2.967c4.142,0,7.5-3.357,7.5-7.5s-3.358-7.5-7.5-7.5c-5.708,0-10.92,2.151-14.878,5.68
			c-3.958-3.53-9.17-5.68-14.878-5.68c-4.142,0-7.5,3.357-7.5,7.5s3.358,7.5,7.5,7.5c2.413,0,4.552,1.169,5.899,2.965
			c-8.967,5.755-15.012,20.081-15.012,37.742c0,1.645,0.058,3.258,0.161,4.841c-5.324,0.319-10.714,0.49-16.102,0.49
			c-0.478,0-0.954-0.006-1.432-0.009V92.505c0-4.143-3.358-7.5-7.5-7.5s-7.5,3.357-7.5,7.5v11.209
			c-26.047-1.623-50.54-7.063-69.603-15.534L181.053,37.455z M296.323,73.421c2.745,0,8.987,9.624,8.987,25.475
			s-6.242,25.476-8.987,25.476s-8.988-9.625-8.988-25.476S293.578,73.421,296.323,73.421z M161.651,166.946
			c-7.747,0-14.049-6.303-14.049-14.05c0-1.086,0.13-2.157,0.372-3.199c5.32,2.325,10.975,4.319,16.62,6.016l0.565,10.785
			C164.025,166.79,162.854,166.946,161.651,166.946z M182.553,333.174c4.142,0,7.5-3.357,7.5-7.5v-5.327h12.563
			c0.929,0,1.686,0.756,1.686,1.686v18.215c0,0.929-0.756,1.685-1.686,1.685h-40.622c-0.929,0-1.685-0.756-1.685-1.685v-18.215
			c0-0.93,0.756-1.686,1.685-1.686h13.059v5.327C175.053,329.816,178.411,333.174,182.553,333.174z M119.323,306.804
			c0-17.597,6.576-34.396,18.518-47.303c3.865-4.177,8.183-7.817,12.84-10.891v61.193c-3.294,3.05-5.372,7.396-5.372,12.228v18.215
			c0,4.833,2.078,9.178,5.372,12.228v39.118h-6.905v-14.742c0-4.143-3.358-7.5-7.5-7.5h-16.953V306.804z M119.323,391.593v-7.242
			h9.453v7.242H119.323z M61.043,384.351h43.28v7.242h-43.28V384.351z M172.395,487.523H17.424c-0.874,0-1.45-0.445-1.715-0.711
			S15,485.972,15,485.097l0.037-44.593h159.782v44.595C174.819,486.436,173.731,487.523,172.395,487.523z M168.886,425.504H20.959
			l10.918-17.757c0.444-0.723,1.216-1.154,2.064-1.154h121.936c0.848,0,1.62,0.431,2.064,1.152L168.886,425.504z M196.907,305.347
			h-31.226v-64.203c4.769-1.692,9.735-2.872,14.827-3.491c4.552,7.153,10.079,13.61,16.399,19.189V305.347z M181.584,193.349
			l-1.763-33.673c5.286,1.185,10.237,2.118,14.493,2.833c4.091,0.685,7.953-2.07,8.638-6.155s-2.07-7.952-6.155-8.638
			c-45.229-7.593-57.896-20.075-60.701-23.721c-0.537-0.698-0.535-1.43-0.485-1.805c0.049-0.373,0.236-1.08,0.935-1.613
			l25.691-19.624c21.441,9.955,48.455,16.108,77.724,17.788v5.419c0,4.143,3.358,7.5,7.5,7.5s7.5-3.357,7.5-7.5v-4.949
			c0.479,0.002,0.952,0.017,1.432,0.017c6.288,0,12.581-0.215,18.782-0.626c3.974,12.586,11.769,20.771,21.148,20.771
			c10.967,0,19.766-11.198,22.823-27.534c11.501-2.886,22.038-6.532,31.411-10.879l25.684,19.619
			c0.698,0.533,0.885,1.239,0.935,1.612c0.049,0.374,0.052,1.106-0.485,1.805c-5.652,7.345-20.694,14.527-41.269,19.705
			c-22.278,5.605-50.344,8.693-79.028,8.693c-8.312,0-16.714-0.263-24.972-0.781c-4.128-0.262-7.695,2.882-7.955,7.016
			c-0.259,4.134,2.881,7.695,7.016,7.955c8.569,0.538,17.288,0.811,25.912,0.811c28.393,0,54.724-2.776,76.569-7.68l-1.761,33.636
			c-2.083,39.81-34.943,70.994-74.809,70.994C216.528,264.343,183.668,233.158,181.584,193.349z M330.234,333.174
			c4.142,0,7.5-3.357,7.5-7.5v-5.327h13.058c0.929,0,1.686,0.756,1.686,1.686v18.215c0,0.929-0.756,1.685-1.686,1.685h-40.621
			c-0.929,0-1.686-0.756-1.686-1.685v-18.215c0-0.93,0.756-1.686,1.686-1.686h12.563v5.327
			C322.734,329.816,326.092,333.174,330.234,333.174z M347.106,305.347H315.88v-48.505c6.318-5.578,11.845-12.033,16.397-19.185
			c5.093,0.618,10.06,1.796,14.83,3.489V305.347z"/>
		<path d="M291.231,421.511h-69.677c-4.142,0-7.5,3.357-7.5,7.5v20.208c0,4.143,3.358,7.5,7.5,7.5s7.5-3.357,7.5-7.5v-12.708h54.677
			v12.708c0,4.143,3.358,7.5,7.5,7.5s7.5-3.357,7.5-7.5v-20.208C298.731,424.868,295.374,421.511,291.231,421.511z"/>
		<path d="M217.977,173.174c-4.142,0-7.5,3.405-7.5,7.548s3.358,7.5,7.5,7.5s7.5-3.357,7.5-7.5v-0.096
			C225.477,176.483,222.119,173.174,217.977,173.174z"/>
		<path d="M294.809,173.174c-4.142,0-7.5,3.405-7.5,7.548s3.358,7.5,7.5,7.5s7.5-3.357,7.5-7.5v-0.096
			C302.309,176.483,298.951,173.174,294.809,173.174z"/>
		<path d="M279.932,204.882c-3.979-1.144-8.136,1.153-9.281,5.135c-1.819,6.325-7.682,10.742-14.258,10.742
			s-12.439-4.417-14.259-10.742c-1.145-3.98-5.3-6.281-9.281-5.135c-3.981,1.146-6.279,5.301-5.134,9.281
			c3.657,12.715,15.448,21.596,28.674,21.596c13.226,0,25.017-8.881,28.674-21.596C286.212,210.182,283.913,206.026,279.932,204.882
			z"/>
		<path d="M101.853,449.615H87.966c-4.142,0-7.5,3.357-7.5,7.5s3.358,7.5,7.5,7.5h13.887c4.142,0,7.5-3.357,7.5-7.5
			S105.995,449.615,101.853,449.615z"/>
		<path d="M504.5,211.008c-8.574,0-15.55-6.976-15.55-15.549V67.453c0-16.081-13.083-29.164-29.163-29.164
			c-16.081,0-29.164,13.083-29.164,29.164v243.295c-6.114,6.7-9.848,15.606-9.848,25.369c0,6.908,1.877,13.381,5.136,18.953v126.332
			c0,11.645,9.474,21.118,21.119,21.118s21.119-9.474,21.119-21.118v-44.12c0-4.143-3.358-7.5-7.5-7.5s-7.5,3.357-7.5,7.5v44.12
			c0,3.374-2.745,6.118-6.119,6.118s-6.119-2.744-6.119-6.118V369.444c3.752,1.982,7.875,3.349,12.237,3.966v28.12
			c0,4.143,3.358,7.5,7.5,7.5s7.5-3.357,7.5-7.5v-29.013c6.773-1.807,12.797-5.46,17.506-10.383l6.245,3.937
			c1.242,0.783,2.625,1.156,3.992,1.156c2.49,0,4.926-1.239,6.352-3.501c2.208-3.504,1.159-8.136-2.345-10.345l-6.225-3.924
			c1.577-4.15,2.448-8.644,2.448-13.34c0-20.772-16.9-37.673-37.673-37.673c-4.501,0-8.82,0.796-12.825,2.251v-25.021h5.947
			c4.142,0,7.5-3.357,7.5-7.5s-3.358-7.5-7.5-7.5h-5.947V239.23h5.947c4.142,0,7.5-3.357,7.5-7.5s-3.358-7.5-7.5-7.5h-5.947v-21.442
			h5.947c4.142,0,7.5-3.357,7.5-7.5s-3.358-7.5-7.5-7.5h-5.947v-21.443h5.947c4.142,0,7.5-3.357,7.5-7.5s-3.358-7.5-7.5-7.5h-5.947
			v-21.562h5.947c4.142,0,7.5-3.357,7.5-7.5s-3.358-7.5-7.5-7.5h-5.947V93.34h5.947c4.142,0,7.5-3.357,7.5-7.5s-3.358-7.5-7.5-7.5
			h-5.947V67.453c0-7.811,6.354-14.164,14.164-14.164s14.163,6.354,14.163,14.164v128.006c0,16.845,13.705,30.549,30.55,30.549
			c4.142,0,7.5-3.357,7.5-7.5S508.642,211.008,504.5,211.008z M481.121,336.117c0,1.741-0.204,3.434-0.577,5.063l-18.096-11.408
			c-3.504-2.21-8.135-1.159-10.344,2.345c-2.208,3.504-1.159,8.136,2.345,10.345l18.086,11.402
			c-3.872,3.08-8.766,4.927-14.086,4.927c-12.502,0-22.673-10.171-22.673-22.673s10.171-22.673,22.673-22.673
			S481.121,323.615,481.121,336.117z"/>
	</g>
</g>
<g>
</g>
<g>
</g>
<g>
</g>
<g>
</g>
<g>
</g>
<g>
</g>
<g>
</g>
<g>
</g>
<g>
</g>
<g>
</g>
<g>
</g>
<g>
</g>
<g>
</g>
<g>
</g>
<g>
</g>
</svg>
