<?xml version="1.0" encoding="iso-8859-1"?>
<!-- Generator: Adobe Illustrator 23.0.3, SVG Export Plug-In . SVG Version: 6.00 Build 0)  -->
<svg version="1.1" id="Capa_1" xmlns="http://www.w3.org/2000/svg" xmlns:xlink="http://www.w3.org/1999/xlink" x="0px" y="0px"
	 viewBox="0 0 511.998 511.998" style="enable-background:new 0 0 511.998 511.998;" xml:space="preserve">
<g>
	<g>
		<g>
			<g>
				<g>
					<g>
						<g>
							<g>
								<g>
									<path style="fill:#9E9797;" d="M465.971,234.309c0,17.032-7.817,30.839-17.46,30.839s-17.46-13.807-17.46-30.839
										s7.817-20.335,17.46-20.335S465.971,217.277,465.971,234.309z"/>
									<path style="fill:#756F6F;" d="M465.967,234.308c0,17.035-7.812,30.841-17.461,30.841c-2.708,0-5.274-1.089-7.566-3.04
										c5.852-4.981,9.886-15.558,9.886-27.801c0-12.244-4.034-17.385-9.886-19.317c2.292-0.748,4.858-1.013,7.566-1.013
										C458.155,213.978,465.967,217.273,465.967,234.308z"/>
								</g>
								<g>
									<path style="fill:#9E9797;" d="M305.206,234.309c0,17.032-7.817,30.839-17.46,30.839c-9.643,0-17.46-13.807-17.46-30.839
										s7.817-20.335,17.46-20.335C297.388,213.974,305.206,217.277,305.206,234.309z"/>
									<path style="fill:#756F6F;" d="M305.201,234.308c0,17.035-7.812,30.841-17.452,30.841c-2.793,0-5.426-1.155-7.765-3.21
										c5.748-5.056,9.696-15.529,9.696-27.631c0-12.101-3.949-17.272-9.696-19.251c2.339-0.805,4.971-1.079,7.765-1.079
										C297.389,213.978,305.201,217.273,305.201,234.308z"/>
								</g>
							</g>
							<g>
								<g>
									<path style="fill:#65BAFC;" d="M378.316,228.114l119.306,33.963c4.069,1.158,6.876,4.876,6.876,9.107v16.327
										c0,5.23-4.239,9.469-9.469,9.469H378.316V228.114z"/>
									<path style="fill:#0097FA;" d="M504.497,271.181v16.334c0,5.227-4.242,9.469-9.469,9.469H478.93
										c5.227,0,9.469-4.242,9.469-9.469v-22.016c0-2.68-1.127-5.151-2.992-6.893l12.215,3.475
										C501.694,263.236,504.497,266.957,504.497,271.181z"/>
									<path style="fill:#65BAFC;" d="M357.942,228.114l-119.306,33.963c-4.069,1.158-6.876,4.876-6.876,9.107v16.327
										c0,5.23,4.239,9.469,9.469,9.469h116.713V228.114z"/>
								</g>
								<path style="fill:#FFF5F5;" d="M386.711,180.865v171.542c0,30.273-8.323,49.968-18.578,49.968
									c-10.265,0-18.578-19.696-18.578-49.968V180.865c0-13.408,1.629-24.752,4.346-33.218
									c3.409-10.634,8.513-16.741,14.232-16.741c5.71,0,10.823,6.098,14.223,16.732
									C385.073,156.103,386.711,167.447,386.711,180.865z"/>
								<path style="fill:#65BAFC;" d="M382.355,147.638c-4.034,2.822-8.939,4.469-14.223,4.469c-5.284,0-10.198-1.648-14.232-4.46
									c3.409-10.634,8.513-16.741,14.232-16.741C373.842,130.906,378.956,137.004,382.355,147.638z"/>
							</g>
						</g>
						<g>
							<path style="fill:#B6DCFF;" d="M449.759,399.547c1.196-4.822,1.842-9.862,1.842-15.054c0-34.418-27.901-62.32-62.32-62.32
								c-26.929,0-49.867,17.082-58.575,41c-8.165-5.945-18.212-9.46-29.085-9.46c-27.326,0-49.478,22.152-49.478,49.479
								c0,4.122,0.512,8.124,1.462,11.952c-14.856,1.882-26.346,14.556-26.346,29.923c0,16.664,13.509,30.173,30.173,30.173h187.505
								c20.989,0,38.004-17.015,38.004-38.004C482.943,417.881,468.471,401.917,449.759,399.547z"/>
							<path style="fill:#65BAFC;" d="M482.943,437.239c0,19.459-14.63,35.5-33.502,37.734c6.619-6.837,10.681-16.154,10.681-26.409
								c0-19.355-14.469-35.32-33.189-37.687c1.203-4.82,1.847-9.867,1.847-15.056c0-34.42-27.905-62.316-62.316-62.316
								c-5.416,0-10.681,0.691-15.69,1.988c10.596-8.342,23.976-13.323,38.511-13.323c34.41,0,62.316,27.905,62.316,62.325
								c0,5.189-0.644,10.227-1.837,15.046C468.474,401.919,482.943,417.884,482.943,437.239z"/>
						</g>
					</g>
				</g>
			</g>
			<g>
				<path style="fill:#FAC574;" d="M308.768,327.739v164.48c0,5.25-4.26,9.52-9.52,9.52H17.018c-5.25,0-9.52-4.27-9.52-9.52v-164.48
					c0-32.36,19.5-60.19,47.39-72.34c9.64-4.21,20.3-6.55,31.49-6.55h143.51c4.31,0,8.55,0.35,12.67,1.02
					c6.59,1.06,12.89,2.94,18.83,5.53C289.268,267.549,308.768,295.379,308.768,327.739z"/>
				<path style="fill:#0057A1;" d="M217.618,248.849c-0.94,50.1-15.41,84.57-37.65,109.63c-6.64,7.48-13.96,14.12-21.83,20.09
					c-7.75-5.88-14.98-12.42-21.54-19.77c-22.42-25.09-37-59.64-37.94-109.95H217.618z"/>
				<path style="fill:#FFF5F5;" d="M179.968,358.479c-6.64,7.48-13.96,14.12-21.83,20.09c-7.75-5.88-14.98-12.42-21.54-19.77
					l8.46-47.62h26.5L179.968,358.479z"/>
				<g>
					<path style="fill:#CDBFBB;" d="M163.905,321.906h-11.543c-7.872,0-14.254-6.382-14.254-14.254v-11.543
						c0-7.872,6.382-14.254,14.254-14.254h11.543c7.872,0,14.254,6.382,14.254,14.254v11.543
						C178.159,315.524,171.777,321.906,163.905,321.906z"/>
				</g>
				<path style="fill:#D8AA64;" d="M308.77,327.737v164.478c0,5.256-4.265,9.521-9.521,9.521H242.56V249.873
					c6.589,1.057,12.892,2.932,18.823,5.522C289.271,267.553,308.77,295.374,308.77,327.737z"/>
				<g>
					<path style="fill:#1475CC;" d="M308.77,327.737v164.478c0,5.258-4.263,9.521-9.521,9.521h-37.866V255.395
						C289.271,267.553,308.77,295.374,308.77,327.737z"/>
					<path style="fill:#0057A1;" d="M308.77,327.737v164.478c0,5.256-4.265,9.521-9.521,9.521h-20.033
						c5.256,0,9.521-4.265,9.521-9.521V327.737c0-23.86-10.606-45.264-27.354-59.726v-12.616
						C289.271,267.553,308.77,295.374,308.77,327.737z"/>
					<path style="fill:#1475CC;" d="M54.885,255.395v246.341H17.019c-5.258,0-9.521-4.263-9.521-9.521V327.737
						C7.498,295.374,26.997,267.553,54.885,255.395z"/>
				</g>
				<g>
					<g>
						<circle style="fill:#FFBC8A;" cx="254.977" cy="172.653" r="22.027"/>
					</g>
					<g>
						<circle style="fill:#FFBC8A;" cx="61.291" cy="172.653" r="22.027"/>
					</g>
					<g>
						<path style="fill:#FDD1A7;" d="M158.134,294.237L158.134,294.237c-44.813,0-81.781-35.084-84.124-79.835l-5.714-109.16
							h179.676l-5.714,109.16C239.915,259.153,202.947,294.237,158.134,294.237z"/>
					</g>
					<path style="fill:#C86D3D;" d="M59.899,108.935v23.3c0,18.189,14.745,32.935,32.935,32.935h27.83
						c2.895,0,5.241-2.347,5.241-5.241v-20.59c3.249,14.773,16.409,25.831,32.158,25.831h27.83c2.895,0,5.241-2.347,5.241-5.241
						v-20.59c3.249,14.773,16.409,25.831,32.158,25.831h27.83c2.895,0,5.241-2.347,5.241-5.241v-50.993
						c0-32.759-26.557-59.316-59.316-59.316h-77.834C86.456,49.618,59.899,76.175,59.899,108.935z"/>
					<path style="fill:#AC5E33;" d="M256.369,108.934v50.99c0,2.893-2.348,5.241-5.241,5.241h-21.133
						c2.893,0,5.241-2.348,5.241-5.241v-50.99c0-32.759-26.553-59.312-59.312-59.312h21.123
						C229.805,49.622,256.369,76.175,256.369,108.934z"/>
				</g>
			</g>
		</g>
		<g>
			<path style="fill:#1475CC;" d="M153.202,56.849c0.901,4.25-1.035,8.604-4.811,10.752c-7.528,4.283-21.145,11.045-37.067,14.422
				c-15.5,3.288-30.922,2.645-39.685,1.817c-4.347-0.411-7.913-3.608-8.819-7.879l-7.791-36.733l90.37-19.168L153.202,56.849z"/>
			<path style="fill:#0057A1;" d="M148.392,67.598c-3.09,1.76-7.18,3.93-12.05,6.11c1.26-2.11,1.72-4.67,1.19-7.19l-9.32-42.81
				l17.19-3.65l7.8,36.79C154.102,61.098,152.172,65.458,148.392,67.598z"/>
			
				<ellipse transform="matrix(0.9782 -0.2075 0.2075 0.9782 -3.9697 21.4387)" style="fill:#D8AA64;" cx="100.213" cy="29.643" rx="46.19" ry="17.221"/>
		</g>
	</g>
	<g>
		<path d="M499.675,254.864l-27.557-7.845c0.885-4.052,1.353-8.352,1.353-12.71c0-18.47-8.397-27.835-24.96-27.835
			c-16.221,0-24.59,9.007-24.928,26.729l-29.374-8.362v-43.973c0-34.909-10.236-57.465-26.079-57.465s-26.079,22.557-26.079,57.465
			v43.972l-29.376,8.363c-0.339-17.722-8.707-26.729-24.928-26.729c-16.563,0-24.96,9.365-24.96,27.835
			c0,4.372,0.461,8.666,1.346,12.713l-2.019,0.575c-5.777-2.328-11.861-4.062-18.189-5.097c3.282-8.671,5.316-17.972,5.826-27.705
			l0.679-12.981c1.503,0.235,3.024,0.367,4.55,0.367c16.281,0,29.527-13.246,29.527-29.528c0-12.975-8.597-24.332-20.64-28.152
			v-35.566c0-36.842-29.974-66.816-66.816-66.816h-39.304c0,0-5.149-24.177-5.24-24.447c-2.546-9.339-13.155-12.854-21.763-14.136
			C120.67,2.036,108.007,2.72,95.084,5.46c-12.923,2.741-24.773,7.257-33.369,12.717c-7.565,4.805-16.14,12.628-14.023,22.606
			l7.791,36.733c0.42,1.98,1.167,3.818,2.168,5.472c-3.471,8.218-5.251,16.933-5.251,25.946v23.3c0,4.093,0.616,8.043,1.752,11.769
			c-12.842,3.202-22.388,14.83-22.388,28.65c0,16.282,13.246,29.528,29.527,29.528c1.541,0,3.058-0.126,4.552-0.356l0.679,12.97
			c0.509,9.733,2.543,19.034,5.825,27.705C31.138,249.239,0,285.118,0,327.741v164.478c0,9.386,7.636,17.021,17.021,17.021
			c4.143,0,7.5-3.358,7.5-7.5s-3.357-7.5-7.5-7.5c-1.114,0-2.021-0.907-2.021-2.021V327.741c0-24.882,12.844-46.978,32.385-59.775
			v64.909c0,4.142,3.357,7.5,7.5,7.5s7.5-3.358,7.5-7.5v-72.371c5.326-1.904,10.948-3.189,16.785-3.775
			c3.844,6.487,8.473,12.44,13.735,17.761c5.783,47.448,25.64,83.456,60.7,110.052c1.34,1.016,2.936,1.524,4.532,1.524
			s3.193-0.508,4.533-1.525c35.054-26.598,54.914-62.616,60.697-110.056c5.26-5.319,9.888-11.271,13.73-17.755
			c5.837,0.586,11.459,1.871,16.785,3.773v241.233c0,4.142,3.357,7.5,7.5,7.5s7.5-3.358,7.5-7.5V267.963
			c19.542,12.795,32.386,34.891,32.386,59.778v164.478c0,1.115-0.907,2.021-2.021,2.021c-4.143,0-7.5,3.358-7.5,7.5
			s3.357,7.5,7.5,7.5c9.386,0,17.021-7.636,17.021-17.021v-9.478h128.67c25.091,0,45.504-20.413,45.504-45.504
			c0-20.158-13.286-37.628-31.964-43.442c0.414-3.083,0.622-6.191,0.622-9.301c0-11.119-2.555-21.769-7.595-31.656
			c-1.881-3.691-6.399-5.157-10.088-3.276c-3.69,1.881-5.157,6.397-3.275,10.088c3.953,7.757,5.958,16.116,5.958,24.844
			c0,4.458-0.545,8.915-1.62,13.248c-0.516,2.079-0.118,4.279,1.093,6.046s3.119,2.932,5.244,3.201
			c15.179,1.923,26.625,14.927,26.625,30.249c0,16.82-13.684,30.504-30.504,30.504h-128.67V363.846
			c3.544,1.32,6.9,3.117,10.024,5.391c1.298,0.945,2.847,1.437,4.415,1.437c0.732,0,1.47-0.107,2.188-0.327
			c2.253-0.688,4.052-2.394,4.858-4.607c7.854-21.572,28.561-36.066,51.526-36.066c10.128,0,20.023,2.787,28.616,8.058
			c3.53,2.165,8.148,1.061,10.314-2.471c2.166-3.531,1.06-8.149-2.471-10.315c-9.554-5.861-20.367-9.311-31.533-10.097v-10.368
			h100.821c9.356,0,16.969-7.612,16.969-16.969v-16.327C511.998,263.64,506.931,256.929,499.675,254.864z M269.505,172.653
			c0,8.011-6.517,14.528-14.527,14.528c-1.291,0-2.544-0.177-3.758-0.501l0.735-14.053c6.235-0.405,11.261-5.302,11.849-11.486
			C267.279,163.823,269.505,168.025,269.505,172.653z M248.865,108.934v48.734h-25.571c-11.848,0-22.292-8.387-24.833-19.942
			c-0.823-3.74-4.334-6.261-8.136-5.845c-3.806,0.414-6.689,3.627-6.689,7.456v18.331h-25.572c-11.848,0-22.292-8.387-24.833-19.942
			c-0.823-3.74-4.332-6.261-8.136-5.845c-3.806,0.414-6.689,3.627-6.689,7.456v18.331H92.834c-14.024,0-25.435-11.41-25.435-25.435
			v-23.3c0-6.111,1.057-12.039,3.112-17.685c0.141,0.017,0.278,0.043,0.42,0.057c3.932,0.372,9.043,0.699,14.865,0.699
			c4.793,0,10.069-0.222,15.562-0.823c4.117-0.451,7.09-4.154,6.639-8.272c-0.451-4.117-4.146-7.091-8.271-6.639
			c-10.905,1.194-20.907,0.715-27.381,0.102c-1.081-0.102-1.961-0.894-2.188-1.968l-4.097-19.318
			c1.229,0.268,2.447,0.489,3.626,0.665c3.495,0.521,7.302,0.778,11.323,0.778c7.568,0,15.896-0.913,24.335-2.702
			c12.923-2.741,24.773-7.258,33.369-12.717c1.006-0.639,2.03-1.333,3.044-2.077l4.109,19.373c0.227,1.069-0.248,2.145-1.184,2.677
			c-2.831,1.611-7.378,4.039-12.959,6.459c-3.801,1.647-5.545,6.064-3.897,9.864c1.227,2.829,3.986,4.519,6.885,4.519
			c0.995,0,2.008-0.2,2.979-0.621c4.976-2.157,9.823-4.574,14.409-7.183c6.097-3.467,9.443-10.136,8.718-17.001h36.232
			C225.62,57.118,248.865,80.363,248.865,108.934z M98.195,20.134c23.532-4.991,37.62-1.075,39.796,1.497
			c-0.944,3.233-12.23,12.531-35.762,17.522c-23.526,4.991-37.617,1.075-39.794-1.497C63.38,34.423,74.665,25.124,98.195,20.134z
			 M61.291,187.18c-8.011,0-14.527-6.517-14.527-14.528c0-8.01,6.517-14.527,14.527-14.527c0.177,0,0.353,0.011,0.529,0.018
			c0.59,0.705,1.207,1.385,1.843,2.048l1.386,26.483C63.834,186.998,62.581,187.18,61.291,187.18z M170.658,300.871v6.781
			c0,3.724-3.03,6.754-6.754,6.754h-11.543c-3.724,0-6.754-3.03-6.754-6.754v-6.781c4.099,0.56,8.278,0.867,12.526,0.867
			C162.382,301.738,166.559,301.431,170.658,300.871z M135.605,321.509l-3.446,19.395c-10.437-15.199-17.666-32.661-21.808-52.602
			c6.298,3.849,13.088,6.959,20.256,9.211v10.138C130.607,312.913,132.485,317.743,135.605,321.509z M158.137,369.015
			c-4.849-3.976-9.34-8.182-13.495-12.613l4.832-27.194c0.946,0.126,1.909,0.198,2.888,0.198h11.543
			c1.099,0,2.179-0.084,3.234-0.242l4.786,26.92C167.688,360.633,163.1,364.945,158.137,369.015z M184.388,340.495l-3.44-19.349
			c2.945-3.712,4.71-8.4,4.71-13.495v-10.138c7.172-2.253,13.964-5.365,20.264-9.216
			C201.815,308.061,194.676,325.39,184.388,340.495z M158.134,286.738c-40.838,0-74.499-31.946-76.633-72.728l-2.289-43.708
			c4.259,1.529,8.844,2.367,13.622,2.367h27.83c5.698,0,10.534-3.76,12.159-8.929c7.003,5.609,15.844,8.929,25.24,8.929h27.83
			c5.698,0,10.535-3.76,12.159-8.929c7.004,5.609,15.845,8.929,25.241,8.929h13.638l-2.164,41.341
			C232.633,254.792,198.972,286.738,158.134,286.738z M438.55,234.309c0-12.835,4.396-12.835,9.961-12.835
			c5.564,0,9.96,0,9.96,12.835c0,2.963-0.28,5.863-0.811,8.594l-18.999-5.409C438.589,236.441,438.55,235.378,438.55,234.309z
			 M378.885,170.977c-3.406-1.456-7.12-2.262-10.97-2.262c-3.691,0-7.25,0.718-10.528,2.041c0.326-4.749,0.873-8.893,1.555-12.485
			c2.958,0.873,6.043,1.336,9.191,1.336c3.146,0,6.228-0.464,9.183-1.337C378.009,161.918,378.561,166.136,378.885,170.977z
			 M357.05,189.576c2.394-3.647,6.427-5.861,10.865-5.861c4.705,0,8.996,2.537,11.293,6.559v125.141
			c-7.816,1.148-15.297,3.606-22.158,7.187V189.576z M368.129,138.403c0.875,0,2.739,1.679,4.692,5.554
			c-1.512,0.423-3.084,0.651-4.688,0.651c-1.607,0-3.182-0.228-4.697-0.65C365.39,140.082,367.254,138.403,368.129,138.403z
			 M342.05,289.481h-12.823v-16.298c0-4.142-3.357-7.5-7.5-7.5h-31.79c-2.891-2.801-5.979-5.401-9.239-7.781l61.352-17.465V289.481z
			 M302.287,280.683h11.939v8.798h-6.928C305.794,286.446,304.126,283.506,302.287,280.683z M277.785,234.309
			c0-12.835,4.396-12.835,9.96-12.835c5.565,0,9.961,0,9.961,12.835c0,1.067-0.048,2.131-0.119,3.189l-18.988,5.405
			C278.069,240.177,277.785,237.284,277.785,234.309z M327.299,352.334c-3.522-1.78-7.229-3.189-11.03-4.204v-20.389
			c0-8.047-1.13-15.845-3.207-23.26h28.989v28.648C336.12,338.566,331.094,345.038,327.299,352.334z M443.327,289.481h-21.298
			v-8.798h21.298V289.481z M496.998,287.512c0,1.086-0.883,1.969-1.969,1.969h-36.702v-16.298c0-4.142-3.357-7.5-7.5-7.5h-36.298
			c-4.143,0-7.5,3.358-7.5,7.5v16.298h-12.821v-49.044l101.359,28.854c0.843,0.24,1.431,1.019,1.431,1.894V287.512z"/>
		<path d="M385.743,397.668c-21.116,0-38.296,17.179-38.296,38.295c0,4.142,3.357,7.5,7.5,7.5s7.5-3.358,7.5-7.5
			c0-12.845,10.45-23.295,23.296-23.295c12.845,0,23.295,10.45,23.295,23.295c0,4.142,3.357,7.5,7.5,7.5s7.5-3.358,7.5-7.5
			C424.038,414.847,406.859,397.668,385.743,397.668z"/>
		<path d="M54.885,362.179c-4.143,0-7.5,3.358-7.5,7.5v132.057c0,4.142,3.357,7.5,7.5,7.5s7.5-3.358,7.5-7.5V369.679
			C62.385,365.537,59.027,362.179,54.885,362.179z"/>
		<path d="M118.866,193.546c-4.143,0-7.5,3.407-7.5,7.549s3.357,7.5,7.5,7.5s7.5-3.358,7.5-7.5v-0.097
			C126.366,196.855,123.009,193.546,118.866,193.546z"/>
		<path d="M197.402,193.546c-4.143,0-7.5,3.407-7.5,7.549s3.357,7.5,7.5,7.5s7.5-3.358,7.5-7.5v-0.097
			C204.902,196.855,201.545,193.546,197.402,193.546z"/>
		<path d="M182.148,225.951c-3.979-1.146-8.136,1.155-9.28,5.136c-1.879,6.536-7.938,11.1-14.734,11.1s-12.854-4.565-14.734-11.101
			c-1.146-3.981-5.302-6.277-9.281-5.135c-3.98,1.145-6.279,5.3-5.135,9.281c3.719,12.926,15.705,21.955,29.15,21.955
			c13.446,0,25.434-9.028,29.15-21.956C188.429,231.25,186.13,227.095,182.148,225.951z"/>
		<path d="M158.138,419.953c-4.143,0-7.5,3.406-7.5,7.548s3.357,7.5,7.5,7.5s7.5-3.358,7.5-7.5v-0.097
			C165.638,423.262,162.28,419.953,158.138,419.953z"/>
		<path d="M158.138,456.464c-4.143,0-7.5,3.407-7.5,7.549s3.357,7.5,7.5,7.5s7.5-3.358,7.5-7.5v-0.097
			C165.638,459.773,162.28,456.464,158.138,456.464z"/>
		<path d="M231.76,362.179h-24.62c-4.143,0-7.5,3.358-7.5,7.5s3.357,7.5,7.5,7.5h24.62c4.143,0,7.5-3.358,7.5-7.5
			S235.902,362.179,231.76,362.179z"/>
	</g>
</g>
<g>
</g>
<g>
</g>
<g>
</g>
<g>
</g>
<g>
</g>
<g>
</g>
<g>
</g>
<g>
</g>
<g>
</g>
<g>
</g>
<g>
</g>
<g>
</g>
<g>
</g>
<g>
</g>
<g>
</g>
</svg>
