<?xml version="1.0" encoding="iso-8859-1"?>
<!-- Generator: Adobe Illustrator 23.0.3, SVG Export Plug-In . SVG Version: 6.00 Build 0)  -->
<svg version="1.1" id="Capa_1" xmlns="http://www.w3.org/2000/svg" xmlns:xlink="http://www.w3.org/1999/xlink" x="0px" y="0px"
	 viewBox="0 0 511.991 511.991" style="enable-background:new 0 0 511.991 511.991;" xml:space="preserve">
<g>
	<g>
		<path style="fill:#52CC61;" d="M209.053,371.188V179.512h280.905c5.418,0,9.811,4.392,9.811,9.811v172.054
			c0,5.418-4.392,9.811-9.811,9.811H209.053z"/>
		<g>
			<path style="fill:#E84649;" d="M342.276,504.491H22.034c-5.418,0-9.811-4.392-9.811-9.811V325.198
				c0-44.892,36.392-81.284,81.284-81.284h177.295c44.892,0,81.284,36.392,81.284,81.284V494.68
				C352.087,500.099,347.694,504.491,342.276,504.491z"/>
			<path style="fill:#D73337;" d="M352.082,325.196V494.68c0,5.415-4.385,9.81-9.81,9.81H321.23c5.415,0,9.81-4.395,9.81-9.81
				V325.196c0-44.89-36.394-81.284-81.284-81.284h21.042C315.697,243.912,352.082,280.307,352.082,325.196z"/>
			<path style="fill:#FFF5F5;" d="M291.81,246.658c-14.617,93.909-109.654,113.117-109.654,113.117S87.109,340.567,72.493,246.648
				c6.7-1.785,13.744-2.737,21.013-2.737h177.302c4.444,0,8.809,0.353,13.057,1.05C286.562,245.392,289.221,245.961,291.81,246.658z
				"/>
			<g>
				<path style="fill:#FDD1A7;" d="M285.602,406.499v97.989h56.675c5.418,0,9.811-4.392,9.811-9.811v-88.178H285.602z"/>
				<path style="fill:#FFBC8A;" d="M352.082,406.5v88.18c0,5.415-4.385,9.81-9.81,9.81H321.23c5.415,0,9.81-4.395,9.81-9.81V406.5
					H352.082z"/>
				<path style="fill:#FDD1A7;" d="M12.221,406.499v88.178c0,5.418,4.392,9.811,9.811,9.811h56.675v-97.989H12.221z"/>
			</g>
		</g>
		<g>
			<g>
				<path style="fill:#FFF5F5;" d="M466.358,428.119c0,8.486-1.383,16.657-3.944,24.279c-3.002,8.947-7.603,17.157-13.479,24.279
					c-10.212,12.38-24.24,21.484-40.279,25.505c-1.471,0.373-2.963,0.697-4.464,0.991c-4.601,0.863-9.349,1.315-14.205,1.315
					c-4.728,0-9.349-0.432-13.832-1.246c-18.06-3.306-33.893-12.959-45.115-26.565c-5.876-7.122-10.477-15.333-13.479-24.279
					c-2.56-7.622-3.943-15.794-3.943-24.279c0-8.485,1.383-16.657,3.943-24.279c3.002-8.947,7.603-17.157,13.479-24.279
					c11.222-13.606,27.055-23.259,45.115-26.565c4.483-0.814,9.103-1.246,13.832-1.246c4.856,0,9.604,0.451,14.205,1.324
					c17.903,3.365,33.599,12.978,44.743,26.486c5.876,7.122,10.477,15.333,13.479,24.279
					C464.975,411.462,466.358,419.634,466.358,428.119z"/>
				<path style="fill:#756F6F;" d="M376.157,352.996v2.286l-14.018,24.279h-31.097C342.264,365.955,358.097,356.302,376.157,352.996
					z"/>
				<path style="fill:#756F6F;" d="M376.157,500.967v2.276c-18.06-3.306-33.893-12.959-45.115-26.565h31.097L376.157,500.967z"/>
				<path style="fill:#756F6F;" d="M334.102,428.119l-14.018,24.279h-2.521c-2.56-7.622-3.943-15.794-3.943-24.279
					c0-8.485,1.383-16.657,3.943-24.279h2.521L334.102,428.119z"/>
				<path style="fill:#EFE2DD;" d="M466.358,428.117c0,42.182-34.187,76.379-76.369,76.379c-4.1,0-8.132-0.324-12.056-0.952
					c36.443-5.778,64.303-37.356,64.303-75.428s-27.86-69.64-64.303-75.418c3.924-0.628,7.956-0.952,12.056-0.952
					C432.171,351.748,466.358,385.945,466.358,428.117z"/>
				<path style="fill:#756F6F;" d="M448.936,379.561h-30.724l-14.018-24.279v-2.207
					C422.096,356.439,437.792,366.053,448.936,379.561z"/>
				<path style="fill:#756F6F;" d="M448.936,476.678c-10.212,12.38-24.24,21.484-40.279,25.505
					c-1.471,0.373-2.963,0.697-4.464,0.991v-2.207l14.018-24.289H448.936z"/>
				<path style="fill:#756F6F;" d="M466.358,428.119c0,8.486-1.383,16.657-3.944,24.279h-0.961l-14.018-24.279l14.018-24.279h0.961
					C464.975,411.462,466.358,419.634,466.358,428.119z"/>
			</g>
			<g>
				<polygon style="fill:#756F6F;" points="404.189,403.84 376.153,403.84 362.134,428.121 376.153,452.401 404.189,452.401 
					418.208,428.121 				"/>
			</g>
		</g>
		<circle style="fill:#FFF5F5;" cx="245.328" cy="404.302" r="17.423"/>
		<g>
			<g>
				<circle style="fill:#FFBC8A;" cx="281.944" cy="165.261" r="22.698"/>
			</g>
			<g>
				<circle style="fill:#FFBC8A;" cx="82.365" cy="165.261" r="22.698"/>
			</g>
			<path style="fill:#FDD1A7;" d="M182.155,284.659L182.155,284.659c-46.176,0-84.269-36.151-86.683-82.264l-5.888-112.48h185.142
				l-5.888,112.48C266.424,248.507,228.331,284.659,182.155,284.659z"/>
			<path style="fill:#DB885D;" d="M220.786,48.441l-23.093,82.366h45.839c5.571,0,10.127,4.5,10.12,10.071
				c-0.012,11.276,3.313,27.988,23.137,27.988c0,0,21.009-30.204,16.962-77.339c-2.034-23.692-21.554-42.067-45.328-42.538
				L220.786,48.441z"/>
			<path style="fill:#C86D3D;" d="M276.792,168.867c-6.798,0-11.654-1.962-15.107-5.003c5.641-10.408,17.069-36.473,13.989-72.337
				c-2.031-23.691-21.552-42.064-45.321-42.535l-9.663-0.196l0.098-0.353l27.634,0.549c23.779,0.471,43.3,18.845,45.331,42.535
				C297.794,138.663,276.792,168.867,276.792,168.867z"/>
			<path style="fill:#DB885D;" d="M142.536,48.441l23.093,82.366H119.79c-5.571,0-10.127,4.5-10.12,10.071
				c0.012,11.276-3.313,27.988-23.137,27.988c0,0-21.009-30.204-16.962-77.339c2.034-23.692,21.554-42.067,45.328-42.538
				L142.536,48.441z"/>
			<path style="fill:#AC5E33;" d="M257.11,76.714C258.457,53.776,243.057,7.5,194.201,7.5H94.969c-4.795,0-8.895,3.46-9.676,8.191
				c-4.676,28.319-12.535,120.36,82.895,120.36h27.767c30.615,0,56.832-22.608,60.581-52.993
				C256.788,81.021,256.981,78.907,257.11,76.714z"/>
			<path style="fill:#904D29;" d="M257.113,76.714c-0.128,2.197-0.324,4.307-0.579,6.347c-3.747,30.381-29.959,52.993-60.576,52.993
				H177.32c30.616,0,56.828-22.612,60.576-52.993c0.255-2.04,0.451-4.15,0.579-6.347c1.344-22.935-14.057-69.218-62.91-69.218
				h18.639C243.056,7.496,258.457,53.779,257.113,76.714z"/>
		</g>
	</g>
	<g>
		<path d="M489.958,172.012h-83.994c-4.143,0-7.5,3.358-7.5,7.5s3.357,7.5,7.5,7.5h83.994c1.274,0,2.311,1.037,2.311,2.311v20.583
			h-64.386c-4.143,0-7.5,3.358-7.5,7.5v115.886c0,4.142,3.357,7.5,7.5,7.5h64.386v20.584c0,1.274-1.036,2.311-2.311,2.311H443.61
			c-14.548-12.127-33.244-19.437-53.62-19.437c-10.722,0-20.97,2.044-30.403,5.728v-24.78c0-3.574-0.218-7.098-0.631-10.563
			c13.536-8.43,21.805-23.135,21.805-39.285c0-22.985-16.832-42.103-38.815-45.699v-42.639h28.946c4.143,0,7.5-3.358,7.5-7.5
			s-3.357-7.5-7.5-7.5h-59.52c0.498-2.172,0.77-4.43,0.77-6.751c0-10.786-5.807-20.638-14.874-25.999
			c3.378-13.03,5.587-29.389,3.957-48.375c-2.082-24.265-19.75-43.815-43.352-48.401c-3.38-7.841-8.082-15.488-14.277-22.057
			C230.993,7.064,213.912,0,194.201,0H94.969c-8.51,0-15.691,6.085-17.076,14.469c-1.712,10.367-3.522,26.849-1.961,44.683
			c-7.93,8.741-12.821,19.922-13.835,31.734c-1.651,19.235,0.638,35.772,4.091,48.884c-8.644,5.477-14.021,15.018-14.021,25.491
			c0,16.651,13.547,30.198,30.198,30.198c1.747,0,3.492-0.156,5.209-0.456l0.408,7.785c0.626,11.957,3.461,23.293,8.091,33.627
			h-2.567c-7.776,0-15.319,1.008-22.511,2.895c-0.34,0.069-0.671,0.157-0.99,0.269c-37.586,10.329-65.282,44.799-65.282,85.621
			v169.482c0,9.545,7.766,17.311,17.311,17.311c4.142,0,7.5-3.358,7.5-7.5s-3.358-7.5-7.5-7.5c-1.274,0-2.311-1.037-2.311-2.311
			v-80.682h51.484v26.241c0,4.142,3.358,7.5,7.5,7.5s7.5-3.358,7.5-7.5v-80.652c0-4.142-3.358-7.5-7.5-7.5s-7.5,3.358-7.5,7.5
			v39.411H19.723v-73.8c0-31.231,19.514-57.973,46.982-68.723c7.95,36.681,29.254,67.067,62.03,88.255
			c26.478,17.116,50.91,22.189,51.937,22.396c0.491,0.099,0.988,0.148,1.486,0.148s0.996-0.049,1.486-0.148
			c1.027-0.208,25.457-5.28,51.932-22.396c32.776-21.188,54.079-51.575,62.027-88.257c27.469,10.75,46.985,37.492,46.985,68.725
			v32.46c-15.118,9.775-26.913,24.261-33.263,41.383c-0.262-0.028-0.527-0.043-0.796-0.043h-17.426v-39.411
			c0-4.142-3.357-7.5-7.5-7.5s-7.5,3.358-7.5,7.5v144.9c0,4.142,3.357,7.5,7.5,7.5s7.5-3.358,7.5-7.5v-90.489h14.229
			c-0.783,4.595-1.213,9.308-1.213,14.123c0,28.5,14.301,53.71,36.092,68.873c-4.112,0.035-7.435,3.377-7.435,7.497
			c0,4.142,3.357,7.5,7.5,7.5c5.732,0,10.807-2.812,13.96-7.117c10.335,4.563,21.749,7.117,33.754,7.117
			c46.246,0,83.87-37.624,83.87-83.87c0-18.473-6.016-35.56-16.174-49.434h32.272c9.545,0,17.311-7.766,17.311-17.311V189.323
			C507.268,179.778,499.503,172.012,489.958,172.012z M326.945,229.645c-9.329,1.523-17.962,5.866-24.776,12.497
			c-2.652-1.005-5.364-1.886-8.13-2.637c-0.18-0.056-0.363-0.106-0.55-0.149c-7.245-1.916-14.848-2.942-22.686-2.942h-2.567
			c4.63-10.335,7.466-21.671,8.092-33.627l0.407-7.784c1.709,0.297,3.447,0.456,5.209,0.456c8.113,0,15.483-3.222,20.914-8.446
			h24.087V229.645z M102.962,202.002l-1.517-28.98c2.344-1.223,4.468-2.774,6.354-4.662c6.144-6.15,9.384-15.656,9.371-27.491
			c-0.001-0.859,0.405-1.446,0.745-1.787c0.29-0.29,0.918-0.776,1.875-0.776h12.183c10.693,3.481,22.786,5.244,36.215,5.244h27.745
			c0.005,0,0.01,0.001,0.015,0.001c0.007,0,0.013-0.001,0.02-0.001c9.315-0.002,18.235-1.875,26.389-5.254
			c0.086,0.003,0.172,0.012,0.258,0.012c0.009,0,0.018-0.002,0.026-0.002h20.891c0.957,0,1.585,0.486,1.875,0.776
			c0.34,0.341,0.746,0.927,0.745,1.787c-0.013,11.834,3.228,21.34,9.371,27.491c2.141,2.143,4.588,3.852,7.317,5.138l-1.493,28.504
			c-2.206,42.144-36.992,75.156-79.193,75.156S105.168,244.146,102.962,202.002z M297.141,165.261
			c0,8.38-6.817,15.198-15.197,15.198c-1.514,0-2.992-0.221-4.414-0.652l0.183-3.498c2.099-0.26,4.009-1.399,5.234-3.16
			c0.412-0.592,4.96-7.274,9.482-18.872C295.366,157.091,297.141,161.032,297.141,165.261z M286.279,92.169
			c2.983,34.747-8.603,59.923-13.528,68.858c-2.756-0.508-4.938-1.589-6.614-3.267c-3.223-3.226-4.992-9.218-4.983-16.873
			c0.005-4.68-1.818-9.085-5.133-12.404c-3.059-3.062-7.047-4.843-11.328-5.119c10.343-10.352,17.39-24.007,19.288-39.387
			c0.273-2.213,0.481-4.509,0.617-6.824c0.303-5.165-0.122-11.116-1.353-17.368C276.019,65.402,285.03,77.607,286.279,92.169z
			 M82.802,90.811c1.457,3.877,5.78,5.838,9.659,4.382c3.877-1.457,5.839-5.781,4.382-9.659c-9.707-25.834-6.136-56.595-4.15-68.621
			C92.876,15.805,93.833,15,94.969,15h99.232c15.698,0,28.646,5.289,38.481,15.719c12.687,13.454,17.675,33.046,16.94,45.555
			c-0.117,1.995-0.295,3.969-0.529,5.866c-1.443,11.688-6.71,22.102-14.467,30.092c0.401-3.598,0.623-7.508,0.525-11.626
			c-0.406-17.217-6.535-41.341-33.426-58.489c-3.494-2.227-8.129-1.201-10.356,2.291c-2.227,3.493-1.201,8.129,2.291,10.356
			c34.505,22.003,26.872,57.973,23.288,69.545c-3.137,1.323-6.424,2.353-9.822,3.069c2.466-10.648,2.67-26.754-10.335-43.097
			c-2.58-3.242-7.299-3.778-10.539-1.199c-3.241,2.579-3.778,7.297-1.199,10.539c11.49,14.439,8.521,28.463,6.111,34.931h-22.977
			c-22.687,0-40.647-5.544-53.382-16.477c-3.144-2.698-7.877-2.338-10.576,0.805c-2.698,3.143-2.338,7.878,0.805,10.576
			c1.365,1.172,2.79,2.275,4.243,3.345c-0.689,0.514-1.357,1.063-1.976,1.683c-3.315,3.319-5.138,7.724-5.132,12.404
			c0.008,7.655-1.762,13.647-4.983,16.873c-1.676,1.677-3.858,2.759-6.613,3.267c-4.936-8.953-16.512-34.124-13.53-68.858
			c0.33-3.847,1.234-7.599,2.646-11.14C80.566,84.317,81.591,87.588,82.802,90.811z M82.365,180.458
			c-8.38,0-15.198-6.818-15.198-15.198c0-3.892,1.477-7.528,3.998-10.276c4.431,11.17,8.805,17.584,9.209,18.164
			c1.402,2.016,3.702,3.217,6.157,3.217c0.022,0,0.044-0.001,0.066-0.001l0.179,3.42C85.359,180.216,83.888,180.458,82.365,180.458z
			 M227.87,331.848c-20.607,13.424-40.277,18.892-45.721,20.231c-5.409-1.32-24.726-6.665-45.272-19.947
			c-30.029-19.413-48.743-46.19-55.706-79.667c4.014-0.679,8.132-1.051,12.336-1.051h11.011
			c17.053,24.686,45.541,40.745,77.637,40.745c32.095,0,60.583-16.059,77.636-40.745h11.011c4.203,0,8.318,0.372,12.331,1.05
			C276.207,285.77,257.643,312.453,227.87,331.848z M316.952,249.378c3.043-2.052,6.423-3.547,9.993-4.425v11.519
			C323.787,253.887,320.45,251.514,316.952,249.378z M341.945,272.138v-27.189c13.656,3.37,23.815,15.719,23.815,30.401
			c0,9.002-3.803,17.341-10.265,23.19C352.466,288.936,347.847,280.031,341.945,272.138z M458.86,428.121
			c0,1.516-0.067,3.015-0.164,4.507l-2.602-4.507l2.602-4.507C458.793,425.106,458.86,426.605,458.86,428.121z M445.245,469.182
			h-22.707l-9.688-16.781l9.688-16.78h20.566l10.659,18.462C451.554,459.49,448.688,464.561,445.245,469.182z M321.119,428.121
			c0-2.326,0.119-4.624,0.345-6.891l3.978,6.889l-3.978,6.89C321.238,432.743,321.119,430.446,321.119,428.121z M334.734,387.06
			h23.07l9.688,16.78l-9.688,16.781h-19.371l-11.559-20.02C328.986,395.777,331.624,391.234,334.734,387.06z M361.668,365.369
			l-3.863,6.691h-7.744C353.686,369.471,357.569,367.226,361.668,365.369z M338.431,435.621h19.373l9.688,16.78l-9.688,16.781
			h-23.07c-3.111-4.175-5.75-8.718-7.861-13.543L338.431,435.621z M350.061,484.182h7.743l3.863,6.691
			C357.569,489.016,353.686,486.771,350.061,484.182z M370.795,428.121l9.688-16.781h19.376l9.688,16.781l-9.688,16.78h-19.376
			L370.795,428.121z M422.538,372.06l-3.735-6.469c3.918,1.813,7.636,3.983,11.116,6.469H422.538z M422.538,484.182h7.38
			c-3.48,2.486-7.197,4.656-11.115,6.469L422.538,484.182z M443.104,420.621h-20.566l-9.688-16.781l9.688-16.78h22.707
			c3.443,4.621,6.309,9.692,8.518,15.099L443.104,420.621z M398.107,359.745l11.44,19.815l-9.688,16.78h-19.376l-9.688-16.78
			l11.469-19.865c2.538-0.285,5.113-0.445,7.726-0.445C392.738,359.25,395.443,359.431,398.107,359.745z M382.264,496.546
			l-11.469-19.864l9.688-16.781h19.376l9.688,16.781l-11.44,19.814c-2.665,0.314-5.37,0.495-8.117,0.495
			C387.377,496.991,384.802,496.831,382.264,496.546z M492.268,292.548h-13.813v-34.396h13.813V292.548z M435.383,325.793V224.907
			h56.886v18.245h-21.313c-4.143,0-7.5,3.358-7.5,7.5v49.396c0,4.142,3.357,7.5,7.5,7.5h21.313v18.245H435.383z"/>
		<path d="M78.707,467.55c-4.142,0-7.5,3.358-7.5,7.5v29.438c0,4.142,3.358,7.5,7.5,7.5s7.5-3.358,7.5-7.5V475.05
			C86.207,470.908,82.849,467.55,78.707,467.55z"/>
		<path d="M245.328,379.379c-13.743,0-24.923,11.181-24.923,24.923s11.181,24.923,24.923,24.923
			c13.742,0,24.923-11.18,24.923-24.923S259.07,379.379,245.328,379.379z M245.328,414.225c-5.472,0-9.923-4.451-9.923-9.923
			s4.452-9.923,9.923-9.923s9.923,4.452,9.923,9.923S250.8,414.225,245.328,414.225z"/>
		<path d="M252.466,447.993H115.277c-4.142,0-7.5,3.358-7.5,7.5s3.358,7.5,7.5,7.5h137.189c4.142,0,7.5-3.358,7.5-7.5
			S256.608,447.993,252.466,447.993z"/>
		<path d="M141.692,202.068c4.142,0,7.5-3.358,7.5-7.5v-0.1c0-4.142-3.358-7.5-7.5-7.5s-7.5,3.358-7.5,7.5v0.1
			C134.192,198.71,137.55,202.068,141.692,202.068z"/>
		<path d="M222.617,202.068c4.142,0,7.5-3.358,7.5-7.5v-0.1c0-4.142-3.358-7.5-7.5-7.5s-7.5,3.358-7.5,7.5v0.1
			C215.117,198.71,218.475,202.068,222.617,202.068z"/>
		<path d="M182.155,252.138c13.753,0,26.015-9.235,29.818-22.457c1.145-3.981-1.154-8.136-5.134-9.281
			c-3.98-1.144-8.136,1.154-9.281,5.135c-1.965,6.832-8.299,11.604-15.402,11.604s-13.438-4.771-15.402-11.603
			c-1.145-3.981-5.3-6.282-9.281-5.135c-3.981,1.145-6.28,5.3-5.135,9.281C156.139,242.903,168.401,252.138,182.155,252.138z"/>
	</g>
</g>
<g>
</g>
<g>
</g>
<g>
</g>
<g>
</g>
<g>
</g>
<g>
</g>
<g>
</g>
<g>
</g>
<g>
</g>
<g>
</g>
<g>
</g>
<g>
</g>
<g>
</g>
<g>
</g>
<g>
</g>
</svg>
