<?xml version="1.0" encoding="iso-8859-1"?>
<!-- Generator: Adobe Illustrator 23.0.3, SVG Export Plug-In . SVG Version: 6.00 Build 0)  -->
<svg version="1.1" id="Capa_1" xmlns="http://www.w3.org/2000/svg" xmlns:xlink="http://www.w3.org/1999/xlink" x="0px" y="0px"
	 viewBox="0 0 511.992 511.992" style="enable-background:new 0 0 511.992 511.992;" xml:space="preserve">
<g>
	<g>
		<g>
			<g>
				<path style="fill:#1475CC;" d="M368.235,489.835H86.256c-5.15,0-9.325-4.175-9.325-9.325V319.414
					c0-42.671,34.592-77.262,77.262-77.262h146.105c42.671,0,77.262,34.592,77.262,77.262V480.51
					C377.56,485.66,373.385,489.835,368.235,489.835z"/>
				<rect x="135.811" y="394.524" style="fill:#FBCC85;" width="182.87" height="95.312"/>
				<rect x="298.573" y="394.524" style="fill:#E8B76B;" width="20.108" height="95.312"/>
				<path style="fill:#0057A1;" d="M377.556,319.412V480.51c0,5.147-4.168,9.324-9.324,9.324h-20.001
					c5.147,0,9.324-4.177,9.324-9.324V319.412c0-42.668-34.594-77.262-77.262-77.262h20.001
					C342.972,242.15,377.556,276.743,377.556,319.412z"/>
				<g>
					<path style="fill:#E8B76B;" d="M316.202,37.085l0,62.041c0,4.397-3.134,8.163-7.457,8.967
						c-23.563,4.384-51.521,6.925-81.5,6.925s-57.936-2.541-81.5-6.925c-4.323-0.804-7.457-4.57-7.457-8.967V37.085
						c0-21.827,22.847-36.127,42.475-26.58c14.653,7.127,30.271,14.69,46.481,14.69s31.828-7.563,46.481-14.69
						C293.355,0.958,316.202,15.258,316.202,37.085z"/>
					<path style="fill:#C99D5C;" d="M316.202,37.087v62.039c0,4.394-3.136,8.167-7.456,8.969
						c-6.317,1.176-12.953,2.215-19.853,3.108c1.769-1.668,2.844-4.029,2.844-6.609V37.087c0-12.388-7.365-22.351-17.319-26.899
						C293.887,1.3,316.202,15.511,316.202,37.087z"/>
					<ellipse style="fill:#FBCC85;" cx="227.246" cy="123.248" rx="177.329" ry="51.929"/>
					<path style="fill:#E8B76B;" d="M404.573,123.253c0,15.741-23.93,29.857-61.722,39.374
						c20.595-11.11,32.715-24.695,32.715-39.374s-12.108-28.264-32.693-39.374C380.653,93.395,404.573,107.501,404.573,123.253z"/>
					<path style="fill:#FFBC8A;" d="M227.246,310.704L227.246,310.704c-17.616,0-31.897-14.281-31.897-31.897v-43.195h63.793v43.195
						C259.142,296.423,244.862,310.704,227.246,310.704z"/>
					<circle style="fill:#FFBC8A;" cx="322.098" cy="153.295" r="21.575"/>
					<circle style="fill:#FFBC8A;" cx="132.394" cy="153.295" r="21.575"/>
					<path style="fill:#FDD1A7;" d="M303.987,126.313c4.513,0.774,7.749,4.773,7.582,9.349l-1.934,52.928
						c-1.143,21.92-10.772,41.461-25.596,55.535c-14.823,14.064-34.85,22.66-56.797,22.66c-43.885,0-80.097-34.365-82.393-78.195
						l-1.933-52.928c-0.167-4.576,3.069-8.574,7.582-9.349c22.531-3.866,48.75-6.079,76.744-6.079S281.457,122.447,303.987,126.313z
						"/>
				</g>
				<g>
					<path style="fill:#EFE2DD;" d="M14.463,363.912c2.724-52.577,25.42-97.748,57.925-121.793
						c3.593-2.657,8.517-2.657,12.109,0.001c32.505,24.057,55.192,69.216,57.915,121.792c0.301,5.811-4.382,10.672-10.201,10.672
						H24.664C18.845,374.583,14.162,369.723,14.463,363.912z"/>
					<path style="fill:#CDBFBB;" d="M142.409,363.915c0.306,5.808-4.379,10.667-10.197,10.667h-22.12
						c5.818,0,10.504-4.859,10.197-10.667c-2.572-49.833-23.09-93.011-52.906-117.857c1.633-1.378,3.307-2.684,5.002-3.94
						c3.593-2.654,8.523-2.654,12.116,0C117.002,266.177,139.694,311.336,142.409,363.915z"/>
					<g>
						<path style="fill:#9E9797;" d="M86.106,504.489H70.769c-2.698,0-4.885-2.187-4.885-4.885V344.996
							c0-6.933,5.62-12.553,12.553-12.553h0c6.933,0,12.553,5.62,12.553,12.553v154.608
							C90.99,502.302,88.803,504.489,86.106,504.489z"/>
					</g>
				</g>
				<path style="fill:#77D47D;" d="M460.89,338.767c-9.552,9.552-12.601,23.14-9.148,35.274c12.129,3.459,25.727,0.409,35.279-9.142
					c9.552-9.552,12.601-23.15,9.148-35.284C484.029,326.166,470.442,329.215,460.89,338.767z"/>
				<path style="fill:#0AC444;" d="M487.018,364.895c-8.059,8.059-18.99,11.49-29.497,10.285c5.205-1.812,10.102-4.936,14.247-9.36
					c9.418-10.083,12.512-24.359,9.293-37.199c5.032-0.733,10.189-0.405,15.105,0.993
					C499.626,341.75,496.571,355.342,487.018,364.895z"/>
				<path style="fill:#77D47D;" d="M439.843,338.765c9.552,9.552,12.601,23.14,9.148,35.274
					c-12.129,3.459-25.727,0.409-35.279-9.142c-9.552-9.552-12.601-23.15-9.148-35.284
					C416.704,326.164,430.291,329.213,439.843,338.765z"/>
				<path style="fill:#0AC444;" d="M448.989,374.043c-5.35,1.523-10.98,1.783-16.435,0.781c4.241-10.478,3.499-22.798-3.104-33.016
					c-4.039-6.256-9.688-10.835-16.06-13.553c9.543-0.28,19.164,3.219,26.451,10.507
					C449.394,348.314,452.44,361.906,448.989,374.043z"/>
				<path style="fill:#EFE2DD;" d="M472.13,504.488h-43.527c-5.088,0-9.339-3.874-9.811-8.94l-7.034-75.604
					c-0.538-5.777,4.009-10.766,9.811-10.766h57.596c5.802,0,10.348,4.989,9.811,10.766l-7.034,75.604
					C481.47,500.614,477.218,504.488,472.13,504.488z"/>
				<path style="fill:#CDBFBB;" d="M488.975,419.942l-7.035,75.604c-0.473,5.064-4.72,8.947-9.814,8.947h-18.514
					c5.084,0,9.341-3.882,9.814-8.947l7.035-75.604c0.532-5.774-4.01-10.76-9.814-10.76h18.514
					C484.965,409.182,489.517,414.168,488.975,419.942z"/>
				<circle style="fill:#ED6264;" cx="450.364" cy="289.192" r="23.591"/>
				<path style="fill:#D73337;" d="M473.959,289.189c0,13.036-10.563,23.598-23.599,23.598c-2.857,0-5.597-0.512-8.129-1.439
					c9.026-3.311,15.46-11.981,15.46-22.16c0-10.168-6.434-18.839-15.46-22.15c2.532-0.926,5.272-1.439,8.129-1.439
					C463.396,265.601,473.959,276.164,473.959,289.189z"/>
			</g>
			<path style="fill:#8ECBFD;" d="M477.532,205.083c0,15.005-12.164,27.168-27.168,27.168c-15.005,0-27.168-12.164-27.168-27.168
				c0-15.005,27.168-54.548,27.168-54.548S477.532,190.078,477.532,205.083z"/>
			<path style="fill:#65BAFC;" d="M477.528,205.081c0,15.005-12.162,27.168-27.168,27.168c-3.654,0-7.141-0.723-10.326-2.042
				c9.886-4.054,16.842-13.774,16.842-25.126c0-8.714-9.163-25.702-16.842-38.412c5.549-9.183,10.326-16.138,10.326-16.138
				S477.528,190.076,477.528,205.081z"/>
		</g>
		<g>
			<path style="fill:#FEF0DC;" d="M189.194,489.839L189.194,489.839c-12.03,0-21.783-9.752-21.783-21.783v-28.433
				c0-5.442,4.411-9.853,9.853-9.853h23.859c5.442,0,9.853,4.411,9.853,9.853v28.433
				C210.976,480.086,201.224,489.839,189.194,489.839z"/>
			<path style="fill:#FEF0DC;" d="M265.5,489.839L265.5,489.839c-12.03,0-21.783-9.752-21.783-21.783v-28.433
				c0-5.442,4.411-9.853,9.853-9.853h23.859c5.442,0,9.853,4.411,9.853,9.853v28.433C287.282,480.086,277.53,489.839,265.5,489.839z
				"/>
		</g>
	</g>
	<g>
		<path d="M301.799,234.69c9.117-13.451,14.464-29.164,15.327-45.71c0.002-0.039,0.003-0.078,0.005-0.117l0.251-6.889
			c1.557,0.256,3.133,0.396,4.714,0.396c10.035,0,18.898-5.11,24.125-12.865c54.361-13.991,65.853-32.839,65.853-46.257
			c0-17.748-19.824-32.934-57.331-43.917c-9.54-2.794-19.949-5.236-31.042-7.306v-34.94c0-12.854-6.506-24.599-17.402-31.416
			c-10.895-6.815-24.298-7.528-35.854-1.907c-14.084,6.85-28.647,13.934-43.2,13.934s-29.116-7.084-43.2-13.934
			c-11.556-5.62-24.959-4.907-35.854,1.907c-10.896,6.817-17.402,18.562-17.402,31.416v34.956
			c-20.126,3.746-37.683,8.647-51.718,14.507c-24.323,10.154-36.655,22.502-36.655,36.7c0,13.425,11.497,32.27,65.853,46.257
			c5.227,7.754,14.09,12.864,24.125,12.864c1.583,0,3.157-0.144,4.71-0.399l0.252,6.892c0.002,0.04,0.003,0.079,0.006,0.119
			c0.887,16.94,6.428,32.567,15.322,45.703c-17.117,0.307-33.78,5.821-47.661,15.706c-5.063-5.342-10.443-10.139-16.064-14.299
			c-6.29-4.655-14.742-4.655-21.03-0.003C32.537,262.269,9.75,309.908,6.972,363.524c-0.248,4.793,1.511,9.543,4.825,13.033
			c3.335,3.512,8.024,5.526,12.866,5.526h33.721v122.409c0,4.143,3.357,7.5,7.5,7.5s7.5-3.357,7.5-7.5V344.996
			c0-2.786,2.267-5.053,5.053-5.053s5.053,2.267,5.053,5.053v159.496c0,4.143,3.357,7.5,7.5,7.5s7.5-3.357,7.5-7.5V382.083h29.82
			v104.954c0,4.143,3.357,7.5,7.5,7.5s7.5-3.357,7.5-7.5v-85.014h88.684c4.143,0,7.5-3.357,7.5-7.5s-3.357-7.5-7.5-7.5h-58.929
			V256.135c4.607,3.477,9.553,6.517,14.784,9.067v13.606c0,21.724,17.673,39.396,39.396,39.396s39.396-17.673,39.396-39.396v-13.604
			c5.183-2.527,10.131-5.559,14.783-9.075v130.895h-11.987c-4.143,0-7.5,3.357-7.5,7.5s3.357,7.5,7.5,7.5h41.742v85.014
			c0,4.143,3.357,7.5,7.5,7.5s7.5-3.357,7.5-7.5V367.115c0-4.143-3.357-7.5-7.5-7.5s-7.5,3.357-7.5,7.5v19.908h-14.755V249.651
			h3.873c38.467,0,69.762,31.295,69.762,69.763V480.51c0,1.007-0.818,1.825-1.825,1.825c-4.143,0-7.5,3.357-7.5,7.5
			s3.357,7.5,7.5,7.5c9.277,0,16.825-7.548,16.825-16.825V319.414C385.06,273.179,347.844,235.496,301.799,234.69z M322.097,167.369
			c-1.436,0-2.822-0.233-4.157-0.646l0.991-27.146c1.028-0.236,2.085-0.357,3.166-0.357c7.761,0,14.075,6.314,14.075,14.075
			S329.858,167.369,322.097,167.369z M57.417,123.248c0-14.093,37.665-33.278,107.47-41.076c4.116-0.46,7.08-4.17,6.621-8.287
			c-0.46-4.116-4.153-7.076-8.287-6.621c-5.968,0.667-11.778,1.428-17.431,2.269V37.085c0-7.651,3.872-14.642,10.358-18.699
			c6.483-4.056,14.46-4.48,21.337-1.136c14.884,7.24,31.753,15.445,49.761,15.445s34.877-8.205,49.761-15.445
			c6.879-3.345,14.854-2.92,21.337,1.136c6.486,4.058,10.358,11.048,10.358,18.699v32.43c-24.969-3.723-52.714-5.695-81.456-5.695
			c-9.543,0-19.172,0.225-28.617,0.667c-4.138,0.194-7.334,3.706-7.141,7.844c0.194,4.137,3.69,7.317,7.844,7.141
			c9.212-0.433,18.604-0.651,27.914-0.651c105.221,0,169.829,25.877,169.829,44.429c0,7.585-12.267,19.404-45.92,29.338
			c-0.379-15.705-13.263-28.366-29.057-28.366c-2.268,0-4.489,0.26-6.65,0.767c-2.473-3.114-6.041-5.354-10.191-6.066
			c-23.594-4.048-50.569-6.188-78.012-6.188s-54.419,2.14-78.013,6.188c-4.152,0.712-7.721,2.954-10.194,6.07
			c-2.164-0.507-4.384-0.771-6.643-0.771c-15.795,0-28.679,12.662-29.057,28.367C69.686,142.656,57.417,130.839,57.417,123.248z
			 M132.394,167.369c-7.761,0-14.075-6.313-14.075-14.074s6.314-14.075,14.075-14.075c1.077,0,2.132,0.132,3.162,0.369l0.992,27.151
			C135.21,167.151,133.809,167.369,132.394,167.369z M143.31,387.024v-8.869c0.619-0.496,1.218-1.019,1.769-1.599
			c3.313-3.49,5.071-8.241,4.823-13.032c-0.86-16.612-3.661-32.834-8.324-48.215c-1.202-3.965-5.394-6.201-9.354-5.002
			c-3.964,1.202-6.203,5.39-5.002,9.354c4.312,14.22,6.901,29.238,7.699,44.64c0.048,0.916-0.365,1.554-0.721,1.928
			c-0.304,0.319-0.965,0.855-1.99,0.855H98.49v-22.087c0-11.057-8.996-20.053-20.053-20.053s-20.053,8.996-20.053,20.053v22.087
			H24.664c-1.024,0-1.686-0.536-1.989-0.855c-0.291-0.307-0.771-0.965-0.722-1.929c2.548-49.187,23.069-92.608,54.896-116.151
			c0.936-0.693,2.248-0.692,3.186,0.001c13.226,9.788,25.015,23.682,34.093,40.181c1.996,3.629,6.556,4.953,10.187,2.956
			c3.629-1.997,4.952-6.558,2.956-10.187c-3.759-6.831-7.952-13.271-12.504-19.238c11.549-7.907,25.331-12.209,39.427-12.209h3.872
			v137.372H143.31z M251.642,278.808c0,13.452-10.944,24.396-24.396,24.396s-24.396-10.944-24.396-24.396v-7.894
			c7.768,2.183,15.946,3.371,24.395,3.371c8.347,0,16.54-1.158,24.398-3.365V278.808z M227.244,259.284
			c-39.895,0-72.783-31.195-74.899-71.029l-1.932-52.867c-0.03-0.822,0.553-1.546,1.355-1.684
			c22.77-3.906,48.868-5.971,75.476-5.971c26.606,0,52.705,2.064,75.475,5.971c0.803,0.139,1.386,0.861,1.355,1.684l-1.931,52.868
			c-1.018,19.242-9.279,37.149-23.265,50.428C264.877,251.968,246.539,259.284,227.244,259.284z"/>
		<path d="M188.785,173.604c-4.143,0-7.5,3.405-7.5,7.548s3.357,7.5,7.5,7.5s7.5-3.357,7.5-7.5v-0.095
			C196.285,176.914,192.927,173.604,188.785,173.604z"/>
		<path d="M265.707,173.604c-4.143,0-7.5,3.405-7.5,7.548s3.357,7.5,7.5,7.5s7.5-3.357,7.5-7.5v-0.095
			C273.207,176.914,269.849,173.604,265.707,173.604z"/>
		<path d="M250.81,205.349c-3.977-1.143-8.136,1.153-9.281,5.135c-1.822,6.336-7.695,10.761-14.283,10.761
			s-12.461-4.425-14.283-10.761c-1.146-3.98-5.302-6.281-9.281-5.135c-3.98,1.146-6.279,5.301-5.135,9.281
			c3.66,12.727,15.462,21.614,28.699,21.614s25.039-8.888,28.699-21.614C257.089,210.649,254.791,206.494,250.81,205.349z"/>
		<path d="M479.165,401.677h-21.298v-18.938c1.243,0.107,2.486,0.18,3.727,0.18c11.368,0,22.478-4.464,30.731-12.717
			c11.136-11.137,15.373-27.476,11.058-42.641c-0.712-2.499-2.665-4.452-5.164-5.162c-14.161-4.022-29.339-0.587-40.352,8.949
			v-11.986c13.531-3.366,23.589-15.613,23.589-30.17c0-17.145-13.947-31.092-31.092-31.092c-17.144,0-31.091,13.947-31.091,31.092
			c0,14.559,10.061,26.807,23.594,30.171v11.984c-11.011-9.536-26.189-12.973-40.352-8.95c-2.5,0.71-4.453,2.663-5.165,5.162
			c-4.315,15.165-0.078,31.504,11.059,42.641c8.254,8.254,19.362,12.717,30.73,12.717c1.241,0,2.484-0.073,3.728-0.18v18.94h-21.298
			c-4.87,0-9.546,2.064-12.826,5.664c-3.281,3.601-4.904,8.447-4.453,13.298l7.035,75.604c0.834,8.977,8.263,15.746,17.278,15.746
			h43.527c9.015,0,16.442-6.769,17.278-15.746l7.034-75.604c0.451-4.85-1.171-9.696-4.452-13.296
			C488.711,403.742,484.036,401.677,479.165,401.677z M466.192,344.07c6.249-6.247,15.007-9.183,23.635-8.111
			c1.071,8.631-1.858,17.386-8.109,23.636c-6.252,6.252-15.012,9.184-23.633,8.106C457.013,359.074,459.944,350.319,466.192,344.07z
			 M442.648,367.699c-8.627,1.072-17.381-1.855-23.633-8.106c-6.25-6.25-9.181-15.005-8.109-23.636
			c8.631-1.068,17.387,1.862,23.634,8.111c0,0,0,0,0,0.001C440.79,350.318,443.719,359.072,442.648,367.699z M434.273,289.192
			c0-8.873,7.219-16.092,16.091-16.092c8.873,0,16.092,7.219,16.092,16.092c0,8.872-7.219,16.091-16.092,16.091
			C441.492,305.283,434.273,298.065,434.273,289.192z M474.473,494.853c-0.113,1.218-1.12,2.136-2.343,2.136h-43.527
			c-1.223,0-2.229-0.918-2.343-2.136l-7.035-75.604c-0.084-0.9,0.343-1.517,0.604-1.804s0.835-0.769,1.739-0.769h57.596
			c0.904,0,1.478,0.481,1.739,0.769s0.688,0.902,0.604,1.804L474.473,494.853z"/>
		<path d="M450.364,239.751c19.116,0,34.669-15.552,34.669-34.668c0-16.497-23.73-51.872-28.487-58.796
			c-1.399-2.036-3.711-3.253-6.182-3.253s-4.782,1.217-6.182,3.253c-4.757,6.924-28.486,42.299-28.486,58.796
			C415.696,224.199,431.248,239.751,450.364,239.751z M450.387,164.142c13.498,21.139,19.646,36.339,19.646,40.941
			c0,10.845-8.823,19.668-19.669,19.668c-10.845,0-19.668-8.823-19.668-19.668C430.696,197.936,440.825,179.257,450.387,164.142z"/>
		<path d="M201.123,422.27h-23.858c-9.568,0-17.354,7.785-17.354,17.354v28.433c0,16.146,13.137,29.283,29.283,29.283
			s29.282-13.137,29.282-29.283v-28.433C218.476,430.055,210.691,422.27,201.123,422.27z M203.476,468.056
			c0,7.876-6.407,14.283-14.282,14.283c-7.876,0-14.283-6.407-14.283-14.283v-28.433c0-1.298,1.056-2.354,2.354-2.354h23.858
			c1.298,0,2.354,1.056,2.354,2.354V468.056z"/>
		<path d="M277.429,422.27H253.57c-9.568,0-17.353,7.785-17.353,17.354v28.433c0,16.146,13.136,29.283,29.282,29.283
			s29.283-13.137,29.283-29.283v-28.433C294.783,430.055,286.998,422.27,277.429,422.27z M279.783,468.056
			c0,7.876-6.407,14.283-14.283,14.283c-7.875,0-14.282-6.407-14.282-14.283v-28.433c0-1.298,1.056-2.354,2.353-2.354h23.859
			c1.298,0,2.354,1.056,2.354,2.354V468.056z"/>
	</g>
</g>
<g>
</g>
<g>
</g>
<g>
</g>
<g>
</g>
<g>
</g>
<g>
</g>
<g>
</g>
<g>
</g>
<g>
</g>
<g>
</g>
<g>
</g>
<g>
</g>
<g>
</g>
<g>
</g>
<g>
</g>
</svg>
