<?xml version="1.0" encoding="iso-8859-1"?>
<!-- Generator: Adobe Illustrator 23.0.3, SVG Export Plug-In . SVG Version: 6.00 Build 0)  -->
<svg version="1.1" id="Capa_1" xmlns="http://www.w3.org/2000/svg" xmlns:xlink="http://www.w3.org/1999/xlink" x="0px" y="0px"
	 viewBox="0 0 512 512" style="enable-background:new 0 0 512 512;" xml:space="preserve">
<g>
	<g>
		<g>
			<rect x="7.5" y="258.075" style="fill:#FF9846;" width="497" height="210.426"/>
			<polygon style="fill:#ED6264;" points="7.5,345.881 204.241,281.523 307.759,281.523 504.5,345.881 504.5,393.641 
				325.759,332.283 186.241,332.283 7.5,393.641 			"/>
			<polygon style="fill:#93DD96;" points="7.5,393.641 186.241,332.283 325.759,332.283 504.5,393.641 504.5,446.818 
				325.759,385.46 186.241,385.46 7.5,446.818 			"/>
			<g>
				<g>
					<polygon style="fill:#65BAFC;" points="204.241,281.597 7.5,345.955 7.5,126.998 204.241,184.677 					"/>
				</g>
				<g>
					<polygon style="fill:#65BAFC;" points="307.759,281.597 504.5,345.955 504.5,126.998 307.759,184.677 					"/>
				</g>
			</g>
		</g>
		<g>
			<path style="fill:#52CC61;" d="M368.44,339.771v139.73c0,5.52-4.47,10-10,10H153.56c-5.53,0-10-4.48-10-10v-139.73
				c0-44.86,36.36-81.22,81.21-81.22h62.46C332.08,258.551,368.44,294.911,368.44,339.771z"/>
			<path style="fill:#00B232;" d="M368.443,339.771v139.73c0,5.523-4.477,10-10,10h-11.71v-149.73c0-44.86-36.36-81.22-81.22-81.22
				h21.71C332.08,258.551,368.443,294.915,368.443,339.771z"/>
			<path style="fill:#FDD1A7;" d="M368.44,391.788v87.713c0,5.52-4.47,10-10,10H153.56c-5.53,0-10-4.48-10-10v-87.713h44.564v57.593
				h135.752v-57.593H368.44z"/>
			<rect x="143.556" y="421.46" style="fill:#E84649;" width="44.568" height="30.679"/>
			<path style="fill:#FFBC8A;" d="M368.44,391.788v87.713c0,5.52-4.47,10-10,10h-11.71v-97.713H368.44z"/>
			<g>
				<path style="fill:#FCD79F;" d="M387.624,94.244c-4.759-3.281-11.397-7.236-19.239-10.221
					c-16.32-6.214-25.074-24.378-19.052-40.77c6.069-16.52,24.414-24.922,40.872-18.76c15.061,5.639,32.214,31.868,11.762,66.549
					C399.002,96.07,392.43,97.558,387.624,94.244z"/>
				<circle style="fill:#FBCC85;" cx="333.311" cy="68.815" r="30.846"/>
				<path style="fill:#FCD79F;" d="M124.376,94.244c4.759-3.281,11.397-7.236,19.239-10.221c16.32-6.214,25.074-24.378,19.052-40.77
					c-6.069-16.52-24.414-24.922-40.872-18.76c-15.061,5.639-32.214,31.868-11.762,66.549
					C112.998,96.07,119.57,97.558,124.376,94.244z"/>
				<circle style="fill:#FBCC85;" cx="178.689" cy="68.815" r="30.846"/>
				<circle style="fill:#9E9797;" cx="336.115" cy="182.272" r="20.66"/>
				<circle style="fill:#FFBC8A;" cx="175.885" cy="182.272" r="20.66"/>
				<path style="fill:#FDD1A7;" d="M179.135,138.323l10.118,82.84c4.12,33.733,32.762,59.09,66.746,59.09l0,0
					c33.984,0,62.626-25.357,66.746-59.09l10.118-82.84H179.135z"/>
				<line style="fill:#F69583;" x1="302.728" y1="216.634" x2="302.728" y2="216.72"/>
				<path style="fill:#E8B76B;" d="M339.824,162.611c-8.15,3.92-25.07,6.62-45.26,8.09l-11.85-21.99l-10.49,23.08
					c-40.22,1.11-85.02-1.95-100.05-9.18c-12.53-26.07-7.99-58.28,13.62-79.9c19.19-19.18,46.71-24.9,70.88-17.2
					c1.84-0.83,3.78-1.46,5.8-1.88c22.31-4.59,46.42,1.77,63.73,19.08C347.814,104.331,352.354,136.541,339.824,162.611z"/>
				<path style="fill:#C99D5C;" d="M339.82,162.611c-4.32,2.08-11.12,3.82-19.56,5.2c12.77-27.81,7.69-61.78-15.21-84.69
					c-10.63-10.63-23.64-17.42-37.32-20.37c20.78-2.65,42.51,4,58.47,19.96C347.81,104.331,352.35,136.541,339.82,162.611z"/>
				<g>
					<path style="fill:#F69583;" d="M212.272,230.013c-4.06,0-7.352-3.292-7.352-7.352s3.292-7.395,7.352-7.395
						c4.06,0,7.352,3.248,7.352,7.308v0.087C219.624,226.721,216.332,230.013,212.272,230.013z"/>
				</g>
				<g>
					<path style="fill:#F69583;" d="M299.728,230.013c-4.06,0-7.352-3.292-7.352-7.352s3.292-7.395,7.352-7.395
						s7.352,3.248,7.352,7.308v0.087C307.08,226.721,303.789,230.013,299.728,230.013z"/>
				</g>
			</g>
			<path style="fill:#FFF5F5;" d="M293.98,375.491v15.542c0,6.361-5.854,11.081-12.079,9.774
				c-8.362-1.756-17.071-2.663-25.901-2.663c-8.83,0-17.539,0.907-25.901,2.663c-6.225,1.307-12.079-3.413-12.079-9.774v-15.542
				c0-4.799,3.405-8.941,8.121-9.829c9.728-1.833,19.748-2.778,29.859-2.778c10.111,0,20.131,0.945,29.859,2.778
				C290.575,366.55,293.98,370.692,293.98,375.491z"/>
		</g>
	</g>
	<g>
		<path d="M68.919,177.972l-24.395-7.187c-3.974-1.174-8.144,1.103-9.313,5.075c-1.171,3.973,1.102,8.144,5.075,9.314l24.395,7.187
			c0.707,0.208,1.421,0.308,2.122,0.308c3.24,0,6.229-2.117,7.191-5.382C75.165,183.313,72.893,179.143,68.919,177.972z"/>
		<path d="M508.996,120.995c-1.892-1.417-4.34-1.859-6.606-1.194l-146.083,42.828c-1.86-1.91-4.006-3.554-6.381-4.886
			c6.153-17.7,5.579-36.83-1.108-53.865c6.482-2.886,11.974-7.514,15.948-13.229c0.316,0.13,0.631,0.262,0.95,0.384
			c5.897,2.245,12.001,5.491,17.65,9.386c2.94,2.028,6.43,3.093,9.955,3.093c1.252,0,2.509-0.134,3.746-0.408
			c4.745-1.047,8.886-4.054,11.359-8.251c13.396-22.716,11.503-40.793,7.555-51.958c-4.213-11.914-13.081-21.656-23.146-25.424
			c-17.22-6.446-36.69,0.238-46.549,15.264c-4.055-1.463-8.423-2.264-12.976-2.264c-17.029,0-31.676,11.13-36.591,26.837
			c-11.485-3.071-23.704-3.5-35.772-1.018c-1.573,0.327-3.119,0.759-4.624,1.29c-13.689-3.844-27.835-3.821-41.058-0.279
			c-4.939-15.675-19.648-26.831-36.576-26.831c-4.55,0-8.915,0.801-12.967,2.261c-9.858-15.064-29.247-21.742-46.558-15.261
			c-10.064,3.768-18.933,13.51-23.146,25.424c-3.948,11.165-5.842,29.243,7.554,51.958c2.475,4.198,6.615,7.205,11.36,8.252
			c1.237,0.273,2.494,0.408,3.746,0.408c3.524,0,7.015-1.064,9.955-3.092c5.649-3.896,11.753-7.141,17.651-9.387
			c0.318-0.121,0.632-0.254,0.947-0.383c3.973,5.715,9.465,10.343,15.947,13.228c-6.687,17.035-7.261,36.166-1.107,53.867
			c-2.374,1.332-4.519,2.975-6.378,4.885L9.61,119.8c-2.267-0.665-4.716-0.224-6.606,1.194C1.113,122.411,0,124.635,0,126.997
			v67.112c0,4.142,3.357,7.5,7.5,7.5s7.5-3.358,7.5-7.5v-57.098l133.413,39.113c-0.441,1.988-0.687,4.043-0.687,6.147
			c0,15.527,12.633,28.16,28.16,28.16c1.494,0,2.985-0.131,4.457-0.367l1.467,12.008c1.548,12.673,6.234,24.286,13.208,34.112
			c-15.261,5.452-28.935,15.082-39.227,27.793c-1.9,2.346-3.656,4.794-5.297,7.311L15,335.611V229.863c0-4.142-3.357-7.5-7.5-7.5
			s-7.5,3.358-7.5,7.5v238.639c0,4.142,3.357,7.5,7.5,7.5s7.5-3.358,7.5-7.5v-16.328l121.056-41.556v68.884
			c0,9.649,7.851,17.5,17.5,17.5c4.143,0,7.5-3.358,7.5-7.5s-3.357-7.5-7.5-7.5c-1.379,0-2.5-1.122-2.5-2.5v-19.862h29.568v29.862
			c0,4.142,3.357,7.5,7.5,7.5s7.5-3.358,7.5-7.5v-32.62h63.89c4.143,0,7.5-3.358,7.5-7.5s-3.357-7.5-7.5-7.5h-63.89v-74.735
			c0-4.142-3.357-7.5-7.5-7.5s-7.5,3.358-7.5,7.5v17.142h-29.568v-44.522c0-16.834,5.821-33.295,16.392-46.351
			c9.87-12.188,23.469-20.968,38.514-24.936c13.324,12.018,30.93,19.273,50.039,19.273c19.256,0,36.982-7.369,50.341-19.553
			l3.922,1.68c1.591,0.681,3.219,1.214,4.867,1.616c0.088,0.04,0.172,0.087,0.262,0.124c27.672,11.45,45.552,38.2,45.552,68.146
			v44.522h-29.568v-17.142c0-4.142-3.357-7.5-7.5-7.5s-7.5,3.358-7.5,7.5v74.735h-16.647c-4.143,0-7.5,3.358-7.5,7.5
			s3.357,7.5,7.5,7.5h16.647v32.62c0,4.142,3.357,7.5,7.5,7.5s7.5-3.358,7.5-7.5v-90.213h29.568v80.213c0,1.378-1.121,2.5-2.5,2.5
			c-4.143,0-7.5,3.358-7.5,7.5s3.357,7.5,7.5,7.5c9.649,0,17.5-7.851,17.5-17.5v-68.884L497,452.173v16.328
			c0,4.142,3.357,7.5,7.5,7.5s7.5-3.358,7.5-7.5V126.997C512,124.635,510.887,122.411,508.996,120.995z M141.169,310.121
			c-3.354,9.464-5.113,19.499-5.113,29.646v1.814L15,383.137v-31.744L141.169,310.121z M15,436.314v-37.317l121.056-41.556v37.317
			L15,436.314z M151.056,428.96h29.568v15.679h-29.568V428.96z M180.624,399.288v14.672h-29.568v-14.672H180.624z M331.031,254.764
			c-4.287,2.827-9.411,3.393-14.172,1.599c7.044-9.863,11.774-21.541,13.331-34.291l1.465-11.996
			c1.465,0.233,2.953,0.355,4.458,0.355c0.669,0,1.331-0.032,1.989-0.078v31.274C338.104,247.012,335.525,251.8,331.031,254.764z
			 M341.28,170.165c4.827,2.051,7.995,6.774,7.995,12.107c0,7.256-5.903,13.16-13.16,13.16c-0.896,0-1.777-0.089-2.637-0.263
			l2.841-23.254C338.107,171.372,339.771,170.79,341.28,170.165z M387.576,31.517c4.505,1.687,10.943,6.987,14.264,16.376
			c2.884,8.156,4.126,21.603-6.334,39.339c-0.503,0.854-1.263,1.133-1.67,1.223c-0.483,0.106-1.211,0.126-1.954-0.386
			c-6.719-4.632-13.726-8.352-20.827-11.056c-0.092-0.035-0.181-0.08-0.272-0.116c0.572-2.619,0.875-5.325,0.875-8.082
			c0-11.206-4.833-21.303-12.522-28.32C365.305,31.53,377.113,27.598,387.576,31.517z M333.311,45.469
			c12.873,0,23.347,10.473,23.347,23.346c0,9.601-5.978,18.174-14.661,21.671c-2.976-4.661-6.47-9.056-10.49-13.078
			c-6.135-6.135-13.137-11.095-20.688-14.804C313.553,52.629,322.656,45.469,333.311,45.469z M254.397,72.657
			c1.764,0.563,3.675,0.452,5.36-0.31c1.341-0.605,2.769-1.067,4.228-1.37c20.704-4.26,41.985,2.108,56.913,17.036
			c18.107,18.115,23.294,45.451,13.312,68.821c-6.891,2.515-19.397,4.641-35.363,6.005l-9.53-17.686
			c-1.353-2.509-4.026-4.042-6.856-3.938c-2.848,0.096-5.395,1.798-6.574,4.392l-8.543,18.796
			c-38.564,0.75-75.383-2.38-89.555-7.567c-9.984-23.372-4.798-50.707,13.308-68.821C207.721,71.398,231.976,65.515,254.397,72.657z
			 M140.946,77.013c-7.103,2.704-14.109,6.424-20.828,11.057c-0.742,0.511-1.472,0.492-1.954,0.385
			c-0.407-0.09-1.167-0.369-1.671-1.223c-10.459-17.736-9.217-31.183-6.333-39.339c3.32-9.389,9.759-14.69,14.264-16.376
			c10.52-3.941,22.273-0.007,28.441,8.978c-7.689,7.018-12.522,17.115-12.522,28.321c0,2.758,0.303,5.463,0.875,8.082
			C141.126,76.933,141.038,76.978,140.946,77.013z M155.343,68.815c0-12.873,10.474-23.346,23.347-23.346
			c10.59,0,19.735,7.174,22.484,17.124c-7.529,3.703-14.529,8.664-20.684,14.816c-4.02,4.021-7.512,8.416-10.489,13.076
			C161.319,86.988,155.343,78.418,155.343,68.815z M175.886,195.432c-7.257,0-13.16-5.903-13.16-13.16
			c0-5.334,3.168-10.056,7.995-12.107c1.491,0.618,3.147,1.203,4.962,1.754l2.838,23.232
			C177.662,195.325,176.785,195.432,175.886,195.432z M256,272.753c-30.151,0-55.646-22.57-59.302-52.5l-5.486-44.913
			c17.874,2.902,41.656,4.176,64.535,4.176c5.65,0,11.246-0.078,16.684-0.228c2.865-0.079,5.435-1.784,6.621-4.394l4.233-9.314
			l4.676,8.678c1.401,2.602,4.199,4.139,7.147,3.922c7.896-0.574,17.096-1.472,25.682-2.86l-5.489,44.933
			c-1.387,11.352-5.921,21.641-12.654,30.046l-9.938-4.257c-3.808-1.631-8.217,0.133-9.848,3.941
			c-1.631,3.807,0.134,8.216,3.941,9.847l3.988,1.708C280.942,268.611,268.901,272.753,256,272.753z M338.833,267.563
			c0.151-0.095,0.307-0.179,0.456-0.277c8.65-5.705,13.814-15.297,13.814-25.659v-36.917c6.781-5.147,11.171-13.289,11.171-22.439
			c0-2.104-0.247-4.158-0.688-6.146L497,137.012V335.61l-50.458-16.506c-3.938-1.288-8.173,0.86-9.46,4.796
			c-1.288,3.937,0.859,8.172,4.796,9.46L497,351.393v31.744l-121.056-41.556v-1.814c0-10.305-1.766-20.292-5.058-29.628
			l35.238,11.527c0.774,0.253,1.561,0.374,2.333,0.374c3.156,0,6.093-2.008,7.127-5.17c1.288-3.937-0.859-8.172-4.796-9.46
			l-49.185-16.09C355.616,282.122,347.925,274.043,338.833,267.563z M375.944,394.758v-37.317L497,398.997v37.317L375.944,394.758z"
			/>
		<path d="M445.197,192.668c0.701,0,1.415-0.099,2.122-0.308l24.395-7.187c3.974-1.17,6.246-5.341,5.075-9.314
			c-1.17-3.973-5.339-6.248-9.313-5.075l-24.395,7.187c-3.974,1.171-6.246,5.341-5.075,9.314
			C438.968,190.552,441.956,192.668,445.197,192.668z"/>
		<path d="M401.467,222.814c4.143,0,7.5-3.358,7.5-7.5v-0.088c0-4.142-3.357-7.456-7.5-7.456s-7.5,3.402-7.5,7.544
			S397.324,222.814,401.467,222.814z"/>
		<path d="M401.467,235.183c-4.143,0-7.5,3.402-7.5,7.544s3.357,7.5,7.5,7.5s7.5-3.358,7.5-7.5v-0.088
			C408.967,238.497,405.609,235.183,401.467,235.183z"/>
		<path d="M415.13,236.476h0.088c4.143,0,7.456-3.358,7.456-7.5s-3.401-7.5-7.544-7.5s-7.5,3.358-7.5,7.5
			S410.987,236.476,415.13,236.476z"/>
		<path d="M387.717,236.476h0.088c4.143,0,7.456-3.358,7.456-7.5s-3.401-7.5-7.544-7.5s-7.5,3.358-7.5,7.5
			S383.574,236.476,387.717,236.476z"/>
		<path d="M80.345,235.295c-4.143,0-7.5,3.402-7.5,7.544s3.357,7.5,7.5,7.5s7.5-3.358,7.5-7.5v-0.088
			C87.845,238.608,84.487,235.295,80.345,235.295z"/>
		<path d="M80.345,277.752c4.143,0,7.5-3.358,7.5-7.5v-0.088c0-4.142-3.357-7.456-7.5-7.456s-7.5,3.402-7.5,7.544
			S76.202,277.752,80.345,277.752z"/>
		<path d="M94.007,264.001h0.088c4.143,0,7.456-3.358,7.456-7.5s-3.401-7.5-7.544-7.5s-7.5,3.358-7.5,7.5
			S89.864,264.001,94.007,264.001z"/>
		<path d="M66.594,249.001c-4.143,0-7.5,3.358-7.5,7.5s3.357,7.5,7.5,7.5h0.088c4.143,0,7.456-3.358,7.456-7.5
			S70.736,249.001,66.594,249.001z"/>
		<path d="M221.035,191.592c-4.143,0-7.5,3.401-7.5,7.543s3.357,7.5,7.5,7.5s7.5-3.358,7.5-7.5v-0.086
			C228.535,194.906,225.178,191.592,221.035,191.592z"/>
		<path d="M290.965,206.635c4.143,0,7.5-3.358,7.5-7.5v-0.086c0-4.142-3.357-7.457-7.5-7.457s-7.5,3.401-7.5,7.543
			S286.822,206.635,290.965,206.635z"/>
		<path d="M277.611,220.477c-3.978-1.145-8.135,1.154-9.281,5.135c-1.573,5.47-6.644,9.29-12.33,9.29s-10.757-3.82-12.33-9.29
			c-1.146-3.98-5.302-6.276-9.281-5.135c-3.98,1.145-6.279,5.3-5.135,9.281c3.411,11.86,14.41,20.144,26.746,20.144
			s23.335-8.283,26.746-20.144C283.891,225.777,281.592,221.622,277.611,220.477z"/>
		<path d="M301.48,391.033v-15.542c0-8.412-5.985-15.646-14.232-17.2c-20.48-3.857-42.016-3.858-62.496,0
			c-8.247,1.554-14.232,8.787-14.232,17.199v15.542c0,5.292,2.355,10.238,6.462,13.572c3.159,2.564,7.039,3.921,11.021,3.921
			c1.209,0,2.428-0.125,3.638-0.379c15.816-3.321,32.903-3.321,48.718,0c5.199,1.092,10.543-0.199,14.66-3.542
			C299.125,401.271,301.48,396.325,301.48,391.033z M286.48,391.033c0,1.029-0.573,1.648-0.915,1.926
			c-0.35,0.283-1.088,0.724-2.124,0.508c-17.838-3.746-37.044-3.746-54.884,0c-1.029,0.218-1.773-0.225-2.123-0.508
			c-0.342-0.277-0.915-0.896-0.915-1.926v-15.542c0-1.205,0.846-2.239,2.01-2.458c9.327-1.757,18.906-2.648,28.471-2.648
			s19.144,0.891,28.471,2.647c1.164,0.22,2.01,1.254,2.01,2.459V391.033z"/>
		<path d="M255.998,467.001c-4.143,0-7.5,3.358-7.5,7.5v12.441c0,4.142,3.357,7.5,7.5,7.5s7.5-3.358,7.5-7.5v-12.441
			C263.498,470.359,260.141,467.001,255.998,467.001z"/>
	</g>
</g>
<g>
</g>
<g>
</g>
<g>
</g>
<g>
</g>
<g>
</g>
<g>
</g>
<g>
</g>
<g>
</g>
<g>
</g>
<g>
</g>
<g>
</g>
<g>
</g>
<g>
</g>
<g>
</g>
<g>
</g>
</svg>
