<?xml version="1.0" encoding="iso-8859-1"?>
<!-- Generator: Adobe Illustrator 23.0.3, SVG Export Plug-In . SVG Version: 6.00 Build 0)  -->
<svg version="1.1" id="Capa_1" xmlns="http://www.w3.org/2000/svg" xmlns:xlink="http://www.w3.org/1999/xlink" x="0px" y="0px"
	 viewBox="0 0 511.997 511.997" style="enable-background:new 0 0 511.997 511.997;" xml:space="preserve">
<g>
	<g>
		<g>
			<g>
				<path style="fill:#FFF5F5;" d="M462.385,82.875v218.847c0,5.461-4.287,9.921-9.686,10.197c-0.174,0.01-0.347,0.01-0.521,0.01
					H280.498c-5.634,0-10.207-4.573-10.207-10.207V82.875c0-5.634,4.573-10.207,10.207-10.207h171.681
					C457.813,72.668,462.385,77.241,462.385,82.875z"/>
				<path style="fill:#E0D3CE;" d="M462.385,82.875v218.847c0,5.461-4.287,9.921-9.686,10.197h-23.573
					c5.634,0,10.207-4.563,10.207-10.207V82.875c0-5.644-4.573-10.207-10.207-10.207h23.052
					C457.813,72.668,462.385,77.241,462.385,82.875z"/>
			</g>
		</g>
		<g>
			<path style="fill:#AC5E33;" d="M185.289,252.514H73.254c-30.6,0-53.417-28.202-47.029-58.127l20.081-94.069h165.93l20.081,94.069
				C238.706,224.312,215.889,252.514,185.289,252.514z"/>
		</g>
		<circle style="fill:#FFBC8A;" cx="216.035" cy="148.321" r="22.374"/>
		<circle style="fill:#FFBC8A;" cx="42.511" cy="148.321" r="22.374"/>
		<path style="fill:#1475CC;" d="M251.047,316.397v151.33c0,5.97-4.85,10.83-10.83,10.83H18.327c-5.98,0-10.83-4.86-10.83-10.83
			v-151.33c0-39.09,25.5-72.23,60.78-83.67c6.6-2.15,13.54-3.54,20.72-4.05c2.13-0.16,4.29-0.24,6.46-0.24h67.63
			c2.17,0,4.33,0.08,6.46,0.24c7.18,0.51,14.12,1.9,20.72,4.05C225.547,244.167,251.047,277.307,251.047,316.397z"/>
		<path style="fill:#0057A1;" d="M251.046,316.399v151.323c0,5.978-4.852,10.83-10.83,10.83h-15.682V316.399
			c0-48.582-39.377-87.959-87.959-87.959h26.511C211.669,228.441,251.046,267.817,251.046,316.399z"/>
		<path style="fill:#0057A1;" d="M208.677,289.747l-65.17,73.88l-14.24,16.92l-14.23-16.91l-65.17-73.89l18.41-57.02
			c6.6-2.15,13.54-3.54,20.72-4.05c2.13-0.16,4.29-0.24,6.46-0.24h67.63c2.17,0,4.33,0.08,6.46,0.24c7.18,0.51,14.12,1.9,20.72,4.05
			L208.677,289.747z"/>
		<path style="fill:#FFF5F5;" d="M169.547,228.677l-26.04,134.95l-8.862,34.713c-1.422,5.569-9.332,5.569-10.753-0.001
			l-8.855-34.703l-26.04-134.96c2.13-0.16,4.29-0.24,6.46-0.24h67.63C165.257,228.437,167.417,228.517,169.547,228.677z"/>
		<path style="fill:#FDD1A7;" d="M46.031,100.726l10.958,89.713c4.462,36.532,35.48,63.993,72.284,63.993l0,0
			c36.804,0,67.822-27.46,72.284-63.993l10.958-89.713H46.031z"/>
		<line style="fill:#F69583;" x1="179.878" y1="185.534" x2="179.878" y2="185.628"/>
		<path style="fill:#AC5E33;" d="M53.245,40.504C29.84,63.909,24.926,98.792,38.491,127.027
			c28.227,13.571,63.118,8.651,86.523-14.754c23.412-23.412,28.332-58.302,14.761-86.529C111.54,12.179,76.657,17.092,53.245,40.504
			z"/>
		<path style="fill:#C86D3D;" d="M205.301,40.504c23.405,23.405,28.318,58.288,14.754,86.523
			c-28.227,13.571-63.118,8.651-86.523-14.754c-18.75-18.75-25.639-44.861-20.669-69.016c2.415-11.735,11.685-21.003,23.42-23.418
			C160.442,14.869,186.551,21.753,205.301,40.504z"/>
		<path style="fill:#AC5E33;" d="M220.051,127.03c-6.519,3.13-13.386,5.285-20.392,6.444c15.346-26.262,13.949-60.311-6.108-85.544
			c-13.981-17.577-34.168-27.302-54.961-28.525c23.5-4.094,48.56,2.946,66.711,21.096C228.704,63.914,233.621,98.797,220.051,127.03
			z"/>
		<path style="fill:#F69583;" d="M81.917,200.023c-4.397,0-7.962-3.565-7.962-7.962c0-4.397,3.565-8.009,7.962-8.009
			c4.397,0,7.962,3.518,7.962,7.915v0.094C89.878,196.459,86.314,200.023,81.917,200.023z"/>
		<path style="fill:#F69583;" d="M176.63,200.023c-4.397,0-7.962-3.565-7.962-7.962c0-4.397,3.565-8.009,7.962-8.009
			s7.962,3.518,7.962,7.915v0.094C184.592,196.459,181.027,200.023,176.63,200.023z"/>
		<path style="fill:#C86D3D;" d="M240.139,357.015v124.789c0,6.589,5.342,11.931,11.931,11.931h228.535
			c6.589,0,11.931-5.342,11.931-11.931V357.015H240.139z"/>
		<path style="fill:#AC5E33;" d="M492.538,357.019v124.789c0,6.586-5.345,11.931-11.931,11.931h-24.745
			c6.586,0,11.931-5.345,11.931-11.931V357.019H492.538z"/>
		<path style="fill:#DB885D;" d="M480.879,364.275H251.796c-13.044,0-23.618-10.574-23.618-23.618v-29.809
			c0-6.589,5.342-11.931,11.931-11.931h252.457c6.589,0,11.931,5.342,11.931,11.931v29.809
			C504.497,353.701,493.923,364.275,480.879,364.275z"/>
		<path style="fill:#C86D3D;" d="M504.493,310.845v29.816c0,13.041-10.571,23.612-23.612,23.612h-24.745
			c13.041,0,23.624-10.571,23.624-23.612v-29.816c0-6.586-5.345-11.931-11.931-11.931h24.733
			C499.16,298.914,504.493,304.259,504.493,310.845z"/>
		<path style="fill:#FBCC85;" d="M367.531,411.961L367.531,411.961c-10.763,0-19.488-8.725-19.488-19.488v-36.948
			c0-4.669,3.785-8.453,8.453-8.453h22.069c4.669,0,8.453,3.785,8.453,8.453v36.948
			C387.018,403.236,378.293,411.961,367.531,411.961z"/>
		<path style="fill:#E8B76B;" d="M387.019,355.527v36.946c0,10.76-8.725,19.485-19.485,19.485c-3.553,0-6.883-0.951-9.748-2.612
			c5.83-3.371,9.748-9.667,9.748-16.874v-36.946c0-4.666-3.786-8.452-8.452-8.452h19.485
			C383.233,347.075,387.019,350.861,387.019,355.527z"/>
	</g>
	<g>
		<path d="M310.088,121.235h29.605c4.143,0,7.5-3.357,7.5-7.5s-3.357-7.5-7.5-7.5h-29.605c-4.143,0-7.5,3.357-7.5,7.5
			S305.945,121.235,310.088,121.235z"/>
		<path d="M310.088,156.429h84.645c4.143,0,7.5-3.357,7.5-7.5s-3.357-7.5-7.5-7.5h-84.645c-4.143,0-7.5,3.357-7.5,7.5
			S305.945,156.429,310.088,156.429z"/>
		<path d="M310.088,187.401h104.45c4.143,0,7.5-3.357,7.5-7.5s-3.357-7.5-7.5-7.5h-104.45c-4.143,0-7.5,3.357-7.5,7.5
			S305.945,187.401,310.088,187.401z"/>
		<path d="M91.407,159.036c-4.143,0-7.5,3.404-7.5,7.547s3.357,7.5,7.5,7.5s7.5-3.357,7.5-7.5v-0.094
			C98.907,162.347,95.55,159.036,91.407,159.036z"/>
		<path d="M167.14,159.036c-4.143,0-7.5,3.404-7.5,7.547s3.357,7.5,7.5,7.5s7.5-3.357,7.5-7.5v-0.094
			C174.64,162.347,171.282,159.036,167.14,159.036z"/>
		<path d="M152.506,190.294c-3.978-1.142-8.135,1.153-9.281,5.135c-1.78,6.189-7.518,10.512-13.951,10.512
			c-6.435,0-12.172-4.322-13.951-10.511c-1.145-3.981-5.306-6.281-9.28-5.136c-3.981,1.145-6.28,5.3-5.136,9.28
			c3.617,12.58,15.282,21.366,28.367,21.366c13.083,0,24.748-8.786,28.367-21.365C158.785,195.595,156.486,191.44,152.506,190.294z"
			/>
		<path d="M201.963,349.761c-4.143,0-7.5,3.357-7.5,7.5v121.291c0,4.143,3.357,7.5,7.5,7.5s7.5-3.357,7.5-7.5V357.261
			C209.463,353.118,206.105,349.761,201.963,349.761z"/>
		<path d="M56.58,349.761c-4.143,0-7.5,3.357-7.5,7.5v121.291c0,4.143,3.357,7.5,7.5,7.5s7.5-3.357,7.5-7.5V357.261
			C64.08,353.118,60.723,349.761,56.58,349.761z"/>
		<path d="M492.565,291.416h-22.682V82.875c0-9.763-7.943-17.706-17.707-17.706h-171.68c-9.764,0-17.707,7.943-17.707,17.706
			v121.922c0,4.143,3.357,7.5,7.5,7.5s7.5-3.357,7.5-7.5V82.875c0-1.492,1.215-2.706,2.707-2.706h171.68
			c1.492,0,2.707,1.214,2.707,2.706v208.541h-36.348v-19.368c0-9.136-7.433-16.568-16.569-16.568h-68.873
			c-9.136,0-16.568,7.433-16.568,16.568v19.368H277.79V240.55c0-4.143-3.357-7.5-7.5-7.5s-7.5,3.357-7.5,7.5v50.866h-7.548
			c-5.138-19.061-15.866-35.638-30.409-47.933c12.983-13.196,18.748-32.262,14.82-50.663l-4.587-21.488
			c6.62-5.484,10.844-13.763,10.844-23.011c0-11.172-6.189-21.167-15.678-26.287c10.64-30.015,3.255-63.951-19.626-86.834
			C190.71,15.306,162.36,6.817,134.773,12.492c-1.752,0.36-3.457,0.851-5.114,1.447C100.547,5.695,69.394,13.747,47.941,35.2
			c-22.887,22.888-30.271,56.837-19.618,86.859c-9.465,5.144-15.686,15.196-15.686,26.262c0,9.246,4.223,17.524,10.841,23.008
			l-4.588,21.491c-3.931,18.417,1.848,37.503,14.855,50.7C12.859,261.22,0,287.578,0,316.395v151.328
			c0,10.106,8.223,18.329,18.329,18.329c4.143,0,7.5-3.357,7.5-7.5s-3.357-7.5-7.5-7.5c-1.836,0-3.329-1.493-3.329-3.329V316.395
			c0-29.65,16.146-56.209,41.039-70.174l-13.309,41.222c-0.813,2.52-0.238,5.28,1.513,7.266l63.974,72.534l8.408,32.953
			c1.499,5.874,6.58,9.822,12.644,9.822c0,0,0,0,0.001,0c6.063,0,11.145-3.947,12.644-9.821l8.414-32.962l63.974-72.525
			c1.752-1.984,2.326-4.746,1.513-7.266l-13.277-41.122c17.331,9.849,30.774,26.01,37.047,45.123
			c-10.47,0.282-18.905,8.868-18.905,19.405v29.81c0,9.937,4.688,18.793,11.961,24.494v116.652c0,10.714,8.717,19.431,19.432,19.431
			h228.535c10.714,0,19.431-8.717,19.431-19.431V365.151c7.273-5.701,11.961-14.558,11.961-24.494v-29.81
			C511.997,300.133,503.28,291.416,492.565,291.416z M224.982,195.951c3.038,14.227-1.877,28.991-12.571,38.648
			c-5.241-3.147-10.818-5.813-16.681-7.933c6.982-10.271,11.678-22.268,13.272-35.317l1.666-13.641
			c1.757,0.319,3.547,0.488,5.367,0.488c1.726,0,3.416-0.156,5.063-0.438L224.982,195.951z M129.273,246.932
			c-32.968,0-60.843-24.678-64.841-57.401l-5.927-48.526c4.242,0.658,8.511,0.991,12.771,0.991
			c21.204-0.002,42.125-8.096,57.997-23.427c15.872,15.333,36.789,23.427,57.997,23.427c4.259,0,8.528-0.333,12.77-0.992
			l-5.927,48.527C190.116,222.254,162.241,246.932,129.273,246.932z M216.035,163.195c-1.211,0-2.392-0.155-3.542-0.436
			l3.146-25.757c2.023-0.734,4.029-1.549,6.011-2.449c5.535,2.25,9.259,7.651,9.259,13.768
			C230.909,156.523,224.236,163.195,216.035,163.195z M58.549,45.808c14.505-14.505,34.415-21.544,54.343-19.78
			c-2.751,3.479-4.922,7.453-6.323,11.803c-1.27,3.942,0.896,8.168,4.84,9.438c3.936,1.271,8.167-0.896,9.438-4.84
			c2.502-7.767,8.996-13.608,16.949-15.244c22.632-4.655,45.885,2.306,62.202,18.622c19.88,19.881,25.509,49.938,14.398,75.562
			c-25.618,11.117-55.674,5.487-75.56-14.399c-9.047-9.046-15.354-20.383-18.242-32.786c-0.939-4.035-4.975-6.543-9.006-5.604
			c-4.034,0.939-6.543,4.972-5.604,9.006c2.494,10.712,7.086,20.763,13.461,29.637c-19.886,19.677-49.786,25.216-75.297,14.146
			C33.039,95.743,38.669,65.687,58.549,45.808z M36.895,134.553c1.982,0.9,3.988,1.715,6.011,2.45l3.147,25.768
			c-1.147,0.28-2.33,0.425-3.542,0.425c-8.201,0-14.874-6.673-14.874-14.874C27.638,142.261,31.377,136.81,36.895,134.553z
			 M33.561,195.951l3.884-18.194c1.648,0.283,3.339,0.438,5.067,0.438c1.8,0,3.598-0.168,5.366-0.49l1.666,13.644
			c1.594,13.054,6.294,25.055,13.28,35.328c-5.87,2.127-11.452,4.785-16.679,7.934C35.442,224.955,30.522,210.184,33.561,195.951z
			 M73.896,239.736c3.497,3.33,7.291,6.342,11.334,8.999l17.23,89.302l-44.143-50.049L73.896,239.736z M129.269,389.079
			l-27.132-131.893c8.508,3.064,17.646,4.746,27.137,4.746c9.489,0,18.627-1.681,27.134-4.745L129.269,389.079z M156.084,338.032
			l17.23-89.294c4.043-2.658,7.837-5.669,11.335-9l15.578,48.25L156.084,338.032z M331.525,272.048c0-0.865,0.703-1.568,1.568-1.568
			h68.873c0.865,0,1.569,0.703,1.569,1.568v19.368h-72.011V272.048z M485.036,481.804c0,2.443-1.987,4.431-4.431,4.431H252.07
			c-2.443,0-4.432-1.987-4.432-4.431V371.489c1.361,0.183,2.747,0.286,4.157,0.286h88.747v20.698
			c0,14.882,12.106,26.988,26.987,26.988c14.882,0,26.988-12.106,26.988-26.988v-20.698h13.936c4.143,0,7.5-3.357,7.5-7.5
			s-3.357-7.5-7.5-7.5h-13.936v-1.249c0-8.797-7.157-15.953-15.954-15.953h-22.068c-8.797,0-15.953,7.156-15.953,15.953v1.249
			h-88.747c-8.888,0-16.118-7.23-16.118-16.117v-29.81c0-2.443,1.988-4.432,4.432-4.432h252.456c2.443,0,4.432,1.988,4.432,4.432
			v29.81c0,8.887-7.23,16.117-16.118,16.117h-36.672c-4.143,0-7.5,3.357-7.5,7.5s3.357,7.5,7.5,7.5h36.672
			c1.41,0,2.796-0.103,4.157-0.286V481.804z M355.543,392.473v-36.947c0-0.525,0.428-0.953,0.953-0.953h22.068
			c0.526,0,0.954,0.428,0.954,0.953v36.947c0,6.61-5.378,11.988-11.988,11.988C360.921,404.461,355.543,399.083,355.543,392.473z"/>
	</g>
</g>
<g>
</g>
<g>
</g>
<g>
</g>
<g>
</g>
<g>
</g>
<g>
</g>
<g>
</g>
<g>
</g>
<g>
</g>
<g>
</g>
<g>
</g>
<g>
</g>
<g>
</g>
<g>
</g>
<g>
</g>
</svg>
