<?xml version="1.0" encoding="iso-8859-1"?>
<!-- Generator: Adobe Illustrator 23.0.3, SVG Export Plug-In . SVG Version: 6.00 Build 0)  -->
<svg version="1.1" id="Capa_1" xmlns="http://www.w3.org/2000/svg" xmlns:xlink="http://www.w3.org/1999/xlink" x="0px" y="0px"
	 viewBox="0 0 512 512" style="enable-background:new 0 0 512 512;" xml:space="preserve">
<g>
	<g>
		<g>
			<path style="fill:#52CC61;" d="M157.319,457.705H18.605c-6.133,0-11.105-4.972-11.105-11.105V281.082
				c0-6.133,4.972-11.105,11.105-11.105h138.714c6.133,0,11.105,4.972,11.105,11.105V446.6
				C168.424,452.733,163.452,457.705,157.319,457.705z"/>
			<path style="fill:#00B232;" d="M168.428,281.079v165.522c0,6.13-4.975,11.105-11.105,11.105h-48.002
				c6.13,0,11.105-4.975,11.105-11.105V281.079c0-6.13-4.975-11.105-11.105-11.105h48.002
				C163.453,269.974,168.428,274.949,168.428,281.079z"/>
			<rect x="42.738" y="302.488" style="fill:#FFF5F5;" width="32.595" height="125.161"/>
		</g>
		<g>
			<path style="fill:#E84649;" d="M114.99,238.956H32.465c-4.3,0-7.785-3.486-7.785-7.785V115.132c0-4.3,3.486-7.785,7.785-7.785
				h82.525c4.3,0,7.785,3.486,7.785,7.785v116.039C122.775,235.47,119.29,238.956,114.99,238.956z"/>
			<path style="fill:#D73337;" d="M122.778,115.13v116.041c0,4.298-3.488,7.785-7.785,7.785H95.864c4.298,0,7.785-3.488,7.785-7.785
				V115.13c0-4.298-3.488-7.785-7.785-7.785h19.129C119.29,107.345,122.778,110.833,122.778,115.13z"/>
			<rect x="51.487" y="134.346" style="fill:#FFF5F5;" width="47.491" height="24.686"/>
		</g>
		<g>
			<g>
				<path style="fill:#65BAFC;" d="M317.63,457.706h166.768c11.102,0,20.101-9,20.101-20.101v-52.893
					c0-11.102-9-20.101-20.101-20.101H317.63c-5.523,0-10,4.477-10,10v73.096C307.63,453.229,312.108,457.706,317.63,457.706z"/>
				<path style="fill:#0097FA;" d="M504.5,384.71v52.89c0,11.11-9,20.11-20.1,20.11h-20.76c11.1,0,20.1-9,20.1-20.11v-52.89
					c0-11.1-9-20.1-20.1-20.1h20.76C495.5,364.61,504.5,373.61,504.5,384.71z"/>
				<path style="fill:#FFF5F5;" d="M317.63,431.279h158.728v-40.242H317.63c-5.523,0-10,4.477-10,10v20.242
					C307.63,426.802,312.108,431.279,317.63,431.279z"/>
			</g>
			<g>
				<path style="fill:#E84649;" d="M494.5,364.61H327.732c-11.102,0-20.101-9-20.101-20.101v-52.893
					c0-11.102,9-20.101,20.101-20.101H494.5c5.523,0,10,4.477,10,10v73.096C504.5,360.133,500.023,364.61,494.5,364.61z"/>
				<path style="fill:#D73337;" d="M504.5,281.51v73.1c0,5.52-4.48,10-10,10h-20.76c5.52,0,10-4.48,10-10v-73.1
					c0-5.52-4.48-10-10-10h20.76C500.02,271.51,504.5,275.99,504.5,281.51z"/>
				<path style="fill:#FFF5F5;" d="M504.5,307.94v20.24c0,5.53-4.48,10-10,10H335.77v-40.24H494.5
					C500.02,297.94,504.5,302.42,504.5,307.94z"/>
				<path style="fill:#E0D3CE;" d="M504.5,307.94v20.24c0,5.53-4.48,10-10,10h-10.76v-40.24h10.76
					C500.02,297.94,504.5,302.42,504.5,307.94z"/>
			</g>
			<g>
				<path style="fill:#FF9846;" d="M317.63,271.515h166.768c11.102,0,20.101-9,20.101-20.101V198.52
					c0-11.102-9-20.101-20.101-20.101H317.63c-5.523,0-10,4.477-10,10v73.096C307.63,267.038,312.108,271.515,317.63,271.515z"/>
				<path style="fill:#F36717;" d="M504.5,198.52v52.89c0,11.11-9,20.1-20.1,20.1h-20.76c11.1,0,20.1-8.99,20.1-20.1v-52.89
					c0-11.1-9-20.1-20.1-20.1h20.76C495.5,178.42,504.5,187.42,504.5,198.52z"/>
				<path style="fill:#FFF5F5;" d="M317.63,245.088h158.728v-40.242H317.63c-5.523,0-10,4.477-10,10v20.242
					C307.63,240.611,312.108,245.088,317.63,245.088z"/>
			</g>
			<g>
				<path style="fill:#8EC737;" d="M317.63,178.419h166.768c11.102,0,20.101-9,20.101-20.101v-52.893
					c0-11.102-9-20.101-20.101-20.101H317.63c-5.523,0-10,4.477-10,10v73.096C307.63,173.942,312.108,178.419,317.63,178.419z"/>
				<path style="fill:#7AA82D;" d="M504.5,105.42v52.9c0,11.1-9,20.1-20.1,20.1h-20.76c11.1,0,20.1-9,20.1-20.1v-52.9
					c0-11.1-9-20.1-20.1-20.1h20.76C495.5,85.32,504.5,94.32,504.5,105.42z"/>
				<path style="fill:#FFF5F5;" d="M317.63,151.992h158.728V111.75H317.63c-5.523,0-10,4.477-10,10v20.242
					C307.63,147.515,312.108,151.992,317.63,151.992z"/>
			</g>
		</g>
		<g>
			<g>
				<path style="fill:#C99D5C;" d="M294.347,70.214c0,0,53.791-1.427,53.791,66.414v91.427c0,14.961-12.129,27.09-27.09,27.09
					h-58.229V70.214H294.347z"/>
			</g>
			<path style="fill:#C99D5C;" d="M207.454,70.214c0,0-53.791-1.427-53.791,66.414v91.427c0,14.961,12.129,27.09,27.09,27.09h43.154
				V70.214H207.454z"/>
			<path style="fill:#A4E540;" d="M364.742,325.219v140.436c0,5.548-4.503,10.051-10.051,10.051H148.765
				c-5.548,0-10.051-4.503-10.051-10.051V325.219c0-45.087,36.544-81.631,81.631-81.631h62.766
				C328.198,243.589,364.742,280.132,364.742,325.219z"/>
			<path style="fill:#FDD1A7;" d="M138.717,391.593v74.062c0,5.548,4.503,10.051,10.051,10.051h35.649v-84.113H138.717z"/>
			<path style="fill:#8EC737;" d="M364.742,325.219v140.436c0,5.548-4.503,10.051-10.051,10.051h-11.769V325.219
				c0-45.087-36.544-81.631-81.631-81.631h21.82C328.198,243.589,364.742,280.132,364.742,325.219z"/>
			<path style="fill:#FDD1A7;" d="M364.742,391.593v74.062c0,5.548-4.503,10.051-10.051,10.051h-35.649v-84.113H364.742z"/>
			<path style="fill:#FFBC8A;" d="M364.742,391.593v74.062c0,5.548-4.503,10.051-10.051,10.051h-11.769v-84.113H364.742z"/>
			<g>
				<circle style="fill:#FFBC8A;" cx="332.249" cy="173.105" r="20.764"/>
			</g>
			<g>
				<circle style="fill:#FFBC8A;" cx="171.21" cy="173.105" r="20.764"/>
			</g>
			<path style="fill:#FDD1A7;" d="M206.48,122.904c-17.01,0-30.186,14.883-28.124,31.768l6.289,51.491
				c4.141,33.904,32.928,59.389,67.084,59.389l0,0c34.156,0,62.943-25.485,67.084-59.389l6.289-51.491
				c2.062-16.884-11.114-31.768-28.123-31.768H206.48z"/>
			<g>
				<g>
					<circle style="fill:#DAEDFF;" cx="206.373" cy="183.872" r="34.546"/>
					<circle style="fill:#DAEDFF;" cx="297.084" cy="183.872" r="34.546"/>
				</g>
			</g>
			<g>
				<line style="fill:#F69583;" x1="298.694" y1="201.611" x2="298.694" y2="201.697"/>
			</g>
			<path style="fill:#FAC574;" d="M251.953,129.049h-92.752c-5.551,0-10.051-4.5-10.051-10.051v-11.866
				c0-39.123,31.715-70.838,70.838-70.838h72.206c14.501,0,26.256,11.755,26.256,26.256v0
				C318.451,99.276,288.679,129.049,251.953,129.049z"/>
			<path style="fill:#E8B76B;" d="M318.45,62.55c0,18.37-7.44,34.99-19.48,47.02c-12.03,12.04-28.65,19.48-47.02,19.48h-20.91
				c18.36,0,34.98-7.44,47.02-19.48c12.03-12.03,19.47-28.65,19.47-47.02c0-14.5-11.75-26.26-26.25-26.26h20.92
				C306.7,36.29,318.45,48.05,318.45,62.55z"/>
			<rect x="184.417" y="427.778" style="fill:#AC5E33;" width="134.625" height="47.928"/>
		</g>
	</g>
	<g>
		<path d="M75.333,435.149c4.142,0,7.5-3.358,7.5-7.5V302.488c0-4.142-3.358-7.5-7.5-7.5H42.738c-4.142,0-7.5,3.358-7.5,7.5v125.161
			c0,4.142,3.358,7.5,7.5,7.5H75.333z M50.238,309.988h17.595v110.161H50.238V309.988z"/>
		<path d="M32.465,246.456h82.525c8.429,0,15.286-6.857,15.286-15.285V115.132c0-8.429-6.857-15.286-15.286-15.286H32.465
			c-8.429,0-15.286,6.857-15.286,15.286v116.039C17.179,239.599,24.036,246.456,32.465,246.456z M32.179,115.132
			c0-0.158,0.128-0.286,0.286-0.286h82.525c0.158,0,0.286,0.128,0.286,0.286v116.039c0,0.157-0.128,0.285-0.286,0.285H32.465
			c-0.158,0-0.286-0.128-0.286-0.285V115.132z"/>
		<path d="M51.487,166.531h47.491c4.142,0,7.5-3.358,7.5-7.5v-24.686c0-4.142-3.358-7.5-7.5-7.5H51.487c-4.142,0-7.5,3.358-7.5,7.5
			v24.686C43.987,163.173,47.345,166.531,51.487,166.531z M58.987,141.846h32.491v9.686H58.987V141.846z"/>
		<path d="M512,158.318v-52.894c0-15.219-12.382-27.601-27.601-27.601H333.601c-2.725-2.427-5.51-4.441-8.238-6.108
			c0.373-3.005,0.588-6.059,0.588-9.164c0-18.614-15.143-33.757-33.756-33.757h-72.206c-9.732,0-19.265,1.785-28.332,5.304
			c-3.861,1.499-5.777,5.844-4.278,9.706s5.844,5.776,9.706,4.278c7.33-2.845,15.035-4.288,22.904-4.288h72.206
			c10.342,0,18.756,8.414,18.756,18.757c0,32.532-26.466,58.998-58.998,58.998h-92.752c-1.406,0-2.55-1.144-2.55-2.551v-11.866
			c0-14.548,5.061-28.76,14.25-40.018c2.619-3.208,2.142-7.933-1.067-10.553c-3.208-2.619-7.933-2.142-10.553,1.067
			c-11.369,13.927-17.63,31.508-17.63,49.503v11.866c0,4.577,1.776,8.737,4.656,11.865c-0.085,1.893-0.143,3.813-0.143,5.765v23.405
			c-2.051,3.913-3.217,8.358-3.217,13.073s1.167,9.161,3.217,13.073v41.875c0,12.186,6.449,23.198,16.354,29.38
			c-1.881,1.603-3.697,3.285-5.443,5.042H18.605C8.346,262.477,0,270.823,0,281.082v29.042c0,4.142,3.358,7.5,7.5,7.5
			s7.5-3.358,7.5-7.5v-29.042c0-1.988,1.617-3.605,3.605-3.605h126.496c-8.995,14.198-13.884,30.816-13.884,47.738v124.991H18.605
			c-1.988,0-3.605-1.617-3.605-3.605V345.876c0-4.142-3.358-7.5-7.5-7.5s-7.5,3.358-7.5,7.5V446.6
			c0,10.259,8.346,18.605,18.605,18.605h112.612v0.45c0,9.678,7.873,17.551,17.551,17.551c4.142,0,7.5-3.358,7.5-7.5
			s-3.358-7.5-7.5-7.5c-1.407,0-2.551-1.144-2.551-2.551v-66.563h30.695v76.613c0,4.142,3.358,7.5,7.5,7.5c0.001,0,0.002,0,0.002,0
			s0.002,0,0.002,0c4.142,0,7.5-3.358,7.5-7.5v-40.428h119.625v40.428c0,4.142,3.358,7.5,7.5,7.5c0.001,0,0.002,0,0.003,0
			s0.002,0,0.003,0c4.142,0,7.5-3.358,7.5-7.5v-76.613h30.695v66.563c0,1.407-1.144,2.551-2.551,2.551c-4.142,0-7.5,3.358-7.5,7.5
			s3.358,7.5,7.5,7.5c9.678,0,17.551-7.873,17.551-17.551v-0.449h112.157c15.219,0,27.601-12.382,27.601-27.601v-52.894
			c0-6.423-2.211-12.335-5.904-17.03c3.612-3.208,5.904-7.871,5.904-13.071v-26.427v-20.242v-26.427c0-5.2-2.292-9.863-5.904-13.071
			c3.693-4.695,5.904-10.607,5.904-17.03V198.52c0-7.918-3.357-15.063-8.716-20.101C508.643,173.381,512,166.236,512,158.318z
			 M494.5,357.11h-10.101H372.242v-11.427H494.5c0.851,0,1.681-0.082,2.5-0.2v9.126C497,355.989,495.878,357.11,494.5,357.11z
			 M372.242,398.537h96.616v25.242h-96.616V398.537z M497,328.184c0,1.378-1.122,2.5-2.5,2.5H372.242v-5.469
			c0-6.682-0.775-13.314-2.249-19.772H494.5c1.378,0,2.5,1.122,2.5,2.5V328.184z M313.039,241.263
			c5.463-7.738,9.457-16.481,11.68-25.742c4.504-3.938,8.159-8.816,10.662-14.328c1.808-0.2,3.566-0.567,5.256-1.093v27.955
			c0,8.971-6.17,16.804-14.782,18.978C321.744,244.778,317.46,242.844,313.039,241.263z M198.091,225.095
			c2.679,0.537,5.447,0.823,8.281,0.823c7.575,0,14.683-2.024,20.828-5.544c4.817,8.834,14.197,14.635,24.529,14.635
			c10.332,0,19.711-5.8,24.529-14.634c6.145,3.519,13.251,5.543,20.826,5.543c2.813,0,5.56-0.283,8.22-0.812
			c-10.076,19.716-30.732,32.945-53.574,32.945C228.555,258.052,208.098,245.018,198.091,225.095z M161.163,136.627
			c0-0.026,0.001-0.052,0.001-0.079h12.614c-1.193,2.646-2.06,5.425-2.573,8.292c-3.536,0.001-6.919,0.66-10.042,1.852V136.627z
			 M255.062,184.839c0.218,9.575,3.646,18.366,9.256,25.34c-0.055,0.154-0.114,0.306-0.16,0.466
			c-1.585,5.514-6.697,9.364-12.429,9.364s-10.843-3.851-12.429-9.364c-0.046-0.16-0.105-0.313-0.161-0.468
			c5.609-6.973,9.036-15.764,9.254-25.337H255.062z M332.25,159.841c7.314,0,13.264,5.951,13.264,13.265
			c0,4.799-2.57,8.998-6.398,11.327c0.002-0.187,0.014-0.372,0.014-0.56c0-8.682-2.646-16.758-7.172-23.464l0.068-0.553
			C332.101,159.854,332.174,159.841,332.25,159.841z M324.13,183.872c0,14.914-12.133,27.046-27.046,27.046
			s-27.046-12.133-27.046-27.046s12.133-27.046,27.046-27.046S324.13,168.958,324.13,183.872z M206.373,210.918
			c-14.914,0-27.046-12.133-27.046-27.046s12.133-27.046,27.046-27.046s27.046,12.133,27.046,27.046
			S221.286,210.918,206.373,210.918z M157.946,173.105c0-7.314,5.95-13.265,13.264-13.265c0.075,0,0.148,0.007,0.223,0.008
			l0.068,0.556c-4.528,6.707-7.175,14.784-7.175,23.467c0,0.187,0.012,0.372,0.014,0.558
			C160.515,182.101,157.946,177.903,157.946,173.105z M355.638,212.346h113.22v25.242H354.282c0.88-3.046,1.357-6.246,1.357-9.534
			V212.346z M354.385,119.25h114.474v25.242h-113.22v-7.865C355.638,130.303,355.191,124.529,354.385,119.25z M321.661,87.355
			c12.599,9.85,18.977,26.385,18.977,49.272v9.484c-2.651-0.826-5.469-1.271-8.389-1.271c-0.009,0-0.017,0.001-0.026,0.001
			c-1.159-6.382-4.03-12.404-8.415-17.357c-5.425-6.127-12.751-10.161-20.7-11.543C311.337,108.055,317.755,98.301,321.661,87.355z
			 M281.575,130.341c0.304,0.037,0.611,0.063,0.925,0.063h14.479c5.961,0,11.646,2.56,15.598,7.023
			c2.446,2.763,4.085,6.097,4.809,9.64c-6.023-3.336-12.944-5.242-20.303-5.242c-18.265,0-33.839,11.71-39.63,28.014h-11.452
			c-5.791-16.304-21.365-28.014-39.63-28.014c-7.363,0-14.286,1.908-20.312,5.247c0.794-3.936,2.727-7.579,5.656-10.524h60.236
			C262.483,136.549,272.498,134.323,281.575,130.341z M176.797,247.246c-9.059-1.854-15.634-9.925-15.634-19.192v-28.536
			c2.188,0.835,4.504,1.406,6.911,1.674c2.501,5.508,6.152,10.382,10.65,14.318c2.274,9.498,6.263,18.193,11.6,25.787
			c-4.574,1.642-9.004,3.66-13.245,6.023C176.985,247.296,176.893,247.266,176.797,247.246z M319.047,355.641
			c-4.142,0-7.5,3.358-7.5,7.5v57.138H191.912v-57.138c0-4.142-3.358-7.5-7.5-7.5s-7.5,3.358-7.5,7.5v20.952h-30.695v-58.878
			c0-17.069,5.638-33.108,16.303-46.385c9.881-12.299,23.547-21.19,38.673-25.232c13.43,12.206,31.227,19.455,50.536,19.455
			c17.08,0,33.807-5.898,47.099-16.609c1.144-0.922,2.248-1.888,3.332-2.873c15.167,4.028,28.873,12.929,38.776,25.255
			c10.667,13.277,16.306,29.318,16.306,46.389v58.878h-30.695v-20.952C326.547,358.999,323.189,355.641,319.047,355.641z
			 M497,437.605c0,6.948-5.653,12.601-12.601,12.601H372.242v-11.427h104.116c4.142,0,7.5-3.358,7.5-7.5v-40.242
			c0-4.142-3.358-7.5-7.5-7.5H372.242V372.11h112.157c6.948,0,12.601,5.653,12.601,12.601V437.605z M497,198.52v52.894
			c0,6.948-5.653,12.601-12.601,12.601h-61.522c-4.142,0-7.5,3.358-7.5,7.5s3.358,7.5,7.5,7.5h61.522H494.5
			c1.378,0,2.5,1.122,2.5,2.5v9.127c-0.819-0.118-1.649-0.2-2.5-0.2H365.147c-1.666-3.937-3.603-7.761-5.822-11.427h27.799
			c4.142,0,7.5-3.358,7.5-7.5s-3.358-7.5-7.5-7.5h-39.226c-2.415-2.551-4.98-4.947-7.668-7.189c1.859-1.246,3.582-2.67,5.158-4.238
			h130.971c4.142,0,7.5-3.358,7.5-7.5v-40.242c0-4.142-3.358-7.5-7.5-7.5h-120.72v-8.39c0.659-0.97,1.255-1.986,1.791-3.037h126.969
			C491.347,185.919,497,191.572,497,198.52z M360.421,170.919c-0.317-4.116-1.513-7.989-3.411-11.427h119.348
			c4.142,0,7.5-3.358,7.5-7.5V111.75c0-4.142-3.358-7.5-7.5-7.5H350.741c-1.461-4.234-3.19-8.029-5.113-11.427h138.771
			c6.948,0,12.601,5.653,12.601,12.601v52.894c0,6.948-5.653,12.601-12.601,12.601H360.421z"/>
		<path d="M216.588,176.479c-4.142,0-7.5,3.401-7.5,7.543s3.358,7.5,7.5,7.5s7.5-3.358,7.5-7.5v-0.087
			C224.088,179.794,220.73,176.479,216.588,176.479z"/>
		<path d="M286.872,176.479c-4.142,0-7.5,3.401-7.5,7.543s3.358,7.5,7.5,7.5s7.5-3.358,7.5-7.5v-0.087
			C294.372,179.794,291.014,176.479,286.872,176.479z"/>
	</g>
</g>
<g>
</g>
<g>
</g>
<g>
</g>
<g>
</g>
<g>
</g>
<g>
</g>
<g>
</g>
<g>
</g>
<g>
</g>
<g>
</g>
<g>
</g>
<g>
</g>
<g>
</g>
<g>
</g>
<g>
</g>
</svg>
