<?xml version="1.0" encoding="iso-8859-1"?>
<!-- Generator: Adobe Illustrator 23.0.3, SVG Export Plug-In . SVG Version: 6.00 Build 0)  -->
<svg version="1.1" id="Capa_1" xmlns="http://www.w3.org/2000/svg" xmlns:xlink="http://www.w3.org/1999/xlink" x="0px" y="0px"
	 viewBox="0 0 511.997 511.997" style="enable-background:new 0 0 511.997 511.997;" xml:space="preserve">
<g>
	<g>
		<g>
			<g>
				<path style="fill:#C86D3D;" d="M393.134,23.988v374.34c0,8.807-7.14,15.947-15.947,15.947h0c-8.807,0-15.947-7.14-15.947-15.947
					V23.988c0-2.761,2.239-5,5-5h21.895C390.896,18.988,393.134,21.227,393.134,23.988z"/>
				<path style="fill:#904D29;" d="M393.138,23.992v373.872c0,8.717-6.799,16.169-15.512,16.402
					c-3.064,0.082-5.951-0.702-8.405-2.13c4.765-2.76,7.969-7.909,7.969-13.802V18.992h10.948
					C390.899,18.992,393.138,21.231,393.138,23.992z"/>
			</g>
			<g>
				<path style="fill:#E84649;" d="M460.262,178.171c3.918,4.501,11.284,2.978,13.046-2.724
					c7.674-24.837,11.944-52.347,11.944-81.299s-4.27-56.462-11.944-81.299c-1.762-5.702-9.128-7.225-13.046-2.724l0,0
					c-19.68,22.609-48.185,35.589-78.16,35.589h-25.976c-8.427,0-15.259,6.832-15.259,15.259v66.349
					c0,8.427,6.832,15.259,15.259,15.259h25.976C412.076,142.582,440.582,155.561,460.262,178.171L460.262,178.171z"/>
				<path style="fill:#FFF5F5;" d="M485.255,94.143c0,28.957-4.268,56.468-11.942,81.309c-1.761,5.703-9.131,7.219-13.05,2.717
					c-4.945-5.679-10.449-10.752-16.397-15.172c5.458-21.47,8.443-44.654,8.443-68.853s-2.985-47.383-8.455-68.853
					c5.948-4.397,11.464-9.481,16.409-15.161c3.918-4.502,11.289-2.986,13.05,2.717C480.986,37.686,485.255,65.197,485.255,94.143z"
					/>
			</g>
		</g>
		<g>
			<g>
				<path style="fill:#AC5E33;" d="M301.213,282.278v109.865c0,21.387,29.719,38.725,66.379,38.725
					c36.66,0,66.379-17.338,66.379-38.725V282.278H301.213z"/>
				<path style="fill:#904D29;" d="M433.975,282.279v109.864c0,21.388-29.72,38.727-66.382,38.727c-2.67,0-5.299-0.091-7.888-0.272
					c32.944-2.277,58.483-18.628,58.483-38.455V282.279H433.975z"/>
				<ellipse style="fill:#FCD79F;" cx="367.592" cy="282.278" rx="66.379" ry="38.725"/>
			</g>
			<g>
				<path style="fill:#AC5E33;" d="M340.759,392.174v73.596c0,21.387,29.719,38.725,66.379,38.725
					c36.66,0,66.379-17.338,66.379-38.725v-73.596H340.759z"/>
				<path style="fill:#904D29;" d="M473.522,392.174v73.595c0,21.388-29.72,38.727-66.382,38.727c-2.67,0-5.299-0.091-7.888-0.272
					c32.944-2.277,58.483-18.628,58.483-38.455v-73.595H473.522z"/>
				<ellipse style="fill:#FCD79F;" cx="407.138" cy="392.174" rx="66.379" ry="38.725"/>
			</g>
			<g>
				<path style="fill:#D77F4F;" d="M347.548,315.619v178.535c0,5.715-4.625,10.339-10.328,10.339H37.077
					c-5.704,0-10.328-4.625-10.328-10.339V315.619c0-35.126,21.163-65.318,51.433-78.521c10.461-4.57,22.033-7.091,34.179-7.091
					h149.576c4.68,0,9.272,0.363,13.742,1.101c7.157,1.145,13.995,3.182,20.437,5.99c0.033,0.011,0.055,0.022,0.077,0.044
					C326.429,250.345,347.548,280.527,347.548,315.619z"/>
				<g>
					<path style="fill:#FFBC8A;" d="M86.099,430.499v73.995H37.077c-5.704,0-10.328-4.625-10.328-10.339v-63.656H86.099z"/>
				</g>
				<path style="fill:#C86D3D;" d="M347.548,315.63v178.524c0,5.715-4.625,10.339-10.328,10.339h-23.828
					c5.715,0,10.34-4.625,10.34-10.328V315.63c0-35.126-21.163-65.329-51.433-78.521c-6.442-2.819-13.28-4.856-20.437-6.001
					c-4.471-0.727-9.073-1.101-13.753-1.101h23.817c4.691,0,9.283,0.374,13.764,1.101c7.146,1.145,13.984,3.182,20.426,6.001
					C326.385,250.301,347.548,280.505,347.548,315.63z"/>
				<path style="fill:#FFBC8A;" d="M288.198,430.499v73.995h49.022c5.704,0,10.328-4.625,10.328-10.339v-63.656H288.198z"/>
				<path style="fill:#F5A871;" d="M347.548,430.499v63.656c0,5.715-4.625,10.339-10.328,10.339h-23.828
					c5.715,0,10.34-4.625,10.34-10.328v-63.667H347.548z"/>
				<g>
					<circle style="fill:#F5A871;" cx="292.266" cy="148.153" r="23.91"/>
					<circle style="fill:#F5A871;" cx="82.03" cy="148.153" r="23.91"/>
					<path style="fill:#FFBC8A;" d="M187.148,280.127L187.148,280.127c-48.642,0-88.769-38.082-91.312-86.657l-3.051-74.535
						c-1.719-41.998,31.864-76.985,73.898-76.985h40.929c42.034,0,75.617,34.986,73.898,76.985l-3.051,74.535
						C275.917,242.045,235.789,280.127,187.148,280.127z"/>
					<path style="fill:#E84649;" d="M278.551,194.997l-49.378,14.277c-6.682,1.932-13.928,1.015-19.761-2.773
						c-6.302-4.093-13.978-6.496-22.263-6.496c-8.284,0-15.96,2.403-22.263,6.496c-5.833,3.788-13.079,4.705-19.761,2.773
						l-49.378-14.277c-0.543,10.41-2.565,71.641,23.133,97.339h8.601c0,0,9.567,36.447,59.668,54.615
						c50.101-18.168,59.668-54.615,59.668-54.615h8.601C281.116,266.638,279.093,205.407,278.551,194.997z"/>
					<path style="fill:#D73337;" d="M255.418,292.336h-8.6c0,0-9.569,36.447-59.67,54.616c-6.805-2.466-12.861-5.274-18.246-8.28
						c38.88-14.258,53.157-39.529,57.53-49.853c1.182-2.79,3.929-4.586,6.959-4.586l0,0c2.162,0,4.248-0.899,5.658-2.537
						c17.921-20.817,20.867-59.932,21.036-81.358l18.466-5.34C279.092,205.403,281.118,266.636,255.418,292.336z"/>
					<g>
						<path style="fill:#E84649;" d="M84.182,89.015v9.541c0,19.106,15.489,34.595,34.595,34.595h29.233
							c3.041,0,5.506-2.465,5.506-5.506v-21.628c3.413,15.518,17.236,27.133,33.779,27.133h29.233c3.041,0,5.506-2.465,5.506-5.506
							v-21.628c3.413,15.518,17.236,27.133,33.779,27.133h29.233c3.041,0,5.506-2.465,5.506-5.506v-38.63
							c0-34.41-27.895-62.306-62.306-62.306h-81.757C112.078,26.71,84.182,54.605,84.182,89.015z"/>
						<path style="fill:#D73337;" d="M290.554,89.015v38.627c0,3.039-2.466,5.506-5.506,5.506H262.85
							c3.039,0,5.506-2.466,5.506-5.506V89.015c0-34.41-27.891-62.301-62.301-62.301h22.188
							C262.652,26.713,290.554,54.605,290.554,89.015z"/>
					</g>
				</g>
			</g>
		</g>
	</g>
	<g>
		<path d="M480.474,10.635c-1.615-5.225-5.946-9.175-11.305-10.307c-5.378-1.137-10.958,0.731-14.564,4.873
			c-14.142,16.248-33.182,27.123-53.97,31.206V23.988c0-6.893-5.607-12.5-12.5-12.5H366.24c-6.893,0-12.5,5.607-12.5,12.5v14.351
			c-11.432,1.197-20.373,10.89-20.373,22.633v66.35c0,11.743,8.941,21.436,20.373,22.633v86.901
			c-11.226,1.305-21.807,4.189-30.891,8.448c-10.539-9.179-23.19-16.06-37.236-19.749c1.076-14.446,0.67-26.297,0.428-30.949
			c-0.014-0.274-0.045-0.546-0.089-0.814c0-0.006,0.001-0.011,0.002-0.017l0.603-14.734c1.866,0.342,3.771,0.52,5.709,0.52
			c17.319,0,31.41-14.09,31.41-31.41c0-15.343-11.06-28.143-25.625-30.867V89.015c0-38.491-31.314-69.806-69.806-69.806h-81.757
			c-38.491,0-69.806,31.315-69.806,69.806v9.541c0,6.522,1.491,12.702,4.15,18.217c-16.766,0.632-30.213,14.461-30.213,31.379
			c0,17.319,14.09,31.41,31.41,31.41c1.938,0,3.843-0.178,5.709-0.52l0.603,14.734c0,0.008,0.002,0.016,0.002,0.025
			c-0.043,0.266-0.074,0.535-0.088,0.807c-0.242,4.652-0.649,16.502,0.427,30.946c-14.579,3.828-28.051,11.171-39.259,21.456
			c-3.052,2.801-3.255,7.545-0.455,10.597c1.479,1.611,3.5,2.429,5.528,2.429c1.812,0,3.629-0.653,5.069-1.974
			c8.842-8.115,19.361-14.041,30.745-17.389c2.962,20.655,9.456,43.16,23.263,56.967c1.406,1.407,3.314,2.197,5.303,2.197h3.351
			c4.759,11.277,19.311,36.81,57.418,52.257v152.404c0,4.142,3.358,7.5,7.5,7.5s7.5-3.358,7.5-7.5V352.093
			c38.107-15.447,52.66-40.98,57.418-52.257h3.351c1.989,0,3.897-0.79,5.303-2.197c13.806-13.806,20.3-36.31,23.262-56.964
			c32.822,9.656,56.068,40.252,56.068,74.955v107.369h-44.353v-53.205c0-4.142-3.358-7.5-7.5-7.5s-7.5,3.358-7.5,7.5v134.7
			c0,4.142,3.358,7.5,7.5,7.5s7.5-3.358,7.5-7.5v-66.495h44.353v56.164c0,1.563-1.272,2.834-2.835,2.834c-4.142,0-7.5,3.358-7.5,7.5
			s3.358,7.5,7.5,7.5c8.353,0,15.363-5.78,17.292-13.544c13.636,8.54,32.534,13.543,52.63,13.543
			c41.428,0,73.879-20.305,73.879-46.225v-73.596c0-18.115-15.861-33.476-39.547-41.092v-68.804
			c0-18.442-16.436-34.033-40.836-41.499v-88.89c20.788,4.083,39.828,14.958,53.971,31.206c2.907,3.34,7.098,5.201,11.431,5.201
			c1.041,0,2.091-0.107,3.133-0.328c5.359-1.133,9.69-5.082,11.305-10.307c2.763-8.943,5.107-18.32,6.969-27.87
			c0.792-4.065-1.86-8.004-5.926-8.796c-4.066-0.792-8.003,1.86-8.796,5.926c-1.76,9.026-3.973,17.878-6.579,26.343
			c-0.035,0.026-0.136,0.044-0.223-0.018c-4.188-4.811-8.752-9.208-13.621-13.177c4.983-21.203,7.511-43.355,7.511-65.927
			c0-22.583-2.53-44.731-7.518-65.917c4.887-3.982,9.469-8.394,13.674-13.225c0.039-0.011,0.14,0.004,0.177,0.062
			c7.704,24.935,11.61,51.542,11.61,79.085c0,5.545-0.173,11.246-0.514,16.945c-0.247,4.135,2.904,7.687,7.039,7.935
			c4.142,0.237,7.687-2.905,7.935-7.039c0.358-5.996,0.54-11.998,0.54-17.84C492.752,65.102,488.621,37.005,480.474,10.635z
			 M103.173,189.337l-2.154-52.628c5.4,2.524,11.415,3.942,17.759,3.942h29.233c6.013,0,11.085-4.101,12.567-9.653
			c7.359,6.056,16.736,9.653,26.717,9.653h29.233c6.012,0,11.085-4.101,12.568-9.652c7.358,6.055,16.737,9.652,26.717,9.652h17.304
			l-1.993,48.687l-44.034,12.731c-4.719,1.365-9.674,0.687-13.593-1.857c-7.763-5.042-16.874-7.707-26.348-7.707
			c-9.473,0-18.584,2.665-26.348,7.707c-3.918,2.545-8.873,3.224-13.593,1.857L103.173,189.337z M308.675,148.153
			c0,9.048-7.361,16.41-16.41,16.41c-1.756,0-3.454-0.29-5.083-0.822l0.961-23.478c4.089-1.005,7.421-3.939,8.967-7.788
			C303.801,134.547,308.675,140.791,308.675,148.153z M91.682,89.015c0-30.22,24.586-54.806,54.806-54.806h81.757
			c30.22,0,54.806,24.586,54.806,54.806v36.636h-27.239c-12.622,0-23.747-8.935-26.454-21.244c-0.763-3.47-3.837-5.89-7.318-5.89
			c-0.27,0-0.542,0.015-0.816,0.044c-3.806,0.414-6.69,3.627-6.69,7.456v19.633h-27.239c-12.621,0-23.747-8.935-26.454-21.245
			c-0.823-3.739-4.334-6.263-8.135-5.845c-3.806,0.414-6.69,3.627-6.69,7.456v19.633h-27.238c-14.94,0-27.095-12.155-27.095-27.095
			V89.015z M82.03,164.563c-9.048,0-16.41-7.361-16.41-16.41s7.361-16.41,16.41-16.41c1.292,0,2.558,0.165,3.792,0.457l1.291,31.541
			C85.484,164.273,83.786,164.563,82.03,164.563z M252.149,284.836h-5.333c-3.409,0-6.389,2.299-7.254,5.596
			c-0.084,0.32-8.762,31.619-52.414,48.511c-43.213-16.71-52.062-47.236-52.413-48.511c-0.866-3.297-3.846-5.596-7.254-5.596h-5.333
			c-17.25-20.072-19.229-60.928-19.151-79.936l40.044,11.578c8.907,2.575,18.356,1.23,25.93-3.688
			c5.326-3.458,11.611-5.287,18.178-5.287c6.567,0,12.853,1.828,18.178,5.287c7.573,4.919,17.024,6.263,25.929,3.688l40.044-11.578
			C271.378,223.908,269.399,264.764,252.149,284.836z M385.634,26.488v11.653c-1.175,0.043-2.352,0.073-3.532,0.073H368.74V26.488
			H385.634z M367.592,328.503c5.93,0,11.667-0.429,17.161-1.218v20.808c-11.187,2.189-21.396,5.985-29.701,11.071v-31.311
			C359.177,328.282,363.377,328.503,367.592,328.503z M466.017,392.174c0,16.313-26.005,30.598-56.787,31.193
			c-4.142,0.08-7.434,3.502-7.354,7.644c0.079,4.092,3.421,7.355,7.496,7.355c0.049,0,0.099,0,0.148-0.001
			c5.03-0.097,9.974-0.513,14.778-1.211v8.702c0,4.142,3.358,7.5,7.5,7.5s7.5-3.358,7.5-7.5v-11.956
			c7.098-2.102,13.645-4.91,19.372-8.356c2.676-1.61,5.126-3.33,7.346-5.145v45.371c0,10.208-9.85,17.479-15.722,20.905
			c-11.408,6.655-26.735,10.32-43.158,10.32c-4.75,0-9.433-0.327-13.961-0.944v-39.013c0-4.142-3.358-7.5-7.5-7.5
			s-7.5,3.358-7.5,7.5v35.728c-9.584-2.975-17.697-7.389-23.125-12.833v-54.74c4.773,2.935,10.198,5.465,16.145,7.499
			c0.804,0.275,1.623,0.406,2.428,0.406c3.118,0,6.03-1.959,7.096-5.075c1.341-3.919-0.75-8.183-4.669-9.523
			c-8.824-3.018-16.053-7.216-20.999-12.173v-28.315c10.495-10.547,30.305-17.063,52.087-17.063c16.423,0,31.75,3.665,43.158,10.32
			C456.167,374.695,466.017,381.965,466.017,392.174z M407.139,345.948c-2.482,0-4.946,0.077-7.386,0.228v-22.126
			c10.596-3.132,19.721-7.79,26.718-13.542v36.986C420.327,346.49,413.854,345.948,407.139,345.948z M426.471,282.278
			c0,10.208-9.85,17.479-15.721,20.905c-11.408,6.655-26.735,10.32-43.158,10.32c-4.253,0-8.479-0.267-12.604-0.764
			c-0.366-11.676-2.93-22.916-7.329-33.27c4.359-1.787,11.208-3.366,19.933-3.366c12.377,0,21.401,3.125,24.548,6.029
			c1.442,1.331,3.265,1.988,5.084,1.988c2.021,0,4.036-0.812,5.514-2.414c2.809-3.044,2.618-7.789-0.426-10.598
			c-6.789-6.264-19.769-10.004-34.72-10.004c-10.304,0-19.791,1.799-26.908,5.022c-2.034-3.227-4.256-6.328-6.662-9.281
			c9.853-3.758,21.47-5.792,33.569-5.792c16.423,0,31.75,3.665,43.158,10.32C416.621,264.799,426.471,272.07,426.471,282.278z
			 M385.634,237.395c-5.403-0.819-11.057-1.272-16.895-1.325v-85.989h13.362c1.18,0,2.357,0.03,3.532,0.073V237.395z
			 M444.809,94.143c0,19.335-1.973,38.32-5.825,56.604c-17.021-10.143-36.632-15.665-56.882-15.665h-25.976
			c-4.278,0-7.759-3.481-7.759-7.759v-66.35c0-4.278,3.481-7.759,7.759-7.759h25.976c20.249,0,39.858-5.521,56.89-15.674
			C442.848,55.81,444.809,74.798,444.809,94.143z"/>
		<path d="M372.418,381.004c-3.044,2.809-3.235,7.554-0.426,10.598c1.479,1.603,3.493,2.414,5.514,2.414
			c1.818,0,3.642-0.658,5.084-1.988c3.147-2.904,12.171-6.029,24.548-6.029c12.377,0,21.401,3.125,24.547,6.028
			c3.045,2.81,7.79,2.618,10.598-0.425c2.809-3.044,2.619-7.789-0.425-10.598c-6.789-6.265-19.769-10.005-34.72-10.005
			C392.187,370.999,379.207,374.74,372.418,381.004z"/>
		<path d="M152.024,179.025v-0.105c0-4.142-3.358-7.5-7.5-7.5s-7.5,3.358-7.5,7.5v0.105c0,4.142,3.358,7.5,7.5,7.5
			S152.024,183.167,152.024,179.025z"/>
		<path d="M229.771,186.525c4.142,0,7.5-3.358,7.5-7.5v-0.105c0-4.142-3.358-7.5-7.5-7.5s-7.5,3.358-7.5,7.5v0.105
			C222.271,183.167,225.629,186.525,229.771,186.525z"/>
		<path d="M193.709,226.619h-13.121c-4.142,0-7.5,3.358-7.5,7.5s3.358,7.5,7.5,7.5h13.121c4.142,0,7.5-3.358,7.5-7.5
			S197.851,226.619,193.709,226.619z"/>
		<path d="M86.099,362.294c-4.142,0-7.5,3.358-7.5,7.5v53.205H34.244V315.63c0-10.574,2.075-20.829,6.168-30.478
			c1.617-3.813-0.163-8.216-3.976-9.833c-3.814-1.616-8.215,0.164-9.833,3.976c-4.883,11.512-7.359,23.737-7.359,36.335v178.532
			c0,9.834,8,17.834,17.834,17.834c4.142,0,7.5-3.358,7.5-7.5s-3.358-7.5-7.5-7.5c-1.563,0-2.834-1.271-2.834-2.834v-56.164h44.354
			v66.495c0,4.142,3.358,7.5,7.5,7.5s7.5-3.358,7.5-7.5v-134.7C93.599,365.652,90.241,362.294,86.099,362.294z"/>
		<path d="M215.511,396.387c-4.142,0-7.5,3.358-7.5,7.5v0.105c0,4.142,3.358,7.5,7.5,7.5s7.5-3.358,7.5-7.5v-0.105
			C223.011,399.745,219.653,396.387,215.511,396.387z"/>
		<path d="M215.511,446.304c-4.142,0-7.5,3.358-7.5,7.5v0.105c0,4.142,3.358,7.5,7.5,7.5s7.5-3.358,7.5-7.5v-0.105
			C223.011,449.662,219.653,446.304,215.511,446.304z"/>
	</g>
</g>
<g>
</g>
<g>
</g>
<g>
</g>
<g>
</g>
<g>
</g>
<g>
</g>
<g>
</g>
<g>
</g>
<g>
</g>
<g>
</g>
<g>
</g>
<g>
</g>
<g>
</g>
<g>
</g>
<g>
</g>
</svg>
