<?xml version="1.0" encoding="iso-8859-1"?>
<!-- Generator: Adobe Illustrator 23.0.3, SVG Export Plug-In . SVG Version: 6.00 Build 0)  -->
<svg version="1.1" id="Capa_1" xmlns="http://www.w3.org/2000/svg" xmlns:xlink="http://www.w3.org/1999/xlink" x="0px" y="0px"
	 viewBox="0 0 512 512" style="enable-background:new 0 0 512 512;" xml:space="preserve">
<g>
	<g>
		<g>
			<g>
				<g>
					<g>
						<path style="fill:#FFF5F5;" d="M495.98,279.011H353.261c-4.706,0-8.52-3.815-8.52-8.52V65.944c0-4.706,3.815-8.52,8.52-8.52
							H495.98c4.706,0,8.52,3.815,8.52,8.52v204.547C504.5,275.196,500.685,279.011,495.98,279.011z"/>
						<path style="fill:#EFE2DD;" d="M504.499,65.947v204.544c0,4.703-3.817,8.52-8.52,8.52h-18.335c4.703,0,8.52-3.817,8.52-8.52
							V65.947c0-4.712-3.817-8.52-8.52-8.52h18.335C500.682,57.427,504.499,61.236,504.499,65.947z"/>
					</g>
					<g>
						<path style="fill:#5B5555;" d="M451.597,143.983c0.254-1.273,0.39-2.588,0.39-3.936c0-11.028-8.94-19.967-19.967-19.967
							c-11.028,0-19.967,8.94-19.967,19.967c0,1.347,0.135,2.663,0.39,3.936c-10.578,0.505-18.999,9.24-18.999,19.943
							c0,11.028,8.94,19.967,19.967,19.967c2.792,0,5.448-0.575,7.861-1.609v17.928h21.495v-17.928
							c2.413,1.035,5.07,1.609,7.861,1.609c11.028,0,19.967-8.94,19.967-19.967C470.596,153.223,462.175,144.488,451.597,143.983z"
							/>
					</g>
				</g>
				<g>
					<g>
						<path style="fill:#FFF5F5;" d="M413.385,279.011H255.869c-4.706,0-8.52-3.815-8.52-8.52V65.944c0-4.706,3.815-8.52,8.52-8.52
							h157.517c4.706,0,8.52,3.815,8.52,8.52v204.547C421.905,275.196,418.091,279.011,413.385,279.011z"/>
						<path style="fill:#EFE2DD;" d="M421.904,65.947v204.544c0,4.703-3.817,8.52-8.52,8.52h-18.335c4.703,0,8.52-3.817,8.52-8.52
							V65.947c0-4.712-3.817-8.52-8.52-8.52h18.335C418.087,57.427,421.904,61.236,421.904,65.947z"/>
					</g>
				</g>
				<g>
					<g>
						<path style="fill:#FFF5F5;" d="M495.98,471.361H353.261c-4.706,0-8.52-3.815-8.52-8.52V258.295c0-4.706,3.815-8.52,8.52-8.52
							H495.98c4.706,0,8.52,3.815,8.52,8.52v204.547C504.5,467.547,500.685,471.361,495.98,471.361z"/>
						<path style="fill:#EFE2DD;" d="M504.499,258.298v204.544c0,4.703-3.817,8.52-8.52,8.52h-18.335c4.703,0,8.52-3.817,8.52-8.52
							V258.298c0-4.712-3.817-8.52-8.52-8.52h18.335C500.682,249.777,504.499,253.586,504.499,258.298z"/>
					</g>
					<g>
						<g>
							<path style="fill:#5B5555;" d="M421.463,400.636v-23.027c-6.503,6.503-17.047,6.504-23.552,0.002l0,0
								c-6.506-6.504-6.507-17.051-0.002-23.556l28.103-28.103c3.318-3.318,8.697-3.318,12.014,0l28.103,28.103
								c6.505,6.505,6.504,17.052-0.002,23.556l0,0c-6.505,6.502-17.048,6.501-23.552-0.002v23.027H421.463z"/>
						</g>
					</g>
				</g>
				<g>
					<g>
						<path style="fill:#FFF5F5;" d="M413.385,471.361H255.869c-4.706,0-8.52-3.815-8.52-8.52V258.295c0-4.706,3.815-8.52,8.52-8.52
							h157.517c4.706,0,8.52,3.815,8.52,8.52v204.547C421.905,467.547,418.091,471.361,413.385,471.361z"/>
						<path style="fill:#EFE2DD;" d="M421.904,258.298v204.544c0,4.703-3.817,8.52-8.52,8.52h-18.335c4.703,0,8.52-3.817,8.52-8.52
							V258.298c0-4.712-3.817-8.52-8.52-8.52h18.335C418.087,249.777,421.904,253.586,421.904,258.298z"/>
					</g>
					<g>
						<path style="fill:#E84649;" d="M363.417,339.768c-5.49-5.488-14.39-5.488-19.879,0.002l-8.91,8.91l0,0l-8.91-8.91
							c-5.489-5.489-14.389-5.49-19.879-0.002l0,0c-5.492,5.49-5.492,14.392-0.002,19.883l28.792,28.792l28.792-28.792
							C368.909,354.161,368.908,345.258,363.417,339.768L363.417,339.768z"/>
					</g>
				</g>
				<g>
					<polygon style="fill:#E84649;" points="334.627,201.922 305.649,159.439 334.627,116.955 363.604,159.439 					"/>
				</g>
			</g>
			<path style="fill:#AC5E33;" d="M249.099,283.946H98.731c-13.739,0-24.876-11.137-24.876-24.876v-76.41
				c0-45.77,37.104-82.874,82.874-82.874h34.372c45.77,0,82.874,37.104,82.874,82.874v76.41
				C273.975,272.808,262.838,283.946,249.099,283.946z"/>
			<path style="fill:#904D29;" d="M273.98,182.657v76.415c0,13.737-11.138,24.874-24.884,24.874h-17.988
				c13.737,0,24.875-11.138,24.875-24.874v-76.415c0-45.767-37.098-82.875-82.875-82.875h17.997
				C236.872,99.782,273.98,136.89,273.98,182.657z"/>
			<path style="fill:#756F6F;" d="M268.245,486.361H79.585c-5.085,0-9.208-4.123-9.208-9.208V348.486
				c0-41.302,33.482-74.784,74.783-74.784h57.509c41.302,0,74.783,33.482,74.783,74.784v128.667
				C277.453,482.239,273.331,486.361,268.245,486.361z"/>
			<rect x="145.193" y="298.612" style="fill:#FFF5F5;" width="57.444" height="187.749"/>
			<rect x="145.193" y="403.756" style="fill:#FF9846;" width="57.444" height="82.606"/>
			<rect x="145.193" y="434.486" style="fill:#E84649;" width="57.444" height="51.875"/>
			<path style="fill:#5B5555;" d="M277.453,348.49v128.663c0,5.085-4.123,9.208-9.208,9.208h-10.783V348.49
				c0-41.307-33.48-74.787-74.787-74.787h19.99C243.969,273.703,277.453,307.187,277.453,348.49z"/>
			<line style="fill:#F69583;" x1="216.942" y1="262.729" x2="216.942" y2="262.809"/>
			<path style="fill:#FDD1A7;" d="M103.138,163.621l9.317,76.279c3.794,31.062,30.167,54.41,61.46,54.41l0,0
				c31.292,0,57.666-23.348,61.46-54.41l9.317-76.279H103.138z"/>
			<path style="fill:#AC5E33;" d="M255.853,172.118c-0.872,6.683-2.803,13.254-5.782,19.454
				c-24.002,11.546-53.666,7.36-73.575-12.539c-1.272-1.272-2.469-2.589-3.611-3.945c-1.151,1.355-2.357,2.673-3.629,3.945
				c-19.9,19.9-49.563,24.086-73.566,12.539c-11.537-24.002-7.36-53.666,12.539-73.566c17.672-17.663,43.011-22.935,65.268-15.834
				c1.689-0.761,3.481-1.355,5.337-1.736c9.114-1.875,18.545-1.763,27.613,0.334c11.388,2.617,22.201,8.363,31.075,17.236
				C252.289,132.774,258.396,152.905,255.853,172.118z"/>
			<path style="fill:#904D29;" d="M255.853,172.118c-1.717-31.956-21.542-59.105-49.406-71.347
				c11.388,2.617,22.201,8.363,31.075,17.236C252.289,132.774,258.396,152.905,255.853,172.118z"/>
			<path style="fill:#F69583;" d="M133.65,248.049c-3.739,0-6.77-3.031-6.77-6.77s3.031-6.809,6.77-6.809s6.77,2.991,6.77,6.73v0.08
				C140.42,245.018,137.389,248.049,133.65,248.049z"/>
			<path style="fill:#F69583;" d="M214.18,248.049c-3.739,0-6.77-3.031-6.77-6.77s3.031-6.809,6.77-6.809s6.77,2.991,6.77,6.73v0.08
				C220.95,245.018,217.919,248.049,214.18,248.049z"/>
			<path style="fill:#756F6F;" d="M254.277,127.098H93.553v-81.73c0-10.897,8.834-19.731,19.731-19.731h121.262
				c10.897,0,19.731,8.834,19.731,19.731V127.098z"/>
			<path style="fill:#5B5555;" d="M254.279,45.372v81.726h-23.49V45.372c0-10.901-8.83-19.731-19.731-19.731h23.49
				C245.44,25.641,254.279,34.47,254.279,45.372z"/>
			<rect x="93.551" y="87.862" style="fill:#E84649;" width="160.728" height="39.235"/>
			<rect x="230.789" y="87.862" style="fill:#D73337;" width="23.49" height="39.235"/>
			<path style="fill:#756F6F;" d="M266.457,145.469H81.373c-7.553,0-13.676-6.123-13.676-13.676v0
				c0-7.553,6.123-13.676,13.676-13.676h185.084c7.553,0,13.676,6.123,13.676,13.676v0
				C280.133,139.346,274.01,145.469,266.457,145.469z"/>
			<path style="fill:#5B5555;" d="M280.13,131.79c0,3.78-1.53,7.2-4,9.67c-2.48,2.48-5.89,4.01-9.67,4.01h-20.58
				c3.78,0,7.2-1.53,9.67-4.01c2.48-2.47,4.01-5.89,4.01-9.67c0-7.55-6.13-13.67-13.68-13.67h20.58
				C274.01,118.12,280.13,124.24,280.13,131.79z"/>
		</g>
		<g>
			<path style="fill:#756F6F;" d="M41.043,163.969v312.528c0,5.446-4.42,9.865-9.865,9.865H17.365c-5.446,0-9.865-4.42-9.865-9.865
				V163.969c0-5.456,4.42-9.865,9.865-9.865h13.812C36.623,154.103,41.043,158.513,41.043,163.969z"/>
			<path style="fill:#FF9846;" d="M41.043,163.969v46.871H7.5v-46.871c0-5.456,4.42-9.865,9.865-9.865h13.812
				C36.623,154.103,41.043,158.513,41.043,163.969z"/>
			<path style="fill:#FFF5F5;" d="M31.177,486.362H17.365c-5.449,0-9.865-4.417-9.865-9.865v-31.437h33.543v31.437
				C41.043,481.945,36.626,486.362,31.177,486.362z"/>
		</g>
	</g>
	<g>
		<path d="M495.98,49.924H261.777v-4.556c0-15.015-12.216-27.23-27.231-27.23H113.284c-15.015,0-27.231,12.216-27.231,27.23v65.249
			h-4.68c-11.677,0-21.176,9.499-21.176,21.176c0,8.36,4.882,15.582,11.933,19.023c-3.831,10.147-5.775,20.828-5.775,31.844v76.41
			c0,13.98,8.908,25.917,21.345,30.438c-15.478,15.078-24.823,36.09-24.823,58.978v128.667c0,9.213,7.495,16.708,16.708,16.708
			c4.142,0,7.5-3.357,7.5-7.5s-3.358-7.5-7.5-7.5c-0.942,0-1.708-0.767-1.708-1.708V348.486c0-30.422,20.168-56.795,49.282-64.838
			c3.251,2.965,6.773,5.63,10.534,7.938v194.775c0,4.143,3.358,7.5,7.5,7.5s7.5-3.357,7.5-7.5v-44.375h42.444v44.375
			c0,4.143,3.358,7.5,7.5,7.5s7.5-3.357,7.5-7.5V291.586c3.762-2.307,7.284-4.973,10.535-7.938
			c29.114,8.044,49.281,34.415,49.281,64.838v128.667c0,0.941-0.766,1.708-1.708,1.708c-4.142,0-7.5,3.357-7.5,7.5
			s3.358,7.5,7.5,7.5c8.636,0,15.763-6.586,16.621-15H495.98c8.833,0,16.02-7.187,16.02-16.021V65.944
			C512,57.11,504.813,49.924,495.98,49.924z M497,65.944v176.382c-0.339-0.021-0.676-0.052-1.02-0.052h-66.575v-34.563h13.362
			c4.142,0,7.5-3.357,7.5-7.5v-8.821c0.121,0.001,0.241,0.002,0.361,0.002c15.146,0,27.467-12.321,27.467-27.467
			c0-12.081-7.773-22.381-18.693-26.041c-1.106-14.139-12.965-25.305-27.383-25.305c-0.878,0-1.749,0.051-2.614,0.133V65.944
			c0-0.344-0.03-0.681-0.052-1.021h66.626C496.542,64.924,497,65.382,497,65.944z M429.405,333.166l1.911-1.911
			c0.388-0.389,1.02-0.389,1.408,0l28.104,28.104c1.729,1.729,2.682,4.028,2.681,6.474c0,2.445-0.953,4.745-2.683,6.475
			c-3.569,3.57-9.377,3.568-12.946-0.002c-2.145-2.144-5.372-2.786-8.173-1.625c-2.803,1.16-4.63,3.896-4.63,6.929v15.527h-5.671
			V333.166z M445.686,148.598c1.344,1.722,3.372,2.771,5.553,2.876c6.649,0.318,11.857,5.788,11.857,12.452
			c0,6.874-5.593,12.467-12.467,12.467c-1.705,0-3.355-0.337-4.905-1.002c-2.317-0.995-4.979-0.759-7.084,0.631
			c-2.105,1.388-3.373,3.74-3.373,6.262v10.429h-5.862V127.87c0.857-0.188,1.73-0.29,2.614-0.29c6.875,0,12.467,5.593,12.467,12.467
			c0,0.825-0.082,1.655-0.244,2.465C443.814,144.654,444.341,146.876,445.686,148.598z M113.284,33.138h121.262
			c6.744,0,12.231,5.486,12.231,12.23v34.995H101.053V45.368C101.053,38.624,106.54,33.138,113.284,33.138z M101.053,95.363h145.724
			v15.254H101.053V95.363z M98.731,276.445c-9.581,0-17.376-7.794-17.376-17.375v-76.41c0-10.338,2.069-20.31,6.1-29.691h117.668
			c4.142,0,7.5-3.357,7.5-7.5s-3.358-7.5-7.5-7.5H81.373c-3.406,0-6.176-2.771-6.176-6.176s2.771-6.176,6.176-6.176h185.084
			c3.406,0,6.176,2.771,6.176,6.176s-2.771,6.176-6.176,6.176h-25.581c-4.142,0-7.5,3.357-7.5,7.5s3.358,7.5,7.5,7.5h19.498
			c4.032,9.383,6.101,19.354,6.101,29.691v76.41c0,9.581-7.795,17.375-17.376,17.375H243.5c-0.301,0-0.596,0.023-0.887,0.057
			c-3.588-1.983-7.351-3.71-11.271-5.159c6.038-8.879,10.1-19.251,11.478-30.534l4.894-40.069c1.889-0.718,3.758-1.519,5.602-2.406
			c3.733-1.795,5.304-6.276,3.509-10.01s-6.275-5.302-10.009-3.51c-21.782,10.475-47.908,6.016-65.014-11.09
			c-1.069-1.068-2.146-2.24-3.201-3.484c-1.425-1.68-3.516-2.648-5.719-2.648c0,0,0,0,0,0c-2.203,0-4.294,0.969-5.719,2.647
			c-1.025,1.209-2.105,2.382-3.21,3.487c-17.105,17.104-43.232,21.561-65.013,11.088c-3.733-1.791-8.215-0.222-10.009,3.51
			c-1.795,3.733-0.224,8.215,3.509,10.01c2.548,1.225,5.144,2.286,7.773,3.19l4.798,39.284c1.378,11.283,5.44,21.655,11.478,30.534
			c-3.883,1.435-7.613,3.142-11.171,5.102H98.731z M152.693,426.986v-15.73h42.444v15.73H152.693z M195.137,396.256h-42.444v-97.782
			c6.712,2.161,13.844,3.337,21.222,3.337s14.511-1.176,21.222-3.337V396.256z M173.915,286.811
			c-27.464,0-50.686-20.558-54.015-47.819l-4.152-33.994c20.553,2.245,41.548-4.43,57.13-19.036
			c13.609,12.756,31.345,19.465,49.312,19.464c3.308,0,6.625-0.228,9.924-0.687l-4.184,34.253
			C224.601,266.253,201.379,286.811,173.915,286.811z M284.953,463.861V348.486c0-22.889-9.345-43.901-24.823-58.979
			c12.437-4.521,21.345-16.458,21.345-30.438v-1.796h60.315c4.142,0,7.5-3.357,7.5-7.5s-3.358-7.5-7.5-7.5h-60.315V182.66
			c0-11.015-1.944-21.697-5.775-31.844c7.052-3.441,11.934-10.663,11.934-19.023c0-11.677-9.5-21.176-21.176-21.176h-4.68V64.924
			h151.608c0.563,0,1.02,0.458,1.02,1.021v176.33h-1.02h-9.816h-26.026c-4.142,0-7.5,3.357-7.5,7.5s3.358,7.5,7.5,7.5h26.026h9.816
			c0.563,0,1.02,0.458,1.02,1.021v204.547c0,0.563-0.458,1.02-1.02,1.02H284.953z M497,462.841c0,0.563-0.458,1.021-1.02,1.021
			h-66.626c0.021-0.339,0.052-0.675,0.052-1.02v-54.706h13.171c4.142,0,7.5-3.357,7.5-7.5v-11.039
			c7.521,1.339,15.556-0.886,21.354-6.682c4.564-4.563,7.078-10.629,7.078-17.081c0-6.453-2.512-12.52-7.075-17.083l-28.104-28.104
			c-3.784-3.784-9.007-5.256-13.924-4.447v-57.905v-1.021h66.575c0.563,0,1.02,0.458,1.02,1.021V462.841z"/>
		<path d="M338.234,334.467l-3.607,3.607l-3.607-3.607c-8.404-8.402-22.079-8.405-30.485-0.003
			c-4.073,4.071-6.316,9.485-6.317,15.245c0,5.759,2.242,11.173,6.314,15.246l28.792,28.791c1.464,1.464,3.384,2.196,5.303,2.196
			s3.839-0.732,5.303-2.196l28.792-28.792c4.072-4.072,6.314-9.486,6.314-15.246c-0.001-5.759-2.244-11.173-6.317-15.244
			C360.313,326.062,346.638,326.064,338.234,334.467z M358.115,354.348l-23.488,23.488l-23.488-23.487
			c-1.239-1.239-1.921-2.887-1.921-4.639s0.683-3.398,1.921-4.637c1.278-1.278,2.958-1.917,4.637-1.917s3.359,0.64,4.637,1.918
			l8.911,8.91c2.929,2.928,7.678,2.928,10.606,0l8.91-8.91c2.557-2.557,6.717-2.558,9.274-0.001
			c1.239,1.238,1.921,2.885,1.922,4.637C360.036,351.462,359.354,353.109,358.115,354.348z"/>
		<path d="M369.8,155.212l-28.978-42.483c-1.397-2.048-3.716-3.273-6.196-3.273s-4.799,1.226-6.196,3.273l-28.978,42.483
			c-1.739,2.55-1.739,5.903,0,8.453l28.978,42.483c1.397,2.048,3.716,3.273,6.196,3.273s4.799-1.226,6.196-3.273l28.978-42.483
			C371.539,161.115,371.539,157.762,369.8,155.212z M334.627,188.612l-19.899-29.174l19.899-29.174l19.899,29.174L334.627,188.612z"
			/>
		<path d="M111.415,366.197c-4.142,0-7.5,3.357-7.5,7.5v112.665c0,4.143,3.358,7.5,7.5,7.5s7.5-3.357,7.5-7.5V373.697
			C118.915,369.555,115.557,366.197,111.415,366.197z"/>
		<path d="M236.415,366.197c-4.142,0-7.5,3.357-7.5,7.5v112.664c0,4.143,3.358,7.5,7.5,7.5s7.5-3.357,7.5-7.5V373.697
			C243.915,369.555,240.557,366.197,236.415,366.197z"/>
		<path d="M149.219,219.536c0-4.143-3.358-7.46-7.5-7.46s-7.5,3.397-7.5,7.54s3.358,7.5,7.5,7.5s7.5-3.357,7.5-7.5V219.536z"/>
		<path d="M206.111,212.076c-4.142,0-7.5,3.397-7.5,7.54s3.358,7.5,7.5,7.5s7.5-3.357,7.5-7.5v-0.08
			C213.611,215.394,210.253,212.076,206.111,212.076z"/>
		<path d="M193.979,238.697c-3.982-1.144-8.136,1.155-9.281,5.135c-1.376,4.784-5.811,8.125-10.783,8.125
			c-4.973,0-9.407-3.341-10.783-8.125c-1.145-3.98-5.298-6.281-9.281-5.135c-3.981,1.145-6.28,5.3-5.135,9.281
			c3.214,11.174,13.576,18.979,25.199,18.979c11.623,0,21.984-7.805,25.198-18.979C200.258,243.998,197.96,239.843,193.979,238.697z
			"/>
		<path d="M31.177,146.599H17.365C7.79,146.599,0,154.389,0,163.964v312.532c0,9.575,7.79,17.365,17.365,17.365h13.812
			c9.575,0,17.365-7.79,17.365-17.365v-59.453c0-4.143-3.358-7.5-7.5-7.5s-7.5,3.357-7.5,7.5v20.516H15V218.34h18.542v162.95
			c0,4.143,3.358,7.5,7.5,7.5s7.5-3.357,7.5-7.5V163.964C48.542,154.389,40.752,146.599,31.177,146.599z M33.542,452.559v23.938
			c0,1.304-1.061,2.365-2.365,2.365H17.365c-1.304,0-2.365-1.062-2.365-2.365v-23.938H33.542z M15,203.34v-39.376
			c0-1.305,1.061-2.365,2.365-2.365h13.812c1.304,0,2.365,1.061,2.365,2.365v39.376H15z"/>
	</g>
</g>
<g>
</g>
<g>
</g>
<g>
</g>
<g>
</g>
<g>
</g>
<g>
</g>
<g>
</g>
<g>
</g>
<g>
</g>
<g>
</g>
<g>
</g>
<g>
</g>
<g>
</g>
<g>
</g>
<g>
</g>
</svg>
