<?xml version="1.0" encoding="iso-8859-1"?>
<!-- Generator: Adobe Illustrator 23.0.3, SVG Export Plug-In . SVG Version: 6.00 Build 0)  -->
<svg version="1.1" id="Capa_1" xmlns="http://www.w3.org/2000/svg" xmlns:xlink="http://www.w3.org/1999/xlink" x="0px" y="0px"
	 viewBox="0 0 511.999 511.999" style="enable-background:new 0 0 511.999 511.999;" xml:space="preserve">
<g>
	<g>
		<g>
			<g>
				<g>
					<g>
						<circle style="fill:#AC5E33;" cx="167.672" cy="237.086" r="43.656"/>
					</g>
					<g>
						<circle style="fill:#AC5E33;" cx="344.381" cy="237.086" r="43.656"/>
					</g>
				</g>
				<g>
					<g>
						<circle style="fill:#FFBC8A;" cx="339.316" cy="177.873" r="21.479"/>
					</g>
					<g>
						<circle style="fill:#FFBC8A;" cx="172.736" cy="177.873" r="21.479"/>
					</g>
				</g>
				<path style="fill:#006AC3;" d="M372.918,340.429v145.26c0,5.74-4.64,10.4-10.39,10.4h-213c-5.75,0-10.4-4.66-10.4-10.4v-145.26
					c0-30.8,16.48-57.74,41.11-72.49c9.16-5.49,19.45-9.29,30.44-10.97c4.2-0.65,8.5-0.98,12.88-0.98h64.94
					c4.38,0,8.67,0.33,12.87,0.98c10.99,1.68,21.28,5.48,30.45,10.97C356.448,282.689,372.918,309.629,372.918,340.429z"/>
				<path style="fill:#0057A1;" d="M372.926,340.426v145.268c0,5.742-4.655,10.396-10.396,10.396h-12.174V340.426
					c0-46.638-37.801-84.439-84.439-84.439h22.57C335.121,255.987,372.926,293.792,372.926,340.426z"/>
				<path style="fill:#FFF5F5;" d="M331.815,267.943V496.09H180.237V267.943c12.663-7.589,27.478-11.956,43.322-11.956h64.935
					C304.338,255.987,319.153,260.353,331.815,267.943z"/>
				<g>
					<path style="fill:#006AC3;" d="M301.369,256.969v79.99c0,10.91-8.85,19.76-19.76,19.76h-51.17c-10.91,0-19.76-8.85-19.76-19.76
						v-79.99c4.2-0.65,8.5-0.98,12.88-0.98h64.94C292.879,255.989,297.169,256.319,301.369,256.969z"/>
				</g>
				<path style="fill:#FFBC8A;" d="M275.169,255.989v49.68c0,11.22-9.1,20.31-20.31,20.31c-11.22,0-20.32-9.09-20.32-20.31v-49.68
					H275.169z"/>
				<path style="fill:#FDD1A7;" d="M176.115,132.183l10.519,86.123c4.283,35.07,34.061,61.432,69.392,61.432l0,0
					c35.331,0,65.108-26.362,69.392-61.432l10.519-86.123H176.115z"/>
				<g>
					<g>
						<line style="fill:#F69583;" x1="304.607" y1="243.597" x2="304.607" y2="243.687"/>
					</g>
				</g>
				<path style="fill:#C86D3D;" d="M343.172,157.434c-8.473,4.075-26.064,6.882-47.054,8.411l-12.32-22.862l-10.906,23.995
					c-41.814,1.154-88.39-2.027-104.015-9.544c-13.027-27.103-8.307-60.59,14.16-83.067c19.951-19.94,48.561-25.887,73.689-17.882
					c1.913-0.863,3.93-1.518,6.03-1.955c23.194-4.772,48.26,1.84,66.256,19.836C351.479,96.844,356.199,130.33,343.172,157.434z"/>
				<path style="fill:#AC5E33;" d="M343.169,157.429c-4.16,2.01-10.53,3.7-18.42,5.1c13.61-28.65,8.56-63.94-15.14-87.66
					c-11.51-11.51-25.75-18.62-40.63-21.34c21.37-2.51,43.64,4.44,60.03,20.84C351.479,96.839,356.199,130.329,343.169,157.429z"/>
				<g>
					<g>
						<g>
							<path style="fill:#F69583;" d="M210.565,227.506c-4.221,0-7.643-3.422-7.643-7.643c0-4.221,3.422-7.688,7.643-7.688
								c4.221,0,7.643,3.377,7.643,7.598v0.09C218.208,224.084,214.786,227.506,210.565,227.506z"/>
						</g>
						<g>
							<path style="fill:#F69583;" d="M301.488,227.506c-4.221,0-7.643-3.422-7.643-7.643c0-4.221,3.422-7.688,7.643-7.688
								s7.643,3.377,7.643,7.598v0.09C309.131,224.084,305.709,227.506,301.488,227.506z"/>
						</g>
					</g>
				</g>
				<path style="fill:#FFF5F5;" d="M341.202,73.795c0,10.937-5.173,20.658-13.206,26.85c-20.329-6.619-45.163-10.51-71.969-10.51
					c-26.806,0-51.64,3.891-71.969,10.51c-8.033-6.192-13.206-15.913-13.206-26.85c0-18.707,15.168-33.875,33.875-33.875
					c6.521,0,12.603,1.841,17.776,5.03c2.334-16.417,16.45-29.042,33.525-29.042s31.19,12.625,33.524,29.042
					c5.173-3.189,11.255-5.03,17.776-5.03C326.034,39.92,341.202,55.088,341.202,73.795z"/>
				<path style="fill:#E0D3CE;" d="M341.198,73.799c0,10.93-5.17,20.65-13.2,26.85c-5.28-1.72-10.86-3.26-16.71-4.59
					c6.47-6.16,10.49-14.87,10.49-24.51c0-13.93-8.41-25.9-20.43-31.11c1.94-0.34,3.94-0.52,5.98-0.52
					C326.039,39.919,341.198,55.089,341.198,73.799z"/>
				<path style="fill:#CDBFBB;" d="M280.695,464.38h-49.338c-11.483,0-20.793-9.309-20.793-20.793v-14.4
					c0-5.742,4.655-10.396,10.396-10.396h70.13c5.742,0,10.396,4.655,10.396,10.396v14.4
					C301.488,455.07,292.178,464.38,280.695,464.38z"/>
			</g>
			<g>
				<g>
					<path style="fill:#C86D3D;" d="M61.262,496.09L61.262,496.09c-8.742,0-15.829-7.087-15.829-15.829V160.732h31.658v319.529
						C77.091,489.003,70.004,496.09,61.262,496.09z"/>
					<g>
						<path style="fill:#FAC574;" d="M73.919,205.182H48.605c-22.702,0-41.105-18.403-41.105-41.105V69.152
							c0-5.742,4.655-10.396,10.396-10.396h86.731c5.742,0,10.396,4.655,10.396,10.396v94.924
							C115.024,186.778,96.621,205.182,73.919,205.182z"/>
						<path style="fill:#D8AA64;" d="M115.029,69.149v94.93c0,22.7-18.41,41.1-41.11,41.1h-18.33c22.7,0,41.1-18.4,41.1-41.1v-94.93
							c0-5.74-4.65-10.39-10.39-10.39h18.33C110.369,58.759,115.029,63.409,115.029,69.149z"/>
						<path style="fill:#FDE5C2;" d="M115.029,69.149v26.16c0-5.74-4.66-10.4-10.4-10.4h-86.73c-5.74,0-10.4,4.66-10.4,10.4v-26.16
							c0-5.74,4.66-10.4,10.4-10.4h86.73C110.369,58.749,115.029,63.409,115.029,69.149z"/>
						<path style="fill:#FBCC85;" d="M115.029,69.149v26.16c0-5.74-4.66-10.4-10.4-10.4h-7.94v-15.76c0-5.74-4.65-10.39-10.39-10.39
							l0.01-0.01h18.32C110.369,58.749,115.029,63.409,115.029,69.149z"/>
					</g>
				</g>
			</g>
			<g>
				<rect x="422.367" y="295.959" style="fill:#CDBFBB;" width="27.55" height="58.976"/>
				<path style="fill:#E84649;" d="M488.454,496.09h-62.253c-7.014,0-12.7-5.686-12.7-12.7V362.43c0-7.014,5.686-12.7,12.7-12.7
					h34.812c22.169,0,40.14,17.971,40.14,40.14v93.52C501.154,490.404,495.468,496.09,488.454,496.09z"/>
				<path style="fill:#D73337;" d="M501.151,389.867v93.525c0,7.007-5.687,12.694-12.694,12.694h-24.421
					c7.018,0,12.704-5.687,12.704-12.694v-93.525c0-22.165-17.975-40.14-40.14-40.14h24.411
					C483.186,349.727,501.151,367.702,501.151,389.867z"/>
				<path style="fill:#FFF5F5;" d="M494.102,302.972h-70.204c-5.742,0-10.396-4.655-10.396-10.396v-4.186
					c0-13.142,10.654-23.795,23.795-23.795h56.805c5.742,0,10.396,4.655,10.396,10.396v17.585
					C504.499,298.318,499.844,302.972,494.102,302.972z"/>
				<path style="fill:#E0D3CE;" d="M504.499,274.988v17.591c0,5.739-4.658,10.396-10.396,10.396h-24.421
					c5.749,0,10.396-4.658,10.396-10.396v-17.591c0-5.739-4.647-10.396-10.396-10.396h24.421
					C499.841,264.591,504.499,269.249,504.499,274.988z"/>
			</g>
		</g>
		<g>
			<circle style="fill:#B6DCFF;" cx="425.507" cy="179.61" r="31.821"/>
			<path style="fill:#8ECBFD;" d="M457.323,179.605c0,17.58-14.243,31.823-31.813,31.823c-3.317,0-6.529-0.509-9.534-1.445
				c12.912-4.055,22.28-16.125,22.28-30.378c0-14.253-9.367-26.313-22.28-30.357c3.005-0.946,6.217-1.456,9.534-1.456
				C443.081,147.792,457.323,162.035,457.323,179.605z"/>
		</g>
		<g>
			<circle style="fill:#B6DCFF;" cx="473.153" cy="108.338" r="22.308"/>
			<path style="fill:#8ECBFD;" d="M495.457,108.338c0,12.32-9.981,22.311-22.3,22.311c-3.41,0-6.643-0.769-9.533-2.142
				c7.548-3.576,12.767-11.259,12.767-20.169s-5.219-16.593-12.767-20.169c2.89-1.372,6.124-2.142,9.533-2.142
				C485.477,86.028,495.457,96.019,495.457,108.338z"/>
		</g>
	</g>
	<g>
		<path d="M395.537,237.086c0-20.465-12.009-38.519-30.112-46.645c1.839-3.804,2.87-8.068,2.87-12.568
			c0-10.724-5.959-20.365-14.976-25.369c7.796-22.098,5.596-46.452-6.303-66.931c1.108-3.767,1.686-7.724,1.686-11.779
			c0-22.814-18.561-41.375-41.375-41.375c-4.398,0-8.739,0.696-12.871,2.047c-6.156-15.359-21.289-26.059-38.429-26.059
			c-17.141,0-32.273,10.699-38.43,26.058c-4.131-1.35-8.472-2.046-12.871-2.046c-22.814,0-41.375,18.561-41.375,41.375
			c0,4.053,0.578,8.01,1.685,11.775c-11.904,20.485-14.103,44.849-6.298,66.954c-9.049,5.028-14.981,14.707-14.981,25.349
			c0,4.5,1.032,8.764,2.87,12.568c-18.103,8.127-30.112,26.182-30.112,46.645c0,21.729,13.837,40.769,33.548,48.025
			c-11.66,15.51-18.438,34.734-18.438,55.31v145.272c0,9.868,8.028,17.896,17.896,17.896c4.142,0,7.5-3.357,7.5-7.5
			s-3.358-7.5-7.5-7.5c-1.597,0-2.896-1.3-2.896-2.896V340.421c0-22.783,9.916-43.59,26.111-57.822V496.09
			c0,4.143,3.358,7.5,7.5,7.5s7.5-3.357,7.5-7.5V272.295c4.814-2.522,9.952-4.557,15.359-6.042c0.028,0.026,0.056,0.051,0.083,0.077
			v70.629c0,15.031,12.229,27.26,27.26,27.26h51.17c15.031,0,27.26-12.229,27.26-27.26v-70.625c0.029-0.027,0.059-0.054,0.089-0.082
			c5.407,1.485,10.544,3.52,15.358,6.042V496.09c0,4.143,3.357,7.5,7.5,7.5s7.5-3.357,7.5-7.5V282.598
			c16.196,14.232,26.111,35.038,26.111,57.824v145.272c0,1.597-1.299,2.896-2.896,2.896c-4.143,0-7.5,3.357-7.5,7.5
			s3.357,7.5,7.5,7.5c9.867,0,17.896-8.028,17.896-17.896V340.421c0-20.577-6.777-39.799-18.436-55.309
			C381.705,277.86,395.537,258.828,395.537,237.086z M256.026,272.239c-31.497,0-58.128-23.577-61.947-54.842l-5.76-47.156
			c15.94,2.665,38.364,4.496,66.181,4.496c5.955,0,12.162-0.084,18.6-0.262c2.865-0.079,5.435-1.784,6.621-4.394l4.648-10.229
			l5.146,9.549c1.401,2.603,4.205,4.128,7.147,3.923c8.322-0.606,18.041-1.556,27.065-3.033l-5.754,47.106
			C314.155,248.661,287.523,272.239,256.026,272.239z M242.039,285.961c4.547,0.835,9.221,1.277,13.988,1.277
			c3.952,0,7.837-0.313,11.642-0.892v19.322c0,7.063-5.746,12.81-12.81,12.81c-7.069,0-12.82-5.746-12.82-12.81V285.961z
			 M158.757,177.873c0-5.668,3.483-10.769,8.627-12.908c1.544,0.633,3.345,1.256,5.406,1.863l3.015,24.685
			c-0.997,0.223-2.022,0.338-3.07,0.338C165.028,191.852,158.757,185.581,158.757,177.873z M339.255,166.878
			c1.966-0.59,3.785-1.226,5.426-1.911c5.114,2.131,8.613,7.197,8.613,12.906c0,7.708-6.271,13.979-13.979,13.979
			c-1.048,0-2.072-0.118-3.069-0.341L339.255,166.878z M179.478,106.585c1.962,1.512,4.545,1.957,6.9,1.191
			c6.288-2.047,13.079-3.828,20.185-5.294c4.057-0.838,6.667-4.805,5.83-8.861s-4.809-6.664-8.861-5.83
			c-6.133,1.266-12.063,2.755-17.686,4.438c-4.801-4.899-7.495-11.44-7.495-18.435c0-14.543,11.832-26.375,26.375-26.375
			c4.901,0,9.687,1.354,13.839,3.914c2.153,1.328,4.83,1.48,7.121,0.406c2.29-1.073,3.885-3.229,4.241-5.734
			c1.832-12.883,13.052-22.598,26.1-22.598s24.267,9.715,26.098,22.598c0.356,2.504,1.951,4.66,4.241,5.734
			c2.289,1.074,4.967,0.923,7.121-0.406c4.153-2.561,8.938-3.914,13.84-3.914c14.543,0,26.375,11.832,26.375,26.375
			c0,6.993-2.693,13.534-7.494,18.433c-20.938-6.283-45.095-9.593-70.181-9.593c-5.303,0-10.722,0.157-16.106,0.468
			c-4.135,0.238-7.294,3.783-7.056,7.919s3.766,7.313,7.919,7.056c5.097-0.293,10.226-0.442,15.243-0.442
			c25.187,0,49.271,3.507,69.647,10.142c0.76,0.247,1.543,0.368,2.321,0.368c1.636,0,3.25-0.535,4.579-1.56
			c2.03-1.564,3.88-3.293,5.556-5.151c6.506,16.053,6.384,34.07-0.568,50.228c-7.198,2.653-20.353,4.894-37.159,6.322
			l-10.001-18.559c-1.353-2.51-4.02-4.025-6.856-3.938c-2.848,0.097-5.396,1.799-6.574,4.393l-8.958,19.712
			c-40.296,0.801-78.804-2.488-93.522-7.927c-6.954-16.16-7.077-34.179-0.569-50.233C175.596,103.29,177.448,105.02,179.478,106.585
			z M131.516,237.086c0-16.127,10.545-30.142,25.848-34.665c4.459,2.803,9.728,4.431,15.373,4.431c1.658,0,3.291-0.137,4.893-0.408
			l1.56,12.772c1.57,12.854,6.263,24.648,13.24,34.689c-11.745,4.204-22.274,10.639-31.128,18.775
			C144.221,269.644,131.516,254.598,131.516,237.086z M293.869,336.959c0,6.76-5.5,12.26-12.26,12.26h-51.17
			c-6.76,0-12.26-5.5-12.26-12.26v-59.636c2.849,1.602,5.809,3.023,8.86,4.259v24.087c0,15.334,12.48,27.81,27.82,27.81
			c15.334,0,27.81-12.476,27.81-27.81v-23.181c3.884-1.428,7.628-3.154,11.2-5.163V336.959z M350.753,272.68
			c-8.855-8.137-19.385-14.572-31.131-18.776c6.977-10.041,11.67-21.836,13.24-34.689l1.56-12.774
			c1.602,0.272,3.235,0.411,4.893,0.411c5.644,0,10.912-1.628,15.371-4.43c15.305,4.523,25.849,18.536,25.849,34.665
			C380.537,254.609,367.837,269.644,350.753,272.68z"/>
		<path d="M219.675,187.86c-4.142,0-7.5,3.402-7.5,7.545s3.358,7.5,7.5,7.5s7.5-3.357,7.5-7.5v-0.09
			C227.175,191.172,223.817,187.86,219.675,187.86z"/>
		<path d="M292.377,187.86c-4.143,0-7.5,3.402-7.5,7.545s3.357,7.5,7.5,7.5s7.5-3.357,7.5-7.5v-0.09
			C299.877,191.172,296.52,187.86,292.377,187.86z"/>
		<path d="M278.412,217.878c-3.982-1.145-8.137,1.153-9.281,5.135c-1.672,5.813-7.061,9.873-13.104,9.873
			c-6.044,0-11.433-4.06-13.104-9.873c-1.145-3.98-5.301-6.283-9.281-5.135c-3.981,1.145-6.28,5.3-5.135,9.281
			c3.51,12.203,14.827,20.727,27.521,20.727s24.01-8.523,27.52-20.727C284.691,223.178,282.392,219.023,278.412,217.878z"/>
		<path d="M291.091,411.29h-70.13c-9.868,0-17.896,8.028-17.896,17.896v14.4c0,15.601,12.692,28.292,28.293,28.292h49.337
			c15.601,0,28.293-12.691,28.293-28.292v-14.4C308.988,419.319,300.959,411.29,291.091,411.29z M293.988,443.587
			c0,7.329-5.963,13.292-13.293,13.292h-49.337c-7.33,0-13.293-5.963-13.293-13.292v-14.4c0-1.597,1.299-2.896,2.896-2.896h70.13
			c1.597,0,2.896,1.3,2.896,2.896V443.587z"/>
		<path d="M122.524,164.076v-12.201c0-4.143-3.358-7.5-7.5-7.5s-7.5,3.357-7.5,7.5v12.201c0,18.53-15.075,33.605-33.605,33.605
			H48.605c-18.53,0-33.605-15.075-33.605-33.605V95.292c0.008-1.59,1.303-2.882,2.895-2.882h26.867v39.608
			c0,4.143,3.358,7.5,7.5,7.5s7.5-3.357,7.5-7.5V92.41h13.722v5.312c0,4.143,3.358,7.5,7.5,7.5s7.5-3.357,7.5-7.5V92.41h16.147
			c1.584,0,2.871,1.279,2.893,2.858v20.855c0,4.143,3.358,7.5,7.5,7.5s7.5-3.357,7.5-7.5V69.153c0-9.868-8.028-17.896-17.896-17.896
			H17.896C8.028,51.256,0,59.284,0,69.153v94.924c0,23.134,16.251,42.532,37.933,47.41v268.774
			c0,12.863,10.465,23.329,23.329,23.329s23.329-10.466,23.329-23.329V211.487C106.273,206.608,122.524,187.21,122.524,164.076z
			 M59.762,77.41V66.256h13.722V77.41H59.762z M107.524,69.153v8.513c-0.944-0.154-1.906-0.256-2.893-0.256H88.484V66.256h16.144
			C106.225,66.256,107.524,67.556,107.524,69.153z M17.896,66.256h26.866V77.41H17.895c-0.988,0-1.95,0.101-2.895,0.256v-8.514
			C15,67.556,16.299,66.256,17.896,66.256z M61.262,488.59c-4.593,0-8.329-3.736-8.329-8.329V212.682h16.658v267.579
			C69.591,484.854,65.854,488.59,61.262,488.59z"/>
		<path d="M475.685,331.49c0.599,0.146,1.198,0.217,1.789,0.217c3.375,0,6.44-2.294,7.279-5.719l3.799-15.517h5.55
			c9.868,0,17.896-8.028,17.896-17.896V274.99c0-9.868-8.028-17.896-17.896-17.896h-56.805c-17.257,0-31.296,14.039-31.296,31.296
			v4.186c0,6.573,3.572,12.313,8.866,15.425v37.721c-5.346,3.638-8.865,9.769-8.865,16.708v24.359c0,4.143,3.357,7.5,7.5,7.5
			s7.5-3.357,7.5-7.5V362.43c0-2.867,2.332-5.199,5.199-5.199h34.812c17.998,0,32.641,14.643,32.641,32.641v93.52
			c0,2.867-2.333,5.199-5.2,5.199h-62.252c-2.867,0-5.199-2.332-5.199-5.199v-60.849c0-4.143-3.357-7.5-7.5-7.5s-7.5,3.357-7.5,7.5
			v60.849c0,11.138,9.062,20.199,20.199,20.199h62.252c11.139,0,20.2-9.062,20.2-20.199v-93.52c0-26.27-21.371-47.641-47.641-47.641
			h-3.596v-31.759h15.691l-2.926,11.95C469.199,326.446,471.662,330.505,475.685,331.49z M421.001,288.39
			c0-8.985,7.311-16.296,16.296-16.296h56.805c1.597,0,2.896,1.3,2.896,2.896v17.585c0,1.597-1.3,2.896-2.896,2.896h-70.204
			c-1.597,0-2.896-1.3-2.896-2.896V288.39z M442.417,342.231h-12.55v-31.759h12.55V342.231z"/>
		<path d="M464.828,179.61c0-21.682-17.639-39.32-39.32-39.32s-39.32,17.639-39.32,39.32s17.639,39.32,39.32,39.32
			S464.828,201.291,464.828,179.61z M401.187,179.61c0-13.41,10.91-24.32,24.32-24.32s24.32,10.91,24.32,24.32
			s-10.91,24.32-24.32,24.32S401.187,193.02,401.187,179.61z"/>
		<path d="M473.153,138.146c16.436,0,29.808-13.372,29.808-29.808s-13.372-29.808-29.808-29.808s-29.808,13.372-29.808,29.808
			S456.717,138.146,473.153,138.146z M473.153,93.531c8.165,0,14.808,6.643,14.808,14.808s-6.643,14.808-14.808,14.808
			s-14.808-6.643-14.808-14.808S464.988,93.531,473.153,93.531z"/>
	</g>
</g>
<g>
</g>
<g>
</g>
<g>
</g>
<g>
</g>
<g>
</g>
<g>
</g>
<g>
</g>
<g>
</g>
<g>
</g>
<g>
</g>
<g>
</g>
<g>
</g>
<g>
</g>
<g>
</g>
<g>
</g>
</svg>
