<?xml version="1.0" encoding="iso-8859-1"?>
<!-- Generator: Adobe Illustrator 23.0.3, SVG Export Plug-In . SVG Version: 6.00 Build 0)  -->
<svg version="1.1" id="Capa_1" xmlns="http://www.w3.org/2000/svg" xmlns:xlink="http://www.w3.org/1999/xlink" x="0px" y="0px"
	 viewBox="0 0 511.989 511.989" style="enable-background:new 0 0 511.989 511.989;" xml:space="preserve">
<g>
	<g>
		<g>
			<g>
				<g>
					<path style="fill:#FF9846;" d="M401.504,299.288v161.8c0,5.172-4.193,9.366-9.366,9.366H120.133
						c-5.172,0-9.366-4.193-9.366-9.366v-161.8c0-31.837,19.184-59.204,46.615-71.165c9.486-4.138,19.969-6.428,30.978-6.428h135.55
						c4.239,0,8.405,0.333,12.46,0.998c6.484,1.044,12.681,2.891,18.519,5.431c0.028,0.009,0.046,0.018,0.074,0.037
						C382.358,240.13,401.504,267.479,401.504,299.288z"/>
					<path style="fill:#FF771C;" d="M401.505,299.292v161.798c0,5.17-4.196,9.366-9.366,9.366h-21.589
						c5.17,0,9.366-4.196,9.366-9.366V299.292c0-31.835-19.182-59.202-46.615-71.163c-5.835-2.548-12.035-4.393-18.517-5.432
						c-4.055-0.665-8.223-1.002-12.466-1.002h21.589c4.243,0,8.411,0.337,12.466,1.002c6.481,1.04,12.682,2.885,18.517,5.432
						C382.324,240.089,401.505,267.457,401.505,299.292z"/>
					<path style="fill:#BDEB73;" d="M354.963,228.16v242.293H157.382v-242.33c9.486-4.138,19.969-6.428,30.978-6.428h135.55
						c4.239,0,8.405,0.333,12.46,0.998c6.484,1.044,12.681,2.891,18.519,5.431C354.917,228.132,354.935,228.142,354.963,228.16z"/>
					<path style="fill:#9AD63B;" d="M354.959,228.163v242.292h-18.172v-247.69c6.337,1.048,12.394,2.874,18.102,5.359
						C354.919,228.133,354.939,228.143,354.959,228.163z"/>
					<g>
						<rect x="203.862" y="247.078" style="fill:#FF9846;" width="104.547" height="95.079"/>
					</g>
				</g>
				<g>
					<g>
						<path style="fill:#9AD63B;" d="M351.056,342.158H310.21c-5.101,0-9.236-4.135-9.236-9.236v-18.315
							c0-5.101,4.135-9.236,9.236-9.236h40.846c5.101,0,9.236,4.135,9.236,9.236v18.315
							C360.292,338.022,356.157,342.158,351.056,342.158z"/>
						<path style="fill:#8EC737;" d="M360.288,314.602v18.322c0,5.099-4.131,9.231-9.231,9.231h-19.788
							c5.109,0,9.241-4.131,9.241-9.231v-18.322c0-5.099-4.131-9.231-9.241-9.231h19.788
							C356.156,305.371,360.288,309.502,360.288,314.602z"/>
					</g>
					<g>
						<path style="fill:#9AD63B;" d="M202.061,342.158h-40.846c-5.101,0-9.236-4.135-9.236-9.236v-18.315
							c0-5.101,4.135-9.236,9.236-9.236h40.846c5.101,0,9.236,4.135,9.236,9.236v18.315
							C211.297,338.022,207.162,342.158,202.061,342.158z"/>
					</g>
				</g>
				<g>
					<circle style="fill:#FFBC8A;" cx="351.401" cy="145.5" r="21.668"/>
					<circle style="fill:#FFBC8A;" cx="160.871" cy="145.5" r="21.668"/>
					<path style="fill:#FDD1A7;" d="M256.136,265.103L256.136,265.103c-44.082,0-80.448-34.512-82.753-78.534l-3.157-60.302
						c-1.34-25.593,19.051-47.079,44.679-47.079h82.461c25.628,0,46.018,21.486,44.679,47.079l-3.157,60.302
						C336.584,230.591,300.218,265.103,256.136,265.103z"/>
					<path style="fill:#E3F6C5;" d="M153.554,104.524l7.513,26.165c3.434,11.959,14.372,20.198,26.815,20.198h136.509
						c12.442,0,23.381-8.239,26.815-20.198l7.513-26.165H153.554z"/>
					<path style="fill:#BDEB73;" d="M358.72,104.525l-7.518,26.165c-3.429,11.961-14.366,20.199-26.814,20.199h-21.579
						c12.438,0,23.375-8.238,26.814-20.199l7.508-26.165H358.72z"/>
					<path style="fill:#BDEB73;" d="M173.874,33.858l69.617-24.226c8.212-2.858,17.15-2.857,25.362,0.003l69.553,24.22
						c14.248,4.962,23.796,18.396,23.796,33.484v33.193c0,5.511-4.468,9.979-9.979,9.979H160.05c-5.511,0-9.979-4.468-9.979-9.979
						V67.344C150.071,52.254,159.622,38.818,173.874,33.858z"/>
					<path style="fill:#9AD63B;" d="M362.204,67.336v33.2c0,5.508-4.471,9.979-9.979,9.979H330.64c5.508,0,9.979-4.471,9.979-9.979
						V58.355c0-11.715-5.758-22.433-14.999-28.949l12.783,4.451C352.654,38.816,362.204,52.248,362.204,67.336z"/>
					<circle style="fill:#FF9846;" cx="256.136" cy="64.486" r="22.794"/>
				</g>
			</g>
			<g>
				<path style="fill:#E0D3CE;" d="M461.226,398.75V243.463c20.984-4.68,36.667-23.4,36.667-45.79c0-0.052,0-0.104,0-0.155
					c-0.021-6.292-7.716-9.371-12.165-4.922l-14.672,14.672c-3.082,3.082-8.078,3.082-11.16,0l-17.588-17.588
					c-3.082-3.082-3.082-8.078,0-11.16l14.293-14.293c4.935-4.935,1.513-13.458-5.466-13.483c-0.057,0-0.114,0-0.171,0
					c-26.648,0-48.106,22.211-46.871,49.14c0.73,15.932,9.551,29.87,22.412,37.786v155.287c-20.984,4.68-36.667,23.4-36.667,45.79
					c0,0.052,0,0.104,0,0.155c0.021,6.292,7.716,9.371,12.165,4.922l14.672-14.672c3.082-3.082,8.078-3.082,11.16,0l17.588,17.588
					c3.082,3.082,3.082,8.078,0,11.16l-14.293,14.293c-4.935,4.935-1.513,13.458,5.466,13.483c0.057,0,0.114,0,0.171,0
					c26.648,0,48.105-22.211,46.871-49.14C482.908,420.603,474.087,406.665,461.226,398.75z"/>
				<rect x="426.505" y="264.682" style="fill:#FF9846;" width="34.722" height="107.054"/>
				<rect x="443.866" y="264.682" style="fill:#FF771C;" width="17.361" height="107.054"/>
			</g>
		</g>
		<g>
			<circle style="fill:#9E9797;" cx="108.204" cy="410.381" r="94.108"/>
			
				<ellipse transform="matrix(0.7071 -0.7071 0.7071 0.7071 -258.491 196.7095)" style="fill:#756F6F;" cx="108.204" cy="410.381" rx="68.522" ry="68.522"/>
			<circle style="fill:#EFE2DD;" cx="108.204" cy="410.381" r="52.559"/>
		</g>
		<g>
			<path style="fill:#CDBFBB;" d="M56.157,255.696V116.513h30.436v139.184c0,5.511-4.468,9.979-9.979,9.979H66.136
				C60.624,265.675,56.157,261.208,56.157,255.696z"/>
			<path style="fill:#EFE2DD;" d="M99.565,129.432H43.184c-5.511,0-9.979-4.468-9.979-9.979V98.497c0-5.511,4.468-9.979,9.979-9.979
				h56.382c5.511,0,9.979,4.468,9.979,9.979v20.956C109.545,124.964,105.077,129.432,99.565,129.432z"/>
		</g>
	</g>
	<g>
		<path d="M217.508,165.93c-4.142,0-7.5,3.406-7.5,7.548s3.358,7.5,7.5,7.5s7.5-3.358,7.5-7.5v-0.096
			C225.008,169.24,221.65,165.93,217.508,165.93z"/>
		<path d="M302.264,173.478v-0.096c0-4.142-3.358-7.452-7.5-7.452s-7.5,3.406-7.5,7.548s3.358,7.5,7.5,7.5
			S302.264,177.62,302.264,173.478z"/>
		<path d="M279.794,197.811c-3.982-1.145-8.136,1.155-9.281,5.135c-1.834,6.377-7.746,10.832-14.377,10.832
			s-12.543-4.454-14.377-10.832c-1.145-3.98-5.299-6.278-9.281-5.135c-3.98,1.145-6.279,5.3-5.135,9.281
			c3.672,12.768,15.513,21.685,28.793,21.685s25.121-8.917,28.793-21.685C286.073,203.112,283.774,198.956,279.794,197.811z"/>
		<path d="M256.136,94.78c16.704,0,30.294-13.59,30.294-30.293c0-16.704-13.59-30.294-30.294-30.294
			c-16.704,0-30.293,13.59-30.293,30.294C225.843,81.19,239.433,94.78,256.136,94.78z M256.136,49.192
			c8.433,0,15.294,6.861,15.294,15.294c0,8.433-6.861,15.293-15.294,15.293c-8.433,0-15.293-6.861-15.293-15.293
			C240.843,56.053,247.704,49.192,256.136,49.192z"/>
		<path d="M211.444,187.351l-11.975-8.108c-3.43-2.323-8.094-1.424-10.416,2.005c-2.322,3.43-1.424,8.093,2.005,10.416l11.975,8.108
			c1.289,0.873,2.751,1.291,4.198,1.291c2.405,0,4.768-1.155,6.217-3.296C215.772,194.337,214.874,189.674,211.444,187.351z"/>
		<path d="M309.35,207.565c-3.083-2.766-7.825-2.509-10.591,0.575l-7.292,8.129c-2.766,3.083-2.508,7.825,0.575,10.591
			c1.432,1.285,3.222,1.917,5.005,1.917c2.056,0,4.104-0.841,5.585-2.492l7.292-8.129
			C312.691,215.073,312.434,210.331,309.35,207.565z"/>
		<path d="M468.727,394.754v-62.958c0-4.142-3.358-7.5-7.5-7.5s-7.5,3.358-7.5,7.5v32.439h-19.722v-92.054h19.722v24.812
			c0,4.142,3.358,7.5,7.5,7.5s7.5-3.358,7.5-7.5v-47.876c21.567-7.48,36.667-28.221,36.667-51.445l0-0.18
			c-0.019-5.877-3.555-11.128-9.007-13.376c-5.498-2.267-11.764-1.022-15.961,3.175l-14.673,14.673
			c-0.031,0.031-0.114,0.114-0.276,0.114c-0.162,0-0.245-0.083-0.277-0.115l-17.588-17.588c-0.031-0.031-0.114-0.114-0.114-0.276
			c0-0.162,0.083-0.245,0.115-0.277l14.293-14.293c4.417-4.417,5.729-11.01,3.344-16.797c-2.366-5.742-7.896-9.467-14.049-9.488
			l-0.235-0.001c-15.009,0-28.986,5.979-39.356,16.834c-10.367,10.853-15.696,25.111-15.007,40.148
			c0.757,16.517,9.046,31.714,22.404,41.438v145.637c-3.52,1.221-6.863,2.8-10.001,4.68v-92.688
			c0-21.507-8.043-42.037-22.647-57.808c-12.41-13.401-28.599-22.335-46.292-25.737c3.577-8.963,5.783-18.639,6.314-28.788
			l0.661-12.634c1.441,0.218,2.897,0.342,4.361,0.342c16.083,0,29.168-13.085,29.168-29.168c0-12.13-7.29-22.61-18.063-26.993
			l1.453-5.06c3.517-3.199,5.742-7.796,5.742-12.914V67.339c0-18.259-11.585-34.562-28.83-40.567L271.32,2.552
			c-9.767-3.401-20.525-3.402-30.293-0.003l-69.618,24.227c-17.249,6.002-28.838,22.306-28.838,40.569v33.188
			c0,5.118,2.225,9.715,5.742,12.915l1.459,5.081c-10.727,4.428-18.07,15.032-18.07,26.973c0,16.083,13.085,29.168,29.168,29.168
			c1.463,0,2.92-0.124,4.361-0.342l0.661,12.635c0.531,10.147,2.736,19.822,6.312,28.783c-17.771,3.419-34.025,12.424-46.447,25.911
			c-14.504,15.747-22.491,36.216-22.491,57.638v9.599c-11.256,0.536-22.228,2.909-32.679,7.077
			c-3.848,1.534-5.723,5.897-4.188,9.744c1.534,3.848,5.896,5.725,9.744,4.188c10.199-4.067,20.986-6.129,32.06-6.129
			c47.756,0,86.608,38.852,86.608,86.608s-38.852,86.608-86.608,86.608s-86.608-38.852-86.608-86.608
			c0-23.965,9.57-46.261,26.948-62.78c3.002-2.854,3.122-7.601,0.269-10.604c-2.855-3.002-7.602-3.122-10.604-0.269
			c-20.386,19.38-31.613,45.537-31.613,73.652c0,56.027,45.582,101.608,101.608,101.608c49.431,0,90.723-35.483,99.762-82.313
			h98.485v12.82c0,4.142,3.358,7.5,7.5,7.5s7.5-3.358,7.5-7.5v-20.32c0-4.142-3.358-7.5-7.5-7.5H209.715
			c0.06-1.425,0.097-2.855,0.097-4.294c0-22.747-7.514-43.772-20.189-60.724h157.768v120.799c0,4.142,3.358,7.5,7.5,7.5
			s7.5-3.358,7.5-7.5V345.199c3.311-3.06,5.401-7.424,5.401-12.277v-18.315c0-4.854-2.089-9.218-5.401-12.277v-61.625
			c4.7,3.095,9.059,6.762,12.959,10.974c12.029,12.989,18.653,29.9,18.653,47.616v105.939c-7.333,9.357-11.666,21.078-11.666,33.513
			v0.18c0.019,5.877,3.555,11.127,9.007,13.375c0.87,0.359,1.761,0.62,2.659,0.805v7.985c0,1.029-0.837,1.866-1.866,1.866
			c-4.142,0-7.5,3.358-7.5,7.5s3.358,7.5,7.5,7.5c9.3,0,16.866-7.566,16.866-16.866v-13.663l12.975-12.975
			c0.152-0.152,0.401-0.152,0.554,0l17.587,17.587c0.153,0.153,0.153,0.401,0,0.554l-14.293,14.293
			c-4.417,4.417-5.729,11.01-3.344,16.797c2.367,5.743,7.896,9.467,14.113,9.489h0.171c15.01,0,28.987-5.979,39.356-16.835
			c10.367-10.853,15.696-25.111,15.006-40.148C490.373,419.675,482.085,404.478,468.727,394.754z M330.384,325.768
			c4.142,0,7.5-3.358,7.5-7.5v-5.398h13.172c0.957,0,1.736,0.779,1.736,1.736v18.315c0,0.958-0.779,1.736-1.736,1.736H310.21
			c-0.958,0-1.736-0.779-1.736-1.736v-18.315c0-0.958,0.779-1.736,1.736-1.736h12.674v5.398
			C322.884,322.411,326.242,325.768,330.384,325.768z M300.91,300.702c-4.48,3.006-7.436,8.116-7.436,13.905v18.315
			c0,0.586,0.032,1.165,0.091,1.736h-74.858c0.059-0.571,0.091-1.15,0.091-1.736v-18.315c0-5.789-2.956-10.898-7.435-13.904v-39.966
			c13.221,7.552,28.51,11.867,44.773,11.867c16.263,0,31.553-4.315,44.774-11.867V300.702z M159.479,322.692v-8.086
			c0-0.958,0.779-1.736,1.736-1.736h13.172v5.398c0,4.142,3.358,7.5,7.5,7.5s7.5-3.358,7.5-7.5v-5.398h12.674
			c0.957,0,1.736,0.779,1.736,1.736v18.315c0,0.958-0.779,1.736-1.736,1.736h-26.186
			C170.835,330.149,165.345,326.135,159.479,322.692z M256.136,257.603c-40.107,0-73.167-31.374-75.263-71.426l-1.51-28.843
			c2.747,0.689,5.603,1.054,8.519,1.054h81.861c4.142,0,7.5-3.358,7.5-7.5s-3.358-7.5-7.5-7.5h-81.861
			c-9.046,0-17.109-6.073-19.606-14.769l-3.046-10.608h181.814l-3.046,10.608c-2.497,8.695-10.56,14.769-19.606,14.769h-19.845
			c-4.142,0-7.5,3.358-7.5,7.5s3.358,7.5,7.5,7.5h19.845c2.915,0,5.771-0.365,8.517-1.053l-1.51,28.842
			C329.302,226.229,296.243,257.603,256.136,257.603z M351.401,159.668c-1.226,0-2.419-0.153-3.57-0.452l0.536-10.245
			c4.575-4.211,8.072-9.629,9.931-15.836c4.353,2.457,7.272,7.156,7.272,12.364C365.569,153.312,359.213,159.668,351.401,159.668z
			 M157.571,67.344c0-11.886,7.542-22.496,18.768-26.402l69.618-24.227c6.588-2.292,13.843-2.292,20.43,0.002l69.552,24.22
			c11.223,3.908,18.763,14.518,18.763,26.401v33.193c0,1.367-1.112,2.479-2.479,2.479H160.05c-1.367,0-2.479-1.112-2.479-2.479
			V67.344z M160.871,159.668c-7.813,0-14.168-6.356-14.168-14.168c0-5.225,2.896-9.913,7.272-12.366
			c1.858,6.207,5.355,11.625,9.93,15.836l0.536,10.243C163.288,159.512,162.097,159.668,160.871,159.668z M196.362,250v47.87
			h-31.481v-64.627c4.641-1.649,9.466-2.821,14.415-3.46C183.98,237.344,189.736,244.153,196.362,250z M136.792,251.818
			c3.932-4.269,8.336-7.981,13.089-11.11v61.621c-3.312,3.06-5.401,7.424-5.401,12.278v0.866
			c-8.276-3.174-17.066-5.298-26.212-6.201v-9.978C118.268,281.647,124.846,264.787,136.792,251.818z M347.391,297.87H315.91V250
			c6.628-5.848,12.385-12.66,17.07-20.223c4.948,0.639,9.77,1.817,14.411,3.466V297.87z M411.585,199.539
			c-0.5-10.905,3.36-21.24,10.87-29.101c7.512-7.864,17.637-12.195,28.509-12.195l0.144,0c0.102,0,0.143,0.015,0.144,0.015
			c0.041,0.024,0.151,0.168,0.174,0.362c0.014,0.116,0.007,0.168-0.128,0.303l-14.292,14.293c-2.908,2.907-4.509,6.772-4.509,10.884
			c0,4.111,1.601,7.977,4.508,10.883l17.587,17.587c2.907,2.908,6.772,4.509,10.884,4.509c4.111,0,7.977-1.601,10.883-4.508
			l14.025-14.024c-0.404,17.95-13.228,33.68-30.79,37.597c-3.429,0.765-5.867,3.807-5.867,7.32v13.719h-19.722v-19.514
			c0-2.604-1.351-5.022-3.569-6.387C419.227,224.383,412.18,212.516,411.585,199.539z M465.277,465.979
			c-7.512,7.865-17.637,12.196-28.51,12.196h-0.145c-0.102,0-0.143-0.015-0.144-0.015c-0.04-0.024-0.151-0.168-0.174-0.363
			c-0.014-0.115-0.006-0.167,0.128-0.302l14.293-14.293c6-6,6.001-15.765,0-21.767l-17.588-17.588c-6.001-6-15.766-6-21.766,0
			l-14.024,14.024c0.404-17.95,13.228-33.679,30.79-37.596c3.429-0.765,5.867-3.807,5.867-7.32v-13.719h19.722v19.514
			c0,2.604,1.351,5.022,3.569,6.387c11.208,6.898,18.256,18.765,18.851,31.742C476.646,447.783,472.786,458.118,465.277,465.979z"/>
		<path d="M108.204,470.44c33.117,0,60.059-26.942,60.059-60.059c0-33.117-26.942-60.06-60.059-60.06
			c-33.117,0-60.06,26.942-60.06,60.06C48.144,443.498,75.087,470.44,108.204,470.44z M108.204,365.322
			c24.846,0,45.059,20.214,45.059,45.06s-20.213,45.059-45.059,45.059s-45.06-20.213-45.06-45.059S83.358,365.322,108.204,365.322z"
			/>
		<path d="M108.204,397.344c4.142,0,7.5-3.358,7.5-7.5v-0.081c0-4.142-3.358-7.46-7.5-7.46s-7.5,3.398-7.5,7.541
			S104.061,397.344,108.204,397.344z"/>
		<path d="M108.204,438.499c4.142,0,7.5-3.358,7.5-7.5v-0.081c0-4.142-3.358-7.459-7.5-7.459s-7.5,3.398-7.5,7.541
			S104.061,438.499,108.204,438.499z"/>
		<path d="M128.781,417.921c4.142,0,7.5-3.358,7.5-7.5v-0.081c0-4.142-3.358-7.46-7.5-7.46s-7.5,3.398-7.5,7.541
			S124.639,417.921,128.781,417.921z"/>
		<path d="M87.626,417.921c4.142,0,7.5-3.358,7.5-7.5v-0.081c0-4.142-3.358-7.46-7.5-7.46s-7.5,3.398-7.5,7.541
			S83.484,417.921,87.626,417.921z"/>
		<path d="M43.184,136.932h5.473v14.36l-0.953,0.16c-4.085,0.686-6.841,4.553-6.155,8.638c0.599,3.569,3.628,6.115,7.107,6.247
			v12.663l-0.953,0.16c-4.085,0.686-6.84,4.554-6.154,8.639c0.599,3.569,3.628,6.115,7.107,6.246v12.662l-0.953,0.16
			c-4.085,0.686-6.841,4.553-6.155,8.638c0.599,3.569,3.628,6.115,7.107,6.247v12.663l-0.953,0.16
			c-4.085,0.686-6.84,4.554-6.154,8.639c0.599,3.569,3.628,6.115,7.107,6.246v6.238c0,9.638,7.841,17.479,17.479,17.479h10.478
			c9.638,0,17.479-7.841,17.479-17.479v-13.702l0.728-0.122c4.085-0.686,6.84-4.554,6.154-8.639
			c-0.586-3.491-3.498-6.003-6.882-6.234v-12.713l0.727-0.122c4.085-0.686,6.841-4.553,6.155-8.638
			c-0.586-3.492-3.498-6.002-6.882-6.234V186.58l0.728-0.122c4.085-0.686,6.84-4.554,6.154-8.639
			c-0.586-3.491-3.498-6.004-6.882-6.234v-12.712l0.727-0.122c4.085-0.686,6.841-4.553,6.155-8.638
			c-0.586-3.491-3.498-6.003-6.882-6.234v-6.946h5.473c9.638,0,17.479-7.841,17.479-17.479V98.497
			c0-9.638-7.841-17.479-17.479-17.479H43.184c-9.638,0-17.479,7.841-17.479,17.479v20.956
			C25.705,129.091,33.546,136.932,43.184,136.932z M79.093,255.696c0,1.367-1.112,2.479-2.479,2.479H66.136
			c-1.367,0-2.479-1.112-2.479-2.479v-8.591l15.436-2.592V255.696z M79.093,229.303l-15.436,2.592v-12.497l15.436-2.592V229.303z
			 M79.093,201.596l-15.436,2.592V191.69l15.436-2.592V201.596z M79.093,173.888l-15.436,2.592v-12.497l15.436-2.592V173.888z
			 M79.093,146.181l-15.436,2.592v-11.841h15.436V146.181z M40.705,98.497c0-1.367,1.112-2.479,2.479-2.479h56.381
			c1.367,0,2.479,1.112,2.479,2.479v20.956c0,1.367-1.112,2.479-2.479,2.479H43.184c-1.367,0-2.479-1.112-2.479-2.479V98.497z"/>
	</g>
</g>
<g>
</g>
<g>
</g>
<g>
</g>
<g>
</g>
<g>
</g>
<g>
</g>
<g>
</g>
<g>
</g>
<g>
</g>
<g>
</g>
<g>
</g>
<g>
</g>
<g>
</g>
<g>
</g>
<g>
</g>
</svg>
