<?xml version="1.0" encoding="iso-8859-1"?>
<!-- Generator: Adobe Illustrator 23.0.3, SVG Export Plug-In . SVG Version: 6.00 Build 0)  -->
<svg version="1.1" id="Capa_1" xmlns="http://www.w3.org/2000/svg" xmlns:xlink="http://www.w3.org/1999/xlink" x="0px" y="0px"
	 viewBox="0 0 512 512" style="enable-background:new 0 0 512 512;" xml:space="preserve">
<g>
	<g>
		<g>
			<circle style="fill:#5B5555;" cx="373.272" cy="171.716" r="28.28"/>
		</g>
		<circle style="fill:#E0D3CE;" cx="408.888" cy="387.732" r="35.615"/>
		<g>
			<path style="fill:#5B5555;" d="M459.854,252.479c-29.961,0-54.249-13.59-54.249-30.354s24.288-30.354,54.249-30.354V252.479z"/>
			<ellipse style="fill:#E0D3CE;" cx="459.854" cy="222.125" rx="15.739" ry="30.354"/>
		</g>
		<path style="fill:#E0D3CE;" d="M282.261,341.512h-39.204v-80.481h66.567v53.118C309.623,329.262,297.373,341.512,282.261,341.512z
			"/>
		<g>
			
				<ellipse transform="matrix(1 -0.0022 0.0022 1 -0.5037 0.6808)" style="fill:#FAC574;" cx="309.924" cy="229.806" rx="91.131" ry="61.969"/>
			<path style="fill:#D8AA64;" d="M401.056,229.609c0.07,34.225-40.671,62.056-90.995,62.165c-5.836,0.01-11.552-0.35-17.088-1.049
				c42.44-5.366,74.567-30.718,74.497-61.116c-0.07-30.248-32.007-55.38-74.177-60.726c5.346-0.68,10.862-1.039,16.498-1.049
				C360.115,167.723,400.976,195.384,401.056,229.609z"/>
		</g>
		<g id="XMLID_723_">
			<g id="XMLID_736_">
				<g id="XMLID_737_">
					<g id="XMLID_740_">
						<path style="fill:#5B5555;" d="M408.888,485.946c-52.721,0-95.612-42.892-95.612-95.612s42.892-95.612,95.612-95.612
							s95.612,42.892,95.612,95.612S461.608,485.946,408.888,485.946z M408.888,321.536c-37.935,0-68.798,30.863-68.798,68.798
							s30.863,68.798,68.798,68.798s68.798-30.863,68.798-68.798S446.823,321.536,408.888,321.536z"/>
					</g>
				</g>
			</g>
			<path style="fill:#FAC574;" d="M421.655,379.435L408.559,137.44h-27.499l13.165,243.478c0.394,7.286,6.417,12.993,13.714,12.993
				h0C415.817,393.911,422.08,387.3,421.655,379.435z"/>
		</g>
		<g>
			<path style="fill:#756F6F;" d="M279.205,325.978v151.217c0,4.829-3.913,8.751-8.751,8.751H16.255
				c-4.838,0-8.751-3.922-8.751-8.751V325.978c0-29.751,17.928-55.33,43.563-66.505c8.862-3.867,18.659-6.004,28.946-6.004h126.683
				c3.959,0,7.854,0.305,11.638,0.925c6.059,0.981,11.85,2.701,17.309,5.079c0.028,0.009,0.046,0.019,0.074,0.037
				C261.314,270.694,279.205,296.255,279.205,325.978z"/>
			<rect x="229.957" y="376.939" style="fill:#DB885D;" width="49.253" height="26.52"/>
			<rect x="229.957" y="429.978" style="fill:#DB885D;" width="49.253" height="26.52"/>
			<rect x="105.749" y="253.469" style="fill:#E84649;" width="75.211" height="232.477"/>
			<path style="fill:#FFBC8A;" d="M180.96,253.469v28.624c0,20.768-16.837,37.605-37.605,37.605
				c-10.38,0-19.788-4.209-26.587-11.018c-6.809-6.8-11.018-16.198-11.018-26.587v-28.624H180.96z"/>
			<path style="fill:#5B5555;" d="M279.205,325.987v151.207c0,4.829-3.913,8.751-8.751,8.751h-20.176
				c4.838,0,8.761-3.922,8.761-8.751V325.987c0-29.751-17.929-55.33-43.572-66.505c-5.449-2.387-11.24-4.107-17.299-5.079
				c-3.793-0.62-7.688-0.934-11.647-0.934h20.167c3.969,0,7.863,0.315,11.656,0.934c6.059,0.971,11.85,2.692,17.299,5.079
				C261.286,270.657,279.205,296.236,279.205,325.987z"/>
			<rect x="259.038" y="376.942" style="fill:#C86D3D;" width="20.167" height="26.513"/>
			<rect x="259.038" y="429.978" style="fill:#C86D3D;" width="20.167" height="26.523"/>
			<path style="fill:#756F6F;" d="M271.943,154.643c0,71.018-57.571,116.588-128.589,116.588S14.766,225.66,14.766,154.643
				S72.337,26.054,143.354,26.054S271.943,83.625,271.943,154.643z"/>
			<path style="fill:#5B5555;" d="M271.943,154.642c0,71.02-57.569,116.59-128.589,116.59c-3.525,0-7.022-0.111-10.481-0.342
				c66.108-4.255,118.098-48.762,118.098-116.248c0-67.486-51.991-122.835-118.098-128.163c3.46-0.287,6.957-0.426,10.481-0.426
				C214.374,26.053,271.943,83.622,271.943,154.642z"/>
			<path style="fill:#FDD1A7;" d="M143.354,291.324L143.354,291.324c-41.197,0-75.183-32.253-77.337-73.394l-2.95-56.355
				c-1.252-23.918,17.804-43.997,41.754-43.997h77.064c23.951,0,43.006,20.079,41.754,43.997l-2.95,56.355
				C218.537,259.071,184.551,291.324,143.354,291.324z"/>
			<path style="fill:#006AC3;" d="M129.531,179.545v27.346c0,13.83-11.212,25.052-25.052,25.052H82.795
				c-4.459,0-8.65-1.166-12.276-3.219c-2.081-1.166-3.987-2.627-5.643-4.33c-4.413-4.524-7.132-10.685-7.132-17.503v-27.346H129.531
				z"/>
			<path style="fill:#5592D7;" d="M119.697,179.545l-49.178,49.178c-2.081-1.166-3.987-2.627-5.643-4.33l44.84-44.849H119.697z"/>
			<path style="fill:#5592D7;" d="M129.534,183.861v23.023c0,13.838-11.217,25.055-25.055,25.055H82.795
				c-0.437,0-0.874-0.01-1.301-0.038L129.534,183.861z"/>
			<path style="fill:#006AC3;" d="M228.965,179.549v27.335c0,13.838-11.217,25.055-25.055,25.055h-21.683
				c-4.54,0-8.804-1.206-12.48-3.334c-4.398-2.526-7.95-6.344-10.144-10.941c-1.558-3.267-2.431-6.914-2.431-10.78v-27.335H228.965z
				"/>
			<path style="fill:#5592D7;" d="M218.803,179.549l-49.056,49.056c-4.398-2.526-7.95-6.344-10.144-10.941l38.114-38.114H218.803z"
				/>
			<path style="fill:#5B5555;" d="M71.535,110.853h143.638c5.829,0,10.206,5.326,9.075,11.045l-3.335,16.873
				c-1.632,8.255-8.873,14.205-17.288,14.205H83.083c-8.415,0-15.656-5.95-17.288-14.205l-3.335-16.873
				C61.33,116.179,65.706,110.853,71.535,110.853z"/>
			<circle style="fill:#FAC574;" cx="98.223" cy="374.042" r="16.729"/>
			<circle style="fill:#5592D7;" cx="217.338" cy="354.131" r="12.619"/>
			<circle style="fill:#E84649;" cx="66.76" cy="326.658" r="12.813"/>
		</g>
		<path style="fill:#E0D3CE;" d="M416.49,147.852l-73.252-3.798c-6.258-0.325-11.166-5.493-11.166-11.76v0
			c0-6.743,5.652-12.109,12.386-11.76l73.252,3.798c6.258,0.325,11.166,5.493,11.166,11.76v0
			C428.876,142.835,423.225,148.201,416.49,147.852z"/>
	</g>
	<g>
		<path d="M485.182,321.035c-16.071-17.679-37.562-29.161-60.944-32.669l-1.946-35.965c10.57,4.881,23.633,7.578,37.562,7.578
			c13.249,0,23.239-16.273,23.239-37.854c0-21.581-9.99-37.854-23.239-37.854c-15.337,0-29.71,3.327-40.753,9.173l-2.06-38.077
			c0.015,0,0.03,0.001,0.046,0.001c4.915,0,9.71-1.901,13.287-5.298c3.814-3.623,6.003-8.718,6.003-13.979
			c0-10.264-8.028-18.719-18.277-19.25l-73.253-3.799c-5.242-0.265-10.455,1.649-14.271,5.272
			c-3.814,3.623-6.003,8.718-6.003,13.979c0,10.264,8.028,18.719,18.277,19.25l0.838,0.043c-2.423,3.546-4.173,7.476-5.181,11.635
			c-9.167-1.91-18.823-2.901-28.735-2.885c-10.544,0.023-20.811,1.183-30.642,3.451c0.205-3.014,0.314-6.062,0.314-9.146
			c0-75.039-61.049-136.088-136.089-136.088c-24.874,0-49.214,6.777-70.39,19.598c-3.543,2.146-4.677,6.757-2.531,10.301
			c2.145,3.543,6.755,4.677,10.3,2.531c18.833-11.402,40.487-17.43,62.621-17.43c66.769,0,121.089,54.319,121.089,121.088
			c0,33.826-14.171,63.087-39.508,82.904c0.703-2.442,1.301-4.933,1.791-7.469c6.004-5.909,9.736-14.12,9.736-23.189v-27.342
			c0-3.582-2.512-6.572-5.869-7.317l0.537-10.262c0.366-6.99-0.726-13.802-3.218-20.271c0.127-0.487,0.26-0.971,0.359-1.47
			l3.335-16.873c0.976-4.936-0.296-9.995-3.491-13.883c-3.194-3.887-7.911-6.116-12.942-6.116H71.536
			c-5.031,0-9.749,2.229-12.942,6.116c-3.194,3.888-4.466,8.947-3.491,13.883l3.335,16.873c0.099,0.501,0.233,0.987,0.36,1.476
			c-2.491,6.462-3.586,13.27-3.22,20.265l0.537,10.262c-3.357,0.745-5.869,3.735-5.869,7.317v27.342
			c0,9.067,3.73,17.276,9.731,23.184c0.492,2.549,1.096,5.052,1.805,7.507c-25.361-19.8-39.516-49.029-39.516-82.936
			c0-30.601,11.45-59.814,32.242-82.26c2.815-3.039,2.633-7.784-0.405-10.599c-3.039-2.815-7.785-2.634-10.599,0.405
			C20.135,87.416,7.266,120.25,7.266,154.642c0,39.333,16.698,73.136,46.537,95.738c-12.234,4.237-23.349,11.41-32.364,21.095
			C7.613,286.326,0,305.684,0,325.985v151.208c0,8.962,7.291,16.253,16.253,16.253c4.142,0,7.5-3.357,7.5-7.5s-3.358-7.5-7.5-7.5
			c-0.691,0-1.253-0.563-1.253-1.253V325.985c0-32.549,24.46-60.157,56.332-64.432c0.865,0.46,1.736,0.913,2.617,1.358
			c6.509,9.21,14.788,17.011,24.301,22.968v63.935c-0.009,0-0.018-0.001-0.026-0.001c-13.36,0-24.229,10.869-24.229,24.229
			s10.869,24.229,24.229,24.229c0.009,0,0.018-0.001,0.026-0.001v87.676c0,4.143,3.358,7.5,7.5,7.5s7.5-3.357,7.5-7.5v-92.919
			c5.6-4.442,9.203-11.299,9.203-18.985s-3.602-14.543-9.203-18.985v-39.408c7.99,7.177,18.545,11.553,30.105,11.553
			s22.115-4.376,30.105-11.553v81.141c0,4.143,3.358,7.5,7.5,7.5s7.5-3.357,7.5-7.5V285.908
			c9.573-5.987,17.895-13.838,24.419-23.122c0.309-0.111,0.615-0.239,0.915-0.394c0.53-0.273,1.045-0.562,1.57-0.841
			c31.877,4.269,56.344,31.88,56.344,64.434v43.454h-34.251v-14.618c0-0.117-0.012-0.23-0.017-0.345
			c0.002-0.116,0.017-0.228,0.017-0.344c0-11.094-9.025-20.119-20.119-20.119s-20.119,9.025-20.119,20.119
			c0,11.093,9.025,20.118,20.119,20.118c1.771,0,3.481-0.253,5.119-0.685v112.381c0,4.143,3.358,7.5,7.5,7.5s7.5-3.357,7.5-7.5
			v-21.948h34.251v13.195c0,0.69-0.563,1.253-1.253,1.253c-4.143,0-7.5,3.357-7.5,7.5s3.357,7.5,7.5,7.5
			c8.962,0,16.253-7.291,16.253-16.253V348.719c17.129-2.192,30.415-16.854,30.415-34.569v-15.072
			c5.514-0.286,10.985-0.884,16.336-1.804c4.082-0.702,6.823-4.58,6.121-8.662s-4.582-6.826-8.662-6.121
			c-6.798,1.169-13.82,1.769-20.874,1.784c-13.737,0.032-27.355-2.193-39.444-6.427c-1.661-2.201-3.431-4.333-5.33-6.373
			c-9.018-9.688-20.137-16.863-32.374-21.099c23.233-17.62,38.51-42.056,44.129-70.546c10.366-2.947,21.372-4.468,32.78-4.494
			c26.223-0.096,51.079,8.083,66.976,21.859l3.348,61.91c-4.798,4.831-10.675,9.131-17.523,12.795
			c-3.652,1.954-5.029,6.499-3.075,10.151c1.352,2.525,3.942,3.964,6.62,3.964c1.193,0,2.404-0.286,3.531-0.889
			c4.106-2.197,7.924-4.612,11.464-7.209l0.698,12.912c-20.834,5.681-39.652,17.982-53.304,34.942
			c-14.68,18.236-22.764,41.164-22.764,64.561c0,56.856,46.256,103.112,103.112,103.112S512,447.19,512,390.333
			C512,364.669,502.476,340.058,485.182,321.035z M88.994,374.042c0-5.089,4.14-9.229,9.229-9.229c5.089,0,9.229,4.14,9.229,9.229
			s-4.14,9.229-9.229,9.229C93.134,383.27,88.994,379.13,88.994,374.042z M237.457,410.958h34.251v11.52h-34.251V410.958z
			 M271.708,384.439v11.52h-34.251v-11.52H271.708z M217.338,359.25c-2.822,0-5.119-2.296-5.119-5.118s2.296-5.119,5.119-5.119
			s5.119,2.297,5.119,5.119S220.16,359.25,217.338,359.25z M237.457,448.998v-11.52h34.251v11.52H237.457z M302.123,299.06v15.09
			c0,9.421-6.6,17.315-15.415,19.342v-7.507c0-10.299-1.968-20.352-5.704-29.7C287.857,297.738,294.948,298.67,302.123,299.06z
			 M157.174,172.045c-4.142,0-7.5,3.357-7.5,7.5v12.754h-12.64v-12.754c0-4.143-3.358-7.5-7.5-7.5H71.126l-0.569-10.862
			c-0.071-1.364-0.06-2.717,0.025-4.057c3.71,2.137,7.991,3.35,12.5,3.35h120.543c4.508,0,8.788-1.212,12.497-3.347
			c0.085,1.34,0.099,2.691,0.028,4.053l-0.569,10.863H157.174z M65.246,206.887v-19.842h56.789v19.842
			c0,9.678-7.874,17.552-17.552,17.552H82.797C73.119,224.439,65.246,216.565,65.246,206.887z M164.674,187.045h56.789v19.842
			c0,9.678-7.874,17.552-17.552,17.552h-21.685c-9.678,0-17.552-7.874-17.552-17.552V187.045z M70.183,118.993
			c0.24-0.292,0.669-0.64,1.353-0.64h143.638c0.684,0,1.113,0.348,1.353,0.64c0.24,0.291,0.498,0.78,0.365,1.451l-3.336,16.873
			c-0.934,4.728-5.11,8.159-9.93,8.159H83.083c-4.819,0-8.996-3.432-9.93-8.159l-3.335-16.873
			C69.685,119.773,69.943,119.284,70.183,118.993z M143.354,312.201c-12.28,0-22.86-7.394-27.538-17.961
			c8.672,2.966,17.938,4.584,27.538,4.584c9.603,0,18.866-1.61,27.53-4.565C166.201,304.815,155.627,312.201,143.354,312.201z
			 M143.354,283.824c-29.371,0-55.045-18.188-65.258-44.729c1.536,0.223,3.104,0.344,4.701,0.344h21.685
			c17.811,0,32.319-14.38,32.542-32.14h12.661c0.222,17.759,14.73,32.14,32.541,32.14h21.685c1.597,0,3.167-0.121,4.703-0.344
			C198.416,265.652,172.791,283.824,143.354,283.824z M401.977,154.61l12.188,225.231c0.094,1.727-0.51,3.369-1.699,4.625
			c-1.189,1.255-2.796,1.946-4.525,1.946c-3.312,0-6.047-2.591-6.226-5.898l-12.25-226.552L401.977,154.61z M386.736,381.324
			c0.61,11.265,9.924,20.088,21.204,20.088c5.805,0,11.423-2.417,15.415-6.631s6.102-9.955,5.788-15.751l-0.615-11.359
			c5.281,5.204,8.474,12.405,8.474,20.061c0,15.502-12.612,28.114-28.115,28.114s-28.115-12.612-28.115-28.114
			c0-6.048,1.964-11.818,5.415-16.555L386.736,381.324z M385.137,351.753c-12.017,7.945-19.365,21.449-19.365,35.979
			c0,23.773,19.342,43.114,43.115,43.114s43.115-19.341,43.115-43.114c0-16.567-9.715-31.786-24.493-38.892l-0.931-17.205
			c25.67,7.672,43.607,31.253,43.607,58.698c0,33.801-27.498,61.299-61.298,61.299s-61.299-27.498-61.299-61.299
			c0-24.369,14.708-46.395,36.602-56.089L385.137,351.753z M464.324,240.136c-1.829,3.528-3.713,4.843-4.471,4.843
			s-2.641-1.314-4.471-4.843c-2.395-4.618-3.768-11.183-3.768-18.011s1.373-13.394,3.769-18.012c1.829-3.528,3.712-4.843,4.47-4.843
			s2.642,1.314,4.471,4.843c2.396,4.618,3.769,11.184,3.769,18.012S466.72,235.518,464.324,240.136z M440.135,201.545
			c-2.241,5.853-3.52,12.875-3.52,20.58c0,7.713,1.282,14.741,3.526,20.598c-7.395-1.777-13.891-4.553-18.814-8.124l-1.297-23.977
			C425.016,206.606,432.041,203.491,440.135,201.545z M339.572,132.293c0-1.598,0.834-2.629,1.332-3.101
			c0.497-0.473,1.577-1.253,3.165-1.17l73.253,3.799c2.272,0.117,4.054,1.993,4.054,4.27c0,1.598-0.834,2.629-1.332,3.101
			c-0.497,0.473-1.587,1.249-3.165,1.17l-73.253-3.799C341.353,136.446,339.572,134.57,339.572,132.293z M353.011,167.153
			c0.849-3.806,2.743-7.306,5.568-10.13c1.851-1.852,3.996-3.298,6.363-4.334l9.458,0.491l1.333,24.653
			C368.868,173.51,361.226,169.926,353.011,167.153z M408.888,478.446c-48.585,0-88.112-39.527-88.112-88.112
			c0-20.276,6.725-39.349,19.448-55.154c10.993-13.656,25.893-23.771,42.452-28.96l0.662,12.234
			c-30.091,10.734-50.748,39.66-50.748,71.88c0,42.071,34.228,76.299,76.299,76.299c42.07,0,76.298-34.228,76.298-76.299
			c0-18.123-6.49-35.701-18.274-49.497c-10.731-12.563-25.232-21.296-41.182-24.911l-0.66-12.199
			c18.781,3.503,35.979,13.06,49.014,27.399C488.861,347.381,497,368.409,497,390.333C497,438.918,457.473,478.446,408.888,478.446z
			"/>
		<path d="M180.96,425.042c-4.142,0-7.5,3.357-7.5,7.5v53.403c0,4.143,3.358,7.5,7.5,7.5s7.5-3.357,7.5-7.5v-53.403
			C188.46,428.4,185.102,425.042,180.96,425.042z"/>
		<path d="M56.751,353.25c-4.142,0-7.5,3.357-7.5,7.5v125.192c0,4.143,3.358,7.5,7.5,7.5s7.5-3.357,7.5-7.5V360.75
			C64.251,356.608,60.893,353.25,56.751,353.25z"/>
		<path d="M165.291,240.929c-3.59-2.066-8.175-0.832-10.242,2.759c-2.406,4.18-6.887,6.776-11.695,6.776s-9.289-2.597-11.695-6.777
			c-2.067-3.589-6.654-4.824-10.242-2.758c-3.589,2.066-4.824,6.652-2.758,10.242c5.076,8.816,14.539,14.293,24.695,14.293
			c10.157,0,19.62-5.477,24.695-14.294C170.115,247.581,168.88,242.996,165.291,240.929z"/>
		<path d="M87.073,326.658c0-11.201-9.112-20.313-20.313-20.313s-20.313,9.112-20.313,20.313s9.113,20.313,20.313,20.313
			S87.073,337.859,87.073,326.658z M66.76,331.971c-2.93,0-5.313-2.384-5.313-5.313s2.384-5.313,5.313-5.313
			s5.313,2.384,5.313,5.313S69.689,331.971,66.76,331.971z"/>
		<path d="M206.098,380.273c-4.142,0-7.5,3.397-7.5,7.54s3.358,7.5,7.5,7.5s7.5-3.357,7.5-7.5v-0.081
			C213.598,383.589,210.24,380.273,206.098,380.273z"/>
		<path d="M215.303,320.531v-0.082c0-4.143-3.358-7.459-7.5-7.459s-7.5,3.398-7.5,7.541s3.358,7.5,7.5,7.5
			S215.303,324.673,215.303,320.531z"/>
		<path d="M310.006,198.046c-4.143,0-7.5,3.357-7.5,7.5s3.357,7.5,7.5,7.5h18.429c4.143,0,7.5-3.357,7.5-7.5s-3.357-7.5-7.5-7.5
			H310.006z"/>
	</g>
</g>
<g>
</g>
<g>
</g>
<g>
</g>
<g>
</g>
<g>
</g>
<g>
</g>
<g>
</g>
<g>
</g>
<g>
</g>
<g>
</g>
<g>
</g>
<g>
</g>
<g>
</g>
<g>
</g>
<g>
</g>
</svg>
