<?xml version="1.0" encoding="iso-8859-1"?>
<!-- Generator: Adobe Illustrator 23.0.3, SVG Export Plug-In . SVG Version: 6.00 Build 0)  -->
<svg version="1.1" id="Capa_1" xmlns="http://www.w3.org/2000/svg" xmlns:xlink="http://www.w3.org/1999/xlink" x="0px" y="0px"
	 viewBox="0 0 512 512" style="enable-background:new 0 0 512 512;" xml:space="preserve">
<g>
	<g>
		<g>
			<g>
				<g>
					<path style="fill:#E84649;" d="M455.691,88.874h-53.854V35.02c0-6.677-5.413-12.09-12.09-12.09h-60.978
						c-6.677,0-12.09,5.413-12.09,12.09v53.854h-53.854c-6.677,0-12.09,5.413-12.09,12.09v60.978c0,6.677,5.413,12.09,12.09,12.09
						h53.854v53.854c0,6.677,5.413,12.09,12.09,12.09h60.978c6.677,0,12.09-5.413,12.09-12.09v-53.854h53.854
						c6.677,0,12.09-5.413,12.09-12.09v-60.978C467.781,94.287,462.368,88.874,455.691,88.874z"/>
				</g>
				<g>
					<g>
						<path style="fill:#E19A77;" d="M494.446,473.769H297.124c-5.552,0-10.054-4.501-10.054-10.053V213.014
							c0-5.552,4.501-10.054,10.054-10.054h197.322c5.552,0,10.054,4.501,10.054,10.054v250.701
							C504.5,469.268,499.999,473.769,494.446,473.769z"/>
						<path style="fill:#D77F4F;" d="M504.5,213.015v250.704c0,5.55-4.504,10.053-10.053,10.053h-27.748
							c5.55,0,10.053-4.504,10.053-10.053V213.015c0-5.55-4.504-10.053-10.053-10.053h27.748
							C499.996,202.961,504.5,207.465,504.5,213.015z"/>
						<g>
							<path style="fill:#FFF5F5;" d="M467.064,445.484H324.506c-5.349,0-9.685-4.336-9.685-9.685V212.646
								c0-5.349,4.336-9.685,9.685-9.685h142.558c5.349,0,9.685,4.336,9.685,9.685v223.152
								C476.75,441.148,472.413,445.484,467.064,445.484z"/>
						</g>
						<path style="fill:#756F6F;" d="M422.26,234.946h-52.949c-5.552,0-10.054-4.501-10.054-10.054v-21.931h73.056v21.931
							C432.313,230.445,427.812,234.946,422.26,234.946z"/>
					</g>
				</g>
			</g>
			<g>
				<path style="fill:#B0E5B1;" d="M308.564,497.168H17.138c-5.323,0-9.638-4.315-9.638-9.638V321.036
					c0-44.1,35.751-79.851,79.851-79.851h151c44.1,0,79.851,35.751,79.851,79.851V487.53
					C318.202,492.853,313.887,497.168,308.564,497.168z"/>
				<path style="fill:#77D47D;" d="M318.198,321.034V487.53c0,5.32-4.308,9.637-9.637,9.637H287.89c5.32,0,9.637-4.317,9.637-9.637
					V321.034c0-44.098-35.753-79.851-79.851-79.851h20.671C282.455,241.183,318.198,276.936,318.198,321.034z"/>
				<g>
					<g>
						<circle style="fill:#FFBC8A;" cx="260.881" cy="164.567" r="22.297"/>
					</g>
					<g>
						<circle style="fill:#FFBC8A;" cx="64.821" cy="164.567" r="22.297"/>
					</g>
					<path style="fill:#FDD1A7;" d="M162.851,281.859L162.851,281.859c-45.362,0-82.784-35.514-85.155-80.814L71.912,90.548H253.79
						l-5.784,110.497C245.635,246.345,208.213,281.859,162.851,281.859z"/>
					<path style="fill:#DB885D;" d="M101.586,130.72c-5.475,0-9.943,4.473-9.942,9.948c0.001,7.212-1.393,16.665-7.732,22.384
						c-6.023,5.434-15.708,1.594-16.541-6.475c-1.313-12.709-2.623-35.277-0.12-64.444c1.998-23.274,21.174-41.325,44.529-41.788
						h101.172c23.355,0.463,42.531,18.514,44.529,41.788c2.504,29.167,1.193,51.735-0.12,64.444
						c-0.834,8.069-10.518,11.909-16.541,6.475c-6.339-5.719-7.733-15.172-7.732-22.384c0.001-5.475-4.467-9.948-9.942-9.948
						H101.586z"/>
					<path style="fill:#AC5E33;" d="M257.36,156.573c-0.83,8.07-10.52,11.91-16.54,6.48c-0.96-0.87-1.81-1.82-2.55-2.84
						c0.57-1.08,0.95-2.3,1.09-3.64c1.31-12.71,2.62-35.27,0.12-64.44c-2-23.27-21.17-41.32-44.53-41.79h18
						c23.36,0.47,42.53,18.52,44.53,41.79C259.98,121.303,258.67,143.863,257.36,156.573z"/>
				</g>
				<g>
					<path style="fill:#E3F6C5;" d="M215.377,94.858H110.326V24.752c0-5.479,4.442-9.921,9.921-9.921h85.21
						c5.479,0,9.921,4.442,9.921,9.921V94.858z"/>
				</g>
			</g>
		</g>
		<g>
			<path style="fill:#E84649;" d="M169.418,490.672L169.418,490.672c-8.66-8.66-8.66-22.701,0-31.361l26.13-26.13
				c8.66-8.66,22.701-8.66,31.361,0l0,0c8.66,8.66,8.66,22.701,0,31.361l-26.13,26.13
				C192.119,499.333,178.079,499.333,169.418,490.672z"/>
			<path style="fill:#E3F6C5;" d="M213.847,477.605l-13.069,13.069c-8.656,8.656-22.701,8.656-31.357,0
				c-8.664-8.664-8.664-22.708-0.007-31.364l13.069-13.069L213.847,477.605z"/>
		</g>
		<g>
			<path style="fill:#E84649;" d="M369.713,489.48L369.713,489.48c-8.003,9.271-22.005,10.299-31.277,2.297l-27.974-24.146
				c-9.271-8.002-10.299-22.005-2.297-31.276l0,0c8.002-9.271,22.005-10.299,31.276-2.297l27.974,24.146
				C376.688,466.206,377.716,480.209,369.713,489.48z"/>
			<path style="fill:#E3F6C5;" d="M353.427,446.128l13.991,12.077c9.267,7.999,10.296,22.006,2.297,31.273
				c-8.006,9.275-22.012,10.303-31.279,2.304l-13.991-12.077L353.427,446.128z"/>
		</g>
	</g>
	<g>
		<path d="M494.446,195.461h-85.11v-13.929h46.354c10.802,0,19.59-8.788,19.59-19.59v-60.979c0-10.802-8.788-19.59-19.59-19.59
			h-46.354V35.02c0-10.802-8.788-19.59-19.59-19.59h-60.978c-10.802,0-19.59,8.788-19.59,19.59v46.354h-46.107
			c-5.403-18.781-20.865-33.393-40.195-37.424V24.752c0-9.606-7.815-17.421-17.42-17.421h-36.918c-4.142,0-7.5,3.358-7.5,7.5
			s3.358,7.5,7.5,7.5h36.918c1.334,0,2.42,1.086,2.42,2.421v62.606h-90.051V24.752c0-1.335,1.086-2.421,2.421-2.421h12.539
			c4.142,0,7.5-3.358,7.5-7.5s-3.358-7.5-7.5-7.5h-12.539c-9.606,0-17.421,7.815-17.421,17.421v19.016
			c-23.157,4.376-41,23.878-43.047,47.724c-1.459,16.994-1.658,31.792-1.288,43.961c-13.399,2.911-23.467,14.856-23.467,29.114
			c0,16.43,13.367,29.797,29.797,29.797c1.679,0,3.348-0.157,4.992-0.436l0.393,7.51c0.609,11.635,3.363,22.662,7.831,32.74
			c-10.091,1.063-19.822,3.858-29.028,8.363c-3.721,1.82-5.261,6.313-3.44,10.033c1.301,2.66,3.968,4.206,6.742,4.205
			c1.106,0,2.23-0.246,3.291-0.765c9.568-4.682,19.826-7.135,30.506-7.312c15.403,22.649,40.525,38.031,69.243,40.332v129.368
			c0,4.142,3.358,7.5,7.5,7.5s7.5-3.358,7.5-7.5V289.034c28.713-2.301,53.83-17.677,69.233-40.318
			c39.326,0.664,71.118,32.839,71.118,72.32v103.77c-3.071,1.684-5.851,3.917-8.208,6.648c-5.181,6.002-7.716,13.66-7.138,21.563
			c0.578,7.906,4.202,15.114,10.205,20.295l5.142,4.438v9.779c0,1.179-0.959,2.138-2.138,2.138c-4.142,0-7.5,3.358-7.5,7.5
			s3.358,7.5,7.5,7.5c8.447,0,15.469-6.149,16.868-14.202l8.103,6.994c5.435,4.691,12.23,7.21,19.339,7.21
			c0.739,0,1.48-0.027,2.225-0.082c7.906-0.582,15.113-4.208,20.293-10.209c3.357-3.889,5.523-8.408,6.532-13.109h112.522
			c9.679,0,17.554-7.875,17.554-17.553V213.014C512,203.336,504.125,195.461,494.446,195.461z M366.758,210.461h58.055v14.431
			c0,1.408-1.146,2.554-2.553,2.554h-52.949c-1.408,0-2.553-1.146-2.553-2.554V210.461z M316.679,96.374c4.142,0,7.5-3.358,7.5-7.5
			V35.02c0-2.531,2.059-4.59,4.59-4.59h60.978c2.531,0,4.59,2.059,4.59,4.59v53.854c0,4.142,3.358,7.5,7.5,7.5h53.854
			c2.531,0,4.59,2.059,4.59,4.59v60.979c0,2.531-2.059,4.59-4.59,4.59h-53.854c-4.142,0-7.5,3.358-7.5,7.5v21.429h-69.83h-0.328
			v-21.429c0-4.142-3.358-7.5-7.5-7.5h-26.072c0.043-0.651,0.072-1.305,0.072-1.966c0-14.598-10.555-26.769-24.431-29.304
			c0.327-10.948,0.189-24.018-0.907-38.888H316.679z M257.136,170.1c4.292-2.861,7.141-7.479,7.686-12.753
			c0.215-2.083,0.423-4.386,0.615-6.853c5.935,1.927,10.242,7.503,10.242,14.072c0,8.159-6.638,14.797-14.797,14.797
			c-1.446,0-2.846-0.225-4.198-0.625L257.136,170.1z M222.876,59.407c13.036,3.882,23.146,14.604,26.265,27.951h-26.265V59.407z
			 M249.787,102.358c0.312,0,0.617-0.025,0.919-0.062c1.433,23.408,0.41,41.752-0.804,53.51c-0.138,1.335-1.08,1.889-1.629,2.1
			c-0.627,0.242-1.556,0.363-2.427-0.423c-4.575-4.126-5.256-12.306-5.256-16.813c0.001-4.651-1.815-9.03-5.112-12.33
			c-3.299-3.301-7.678-5.12-12.33-5.12H101.586c-4.652,0-9.031,1.818-12.33,5.12c-3.297,3.3-5.113,7.679-5.112,12.329
			c0,4.508-0.681,12.688-5.256,16.814c-0.871,0.786-1.8,0.665-2.427,0.423c-0.549-0.211-1.492-0.765-1.629-2.1
			c-1.218-11.788-2.242-30.199-0.792-53.694c0.601,0.155,1.227,0.246,1.876,0.246H249.787z M102.826,59.139v28.219h-26.91
			c-0.111,0-0.219,0.012-0.328,0.017C78.779,73.691,89.319,62.771,102.826,59.139z M64.821,179.364
			c-8.159,0-14.797-6.638-14.797-14.797c0-6.215,3.856-11.538,9.298-13.726c0.185,2.336,0.384,4.521,0.589,6.507
			c0.586,5.673,3.84,10.589,8.688,13.373l0.42,8.031C67.664,179.151,66.25,179.364,64.821,179.364z M162.851,274.359
			c-41.387,0-75.501-32.375-77.665-73.706l-1.506-28.778c1.898-0.748,3.682-1.834,5.256-3.254
			c6.68-6.026,10.209-15.692,10.208-27.954c0-0.871,0.453-1.454,0.723-1.724c0.27-0.27,0.852-0.722,1.719-0.722h121.561
			c0.868,0,1.45,0.453,1.719,0.722c0.27,0.271,0.723,0.854,0.723,1.725c-0.001,12.261,3.528,21.928,10.208,27.954
			c1.836,1.656,3.953,2.865,6.208,3.604l-1.488,28.429C238.353,241.984,204.238,274.359,162.851,274.359z M255.496,201.438
			l0.392-7.49c1.636,0.275,3.302,0.416,4.994,0.416c10.129,0,19.089-5.085,24.476-12.832h23.822v13.929h-12.054
			c-9.679,0-17.554,7.875-17.554,17.553v31.026c-9.692-5.209-20.473-8.642-31.908-9.859
			C252.132,224.103,254.887,213.074,255.496,201.438z M294.571,254.239v-41.224c0-1.408,1.146-2.553,2.554-2.553h10.352
			c-0.092,0.717-0.155,1.443-0.155,2.185v54.85C303.545,262.643,299.269,258.199,294.571,254.239z M313.849,441.255
			c2.562-2.968,6.122-4.76,10.025-5.047c0.367-0.027,0.733-0.041,1.098-0.041c3.519,0,6.882,1.247,9.571,3.568c0,0,0,0,0,0
			l8.305,7.169l-19.181,22.222l-8.306-7.169c-2.968-2.562-4.76-6.125-5.046-10.034C310.03,448.014,311.284,444.225,313.849,441.255z
			 M364.038,484.576c-2.563,2.969-6.129,4.763-10.04,5.051c-3.912,0.283-7.696-0.964-10.662-3.524l-8.313-7.176l19.181-22.222
			l8.314,7.176C368.642,469.169,369.324,478.452,364.038,484.576z M497,463.716c0,1.408-1.146,2.553-2.554,2.553H381.277
			c-1.517-4.961-4.35-9.577-8.455-13.286h94.243c9.476,0,17.186-7.709,17.186-17.185V273.937c0-4.142-3.358-7.5-7.5-7.5
			s-7.5,3.358-7.5,7.5v161.861c0,1.205-0.98,2.185-2.186,2.185H355.47l-11.126-9.604l0,0c-5.257-4.538-11.785-7.043-18.643-7.205
			v-100.14c0-8.354-1.181-16.437-3.381-24.092v-84.297c0-1.205,0.98-2.185,2.185-2.185h27.251v14.431
			c0,9.679,7.875,17.554,17.553,17.554h52.949c9.679,0,17.553-7.875,17.553-17.554v-14.431h27.251c1.205,0,2.186,0.98,2.186,2.185
			v26.387c0,4.142,3.358,7.5,7.5,7.5s7.5-3.358,7.5-7.5v-26.387c0-0.742-0.063-1.468-0.155-2.185h10.351
			c1.408,0,2.554,1.146,2.554,2.553V463.716z"/>
		<path d="M442.725,267.623h-2.912v-2.912c0-4.142-3.358-7.5-7.5-7.5s-7.5,3.358-7.5,7.5v2.912h-2.912c-4.142,0-7.5,3.358-7.5,7.5
			s3.358,7.5,7.5,7.5h2.912v2.912c0,4.142,3.358,7.5,7.5,7.5s7.5-3.358,7.5-7.5v-2.912h2.912c4.142,0,7.5-3.358,7.5-7.5
			S446.867,267.623,442.725,267.623z"/>
		<path d="M442.725,309.996h-84.473c-4.142,0-7.5,3.358-7.5,7.5s3.358,7.5,7.5,7.5h84.473c4.142,0,7.5-3.358,7.5-7.5
			S446.867,309.996,442.725,309.996z"/>
		<path d="M442.725,338.763h-84.473c-4.142,0-7.5,3.358-7.5,7.5s3.358,7.5,7.5,7.5h84.473c4.142,0,7.5-3.358,7.5-7.5
			S446.867,338.763,442.725,338.763z"/>
		<path d="M442.725,367.531h-84.473c-4.142,0-7.5,3.358-7.5,7.5s3.358,7.5,7.5,7.5h84.473c4.142,0,7.5-3.358,7.5-7.5
			S446.867,367.531,442.725,367.531z"/>
		<path d="M442.725,396.298h-84.473c-4.142,0-7.5,3.358-7.5,7.5s3.358,7.5,7.5,7.5h84.473c4.142,0,7.5-3.358,7.5-7.5
			S446.867,396.298,442.725,396.298z"/>
		<path d="M29.269,265.763c-3.252-2.564-7.969-2.006-10.533,1.246C6.479,282.558,0,301.24,0,321.036V487.53
			c0,9.45,7.688,17.138,17.138,17.138c4.142,0,7.5-3.358,7.5-7.5s-3.358-7.5-7.5-7.5c-1.179,0-2.138-0.959-2.138-2.138V321.036
			c0-16.394,5.365-31.864,15.516-44.74C33.08,273.044,32.522,268.328,29.269,265.763z"/>
		<path d="M60.986,344.67c-4.142,0-7.5,3.358-7.5,7.5v144.997c0,4.142,3.358,7.5,7.5,7.5s7.5-3.358,7.5-7.5V352.17
			C68.486,348.028,65.128,344.67,60.986,344.67z"/>
		<path d="M264.546,344.67c-4.142,0-7.5,3.358-7.5,7.5v144.997c0,4.142,3.358,7.5,7.5,7.5s7.5-3.358,7.5-7.5V352.17
			C272.046,348.028,268.688,344.67,264.546,344.67z"/>
		<path d="M123.102,185.808c-4.142,0-7.5,3.407-7.5,7.549s3.358,7.5,7.5,7.5s7.5-3.358,7.5-7.5v-0.099
			C130.602,189.116,127.244,185.808,123.102,185.808z"/>
		<path d="M202.601,185.808c-4.142,0-7.5,3.407-7.5,7.549s3.358,7.5,7.5,7.5s7.5-3.358,7.5-7.5v-0.099
			C210.101,189.116,206.743,185.808,202.601,185.808z"/>
		<path d="M187.135,218.606c-3.984-1.145-8.136,1.155-9.281,5.135c-1.914,6.655-8.083,11.303-15.003,11.303
			s-13.09-4.648-15.003-11.303c-1.145-3.981-5.301-6.282-9.281-5.135c-3.981,1.145-6.28,5.3-5.135,9.281
			c3.752,13.046,15.85,22.158,29.419,22.158s25.667-9.111,29.419-22.158C193.415,223.906,191.116,219.751,187.135,218.606z"/>
		<path d="M149.344,62.344h6.007v6.007c0,4.142,3.358,7.5,7.5,7.5s7.5-3.358,7.5-7.5v-6.007h6.007c4.142,0,7.5-3.358,7.5-7.5
			s-3.358-7.5-7.5-7.5h-6.007v-6.007c0-4.142-3.358-7.5-7.5-7.5s-7.5,3.358-7.5,7.5v6.007h-6.007c-4.142,0-7.5,3.358-7.5,7.5
			S145.202,62.344,149.344,62.344z"/>
		<path d="M199.667,340.969c4.142,0,7.5-3.358,7.5-7.5v-0.086c0-4.142-3.358-7.457-7.5-7.457s-7.5,3.401-7.5,7.543
			S195.525,340.969,199.667,340.969z"/>
		<path d="M199.667,377.027c4.142,0,7.5-3.358,7.5-7.5v-0.086c0-4.142-3.358-7.457-7.5-7.457s-7.5,3.401-7.5,7.543
			S195.525,377.027,199.667,377.027z"/>
		<path d="M199.667,413.086c4.142,0,7.5-3.358,7.5-7.5V405.5c0-4.142-3.358-7.457-7.5-7.457s-7.5,3.4-7.5,7.542
			S195.525,413.086,199.667,413.086z"/>
		<path d="M211.229,419.185c-0.003,0-0.006,0-0.01,0c-7.923,0-15.374,3.087-20.978,8.691l-26.131,26.131
			c-5.604,5.604-8.689,13.056-8.688,20.983s3.089,15.381,8.695,20.987c5.785,5.786,13.383,8.677,20.982,8.677
			c7.598,0,15.198-2.893,20.982-8.677l26.131-26.131c5.605-5.605,8.692-13.059,8.693-20.989c0-7.92-3.087-15.369-8.693-20.975
			C226.606,422.277,219.154,419.187,211.229,419.185z M174.724,485.371c-2.773-2.773-4.301-6.461-4.302-10.382
			c0-3.92,1.525-7.605,4.295-10.375l7.766-7.766l20.758,20.758l-7.766,7.766C189.754,491.092,180.444,491.092,174.724,485.371z
			 M221.606,459.24l-7.759,7.759l-20.758-20.758l7.759-7.759c2.771-2.771,6.455-4.298,10.372-4.298c0.001,0,0.003,0,0.004,0
			c3.92,0.001,7.606,1.53,10.381,4.305c2.772,2.772,4.299,6.455,4.299,10.368C225.905,452.781,224.378,456.468,221.606,459.24z"/>
	</g>
</g>
<g>
</g>
<g>
</g>
<g>
</g>
<g>
</g>
<g>
</g>
<g>
</g>
<g>
</g>
<g>
</g>
<g>
</g>
<g>
</g>
<g>
</g>
<g>
</g>
<g>
</g>
<g>
</g>
<g>
</g>
</svg>
