<?xml version="1.0" encoding="iso-8859-1"?>
<!-- Generator: Adobe Illustrator 23.0.3, SVG Export Plug-In . SVG Version: 6.00 Build 0)  -->
<svg version="1.1" id="Capa_1" xmlns="http://www.w3.org/2000/svg" xmlns:xlink="http://www.w3.org/1999/xlink" x="0px" y="0px"
	 viewBox="0 0 512 512" style="enable-background:new 0 0 512 512;" xml:space="preserve">
<g>
	<g>
		<g>
			<g>
				<g>
					<path style="fill:#9E9797;" d="M463.614,242.041c0,17.987-8.255,32.568-18.439,32.568s-18.439-14.581-18.439-32.568
						s8.255-21.475,18.439-21.475S463.614,224.054,463.614,242.041z"/>
					<path style="fill:#756F6F;" d="M463.61,242.04c0,17.99-8.25,32.57-18.44,32.57c-2.86,0-5.57-1.15-7.99-3.21
						c6.18-5.26,10.44-16.43,10.44-29.36s-4.26-18.36-10.44-20.4c2.42-0.79,5.13-1.07,7.99-1.07
						C455.36,220.57,463.61,224.05,463.61,242.04z"/>
				</g>
				<g>
					<path style="fill:#9E9797;" d="M293.835,242.041c0,17.987-8.255,32.568-18.439,32.568s-18.439-14.581-18.439-32.568
						s8.255-21.475,18.439-21.475S293.835,224.054,293.835,242.041z"/>
					<path style="fill:#756F6F;" d="M293.83,242.04c0,17.99-8.25,32.57-18.43,32.57c-2.95,0-5.73-1.22-8.2-3.39
						c6.07-5.34,10.24-16.4,10.24-29.18c0-12.78-4.17-18.24-10.24-20.33c2.47-0.85,5.25-1.14,8.2-1.14
						C285.58,220.57,293.83,224.05,293.83,242.04z"/>
				</g>
			</g>
			<g>
				<g>
					<path style="fill:#65BAFC;" d="M371.044,229.499l125.995,35.867c4.298,1.223,7.262,5.15,7.262,9.618v17.243
						c0,5.523-4.477,10-10,10H371.044V229.499z"/>
					<path style="fill:#0097FA;" d="M504.3,274.98v17.25c0,5.52-4.48,10-10,10h-17c5.52,0,10-4.48,10-10v-23.25
						c0-2.83-1.19-5.44-3.16-7.28l12.9,3.67C501.34,266.59,504.3,270.52,504.3,274.98z"/>
					<path style="fill:#65BAFC;" d="M349.528,229.499l-125.995,35.867c-4.298,1.223-7.262,5.15-7.262,9.618v17.243
						c0,5.523,4.477,10,10,10h123.257V229.499z"/>
				</g>
				<path style="fill:#FFF5F5;" d="M379.91,179.6v181.16c0,31.97-8.79,52.77-19.62,52.77c-10.84,0-19.62-20.8-19.62-52.77V179.6
					c0-14.16,1.72-26.14,4.59-35.08c3.6-11.23,8.99-17.68,15.03-17.68c6.03,0,11.43,6.44,15.02,17.67
					C378.18,153.45,379.91,165.43,379.91,179.6z"/>
				<path style="fill:#65BAFC;" d="M375.31,144.51c-4.26,2.98-9.44,4.72-15.02,4.72c-5.58,0-10.77-1.74-15.03-4.71
					c3.6-11.23,8.99-17.68,15.03-17.68C366.32,126.84,371.72,133.28,375.31,144.51z"/>
			</g>
		</g>
		<g>
			<path style="fill:#B6DCFF;" d="M469.456,404.555c1.263-5.092,1.945-10.415,1.945-15.898c0-36.348-29.466-65.814-65.814-65.814
				c-28.439,0-52.663,18.039-61.859,43.299c-8.623-6.278-19.233-9.991-30.715-9.991c-28.858,0-52.253,23.394-52.253,52.253
				c0,4.353,0.541,8.579,1.544,12.622c-15.689,1.987-27.823,15.373-27.823,31.601c0,17.599,14.267,31.865,31.865,31.865h198.019
				c22.166,0,40.135-17.969,40.135-40.135C504.5,423.917,489.216,407.058,469.456,404.555z"/>
			<path style="fill:#65BAFC;" d="M504.5,444.36c0,20.55-15.45,37.49-35.38,39.85c6.99-7.22,11.28-17.06,11.28-27.89
				c0-20.44-15.28-37.3-35.05-39.8c1.27-5.09,1.95-10.42,1.95-15.9c0-36.35-29.47-65.81-65.81-65.81c-5.72,0-11.28,0.73-16.57,2.1
				c11.19-8.81,25.32-14.07,40.67-14.07c36.34,0,65.81,29.47,65.81,65.82c0,5.48-0.68,10.8-1.94,15.89
				C489.22,407.06,504.5,423.92,504.5,444.36z"/>
			<g>
				<path style="fill:#1475CC;" d="M293.577,331.067v159.206c0,5.089-4.126,9.215-9.215,9.215H16.715
					c-5.089,0-9.215-4.126-9.215-9.215V331.067c0-31.327,18.876-58.255,45.868-70.024c9.334-4.072,19.649-6.325,30.482-6.325
					h133.378c4.171,0,8.27,0.327,12.26,0.982c6.38,1.027,12.478,2.845,18.222,5.344c0.027,0.009,0.045,0.018,0.073,0.036
					C274.737,272.857,293.577,299.767,293.577,331.067z"/>
				<path style="fill:#0057A1;" d="M293.578,331.07v159.204c0,5.087-4.129,9.216-9.216,9.216H263.12
					c5.087,0,9.216-4.129,9.216-9.216V331.07c0-31.325-18.874-58.254-45.867-70.022c-5.741-2.507-11.842-4.322-18.22-5.345
					c-3.99-0.654-8.092-0.986-12.266-0.986h21.243c4.175,0,8.276,0.332,12.266,0.986c6.377,1.023,12.478,2.838,18.22,5.345
					C274.704,272.816,293.578,299.745,293.578,331.07z"/>
				<g>
					<ellipse style="fill:#1475CC;" cx="150.539" cy="69.344" rx="135.368" ry="56.836"/>
					<path style="fill:#0057A1;" d="M285.91,69.34c0,31.39-60.61,56.84-135.37,56.84c-4.21,0-8.37-0.08-12.48-0.24
						c68.91-2.65,122.88-26.98,122.88-56.6S206.97,15.4,138.06,12.75c4.11-0.16,8.27-0.24,12.48-0.24
						C225.3,12.51,285.91,37.95,285.91,69.34z"/>
					<g>
						<circle style="fill:#FFBC8A;" cx="244.277" cy="184.478" r="21.321"/>
					</g>
					<g>
						<circle style="fill:#FFBC8A;" cx="56.801" cy="184.478" r="21.321"/>
					</g>
					<g>
						<path style="fill:#FAC574;" d="M207.607,294.68l-14.055-14.055l-43.013,3.202v82.038l57.068-57.068
							C211.506,304.899,211.506,298.578,207.607,294.68z"/>
					</g>
					<g>
						<path style="fill:#FAC574;" d="M93.471,294.68l14.055-14.055l43.013,3.202v82.038l-57.068-57.068
							C89.573,304.899,89.573,298.578,93.471,294.68z"/>
					</g>
					<path style="fill:#FDD1A7;" d="M150.539,296.164L150.539,296.164c-43.376,0-79.159-33.959-81.426-77.275l-3.106-59.335
						c-1.318-25.183,18.745-46.324,43.963-46.324h81.14c25.217,0,45.281,21.141,43.963,46.324l-3.106,59.335
						C229.697,262.205,193.914,296.164,150.539,296.164z"/>
					<g>
						<path style="fill:#1475CC;" d="M49.601,138.159l7.393,25.746c3.379,11.767,14.142,19.875,26.385,19.875H217.7
							c12.243,0,23.006-8.107,26.385-19.875l7.393-25.746H49.601z"/>
						<path style="fill:#0057A1;" d="M251.478,138.16l-7.397,25.745c-3.374,11.77-14.136,19.876-26.384,19.876h-21.233
							c12.239,0,23-8.106,26.384-19.876l7.387-25.745H251.478z"/>
					</g>
					<g>
						<path style="fill:#FAC574;" d="M250.479,95.881H50.599c-5.513,0-9.983,4.469-9.983,9.983v25.307
							c0,5.513,4.469,9.983,9.983,9.983h199.88c5.513,0,9.983-4.469,9.983-9.983v-25.307
							C260.462,100.35,255.993,95.881,250.479,95.881z"/>
						<path style="fill:#D8AA64;" d="M260.459,105.866v25.306c0,5.51-4.462,9.983-9.983,9.983h-21.333
							c5.51,0,9.983-4.472,9.983-9.983v-25.306c0-5.52-4.472-9.983-9.983-9.983h21.333
							C255.996,95.883,260.459,100.346,260.459,105.866z"/>
					</g>
					<circle style="fill:#FFF5F5;" cx="150.539" cy="95.881" r="21.238"/>
					<path style="fill:#E0D3CE;" d="M171.782,95.883c0,11.73-9.514,21.233-21.243,21.233c-2.975,0-5.81-0.609-8.385-1.717
						c7.557-3.254,12.848-10.761,12.848-19.516c0-8.755-5.291-16.272-12.848-19.526c2.576-1.108,5.411-1.717,8.385-1.717
						C162.269,74.64,171.782,84.154,171.782,95.883z"/>
				</g>
			</g>
		</g>
	</g>
	<g>
		<path d="M478.199,398.776c0.466-3.354,0.701-6.737,0.701-10.119c0-40.425-32.889-73.314-73.313-73.314
			c-6.224,0-12.322,0.803-18.18,2.312v-7.928h106.895c9.649,0,17.5-7.851,17.5-17.5v-17.243c0-7.78-5.227-14.702-12.709-16.831
			l-28.493-8.111c0.328-2.618,0.513-5.288,0.513-8.001c0-19.226-8.727-28.975-25.938-28.975c-15.145,0-23.718,7.551-25.559,22.462
			l-32.209-9.169v-46.756c0-36.61-10.646-60.267-27.121-60.267s-27.121,23.656-27.121,60.267v46.756l-32.211,9.169
			c-1.841-14.911-10.414-22.463-25.559-22.463c-17.212,0-25.939,9.749-25.939,28.975c0,2.709,0.185,5.381,0.514,8.002l-5.747,1.636
			c-3.71-1.26-7.515-2.262-11.396-2.993c3.773-9.118,6.083-19.014,6.627-29.404l0.332-6.348c1.482,0.234,2.982,0.366,4.489,0.366
			c15.893,0,28.821-12.929,28.821-28.821c0-12.535-7.943-23.281-19.301-27.22l2.794-9.729c6.63-2.486,11.372-8.871,11.372-16.359
			v-24.467c16.646-10.691,25.445-23.565,25.445-37.36c0-18.396-15.713-35.125-44.245-47.104
			c-26.466-11.112-61.491-17.231-98.623-17.231s-72.157,6.12-98.623,17.231C23.384,34.219,7.671,50.948,7.671,69.344
			c0,13.812,8.784,26.681,25.445,37.377v24.451c0,7.488,4.741,13.873,11.372,16.359l2.792,9.723
			c-11.371,3.923-19.301,14.634-19.301,27.225c0,15.892,12.929,28.821,28.821,28.821c1.508,0,3.008-0.133,4.49-0.366l0.333,6.348
			c0.544,10.394,2.856,20.293,6.631,29.414C29.293,256.068,0,290.54,0,331.072v159.205c0,9.217,7.499,16.716,16.716,16.716
			c4.143,0,7.5-3.358,7.5-7.5s-3.357-7.5-7.5-7.5c-0.946,0-1.716-0.77-1.716-1.716v-69.245h16.909c4.143,0,7.5-3.358,7.5-7.5
			s-3.357-7.5-7.5-7.5H15v-12.887h16.909c4.143,0,7.5-3.358,7.5-7.5s-3.357-7.5-7.5-7.5H15v-47.073
			c0-34.849,26.36-64.26,60.595-68.363c5.051,7.861,11.303,14.855,18.488,20.752l-5.917,5.917c-6.815,6.816-6.815,17.907,0,24.724
			l54.872,54.872v130.516c0,4.142,3.357,7.5,7.5,7.5s7.5-3.358,7.5-7.5V368.973l54.872-54.872
			c6.815-6.816,6.815-17.908-0.001-24.724l-5.917-5.916c7.182-5.894,13.433-12.886,18.483-20.743
			c16.179,1.933,31.11,9.526,42.273,21.578c11.819,12.76,18.328,29.372,18.328,46.776v47.073h-16.908c-4.143,0-7.5,3.358-7.5,7.5
			s3.357,7.5,7.5,7.5h16.908v12.887h-16.908c-4.143,0-7.5,3.358-7.5,7.5s3.357,7.5,7.5,7.5h16.908v69.245
			c0,0.946-0.771,1.716-1.717,1.716c-4.143,0-7.5,3.358-7.5,7.5s3.357,7.5,7.5,7.5c8.638,0,15.767-6.586,16.629-15h22.135
			c4.143,0,7.5-3.358,7.5-7.5s-3.357-7.5-7.5-7.5h-22.047V365.259c3.865-1.067,7.864-1.608,11.936-1.608
			c9.52,0,18.615,2.958,26.302,8.554c1.905,1.388,4.35,1.798,6.604,1.11c2.253-0.688,4.052-2.394,4.858-4.608
			c8.354-22.947,30.38-38.364,54.811-38.364c32.154,0,58.313,26.16,58.313,58.314c0,4.738-0.58,9.479-1.724,14.093
			c-0.516,2.079-0.118,4.278,1.093,6.045s3.119,2.931,5.244,3.2c16.24,2.057,28.486,15.97,28.486,32.362
			c0,17.995-14.64,32.635-32.635,32.635H358.876c-4.143,0-7.5,3.358-7.5,7.5s3.357,7.5,7.5,7.5h105.489
			c26.266,0,47.635-21.369,47.635-47.635C512,423.133,497.929,404.755,478.199,398.776z M64.203,161.834l-3.785-13.181h18.039
			c4.143,0,7.5-3.358,7.5-7.5s-3.357-7.5-7.5-7.5H50.599c-1.369,0-2.482-1.114-2.482-2.482v-25.307c0-1.369,1.113-2.483,2.482-2.483
			H122.8c3.307,12.22,14.487,21.239,27.739,21.239s24.432-9.018,27.739-21.239h72.201c1.369,0,2.482,1.114,2.482,2.483v25.307
			c0,1.369-1.113,2.482-2.482,2.482H114.21c-4.143,0-7.5,3.358-7.5,7.5s3.357,7.5,7.5,7.5h126.451l-3.785,13.181
			c-2.442,8.505-10.328,14.445-19.177,14.445H83.379C74.53,176.279,66.645,170.339,64.203,161.834z M136.801,95.881
			c0-7.575,6.163-13.738,13.738-13.738s13.738,6.163,13.738,13.738c0,7.576-6.163,13.739-13.738,13.739
			S136.801,103.457,136.801,95.881z M244.276,198.299c-1.273,0-2.506-0.18-3.697-0.509l0.829-15.842
			c3.172-2.927,5.819-6.441,7.745-10.403c5.277,1.973,8.944,7.035,8.944,12.933C258.098,192.099,251.897,198.299,244.276,198.299z
			 M22.671,69.344c0-11.793,12.776-23.921,35.052-33.274c24.67-10.358,57.633-16.062,92.816-16.062s68.146,5.704,92.816,16.062
			c22.275,9.353,35.052,21.481,35.052,33.274c0,5.666-2.981,14.128-16.45,23.365c-3.075-2.686-7.084-4.328-11.478-4.328h-72.201
			c-3.308-12.22-14.487-21.238-27.739-21.238s-24.431,9.018-27.739,21.238H50.599c-4.389,0-8.394,1.638-11.467,4.318
			C31.574,87.463,22.671,79.203,22.671,69.344z M56.801,198.299c-7.621,0-13.821-6.2-13.821-13.821
			c0-5.924,3.66-10.974,8.942-12.939c1.926,3.964,4.573,7.479,7.746,10.408l0.83,15.843
			C59.306,198.119,58.074,198.299,56.801,198.299z M98.774,299.983l7.883-7.883c10.916,6.192,23.254,10.133,36.382,11.23v44.429
			l-44.265-44.264C97.807,302.527,97.806,300.951,98.774,299.983z M202.304,299.983c0.969,0.968,0.968,2.543,0,3.511l-44.265,44.265
			v-44.429c13.128-1.097,25.466-5.038,36.382-11.23L202.304,299.983z M150.538,288.665c-39.399,0-71.876-30.821-73.936-70.168
			l-1.478-28.221c2.664,0.655,5.431,1.004,8.255,1.004h134.32c2.823,0,5.589-0.349,8.253-1.004l-1.477,28.221
			C222.415,257.843,189.938,288.665,150.538,288.665z M440.122,294.727h-23.334v-10.132h23.334V294.727z M445.175,228.066
			c5.869,0,10.938,0,10.938,13.975c0,1.295-0.066,2.569-0.162,3.831l-21.662-6.167C434.84,228.07,439.652,228.066,445.175,228.066z
			 M350.302,155.228c3.206,0.989,6.563,1.502,9.989,1.502c3.423,0,6.778-0.514,9.98-1.504c0.824,4.183,1.467,9.037,1.825,14.569
			c-3.711-1.682-7.798-2.605-12.036-2.605c-4.073,0-7.99,0.839-11.568,2.38C348.852,164.133,349.489,159.353,350.302,155.228z
			 M360.286,134.337c1.301,0,3.429,2.125,5.541,6.561c-1.776,0.547-3.637,0.832-5.537,0.832c-1.903,0-3.767-0.284-5.546-0.831
			C356.857,136.463,358.985,134.337,360.286,134.337z M264.456,242.041c0-13.975,5.069-13.975,10.939-13.975
			c5.522,0,10.335,0.004,10.886,11.64l-21.666,6.167C264.519,244.609,264.456,243.333,264.456,242.041z M264.185,261.592
			l68.98-19.636v52.771h-14.383v-17.632c0-4.142-3.357-7.5-7.5-7.5h-32.334c-1.342,0-2.599,0.357-3.689,0.974
			C271.803,267.251,268.102,264.245,264.185,261.592z M287.005,284.595h16.778v10.132h-10.994
			C291.104,291.228,289.173,287.844,287.005,284.595z M301.077,349.858v-18.786c0-7.281-0.957-14.442-2.769-21.345h34.857v42.424
			c-6.406-2.299-13.192-3.5-20.152-3.5C308.971,348.651,304.984,349.065,301.077,349.858z M348.165,343.111V188.677
			c2.596-4.034,7.02-6.487,11.895-6.487c5.16,0,9.862,2.801,12.348,7.234v57.699c0,4.142,3.357,7.5,7.5,7.5s7.5-3.358,7.5-7.5
			v-5.168l107.579,30.624c1.068,0.304,1.815,1.293,1.815,2.404v17.243c0,1.378-1.121,2.5-2.5,2.5h-39.18v-17.632
			c0-4.142-3.357-7.5-7.5-7.5h-38.334c-4.143,0-7.5,3.358-7.5,7.5v17.632h-14.381v-11.85c0-4.142-3.357-7.5-7.5-7.5
			s-7.5,3.358-7.5,7.5v40.458C363.043,328.104,354.75,334.843,348.165,343.111z"/>
		<path d="M241.721,360.176c-4.143,0-7.5,3.358-7.5,7.5v131.816c0,4.142,3.357,7.5,7.5,7.5s7.5-3.358,7.5-7.5V367.676
			C249.221,363.534,245.863,360.176,241.721,360.176z"/>
		<path d="M59.356,360.176c-4.143,0-7.5,3.358-7.5,7.5v131.813c0,4.142,3.357,7.5,7.5,7.5s7.5-3.358,7.5-7.5V367.676
			C66.856,363.534,63.499,360.176,59.356,360.176z"/>
		<path d="M112.529,198.461c-4.143,0-7.5,3.405-7.5,7.547s3.357,7.5,7.5,7.5s7.5-3.358,7.5-7.5v-0.094
			C120.029,201.772,116.672,198.461,112.529,198.461z"/>
		<path d="M188.548,198.461c-4.143,0-7.5,3.405-7.5,7.547s3.357,7.5,7.5,7.5s7.5-3.358,7.5-7.5v-0.094
			C196.048,201.772,192.69,198.461,188.548,198.461z"/>
		<path d="M173.85,229.836c-3.978-1.146-8.136,1.154-9.28,5.135c-1.789,6.224-7.56,10.57-14.031,10.57s-12.241-4.347-14.03-10.57
			c-1.145-3.981-5.3-6.278-9.28-5.135c-3.981,1.145-6.28,5.3-5.136,9.281c3.627,12.615,15.325,21.425,28.446,21.425
			c13.122,0,24.82-8.81,28.447-21.425C180.13,235.136,177.831,230.98,173.85,229.836z"/>
		<path d="M183.53,400.042h-4.464c-4.143,0-7.5,3.358-7.5,7.5s3.357,7.5,7.5,7.5h4.464c4.143,0,7.5-3.358,7.5-7.5
			S187.673,400.042,183.53,400.042z"/>
		<path d="M183.53,440.177h-4.464c-4.143,0-7.5,3.358-7.5,7.5s3.357,7.5,7.5,7.5h4.464c4.143,0,7.5-3.358,7.5-7.5
			S187.673,440.177,183.53,440.177z"/>
		<path d="M357.818,420.456c0-13.797,11.225-25.022,25.022-25.022s25.022,11.225,25.022,25.022c0,4.142,3.357,7.5,7.5,7.5
			s7.5-3.358,7.5-7.5c0-22.068-17.954-40.022-40.022-40.022s-40.022,17.954-40.022,40.022c0,4.142,3.357,7.5,7.5,7.5
			S357.818,424.598,357.818,420.456z"/>
	</g>
</g>
<g>
</g>
<g>
</g>
<g>
</g>
<g>
</g>
<g>
</g>
<g>
</g>
<g>
</g>
<g>
</g>
<g>
</g>
<g>
</g>
<g>
</g>
<g>
</g>
<g>
</g>
<g>
</g>
<g>
</g>
</svg>
