<?xml version="1.0" encoding="iso-8859-1"?>
<!-- Generator: Adobe Illustrator 23.0.3, SVG Export Plug-In . SVG Version: 6.00 Build 0)  -->
<svg version="1.1" id="Capa_1" xmlns="http://www.w3.org/2000/svg" xmlns:xlink="http://www.w3.org/1999/xlink" x="0px" y="0px"
	 viewBox="0 0 512.004 512.004" style="enable-background:new 0 0 512.004 512.004;" xml:space="preserve">
<g>
	<g>
		<path style="fill:#B9ACAC;" d="M72.261,230.873h68.004c9.178,0,16.618,7.44,16.618,16.618v0c0,9.178-7.44,16.618-16.618,16.618
			H72.261V230.873z"/>
		<path style="fill:#756F6F;" d="M68.951,325.779L68.951,325.779c-7.638,0-13.83-6.192-13.83-13.83V49.636
			c0-7.638,6.192-13.83,13.83-13.83h0c7.638,0,13.83,6.192,13.83,13.83V311.95C82.781,319.588,76.589,325.779,68.951,325.779z"/>
		<rect x="55.122" y="176.157" style="fill:#756F6F;" width="27.659" height="46.579"/>
		<rect x="55.122" y="176.157" style="fill:#FAC574;" width="27.659" height="46.579"/>
		<g>
			<g>
				<path style="fill:#756F6F;" d="M451.172,341.43v154.148c0,4.928-3.995,8.923-8.923,8.923H183.107
					c-4.928,0-8.923-3.995-8.923-8.923V341.43c0-30.332,18.276-56.404,44.411-67.799c9.037-3.942,19.024-6.124,29.513-6.124h129.14
					c4.039,0,8.007,0.317,11.87,0.95c6.177,0.994,12.082,2.754,17.643,5.174c0.026,0.009,0.044,0.018,0.07,0.035
					C432.931,285.07,451.172,311.125,451.172,341.43z"/>
				<path style="fill:#5B5555;" d="M451.173,341.433v154.146c0,4.926-3.998,8.923-8.923,8.923h-20.568
					c4.926,0,8.923-3.998,8.923-8.923V341.433c0-30.33-18.274-56.403-44.41-67.798c-5.559-2.427-11.466-4.185-17.641-5.175
					c-3.864-0.634-7.834-0.955-11.877-0.955h20.568c4.042,0,8.013,0.321,11.877,0.955c6.175,0.99,12.082,2.748,17.641,5.175
					C432.899,285.03,451.173,311.103,451.173,341.433z"/>
				<circle style="fill:#FAC574;" cx="359.172" cy="408.535" r="17.41"/>
				<g>
					<path style="fill:#756F6F;" d="M465.765,129.516l-40.772,58.597c-1.065,1.53-2.546,2.721-4.27,3.428l-40.782,16.779
						l-63.574,26.171c-2.363,0.968-5.015,0.968-7.378,0l-104.356-42.951c-1.723-0.707-3.205-1.898-4.27-3.428l-40.772-58.597
						c-2.111-3.03-2.314-7-0.523-10.224l35.427-63.893c1.094-1.975,2.837-3.505,4.938-4.328l109.72-42.902
						c2.266-0.881,4.783-0.881,7.049,0l78.988,30.887l30.732,12.016c2.101,0.823,3.844,2.353,4.938,4.328l35.427,63.893
						C468.079,122.516,467.876,126.486,465.765,129.516z"/>
					<path style="fill:#5B5555;" d="M465.765,129.516l-40.772,58.597c-1.065,1.53-2.546,2.721-4.27,3.428l-40.782,16.779
						l55.289-79.294c2.043-2.929,2.307-6.746,0.687-9.929l-40.727-80.044l30.732,12.016c2.101,0.823,3.844,2.353,4.938,4.328
						l35.427,63.893C468.079,122.516,467.876,126.486,465.765,129.516z"/>
					<circle style="fill:#FFBC8A;" cx="403.438" cy="194.444" r="20.644"/>
					<circle style="fill:#FFBC8A;" cx="221.919" cy="194.444" r="20.644"/>
					<path style="fill:#B9ACAC;" d="M262.027,285.341l4.42,42.994c0.791,7.691,9.687,11.558,15.85,6.891l30.382-23.007v-26.878
						H262.027z"/>
					<path style="fill:#B9ACAC;" d="M363.331,285.341l-4.42,42.994c-0.791,7.691-9.687,11.558-15.85,6.891l-30.382-23.007v-26.878
						H363.331z"/>
					<path style="fill:#FDD1A7;" d="M312.678,308.391L312.678,308.391c-41.998,0-76.644-32.88-78.839-74.82l-3.007-57.45
						c-1.276-24.383,18.15-44.852,42.566-44.852h78.562c24.416,0,43.842,20.47,42.566,44.852l-3.007,57.45
						C389.322,275.511,354.676,308.391,312.678,308.391z"/>
					<path style="fill:#756F6F;" d="M249.744,143.114l8.318,28.966c3.802,13.239,15.911,22.36,29.685,22.36h49.864
						c13.774,0,25.883-9.121,29.685-22.36l8.318-28.966H249.744z"/>
					<path style="fill:#5B5555;" d="M375.614,143.115l-8.322,28.965c-3.796,13.242-15.903,22.361-29.684,22.361h-23.889
						c13.769,0,25.877-9.12,29.684-22.361l8.311-28.965H375.614z"/>
					<path style="fill:#B9ACAC;" d="M396.269,152.501H229.088c-5.347,0-9.682-4.335-9.682-9.682v0
						c0-32.449,26.305-58.754,58.754-58.754h69.037c32.449,0,58.754,26.305,58.754,58.754v0
						C405.952,148.166,401.617,152.501,396.269,152.501z"/>
					<circle style="fill:#FAC574;" cx="312.679" cy="84.365" r="17.41"/>
					<path style="fill:#006AC3;" d="M298.587,194.44v27.877c0,14.099-11.43,25.538-25.538,25.538h-22.106
						c-4.546,0-8.818-1.188-12.515-3.282c-2.122-1.188-4.065-2.678-5.753-4.414c-4.498-4.612-7.271-10.893-7.271-17.843V194.44
						H298.587z"/>
					<path style="fill:#5592D7;" d="M288.562,194.44l-50.134,50.134c-2.122-1.188-4.065-2.678-5.753-4.414l45.711-45.72H288.562z"/>
					<path style="fill:#5592D7;" d="M298.589,198.84v23.47c0,14.107-11.435,25.542-25.542,25.542h-22.105
						c-0.445,0-0.891-0.01-1.326-0.039L298.589,198.84z"/>
					<path style="fill:#006AC3;" d="M399.953,194.444v27.866c0,14.107-11.435,25.542-25.542,25.542h-22.105
						c-4.628,0-8.975-1.23-12.722-3.398c-4.483-2.575-8.104-6.468-10.341-11.154c-1.588-3.331-2.479-7.049-2.479-10.989v-27.866
						H399.953z"/>
					<path style="fill:#5592D7;" d="M389.593,194.444l-50.009,50.009c-4.483-2.575-8.104-6.468-10.341-11.154l38.855-38.855H389.593
						z"/>
				</g>
			</g>
			<g>
				<g>
					<path style="fill:#FAC574;" d="M59.003,393.911l-13.546-18.504c-2.486-3.396,0.246-8.127,4.43-7.672l22.797,2.479
						c15.411,1.676,30.133-6.824,36.387-21.008l9.252-20.983c1.698-3.851,7.161-3.851,8.859,0l9.252,20.983
						c6.254,14.185,20.976,22.684,36.387,21.008l22.797-2.479c4.184-0.455,6.915,4.277,4.43,7.672l-13.546,18.504
						c-9.157,12.509-9.157,29.508,0,42.017l13.546,18.504c2.486,3.396-0.246,8.127-4.43,7.672l-22.797-2.479
						c-15.411-1.676-30.133,6.824-36.387,21.008l-9.252,20.983c-1.698,3.851-7.161,3.851-8.859,0l-9.252-20.983
						c-6.254-14.185-20.976-22.684-36.387-21.008l-22.797,2.479c-4.184,0.455-6.915-4.277-4.43-7.672l13.546-18.504
						C68.16,423.419,68.16,406.42,59.003,393.911z"/>
				</g>
			</g>
		</g>
	</g>
	<g>
		<path d="M68.951,333.279c11.762,0,21.33-9.568,21.33-21.33v-40.34h49.984c13.299,0,24.118-10.819,24.118-24.118
			s-10.819-24.118-24.118-24.118H90.281V132.03c0-4.143-3.357-7.5-7.5-7.5s-7.5,3.357-7.5,7.5v36.627H62.622V49.636
			c0-3.49,2.839-6.329,6.329-6.329s6.33,2.839,6.33,6.329v48.677c0,4.143,3.357,7.5,7.5,7.5s7.5-3.357,7.5-7.5V49.636
			c0-11.761-9.568-21.329-21.33-21.329c-11.761,0-21.329,9.568-21.329,21.329v262.313C47.622,323.711,57.19,333.279,68.951,333.279z
			 M68.951,318.279c-3.49,0-6.329-2.84-6.329-6.33v-81.713h12.659v81.713C75.281,315.439,72.441,318.279,68.951,318.279z
			 M140.266,238.373c5.027,0,9.118,4.091,9.118,9.118s-4.091,9.118-9.118,9.118H90.281v-18.236H140.266z M75.281,183.657v31.579
			H62.622v-31.579H75.281z"/>
		<path d="M400.964,369.375c-4.143,0-7.5,3.357-7.5,7.5v127.629c0,4.143,3.357,7.5,7.5,7.5s7.5-3.357,7.5-7.5V376.875
			C408.464,372.732,405.106,369.375,400.964,369.375z"/>
		<path d="M224.392,369.375c-4.143,0-7.5,3.357-7.5,7.5v127.626c0,4.143,3.357,7.5,7.5,7.5s7.5-3.357,7.5-7.5V376.875
			C231.892,372.732,228.535,369.375,224.392,369.375z"/>
		<path d="M359.172,383.625c-13.735,0-24.91,11.175-24.91,24.91s11.175,24.91,24.91,24.91s24.91-11.175,24.91-24.91
			S372.907,383.625,359.172,383.625z M359.172,418.445c-5.465,0-9.91-4.445-9.91-9.91s4.445-9.91,9.91-9.91s9.91,4.445,9.91,9.91
			S364.637,418.445,359.172,418.445z"/>
		<path d="M472.845,115.654l-6.772-12.218c-2.009-3.623-6.573-4.934-10.195-2.924c-3.623,2.008-4.932,6.573-2.924,10.195
			l6.772,12.219c0.4,0.722,0.354,1.626-0.117,2.305l-35.153,50.521c-5.159-5.794-12.667-9.453-21.017-9.453
			c-0.647,0-1.291,0.032-1.932,0.076c-0.347-2.298-0.862-4.565-1.523-6.79c7.693-1.704,13.468-8.569,13.468-16.767
			c0-36.532-29.722-66.254-66.254-66.254h-10.866c-3.282-9.925-12.641-17.109-23.652-17.109s-20.37,7.184-23.652,17.109H278.16
			c-36.532,0-66.254,29.722-66.254,66.254c0,8.19,5.765,15.05,13.447,16.761c-0.662,2.225-1.17,4.495-1.517,6.795
			c-0.637-0.043-1.276-0.075-1.917-0.075c-8.349,0-15.858,3.658-21.016,9.452l-35.154-50.52c-0.472-0.679-0.518-1.583-0.117-2.305
			l35.421-63.892c0.246-0.445,0.642-0.791,1.114-0.976l109.717-42.905c0.512-0.201,1.078-0.201,1.59,0L423.19,58.06
			c0.473,0.185,0.869,0.531,1.114,0.974l11.629,20.978c2.009,3.622,6.571,4.932,10.196,2.923c3.622-2.009,4.931-6.573,2.923-10.196
			l-11.63-20.979c-1.938-3.492-5.052-6.216-8.77-7.67L318.936,1.184c-4.035-1.578-8.48-1.578-12.516,0L196.704,44.089
			c-3.717,1.454-6.831,4.178-8.77,7.671l-35.422,63.894c-3.152,5.686-2.79,12.808,0.924,18.145l40.455,58.141
			c-0.073,0.826-0.117,1.66-0.117,2.505c0,14.156,10.508,25.9,24.132,27.854v0.016c0,9.219,3.8,17.564,9.911,23.563
			c1.047,5.439,2.592,10.674,4.58,15.666c-11.093,2.183-21.668,6.666-30.993,13.208c-3.391,2.379-4.211,7.057-1.832,10.447
			c1.46,2.08,3.784,3.193,6.146,3.193c1.487,0,2.99-0.442,4.301-1.361c8.785-6.164,18.926-10.088,29.506-11.463
			c4.398,6.98,9.755,13.252,15.875,18.659l3.586,34.875c0.652,6.343,4.532,11.648,10.38,14.191c2.271,0.987,4.645,1.474,6.996,1.474
			c3.704,0,7.353-1.206,10.462-3.561l18.354-13.899v177.194c0,4.143,3.357,7.5,7.5,7.5s7.5-3.357,7.5-7.5V327.307l18.354,13.899
			c3.109,2.354,6.758,3.561,10.462,3.561c2.351,0,4.725-0.486,6.995-1.474c5.848-2.542,9.729-7.848,10.382-14.191l3.596-34.973
			c6.088-5.385,11.417-11.63,15.806-18.562c33.126,4.226,57.898,32.23,57.898,65.868v45.339H427.54c-4.143,0-7.5,3.357-7.5,7.5
			s3.357,7.5,7.5,7.5h16.132v12.001H427.54c-4.143,0-7.5,3.357-7.5,7.5s3.357,7.5,7.5,7.5h16.132v66.807
			c0,0.784-0.639,1.423-1.423,1.423c-4.143,0-7.5,3.357-7.5,7.5s3.357,7.5,7.5,7.5c9.056,0,16.423-7.367,16.423-16.423V341.435
			c0-20.298-7.513-39.742-21.155-54.752c-11.856-13.044-27.468-21.815-44.559-25.16c1.958-4.896,3.496-10.02,4.541-15.342
			c0.02-0.103,0.029-0.205,0.044-0.308c6.109-5.999,9.907-14.342,9.907-23.559v-0.016c13.625-1.954,24.132-13.698,24.132-27.854
			c0-0.844-0.044-1.677-0.117-2.502l40.456-58.143C475.635,128.461,475.997,121.339,472.845,115.654z M319.267,207.588H306.09
			v-5.648h13.177V207.588z M246.789,160.001l4.063,14.148c1.358,4.729,3.595,9.042,6.495,12.79h-18.439l-0.586-11.212
			c-0.284-5.42,0.694-10.799,2.818-15.727H246.789z M384.221,160.001c2.121,4.924,3.098,10.32,2.815,15.727l-0.587,11.212h-18.44
			c2.899-3.748,5.137-8.061,6.495-12.79l4.063-14.148H384.221z M360.086,170.009c-2.862,9.969-12.104,16.931-22.476,16.931h-49.864
			c-10.371,0-19.613-6.962-22.476-16.931l-2.874-10.008H362.96L360.086,170.009z M232.906,222.313v-20.374h58.184v20.374
			c0,9.946-8.092,18.038-18.038,18.038h-22.106C240.999,240.352,232.906,232.26,232.906,222.313z M334.267,201.939h58.184v20.374
			c0,9.946-8.093,18.038-18.039,18.038h-22.105c-9.946,0-18.039-8.092-18.039-18.038V201.939z M312.679,74.455
			c5.465,0,9.91,4.445,9.91,9.91s-4.445,9.91-9.91,9.91s-9.91-4.445-9.91-9.91S307.214,74.455,312.679,74.455z M278.16,91.564
			h10.673c3.096,10.236,12.613,17.711,23.845,17.711s20.749-7.475,23.845-17.711h10.673c28.262,0,51.254,22.992,51.254,51.254
			c0,1.203-0.979,2.183-2.182,2.183H229.089c-1.203,0-2.183-0.979-2.183-2.183C226.906,114.557,249.898,91.564,278.16,91.564z
			 M208.774,194.443c0-7.247,5.896-13.144,13.145-13.144c0.565,0,1.125,0.045,1.679,0.115l0.297,5.677
			c-3.418,0.699-5.989,3.723-5.989,7.348v12.517C212.616,205.256,208.774,200.292,208.774,194.443z M277.769,329.247
			c-0.982,0.743-1.938,0.499-2.422,0.29c-0.483-0.211-1.314-0.746-1.439-1.969l-2.263-22.013c7.898,4.255,16.507,7.321,25.583,8.957
			L277.769,329.247z M351.45,327.567c-0.126,1.224-0.956,1.759-1.44,1.97c-0.484,0.209-1.44,0.453-2.422-0.29l-19.479-14.751
			c9.073-1.65,17.696-4.738,25.613-9.022L351.45,327.567z M312.679,300.891c-30.112,0-56.386-18.677-66.753-45.92
			c1.637,0.251,3.313,0.381,5.02,0.381h22.106c18.125,0,32.882-14.673,33.031-32.764h13.191
			c0.149,18.09,14.906,32.764,33.032,32.764h22.105c1.703,0,3.375-0.13,5.01-0.379C369.02,282.17,342.624,300.891,312.679,300.891z
			 M407.45,206.957v-12.517c0-3.625-2.571-6.649-5.989-7.348l0.298-5.677c0.555-0.07,1.114-0.115,1.68-0.115
			c7.247,0,13.144,5.896,13.144,13.144C416.582,200.292,412.74,205.256,407.45,206.957z"/>
		<path d="M334.968,257.143c-3.592-2.067-8.176-0.832-10.241,2.759c-2.479,4.307-7.095,6.981-12.048,6.981s-9.57-2.675-12.049-6.981
			c-2.067-3.591-6.653-4.826-10.241-2.759c-3.59,2.066-4.825,6.651-2.759,10.241c5.147,8.943,14.746,14.499,25.049,14.499
			c10.304,0,19.901-5.556,25.048-14.499C339.793,263.793,338.558,259.208,334.968,257.143z"/>
		<path d="M206.101,379.838c2.888-3.943,3.174-9.228,0.729-13.461c-2.443-4.232-7.176-6.633-12.021-6.098l-13.125,1.427v-20.272
			c0-11.108,2.797-22.1,8.088-31.788c1.985-3.635,0.648-8.191-2.987-10.177c-3.633-1.985-8.19-0.648-10.177,2.987
			c-6.492,11.886-9.924,25.364-9.924,38.978v21.38c-10.135-0.814-19.159-7.045-23.387-16.635l-9.252-20.982
			c-1.973-4.472-6.404-7.361-11.292-7.361s-9.319,2.89-11.292,7.361l-9.252,20.983c-4.957,11.244-16.492,17.903-28.715,16.578
			l-22.796-2.479c-4.857-0.536-9.579,1.865-12.022,6.098c-2.444,4.233-2.158,9.518,0.729,13.462l13.546,18.502
			c7.258,9.916,7.258,23.241,0,33.156l-13.545,18.504c-2.888,3.943-3.175,9.227-0.731,13.46c2.444,4.234,7.167,6.624,12.022,6.099
			l22.797-2.479c12.21-1.327,23.757,5.333,28.715,16.577l9.252,20.984c1.973,4.472,6.404,7.361,11.292,7.361
			s9.319-2.89,11.292-7.362l9.252-20.983c4.228-9.587,13.253-15.817,23.387-16.632v28.555c0,9.056,7.367,16.423,16.423,16.423
			c4.143,0,7.5-3.357,7.5-7.5s-3.357-7.5-7.5-7.5c-0.784,0-1.423-0.639-1.423-1.423v-27.448l13.124,1.427
			c4.867,0.524,9.58-1.865,12.023-6.099s2.156-9.517-0.73-13.46l-13.546-18.503c-7.258-9.916-7.258-23.241,0-33.156L206.101,379.838
			z M180.452,389.481c-11.138,15.215-11.138,35.661,0,50.877l9.983,13.638l-16.802-1.827c-18.737-2.04-36.453,8.185-44.061,25.438
			l-6.819,15.465l-6.819-15.465c-6.963-15.795-22.387-25.695-39.327-25.695c-1.566,0-3.147,0.084-4.733,0.257l-16.802,1.827
			l9.983-13.639c11.138-15.215,11.138-35.661,0-50.877l-9.984-13.637l16.803,1.827c18.749,2.038,36.453-8.185,44.061-25.438
			l6.819-15.466l6.819,15.465c6.964,15.795,22.388,25.698,39.328,25.696c1.565,0,3.146-0.084,4.732-0.257l16.803-1.827
			L180.452,389.481z"/>
		<path d="M114.116,409.695h17.275c4.143,0,7.5-3.357,7.5-7.5s-3.357-7.5-7.5-7.5h-17.275c-4.143,0-7.5,3.357-7.5,7.5
			S109.974,409.695,114.116,409.695z"/>
		<path d="M140.106,421.691h-34.705c-4.143,0-7.5,3.357-7.5,7.5s3.357,7.5,7.5,7.5h34.705c4.143,0,7.5-3.357,7.5-7.5
			S144.249,421.691,140.106,421.691z"/>
	</g>
</g>
<g>
</g>
<g>
</g>
<g>
</g>
<g>
</g>
<g>
</g>
<g>
</g>
<g>
</g>
<g>
</g>
<g>
</g>
<g>
</g>
<g>
</g>
<g>
</g>
<g>
</g>
<g>
</g>
<g>
</g>
</svg>
