<?xml version="1.0" encoding="iso-8859-1"?>
<!-- Generator: Adobe Illustrator 23.0.3, SVG Export Plug-In . SVG Version: 6.00 Build 0)  -->
<svg version="1.1" id="Capa_1" xmlns="http://www.w3.org/2000/svg" xmlns:xlink="http://www.w3.org/1999/xlink" x="0px" y="0px"
	 viewBox="0 0 512 512" style="enable-background:new 0 0 512 512;" xml:space="preserve">
<g>
	<g>
		<g>
			<path style="fill:#DB885D;" d="M493.202,461.435h-190.79c-6.24,0-11.298-5.058-11.298-11.298V190.383
				c0-6.24,5.058-11.298,11.298-11.298h190.79c6.24,0,11.298,5.058,11.298,11.298v259.754
				C504.5,456.377,499.442,461.435,493.202,461.435z"/>
			<path style="fill:#C86D3D;" d="M504.5,190.38v259.76c0,6.24-5.06,11.3-11.3,11.3h-23.25c6.24,0,11.3-5.06,11.3-11.3V190.38
				c0-6.24-5.06-11.3-11.3-11.3h23.25C499.44,179.08,504.5,184.14,504.5,190.38z"/>
			<g>
				<g>
					<circle style="fill:#FFF5F5;" cx="408.016" cy="316.566" r="16.403"/>
				</g>
				<g>
					<circle style="fill:#FFF5F5;" cx="408.016" cy="252.4" r="16.403"/>
				</g>
			</g>
		</g>
		<g>
			<g>
				<path style="fill:#0097FA;" d="M362.796,319.16v151.502c0,4.843-3.926,8.769-8.769,8.769H99.332
					c-4.843,0-8.769-3.926-8.769-8.769V319.16c0-29.811,17.963-55.436,43.648-66.636c8.882-3.875,18.698-6.019,29.007-6.019h126.924
					c3.97,0,7.87,0.311,11.667,0.934c6.071,0.977,11.874,2.707,17.34,5.085c0.026,0.009,0.043,0.017,0.069,0.035
					C344.868,263.767,362.796,289.375,362.796,319.16z"/>
				<path style="fill:#0076F8;" d="M362.797,319.163v151.5c0,4.841-3.929,8.77-8.77,8.77h-20.215c4.841,0,8.77-3.929,8.77-8.77
					v-151.5c0-29.809-17.961-55.435-43.648-66.634c-5.464-2.385-11.269-4.113-17.338-5.087c-3.797-0.623-7.7-0.938-11.673-0.938
					h20.215c3.973,0,7.875,0.316,11.673,0.938c6.069,0.973,11.874,2.701,17.338,5.087
					C344.836,263.729,362.797,289.354,362.797,319.163z"/>
				<path style="fill:#C86D3D;" d="M313.388,479.435h-53.263l-176.5-182.688c-3.171-3.282-3.565-8.353-0.94-12.086l13.563-19.287
					c3.467-4.93,10.584-5.436,14.714-1.047L313.388,479.435z"/>
				<g>
					<ellipse style="fill:#0097FA;" cx="226.68" cy="68.65" rx="128.818" ry="54.085"/>
					<path style="fill:#0076F8;" d="M355.5,68.647c0,29.871-57.677,54.089-128.819,54.089c-4.006,0-7.965-0.076-11.876-0.228
						c65.575-2.522,116.934-25.674,116.934-53.861s-51.358-51.33-116.934-53.852c3.911-0.152,7.87-0.228,11.876-0.228
						C297.823,14.567,355.5,38.776,355.5,68.647z"/>
					<g>
						<circle style="fill:#FFBC8A;" cx="315.881" cy="172.504" r="20.289"/>
					</g>
					<g>
						<circle style="fill:#FFBC8A;" cx="137.478" cy="172.504" r="20.289"/>
					</g>
					<path style="fill:#FDD1A7;" d="M226.679,284.495L226.679,284.495c-41.277,0-75.328-32.316-77.486-73.536l-2.956-56.464
						c-1.254-23.964,17.838-44.082,41.835-44.082h77.213c23.997,0,43.09,20.118,41.835,44.082l-2.956,56.464
						C302.008,252.179,267.956,284.495,226.679,284.495z"/>
					<g>
						<path style="fill:#0097FA;" d="M130.626,134.135l7.035,24.5c3.216,11.198,13.458,18.913,25.108,18.913H290.59
							c11.65,0,21.893-7.715,25.108-18.913l7.035-24.5H130.626z"/>
						<path style="fill:#0076F8;" d="M322.735,134.137l-7.039,24.5c-3.211,11.2-13.452,18.914-25.108,18.914h-20.206
							c11.647,0,21.887-7.714,25.108-18.914l7.03-24.5H322.735z"/>
					</g>
					<g>
						<path style="fill:#FF9846;" d="M321.784,93.904H131.576c-5.246,0-9.5,4.253-9.5,9.5v24.082c0,5.246,4.253,9.5,9.5,9.5h190.208
							c5.246,0,9.5-4.253,9.5-9.5v-24.082C331.283,98.157,327.03,93.904,321.784,93.904z"/>
						<path style="fill:#FF771C;" d="M331.28,103.405v24.082c0,5.244-4.246,9.5-9.5,9.5H301.48c5.244,0,9.5-4.256,9.5-9.5v-24.082
							c0-5.253-4.256-9.5-9.5-9.5h20.301C327.034,93.906,331.28,98.152,331.28,103.405z"/>
					</g>
				</g>
			</g>
			<g>
				<path style="fill:#FFF5F5;" d="M104.818,497.435H15.176c-4.239,0-7.676-3.437-7.676-7.676v-56.775
					c0-4.239,3.437-7.676,7.676-7.676h89.641c4.239,0,7.676,3.437,7.676,7.676v56.775
					C112.494,493.998,109.057,497.435,104.818,497.435z"/>
			</g>
		</g>
	</g>
	<g>
		<path d="M190.51,191.156c-4.142,0-7.5,3.402-7.5,7.545s3.358,7.5,7.5,7.5s7.5-3.357,7.5-7.5v-0.089
			C198.01,194.47,194.652,191.156,190.51,191.156z"/>
		<path d="M262.849,191.156c-4.142,0-7.5,3.402-7.5,7.545s3.358,7.5,7.5,7.5s7.5-3.357,7.5-7.5v-0.089
			C270.349,194.47,266.991,191.156,262.849,191.156z"/>
		<path d="M248.963,221.027c-3.979-1.146-8.136,1.154-9.281,5.135c-1.659,5.769-7.006,9.797-13.003,9.797
			c-5.997,0-11.344-4.028-13.003-9.797c-1.146-3.98-5.3-6.282-9.281-5.135c-3.981,1.145-6.28,5.3-5.135,9.281
			c3.497,12.158,14.772,20.65,27.419,20.65c12.647,0,23.922-8.492,27.419-20.65C255.243,226.327,252.944,222.172,248.963,221.027z"
			/>
		<path d="M289.803,346.497h-29.817c-4.142,0-7.5,3.357-7.5,7.5s3.358,7.5,7.5,7.5h29.817c4.142,0,7.5-3.357,7.5-7.5
			S293.945,346.497,289.803,346.497z"/>
		<path d="M289.803,369.327H277.75c-4.142,0-7.5,3.357-7.5,7.5s3.358,7.5,7.5,7.5h12.054c4.142,0,7.5-3.357,7.5-7.5
			S293.945,369.327,289.803,369.327z"/>
		<path d="M493.202,171.584H343.629c-0.358-10.94-7.03-20.426-16.782-24.6l1.049-3.654c6.359-2.462,10.887-8.627,10.887-15.845
			v-23.069c19.935-12.849,24.214-26.463,24.214-35.766c0-17.662-15.032-33.7-42.326-45.16
			C295.443,12.898,262.063,7.064,226.68,7.064c-22.04,0-43.889,2.332-63.187,6.743c-4.038,0.923-6.563,4.945-5.64,8.983
			c0.923,4.037,4.948,6.566,8.983,5.64c18.218-4.165,38.912-6.366,59.844-6.366c71.495,0,121.318,24.552,121.318,46.586
			c0,9.177-8.327,16.91-15.27,21.763c-2.96-2.498-6.776-4.01-10.944-4.01H131.576c-4.167,0-7.983,1.513-10.943,4.01
			c-7.073-4.943-15.271-12.64-15.271-21.763c0-10.196,10.541-20.937,28.919-29.467c3.757-1.743,5.39-6.203,3.646-9.96
			c-1.745-3.758-6.205-5.391-9.96-3.646C103.717,36.833,90.362,52.13,90.362,68.65c0,9.338,4.309,22.933,24.214,35.763v23.072
			c0,7.217,4.529,13.383,10.887,15.845l1.051,3.661c-10.003,4.315-16.826,14.286-16.826,25.513c0,15.323,12.466,27.789,27.79,27.789
			c1.218,0,2.432-0.085,3.634-0.243l0.592,11.301c0.538,10.281,2.9,20.047,6.735,29.014c-12.891,2.383-24.885,7.867-35.238,16.162
			c-3.051-1.959-6.662-2.916-10.376-2.652c-5.124,0.364-9.756,2.983-12.711,7.185L76.55,280.347
			c-4.686,6.664-3.979,15.753,1.682,21.611l5.648,5.846c-0.532,3.746-0.817,7.557-0.817,11.361v98.643H15.176
			C6.808,417.808,0,424.616,0,432.984v56.774c0,8.368,6.808,15.177,15.176,15.177h89.641c8.368,0,15.176-6.809,15.176-15.177
			v-56.774c0-8.368-6.808-15.177-15.176-15.177h-6.754v-95.323l34.346,35.551v121.397c0,4.143,3.358,7.5,7.5,7.5s7.5-3.357,7.5-7.5
			V373.561l71.771,74.287v31.584c0,4.143,3.358,7.5,7.5,7.5s7.5-3.357,7.5-7.5v-16.058l20.552,21.272
			c1.472,1.523,3.432,2.289,5.395,2.289c1.876,0,3.754-0.699,5.21-2.106c2.979-2.878,3.061-7.626,0.183-10.604L146.988,351.536
			c-0.723-2.079-2.331-3.738-4.376-4.529L89.02,291.536c-0.671-0.694-0.755-1.772-0.2-2.562l13.563-19.286
			c0.456-0.647,1.071-0.82,1.506-0.852c0.441-0.033,1.07,0.053,1.611,0.629l56.77,60.327c2.839,3.017,7.585,3.16,10.602,0.322
			c3.017-2.839,3.161-7.585,0.322-10.602l-49.248-52.334c9.409-7.142,20.386-11.51,32.134-12.779
			c13.999,20.777,36.888,34.958,63.099,37.251v76.729l-21.472-22.818c-2.839-3.016-7.585-3.161-10.602-0.322
			c-3.017,2.839-3.161,7.585-0.322,10.602l121.143,128.733c1.476,1.568,3.467,2.36,5.463,2.36c0.01,0,0.021-0.001,0.031-0.001
			c0.01,0,0.019,0.001,0.029,0.001c0.203,0,0.402-0.015,0.601-0.03c0.01-0.001,0.021-0.001,0.031-0.002
			c3.846-0.322,6.868-3.539,6.868-7.468V353.997c0-4.143-3.358-7.5-7.5-7.5s-7.5,3.357-7.5,7.5v106.59l-71.77-76.267v-92.668
			c26.209-2.292,49.096-16.471,63.095-37.246c32.716,3.575,58.021,31.574,58.021,64.759v151.5c0,0.7-0.57,1.271-1.27,1.271
			c-4.142,0-7.5,3.357-7.5,7.5s3.358,7.5,7.5,7.5c8.971,0,16.27-7.299,16.27-16.271v-1.729h17.828c4.142,0,7.5-3.357,7.5-7.5
			s-3.358-7.5-7.5-7.5h-17.828V319.165c0-23.298-10.147-44.517-26.337-59.266h40.154v56.666c0,13.181,10.723,23.903,23.903,23.903
			c13.18,0,23.902-10.723,23.902-23.903v-56.666h61.283c1.301,0,2.571-0.134,3.798-0.386v190.624c0,2.095-1.704,3.799-3.798,3.799
			h-69.325c-4.142,0-7.5,3.357-7.5,7.5s3.358,7.5,7.5,7.5h69.325c10.365,0,18.798-8.433,18.798-18.799V190.383
			C512,180.017,503.567,171.584,493.202,171.584z M90.21,432.808l-30.117,19.321c-0.059,0.039-0.133,0.038-0.191,0.001
			l-30.118-19.322H90.21z M104.817,489.936H15.176c-0.097,0-0.176-0.079-0.176-0.177v-48.614l36.802,23.61
			c2.489,1.597,5.341,2.396,8.194,2.396c2.853,0,5.706-0.799,8.195-2.396l36.802-23.61v48.614
			C104.994,489.856,104.915,489.936,104.817,489.936z M315.881,185.293c-0.97,0-1.919-0.117-2.845-0.327l0.471-8.993
			c4.136-3.851,7.329-8.747,9.113-14.342c3.669,2.272,6.05,6.322,6.05,10.873C328.67,179.556,322.933,185.293,315.881,185.293z
			 M144.87,156.565l-3.468-12.08h170.558l-3.469,12.08c-2.28,7.938-9.641,13.483-17.9,13.483H162.77
			C154.51,170.049,147.15,164.504,144.87,156.565z M129.576,103.403c0-1.103,0.897-2,2-2h190.208c1.103,0,2,0.897,2,2v24.082
			c0,1.103-0.897,2-2,2H131.576c-1.103,0-2-0.897-2-2V103.403z M137.478,185.293c-7.052,0-12.79-5.737-12.79-12.789
			c0-4.511,2.388-8.586,6.052-10.869c1.784,5.592,4.976,10.487,9.111,14.337l0.471,8.991
			C139.399,185.171,138.452,185.293,137.478,185.293z M226.679,276.995c-37.3,0-68.046-29.179-69.996-66.429l-1.381-26.374
			c2.417,0.557,4.917,0.856,7.467,0.856H290.59c2.549,0,5.049-0.299,7.466-0.856l-1.381,26.375
			C294.726,247.816,263.979,276.995,226.679,276.995z M399.114,274.576c2.754,1.109,5.757,1.726,8.903,1.726
			c3.146,0,6.149-0.617,8.902-1.726v19.813c-2.754-1.109-5.756-1.726-8.902-1.726c-3.146,0-6.149,0.617-8.903,1.726V274.576z
			 M408.017,261.303c-4.909,0-8.903-3.994-8.903-8.903s3.994-8.902,8.903-8.902c4.909,0,8.902,3.993,8.902,8.902
			S412.925,261.303,408.017,261.303z M408.017,325.469c-4.909,0-8.903-3.994-8.903-8.903s3.994-8.902,8.903-8.902
			c4.909,0,8.902,3.993,8.902,8.902S412.925,325.469,408.017,325.469z M493.202,244.899h-62.495
			c-3.154-9.516-12.13-16.402-22.69-16.402c-10.56,0-19.537,6.887-22.691,16.402h-64.109c-0.294,0-0.583,0.021-0.868,0.054
			c-4.92-2.018-10.083-3.56-15.44-4.564c3.841-8.974,6.207-18.748,6.746-29.039l0.592-11.301c1.198,0.156,2.41,0.243,3.635,0.243
			c10.187,0,19.106-5.513,23.944-13.709h153.377c2.094,0,3.798,1.704,3.798,3.799v50.719
			C497,243.195,495.296,244.899,493.202,244.899z"/>
	</g>
</g>
<g>
</g>
<g>
</g>
<g>
</g>
<g>
</g>
<g>
</g>
<g>
</g>
<g>
</g>
<g>
</g>
<g>
</g>
<g>
</g>
<g>
</g>
<g>
</g>
<g>
</g>
<g>
</g>
<g>
</g>
</svg>
