<?xml version="1.0" encoding="iso-8859-1"?>
<!-- Generator: Adobe Illustrator 23.0.3, SVG Export Plug-In . SVG Version: 6.00 Build 0)  -->
<svg version="1.1" id="Capa_1" xmlns="http://www.w3.org/2000/svg" xmlns:xlink="http://www.w3.org/1999/xlink" x="0px" y="0px"
	 viewBox="0 0 512 512" style="enable-background:new 0 0 512 512;" xml:space="preserve">
<g>
	<g>
		<g>
			<g>
				<g>
					<g>
						<g>
							<path style="fill:#EFE2DD;" d="M218.27,244.553H114.585c-5.239,0-9.486-4.247-9.486-9.486V42.036
								c0-5.239,4.247-9.486,9.486-9.486H218.27c5.239,0,9.486,4.247,9.486,9.486v193.03
								C227.757,240.306,223.51,244.553,218.27,244.553z"/>
							<path style="fill:#CDBFBB;" d="M227.76,42.037v193.025c0,5.246-4.25,9.486-9.486,9.486h-18.972
								c5.236,0,9.486-4.24,9.486-9.486V42.037c0-5.236-4.25-9.486-9.486-9.486h18.972C223.51,32.551,227.76,36.8,227.76,42.037z"/>
						</g>
						<g>
							<path style="fill:#2EA8FC;" d="M227.76,70.495v136.108c0,5.246-4.25,9.486-9.486,9.486H114.585
								c-5.236,0-9.486-4.24-9.486-9.486V70.495c0-5.236,4.25-9.486,9.486-9.486h103.689C223.51,61.009,227.76,65.259,227.76,70.495
								z"/>
							<path style="fill:#0086F9;" d="M227.76,70.495v136.108c0,5.246-4.25,9.486-9.486,9.486h-9.486V61.009h9.486
								C223.51,61.009,227.76,65.259,227.76,70.495z"/>
						</g>
					</g>
				</g>
				<g>
					<rect x="101.674" y="436.875" style="fill:#5B5555;" width="32.812" height="38.005"/>
					<g>
						<g>
							<path style="fill:#EFE2DD;" d="M219.17,438.691H16.986c-5.239,0-9.486-4.247-9.486-9.486V294.576
								c0-5.239,4.247-9.486,9.486-9.486H219.17c5.239,0,9.486,4.247,9.486,9.486v134.629
								C228.656,434.444,224.409,438.691,219.17,438.691z"/>
							<path style="fill:#CDBFBB;" d="M228.66,294.577V429.2c0,5.246-4.25,9.486-9.486,9.486h-18.972
								c5.236,0,9.486-4.24,9.486-9.486V294.577c0-5.236-4.25-9.486-9.486-9.486h18.972
								C224.41,285.091,228.66,289.341,228.66,294.577z"/>
							<g>
								<g>
									<path style="fill:#2EA8FC;" d="M228.66,294.575v105.332c0,5.243-4.248,9.491-9.491,9.491H16.99
										c-5.243,0-9.491-4.248-9.491-9.491V294.575c0-5.243,4.248-9.48,9.491-9.48h202.179
										C224.412,285.095,228.66,289.332,228.66,294.575z"/>
									<g>
										<path style="fill:#0086F9;" d="M228.66,294.575v105.332c0,5.243-4.248,9.491-9.491,9.491h-9.48V294.575
											c0-5.233-4.248-9.48-9.491-9.48h18.971C224.412,285.095,228.66,289.332,228.66,294.575z"/>
									</g>
								</g>
							</g>
						</g>
					</g>
					<path style="fill:#EFE2DD;" d="M169.372,497.889H66.787c-6.354,0-11.504-5.151-11.504-11.504l0,0
						c0-6.354,5.151-11.504,11.504-11.504h102.585c6.354,0,11.504,5.151,11.504,11.504l0,0
						C180.876,492.739,175.726,497.889,169.372,497.889z"/>
					<path style="fill:#CDBFBB;" d="M180.876,486.381c0,3.181-1.283,6.064-3.365,8.136c-2.083,2.093-4.956,3.376-8.136,3.376
						h-17.391c3.17,0,6.054-1.283,8.136-3.376c2.073-2.073,3.365-4.956,3.365-8.136c0-6.351-5.151-11.502-11.502-11.502h17.391
						C175.725,474.879,180.876,480.029,180.876,486.381z"/>
				</g>
			</g>
			<g>
				<g>
					<path style="fill:#5B5555;" d="M426.996,51.452c0,0,59.223-1.572,59.223,73.121v100.659c0,16.472-13.353,29.826-29.826,29.826
						h-64.11V51.452H426.996z"/>
				</g>
				<path style="fill:#5B5555;" d="M331.328,51.452c0,0-59.223-1.572-59.223,73.121v100.659c0,16.472,13.353,29.826,29.826,29.826
					h47.511V51.452H331.328z"/>
				<path style="fill:#FF872A;" d="M504.499,332.209v154.618c0,6.108-4.957,11.066-11.065,11.066H266.713
					c-6.108,0-11.066-4.957-11.066-11.066V332.209c0-49.64,40.234-89.874,89.874-89.874h69.104
					C464.265,242.335,504.499,282.569,504.499,332.209z"/>
				<path style="fill:#FDD1A7;" d="M255.65,405.285v81.542c0,6.108,4.957,11.066,11.066,11.066h39.249v-92.607H255.65z"/>
				<path style="fill:#F36717;" d="M504.499,332.209v154.618c0,6.108-4.957,11.066-11.065,11.066h-12.958V332.209
					c0-49.64-40.234-89.874-89.874-89.874h24.023C464.265,242.335,504.499,282.569,504.499,332.209z"/>
				<path style="fill:#FDD1A7;" d="M504.499,405.285v81.542c0,6.108-4.957,11.066-11.065,11.066h-39.249v-92.607H504.499z"/>
				<path style="fill:#FFBC8A;" d="M504.499,405.285v81.542c0,6.108-4.957,11.066-11.065,11.066h-12.958v-92.607H504.499z"/>
				<g>
					<circle style="fill:#FFBC8A;" cx="468.726" cy="164.734" r="22.861"/>
				</g>
				<g>
					<circle style="fill:#FFBC8A;" cx="291.424" cy="164.734" r="22.861"/>
				</g>
				<path style="fill:#FDD1A7;" d="M330.256,109.463c-18.728,0-33.234,16.386-30.964,34.976l6.924,56.691
					c4.559,37.328,36.253,65.386,73.858,65.386l0,0c37.605,0,69.299-28.058,73.858-65.386l6.924-56.691
					c2.271-18.59-12.236-34.976-30.964-34.976H330.256z"/>
				<g>
					<g>
						<circle style="fill:#DAEDFF;" cx="330.137" cy="176.588" r="38.035"/>
						<circle style="fill:#DAEDFF;" cx="430.009" cy="176.588" r="38.035"/>
					</g>
				</g>
				<g>
					<line style="fill:#F69583;" x1="431.782" y1="196.118" x2="431.782" y2="196.213"/>
				</g>
				<path style="fill:#9E9797;" d="M380.321,116.228H278.202c-6.111,0-11.065-4.954-11.065-11.066V92.099
					c0-43.074,34.918-77.992,77.992-77.992h79.498c15.965,0,28.908,12.943,28.908,28.908v0
					C453.534,83.45,420.756,116.228,380.321,116.228z"/>
				<path style="fill:#756F6F;" d="M453.533,43.014c0,20.225-8.191,38.523-21.447,51.768
					c-13.245,13.256-31.543,21.447-51.768,21.447h-23.022c20.214,0,38.512-8.191,51.768-21.447
					C422.309,81.538,430.5,63.239,430.5,43.014c0-15.964-12.937-28.912-28.901-28.912h23.033
					C440.596,14.103,453.533,27.05,453.533,43.014z"/>
				<rect x="305.965" y="404.652" style="fill:#2EA8FC;" width="148.219" height="93.24"/>
				<rect x="305.965" y="404.652" style="fill:#EFE2DD;" width="148.219" height="34.039"/>
			</g>
		</g>
	</g>
	<g>
		<path d="M114.585,252.053h13.538c4.142,0,7.5-3.358,7.5-7.5s-3.358-7.5-7.5-7.5h-13.538c-1.095,0-1.986-0.891-1.986-1.986v-11.599
			c0.653,0.076,1.313,0.126,1.986,0.126h103.686c0.673,0,1.334-0.05,1.986-0.126v11.599c0,1.095-0.891,1.986-1.986,1.986h-54.395
			c-4.142,0-7.5,3.358-7.5,7.5s3.358,7.5,7.5,7.5h54.395c9.366,0,16.986-7.62,16.986-16.986V42.036
			c0-9.366-7.62-16.986-16.986-16.986H114.585c-9.366,0-16.986,7.62-16.986,16.986v193.03
			C97.599,244.433,105.219,252.053,114.585,252.053z M218.271,208.594H114.585c-1.095,0-1.986-0.891-1.986-1.986V70.495
			c0-1.095,0.891-1.986,1.986-1.986h103.686c1.095,0,1.986,0.891,1.986,1.986v136.113
			C220.257,207.703,219.366,208.594,218.271,208.594z M114.585,40.05h103.686c1.095,0,1.986,0.891,1.986,1.986v11.599
			c-0.653-0.076-1.313-0.126-1.986-0.126H114.585c-0.673,0-1.334,0.05-1.986,0.126V42.036
			C112.599,40.941,113.49,40.05,114.585,40.05z"/>
		<path d="M133.083,78.748c-4.142,0-7.5,3.358-7.5,7.5v8.172c0,4.142,3.358,7.5,7.5,7.5s7.5-3.358,7.5-7.5v-8.172
			C140.583,82.105,137.225,78.748,133.083,78.748z"/>
		<path d="M158.925,78.748c-4.142,0-7.5,3.358-7.5,7.5v8.172c0,4.142,3.358,7.5,7.5,7.5s7.5-3.358,7.5-7.5v-8.172
			C166.425,82.105,163.067,78.748,158.925,78.748z"/>
		<path d="M133.083,113.302c-4.142,0-7.5,3.358-7.5,7.5v8.172c0,4.142,3.358,7.5,7.5,7.5s7.5-3.358,7.5-7.5v-8.172
			C140.583,116.66,137.225,113.302,133.083,113.302z"/>
		<path d="M158.925,113.302c-4.142,0-7.5,3.358-7.5,7.5v8.172c0,4.142,3.358,7.5,7.5,7.5s7.5-3.358,7.5-7.5v-8.172
			C166.425,116.66,163.067,113.302,158.925,113.302z"/>
		<path d="M236.157,346.253c0-4.142-3.358-7.5-7.5-7.5s-7.5,3.358-7.5,7.5v53.683c-0.016,1.084-0.9,1.962-1.988,1.962H16.99
			c-1.096,0-1.988-0.891-1.99-1.986V294.576c0-1.095,0.891-1.986,1.986-1.986H219.17c1.095,0,1.986,0.891,1.986,1.986v14.534
			c0,4.142,3.358,7.5,7.5,7.5s7.5-3.358,7.5-7.5v-14.534c0-9.366-7.62-16.986-16.986-16.986H16.986C7.62,277.59,0,285.21,0,294.576
			v134.628c0,9.366,7.62,16.986,16.986,16.986h77.188v21.19H66.788c-10.479,0-19.004,8.525-19.004,19.004
			s8.525,19.004,19.004,19.004h102.584c10.479,0,19.004-8.525,19.004-19.004s-8.525-19.004-19.004-19.004h-27.386v-21.19h77.185
			c9.366,0,16.986-7.62,16.986-16.986V346.253z M173.376,486.385c0,2.208-1.796,4.004-4.004,4.004H66.788
			c-2.208,0-4.004-1.796-4.004-4.004c0-2.208,1.796-4.004,4.004-4.004h102.584C171.58,482.381,173.376,484.177,173.376,486.385z
			 M126.986,467.381h-17.812v-21.19h17.812V467.381z M219.17,431.191H16.986c-1.095,0-1.986-0.891-1.986-1.986v-12.434
			c0.654,0.077,1.316,0.127,1.99,0.127h202.179c0.673,0,1.335-0.05,1.988-0.127v12.433
			C221.157,430.3,220.266,431.191,219.17,431.191z"/>
		<path d="M46.063,315.146c0-4.142-3.358-7.5-7.5-7.5s-7.5,3.358-7.5,7.5v8.172c0,4.142,3.358,7.5,7.5,7.5s7.5-3.358,7.5-7.5
			V315.146z"/>
		<path d="M71.904,315.146c0-4.142-3.358-7.5-7.5-7.5s-7.5,3.358-7.5,7.5v8.172c0,4.142,3.358,7.5,7.5,7.5s7.5-3.358,7.5-7.5
			V315.146z"/>
		<path d="M38.563,342.201c-4.142,0-7.5,3.358-7.5,7.5v8.172c0,4.142,3.358,7.5,7.5,7.5s7.5-3.358,7.5-7.5v-8.172
			C46.063,345.559,42.705,342.201,38.563,342.201z"/>
		<path d="M64.404,342.201c-4.142,0-7.5,3.358-7.5,7.5v8.172c0,4.142,3.358,7.5,7.5,7.5s7.5-3.358,7.5-7.5v-8.172
			C71.904,345.559,68.546,342.201,64.404,342.201z"/>
		<path d="M490.373,271.012c-4.21-5.205-8.941-9.936-14.081-14.14c10.601-6.629,17.427-18.367,17.427-31.64v-43.287
			c3.381-4.895,5.368-10.824,5.368-17.211s-1.987-12.315-5.368-17.211v-22.951c0-41.715-17.641-61.617-33.388-71.075
			c0.448-3.434,0.703-6.928,0.703-10.483c0-20.076-16.333-36.408-36.408-36.408h-79.498c-10.623,0-21.025,1.948-30.919,5.789
			c-3.861,1.499-5.776,5.845-4.277,9.706c1.499,3.861,5.843,5.777,9.706,4.277c8.156-3.167,16.732-4.772,25.491-4.772h79.498
			c11.804,0,21.408,9.604,21.408,21.408c0,36.234-29.479,65.713-65.713,65.713H278.202c-1.966,0-3.565-1.6-3.565-3.565V92.099
			c0-16.191,5.633-32.008,15.861-44.538c2.619-3.208,2.142-7.933-1.067-10.553c-3.208-2.619-7.933-2.142-10.553,1.067
			c-12.408,15.199-19.241,34.385-19.241,54.023v13.064c0,4.956,1.964,9.454,5.14,12.787c-0.102,2.171-0.171,4.379-0.171,6.623
			v25.949c-2.258,4.243-3.542,9.079-3.542,14.212s1.285,9.969,3.542,14.212v46.286c0,13.512,7.35,25.685,18.542,32.241
			c-4.865,4.056-9.36,8.579-13.374,13.542c-13.944,17.242-21.624,38.973-21.624,61.188v154.624c0,10.237,8.329,18.565,18.565,18.565
			c4.142,0,7.5-3.358,7.5-7.5s-3.358-7.5-7.5-7.5c-1.966,0-3.565-1.6-3.565-3.565v-74.042h35.309v85.107c0,4.142,3.358,7.5,7.5,7.5
			c0.001,0,0.002,0,0.003,0s0.002,0,0.003,0c4.142,0,7.5-3.358,7.5-7.5v-51.702h133.219v51.702c0,4.142,3.358,7.5,7.5,7.5
			c0.001,0,0.002,0,0.003,0s0.002,0,0.003,0c4.142,0,7.5-3.358,7.5-7.5v-85.107H497v74.042c0,1.966-1.6,3.565-3.565,3.565
			c-4.142,0-7.5,3.358-7.5,7.5s3.358,7.5,7.5,7.5c10.237,0,18.565-8.329,18.565-18.565V332.204
			C512,309.986,504.319,288.254,490.373,271.012z M461.601,246.938c-4.868-2.689-9.964-4.959-15.227-6.78
			c6.308-8.707,10.893-18.619,13.384-29.139c5.068-4.385,9.16-9.862,11.906-16.068c2.448-0.236,4.81-0.768,7.055-1.553v31.834
			C478.719,235.706,471.614,244.57,461.601,246.938z M319.711,220.904c3.351,0.788,6.838,1.219,10.427,1.219
			c8.482,0,16.426-2.338,23.232-6.393c5.054,9.872,15.344,16.402,26.705,16.402c11.361,0,21.65-6.53,26.704-16.401
			c6.806,4.055,14.749,6.392,23.23,6.392c3.594,0,7.087-0.431,10.442-1.222c-4.296,8.987-10.575,17.004-18.409,23.316
			c-11.843,9.543-26.748,14.799-41.968,14.799C354.055,259.016,330.644,243.654,319.711,220.904z M279.605,124.573
			c0-0.284,0.011-0.561,0.013-0.845h15.859c-1.64,3.367-2.784,6.958-3.392,10.669c-0.221-0.005-0.44-0.024-0.661-0.024
			c-4.19,0-8.184,0.854-11.819,2.395V124.573z M276.063,164.734c0-8.47,6.891-15.361,15.361-15.361c0.308,0,0.613,0.015,0.919,0.033
			l0.188,1.542c-4.998,7.308-7.929,16.137-7.929,25.64c0,0.641,0.022,1.278,0.049,1.913
			C279.572,175.991,276.063,170.771,276.063,164.734z M330.137,146.053c16.837,0,30.535,13.698,30.535,30.535
			s-13.698,30.535-30.535,30.535s-30.535-13.698-30.535-30.535S313.3,146.053,330.137,146.053z M384.482,176.896
			c0.072,10.812,3.928,20.742,10.312,28.525c-0.117,0.276-0.223,0.558-0.308,0.853c-1.838,6.394-7.765,10.858-14.412,10.858
			s-12.574-4.465-14.412-10.858c-0.085-0.296-0.192-0.579-0.309-0.855c6.383-7.783,10.238-17.711,10.311-28.523H384.482z
			 M468.726,149.373c8.47,0,15.361,6.891,15.361,15.361c0,6.039-3.511,11.259-8.591,13.768c0.026-0.635,0.049-1.272,0.049-1.914
			c0-9.502-2.929-18.33-7.927-25.637l0.189-1.546C468.112,149.387,468.418,149.373,468.726,149.373z M460.544,176.588
			c0,16.837-13.698,30.535-30.535,30.535s-30.535-13.698-30.535-30.535s13.698-30.535,30.535-30.535
			S460.544,159.751,460.544,176.588z M456.688,69.089c14.622,10.905,22.031,29.524,22.031,55.484v11.498
			c-3.132-1.095-6.493-1.698-9.993-1.698c-0.221,0-0.441,0.019-0.662,0.024c-1.171-7.13-4.316-13.872-9.198-19.387
			c-6.2-7.003-14.7-11.47-23.864-12.693C444.766,93.306,452.294,81.921,456.688,69.089z M412.617,116.963h17.277
			c6.78,0,13.246,2.912,17.74,7.988c3.149,3.557,5.12,7.947,5.739,12.571c-6.835-4.103-14.827-6.469-23.364-6.469
			c-19.968,0-36.962,12.924-43.089,30.842h-13.694c-6.127-17.918-23.121-30.842-43.089-30.842c-8.536,0-16.528,2.366-23.364,6.469
			c0.692-5.194,3.094-10.057,6.905-13.794h66.642C391.801,123.728,402.72,121.303,412.617,116.963z M297.423,247.104
			c-10.325-2.113-17.818-11.312-17.818-21.872V192.7c2.774,1.177,5.758,1.949,8.878,2.25c2.748,6.209,6.842,11.688,11.913,16.074
			c2.492,10.518,7.071,20.429,13.377,29.134c-5.467,1.892-10.757,4.261-15.795,7.088
			C297.795,247.195,297.612,247.143,297.423,247.104z M313.465,431.191v-19.039h133.219v19.039H313.465z M461.689,397.786v-32.011
			c0-4.142-3.358-7.5-7.5-7.5s-7.5,3.358-7.5,7.5v31.378h-133.23v-31.378c0-4.142-3.358-7.5-7.5-7.5s-7.5,3.358-7.5,7.5v32.011
			H263.15v-65.582c0-18.794,6.495-37.175,18.287-51.756c11.083-13.705,26.392-23.557,43.32-27.961
			c1.235,1.133,2.493,2.242,3.8,3.299c14.525,11.756,32.821,18.23,51.518,18.23c18.632,0,36.879-6.435,51.379-18.119
			c1.355-1.092,2.66-2.239,3.938-3.411c16.927,4.404,32.234,14.255,43.318,27.959c11.794,14.582,18.29,32.963,18.29,51.759v65.582
			H461.689z"/>
		<path d="M341.384,184.254c4.142,0,7.5-3.358,7.5-7.5v-0.096c0-4.142-3.358-7.452-7.5-7.452s-7.5,3.406-7.5,7.548
			S337.242,184.254,341.384,184.254z"/>
		<path d="M418.766,169.207c-4.142,0-7.5,3.406-7.5,7.548s3.358,7.5,7.5,7.5s7.5-3.358,7.5-7.5v-0.096
			C426.266,172.517,422.908,169.207,418.766,169.207z"/>
		<path d="M341.322,332.036l10.024-10.025c2.929-2.929,2.929-7.678,0-10.606c-2.929-2.93-7.678-2.929-10.606,0l-15.328,15.328
			c-2.929,2.929-2.929,7.678,0,10.606l16.652,16.652c1.464,1.464,3.384,2.197,5.303,2.197s3.839-0.732,5.303-2.197
			c2.929-2.929,2.929-7.678,0-10.606L341.322,332.036z"/>
		<path d="M418.489,311.404c-2.929-2.929-7.678-2.929-10.606,0c-2.929,2.929-2.929,7.678,0,10.606l11.349,11.35l-10.024,10.024
			c-2.929,2.929-2.929,7.677,0,10.606c1.464,1.465,3.384,2.197,5.303,2.197c1.919,0,3.839-0.732,5.303-2.197l15.328-15.328
			c1.407-1.406,2.197-3.314,2.197-5.303s-0.79-3.897-2.197-5.303L418.489,311.404z"/>
		<path d="M392.951,308.554c-3.642-1.977-8.194-0.625-10.168,3.016l-18.196,33.542c-1.975,3.641-0.625,8.193,3.016,10.168
			c1.136,0.617,2.361,0.909,3.569,0.909c2.662,0,5.241-1.421,6.599-3.925l18.196-33.542
			C397.942,315.082,396.592,310.529,392.951,308.554z"/>
	</g>
</g>
<g>
</g>
<g>
</g>
<g>
</g>
<g>
</g>
<g>
</g>
<g>
</g>
<g>
</g>
<g>
</g>
<g>
</g>
<g>
</g>
<g>
</g>
<g>
</g>
<g>
</g>
<g>
</g>
<g>
</g>
</svg>
