<?xml version="1.0" encoding="iso-8859-1"?>
<!-- Generator: Adobe Illustrator 23.0.3, SVG Export Plug-In . SVG Version: 6.00 Build 0)  -->
<svg version="1.1" id="Capa_1" xmlns="http://www.w3.org/2000/svg" xmlns:xlink="http://www.w3.org/1999/xlink" x="0px" y="0px"
	 viewBox="0 0 512.017 512.017" style="enable-background:new 0 0 512.017 512.017;" xml:space="preserve">
<g>
	<g>
		<g>
			<g>
				<g>
					<g>
						<g>
							<path style="fill:#C47A4A;" d="M436.724,491.155H380.01V369.379h66.698v111.791
								C446.708,486.685,442.238,491.155,436.724,491.155z"/>
							<path style="fill:#AA613C;" d="M446.711,369.38v111.79c0,5.511-4.473,9.984-9.984,9.984h-19.229
								c5.511,0,9.984-4.473,9.984-9.984V369.38H446.711z"/>
						</g>
						<g>
							<path style="fill:#C47A4A;" d="M132.007,491.155H75.293c-5.514,0-9.984-4.47-9.984-9.984V369.379h66.698V491.155z"/>
						</g>
					</g>
					<path style="fill:#006AC3;" d="M486.691,344.025c0,22.549-10.286,34.123-26.623,40.015
						c-14.031,5.063-32.525,5.922-52.787,5.922c-5.922,0-11.694-0.639-17.246-1.807v93.017c0,5.514-4.47,9.984-9.984,9.984H131.967
						c-5.514,0-9.984-4.47-9.984-9.984v-93.017c-5.552,1.168-11.325,1.807-17.246,1.807c-20.262,0-38.757-0.859-52.787-5.922
						c-16.337-5.892-26.623-17.466-26.623-40.015c0-41.922,0-105.864,79.411-105.864c8.568,0,16.827,1.298,24.556,3.705
						c11.125,3.465,23.168,1.618,33.184-4.344c12.363-7.36,26.813-11.594,42.242-11.594h102.579
						c15.429,0,29.879,4.234,42.242,11.594c10.016,5.962,22.06,7.809,33.185,4.344c7.729-2.407,15.988-3.705,24.556-3.705
						C486.691,238.16,486.691,302.102,486.691,344.025z"/>
					<path style="fill:#006AC3;" d="M486.686,344.021c0,22.554-10.283,34.125-26.617,40.015c-14.027,5.062-32.528,5.92-52.785,5.92
						c-1.997,0-3.974-0.07-5.93-0.22c14.397-0.469,27.436-1.907,37.959-5.701c16.333-5.891,26.627-17.462,26.627-40.015
						c0-39.766,0-99.34-67.771-105.36c2.985-0.329,6.03-0.499,9.115-0.499C486.686,238.162,486.686,302.099,486.686,344.021z"/>
					<g>
						<g>
							<g>
								<path style="fill:#E84649;" d="M486.684,344.023c0,22.549-10.28,34.12-26.614,40.015l-6.215-8.327l-27.453-36.818
									c-9.412-12.618-24.228-20.05-39.977-20.05H125.591c-15.749,0-30.565,7.431-39.977,20.05l-33.668,45.145
									c-16.334-5.894-26.614-17.466-26.614-40.015c0-41.92,0-105.86,79.397-105.86c8.582,0,16.834,1.301,24.567,3.706
									c10.647,3.31,22.143,1.764,31.895-3.612c0.434-0.236,0.868-0.481,1.292-0.736c12.354-7.356,26.802-11.59,42.24-11.59
									h102.569c15.438,0,29.886,4.234,42.24,11.59c0.425,0.255,0.858,0.5,1.292,0.736c9.751,5.376,21.247,6.922,31.895,3.612
									c4.961-1.537,10.119-2.631,15.448-3.206c2.989-0.33,6.036-0.5,9.119-0.5C486.684,238.163,486.684,302.103,486.684,344.023z"
									/>
								<path style="fill:#D73337;" d="M486.686,344.021c0,22.554-10.283,34.125-26.617,40.015l-6.21-8.327
									c7.658-6.839,12.081-16.903,12.081-31.689c0-39.766,0-99.34-67.771-105.36c2.985-0.329,6.03-0.499,9.115-0.499
									C486.686,238.162,486.686,302.099,486.686,344.021z"/>
							</g>
						</g>
					</g>
					<path style="fill:#FFF5F5;" d="M350.139,131.766H161.877c0,0-6.119,129.819,94.018,130.018v0.005
						c0.038,0,0.075-0.002,0.114-0.002c0.039,0,0.075,0.002,0.113,0.002v-0.005C356.259,261.585,350.139,131.766,350.139,131.766z"
						/>
					<g>
						<path style="fill:#C47A4A;" d="M330.268,108.467l-1.82,36.62c-0.86,17.37-7.18,35.74-17.13,48.44
							c-13.85,1.12-31.92,1.92-55.31,1.92s-41.46-0.8-55.31-1.92c-9.95-12.7-16.27-31.07-17.13-48.44l-1.82-36.62H330.268z"/>
					</g>
					<g>
						<g>
							<g>
								<g>
									<g>
										<line style="fill:#F69583;" x1="307.407" y1="182.901" x2="307.407" y2="182.996"/>
									</g>
								</g>
							</g>
						</g>
					</g>
					<path style="fill:#E84649;" d="M354.792,106.281v19.745c0,4.311-2.758,8.14-6.854,9.484
						c-8.627,2.829-26.622,6.986-60.643,8.629c-9.207,0.449-19.593,0.709-31.287,0.709s-22.08-0.26-31.287-0.709
						c-34.013-1.644-52.012-5.801-60.642-8.63c-4.097-1.343-6.855-5.172-6.855-9.484v-19.743c0-49.142,35.881-89.906,82.876-97.506
						c5.183-0.839,10.496-1.278,15.908-1.278s10.725,0.439,15.908,1.278c20.911,3.375,39.616,13.322,53.946,27.652
						C343.738,54.312,354.792,78.998,354.792,106.281z"/>
					<path style="fill:#D73337;" d="M354.789,106.277v19.748c0,4.313-2.756,8.137-6.849,9.485
						c-4.663,1.528-12.071,3.444-23.253,5.152c3.145-0.759,5.681-1.488,7.708-2.157c4.103-1.348,6.859-5.172,6.859-9.485v-19.748
						c0-27.276-11.052-51.966-28.933-69.847c-14.327-14.337-33.037-24.281-53.943-27.655c-5.182-0.839-10.493-1.278-15.914-1.278
						c-3.714,0-7.388,0.21-11.002,0.619c3.474-0.968,7.029-1.747,10.643-2.336c5.182-0.839,10.493-1.278,15.904-1.278
						s10.723,0.439,15.904,1.278c20.916,3.374,39.616,13.318,53.953,27.655C343.737,54.311,354.789,79.001,354.789,106.277z"/>
					<path style="fill:#1475CC;" d="M271.916,8.775v110.338H240.1V8.775c5.183-0.839,10.496-1.278,15.908-1.278
						S266.734,7.936,271.916,8.775z"/>
					<path style="fill:#FFF5F5;" d="M287.295,111.793v32.346c-9.207,0.449-19.593,0.709-31.287,0.709s-22.08-0.26-31.287-0.709
						v-32.346c0-5.515,4.471-9.986,9.986-9.986h42.602C282.824,101.807,287.295,106.278,287.295,111.793z"/>
				</g>
				<g>
					<path style="fill:#C86D3D;" d="M301.409,473.254c-30.985,30.985-76.282,38.923-114.602,23.813
						c-15.116-38.313-7.185-83.616,23.807-114.608c30.985-30.985,76.289-38.917,114.602-23.801
						C340.325,396.978,332.387,442.275,301.409,473.254z"/>
					<path style="fill:#AC5E33;" d="M301.405,473.257c-30.98,30.98-76.277,38.917-114.595,23.812
						c-1.597-4.043-2.935-8.157-4.014-12.33c35.383,9.175,74.55-0.1,102.275-27.825c27.716-27.715,36.99-66.882,27.815-102.265
						c4.173,1.078,8.287,2.416,12.33,4.014C340.322,396.98,332.385,442.277,301.405,473.257z"/>
				</g>
			</g>
		</g>
	</g>
	<g>
		<path d="M472.51,255.173c-2.743-3.104-7.482-3.396-10.587-0.654c-3.104,2.743-3.396,7.482-0.653,10.586
			c17.921,20.28,17.921,54.169,17.921,78.915c0,15.444-5.156,25.047-16.63,30.817l-30.148-40.426
			c-10.773-14.447-27.964-23.071-45.985-23.071H125.589c-18.021,0-35.212,8.625-45.986,23.071l-30.147,40.426
			c-11.474-5.77-16.63-15.373-16.63-30.817c0-20.387,0-45.76,9.22-65.475c10.35-22.131,30.855-32.889,62.69-32.889
			c7.629,0,15.142,1.134,22.327,3.37c12.835,3.995,27.143,2.148,39.255-5.063c5.557-3.309,11.491-5.864,17.677-7.635
			c2.343,2.909,4.813,5.63,7.407,8.163c3.63,30.558,3.664,30.762,3.694,30.934c2.215,13.213,13.75,22.804,27.428,22.804h66.971
			c13.678,0,25.213-9.59,27.427-22.795c0.03-0.179,0.064-0.384,3.695-30.944c2.596-2.534,5.07-5.254,7.414-8.166
			c6.185,1.771,12.119,4.333,17.67,7.639c7.912,4.71,16.758,7.132,25.521,7.131c4.652,0,9.283-0.683,13.734-2.068
			c7.186-2.236,14.698-3.37,22.327-3.37c10.423,0,19.797,1.19,27.861,3.536c3.976,1.157,8.14-1.128,9.297-5.106
			c1.157-3.977-1.129-8.14-5.105-9.296c-9.428-2.743-20.212-4.134-32.053-4.134c-9.143,0-18.153,1.362-26.784,4.047
			c-8.775,2.732-18.663,1.409-27.123-3.629c-5.236-3.118-10.762-5.674-16.492-7.664c2.386-4.094,4.588-8.447,6.59-13.067
			c1.746-4.03,3.274-8.106,4.622-12.173c5.089-0.845,7.165-1.485,7.414-1.565c3.942-1.271,6.109-5.496,4.839-9.439
			c-1.093-3.389-4.373-5.457-7.772-5.168c4.199-18.517,5.036-35.166,5.128-44.167c2.882-3.147,4.59-7.315,4.59-11.807v-19.741
			C362.292,47.679,314.614,0,256.008,0c-24.454,0-48.332,8.513-67.236,23.971c-3.206,2.623-3.68,7.347-1.058,10.554
			c2.621,3.206,7.346,3.681,10.554,1.059c10.094-8.254,21.841-14.198,34.332-17.517v76.38c-8.65,1.046-15.379,8.419-15.379,17.347
			v24.422c-28.239-1.816-43.43-5.414-50.799-7.832c-1.016-0.333-1.698-1.281-1.698-2.359v-19.739
			c0-16.639,4.521-32.923,13.071-47.094c2.141-3.546,1.001-8.156-2.546-10.296c-3.545-2.139-8.156-1.001-10.296,2.546
			c-9.963,16.509-15.229,35.474-15.229,54.844v19.739c0,4.493,1.709,8.661,4.591,11.808c0.09,9.133,0.934,25.725,5.119,44.165
			c-3.396-0.286-6.671,1.784-7.763,5.17c-1.271,3.943,0.896,8.168,4.839,9.439c0.249,0.08,2.324,0.72,7.41,1.564
			c1.292,3.894,2.75,7.798,4.406,11.662c2.06,4.809,4.331,9.336,6.804,13.579c-5.725,1.989-11.247,4.543-16.485,7.663
			c-8.462,5.039-18.35,6.36-27.124,3.629c-8.631-2.686-17.642-4.047-26.784-4.047c-37.726,0-63.389,13.974-76.277,41.534
			c-10.633,22.736-10.633,49.957-10.633,71.83c0,22.23,9.343,37.563,27.769,45.572c1.272,0.553,2.589,1.056,3.926,1.537
			c0.055,0.019,0.109,0.041,0.165,0.058c2.59,0.925,5.29,1.732,8.124,2.413v87.571c0,9.641,7.843,17.484,17.483,17.484
			c4.143,0,7.5-3.358,7.5-7.5s-3.357-7.5-7.5-7.5c-1.369,0-2.483-1.114-2.483-2.484V396.11c9.516,1.04,20.124,1.356,31.927,1.356
			c3.244,0,6.502-0.178,9.749-0.532v16.358c0,4.142,3.357,7.5,7.5,7.5s7.5-3.358,7.5-7.5v-51.21c0-4.142-3.357-7.5-7.5-7.5
			s-7.5,3.358-7.5,7.5v19.72c-3.246,0.424-6.506,0.664-9.749,0.664c-14.062,0-28.302-0.421-40.186-2.778l27.077-36.31
			c7.957-10.669,20.653-17.039,33.962-17.039h260.838c13.309,0,26.004,6.37,33.961,17.039l27.078,36.31
			c-11.884,2.357-26.124,2.778-40.186,2.778c-3.243,0-6.503-0.24-9.749-0.664v-19.72c0-4.142-3.357-7.5-7.5-7.5s-7.5,3.358-7.5,7.5
			v119.089c0,1.37-1.114,2.484-2.483,2.484c-4.143,0-7.5,3.358-7.5,7.5s3.357,7.5,7.5,7.5c9.641,0,17.483-7.843,17.483-17.484
			v-84.237c3.247,0.353,6.505,0.532,9.749,0.532c11.802,0,22.411-0.316,31.927-1.356v85.061c0,1.37-1.114,2.484-2.483,2.484
			c-4.143,0-7.5,3.358-7.5,7.5s3.357,7.5,7.5,7.5c9.641,0,17.483-7.843,17.483-17.484V393.6c2.855-0.686,5.573-1.499,8.179-2.432
			c0.114-0.037,0.227-0.077,0.34-0.12c1.257-0.457,2.496-0.934,3.696-1.456c18.426-8.009,27.769-23.342,27.769-45.572
			C494.191,316.879,494.191,279.708,472.51,255.173z M169.523,144.827c1.96,0.48,4.163,0.97,6.612,1.46
			c0.804,13.745,4.667,27.66,10.765,39.44c-4.45-0.36-8.216-0.734-11.377-1.096C171.463,169.391,170.003,154.916,169.523,144.827z
			 M256.008,152.351c28.474,0,49.43-1.56,64.626-3.57c-1.412,13.839-6.466,27.927-13.719,38.104
			c-13.125,0.629-29.823,1.065-50.907,1.065c-21.073,0-37.776-0.439-50.912-1.072c-7.25-10.177-12.303-24.261-13.715-38.099
			C206.58,150.79,227.536,152.351,256.008,152.351z M336.488,184.648c-3.156,0.361-6.925,0.734-11.377,1.093
			c6.102-11.783,9.967-25.702,10.771-39.45c2.448-0.49,4.651-0.98,6.611-1.46C342.01,154.874,340.552,169.381,336.488,184.648z
			 M204.304,225.937c13.057,1.24,27.863,1.948,44.204,2.112v25.942c-16.868-1.279-31.186-6.894-42.866-16.783
			C205.203,233.503,204.753,229.712,204.304,225.937z M263.508,228.05c16.337-0.164,31.151-0.871,44.203-2.109
			c-0.448,3.774-0.898,7.564-1.338,11.268c-11.68,9.889-25.999,15.504-42.865,16.783V228.05z M309.522,210.687
			c-13.348,1.395-28.784,2.186-46.014,2.363v-10.118c19.277-0.098,34.74-0.572,47.079-1.22
			C310.253,204.528,309.896,207.542,309.522,210.687z M248.508,202.932v10.117c-17.237-0.177-32.661-0.97-46.015-2.366
			c-0.373-3.143-0.73-6.156-1.064-8.971C213.768,202.359,229.231,202.833,248.508,202.932z M209.911,273.074
			c-0.129-1.053-0.865-7.232-1.897-15.909c11.815,6.873,25.373,10.874,40.494,11.868v14.196h-25.985
			C216.352,283.229,210.957,278.876,209.911,273.074z M302.105,273.076c-1.041,5.797-6.438,10.153-12.611,10.153h-25.985v-14.196
			c15.121-0.995,28.678-4.999,40.495-11.873C302.97,265.846,302.233,272.029,302.105,273.076z M329.708,204.38
			c-1.736,4.007-3.629,7.77-5.671,11.298c0.548-4.615,1.139-9.601,1.775-14.96c1.986-0.159,3.848-0.321,5.598-0.485
			C330.866,201.62,330.304,203.004,329.708,204.38z M347.292,106.284v19.741c0,1.078-0.683,2.026-1.698,2.36
			c-7.364,2.417-22.551,6.015-50.799,7.83v-24.423c0-8.927-6.729-16.301-15.379-17.347V18.047
			C318.445,28.41,347.292,64.039,347.292,106.284z M256.008,15c2.835,0,5.638,0.137,8.408,0.391v78.916H247.6V15.401
			C250.388,15.142,253.193,15,256.008,15z M232.221,111.793c0-1.371,1.115-2.486,2.486-2.486h42.602
			c1.371,0,2.486,1.115,2.486,2.486v25.159c-7.231,0.254-15.136,0.399-23.787,0.399c-8.651,0-16.556-0.145-23.787-0.399V111.793z
			 M186.205,200.718c0.636,5.364,1.229,10.354,1.777,14.972c-2.121-3.664-4.078-7.586-5.869-11.766
			c-0.525-1.226-1.022-2.457-1.505-3.691C182.358,200.397,184.219,200.56,186.205,200.718z"/>
		<path d="M131.968,483.655c-1.369,0-2.483-1.114-2.483-2.484V447.01c0-4.142-3.357-7.5-7.5-7.5s-7.5,3.358-7.5,7.5v34.161
			c0,9.641,7.843,17.484,17.483,17.484c4.143,0,7.5-3.358,7.5-7.5S136.111,483.655,131.968,483.655z"/>
		<path d="M217.548,171.153c4.143,0,7.5-3.358,7.5-7.5v-0.095c0-4.142-3.357-7.452-7.5-7.452s-7.5,3.405-7.5,7.547
			S213.406,171.153,217.548,171.153z"/>
		<path d="M294.468,171.153c4.143,0,7.5-3.358,7.5-7.5v-0.095c0-4.142-3.357-7.452-7.5-7.452s-7.5,3.405-7.5,7.547
			S290.326,171.153,294.468,171.153z"/>
		<path d="M327.968,351.682c-42.337-16.704-90.479-6.704-122.658,25.474c-32.181,32.181-42.183,80.33-25.479,122.664
			c0.763,1.933,2.293,3.462,4.226,4.225c13.606,5.365,27.811,7.972,41.895,7.972c29.736,0,58.927-11.625,80.762-33.459
			c32.171-32.172,42.173-80.315,25.48-122.649C331.43,353.975,329.901,352.445,327.968,351.682z M296.105,467.951
			c-27.175,27.176-67.461,36.145-103.476,23.292c-12.859-36.013-3.893-76.301,23.288-103.481
			c27.176-27.176,67.464-36.139,103.474-23.281C332.244,400.495,323.277,440.779,296.105,467.951z"/>
		<path d="M283.388,411.086l3.452-3.452c2.929-2.929,2.929-7.678,0-10.606c-2.93-2.929-7.678-2.929-10.607,0l-3.452,3.452
			l-4.865-4.865c-2.93-2.929-7.678-2.929-10.607,0c-2.929,2.929-2.929,7.678,0,10.606l4.865,4.865l-6.166,6.167l-4.865-4.865
			c-2.93-2.929-7.678-2.929-10.607,0c-2.929,2.929-2.929,7.678,0,10.606l4.865,4.865l-6.166,6.167l-4.865-4.865
			c-2.93-2.929-7.678-2.929-10.607,0c-2.929,2.929-2.929,7.678,0,10.606l4.865,4.865l-3.452,3.452
			c-2.929,2.929-2.929,7.678,0,10.606c1.465,1.464,3.385,2.197,5.304,2.197s3.839-0.732,5.304-2.197l3.452-3.452l4.865,4.864
			c1.465,1.464,3.385,2.197,5.304,2.197s3.839-0.732,5.304-2.197c2.929-2.929,2.929-7.678,0-10.606l-4.865-4.865l6.166-6.166
			l4.865,4.865c1.465,1.464,3.385,2.197,5.304,2.197s3.839-0.732,5.304-2.197c2.929-2.929,2.929-7.678,0-10.606l-4.865-4.865
			l6.166-6.167l4.865,4.865c1.465,1.464,3.385,2.197,5.304,2.197s3.839-0.732,5.304-2.197c2.929-2.929,2.929-7.678,0-10.606
			L283.388,411.086z"/>
	</g>
</g>
<g>
</g>
<g>
</g>
<g>
</g>
<g>
</g>
<g>
</g>
<g>
</g>
<g>
</g>
<g>
</g>
<g>
</g>
<g>
</g>
<g>
</g>
<g>
</g>
<g>
</g>
<g>
</g>
<g>
</g>
</svg>
