<?xml version="1.0" encoding="iso-8859-1"?>
<!-- Generator: Adobe Illustrator 23.0.3, SVG Export Plug-In . SVG Version: 6.00 Build 0)  -->
<svg version="1.1" id="Capa_1" xmlns="http://www.w3.org/2000/svg" xmlns:xlink="http://www.w3.org/1999/xlink" x="0px" y="0px"
	 viewBox="0 0 512 512" style="enable-background:new 0 0 512 512;" xml:space="preserve">
<g>
	<g>
		<g>
			<g>
				<g>
					<g>
						<path style="fill:#E84649;" d="M155.915,73.269c-80.375,0-145.537,65.162-145.537,145.537S75.54,364.342,155.915,364.342
							s145.537-65.162,145.537-145.537S236.29,73.269,155.915,73.269z M155.915,311.371c-51.127,0-92.566-41.439-92.566-92.566
							s41.439-92.566,92.566-92.566s92.566,41.439,92.566,92.566S207.042,311.371,155.915,311.371z"/>
					</g>
					<path style="fill:#FFF5F5;" d="M10.378,218.805h52.97c0-51.127,41.44-92.566,92.566-92.566v-52.97
						C75.54,73.269,10.378,138.43,10.378,218.805z"/>
				</g>
			</g>
		</g>
		<g>
			<path style="fill:#2EA8FC;" d="M7.5,355.917c31.064,0,31.064-34,62.129-34s31.064,34,62.129,34c31.063,0,31.063-34,62.126-34
				c31.062,0,31.062,34,62.124,34c31.061,0,31.061-34,62.121-34c31.062,0,31.062,34,62.124,34c31.062,0,31.062-34,62.125-34
				c31.061,0,31.061,34,62.122,34v120.795c-31.061,0-31.061-34-62.122-34c-31.062,0-31.062,34-62.125,34
				c-31.062,0-31.062-34-62.124-34c-31.061,0-31.061,34-62.121,34c-31.062,0-31.062-34-62.124-34c-31.063,0-31.063,34-62.126,34
				c-31.065,0-31.065-34-62.129-34s-31.064,34-62.129,34V355.917z"/>
		</g>
		<path style="fill:#FFF5F5;" d="M467.942,312.849v167.698c0,5.359-4.349,9.708-9.708,9.708H141.36
			c-5.359,0-9.708-4.349-9.708-9.708V312.849c0-32.996,19.881-61.362,48.315-73.758c9.834-4.291,20.697-6.669,32.113-6.669h175.435
			c4.398,0,8.717,0.349,12.921,1.039c6.718,1.078,13.144,2.99,19.192,5.63C448.061,251.487,467.942,279.853,467.942,312.849z"/>
		<path style="fill:#E0D3CE;" d="M467.947,312.844v167.703c0,5.359-4.352,9.711-9.711,9.711h-22.372
			c5.359,0,9.701-4.352,9.701-9.711V312.844c0-32.996-19.879-61.361-48.305-73.751c-6.055-2.638-12.474-4.559-19.193-5.629
			c-4.206-0.696-8.527-1.039-12.92-1.039h22.371c4.393,0,8.714,0.343,12.92,1.039c6.72,1.07,13.138,2.991,19.193,5.629
			C448.058,251.484,467.947,279.848,467.947,312.844z"/>
		<g>
			<path style="fill:#2EA8FC;" d="M234.117,226.118l-48.692,5.109c-7.894,0.828-11.723,10.082-6.722,16.246l114.618,141.27
				c4.002,4.933,11.529,4.933,15.531,0l114.618-141.27c5.001-6.164,1.172-15.418-6.722-16.246l-48.692-5.109H234.117z"/>
		</g>
		<g>
			<g>
				<g>
					<path style="fill:#E84649;" d="M357.193,370.365c15.324,15.324,20.371,37.023,15.159,56.545
						c-19.522,5.212-41.22,0.166-56.545-15.158s-20.381-37.033-15.168-56.555C320.16,349.985,341.868,355.041,357.193,370.365z"/>
					<path style="fill:#D73337;" d="M372.35,426.908c-8.78,2.34-18.01,2.61-26.89,0.8c1.15-0.23,2.29-0.5,3.43-0.8
						c5.22-19.52,0.17-41.22-15.15-56.54c-8.44-8.44-18.81-13.76-29.69-15.97c18.6-3.79,38.71,1.53,53.14,15.97
						C372.52,385.689,377.56,407.388,372.35,426.908z"/>
					<path style="fill:#E84649;" d="M244.98,370.365c-15.324,15.324-20.371,37.023-15.159,56.545
						c19.522,5.212,41.22,0.166,56.545-15.158s20.381-37.033,15.168-56.555C282.013,349.985,260.305,355.041,244.98,370.365z"/>
					<path style="fill:#D73337;" d="M286.37,411.748c-14.07,14.07-33.51,19.47-51.7,16.23c11.36-2.03,22.25-7.44,31.03-16.23
						c15.32-15.32,20.38-37.03,15.17-56.55c-1.59-0.42-3.19-0.78-4.81-1.06c8.44-1.52,17.16-1.16,25.47,1.06
						C306.75,374.719,301.69,396.428,286.37,411.748z"/>
				</g>
			</g>
			<g>
				<circle style="fill:#ED6264;" cx="301.087" cy="361.648" r="24.119"/>
			</g>
		</g>
		<g>
			<g>
				<g>
					<g>
						<circle style="fill:#FFBC8A;" cx="199.043" cy="156.718" r="22.459"/>
					</g>
				</g>
				<g>
					<g>
						<circle style="fill:#FFBC8A;" cx="400.552" cy="156.718" r="22.459"/>
					</g>
				</g>
			</g>
			<path style="fill:#FDD1A7;" d="M299.798,277.683L299.798,277.683c-45.69,0-83.382-35.771-85.771-81.398l-2.667-50.949
				c-1.717-32.806,24.42-60.348,57.271-60.348h62.333c32.851,0,58.989,27.541,57.271,60.348l-2.667,50.949
				C383.18,241.912,345.487,277.683,299.798,277.683z"/>
			<g>
				<g>
					<g>
						<path style="fill:#FFF5F5;" d="M391.457,87.118c-13.618-38.104-50.018-65.377-92.803-65.377s-79.184,27.273-92.803,65.377
							H391.457z"/>
						<path style="fill:#E0D3CE;" d="M391.46,87.118H365.2c-12.2-34.14-42.69-59.59-79.68-64.51c4.3-0.57,8.68-0.87,13.13-0.87
							C341.44,21.739,377.84,49.018,391.46,87.118z"/>
					</g>
					<path style="fill:#FFF5F5;" d="M409.78,88.108l-3.09,13.34l-7.29,31.51c-1.05,4.54-5.08,7.75-9.74,7.75H207.65
						c-4.66,0-8.7-3.21-9.75-7.75l-7.29-31.51l-3.08-13.34c-1.45-6.26,3.31-12.25,9.74-12.25h202.76
						C406.47,75.858,411.23,81.848,409.78,88.108z"/>
					<path style="fill:#E0D3CE;" d="M409.78,88.108l-3.09,13.34l-7.29,31.51c-1.05,4.54-5.08,7.75-9.74,7.75h-21.23
						c4.66,0,8.69-3.21,9.74-7.75l7.29-31.51l3.09-13.34c1.45-6.26-3.31-12.25-9.75-12.25h21.23
						C406.47,75.858,411.23,81.848,409.78,88.108z"/>
					<path style="fill:#2EA8FC;" d="M409.78,88.108l-3.09,13.34H190.61l-3.08-13.34c-1.45-6.26,3.31-12.25,9.74-12.25h202.76
						C406.47,75.858,411.23,81.848,409.78,88.108z"/>
					<path style="fill:#0086F9;" d="M409.78,88.108l-3.09,13.34h-21.23l3.09-13.34c1.45-6.26-3.31-12.25-9.75-12.25h21.23
						C406.47,75.858,411.23,81.848,409.78,88.108z"/>
				</g>
			</g>
		</g>
	</g>
	<g>
		<path d="M504.5,423.815c4.142,0,7.5-3.357,7.5-7.5s-3.358-7.5-7.5-7.5c-12.223,0-18.093-6.425-25.523-14.558
			c-1.141-1.249-2.323-2.532-3.536-3.804v-38.73c6.837,6.255,15.679,11.694,29.059,11.694c4.142,0,7.5-3.357,7.5-7.5
			s-3.358-7.5-7.5-7.5c-12.223,0-18.092-6.424-25.523-14.558c-1.141-1.249-2.323-2.531-3.536-3.804v-17.203
			c0-31.08-15.901-59.237-42.537-75.32c-0.033-0.02-0.068-0.035-0.102-0.055c-0.219-1.013-0.521-2.016-0.926-2.995
			c-2.457-5.938-7.953-10.044-14.345-10.715l-28.924-3.035c2.479-7.624,4.012-15.686,4.451-24.057l0.566-10.82
			c2.255,0.534,4.575,0.821,6.927,0.821c16.52,0,29.959-13.439,29.959-29.959c0-13.84-9.436-25.513-22.211-28.938l8.785-37.979
			c1.209-5.228-0.013-10.634-3.352-14.834s-8.332-6.609-13.698-6.609h-8.939C372.3,34.939,337.04,14.242,298.654,14.242
			c-38.376,0-73.647,20.701-92.443,54.116h-8.937c-2.353,0-4.623,0.488-6.725,1.363c-11.279-2.609-22.904-3.945-34.58-3.949
			c-0.018,0-0.036-0.003-0.054-0.003c-0.017,0-0.034,0.002-0.052,0.003C71.521,65.8,2.909,134.411,2.881,218.753
			c0,0.018-0.003,0.034-0.003,0.052c0,0.017,0.002,0.034,0.003,0.051c0.013,39.181,14.558,75.935,41.125,104.34
			c-4.282,3.335-7.788,7.171-10.978,10.663c-7.432,8.134-13.302,14.559-25.527,14.559c-4.142,0-7.5,3.357-7.5,7.5s3.358,7.5,7.5,7.5
			c18.839,0,28.688-10.779,36.602-19.441c7.432-8.134,13.302-14.559,25.527-14.559c12.226,0,18.096,6.425,25.528,14.559
			c7.081,7.75,15.042,16.419,28.998,18.794v45.059c-7.42-2.086-12.18-7.287-17.924-13.573c-7.914-8.662-17.763-19.441-36.602-19.441
			s-28.688,10.779-36.602,19.441c-7.432,8.134-13.302,14.559-25.527,14.559c-4.142,0-7.5,3.357-7.5,7.5s3.358,7.5,7.5,7.5
			c18.839,0,28.688-10.779,36.602-19.441c7.432-8.134,13.302-14.559,25.527-14.559s18.096,6.425,25.527,14.559
			c7.081,7.75,15.042,16.419,28.998,18.794v45.059c-7.42-2.086-12.18-7.287-17.924-13.573c-7.914-8.662-17.763-19.441-36.602-19.441
			s-28.688,10.779-36.602,19.441c-7.432,8.134-13.302,14.559-25.527,14.559c-4.142,0-7.5,3.357-7.5,7.5s3.358,7.5,7.5,7.5
			c18.839,0,28.688-10.779,36.602-19.441c7.432-8.134,13.302-14.559,25.527-14.559s18.096,6.425,25.528,14.559
			c7.13,7.804,15.15,16.541,29.286,18.844c1.451,8.029,8.477,14.144,16.919,14.144c4.142,0,7.5-3.357,7.5-7.5s-3.358-7.5-7.5-7.5
			c-1.217,0-2.208-0.99-2.208-2.207V312.853c0-24.81,12.637-47.833,33.29-61.228c0.143,0.192,0.282,0.386,0.434,0.573l48.415,59.672
			c1.482,1.827,3.646,2.774,5.829,2.774c1.66,0,3.332-0.549,4.721-1.676c3.216-2.609,3.708-7.333,1.099-10.55l-48.415-59.672
			c-0.816-1.006-0.581-2.018-0.369-2.531s0.761-1.396,2.049-1.53l30.999-3.252c15.704,29.692,46.894,49.749,82.591,49.749
			c35.799,0,67.064-20.173,82.724-50.006l33.444,3.509c1.288,0.136,1.837,1.018,2.05,1.531s0.447,1.525-0.369,2.53l-85.256,105.08
			c-1.075-0.278-2.161-0.521-3.254-0.746c-5.278-10.122-15.867-17.053-28.05-17.053c-12.184,0-22.772,6.931-28.05,17.053
			c-1.093,0.224-2.179,0.468-3.254,0.746l-14.193-17.493c-2.61-3.217-7.333-3.708-10.55-1.099c-3.216,2.61-3.708,7.333-1.099,10.55
			l11.182,13.782c-5.633,3.029-10.833,6.881-15.446,11.494c-16.617,16.616-23.169,41.057-17.102,63.782
			c0.692,2.594,2.718,4.619,5.311,5.312c5.604,1.496,11.311,2.226,16.98,2.226c17.322-0.001,34.283-6.808,46.803-19.326
			c3.629-3.629,6.767-7.607,9.422-11.879c2.669,4.293,5.825,8.292,9.412,11.879c12.521,12.52,29.479,19.326,46.803,19.326
			c5.668-0.001,11.377-0.729,16.98-2.226c2.593-0.692,4.619-2.718,5.311-5.312c6.068-22.726-0.485-47.165-17.102-63.781
			c-4.613-4.614-9.814-8.466-15.446-11.495l81.792-100.811c19.865,13.636,31.599,35.787,31.599,60.096v167.698
			c0,1.217-0.99,2.207-2.208,2.207c-4.142,0-7.5,3.357-7.5,7.5s3.358,7.5,7.5,7.5c9.488,0,17.208-7.719,17.208-17.207v-8.033
			c6.837,6.255,15.679,11.694,29.059,11.694c4.142,0,7.5-3.357,7.5-7.5s-3.358-7.5-7.5-7.5c-12.224,0-18.093-6.425-25.524-14.56
			c-1.141-1.248-2.322-2.531-3.535-3.803v-38.729C482.278,418.376,491.12,423.815,504.5,423.815z M163.415,80.98
			c5.581,0.3,11.13,0.928,16.607,1.891c-0.391,2.265-0.334,4.615,0.202,6.93l7.92,34.245c-7.994-2.723-16.267-4.408-24.729-5.032
			V80.98z M194.633,142.436c2.434,2.709,5.693,4.602,9.346,5.375l1.181,22.555c-1.91,0.858-3.985,1.312-6.117,1.312
			c-8.248,0-14.958-6.711-14.958-14.959C184.084,150.107,188.526,144.342,194.633,142.436z M207.647,133.208
			c-1.17,0-2.172-0.797-2.436-1.937l-5.162-22.319h197.209l-5.162,22.319c-0.264,1.141-1.265,1.937-2.436,1.937H207.647z
			 M415.511,156.718c0,8.248-6.71,14.959-14.959,14.959c-2.128,0-4.205-0.451-6.117-1.309l1.215-23.208
			c2.894-1.045,5.436-2.839,7.398-5.176C410.11,143.179,415.511,149.322,415.511,156.718z M298.654,29.242
			c30.042,0,57.856,14.769,74.768,39.116h-22.546c-4.142,0-7.5,3.357-7.5,7.5s3.358,7.5,7.5,7.5h49.158
			c1.049,0,1.676,0.592,1.957,0.944c0.28,0.353,0.715,1.097,0.479,2.118l-1.742,7.531H196.581l-1.742-7.532
			c-0.237-1.021,0.198-1.765,0.479-2.117s0.907-0.944,1.957-0.944h117.85c4.142,0,7.5-3.357,7.5-7.5s-3.358-7.5-7.5-7.5h-91.238
			C240.797,44.012,268.62,29.242,298.654,29.242z M106.23,333.859c-7.914-8.662-17.763-19.441-36.602-19.441
			c-4.362,0-8.236,0.583-11.722,1.579c-24.066-24.242-38.029-55.76-39.824-89.691h38.05c1.396,19.016,8.094,36.991,19.599,52.375
			c12.148,16.244,29.285,28.607,48.422,35.021v33.73C116.734,345.346,111.974,340.145,106.23,333.859z M184.643,223.768
			c-6.391,0.67-11.888,4.775-14.345,10.713c-0.173,0.417-0.324,0.839-0.463,1.264c-0.129,0.063-0.26,0.12-0.388,0.19
			c-23.603,13.109-39.651,36.179-44.063,62.275c-14.837-5.732-28.06-15.703-37.64-28.513
			c-11.054-14.779-16.896-32.378-16.896-50.892c0-18.836,6.034-36.684,17.45-51.613c2.516-3.29,1.888-7.997-1.402-10.514
			c-3.29-2.515-7.997-1.888-10.514,1.402c-11.908,15.573-18.827,33.843-20.248,53.225H18.086
			C21.861,141.151,78.26,84.752,148.415,80.977v38.053c-15.176,1.139-29.928,5.709-43.053,13.407
			c-3.573,2.096-4.771,6.691-2.675,10.264c1.396,2.381,3.902,3.707,6.476,3.707c1.289,0,2.595-0.332,3.788-1.031
			c12.98-7.613,27.837-11.638,42.964-11.638c7.184,0,14.232,0.88,21.07,2.624c-4.93,5.345-7.9,12.496-7.9,20.356
			c0,16.52,13.439,29.959,29.958,29.959c2.355,0,4.675-0.282,6.928-0.815l0.566,10.814c0.443,8.466,2.005,16.618,4.533,24.319
			L184.643,223.768z M299.797,270.183c-41.715,0-76.101-32.632-78.281-74.29l-2.496-47.686h161.554l-2.496,47.686
			C375.898,237.551,341.513,270.183,299.797,270.183z M301.086,345.029c9.164,0,16.62,7.455,16.62,16.619
			s-7.456,16.619-16.62,16.619s-16.619-7.455-16.619-16.619S291.922,345.029,301.086,345.029z M236.108,420.624
			c-2.847-16.281,2.387-33.167,14.175-44.955c5.488-5.488,12.043-9.594,19.247-12.105c0.793,13.191,9.706,24.222,21.797,28.156
			c-2.511,5.459-5.943,10.407-10.265,14.729C269.274,418.238,252.388,423.47,236.108,420.624z M366.065,420.624
			c-16.281,2.848-33.167-2.387-44.955-14.176c-4.337-4.337-7.777-9.273-10.281-14.723c12.1-3.929,21.021-14.965,21.814-28.161
			c7.204,2.511,13.759,6.617,19.247,12.106C363.678,387.458,368.912,404.343,366.065,420.624z"/>
		<path d="M189.239,347.375c-4.142,0-7.5,3.357-7.5,7.5v135.38c0,4.143,3.358,7.5,7.5,7.5s7.5-3.357,7.5-7.5v-135.38
			C196.739,350.732,193.381,347.375,189.239,347.375z"/>
		<path d="M410.361,347.375c-4.142,0-7.5,3.357-7.5,7.5v135.38c0,4.143,3.358,7.5,7.5,7.5s7.5-3.357,7.5-7.5v-135.38
			C417.861,350.732,414.503,347.375,410.361,347.375z"/>
		<path d="M30.774,57.95c4.142,0,7.5-3.357,7.5-7.5c0-4.846,3.942-8.787,8.787-8.787c2.745,0,5.198,1.267,6.811,3.244
			c-2.019,1.344-3.351,3.639-3.351,6.246c0,4.143,3.358,7.5,7.5,7.5h10.655c4.142,0,7.5-3.357,7.5-7.5
			c0-2.608-1.332-4.902-3.351-6.246c1.613-1.978,4.066-3.244,6.811-3.244c4.845,0,8.787,3.941,8.787,8.787
			c0,4.143,3.358,7.5,7.5,7.5s7.5-3.357,7.5-7.5c0-13.116-10.671-23.787-23.787-23.787c-6.298,0-12.028,2.465-16.288,6.474
			c-4.26-4.01-9.989-6.474-16.287-6.474c-13.116,0-23.787,10.671-23.787,23.787C23.274,54.592,26.632,57.95,30.774,57.95z"/>
		<path d="M468.081,107.257c-4.26-4.01-9.989-6.474-16.287-6.474c-13.116,0-23.787,10.671-23.787,23.787c0,4.143,3.358,7.5,7.5,7.5
			s7.5-3.357,7.5-7.5c0-4.846,3.942-8.787,8.787-8.787c2.745,0,5.198,1.266,6.81,3.244c-2.019,1.344-3.351,3.638-3.351,6.246
			c0,4.143,3.358,7.5,7.5,7.5h10.655c4.142,0,7.5-3.357,7.5-7.5c0-2.608-1.332-4.902-3.351-6.246
			c1.613-1.978,4.066-3.244,6.81-3.244c4.846,0,8.788,3.941,8.788,8.787c0,4.143,3.358,7.5,7.5,7.5s7.5-3.357,7.5-7.5
			c0-13.116-10.671-23.787-23.788-23.787C478.07,100.783,472.34,103.247,468.081,107.257z"/>
		<path d="M416.547,57.598c4.142,0,7.5-3.357,7.5-7.5c0-4.846,3.942-8.788,8.787-8.788c2.745,0,5.198,1.267,6.811,3.245
			c-2.019,1.344-3.351,3.638-3.351,6.246c0,4.143,3.358,7.5,7.5,7.5h10.655c4.142,0,7.5-3.357,7.5-7.5
			c0-2.608-1.332-4.902-3.351-6.246c1.613-1.978,4.066-3.245,6.811-3.245c4.846,0,8.788,3.942,8.788,8.788
			c0,4.143,3.358,7.5,7.5,7.5s7.5-3.357,7.5-7.5c0-13.117-10.671-23.788-23.788-23.788c-6.298,0-12.027,2.465-16.287,6.475
			c-4.26-4.01-9.989-6.475-16.287-6.475c-13.116,0-23.787,10.671-23.787,23.788C409.047,54.241,412.405,57.598,416.547,57.598z"/>
		<path d="M259.761,175.167c-4.142,0-7.5,3.407-7.5,7.55s3.358,7.5,7.5,7.5s7.5-3.357,7.5-7.5v-0.099
			C267.261,178.475,263.903,175.167,259.761,175.167z"/>
		<path d="M339.834,175.167c-4.142,0-7.5,3.407-7.5,7.55s3.358,7.5,7.5,7.5s7.5-3.357,7.5-7.5v-0.099
			C347.334,178.475,343.977,175.167,339.834,175.167z"/>
		<path d="M324.242,208.201c-3.979-1.143-8.136,1.153-9.281,5.135c-1.934,6.727-8.17,11.424-15.164,11.424
			c-6.994,0-13.229-4.697-15.165-11.424c-1.145-3.98-5.301-6.28-9.281-5.135c-3.981,1.146-6.28,5.301-5.134,9.281
			c3.773,13.116,15.937,22.277,29.58,22.277c13.644,0,25.808-9.161,29.58-22.277C330.522,213.5,328.223,209.346,324.242,208.201z"/>
	</g>
</g>
<g>
</g>
<g>
</g>
<g>
</g>
<g>
</g>
<g>
</g>
<g>
</g>
<g>
</g>
<g>
</g>
<g>
</g>
<g>
</g>
<g>
</g>
<g>
</g>
<g>
</g>
<g>
</g>
<g>
</g>
</svg>
