<?xml version="1.0" encoding="iso-8859-1"?>
<!-- Generator: Adobe Illustrator 23.0.3, SVG Export Plug-In . SVG Version: 6.00 Build 0)  -->
<svg version="1.1" id="Capa_1" xmlns="http://www.w3.org/2000/svg" xmlns:xlink="http://www.w3.org/1999/xlink" x="0px" y="0px"
	 viewBox="0 0 511.998 511.998" style="enable-background:new 0 0 511.998 511.998;" xml:space="preserve">
<g>
	<g>
		<path style="fill:#9E9797;" d="M228.23,461.467v6.6c0,5.55-4.5,10.05-10.05,10.05H17.55c-5.55,0-10.05-4.5-10.05-10.05v-6.6
			c0-5.55,4.5-10.05,10.05-10.05h200.63C223.73,451.417,228.23,455.917,228.23,461.467z"/>
		<path style="fill:#756F6F;" d="M228.23,461.467v6.6c0,5.55-4.5,10.05-10.05,10.05h-82.09v-26.7h82.09
			C223.73,451.417,228.23,455.917,228.23,461.467z"/>
		<g>
			<rect x="69.817" y="284.486" style="fill:#9E9797;" width="114.584" height="59.509"/>
			<rect x="136.094" y="284.486" style="fill:#756F6F;" width="48.307" height="59.509"/>
			<path style="fill:#E0D3CE;" d="M70.22,364.024H17.551c-5.551,0-10.051-4.5-10.051-10.051v-61.932
				c0-10.775,8.735-19.51,19.51-19.51h43.21c5.551,0,10.051,4.5,10.051,10.051v71.392C80.272,359.524,75.772,364.024,70.22,364.024z
				"/>
		</g>
		<g>
			<path style="fill:#C99D5C;" d="M323.69,52.429c0,0,58.367-1.549,58.367,72.064v99.204c0,16.234-13.16,29.394-29.394,29.394
				h-63.183V52.429H323.69z"/>
			<path style="fill:#C99D5C;" d="M229.404,52.429c0,0-58.367-1.549-58.367,72.064v99.204c0,16.234,13.16,29.394,29.394,29.394
				h46.825V52.429H229.404z"/>
			<g>
				<g>
					<circle style="fill:#FFBC8A;" cx="364.816" cy="167.328" r="22.531"/>
				</g>
				<g>
					<circle style="fill:#FFBC8A;" cx="190.077" cy="167.328" r="22.531"/>
				</g>
			</g>
			<path style="fill:#5592D7;" d="M400.072,329.83v152.383c0,6.02-4.886,10.906-10.906,10.906H165.723
				c-6.02,0-10.906-4.886-10.906-10.906V329.83c0-48.922,39.653-88.575,88.575-88.575h68.105
				C360.42,241.256,400.072,280.908,400.072,329.83z"/>
			<path style="fill:#FDD1A7;" d="M154.82,401.851v80.363c0,6.02,4.886,10.906,10.906,10.906h38.682v-91.268H154.82z"/>
			<path style="fill:#1475CC;" d="M400.072,329.83v152.383c0,6.02-4.886,10.906-10.906,10.906h-12.77V329.83
				c0-48.922-39.652-88.575-88.575-88.575h23.676C360.42,241.256,400.072,280.908,400.072,329.83z"/>
			<path style="fill:#FDD1A7;" d="M400.072,401.851v80.363c0,6.02-4.886,10.906-10.906,10.906h-38.682v-91.268H400.072z"/>
			<path style="fill:#FFBC8A;" d="M400.072,401.851v80.363c0,6.02-4.886,10.906-10.906,10.906h-12.77v-91.268H400.072z"/>
			<g>
				<path style="fill:#A4E540;" d="M224.719,452.926h-10.266c-5.551,0-10.051-4.5-10.051-10.051V241.311c0-5.523,4.477-10,10-10
					h10.368c5.523,0,10,4.477,10,10v201.564C234.771,448.426,230.27,452.926,224.719,452.926z"/>
			</g>
			<g>
				<path style="fill:#A4E540;" d="M350.952,315.727v-74.416c0-5.523-4.477-10-10-10h-10.368c-5.523,0-10,4.477-10,10v74.416
					c0,5.551,4.5,10.051,10.051,10.051h10.266C346.452,325.778,350.952,321.278,350.952,315.727z"/>
			</g>
			<path style="fill:#FDD1A7;" d="M228.348,112.857c-18.457,0-32.754,16.149-30.516,34.47l6.824,55.872
				c4.493,36.788,35.729,64.441,72.791,64.441l0,0c37.061,0,68.297-27.653,72.791-64.441l6.824-55.872
				c2.238-18.321-12.059-34.47-30.516-34.47H228.348z"/>
			<g>
				<g>
					<g>
						<circle style="fill:#DAEDFF;" cx="228.231" cy="179.011" r="37.485"/>
						<circle style="fill:#DAEDFF;" cx="326.659" cy="179.011" r="37.485"/>
					</g>
				</g>
			</g>
			<g>
				<g>
					<line style="fill:#F69583;" x1="328.406" y1="228.259" x2="328.406" y2="228.353"/>
				</g>
			</g>
			<path style="fill:#FAC574;" d="M277.689,119.524H177.046c-6.023,0-10.906-4.883-10.906-10.906V95.743
				c0-42.451,34.413-76.864,76.864-76.864h78.349c15.735,0,28.49,12.755,28.49,28.49v0
				C349.844,87.219,317.539,119.524,277.689,119.524z"/>
			<path style="fill:#E8B76B;" d="M349.843,47.369c0,19.933-8.073,37.967-21.137,51.02c-13.053,13.064-31.087,21.137-51.02,21.137
				h-22.689c19.922,0,37.956-8.073,51.02-21.137c13.053-13.053,21.126-31.087,21.126-51.02c0-15.733-12.75-28.494-28.483-28.494
				h22.7C337.093,18.875,349.843,31.635,349.843,47.369z"/>
			<g>
				<g>
					<path style="fill:#FFF5F5;" d="M451.715,493.119H432.23c-4.891,0-8.857-3.965-8.857-8.857v-23.46
						c0-4.891,3.965-8.857,8.857-8.857h19.485c4.891,0,8.857,3.965,8.857,8.857v23.46
						C460.572,489.154,456.607,493.119,451.715,493.119z"/>
					<path style="fill:#FFF5F5;" d="M451.715,308.132H432.23c-4.891,0-8.857-3.965-8.857-8.857v-23.46
						c0-4.891,3.965-8.857,8.857-8.857h19.485c4.891,0,8.857,3.965,8.857,8.857v23.46
						C460.572,304.167,456.607,308.132,451.715,308.132z"/>
				</g>
				<path style="fill:#E84649;" d="M495.642,471.798H388.304c-5.313,0-9.431-4.646-8.793-9.921l20.064-165.805
					c0.538-4.448,4.313-7.793,8.793-7.793h67.21c4.48,0,8.254,3.345,8.793,7.793l20.064,165.805
					C505.073,467.152,500.955,471.798,495.642,471.798z"/>
				<path style="fill:#D73337;" d="M495.639,471.797h-19.069c5.314,0,9.433-4.641,8.795-9.92l-20.069-165.808
					c-0.531-4.446-4.304-7.785-8.786-7.785h19.069c4.482,0,8.255,3.339,8.795,7.785l20.061,165.808
					C505.072,467.156,500.953,471.797,495.639,471.797z"/>
			</g>
		</g>
	</g>
	<g>
		<path d="M55.746,291.118c-4.142,0-7.5,3.357-7.5,7.5v15.622c0,4.143,3.358,7.5,7.5,7.5s7.5-3.357,7.5-7.5v-15.622
			C63.246,294.475,59.888,291.118,55.746,291.118z"/>
		<path d="M239.315,186.675c4.142,0,7.5-3.357,7.5-7.5v-0.095c0-4.143-3.358-7.453-7.5-7.453s-7.5,3.405-7.5,7.548
			S235.173,186.675,239.315,186.675z"/>
		<path d="M315.578,171.628c-4.143,0-7.5,3.405-7.5,7.548s3.357,7.5,7.5,7.5s7.5-3.357,7.5-7.5v-0.095
			C323.078,174.938,319.721,171.628,315.578,171.628z"/>
		<path d="M511.88,460.975l-20.064-165.805c-0.992-8.204-7.973-14.392-16.237-14.392h-7.506v-4.964
			c0-9.019-7.338-16.356-16.356-16.356H432.23c-9.019,0-16.356,7.338-16.356,16.356v4.964h-7.506c-4.488,0-8.588,1.835-11.566,4.816
			c-6.077-11.707-14.523-22.075-24.817-30.419c10.626-6.496,17.571-18.18,17.571-31.479v-39.373
			c3.333-4.836,5.29-10.691,5.29-16.995c0-6.305-1.957-12.159-5.29-16.996v-25.84c0-41.004-17.334-60.602-32.555-69.902
			c0.215-2.381,0.343-4.786,0.343-7.222c0-19.845-16.145-35.989-35.989-35.989h-24.479c-4.143,0-7.5,3.357-7.5,7.5
			s3.357,7.5,7.5,7.5h24.479c11.573,0,20.989,9.416,20.989,20.989c0,35.651-29.004,64.655-64.654,64.655H177.046
			c-0.661,0-1.274-0.197-1.797-0.525c-0.058-0.037-0.113-0.077-0.172-0.113c-0.866-0.618-1.436-1.625-1.436-2.768V95.743
			c0-38.247,31.117-69.363,69.364-69.363h18.119c4.143,0,7.5-3.357,7.5-7.5s-3.357-7.5-7.5-7.5h-18.119
			c-46.519,0-84.364,37.846-84.364,84.363v12.876c0,4.83,1.885,9.217,4.938,12.504c-0.026,1.116-0.042,2.241-0.042,3.37v28.803
			c-2.225,4.191-3.491,8.966-3.491,14.033c0,5.066,1.266,9.841,3.491,14.032v42.336c0,13.722,7.535,25.709,18.68,32.065
			c-7.409,6.131-13.804,13.298-19.023,21.223H86.841c-2.344-6.938-8.901-11.954-16.62-11.954H27.01
			c-14.894,0-27.01,12.116-27.01,27.01v61.933c0,9.678,7.874,17.551,17.551,17.551h18.834v36.496c0,4.143,3.358,7.5,7.5,7.5
			s7.5-3.357,7.5-7.5v-36.496H70.22c9.678,0,17.551-7.873,17.551-17.551v-2.479h13.352c4.142,0,7.5-3.357,7.5-7.5
			s-3.358-7.5-7.5-7.5H87.771v-44.51h67.342c-5.055,11.777-7.793,24.619-7.793,37.84v6.67h-10.444c-4.142,0-7.5,3.357-7.5,7.5
			s3.358,7.5,7.5,7.5h10.444v92.421H17.551C7.874,443.916,0,451.789,0,461.466v6.602c0,9.678,7.874,17.551,17.551,17.551h130.098
			c1.603,8.525,9.093,15,18.077,15c4.142,0,7.5-3.357,7.5-7.5s-3.358-7.5-7.5-7.5c-1.878,0-3.406-1.527-3.406-3.405V409.35h34.582
			v33.524v50.244c0,4.143,3.358,7.5,7.5,7.5s7.5-3.357,7.5-7.5v-32.9c0.835,0.123,1.683,0.207,2.551,0.207h10.266
			c9.678,0,17.551-7.873,17.551-17.551V396.54c0-4.143-3.358-7.5-7.5-7.5s-7.5,3.357-7.5,7.5v46.335
			c0,1.406-1.145,2.551-2.551,2.551h-10.266c-1.407,0-2.551-1.145-2.551-2.551c0,0,0-41.095,0-41.131V241.567
			c4.173,5.789,9.103,11.049,14.703,15.581c0.218,0.177,0.445,0.341,0.666,0.515v103.124c0,4.143,3.358,7.5,7.5,7.5
			s7.5-3.357,7.5-7.5v-93.734c10.909,5.266,22.952,8.086,35.176,8.086c12.392,0,24.606-2.895,35.638-8.305v48.892
			c0,9.678,7.873,17.552,17.551,17.552H340.9c9.678,0,17.552-7.874,17.552-17.552v-51.974
			c15.817,11.251,27.192,27.844,31.813,46.828l-10.137,83.77H357.99v-23.372c0-4.143-3.357-7.5-7.5-7.5s-7.5,3.357-7.5,7.5v122.141
			c0,4.143,3.357,7.5,7.5,7.5s7.5-3.357,7.5-7.5V409.35h20.323l-6.247,51.625c-0.563,4.644,0.895,9.314,3.996,12.814
			c3.103,3.5,7.563,5.508,12.241,5.508h4.269v2.916c0,1.878-1.527,3.405-3.405,3.405c-4.143,0-7.5,3.357-7.5,7.5s3.357,7.5,7.5,7.5
			c10.148,0,18.405-8.257,18.405-18.405v-2.916h8.302v4.965c0,9.019,7.338,16.356,16.356,16.356h19.485
			c9.019,0,16.356-7.338,16.356-16.356v-4.965h27.569c4.678,0,9.14-2.008,12.242-5.508
			C510.985,470.289,512.442,465.619,511.88,460.975z M72.771,353.973c0,1.406-1.145,2.551-2.551,2.551H17.551
			c-1.407,0-2.551-1.145-2.551-2.551v-61.933c0-6.622,5.388-12.01,12.01-12.01h43.21c1.407,0,2.551,1.145,2.551,2.551V353.973z
			 M198.246,179.011c0-16.534,13.451-29.985,29.985-29.985s29.985,13.451,29.985,29.985s-13.451,29.985-29.985,29.985
			S198.246,195.546,198.246,179.011z M178.538,127.024H193.9c-1.566,3.254-2.667,6.716-3.262,10.291
			c-0.187-0.003-0.373-0.018-0.561-0.018c-4.087,0-7.985,0.824-11.54,2.309V127.024z M175.046,167.329
			c0-8.288,6.743-15.031,15.031-15.031c0.27,0,0.54,0.011,0.809,0.025l0.17,1.39c-4.924,7.214-7.81,15.924-7.81,25.298
			c0,0.573,0.022,1.142,0.043,1.71C178.406,178.236,175.046,173.173,175.046,167.329z M273.205,179.423h8.479
			c0.096,10.615,3.883,20.364,10.143,28.019c-0.106,0.258-0.202,0.522-0.281,0.796c-1.799,6.254-7.597,10.622-14.1,10.622
			s-12.301-4.368-14.1-10.622c-0.079-0.275-0.176-0.54-0.282-0.798C269.323,199.784,273.109,190.037,273.205,179.423z
			 M296.674,179.011c0-16.534,13.451-29.985,29.985-29.985s29.985,13.451,29.985,29.985s-13.451,29.985-29.985,29.985
			S296.674,195.546,296.674,179.011z M364.816,152.298c8.288,0,15.03,6.743,15.03,15.031c0,5.845-3.361,10.909-8.246,13.394
			c0.021-0.569,0.043-1.137,0.043-1.711c0-9.373-2.885-18.083-7.808-25.296l0.167-1.369
			C364.275,152.332,364.544,152.298,364.816,152.298z M358.452,244.809v-3.499c0-5.705-2.794-10.901-7.183-14.123
			c2.034-4.555,3.647-9.303,4.805-14.184c4.978-4.314,9.001-9.697,11.709-15.792c2.348-0.231,4.614-0.74,6.773-1.482v27.968
			C374.557,233.769,367.846,242.272,358.452,244.809z M353.863,70.656c13.733,10.831,20.694,28.893,20.694,53.837v14.435
			c-3.057-1.051-6.331-1.63-9.74-1.63c-0.188,0-0.375,0.013-0.563,0.017c-1.17-7.011-4.271-13.639-9.074-19.065
			c-6.077-6.864-14.391-11.263-23.362-12.514C341.988,96.297,349.7,84.248,353.863,70.656z M309.572,120.344
			c0.088,0.003,0.173,0.013,0.261,0.013h16.713c6.651,0,12.994,2.855,17.402,7.836c3.041,3.434,4.966,7.659,5.604,12.116
			c-6.711-3.985-14.537-6.283-22.893-6.283c-19.699,0-36.469,12.733-42.544,30.396h-13.341
			c-6.074-17.663-22.844-30.396-42.543-30.396c-8.351,0-16.174,2.295-22.883,6.277c0.716-4.996,3.042-9.671,6.707-13.279h65.635
			C289.023,127.024,299.802,124.629,309.572,120.344z M15,468.068v-6.602c0-1.406,1.145-2.551,2.551-2.551H147.32v11.703H17.551
			C16.145,470.619,15,469.474,15,468.068z M162.32,394.35v-64.525c0-26.568,13.07-51.34,34.582-66.426V394.35H162.32z
			 M196.902,241.311v3.992c-10.4-1.693-18.365-10.735-18.365-21.606V195.05c2.683,1.121,5.561,1.864,8.569,2.161
			c2.709,6.098,6.734,11.482,11.715,15.797c1.182,4.976,2.826,9.818,4.916,14.454C199.554,230.7,196.902,235.761,196.902,241.311z
			 M218.152,222.844c3.243,0.745,6.613,1.153,10.078,1.153c8.339,0,16.151-2.289,22.854-6.26
			c5.017,9.708,15.162,16.124,26.362,16.124c11.199,0,21.344-6.415,26.362-16.122c6.702,3.97,14.513,6.259,22.851,6.259
			c3.471,0,6.847-0.408,10.095-1.156c-4.225,8.76-10.365,16.575-18.014,22.738c-11.653,9.39-26.318,14.561-41.294,14.561
			C251.923,260.139,228.952,245.116,218.152,222.844z M343.452,315.726c0,1.407-1.145,2.552-2.552,2.552h-10.266
			c-1.406,0-2.551-1.145-2.551-2.552V257.31c0.022-0.018,0.045-0.034,0.067-0.052c5.849-4.713,10.972-10.221,15.268-16.298
			c0.016,0.114,0.033,0.228,0.033,0.35V315.726z M397.933,372.075l86.499-13.067l3.818,31.548l-91.268-10.622L397.933,372.075z
			 M482.629,344.11l-82.826,12.512l1.585-13.096l79.628-12.755L482.629,344.11z M395.179,394.827l94.924,11.047l1.094,9.044
			l-100.889,20.16L395.179,394.827z M430.874,275.815c0-0.748,0.608-1.356,1.356-1.356h19.485c0.748,0,1.356,0.608,1.356,1.356
			v4.964h-22.198V275.815z M408.368,295.779h67.21c0.686,0,1.264,0.514,1.347,1.194l2.287,18.896l-75.95,12.166l3.759-31.063
			C407.104,296.293,407.683,295.779,408.368,295.779z M453.072,484.262c0,0.748-0.608,1.356-1.356,1.356H432.23
			c-0.748,0-1.356-0.608-1.356-1.356v-4.965h22.198V484.262z M496.657,463.841c-0.185,0.208-0.511,0.457-1.016,0.457H388.304
			c-0.505,0-0.83-0.248-1.015-0.457c-0.185-0.208-0.393-0.562-0.332-1.063l1.455-12.024l104.593-20.9l3.984,32.925
			C497.05,463.279,496.842,463.633,496.657,463.841z"/>
	</g>
</g>
<g>
</g>
<g>
</g>
<g>
</g>
<g>
</g>
<g>
</g>
<g>
</g>
<g>
</g>
<g>
</g>
<g>
</g>
<g>
</g>
<g>
</g>
<g>
</g>
<g>
</g>
<g>
</g>
<g>
</g>
</svg>
