<?xml version="1.0" encoding="iso-8859-1"?>
<!-- Generator: Adobe Illustrator 23.0.3, SVG Export Plug-In . SVG Version: 6.00 Build 0)  -->
<svg version="1.1" id="Capa_1" xmlns="http://www.w3.org/2000/svg" xmlns:xlink="http://www.w3.org/1999/xlink" x="0px" y="0px"
	 viewBox="0 0 511.982 511.982" style="enable-background:new 0 0 511.982 511.982;" xml:space="preserve">
<g>
	<g>
		<g>
			<g>
				<path style="fill:#65BAFC;" d="M265.13,32.523l68.331,138.454c1.484,3.008,4.354,5.093,7.673,5.575l154.62,22.468
					c8.007,1.164,11.53,10.745,6.184,16.819l-95.199,108.154c-2.035,2.312-2.915,5.421-2.395,8.456l26.365,153.722
					c1.394,8.125-6.935,14.457-14.391,10.941l-155.981-73.554c-2.752-1.298-5.941-1.298-8.693,0L95.663,497.111
					c-7.456,3.516-15.785-2.815-14.391-10.941l26.365-153.722c0.521-3.036-0.36-6.144-2.395-8.456L10.044,215.839
					c-5.346-6.074-1.823-15.655,6.184-16.819l154.62-22.468c3.319-0.482,6.189-2.567,7.673-5.575l68.331-138.454
					C250.59,24.948,261.392,24.948,265.13,32.523z"/>
			</g>
			<g>
				<g>
					
						<ellipse transform="matrix(0.9397 -0.342 0.342 0.9397 -27.8105 42.7017)" style="fill:#65BAFC;" cx="107.181" cy="100.211" rx="21.497" ry="12.5"/>
				</g>
				<g>
					
						<ellipse transform="matrix(0.9397 -0.342 0.342 0.9397 -37.8786 20.008)" style="fill:#65BAFC;" cx="37.796" cy="117.414" rx="21.497" ry="12.5"/>
				</g>
			</g>
			<g>
				<g>
					
						<ellipse transform="matrix(0.9397 -0.342 0.342 0.9397 -23.0707 153.3285)" style="fill:#E84649;" cx="423.249" cy="142.084" rx="21.497" ry="12.5"/>
				</g>
			</g>
			<g>
				<g>
					<path style="fill:#E84649;" d="M359.321,284.66H152.661c-5.523,0-10-4.477-10-10V162.781c0-62.59,50.739-113.33,113.33-113.33
						h0c62.59,0,113.33,50.739,113.33,113.33V274.66C369.321,280.183,364.843,284.66,359.321,284.66z"/>
					<path style="fill:#D73337;" d="M369.321,162.785v111.88c0,5.52-4.48,10-10,10h-19.54c5.53,0,10-4.48,10-10v-111.88
						c0-31.3-12.69-59.63-33.19-80.14c-18.35-18.34-42.97-30.43-70.37-32.76c3.22-0.29,6.48-0.43,9.77-0.43
						c31.3,0,59.63,12.69,80.14,33.19C356.631,103.155,369.321,131.485,369.321,162.785z"/>
					<path style="fill:#E84649;" d="M358.436,498.105H153.548c-5.523,0-10-4.477-10-10V348.37c0-44.854,36.362-81.216,81.216-81.216
						h62.456c44.854,0,81.216,36.362,81.216,81.216v139.735C368.436,493.628,363.959,498.105,358.436,498.105z"/>
					<path style="fill:#D73337;" d="M368.436,348.375v139.73c0,5.523-4.477,10-10,10h-11.71v-149.73
						c0-44.86-36.36-81.22-81.22-81.22h21.71C332.072,267.155,368.436,303.518,368.436,348.375z"/>
					<path style="fill:#FFBC8A;" d="M368.436,348.375h-224.89c0-44.86,36.36-81.22,81.22-81.22h62.45
						C332.076,267.155,368.436,303.515,368.436,348.375z"/>
					<path style="fill:#F5A871;" d="M368.436,348.375h-21.71c0-44.86-36.36-81.22-81.22-81.22h21.71
						C332.076,267.155,368.436,303.515,368.436,348.375z"/>
					<path style="fill:#FDD1A7;" d="M203.366,146.927c-12.883,0-22.862,11.272-21.3,24.06l7.179,58.78
						c4.12,33.733,32.762,59.09,66.746,59.09l0,0c33.984,0,62.626-25.357,66.746-59.09l7.18-58.78
						c1.562-12.788-8.417-24.06-21.3-24.06H203.366z"/>
					<line style="fill:#F69583;" x1="302.721" y1="225.237" x2="302.721" y2="225.323"/>
					<path style="fill:#F69583;" d="M212.264,238.616c-4.06,0-7.352-3.292-7.352-7.352s3.292-7.395,7.352-7.395
						c4.06,0,7.352,3.248,7.352,7.308v0.087C219.616,235.325,216.324,238.616,212.264,238.616z"/>
					<path style="fill:#F69583;" d="M299.721,238.616c-4.06,0-7.352-3.292-7.352-7.352s3.292-7.395,7.352-7.395
						s7.352,3.248,7.352,7.308v0.087C307.073,235.325,303.781,238.616,299.721,238.616z"/>
					<path style="fill:#E84649;" d="M336.751,175.138c-3.1,1.77-32.82,3.41-66.02,4.05l-14.74-21.29l-14.93,21.57
						c-31.71-0.03-60.38-1.22-65.83-4.33c-5.52-13.59-4.09-28.81,0.67-43.39h160.18
						C340.841,146.328,342.271,161.548,336.751,175.138z"/>
				</g>
				<g>
					<g>
						<g>
							<path style="fill:#CDBFBB;" d="M269.969,407.372h-27.955c-9.214,0-16.684-7.47-16.684-16.684v-51.825
								c0-9.214,7.47-16.684,16.684-16.684h27.955c9.214,0,16.684,7.47,16.684,16.684v51.825
								C286.653,399.903,279.183,407.372,269.969,407.372z"/>
						</g>
					</g>
				</g>
				<path style="fill:#FFF5F5;" d="M267.439,498.105h-22.896v-45.503c0-2.808,2.276-5.084,5.084-5.084h12.728
					c2.808,0,5.084,2.276,5.084,5.084V498.105z"/>
			</g>
		</g>
	</g>
	<g>
		<path d="M507.568,220.794c4.293-4.877,5.567-11.696,3.325-17.794c-2.242-6.099-7.63-10.468-14.062-11.402l-120.011-17.439v-11.378
			c0-58.667-42.031-107.695-97.561-118.572l-7.405-15.005c-3.002-6.083-9.081-9.862-15.864-9.862s-12.862,3.779-15.864,9.862
			l-7.406,15.005c-55.529,10.878-97.56,59.905-97.56,118.572v11.378L15.15,191.598C8.719,192.532,3.332,196.901,1.089,203
			c-2.242,6.099-0.968,12.917,3.325,17.794l30.616,34.782c1.482,1.684,3.553,2.544,5.633,2.544c1.76,0,3.527-0.616,4.953-1.87
			c3.109-2.737,3.411-7.476,0.674-10.585l-30.616-34.782c-0.921-1.046-0.712-2.145-0.506-2.707c0.207-0.562,0.759-1.534,2.139-1.735
			l117.854-17.125v85.344c0,9.649,7.851,17.5,17.5,17.5h3.483c-0.199,0.243-0.408,0.477-0.605,0.722
			c-12.565,15.658-19.486,35.357-19.49,55.471c0,0.006-0.001,0.011-0.001,0.017c0,0.003,0,0.006,0,0.01v121.395l-43.584,20.553
			c-1.283,0.606-2.291,0.078-2.776-0.292c-0.485-0.369-1.264-1.197-1.024-2.598l26.365-153.721
			c0.909-5.296-0.606-10.646-4.157-14.68l-40.905-46.471c-2.736-3.109-7.476-3.411-10.585-0.674
			c-3.109,2.737-3.411,7.476-0.674,10.585l40.905,46.471c0.54,0.613,0.771,1.427,0.632,2.232L73.88,484.903
			c-1.119,6.525,1.46,13.068,6.73,17.074c3.145,2.391,6.903,3.617,10.695,3.617c2.563,0,5.142-0.56,7.556-1.699l37.187-17.536v1.745
			c0,9.649,7.851,17.5,17.5,17.5c4.142,0,7.5-3.358,7.5-7.5s-3.358-7.5-7.5-7.5c-1.378,0-2.5-1.122-2.5-2.5V355.87h10.276
			c4.142,0,7.5-3.358,7.5-7.5s-3.358-7.5-7.5-7.5h-9.887c3.052-30.487,24.526-55.917,54.521-63.782
			c13.324,12.015,30.927,19.268,50.034,19.268c19.106,0,36.71-7.253,50.033-19.268c29.996,7.865,51.47,33.294,54.522,63.782h-66.395
			v-2.007c0-13.335-10.85-24.185-24.185-24.185h-27.955c-13.335,0-24.184,10.849-24.184,24.185v2.007h-16.838
			c-4.142,0-7.5,3.358-7.5,7.5s3.358,7.5,7.5,7.5h16.838v34.818c0,13.335,10.849,24.184,24.184,24.184h6.479v25.202
			c-6.408,0.576-11.449,5.971-11.449,12.527v45.503c0,4.142,3.358,7.5,7.5,7.5s7.5-3.358,7.5-7.5v-43.087h7.896v43.087
			c0,4.142,3.357,7.5,7.5,7.5s7.5-3.358,7.5-7.5v-45.503c0-6.555-5.04-11.949-11.446-12.526v-25.203h6.476
			c13.335,0,24.185-10.849,24.185-24.184V355.87h66.783v23.709c0,4.142,3.357,7.5,7.5,7.5s7.5-3.358,7.5-7.5V348.37
			c0-20.121-6.923-39.828-19.492-55.49c-0.196-0.245-0.405-0.478-0.603-0.72h3.48c9.649,0,17.5-7.851,17.5-17.5v-85.344
			l117.854,17.125c1.38,0.201,1.933,1.173,2.14,1.735c0.206,0.562,0.415,1.66-0.507,2.707l-95.199,108.154
			c-3.55,4.033-5.064,9.383-4.156,14.68l26.365,153.721c0.239,1.4-0.539,2.229-1.024,2.598c-0.485,0.37-1.492,0.898-2.776,0.292
			l-43.581-20.551v-54.445c0-4.142-3.357-7.5-7.5-7.5s-7.5,3.358-7.5,7.5v72.773c0,1.378-1.121,2.5-2.5,2.5
			c-4.143,0-7.5,3.358-7.5,7.5s3.357,7.5,7.5,7.5c9.649,0,17.5-7.851,17.5-17.5v-1.744l37.184,17.534
			c2.415,1.139,4.993,1.699,7.557,1.699c3.792,0,7.551-1.226,10.695-3.617c5.271-4.007,7.849-10.549,6.729-17.075l-26.364-153.721
			c-0.139-0.806,0.092-1.62,0.632-2.233L507.568,220.794z M269.968,399.872h-27.955c-5.064,0-9.184-4.12-9.184-9.184v-6.266h7.525
			c4.142,0,7.5-3.358,7.5-7.5s-3.358-7.5-7.5-7.5h-7.525v-9.302h7.525c4.142,0,7.5-3.358,7.5-7.5s-3.358-7.5-7.5-7.5h-7.525v-6.257
			c0-5.064,4.12-9.185,9.184-9.185h27.955c5.064,0,9.185,4.12,9.185,9.185v6.257h-6.358c-4.143,0-7.5,3.358-7.5,7.5
			s3.357,7.5,7.5,7.5h6.358v9.302h-6.358c-4.143,0-7.5,3.358-7.5,7.5s3.357,7.5,7.5,7.5h6.358v6.266
			C279.153,395.752,275.033,399.872,269.968,399.872z M253.578,35.842c0.644-1.306,1.789-1.5,2.413-1.5s1.769,0.195,2.413,1.5
			l3.079,6.239c-1.821-0.082-3.651-0.13-5.492-0.13c-1.841,0-3.671,0.048-5.492,0.13L253.578,35.842z M255.992,281.357
			c-30.152,0-55.646-22.57-59.302-52.499l-5.296-43.359c10.137,0.828,25.646,1.447,49.659,1.47c0.002,0,0.004,0,0.007,0
			c2.461,0,4.766-1.208,6.167-3.231l8.764-12.662l8.573,12.382c1.402,2.026,3.708,3.231,6.165,3.231c0.049,0,0.098,0,0.146-0.001
			c16.661-0.321,32.5-0.894,44.598-1.613c1.886-0.112,3.613-0.224,5.21-0.335l-5.389,44.119
			C311.638,258.787,286.144,281.357,255.992,281.357z M361.821,274.66c0,1.378-1.121,2.5-2.5,2.5h-19.229
			c-7.05-5.234-14.853-9.412-23.121-12.366c6.977-9.827,11.664-21.442,13.212-34.118l5.808-47.551
			c2.822-0.531,3.696-1.028,4.478-1.474c3.598-2.054,4.849-6.635,2.794-10.232c-1.928-3.376-6.082-4.685-9.558-3.135
			c-3.717,0.963-24.037,2.562-59.102,3.324l-12.447-17.978c-1.4-2.024-3.705-3.231-6.167-3.231c-2.461,0-4.766,1.208-6.167,3.231
			l-12.687,18.329c-40.021-0.161-55.449-2.179-58.296-3.395c-3.58-1.967-8.09-0.705-10.124,2.856
			c-2.053,3.598-0.801,8.178,2.796,10.231c0.736,0.42,1.831,1.043,4.509,1.717l5.778,47.308c1.548,12.676,6.236,24.29,13.212,34.117
			c-8.268,2.954-16.07,7.132-23.12,12.366h-19.231c-1.378,0-2.5-1.122-2.5-2.5V162.781c0-58.354,47.475-105.83,105.83-105.83
			s105.83,47.475,105.83,105.83V274.66z"/>
		<path d="M30.666,138.813c4.372,0,9.13-0.843,13.971-2.604c13.315-4.846,21.654-14.607,21.312-24.045V38.6l54.385-14.892v55.688
			c-5.828-1.177-12.815-0.591-19.993,2.022c-15.533,5.654-24.307,17.997-20.408,28.711c2.685,7.375,10.463,11.481,20.118,11.481
			c4.372,0,9.13-0.843,13.971-2.604c13.367-4.865,21.72-14.684,21.307-24.156c0-0.03,0.005-0.06,0.005-0.09V13.878
			c0-2.339-1.091-4.544-2.951-5.962c-1.86-1.419-4.273-1.89-6.53-1.271l-69.385,19c-3.259,0.893-5.519,3.854-5.519,7.234v63.766
			c-0.189-0.038-0.374-0.082-0.566-0.117c-5.907-1.062-12.806-0.317-19.426,2.093c-15.534,5.654-24.308,17.997-20.408,28.711
			C13.232,134.707,21.01,138.813,30.666,138.813z M108.892,104.91c-8.517,3.1-14.287,1.107-14.86,0.101
			c-0.216-1.164,2.927-6.4,11.439-9.498c3.398-1.237,6.359-1.663,8.728-1.663c3.545,0,5.765,0.955,6.134,1.575
			C120.525,96.612,117.376,101.822,108.892,104.91z M36.086,112.716c3.398-1.237,6.359-1.663,8.728-1.663
			c3.545,0,5.764,0.955,6.134,1.574c0.192,1.188-2.958,6.397-11.441,9.485c-8.517,3.099-14.287,1.107-14.86,0.101
			C24.43,121.049,27.573,115.814,36.086,112.716z"/>
		<path d="M416.119,163.483c4.372,0,9.129-0.842,13.971-2.604c6.621-2.41,12.384-6.275,16.227-10.884
			c3.273-3.926,5.006-8.253,5.076-12.428c0.001-0.062,0.009-0.123,0.009-0.185V57.549c0-4.142-3.357-7.5-7.5-7.5s-7.5,3.358-7.5,7.5
			v63.72c-5.828-1.177-12.815-0.591-19.992,2.021c-6.621,2.41-12.384,6.275-16.228,10.884c-4.72,5.661-6.244,12.159-4.181,17.828
			C398.685,159.377,406.465,163.483,416.119,163.483z M421.54,137.386c3.397-1.237,6.358-1.663,8.727-1.663
			c3.546,0,5.766,0.955,6.135,1.575c0.192,1.188-2.959,6.397-11.442,9.485c-8.511,3.099-14.285,1.108-14.859,0.101
			C409.883,145.72,413.025,140.485,421.54,137.386z"/>
		<path d="M221.027,200.195c-4.142,0-7.5,3.401-7.5,7.543s3.358,7.5,7.5,7.5s7.5-3.358,7.5-7.5v-0.086
			C228.527,203.509,225.169,200.195,221.027,200.195z"/>
		<path d="M290.958,200.195c-4.143,0-7.5,3.401-7.5,7.543s3.357,7.5,7.5,7.5s7.5-3.358,7.5-7.5v-0.086
			C298.458,203.509,295.1,200.195,290.958,200.195z"/>
		<path d="M277.602,229.08c-3.979-1.145-8.136,1.154-9.28,5.136c-1.572,5.469-6.643,9.289-12.33,9.289s-10.758-3.82-12.331-9.29
			c-1.146-3.98-5.3-6.279-9.281-5.135c-3.98,1.145-6.279,5.3-5.135,9.281c3.412,11.86,14.41,20.144,26.747,20.144
			c12.337,0,23.335-8.284,26.746-20.145C283.883,234.38,281.583,230.225,277.602,229.08z"/>
		<path d="M188.115,380.25c-4.142,0-7.5,3.358-7.5,7.5v110.355c0,4.142,3.358,7.5,7.5,7.5s7.5-3.358,7.5-7.5V387.75
			C195.615,383.608,192.257,380.25,188.115,380.25z"/>
		<path d="M323.867,380.25c-4.143,0-7.5,3.358-7.5,7.5v110.355c0,4.142,3.357,7.5,7.5,7.5s7.5-3.358,7.5-7.5V387.75
			C331.367,383.608,328.009,380.25,323.867,380.25z"/>
	</g>
</g>
<g>
</g>
<g>
</g>
<g>
</g>
<g>
</g>
<g>
</g>
<g>
</g>
<g>
</g>
<g>
</g>
<g>
</g>
<g>
</g>
<g>
</g>
<g>
</g>
<g>
</g>
<g>
</g>
<g>
</g>
</svg>
