<?xml version="1.0" encoding="iso-8859-1"?>
<!-- Generator: Adobe Illustrator 23.0.3, SVG Export Plug-In . SVG Version: 6.00 Build 0)  -->
<svg version="1.1" id="Capa_1" xmlns="http://www.w3.org/2000/svg" xmlns:xlink="http://www.w3.org/1999/xlink" x="0px" y="0px"
	 viewBox="0 0 512 512" style="enable-background:new 0 0 512 512;" xml:space="preserve">
<g>
	<g>
		<g>
			<rect x="19.614" y="133.571" style="fill:#9E9797;" width="192.121" height="316.14"/>
			<g>
				<path style="fill:#BDEB73;" d="M135.079,417.716H96.27c-6.698,0-12.128-5.43-12.128-12.128v-51.564
					c0-6.698,5.43-12.128,12.128-12.128h38.809c6.698,0,12.128,5.43,12.128,12.128v51.564
					C147.207,412.287,141.777,417.716,135.079,417.716z"/>
				<path style="fill:#8EC737;" d="M147.206,354.024v51.563c0,6.703-5.43,12.132-12.123,12.132h-27.835
					c6.703,0,12.132-5.43,12.132-12.132v-51.563c0-6.703-5.43-12.132-12.132-12.132h27.835
					C141.776,341.892,147.206,347.322,147.206,354.024z"/>
			</g>
			<g>
				<path style="fill:#ED6264;" d="M188.407,275.644h-29.965c-5.172,0-9.364-4.192-9.364-9.364v-30.814
					c0-5.172,4.192-9.364,9.364-9.364h29.965c5.172,0,9.364,4.192,9.364,9.364v30.814
					C197.771,271.451,193.579,275.644,188.407,275.644z"/>
			</g>
			<rect x="19.614" y="417.716" style="fill:#CDBFBB;" width="192.121" height="31.995"/>
		</g>
		<g>
			<rect x="19.614" y="275.644" style="fill:#CDBFBB;" width="192.121" height="31.995"/>
		</g>
		<g>
			<rect x="19.614" y="133.571" style="fill:#CDBFBB;" width="192.121" height="31.995"/>
		</g>
		<g>
			<g>
				<path style="fill:#FF9846;" d="M354.844,486.6H147.545c-5.588,0-10.118-4.53-10.118-10.118V335.103
					c0-45.382,36.79-82.172,82.172-82.172h63.191c45.382,0,82.172,36.79,82.172,82.172v141.379
					C364.961,482.07,360.431,486.6,354.844,486.6z"/>
				<rect x="182.519" y="374.039" style="fill:#2EA8FC;" width="137.349" height="112.561"/>
				<rect x="296.697" y="374.039" style="fill:#0097FA;" width="23.172" height="112.561"/>
				<path style="fill:#FF771C;" d="M364.961,335.108v141.374c0,5.588-4.53,10.118-10.118,10.118h-11.848V335.108
					c0-45.388-36.788-82.176-82.176-82.176h21.965C328.169,252.932,364.961,289.723,364.961,335.108z"/>
				<g>
					<circle style="fill:#9E552E;" cx="251.194" cy="54.778" r="47.278"/>
					<circle style="fill:#FFBC8A;" cx="332.252" cy="176.274" r="20.903"/>
					<circle style="fill:#FFBC8A;" cx="170.137" cy="176.274" r="20.903"/>
					<path style="fill:#FFBC8A;" d="M251.194,302.897L251.194,302.897c-10.918,0-19.768-8.85-19.768-19.768V253.99h39.536v29.139
						C270.962,294.047,262.112,302.897,251.194,302.897z"/>
					<path style="fill:#FDD1A7;" d="M173.425,131.808l10.237,83.815c4.169,34.13,33.148,59.785,67.532,59.785l0,0
						c34.384,0,63.363-25.655,67.532-59.785l10.237-83.815H173.425z"/>
					<line style="fill:#F69583;" x1="298.472" y1="211.04" x2="298.472" y2="211.127"/>
					<path style="fill:#C86D3D;" d="M336.004,156.382c-8.246,3.966-25.365,6.698-45.793,8.185l-11.99-22.249l-10.613,23.352
						c-40.693,1.123-86.021-1.973-101.227-9.288c-12.677-26.377-8.084-58.966,13.78-80.84c19.416-19.406,47.26-25.193,71.714-17.402
						c1.862-0.84,3.824-1.477,5.868-1.902c22.573-4.644,46.966,1.791,64.48,19.305C344.088,97.416,348.682,130.005,336.004,156.382z
						"/>
					<path style="fill:#AC5E33;" d="M336.005,156.384c-3.759,1.8-9.348,3.361-16.259,4.644
						c11.655-28.074,6.782-62.164-14.589-85.206c-10.362-11.168-23.141-18.159-36.527-20.963
						c19.283-0.935,38.874,5.967,53.592,20.685C344.09,97.413,348.684,130.001,336.005,156.384z"/>
					<g>
						<path style="fill:#F69583;" d="M206.951,224.576c-4.108,0-7.438-3.33-7.438-7.438s3.33-7.482,7.438-7.482
							s7.438,3.286,7.438,7.394v0.088C214.39,221.246,211.059,224.576,206.951,224.576z"/>
					</g>
					<g>
						<path style="fill:#F69583;" d="M295.437,224.576c-4.108,0-7.438-3.33-7.438-7.438s3.33-7.482,7.438-7.482
							c4.108,0,7.438,3.286,7.438,7.394v0.088C302.876,221.246,299.545,224.576,295.437,224.576z"/>
					</g>
				</g>
			</g>
			<g>
				<path style="fill:#CDBFBB;" d="M493.007,504.5H356.148c-5.588,0-10.118-4.53-10.118-10.118V391.405
					c0-5.588,4.53-10.118,10.118-10.118h136.858c5.588,0,10.118,4.53,10.118,10.118v102.977
					C503.124,499.97,498.595,504.5,493.007,504.5z"/>
				<path style="fill:#9E9797;" d="M503.124,391.405v102.978c0,5.585-4.533,10.118-10.118,10.118h-20.438
					c5.585,0,10.118-4.533,10.118-10.118V391.405c0-5.585-4.533-10.118-10.118-10.118h20.438
					C498.592,381.287,503.124,385.82,503.124,391.405z"/>
				<path style="fill:#FFF5F5;" d="M454.56,421.968h-8.094c-5.588,0-10.118-4.53-10.118-10.118V300.324h28.33V411.85
					C464.677,417.438,460.147,421.968,454.56,421.968z"/>
				<path style="fill:#A4E540;" d="M389.69,328.095V308.32c0-5.588,4.53-10.118,10.118-10.118h88.477
					c5.588,0,10.118,4.53,10.118,10.118v19.774c0,5.588-4.53,10.118-10.118,10.118h-88.477
					C394.22,338.212,389.69,333.683,389.69,328.095z"/>
				<path style="fill:#8EC737;" d="M498.4,308.318v19.78c0,5.585-4.523,10.118-10.118,10.118h-21.298
					c5.585,0,10.118-4.533,10.118-10.118v-19.78c0-5.585-4.533-10.118-10.118-10.118h21.298
					C493.877,298.2,498.4,302.733,498.4,308.318z"/>
			</g>
		</g>
		<g>
			<path style="fill:#EFE2DD;" d="M34.676,486.6H18.993c-5.588,0-10.118-4.53-10.118-10.118V107.166
				c0-5.588,4.53-10.118,10.118-10.118h15.682c5.588,0,10.118,4.53,10.118,10.118v369.316C44.793,482.07,40.263,486.6,34.676,486.6z
				"/>
		</g>
		<g>
			<path style="fill:#FFBA82;" d="M114.138,275.644H84.173c-5.172,0-9.364-4.192-9.364-9.364v-39.814
				c0-5.172,4.192-9.364,9.364-9.364h29.965c5.172,0,9.364,4.192,9.364,9.364v39.814
				C123.502,271.451,119.31,275.644,114.138,275.644z"/>
			<path style="fill:#FF9846;" d="M123.498,226.464v39.818c0,5.171-4.187,9.358-9.358,9.358H95.861c5.171,0,9.368-4.187,9.368-9.358
				v-39.818c0-5.171-4.197-9.358-9.368-9.358h18.278C119.311,217.107,123.498,221.293,123.498,226.464z"/>
		</g>
		<circle style="fill:#ED6264;" cx="104.428" cy="101.023" r="32.548"/>
		<path style="fill:#D73337;" d="M136.98,101.025c0,17.979-14.58,32.549-32.549,32.549c-3.916,0-7.679-0.698-11.16-1.963
			c12.475-4.553,21.389-16.532,21.389-30.586s-8.914-26.033-21.389-30.586c3.48-1.265,7.244-1.963,11.16-1.963
			C122.401,68.476,136.98,83.046,136.98,101.025z"/>
	</g>
	<g>
		<path d="M272.49,415.966h-42.476c-4.142,0-7.5,3.358-7.5,7.5s3.358,7.5,7.5,7.5h42.476c4.142,0,7.5-3.358,7.5-7.5
			S276.632,415.966,272.49,415.966z"/>
		<path d="M215.817,200.835c4.142,0,7.5-3.358,7.5-7.5v-0.087c0-4.142-3.358-7.457-7.5-7.457s-7.5,3.402-7.5,7.544
			S211.675,200.835,215.817,200.835z"/>
		<path d="M286.571,200.835c4.142,0,7.5-3.358,7.5-7.5v-0.087c0-4.142-3.358-7.457-7.5-7.457s-7.5,3.402-7.5,7.544
			S282.429,200.835,286.571,200.835z"/>
		<path d="M251.194,244.611c12.442,0,23.535-8.354,26.976-20.317c1.145-3.981-1.154-8.136-5.135-9.281s-8.136,1.154-9.281,5.135
			c-1.603,5.572-6.767,9.463-12.56,9.463s-10.958-3.892-12.561-9.463c-1.146-3.98-5.3-6.277-9.281-5.135
			c-3.98,1.145-6.279,5.3-5.135,9.281C227.659,236.257,238.751,244.611,251.194,244.611z"/>
		<path d="M493.007,373.788h-20.83v-28.075h16.108c9.714,0,17.618-7.903,17.618-17.618V308.32c0-9.714-7.903-17.618-17.618-17.618
			h-88.477c-9.714,0-17.618,7.903-17.618,17.618v19.774c0,9.714,7.903,17.618,17.618,17.618h29.04v28.075h-56.386v-38.685
			c0-38.172-24.056-71.797-59.411-84.43c6.92-9.86,11.573-21.475,13.12-34.142l1.493-12.227c1.504,0.244,3.034,0.372,4.587,0.372
			c15.662,0,28.403-12.742,28.403-28.403c0-10.455-5.72-19.854-14.523-24.786c6.653-19.021,5.752-39.888-2.744-58.454
			c-1.724-3.768-6.176-5.423-9.94-3.699c-3.767,1.724-5.423,6.174-3.699,9.94c7.481,16.349,7.682,34.902,0.644,51.332
			c-6.982,2.555-19.681,4.715-35.897,6.099l-9.67-17.945c-1.352-2.508-4.002-4.03-6.856-3.938c-2.848,0.096-5.396,1.798-6.574,4.392
			l-8.667,19.068c-39.078,0.767-76.397-2.412-90.733-7.674c-10.136-23.688-4.885-51.401,13.469-69.763
			c15.562-15.553,37.718-21.817,58.916-16.977v21.557c0,4.142,3.358,7.5,7.5,7.5s7.5-3.358,7.5-7.5V63.561
			c17.533-3.571,35.805,0.416,50.158,10.95c3.34,2.451,8.034,1.731,10.484-1.608c2.451-3.339,1.731-8.033-1.608-10.484
			c-3.929-2.884-8.105-5.347-12.445-7.424c0-0.072,0.005-0.145,0.005-0.217C305.972,24.573,281.399,0,251.194,0
			c-30.205,0-54.778,24.573-54.778,54.778c0,0.056,0.003,0.112,0.003,0.168c-7.86,3.775-15.163,8.897-21.563,15.293
			c-15.106,15.113-23.02,35.35-22.936,55.832h-16.278c5.519-6.865,8.833-15.574,8.833-25.048c0-22.083-17.965-40.048-40.048-40.048
			S64.38,78.941,64.38,101.023c0,9.473,3.313,18.183,8.833,25.048H52.293v-18.905c0-9.714-7.903-17.618-17.618-17.618H18.993
			c-9.714,0-17.618,7.903-17.618,17.618v369.316c0,9.714,7.903,17.618,17.618,17.618h15.683c9.714,0,17.618-7.903,17.618-17.618
			v-19.271h77.633v19.271c0,9.714,7.903,17.618,17.618,17.618c4.142,0,7.5-3.358,7.5-7.5s-3.358-7.5-7.5-7.5
			c-1.443,0-2.618-1.174-2.618-2.618V335.103c0-17.263,5.719-33.471,16.54-46.873c9.483-11.744,22.391-20.372,36.724-24.668v102.977
			h-8.171v-3.734c0-4.142-3.358-7.5-7.5-7.5s-7.5,3.358-7.5,7.5V484.01c0,4.142,3.358,7.5,7.5,7.5s7.5-3.358,7.5-7.5V381.539
			h122.349V484.01c0,4.142,3.358,7.5,7.5,7.5s7.5-3.358,7.5-7.5V362.805c0-4.142-3.358-7.5-7.5-7.5s-7.5,3.358-7.5,7.5v3.734h-8.171
			V263.55c31.5,9.39,53.264,38.414,53.264,71.553v38.685h-1.313c-9.714,0-17.618,7.903-17.618,17.618v26.815
			c0,4.142,3.358,7.5,7.5,7.5s7.5-3.358,7.5-7.5v-26.815c0-1.443,1.174-2.618,2.618-2.618h72.699v23.063
			c0,9.714,7.903,17.618,17.618,17.618h8.094c9.714,0,17.618-7.903,17.618-17.618v-23.063h20.83c1.443,0,2.618,1.174,2.618,2.618
			v102.977c0,1.443-1.174,2.618-2.618,2.618h-35.524v-25.234c0-4.142-3.358-7.5-7.5-7.5s-7.5,3.358-7.5,7.5V497H430.56v-25.234
			c0-4.142-3.358-7.5-7.5-7.5s-7.5,3.358-7.5,7.5V497h-11.922v-25.234c0-4.142-3.358-7.5-7.5-7.5s-7.5,3.358-7.5,7.5V497h-32.489
			c-1.443,0-2.618-1.174-2.618-2.618v-40.607c0-4.142-3.358-7.5-7.5-7.5s-7.5,3.358-7.5,7.5v40.607
			c0,9.714,7.903,17.618,17.618,17.618h136.858c9.714,0,17.618-7.903,17.618-17.618V391.405
			C510.625,381.691,502.721,373.788,493.007,373.788z M251.194,15c20.153,0,36.842,15.068,39.421,34.528
			c-4.075-0.989-8.226-1.653-12.418-1.981c-1.026-5.351-3.619-10.272-7.557-14.209c-2.93-2.929-7.678-2.929-10.607,0.001
			c-2.929,2.929-2.928,7.678,0.001,10.606c1.146,1.146,2.036,2.477,2.655,3.923c-2.163,0.259-4.323,0.583-6.474,1.025
			c-1.596,0.333-3.166,0.771-4.691,1.311c-3.91-1.099-7.858-1.877-11.811-2.36c0.617-1.433,1.497-2.756,2.641-3.9
			c2.929-2.929,2.929-7.678,0-10.607c-2.93-2.929-7.677-2.929-10.607,0c-3.879,3.879-6.477,8.839-7.526,14.155
			c-4.201,0.322-8.361,0.983-12.44,1.974C214.387,30.036,231.062,15,251.194,15z M332.251,189.677c-0.943,0-1.864-0.107-2.764-0.295
			l2.889-23.655c1.84-0.555,3.548-1.153,5.095-1.795c4.896,2.067,8.183,6.897,8.183,12.342
			C345.655,183.664,339.642,189.677,332.251,189.677z M267.815,173.167c2.865-0.079,5.435-1.784,6.621-4.394l4.357-9.586
			l4.816,8.938c1.402,2.6,4.199,4.141,7.147,3.922c8.022-0.584,17.377-1.496,26.092-2.911l-5.567,45.577
			c-3.704,30.326-29.536,53.195-60.087,53.195c-30.552,0-56.384-22.869-60.087-53.195l-5.564-45.557
			c18.089,2.948,42.195,4.242,65.389,4.241C256.648,173.397,262.313,173.319,267.815,173.167z M238.926,281.889
			c4.002,0.658,8.097,1.019,12.269,1.019c4.171,0,8.266-0.361,12.268-1.019v1.24c0,6.765-5.503,12.268-12.269,12.268
			c-6.765,0-12.268-5.503-12.268-12.268V281.889z M159.975,268.144h-1.533c-1.028,0-1.864-0.836-1.864-1.864v-30.814
			c0-1.028,0.836-1.864,1.864-1.864h21.915c2.268,6.122,5.312,11.847,8.987,17.082C178.558,254.564,168.56,260.51,159.975,268.144z
			 M52.293,315.139h79.911c-1.44,6.292-2.211,12.749-2.263,19.258H96.27c-10.823,0-19.627,8.805-19.627,19.628v51.564
			c0,1.596,0.213,3.141,0.574,4.627H52.293V315.139z M91.643,405.589v-51.564c0-2.552,2.076-4.628,4.627-4.628h33.657v60.82H96.27
			C93.718,410.216,91.643,408.141,91.643,405.589z M137.056,300.139H52.293v-16.995h94.241
			C142.756,288.46,139.583,294.163,137.056,300.139z M82.309,266.28v-39.814c0-1.028,0.836-1.864,1.864-1.864h29.965
			c1.028,0,1.864,0.836,1.864,1.864v39.814c0,1.028-0.836,1.864-1.864,1.864H84.173C83.146,268.144,82.309,267.308,82.309,266.28z
			 M164.919,163.933c1.527,0.634,3.229,1.234,5.094,1.799l2.888,23.645c-0.9,0.188-1.82,0.301-2.764,0.301
			c-7.391,0-13.403-6.013-13.403-13.403C156.733,170.839,160.024,166.001,164.919,163.933z M79.38,101.023
			c0-13.812,11.236-25.048,25.048-25.048s25.048,11.237,25.048,25.048s-11.236,25.048-25.048,25.048S79.38,114.835,79.38,101.023z
			 M153.432,141.071c0.7,3.508,1.638,6.988,2.832,10.414c-3.038,1.703-5.693,3.953-7.89,6.581H52.293v-16.995H153.432z
			 M37.293,476.482c0,1.443-1.174,2.618-2.618,2.618H18.993c-1.443,0-2.618-1.174-2.618-2.618V107.166
			c0-1.443,1.174-2.618,2.618-2.618h15.683c1.443,0,2.618,1.174,2.618,2.618V188.5c0,4.142,3.358,7.5,7.5,7.5s7.5-3.358,7.5-7.5
			v-15.433h89.644c-0.12,1.057-0.204,2.124-0.204,3.207c0,15.662,12.742,28.403,28.403,28.403c1.538,0,3.072-0.136,4.586-0.384
			l1.495,12.239c0.085,0.695,0.198,1.381,0.302,2.07h-18.077c-9.299,0-16.864,7.565-16.864,16.864v30.814
			c0,0.631,0.041,1.251,0.109,1.864h-10.794c0.068-0.613,0.109-1.234,0.109-1.864v-39.814c0-9.299-7.565-16.864-16.864-16.864
			H84.173c-9.299,0-16.864,7.565-16.864,16.864v39.814c0,0.631,0.041,1.251,0.109,1.864H52.293v-44.09c0-4.142-3.358-7.5-7.5-7.5
			s-7.5,3.358-7.5,7.5V476.482z M52.293,442.211v-16.995h77.633v16.995H52.293z M213.191,366.539v-93.928
			c3.424,2,7.006,3.749,10.735,5.197v5.32c0,15.036,12.232,27.268,27.269,27.268c15.036,0,27.268-12.232,27.268-27.268v-5.32
			c3.729-1.448,7.311-3.198,10.735-5.197v93.928H213.191z M397.19,328.095V308.32c0-1.443,1.174-2.618,2.618-2.618h88.477
			c1.443,0,2.618,1.174,2.618,2.618v19.774c0,1.443-1.174,2.618-2.618,2.618h-88.477C398.365,330.712,397.19,329.538,397.19,328.095
			z M454.56,414.468h-8.094c-1.443,0-2.618-1.174-2.618-2.618v-66.138h13.33v66.138C457.177,413.294,456.003,414.468,454.56,414.468
			z"/>
	</g>
</g>
<g>
</g>
<g>
</g>
<g>
</g>
<g>
</g>
<g>
</g>
<g>
</g>
<g>
</g>
<g>
</g>
<g>
</g>
<g>
</g>
<g>
</g>
<g>
</g>
<g>
</g>
<g>
</g>
<g>
</g>
</svg>
