<?xml version="1.0" encoding="iso-8859-1"?>
<!-- Generator: Adobe Illustrator 23.0.3, SVG Export Plug-In . SVG Version: 6.00 Build 0)  -->
<svg version="1.1" id="Capa_1" xmlns="http://www.w3.org/2000/svg" xmlns:xlink="http://www.w3.org/1999/xlink" x="0px" y="0px"
	 viewBox="0 0 512 512" style="enable-background:new 0 0 512 512;" xml:space="preserve">
<g>
	<g>
		<g>
			<g>
				<path style="fill:#FDD1A7;" d="M321.42,300.861v172.9c0,5.525-4.484,10.009-10.009,10.009H20.739
					c-5.525,0-10.009-4.484-10.009-10.009v-172.9c0-34.02,20.498-63.265,49.813-76.046c10.139-4.424,21.338-6.876,33.109-6.876
					h144.846c4.534,0,8.988,0.36,13.321,1.071c6.926,1.111,13.552,3.083,19.787,5.805
					C300.922,237.596,321.42,266.841,321.42,300.861z"/>
				<path style="fill:#FFBC8A;" d="M321.42,300.863v172.9c0,5.525-4.484,10.009-10.009,10.009h-23.07
					c5.525,0,10.009-4.484,10.009-10.009v-172.9c0-34.02-20.498-63.265-49.813-76.046c-6.235-2.722-12.861-4.694-19.787-5.805
					c-4.334-0.711-8.788-1.071-13.322-1.071h23.07c4.534,0,8.988,0.36,13.322,1.071c6.926,1.111,13.552,3.083,19.787,5.805
					C300.922,237.598,321.42,266.843,321.42,300.863z"/>
			</g>
			<g>
				<g>
					<g>
						<circle style="fill:#FFBC8A;" cx="267.877" cy="138.115" r="23.155"/>
					</g>
					<g>
						<circle style="fill:#FFBC8A;" cx="64.273" cy="138.115" r="23.155"/>
					</g>
				</g>
				<path style="fill:#FDD1A7;" d="M166.075,265.925L166.075,265.925c-47.107,0-85.969-36.88-88.431-83.923l-3.373-64.44
					c-1.432-27.349,20.358-50.309,47.744-50.309h88.12c27.386,0,49.176,22.96,47.744,50.309l-3.373,64.44
					C252.044,229.044,213.182,265.925,166.075,265.925z"/>
				<path style="fill:#1475CC;" d="M249.508,101.535H82.643c-5.975,0-10.649-5.205-9.949-11.15
					c4.224-35.761,28.515-65.367,61.293-77.267c10.009-3.633,20.818-5.615,32.088-5.615c11.27,0,22.079,1.982,32.088,5.615
					c32.778,11.9,57.07,41.506,61.293,77.267C260.157,96.331,255.483,101.535,249.508,101.535z"/>
				<path style="fill:#0057A1;" d="M249.508,101.539h-23.07c5.975,0,10.649-5.205,9.949-11.15
					c-4.224-35.761-28.515-65.367-61.293-77.267c-6.536-2.372-13.422-4.043-20.548-4.914c3.773-0.46,7.627-0.701,11.53-0.701
					c11.27,0,22.079,1.982,32.088,5.615c32.778,11.9,57.07,41.506,61.293,77.267C260.157,96.335,255.483,101.539,249.508,101.539z"
					/>
				<path style="fill:#BDEB73;" d="M198.163,13.123v24.606c0,2.618-1.04,5.129-2.892,6.98L173.053,66.92
					c-3.854,3.853-10.102,3.853-13.956,0l-22.218-22.211c-1.852-1.851-2.892-4.362-2.892-6.98V13.123
					c6.536-2.372,13.422-4.043,20.558-4.914c3.773-0.46,7.627-0.701,11.53-0.701C177.345,7.508,188.154,9.49,198.163,13.123z"/>
				<path style="fill:#8EC737;" d="M198.163,13.123v12.251c-7.016-5.094-14.773-9.238-23.07-12.251
					c-6.536-2.372-13.422-4.043-20.548-4.914c3.773-0.46,7.627-0.701,11.53-0.701C177.345,7.508,188.154,9.49,198.163,13.123z"/>
			</g>
			<g>
				<ellipse style="fill:#1475CC;" cx="311.223" cy="459.714" rx="53.277" ry="44.786"/>
				<path style="fill:#52CC61;" d="M339.738,459.711c0,12.131-12.771,21.969-28.515,21.969c-6.876,0-13.201-1.882-18.126-5.014
					c-6.345-4.023-10.389-10.129-10.389-16.955c0-12.13,12.771-21.959,28.515-21.959c6.205,0,11.96,1.531,16.644,4.144
					C335.054,445.869,339.738,452.365,339.738,459.711z"/>
				<path style="fill:#93DD96;" d="M339.738,459.711c0,12.131-12.771,21.969-28.515,21.969c-6.876,0-13.201-1.882-18.126-5.014
					l34.77-34.77C335.054,445.869,339.738,452.365,339.738,459.711z"/>
			</g>
			<g>
				<ellipse style="fill:#1475CC;" cx="447.992" cy="459.714" rx="53.277" ry="44.786"/>
				<path style="fill:#52CC61;" d="M476.507,459.711c0,12.131-12.771,21.969-28.515,21.969c-4.804,0-9.328-0.911-13.292-2.532
					c-6.245-2.542-11.12-6.806-13.542-11.98c-1.091-2.332-1.681-4.844-1.681-7.456c0-12.13,12.771-21.959,28.515-21.959
					c0.841,0,1.671,0.03,2.492,0.09c7.296,0.48,13.812,3.083,18.496,7.026C473.654,448.752,476.507,453.976,476.507,459.711z"/>
				<path style="fill:#93DD96;" d="M468.98,444.868l-34.28,34.28c-6.245-2.542-11.12-6.806-13.542-11.98l29.325-29.325
					C457.78,438.323,464.296,440.925,468.98,444.868z"/>
			</g>
		</g>
		<g>
			<g>
				<g>
					<g>
						<path style="fill:#B6DCFF;" d="M433.1,285.444c-6.687,0-11.465-6.519-9.406-12.881c4.11-12.699,14.117-21.664,25.81-21.664
							c11.693,0,21.7,8.965,25.81,21.664c2.059,6.362-2.72,12.881-9.406,12.881H433.1z"/>
					</g>
					<g>
						<path style="fill:#B6DCFF;" d="M433.1,253.202c-6.687,0-11.465-6.519-9.406-12.881c4.11-12.699,14.117-21.664,25.81-21.664
							c11.693,0,21.7,8.965,25.81,21.664c2.059,6.362-2.72,12.881-9.406,12.881H433.1z"/>
					</g>
					<g>
						<path style="fill:#B6DCFF;" d="M433.1,220.96c-6.687,0-11.465-6.519-9.406-12.881c4.11-12.699,14.117-21.664,25.81-21.664
							c11.693,0,21.7,8.965,25.81,21.664c2.059,6.362-2.72,12.881-9.406,12.881H433.1z"/>
					</g>
				</g>
				<path style="fill:#1475CC;" d="M472.148,333.494h-42.55c-15.596,0-30.562-6.154-41.645-17.126h0
					c-3.495-3.459-1.045-9.417,3.872-9.417h80.323c5.721,0,10.358,4.638,10.358,10.358v5.826
					C482.507,328.856,477.869,333.494,472.148,333.494z"/>
			</g>
			<g>
				<g>
					<g>
						<path style="fill:#B6DCFF;" d="M376.41,166.06c6.687,0,11.465,6.519,9.406,12.881c-4.11,12.699-14.117,21.664-25.81,21.664
							c-11.693,0-21.7-8.965-25.81-21.664c-2.059-6.362,2.72-12.881,9.406-12.881H376.41z"/>
					</g>
					<g>
						<path style="fill:#B6DCFF;" d="M376.41,198.302c6.687,0,11.465,6.519,9.406,12.881c-4.11,12.699-14.117,21.664-25.81,21.664
							c-11.693,0-21.7-8.965-25.81-21.664c-2.059-6.362,2.72-12.881,9.406-12.881H376.41z"/>
					</g>
					<g>
						<path style="fill:#B6DCFF;" d="M376.41,230.544c6.687,0,11.465,6.519,9.406,12.881c-4.11,12.699-14.117,21.664-25.81,21.664
							c-11.693,0-21.7-8.965-25.81-21.664c-2.059-6.362,2.72-12.881,9.406-12.881H376.41z"/>
					</g>
				</g>
				<path style="fill:#1475CC;" d="M337.361,118.01h42.55c15.596,0,30.561,6.154,41.645,17.126l0,0
					c3.495,3.459,1.045,9.417-3.872,9.417h-80.323c-5.721,0-10.358-4.638-10.358-10.358v-5.826
					C327.003,122.648,331.641,118.01,337.361,118.01z"/>
			</g>
		</g>
	</g>
	<g>
		<path d="M60.544,355.68c-4.142,0-7.5,3.358-7.5,7.5v120.589c0,4.142,3.358,7.5,7.5,7.5s7.5-3.358,7.5-7.5V363.18
			C68.044,359.038,64.686,355.68,60.544,355.68z"/>
		<path d="M313.918,300.865v27.637c0,4.142,3.358,7.5,7.5,7.5s7.5-3.358,7.5-7.5v-27.637c0-15.376-3.947-30.583-11.415-43.974
			c-2.017-3.617-6.584-4.914-10.203-2.897c-3.618,2.017-4.915,6.585-2.897,10.203C310.628,275.359,313.918,288.039,313.918,300.865z
			"/>
		<path d="M124.797,175.513c4.142,0,7.5-3.358,7.5-7.5v-0.102c0-4.142-3.358-7.5-7.5-7.5s-7.5,3.358-7.5,7.5v0.102
			C117.297,172.155,120.655,175.513,124.797,175.513z"/>
		<path d="M207.354,175.513c4.142,0,7.5-3.358,7.5-7.5v-0.102c0-4.142-3.358-7.5-7.5-7.5s-7.5,3.358-7.5,7.5v0.102
			C199.854,172.155,203.212,175.513,207.354,175.513z"/>
		<path d="M166.075,226.593c13.964,0,26.414-9.376,30.274-22.802c1.145-3.98-1.154-8.136-5.135-9.281
			c-3.981-1.144-8.136,1.155-9.281,5.135c-2.023,7.034-8.544,11.947-15.858,11.947c-7.314,0-13.835-4.913-15.858-11.947
			c-1.145-3.981-5.301-6.282-9.281-5.135c-3.981,1.145-6.28,5.3-5.135,9.281C139.662,217.216,152.111,226.593,166.075,226.593z"/>
		<path d="M132.168,415.975h-21.505c-4.142,0-7.5,3.358-7.5,7.5s3.358,7.5,7.5,7.5h21.505c4.142,0,7.5-3.358,7.5-7.5
			S136.31,415.975,132.168,415.975z"/>
		<path d="M221.488,415.975h-21.505c-4.142,0-7.5,3.358-7.5,7.5s3.358,7.5,7.5,7.5h21.505c4.142,0,7.5-3.358,7.5-7.5
			S225.63,415.975,221.488,415.975z"/>
		<path d="M132.168,445.57h-21.505c-4.142,0-7.5,3.358-7.5,7.5s3.358,7.5,7.5,7.5h21.505c4.142,0,7.5-3.358,7.5-7.5
			S136.31,445.57,132.168,445.57z"/>
		<path d="M221.488,445.57h-21.505c-4.142,0-7.5,3.358-7.5,7.5s3.358,7.5,7.5,7.5h21.505c4.142,0,7.5-3.358,7.5-7.5
			S225.63,445.57,221.488,445.57z"/>
		<path d="M242.907,343.669c-4.142,0-7.5,3.358-7.5,7.5c0,7.794-6.341,14.136-14.135,14.136H174v-35.158c0-4.142-3.358-7.5-7.5-7.5
			s-7.5,3.358-7.5,7.5v35.158h-48.122c-7.794,0-14.135-6.341-14.135-14.136c0-4.142-3.358-7.5-7.5-7.5s-7.5,3.358-7.5,7.5
			c0,16.065,13.07,29.136,29.135,29.136H159v103.464c0,4.142,3.358,7.5,7.5,7.5s7.5-3.358,7.5-7.5V380.305h47.271
			c16.065,0,29.135-13.07,29.135-29.136C250.407,347.027,247.049,343.669,242.907,343.669z"/>
		<path d="M311.222,430.25c-19.856,0-36.011,13.217-36.011,29.463c0,16.247,16.154,29.464,36.011,29.464
			s36.011-13.217,36.011-29.464C347.234,443.467,331.079,430.25,311.222,430.25z M311.222,474.177
			c-11.389,0-21.011-6.624-21.011-14.464c0-7.84,9.622-14.463,21.011-14.463s21.011,6.624,21.011,14.463
			C332.234,467.554,322.612,474.177,311.222,474.177z"/>
		<path d="M447.991,430.25c-19.856,0-36.011,13.217-36.011,29.463c0,16.247,16.155,29.464,36.011,29.464
			s36.011-13.217,36.011-29.464C484.003,443.467,467.848,430.25,447.991,430.25z M447.991,474.177
			c-11.389,0-21.011-6.624-21.011-14.464c0-7.84,9.622-14.463,21.011-14.463s21.011,6.624,21.011,14.463
			C469.003,467.554,459.381,474.177,447.991,474.177z"/>
		<path d="M447.991,407.427c-19.299,0-36.512,7.788-47.653,19.892h-41.463c-7.589-8.244-17.991-14.485-29.958-17.624V363.79
			c0-4.142-3.358-7.5-7.5-7.5s-7.5,3.358-7.5,7.5v43.696c-0.895-0.034-1.792-0.059-2.696-0.059c-11.785,0-22.79,2.91-32.116,7.925
			V363.18c0-4.142-3.358-7.5-7.5-7.5s-7.5,3.358-7.5,7.5v63.551c-8.533,9.004-13.661,20.487-13.661,32.983
			c0,28.831,27.264,52.287,60.776,52.287c30.552,0,55.9-19.497,60.142-44.787h16.485C392.092,492.503,417.44,512,447.991,512
			c33.512,0,60.776-23.456,60.776-52.287S481.504,407.427,447.991,407.427z M390.687,442.318c-1.304,3.171-2.264,6.479-2.837,9.895
			h-16.485c-0.573-3.416-1.533-6.724-2.837-9.895H390.687z M311.222,497c-25.241,0-45.776-16.727-45.776-37.287
			s20.535-37.287,45.776-37.287c16.102,0,30.278,6.813,38.441,17.079c0.029,0.037,0.057,0.075,0.087,0.111
			c4.579,5.804,7.249,12.699,7.249,20.097C356.999,480.273,336.464,497,311.222,497z M447.991,497
			c-25.241,0-45.776-16.727-45.776-37.287s20.535-37.287,45.776-37.287s45.776,16.727,45.776,37.287S473.233,497,447.991,497z"/>
		<path d="M416.558,205.769c-1.725,5.33-0.821,10.99,2.479,15.528c1.136,1.562,2.518,2.899,4.066,3.986
			c-2.786,3.729-5.026,8.035-6.545,12.729c-1.726,5.33-0.822,10.989,2.479,15.527c1.129,1.552,2.502,2.882,4.038,3.966
			c-2.764,3.705-4.979,7.999-6.517,12.749c-1.726,5.33-0.822,10.989,2.479,15.527c3.263,4.485,8.52,7.163,14.063,7.163h8.903v6.507
			h-50.179c-5.293,0-10.014,3.163-12.027,8.059s-0.883,10.465,2.879,14.189c12.57,12.442,29.234,19.295,46.921,19.295h42.55
			c9.847,0,17.858-8.011,17.858-17.858v-5.826c0-9.847-8.011-17.858-17.858-17.858h-15.145v-6.507h8.904
			c5.543,0,10.8-2.678,14.063-7.163c3.301-4.538,4.205-10.197,2.479-15.527c-1.538-4.75-3.754-9.044-6.517-12.749
			c1.536-1.083,2.909-2.413,4.038-3.966c3.301-4.538,4.205-10.197,2.479-15.527c-1.519-4.694-3.76-9.001-6.546-12.729
			c1.548-1.087,2.93-2.424,4.066-3.986c3.301-4.538,4.205-10.198,2.48-15.528c-5.281-16.313-18.212-26.854-32.946-26.854
			C434.771,178.915,421.839,189.456,416.558,205.769z M475.007,317.31v5.826c0,1.576-1.282,2.858-2.858,2.858h-42.55
			c-11.994,0-23.382-4.066-32.569-11.542h75.119C473.725,314.451,475.007,315.733,475.007,317.31z M457.601,228.46
			c4.716,2.781,8.544,7.89,10.578,14.171c0.315,0.975-0.077,1.725-0.339,2.084c-0.268,0.369-0.875,0.987-1.932,0.987H433.1
			c-1.057,0-1.664-0.618-1.932-0.987c-0.262-0.36-0.654-1.109-0.338-2.084c2.033-6.281,5.861-11.389,10.577-14.171H457.601z
			 M467.84,276.958c-0.268,0.369-0.875,0.987-1.932,0.987H433.1c-1.057,0-1.664-0.618-1.932-0.987
			c-0.262-0.36-0.654-1.109-0.338-2.084c2.03-6.272,5.87-11.39,10.591-14.171h16.166c4.721,2.781,8.561,7.899,10.591,14.171
			C468.494,275.848,468.101,276.598,467.84,276.958z M430.83,210.388c3.239-10.007,10.569-16.474,18.674-16.474
			s15.436,6.466,18.674,16.474c0.316,0.975-0.077,1.725-0.338,2.085c-0.268,0.369-0.875,0.987-1.932,0.987H433.1
			c-1.057,0-1.664-0.618-1.932-0.987C430.906,212.113,430.514,211.363,430.83,210.388z"/>
		<path d="M337.362,152.053h15.145v6.507h-8.904c-5.543,0-10.8,2.678-14.063,7.163c-3.301,4.538-4.205,10.198-2.479,15.528
			c1.526,4.715,3.745,9.023,6.522,12.745c-1.538,1.084-2.912,2.415-4.043,3.969c-3.301,4.538-4.205,10.198-2.479,15.528
			c1.521,4.7,3.758,9.007,6.54,12.733c-1.546,1.086-2.926,2.422-4.061,3.982c-3.301,4.538-4.205,10.197-2.479,15.527
			c5.28,16.314,18.212,26.855,32.946,26.855s27.666-10.541,32.946-26.855c1.725-5.33,0.821-10.99-2.479-15.527
			c-1.135-1.56-2.515-2.896-4.061-3.982c2.782-3.726,5.019-8.033,6.54-12.733c1.725-5.33,0.821-10.99-2.479-15.528
			c-1.13-1.554-2.504-2.885-4.043-3.969c2.777-3.722,4.995-8.03,6.522-12.745c1.725-5.33,0.821-10.99-2.479-15.528
			c-3.263-4.485-8.52-7.163-14.063-7.163h-8.903v-6.507h50.179c5.293,0,10.014-3.163,12.027-8.058
			c2.013-4.896,0.883-10.465-2.878-14.188c-12.571-12.443-29.234-19.296-46.922-19.296h-42.55c-9.847,0-17.858,8.011-17.858,17.858
			v5.826C319.503,144.042,327.514,152.053,337.362,152.053z M376.409,205.802c1.057,0,1.665,0.618,1.933,0.987
			c0.262,0.36,0.654,1.11,0.339,2.084c-2.036,6.288-5.85,11.389-10.556,14.171h-16.237c-4.706-2.782-8.52-7.883-10.556-14.171
			c-0.316-0.975,0.077-1.725,0.338-2.085c0.268-0.369,0.875-0.987,1.932-0.987H376.409z M378.68,241.116
			c-3.239,10.008-10.569,16.474-18.674,16.474s-15.436-6.466-18.674-16.474c-0.316-0.975,0.077-1.725,0.338-2.085
			c0.268-0.368,0.875-0.986,1.932-0.986h32.808c1.057,0,1.664,0.618,1.932,0.986C378.604,239.391,378.996,240.141,378.68,241.116z
			 M378.342,174.546c0.262,0.36,0.654,1.11,0.339,2.084c-1.973,6.095-5.566,11.031-10.117,13.899
			c-0.135,0.085-0.259,0.18-0.387,0.272h-16.341c-0.128-0.092-0.252-0.187-0.387-0.272c-4.551-2.868-8.144-7.804-10.117-13.898
			c-0.316-0.975,0.077-1.725,0.338-2.085c0.268-0.369,0.875-0.987,1.932-0.987h32.807
			C377.467,173.56,378.074,174.178,378.342,174.546z M334.503,128.369c0-1.576,1.282-2.858,2.858-2.858h42.55
			c11.995,0,23.382,4.066,32.569,11.542h-75.119c-1.576,0-2.858-1.282-2.858-2.858V128.369z"/>
		<path d="M166.075,273.425C166.075,273.425,166.075,273.425,166.075,273.425C166.075,273.425,166.075,273.425,166.075,273.425
			c35.132,0,66.019-18.888,82.77-47.273c12.368,1.704,24.165,6.482,34.276,13.918c1.338,0.984,2.895,1.458,4.438,1.458
			c2.304,0,4.578-1.059,6.048-3.057c2.454-3.337,1.738-8.031-1.599-10.485c-10.82-7.957-23.252-13.372-36.347-15.901
			c3.589-9.269,5.789-19.248,6.336-29.691l0.736-14.062c1.689,0.286,3.405,0.438,5.145,0.438c16.904,0,30.656-13.752,30.656-30.655
			s-13.752-30.655-30.656-30.655c-0.987,0-1.967,0.049-2.939,0.141c-0.27-2.002-0.648-3.987-1.137-5.949
			c2.489-3.508,3.614-7.835,3.106-12.142c-4.582-38.799-30.751-70.324-65.645-83.215c-0.357-0.162-0.729-0.296-1.113-0.401
			C189.464,2.087,177.992,0,166.075,0C154.157,0,142.685,2.087,132,5.893c-0.383,0.105-0.754,0.239-1.11,0.401
			C95.995,19.185,69.826,50.71,65.244,89.51c-0.508,4.303,0.615,8.626,3.1,12.133c-0.492,1.969-0.862,3.963-1.133,5.972
			c-0.974-0.093-1.952-0.155-2.938-0.155c-16.903,0-30.655,13.752-30.655,30.655S47.37,168.77,64.273,168.77
			c1.742,0,3.46-0.144,5.146-0.429l0.736,14.053c0.546,10.438,2.745,20.412,6.33,29.678c-19.044,3.664-36.45,13.389-49.674,27.897
			c-15.205,16.682-23.579,38.308-23.579,60.896v172.899c0,9.654,7.854,17.509,17.509,17.509c4.142,0,7.5-3.358,7.5-7.5
			s-3.358-7.5-7.5-7.5c-1.383,0-2.509-1.125-2.509-2.509V300.865c0-18.841,6.984-36.878,19.665-50.791
			c11.949-13.11,27.986-21.526,45.411-23.918C100.059,254.539,130.946,273.425,166.075,273.425z M283.532,138.115
			c0,8.632-7.023,15.655-15.656,15.655c-1.491,0-2.946-0.216-4.35-0.622l1.593-30.434c0.904-0.16,1.822-0.254,2.757-0.254
			C276.51,122.459,283.532,129.482,283.532,138.115z M190.663,18.564v19.16c0,0.633-0.247,1.229-0.694,1.676L167.75,61.611
			c-0.924,0.923-2.426,0.924-3.351,0L142.182,39.4c-0.448-0.447-0.694-1.042-0.694-1.676v-19.16
			C149.303,16.251,157.556,15,166.075,15C174.595,15,182.847,16.251,190.663,18.564z M126.488,24.589v13.136
			c0,4.641,1.807,9.003,5.089,12.284l22.218,22.211c3.386,3.385,7.833,5.077,12.281,5.077c4.447,0,8.895-1.692,12.28-5.077
			l22.219-22.211c3.282-3.281,5.089-7.644,5.089-12.284V24.589c24.855,12.794,42.875,37.285,46.347,66.681
			c0.112,0.945-0.333,1.606-0.609,1.916c-0.283,0.318-0.905,0.852-1.893,0.852H144.346c-4.142,0-7.5,3.358-7.5,7.5
			s3.358,7.5,7.5,7.5h105.162c0.164,0,0.325-0.022,0.489-0.026c0.403,2.682,0.536,5.411,0.392,8.159l-3.373,64.44
			c-2.255,43.074-37.808,76.815-80.941,76.815c0,0,0,0,0,0s0,0,0,0c-43.133,0-78.686-33.741-80.941-76.815L81.76,117.17
			c-0.144-2.749-0.006-5.477,0.397-8.159c0.162,0.005,0.322,0.026,0.485,0.026h26.417c4.142,0,7.5-3.358,7.5-7.5s-3.358-7.5-7.5-7.5
			H82.642c-0.988,0-1.61-0.534-1.893-0.852c-0.275-0.31-0.721-0.971-0.609-1.916C83.612,61.874,101.632,37.383,126.488,24.589z
			 M64.273,153.77c-8.632,0-15.655-7.023-15.655-15.655s7.023-15.655,15.655-15.655c0.931,0,1.852,0.089,2.757,0.249l1.593,30.428
			C67.22,153.542,65.769,153.77,64.273,153.77z"/>
	</g>
</g>
<g>
</g>
<g>
</g>
<g>
</g>
<g>
</g>
<g>
</g>
<g>
</g>
<g>
</g>
<g>
</g>
<g>
</g>
<g>
</g>
<g>
</g>
<g>
</g>
<g>
</g>
<g>
</g>
<g>
</g>
</svg>
