<?xml version="1.0" encoding="iso-8859-1"?>
<!-- Generator: Adobe Illustrator 23.0.3, SVG Export Plug-In . SVG Version: 6.00 Build 0)  -->
<svg version="1.1" id="Capa_1" xmlns="http://www.w3.org/2000/svg" xmlns:xlink="http://www.w3.org/1999/xlink" x="0px" y="0px"
	 viewBox="0 0 511.998 511.998" style="enable-background:new 0 0 511.998 511.998;" xml:space="preserve">
<g>
	<g>
		<g>
			<g>
				<path style="fill:#E19A77;" d="M494.452,450.723h-341.72c-5.548,0-10.046-4.498-10.046-10.046V143.71
					c0-5.548,4.498-10.046,10.046-10.046h341.72c5.548,0,10.046,4.498,10.046,10.046v296.968
					C504.498,446.226,500,450.723,494.452,450.723z"/>
				<path style="fill:#D77F4F;" d="M504.498,143.71v296.97c0,5.55-4.5,10.04-10.05,10.04h-30.26c5.55,0,10.05-4.49,10.05-10.04
					V143.71c0-5.55-4.5-10.05-10.05-10.05h30.26C499.998,133.66,504.498,138.16,504.498,143.71z"/>
				
					<rect x="195.199" y="141.425" transform="matrix(-1.836970e-16 1 -1 -1.836970e-16 615.7859 -31.3984)" style="fill:#52CC61;" width="256.786" height="301.538"/>
			</g>
		</g>
		<g>
			<path style="fill:#B6DCFF;" d="M234.553,317.551v141.076c0,5.573-4.523,10.096-10.096,10.096H17.594
				c-5.573,0-10.096-4.523-10.096-10.096V317.551c0-45.292,36.71-82.002,82.002-82.002h63.051
				C197.843,235.549,234.553,272.259,234.553,317.551z"/>
			<path style="fill:#65BAFC;" d="M234.553,317.551v141.076c0,5.573-4.523,10.096-10.096,10.096h-11.823V317.551
				c0-45.292-36.71-82.002-82.002-82.002h21.919C197.843,235.549,234.553,272.259,234.553,317.551z"/>
			<g>
				<circle style="fill:#CDBFBB;" cx="234.553" cy="130.288" r="41.187"/>
				<g>
					<circle style="fill:#FDD1A7;" cx="201.913" cy="164.882" r="20.859"/>
				</g>
				<g>
					<circle style="fill:#FDD1A7;" cx="40.141" cy="164.882" r="20.859"/>
				</g>
				<g>
					<path style="fill:#006AC3;" d="M76.909,224.597v77.394c0,4.683,5.873,6.846,8.86,3.239c6.069-7.328,15.3-15.599,27.827-19.111
						c4.381-1.228,7.456-5.153,7.456-9.703v-51.819H76.909z"/>
					<path style="fill:#1475CC;" d="M165.143,224.597v77.394c0,4.683-5.873,6.846-8.86,3.239
						c-6.069-7.328-15.3-15.599-27.827-19.111c-4.381-1.228-7.456-5.153-7.456-9.703l0-51.819H165.143z"/>
				</g>
				<path style="fill:#FFE5C4;" d="M75.571,114.452c-17.087,0-30.323,14.951-28.252,31.912l6.318,51.726
					c4.16,34.058,33.078,59.659,67.389,59.659l0,0c34.311,0,63.229-25.601,67.389-59.659l6.318-51.726
					c2.072-16.961-11.164-31.912-28.252-31.912H75.571z"/>
				<g>
					<line style="fill:#F69583;" x1="168.205" y1="193.517" x2="168.205" y2="193.604"/>
				</g>
				<g>
					<g>
						<path style="fill:#DAEDFF;" d="M98.732,196.53H54.138c-5.548,0-10.046-4.498-10.046-10.046v-31.313
							c0-5.548,4.498-10.046,10.046-10.046h44.594c5.548,0,10.046,4.498,10.046,10.046v31.313
							C108.777,192.033,104.28,196.53,98.732,196.53z"/>
					</g>
				</g>
				<g>
					<g>
						<path style="fill:#DAEDFF;" d="M143.739,196.53h44.594c5.548,0,10.046-4.498,10.046-10.046v-31.313
							c0-5.548-4.498-10.046-10.046-10.046h-44.594c-5.548,0-10.046,4.498-10.046,10.046v31.313
							C133.693,192.033,138.191,196.53,143.739,196.53z"/>
					</g>
				</g>
				<path style="fill:#CDBFBB;" d="M50.502,63.904c-21.71,21.71-26.268,54.068-13.686,80.258
					c26.183,12.588,58.547,8.024,80.258-13.686c21.717-21.717,26.281-54.081,13.692-80.264
					C104.576,37.63,72.219,42.187,50.502,63.904z"/>
				<path style="fill:#E0D3CE;" d="M191.549,63.904c21.71,21.71,26.268,54.068,13.686,80.258
					c-26.183,12.588-58.547,8.024-80.258-13.686c-17.392-17.392-23.783-41.613-19.172-64.019
					c2.24-10.885,10.839-19.482,21.724-21.722C149.938,40.125,174.156,46.511,191.549,63.904z"/>
				<path style="fill:#CDBFBB;" d="M205.238,144.164c-6.76,3.25-13.94,5.36-21.24,6.32c14.14-22.97,14.36-53.07-1.89-76.74
					c-11.74-17.13-29.71-27.43-48.79-29.95c20.72-2.49,42.33,4.21,58.23,20.11C213.258,85.614,217.818,117.974,205.238,144.164z"/>
			</g>
		</g>
	</g>
	<g>
		<path d="M494.452,126.165H283.068c-0.804-9.702-4.495-18.932-10.78-26.641c-7.737-9.49-18.668-15.678-30.78-17.423
			c-9.265-1.333-18.596,0.021-26.98,3.811c-3.827-10.047-9.755-19.389-17.676-27.31c-18.585-18.584-45.066-26.513-70.835-21.212
			c-1.592,0.328-3.137,0.772-4.641,1.301c-27.106-7.606-56.277,0.011-76.177,19.911c-21.402,21.402-28.29,53.157-18.293,81.222
			c-9.126,4.835-15.125,14.422-15.125,25.06c0,14.887,11.533,27.123,26.132,28.263c1.67,4.053,4.819,7.334,8.767,9.198
			c1.914,11.42,6.371,21.905,12.731,30.912c-15.418,5.523-29.229,15.274-39.605,28.135C7.034,277.223,0,297.167,0,317.547v37.248
			c0,4.142,3.358,7.5,7.5,7.5s7.5-3.358,7.5-7.5v-37.248c0-17.211,5.699-33.373,16.481-46.738
			c9.742-12.075,23.109-20.862,37.927-25.013v56.196c0,5.349,3.256,9.979,8.295,11.794c1.419,0.511,2.872,0.759,4.302,0.759
			c3.624,0,7.106-1.592,9.539-4.53c4.883-5.896,13.024-13.576,24.075-16.673c1.976-0.554,3.792-1.438,5.405-2.573
			c1.614,1.134,3.43,2.019,5.406,2.573c11.051,3.098,19.192,10.777,24.075,16.673c2.434,2.938,5.915,4.53,9.539,4.53
			c1.43,0,2.883-0.248,4.302-0.759c5.039-1.815,8.295-6.445,8.295-11.794v-56.197c32.17,8.952,54.411,38.074,54.411,71.752v141.08
			c0,1.432-1.165,2.596-2.596,2.596c-4.142,0-7.5,3.358-7.5,7.5s3.358,7.5,7.5,7.5c9.703,0,17.596-7.894,17.596-17.596v-0.403
			h18.067c4.142,0,7.5-3.358,7.5-7.5s-3.358-7.5-7.5-7.5h-18.067v-15.137h232.308c4.142,0,7.5-3.358,7.5-7.5V163.801
			c0-4.142-3.358-7.5-7.5-7.5h-69.487c-4.142,0-7.5,3.358-7.5,7.5s3.358,7.5,7.5,7.5h61.987v241.786H242.054v-95.54
			c0-38.335-24.001-71.749-59.405-84.302c6.316-8.947,10.757-19.352,12.69-30.684c4.173-1.826,7.5-5.226,9.23-9.449
			c9.644-0.9,17.901-6.646,22.301-14.775c2.536,0.403,5.086,0.627,7.63,0.627c9.258,0,18.397-2.643,26.265-7.663h108.355
			c4.142,0,7.5-3.358,7.5-7.5s-3.358-7.5-7.5-7.5H275.72c2.929-4.625,5.053-9.727,6.282-15.136h212.45
			c1.403,0,2.545,1.142,2.545,2.545v296.968c0,1.404-1.142,2.546-2.545,2.546H295.874c-4.142,0-7.5,3.358-7.5,7.5s3.358,7.5,7.5,7.5
			h198.578c9.675,0,17.545-7.871,17.545-17.546V143.71C511.998,134.035,504.127,126.165,494.452,126.165z M121.027,250.249
			c-28.13,0-52.234-19.439-58.689-46.219h31.497c-0.077,0.89-0.003,1.807,0.258,2.717c3.435,11.944,14.51,20.286,26.934,20.286
			c12.423,0,23.499-8.342,26.935-20.285c0.262-0.91,0.335-1.828,0.258-2.718h31.497C173.261,230.81,149.157,250.249,121.027,250.249
			z M67.228,158.589c10.25,0,20.43-2.029,29.925-5.963h1.579c1.403,0,2.545,1.142,2.545,2.545v31.313
			c0,1.403-1.142,2.545-2.545,2.545H54.138c-1.403,0-2.545-1.142-2.545-2.545v-29.488C56.767,158.059,62.006,158.589,67.228,158.589
			z M121.026,137.064c2.813,2.682,5.791,5.122,8.908,7.315c-2.335,2.98-3.741,6.721-3.741,10.792v6.464h-9.916v-6.464
			c0-4.157-1.46-7.975-3.885-10.985C115.411,142.044,118.295,139.667,121.026,137.064z M116.277,186.485v-9.85h9.916v9.85
			c0,6.13,3.165,11.527,7.94,14.665c-0.241,0.454-0.441,0.938-0.588,1.451c-1.597,5.553-6.745,9.432-12.519,9.432
			s-10.921-3.878-12.518-9.431c-0.127-0.442-0.297-0.859-0.493-1.256C112.968,198.241,116.277,192.749,116.277,186.485z
			 M190.878,186.485c0,1.403-1.142,2.545-2.545,2.545h-44.594c-1.403,0-2.545-1.142-2.545-2.545v-31.313
			c0-1.403,1.142-2.545,2.545-2.545h1.156c9.495,3.935,19.675,5.963,29.928,5.963c5.363,0,10.744-0.561,16.056-1.681V186.485z
			 M141.819,50.776c16.513,0,32.488,6.493,44.426,18.431c18.232,18.232,23.431,45.771,13.326,69.293
			c-23.516,10.11-51.054,4.91-69.292-13.328c-15.008-15.008-21.412-36.393-17.129-57.204c1.647-8.004,7.884-14.241,15.889-15.888
			C133.296,51.206,137.575,50.776,141.819,50.776z M55.806,69.207c13.015-13.015,30.942-19.52,48.92-18.26
			c-3.026,4.071-5.201,8.82-6.267,13.998c-4.407,21.418,0.336,43.324,12.734,60.784c-18.238,17.779-45.44,22.776-68.714,12.771
			C32.375,114.977,37.574,87.439,55.806,69.207z M26.782,164.882c0-5.861,3.858-11.047,9.422-12.76
			c0.202,0.088,0.405,0.175,0.608,0.261c-0.145,0.915-0.219,1.846-0.219,2.789v22.576C30.945,176.188,26.782,171.018,26.782,164.882
			z M111.571,278.898c-9.84,2.758-19.128,8.467-27.163,16.648v-39.814c8.8,4.906,18.656,8.09,29.091,9.132v11.552
			c0,0.137,0.014,0.271,0.017,0.407C113.354,277.799,112.614,278.606,111.571,278.898z M130.479,278.898
			c-1.042-0.292-1.782-1.1-1.945-2.074c0.003-0.136,0.017-0.27,0.017-0.407v-11.552c10.435-1.042,20.29-4.226,29.091-9.131v39.813
			C149.608,287.366,140.32,281.657,130.479,278.898z M205.878,177.64v-22.469c0-0.995-0.09-1.982-0.256-2.953
			c0.078-0.034,0.157-0.067,0.235-0.101c5.524,1.704,9.415,6.878,9.415,12.765C215.272,170.868,211.315,175.947,205.878,177.64z
			 M230.219,163.68c-0.435-10.187-6.337-19.22-15.074-23.858c1.62-4.549,2.796-9.194,3.539-13.877
			c3.54-1.933,9.531-3.376,15.605-2.759c4.122,0.423,7.801-2.581,8.221-6.702s-2.582-7.801-6.702-8.221
			c-5.442-0.554-11.126-0.035-16.262,1.354c-0.159-3.01-0.49-6.007-0.994-8.975c13.969-7.529,31.899-4.171,42.112,8.358
			c5.686,6.974,8.315,15.745,7.404,24.696c-0.911,8.952-5.254,17.013-12.228,22.699C248.64,162.266,239.329,164.85,230.219,163.68z"
			/>
		<path d="M318.902,213.787c-4.142,0-7.5,3.358-7.5,7.5v6.274h-6.274c-4.142,0-7.5,3.358-7.5,7.5s3.358,7.5,7.5,7.5h6.274v6.274
			c0,4.142,3.358,7.5,7.5,7.5s7.5-3.358,7.5-7.5v-6.274h6.274c4.142,0,7.5-3.358,7.5-7.5s-3.358-7.5-7.5-7.5h-6.274v-6.274
			C326.402,217.145,323.044,213.787,318.902,213.787z"/>
		<path d="M333.945,280.642c-2.929-2.929-7.678-2.929-10.606,0l-4.437,4.437l-4.437-4.437c-2.929-2.929-7.678-2.929-10.606,0
			c-2.929,2.929-2.929,7.678,0,10.606l4.437,4.437l-4.437,4.437c-2.929,2.929-2.929,7.678,0,10.606
			c1.464,1.464,3.384,2.197,5.303,2.197s3.839-0.732,5.303-2.197l4.437-4.437l4.437,4.437c1.464,1.464,3.384,2.197,5.303,2.197
			s3.839-0.732,5.303-2.197c2.929-2.929,2.929-7.678,0-10.606l-4.437-4.437l4.437-4.437
			C336.875,288.319,336.875,283.57,333.945,280.642z"/>
		<path d="M398.569,227.561h-27.549c-4.142,0-7.5,3.358-7.5,7.5s3.358,7.5,7.5,7.5h27.549c4.142,0,7.5-3.358,7.5-7.5
			S402.711,227.561,398.569,227.561z"/>
		<path d="M369.752,310.728c1.464,1.464,3.384,2.197,5.303,2.197s3.839-0.732,5.303-2.197l19.479-19.479
			c2.929-2.929,2.929-7.678,0-10.606c-2.929-2.929-7.678-2.929-10.606,0l-19.479,19.479
			C366.823,303.05,366.823,307.799,369.752,310.728z"/>
		<path d="M375.498,275.781c-2.928-2.929-7.646-2.898-10.576,0.031c-2.929,2.929-2.898,7.709,0.031,10.638
			c1.464,1.464,3.384,2.197,5.303,2.197s3.839-0.732,5.303-2.197c2.929-2.929,2.929-7.678,0-10.606L375.498,275.781z"/>
		<path d="M404.636,304.919c-2.928-2.929-7.646-2.898-10.576,0.031c-2.929,2.929-2.898,7.709,0.031,10.638
			c1.464,1.464,3.384,2.197,5.303,2.197s3.839-0.732,5.303-2.197c2.929-2.929,2.929-7.678,0-10.606L404.636,304.919z"/>
		<path d="M262.555,356.907c0,4.142,3.358,7.5,7.5,7.5h161.609c4.142,0,7.5-3.358,7.5-7.5s-3.358-7.5-7.5-7.5H270.055
			C265.913,349.407,262.555,352.765,262.555,356.907z"/>
		<path d="M17.596,461.223c-1.432,0-2.596-1.165-2.596-2.596v-68.08c0-4.142-3.358-7.5-7.5-7.5s-7.5,3.358-7.5,7.5v68.08
			c0,9.703,7.894,17.596,17.596,17.596c4.142,0,7.5-3.358,7.5-7.5S21.738,461.223,17.596,461.223z"/>
		<path d="M188.65,348.146c-4.142,0-7.5,3.358-7.5,7.5v113.077c0,4.142,3.358,7.5,7.5,7.5s7.5-3.358,7.5-7.5V355.646
			C196.15,351.504,192.792,348.146,188.65,348.146z"/>
		<path d="M53.403,348.146c-4.142,0-7.5,3.358-7.5,7.5v113.077c0,4.142,3.358,7.5,7.5,7.5s7.5-3.358,7.5-7.5V355.646
			C60.903,351.504,57.545,348.146,53.403,348.146z"/>
		<path d="M82.711,180.335c4.142,0,7.5-3.358,7.5-7.5v-0.087c0-4.142-3.358-7.457-7.5-7.457s-7.5,3.401-7.5,7.543
			S78.569,180.335,82.711,180.335z"/>
		<path d="M159.759,165.292c-4.142,0-7.5,3.401-7.5,7.543s3.358,7.5,7.5,7.5s7.5-3.358,7.5-7.5v-0.087
			C167.259,168.606,163.901,165.292,159.759,165.292z"/>
		<path d="M121.025,344.68c-4.142,0-7.5,3.401-7.5,7.543s3.358,7.5,7.5,7.5s7.5-3.358,7.5-7.5v-0.087
			C128.525,347.994,125.167,344.68,121.025,344.68z"/>
		<path d="M121.025,387.895c-4.142,0-7.5,3.402-7.5,7.544s3.358,7.5,7.5,7.5s7.5-3.358,7.5-7.5v-0.087
			C128.525,391.21,125.167,387.895,121.025,387.895z"/>
	</g>
</g>
<g>
</g>
<g>
</g>
<g>
</g>
<g>
</g>
<g>
</g>
<g>
</g>
<g>
</g>
<g>
</g>
<g>
</g>
<g>
</g>
<g>
</g>
<g>
</g>
<g>
</g>
<g>
</g>
<g>
</g>
</svg>
