<?xml version="1.0" encoding="iso-8859-1"?>
<!-- Generator: Adobe Illustrator 23.0.3, SVG Export Plug-In . SVG Version: 6.00 Build 0)  -->
<svg version="1.1" id="Capa_1" xmlns="http://www.w3.org/2000/svg" xmlns:xlink="http://www.w3.org/1999/xlink" x="0px" y="0px"
	 viewBox="0 0 512 512" style="enable-background:new 0 0 512 512;" xml:space="preserve">
<g>
	<g>
		<g>
			<path style="fill:#E84649;" d="M220.026,169.031h-55.843v-55.843c0-6.924-5.613-12.536-12.536-12.536h-63.23
				c-6.924,0-12.536,5.613-12.536,12.536v55.843H20.036c-6.924,0-12.536,5.613-12.536,12.536v63.23
				c0,6.924,5.613,12.536,12.536,12.536H75.88v55.843c0,6.924,5.613,12.536,12.536,12.536h63.23c6.924,0,12.536-5.613,12.536-12.536
				v-55.843h55.843c6.924,0,12.536-5.613,12.536-12.536v-63.23C232.562,174.644,226.949,169.031,220.026,169.031z"/>
		</g>
		<g>
			<g>
				<g>
					<path style="fill:#E19A77;" d="M494.075,458.985H289.466c-5.757,0-10.425-4.667-10.425-10.425V179.49
						c0-5.757,4.667-10.425,10.425-10.425h204.609c5.757,0,10.425,4.667,10.425,10.425V448.56
						C504.5,454.318,499.833,458.985,494.075,458.985z"/>
					<path style="fill:#D77F4F;" d="M504.5,179.49v269.073c0,5.755-4.67,10.425-10.425,10.425h-28.773
						c5.755,0,10.425-4.67,10.425-10.425V179.49c0-5.755-4.67-10.425-10.425-10.425h28.773
						C499.83,169.065,504.5,173.735,504.5,179.49z"/>
					<g>
						<path style="fill:#FFF5F5;" d="M465.682,429.655H317.859c-5.547,0-10.043-4.496-10.043-10.043V179.108
							c0-5.547,4.496-10.043,10.043-10.043h147.823c5.547,0,10.043,4.496,10.043,10.043v240.504
							C475.725,425.158,471.229,429.655,465.682,429.655z"/>
					</g>
					<path style="fill:#756F6F;" d="M419.223,202.231h-54.904c-5.757,0-10.425-4.667-10.425-10.425v-22.741h75.754v22.741
						C429.647,197.564,424.98,202.231,419.223,202.231z"/>
				</g>
			</g>
			<g>
				<g>
					<path style="fill:#FAC574;" d="M338,269.332H173.996c-14.984,0-27.132-12.147-27.132-27.132v-98.338
						c0-49.921,40.469-90.389,90.389-90.389h37.489c49.921,0,90.389,40.469,90.389,90.389v98.338
						C365.131,257.185,352.984,269.332,338,269.332z"/>
					<path style="fill:#E8B76B;" d="M365.136,143.859v98.344c0,14.982-12.148,27.13-27.14,27.13h-19.619
						c14.982,0,27.13-12.148,27.13-27.13v-98.344c0-49.918-40.462-90.39-90.39-90.39h19.629
						C324.664,53.468,365.136,93.941,365.136,143.859z"/>
				</g>
				<path style="fill:#F9B2B3;" d="M364.884,480.949H159.116c-11.547,0-16.043-4.496-16.043-10.043V330.571
					c0-45.047,36.518-81.565,81.565-81.565h62.724c45.047,0,81.565,36.518,81.565,81.565v140.335
					C368.927,476.453,364.431,480.949,364.884,480.949z"/>
				<path style="fill:#F37D7E;" d="M368.927,330.575v140.331c0,5.547-4.496,10.043-10.043,10.043h-11.76V330.575
					c0-45.053-36.516-81.569-81.569-81.569h21.803C332.407,249.006,368.927,285.526,368.927,330.575z"/>
				<g>
					<path style="fill:#F37D7E;" d="M204.7,243.709l4.476,43.544c0.801,7.789,9.811,11.706,16.053,6.979L256,270.931v-27.222H204.7z
						"/>
					<path style="fill:#F37D7E;" d="M307.3,243.709l-4.476,43.544c-0.801,7.789-9.811,11.706-16.053,6.979L256,270.931v-27.222
						H307.3z"/>
				</g>
				<g>
					<path style="fill:#FDD1A7;" d="M178.805,128.39l10.162,83.196c4.138,33.878,32.903,59.344,67.033,59.344l0,0
						c34.13,0,62.895-25.466,67.033-59.344l10.162-83.196H178.805z"/>
				</g>
				<path style="fill:#FAC574;" d="M345.37,137.66c-0.02,0.12-0.03,0.25-0.05,0.37c-0.97,7.16-3.07,14.2-6.26,20.85
					c-26.18,12.59-58.53,8.02-80.25-13.68c-1.38-1.39-2.69-2.82-3.93-4.3c-1.26,1.48-2.57,2.91-3.96,4.3
					c-21.71,21.7-54.06,26.27-80.24,13.68c-12.58-26.18-8.03-58.54,13.68-80.24c19.27-19.26,46.91-25.01,71.18-17.27
					c1.85-0.83,3.8-1.48,5.83-1.89c7.97-1.64,16.17-1.89,24.2-0.74c0.01-0.01,0.02-0.01,0.02,0c1.97,0.28,3.94,0.65,5.89,1.1
					c12.42,2.86,24.22,9.12,33.89,18.8C341.48,94.75,348.14,116.7,345.37,137.66z"/>
				<path style="fill:#E8B76B;" d="M345.37,137.66c-0.02,0.12-0.03,0.25-0.05,0.37c-2.33-36.68-26.55-67.41-59.73-79.29
					c1.97,0.28,3.94,0.65,5.89,1.1c12.42,2.86,24.22,9.12,33.89,18.8C341.48,94.75,348.14,116.7,345.37,137.66z"/>
				<path style="fill:#F37D7E;" d="M309.173,98.666H202.827v-70.97c0-5.547,4.496-10.043,10.043-10.043h86.259
					c5.547,0,10.043,4.496,10.043,10.043V98.666z"/>
				<line style="fill:#FF6672;" x1="247.238" y1="360.224" x2="247.238" y2="360.311"/>
				<g>
					<g>
						<g>
							<circle style="fill:#DAEDFF;" cx="210.085" cy="193.252" r="34.972"/>
							<circle style="fill:#DAEDFF;" cx="301.915" cy="193.252" r="34.972"/>
						</g>
					</g>
				</g>
				<g>
					<g>
						<line style="fill:#F69583;" x1="296.826" y1="241.209" x2="296.826" y2="241.297"/>
					</g>
				</g>
				<g>
					<path style="fill:#C99D5C;" d="M181.196,494.347H54.752c-6.025,0-10.682-5.289-9.92-11.266l7.562-59.259h131.159l7.562,59.259
						C191.878,489.058,187.221,494.347,181.196,494.347z"/>
					<g>
						<g>
							<path style="fill:#E84649;" d="M118.057,493.589L118.057,493.589c-9.905,0-17.935-8.03-17.935-17.935v-34.463h35.87v34.463
								C135.992,485.559,127.962,493.589,118.057,493.589z"/>
						</g>
						<path style="fill:#E8B76B;" d="M203.886,417.266l-16.145-70.843c-4.055-17.793-19.878-30.416-38.128-30.416H86.5
							c-18.25,0-34.073,12.623-38.128,30.416l-16.145,70.843c-3.501,15.363,8.174,29.998,23.931,29.998h123.797
							C195.712,447.265,207.387,432.629,203.886,417.266z"/>
						<path style="fill:#C99D5C;" d="M179.952,447.261h-17.928c15.752,0,27.424-14.628,23.931-29.995l-16.147-70.842
							c-4.059-17.796-19.882-30.42-38.134-30.42h17.938c18.252,0,34.075,12.624,38.124,30.42l16.146,70.842
							C207.386,432.633,195.714,447.261,179.952,447.261z"/>
						<path style="fill:#E8B76B;" d="M143.668,462.407l-17.119-5.811c-5.507-1.87-11.477-1.87-16.984,0l-17.119,5.811
							c-11.668,3.961-23.775-4.715-23.775-17.037v-22.036c0-16.773,13.597-30.37,30.37-30.37h38.034
							c16.773,0,30.37,13.597,30.37,30.37v22.036C167.443,457.692,155.336,466.368,143.668,462.407z"/>
						<g>
							<path style="fill:#756F6F;" d="M131.644,453.833l-6.784,3.495c-4.269,2.199-9.338,2.199-13.607,0l-6.784-3.495
								c-2.67-1.376-4.348-4.128-4.348-7.131v-5.556c0-6.837,5.542-12.379,12.379-12.379h11.112c6.837,0,12.379,5.542,12.379,12.379
								v5.556C135.992,449.706,134.314,452.458,131.644,453.833z"/>
						</g>
					</g>
				</g>
			</g>
		</g>
	</g>
	<g>
		<path d="M494.075,161.564H372.631v-17.702c0-37.92-21.862-72.299-55.958-88.469V27.696c0-9.673-7.87-17.543-17.543-17.543h-86.26
			c-9.673,0-17.543,7.87-17.543,17.543v27.694c-17.701,8.394-32.107,21.691-41.867,37.85c-0.6-0.053-1.204-0.088-1.815-0.088h-63.23
			c-11.048,0-20.037,8.988-20.037,20.036v48.343H20.036C8.988,161.531,0,170.52,0,181.567v63.23
			c0,11.048,8.988,20.036,20.036,20.036h48.343v47.298c-13.517,5.658-23.879,17.527-27.32,32.625l-1.907,8.366
			c-0.92,4.039,1.607,8.059,5.646,8.979c4.037,0.921,8.058-1.607,8.979-5.646l1.907-8.366c3.298-14.475,15.97-24.583,30.815-24.583
			h63.114c14.845,0,27.517,10.108,30.815,24.582l16.145,70.843c1.159,5.085-0.042,10.34-3.294,14.417s-8.109,6.415-13.324,6.415
			h-5.012v-16.431c0-5.707-1.242-11.197-3.691-16.319c-1.787-3.737-6.266-5.318-10.001-3.531c-3.737,1.787-5.318,6.266-3.531,10.002
			c1.476,3.086,2.224,6.399,2.224,9.849v22.036c0,3.425-1.597,6.533-4.381,8.528c-2.784,1.994-6.241,2.509-9.483,1.407l-4.316-1.465
			c1.117-2.162,1.729-4.598,1.729-7.138v-5.556c0-10.962-8.918-19.88-19.879-19.88h-11.112c-10.961,0-19.879,8.918-19.879,19.88
			v5.556c0,2.541,0.612,4.977,1.729,7.138l-4.316,1.465c-3.243,1.101-6.699,0.588-9.483-1.407s-4.381-5.104-4.381-8.528v-22.036
			c0-3.449,0.748-6.763,2.224-9.85c1.787-3.736,0.205-8.214-3.532-10.001c-3.738-1.787-8.215-0.205-10.001,3.532
			c-2.449,5.122-3.69,10.612-3.69,16.318v16.431h-5.012c-5.215,0-10.071-2.338-13.324-6.415s-4.453-9.332-3.294-14.416l6.09-26.724
			c0.92-4.039-1.607-8.06-5.646-8.979c-4.037-0.923-8.059,1.606-8.979,5.646l-6.09,26.725c-2.179,9.56,0.079,19.438,6.193,27.104
			c2.839,3.559,6.334,6.402,10.239,8.438l-3.955,30.989c-0.636,4.985,0.904,10.008,4.225,13.779
			c3.321,3.772,8.109,5.936,13.135,5.936c4.142,0,7.5-3.357,7.5-7.5s-3.358-7.5-7.5-7.5c-0.983,0-1.598-0.531-1.877-0.848
			s-0.728-0.993-0.604-1.969l3.735-29.27c0.051,0,0.101,0.004,0.151,0.004h6.782c1.761,4.477,4.786,8.398,8.873,11.326
			c4.424,3.171,9.546,4.801,14.766,4.8c2.011,0,4.036-0.249,6.042-0.738v5.501c0,14.024,11.41,25.435,25.436,25.435
			c14.025,0,25.435-11.41,25.435-25.435v-5.501c2.005,0.489,4.03,0.738,6.042,0.738c5.22,0,10.343-1.63,14.766-4.8
			c4.087-2.928,7.112-6.849,8.873-11.326h6.768l3.735,29.266c0.124,0.976-0.325,1.652-0.604,1.969s-0.893,0.848-1.876,0.848
			c-4.142,0-7.5,3.357-7.5,7.5s3.358,7.5,7.5,7.5c5.026,0,9.813-2.163,13.134-5.935c3.321-3.772,4.861-8.795,4.225-13.78
			l-3.945-30.909c3.968-2.042,7.518-4.913,10.395-8.52c6.115-7.664,8.372-17.543,6.193-27.103l-16.145-70.843
			c-4.545-19.946-21.163-34.267-41.185-36.057c6.784-21.89,23.61-39.646,45.078-47.614l2.769,26.934
			c0.657,6.389,4.566,11.732,10.457,14.293c2.287,0.995,4.678,1.484,7.046,1.484c3.731,0,7.407-1.215,10.539-3.587l18.742-14.193
			v193.611c0,4.143,3.358,7.5,7.5,7.5s7.5-3.357,7.5-7.5V286.018l18.742,14.192c3.132,2.373,6.808,3.588,10.539,3.588
			c2.368,0,4.759-0.49,7.046-1.484c5.891-2.561,9.8-7.904,10.457-14.294l2.769-26.937c28.866,10.598,48.374,38.047,48.374,69.488
			v140.336c0,1.402-1.141,2.543-2.543,2.543c-4.142,0-7.5,3.357-7.5,7.5s3.358,7.5,7.5,7.5c9.673,0,17.543-7.87,17.543-17.543
			v-4.421h117.648c9.884,0,17.925-8.041,17.925-17.925V179.489C512,169.605,503.959,161.564,494.075,161.564z M107.622,441.146
			c0-2.69,2.189-4.88,4.879-4.88h11.112c2.69,0,4.879,2.189,4.879,4.88v5.556c0,0.196-0.108,0.373-0.282,0.463
			c0,0-0.001,0.001-0.001,0.001l-6.783,3.495c-2.11,1.086-4.627,1.086-6.737,0l-6.785-3.496c-0.174-0.09-0.282-0.267-0.282-0.463
			V441.146z M118.057,486.089c-5.754,0-10.435-4.681-10.435-10.435v-10.479l1.574-0.534c2.823,1.218,5.841,1.832,8.861,1.832
			c3.02,0,6.038-0.614,8.861-1.832l1.574,0.534v10.479C128.492,481.408,123.811,486.089,118.057,486.089z M422.147,176.564v15.241
			c0,1.612-1.312,2.925-2.925,2.925h-46.591v-18.166H422.147z M338.737,91.166h-22.064V72.349
			C325.18,77.339,332.621,83.732,338.737,91.166z M210.327,27.696c0-1.402,1.141-2.543,2.543-2.543h86.26
			c1.402,0,2.543,1.141,2.543,2.543v63.47h-91.346V27.696z M195.327,72.346v18.82h-22.069
			C179.375,83.731,186.818,77.336,195.327,72.346z M83.379,308.62v-51.286c0-4.143-3.358-7.5-7.5-7.5H20.036
			c-2.777,0-5.036-2.259-5.036-5.036v-63.23c0-2.777,2.259-5.036,5.036-5.036h55.843c4.142,0,7.5-3.357,7.5-7.5v-55.843
			c0-2.777,2.259-5.036,5.037-5.036h57.697c-4.379,11.176-6.749,23.25-6.749,35.71v18.261c0,4.143,3.358,7.5,7.5,7.5
			s7.5-3.357,7.5-7.5v-18.261c0-13.386,3.218-26.251,9.06-37.696h185.147c5.843,11.445,9.06,24.31,9.06,37.696v98.339
			c0,8.847-5.986,16.594-14.403,18.915c-7.637-6.132-16.357-11.048-25.916-14.438c4.093-5.806,7.412-12.257,9.769-19.239
			c10.487-7.741,17.305-20.18,17.305-34.186c0-9.342-3.039-17.984-8.17-25.004c2.067-0.783,4.099-1.653,6.089-2.609
			c3.733-1.795,5.305-6.276,3.51-10.009c-1.794-3.733-6.275-5.307-10.009-3.511c-4.001,1.923-8.222,3.398-12.553,4.434
			c-6.276-3.663-13.564-5.773-21.339-5.773c-5.734,0-11.204,1.148-16.199,3.218c-8.103-3.154-15.367-7.878-21.592-14.103
			c-1.181-1.181-2.369-2.475-3.532-3.845c-1.425-1.68-3.516-2.647-5.718-2.647c-2.202,0-4.293,0.968-5.718,2.646
			c-1.133,1.335-2.324,2.629-3.54,3.845c-5.921,5.921-12.807,10.501-20.463,13.657c-4.686-1.784-9.762-2.771-15.067-2.771
			c-8.048,0-15.58,2.25-22.001,6.154c-4.898-1.037-9.653-2.649-14.155-4.814c-3.732-1.796-8.214-0.223-10.009,3.511
			s-0.223,8.214,3.511,10.009c2.567,1.234,5.203,2.316,7.888,3.259c-4.849,6.901-7.707,15.298-7.707,24.354
			c0,14.012,6.825,26.457,17.321,34.197c2.356,6.986,5.655,13.441,9.734,19.245c-9.405,3.373-18.088,8.299-25.739,14.461
			c-8.492-2.266-14.565-10.074-14.565-18.954v-44.324c0-4.143-3.358-7.5-7.5-7.5s-7.5,3.357-7.5,7.5v44.324
			c0,12.761,7.111,24.286,17.853,30.282c-8.87,10.279-15.437,22.569-18.877,36.025H86.5
			C85.451,308.508,84.412,308.553,83.379,308.62z M256,263.431c-21.076,0-40.026-10.814-50.805-27.996
			c1.606,0.185,3.236,0.29,4.89,0.29c7.686,0,14.894-2.062,21.12-5.647c4.847,8.959,14.337,14.849,24.794,14.849
			s19.947-5.89,24.794-14.849c6.226,3.585,13.435,5.647,21.12,5.647c1.652,0,3.278-0.105,4.881-0.289
			C295.992,252.6,276.979,263.431,256,263.431z M210.085,165.78c15.148,0,27.472,12.324,27.472,27.473
			c0,15.147-12.324,27.472-27.472,27.472s-27.472-12.324-27.472-27.472C182.613,178.104,194.937,165.78,210.085,165.78z
			 M329.387,193.253c0,15.147-12.324,27.472-27.472,27.472s-27.472-12.324-27.472-27.472c0-15.148,12.324-27.473,27.472-27.473
			S329.387,178.104,329.387,193.253z M252.535,194.14h6.93c0.201,9.724,3.68,18.653,9.383,25.726
			c-0.062,0.17-0.126,0.339-0.177,0.516c-1.616,5.62-6.827,9.546-12.671,9.546s-11.055-3.926-12.671-9.546
			c-0.051-0.177-0.115-0.346-0.177-0.516C248.855,212.793,252.334,203.864,252.535,194.14z M261.863,179.14h-11.725
			c-2.17-6.139-5.709-11.635-10.255-16.116c5.402-3.096,10.414-6.841,14.986-11.201c4.99,4.761,10.49,8.78,16.446,12.022
			C267.155,168.17,263.902,173.369,261.863,179.14z M220.702,288.253c-1.031,0.781-2.04,0.524-2.549,0.305
			c-0.509-0.222-1.384-0.785-1.516-2.071l-2.105-20.477c6.796,4.495,14.342,7.88,22.374,9.972L220.702,288.253z M293.847,288.558
			c-0.509,0.221-1.518,0.477-2.549-0.306l-16.223-12.285c8.029-2.103,15.589-5.495,22.398-10.005l-2.11,20.523
			C295.231,287.772,294.356,288.336,293.847,288.558z M497,448.561c0,1.612-1.312,2.925-2.925,2.925H376.427v-14.331h31.363
			c4.142,0,7.5-3.357,7.5-7.5s-3.358-7.5-7.5-7.5h-31.363v-28.226h64.016c4.142,0,7.5-3.357,7.5-7.5s-3.358-7.5-7.5-7.5h-64.016
			V364.1h64.016c4.142,0,7.5-3.357,7.5-7.5s-3.358-7.5-7.5-7.5h-64.016v-14.83h64.016c4.142,0,7.5-3.357,7.5-7.5s-3.358-7.5-7.5-7.5
			h-64.726c-0.639-5.078-1.702-10.035-3.161-14.829h67.887c4.142,0,7.5-3.357,7.5-7.5s-3.358-7.5-7.5-7.5h-74.016
			c-3.171-6.116-7.024-11.835-11.498-17.035c10.665-6.01,17.702-17.468,17.702-30.205V209.73h46.591
			c9.884,0,17.925-8.041,17.925-17.925v-15.241h28.535c1.402,0,2.543,1.141,2.543,2.543v240.504c0,1.402-1.141,2.543-2.543,2.543
			h-22.139c-4.142,0-7.5,3.357-7.5,7.5s3.358,7.5,7.5,7.5h22.139c9.673,0,17.543-7.87,17.543-17.543V179.107
			c0-0.866-0.084-1.71-0.206-2.543h11.056c1.613,0,2.925,1.313,2.925,2.925V448.561z"/>
		<path d="M440.443,245.502h-3.296v-3.296c0-4.143-3.358-7.5-7.5-7.5s-7.5,3.357-7.5,7.5v3.296h-3.296c-4.142,0-7.5,3.357-7.5,7.5
			s3.358,7.5,7.5,7.5h3.296v3.297c0,4.143,3.358,7.5,7.5,7.5s7.5-3.357,7.5-7.5v-3.297h3.296c4.142,0,7.5-3.357,7.5-7.5
			S444.585,245.502,440.443,245.502z"/>
		<path d="M323.119,351.818c-4.142,0-7.5,3.357-7.5,7.5v120.311c0,4.143,3.358,7.5,7.5,7.5s7.5-3.357,7.5-7.5V359.318
			C330.619,355.176,327.261,351.818,323.119,351.818z"/>
		<path d="M284.708,355.781c-4.142,0-7.5,3.4-7.5,7.543s3.358,7.5,7.5,7.5s7.5-3.357,7.5-7.5v-0.087
			C292.208,359.095,288.851,355.781,284.708,355.781z"/>
		<path d="M284.708,392.283c-4.142,0-7.5,3.401-7.5,7.544s3.358,7.5,7.5,7.5s7.5-3.357,7.5-7.5v-0.087
			C292.208,395.598,288.851,392.283,284.708,392.283z"/>
		<path d="M284.708,428.787c-4.142,0-7.5,3.4-7.5,7.543s3.358,7.5,7.5,7.5s7.5-3.357,7.5-7.5v-0.087
			C292.208,432.101,288.851,428.787,284.708,428.787z"/>
		<path d="M220.425,200.905c4.142,0,7.5-3.357,7.5-7.5v-0.088c0-4.143-3.358-7.456-7.5-7.456s-7.5,3.401-7.5,7.544
			S216.283,200.905,220.425,200.905z"/>
		<path d="M291.575,185.861c-4.142,0-7.5,3.401-7.5,7.544s3.358,7.5,7.5,7.5s7.5-3.357,7.5-7.5v-0.088
			C299.075,189.175,295.717,185.861,291.575,185.861z"/>
		<path d="M256,41.082c-4.142,0-7.5,3.401-7.5,7.544s3.358,7.5,7.5,7.5s7.5-3.357,7.5-7.5v-0.088
			C263.5,44.396,260.142,41.082,256,41.082z"/>
		<path d="M274.475,55.284c-4.142,0-7.5,3.401-7.5,7.544s3.358,7.5,7.5,7.5s7.5-3.357,7.5-7.5V62.74
			C281.975,58.598,278.617,55.284,274.475,55.284z"/>
		<path d="M237.525,55.284c-4.142,0-7.5,3.401-7.5,7.544s3.358,7.5,7.5,7.5s7.5-3.357,7.5-7.5V62.74
			C245.025,58.598,241.667,55.284,237.525,55.284z"/>
		<path d="M153.146,391.522v-0.088c0-4.143-3.358-7.456-7.5-7.456s-7.5,3.401-7.5,7.544s3.358,7.5,7.5,7.5
			S153.146,395.665,153.146,391.522z"/>
		<path d="M97.968,391.522v-0.088c0-4.143-3.358-7.456-7.5-7.456s-7.5,3.401-7.5,7.544s3.358,7.5,7.5,7.5
			S97.968,395.665,97.968,391.522z"/>
	</g>
</g>
<g>
</g>
<g>
</g>
<g>
</g>
<g>
</g>
<g>
</g>
<g>
</g>
<g>
</g>
<g>
</g>
<g>
</g>
<g>
</g>
<g>
</g>
<g>
</g>
<g>
</g>
<g>
</g>
<g>
</g>
</svg>
