<?xml version="1.0" encoding="iso-8859-1"?>
<!-- Generator: Adobe Illustrator 23.0.3, SVG Export Plug-In . SVG Version: 6.00 Build 0)  -->
<svg version="1.1" id="Capa_1" xmlns="http://www.w3.org/2000/svg" xmlns:xlink="http://www.w3.org/1999/xlink" x="0px" y="0px"
	 viewBox="0 0 511.995 511.995" style="enable-background:new 0 0 511.995 511.995;" xml:space="preserve">
<g>
	<g>
		<g>
			<g>
				<path style="fill:#FFF5F5;" d="M429.713,310.302v166.561c0,5.322-4.319,9.642-9.642,9.642H105.346
					c-5.322,0-9.642-4.319-9.642-9.642V310.302c0-32.772,19.746-60.945,47.987-73.258c9.767-4.262,20.556-6.624,31.895-6.624
					h174.245c4.368,0,8.658,0.347,12.833,1.032c6.672,1.07,13.055,2.97,19.062,5.592
					C409.967,249.357,429.713,277.53,429.713,310.302z"/>
				<path style="fill:#E0D3CE;" d="M429.718,310.298v166.566c0,5.323-4.322,9.645-9.645,9.645h-22.22
					c5.323,0,9.635-4.322,9.635-9.645V310.298c0-32.773-19.744-60.944-47.978-73.251c-6.014-2.62-12.389-4.528-19.063-5.591
					c-4.178-0.691-8.469-1.032-12.833-1.032h22.22c4.363,0,8.655,0.34,12.833,1.032c6.674,1.063,13.049,2.971,19.063,5.591
					C409.964,249.354,429.718,277.525,429.718,310.298z"/>
				<g>
					<g>
						<path style="fill:#D77F4F;" d="M229.529,15.345h24.222c30.015,0,54.348,24.332,54.348,54.348v0
							c0,26.444-22.962,47.03-49.249,44.154l-24.973-2.732c-14.666-1.605-28.705,6.391-34.806,19.825l-12.041,26.511
							c-1.719,3.784-6.813,4.434-9.429,1.205c-5.224-6.446-13.072-17.538-19.939-32.975
							C134.583,73.795,172.743,15.345,229.529,15.345z"/>
					</g>
					<circle style="fill:#FFBC8A;" cx="164.642" cy="152.251" r="22.306"/>
					<path style="fill:#E84649;" d="M210.436,257.27l4.561,44.371c0.816,7.937,9.998,11.929,16.358,7.112l31.355-23.744V257.27
						H210.436z"/>
					<path style="fill:#E84649;" d="M314.986,257.27l-4.561,44.371c-0.816,7.937-9.998,11.929-16.358,7.112l-31.355-23.744V257.27
						H314.986z"/>
					<path style="fill:#FDD1A7;" d="M262.709,275.375L262.709,275.375c-45.38,0-82.817-35.528-85.189-80.846l-2.649-50.603
						c-1.706-32.584,24.255-59.938,56.883-59.938h61.91c32.628,0,58.588,27.355,56.883,59.938l-2.649,50.603
						C345.525,239.847,308.089,275.375,262.709,275.375z"/>
					<path style="fill:#C86D3D;" d="M277.741,7.501h-8.577c-33.254,0-60.213,26.958-60.213,60.213v0
						c0,29.297,25.44,52.105,54.563,48.919l27.668-3.027c16.249-1.778,31.803,7.081,38.562,21.964l13.34,29.372
						c1.904,4.193,7.548,4.913,10.447,1.335c0.193-0.238,0.388-0.481,0.587-0.73C405.002,101.83,359.281,7.501,277.741,7.501z"/>
					<path style="fill:#AC5E33;" d="M354.117,165.545c-0.196,0.248-0.392,0.495-0.588,0.732c-2.899,3.579-8.541,2.857-10.45-1.341
						l-4.116-9.067c38.116-61.068-2.826-142.747-75.634-148.09c1.919-0.186,3.868-0.279,5.828-0.279h8.583
						C359.285,7.5,405.004,101.826,354.117,165.545z"/>
				</g>
			</g>
			<g>
				<g>
					<path style="fill:#CDBFBB;" d="M33.057,482.669c0-65.719,53.276-118.995,118.995-118.995s118.995,53.276,118.995,118.995
						H33.057z"/>
					<path style="fill:#B9ACAC;" d="M271.048,482.666H244.29c0-61.202-46.193-111.594-105.621-118.237
						c4.384-0.505,8.851-0.753,13.379-0.753C217.768,363.676,271.048,416.945,271.048,482.666z"/>
				</g>
				<path style="fill:#E0D3CE;" d="M279.965,504.452H24.141c-8.261,0-14.958-6.697-14.958-14.958v0
					c0-8.261,6.697-14.958,14.958-14.958h255.824c8.261,0,14.958,6.697,14.958,14.958v0
					C294.922,497.755,288.225,504.452,279.965,504.452z"/>
			</g>
		</g>
		<g>
			<g>
				<path style="fill:#00B232;" d="M477.359,286.099v-49.927h-30.82v49.927c0,5.128-2.958,9.886-7.679,11.889
					c-10.446,4.434-17.774,14.78-17.774,26.844v165.033c0,8.079,6.55,14.629,14.629,14.629h52.467
					c8.079,0,14.629-6.55,14.629-14.629V324.832c0-12.064-7.328-22.411-17.774-26.844
					C480.318,295.985,477.359,291.227,477.359,286.099z"/>
				<path style="fill:#008C25;" d="M502.812,324.825v165.046c0,8.074-6.555,14.629-14.629,14.629h-16.358
					c8.074,0,14.619-6.555,14.619-14.629V334.108c0-12.051-7.325-22.403-17.767-26.84c-4.727-1.998-7.674-6.755-7.674-11.881
					v-59.215h16.358v49.932c0,5.126,2.958,9.883,7.674,11.881C495.487,302.422,502.812,312.774,502.812,324.825z"/>
				<rect x="421.086" y="348.203" style="fill:#FFF5F5;" width="81.725" height="89.057"/>
				<rect x="486.444" y="348.208" style="fill:#E0D3CE;" width="16.368" height="89.053"/>
				<path style="fill:#FAC574;" d="M479.553,245.144h-35.208c-2.768,0-5.073-2.122-5.303-4.88l-2.308-27.762
					c-0.258-3.102,2.19-5.762,5.303-5.762h39.823c3.113,0,5.561,2.66,5.303,5.762l-2.308,27.762
					C484.626,243.022,482.321,245.144,479.553,245.144z"/>
				<path style="fill:#D8AA64;" d="M487.16,212.502l-2.3,27.759c-0.237,2.765-2.538,4.879-5.302,4.879h-18.568
					c2.765,0,5.065-2.115,5.302-4.879l2.3-27.759c0.258-3.105-2.187-5.766-5.302-5.766h18.568
					C484.973,206.736,487.418,209.397,487.16,212.502z"/>
			</g>
			<g>
				<circle style="fill:#FAC574;" cx="461.949" cy="348.203" r="16.365"/>
			</g>
		</g>
	</g>
	<g>
		<path d="M372.522,344.543c-4.142,0-7.5,3.357-7.5,7.5v134.462c0,4.143,3.358,7.5,7.5,7.5s7.5-3.357,7.5-7.5V352.043
			C380.022,347.9,376.664,344.543,372.522,344.543z"/>
		<path d="M222.943,173.504c-4.142,0-7.5,3.406-7.5,7.549s3.358,7.5,7.5,7.5s7.5-3.357,7.5-7.5v-0.099
			C230.443,176.812,227.085,173.504,222.943,173.504z"/>
		<path d="M302.474,173.504c-4.142,0-7.5,3.406-7.5,7.549s3.358,7.5,7.5,7.5s7.5-3.357,7.5-7.5v-0.099
			C309.974,176.812,306.616,173.504,302.474,173.504z"/>
		<path d="M287.002,206.314c-3.978-1.146-8.136,1.154-9.281,5.135c-1.915,6.659-8.088,11.311-15.012,11.311
			c-6.924,0-13.098-4.651-15.013-11.311c-1.145-3.98-5.301-6.281-9.281-5.135c-3.981,1.146-6.28,5.3-5.135,9.281
			c3.753,13.05,15.855,22.164,29.429,22.164s25.675-9.114,29.428-22.164C293.282,211.614,290.983,207.46,287.002,206.314z"/>
		<path d="M299.724,376.55c0-4.143-3.358-7.451-7.5-7.451s-7.5,3.406-7.5,7.549s3.358,7.5,7.5,7.5s7.5-3.357,7.5-7.5V376.55z"/>
		<path d="M292.224,413.455c-4.142,0-7.5,3.407-7.5,7.55s3.358,7.5,7.5,7.5s7.5-3.357,7.5-7.5v-0.099
			C299.724,416.764,296.366,413.455,292.224,413.455z"/>
		<path d="M487.967,291.084c-1.859-0.789-3.108-2.792-3.108-4.985v-34.636c4.089-1.887,7.079-5.861,7.47-10.578l2.308-27.762
			c0.296-3.563-0.922-7.115-3.343-9.745s-5.859-4.139-9.434-4.139h-39.823c-3.575,0-7.013,1.509-9.434,4.139
			s-3.64,6.183-3.343,9.745l2.308,27.763c0.393,4.716,3.382,8.69,7.471,10.576v34.636c0,2.193-1.249,4.196-3.109,4.985
			c-0.267,0.114-0.521,0.249-0.784,0.368c-3.866-17.558-13.073-33.568-26.561-45.827c-16.107-14.64-36.974-22.702-58.756-22.702
			h-0.324c3.314-8.765,5.368-18.165,5.883-28.001l1.115-21.294c1.051-0.731,2.021-1.6,2.855-2.63l0.621-0.771
			c25.29-31.668,30.065-74.068,12.462-110.655C354.76,22.826,318.474,0,277.741,0h-8.577c-11.172,0-21.994,2.796-31.594,7.874
			c-0.189-0.014-0.379-0.029-0.572-0.029h-7.468c-29.277,0-56.283,14.665-72.241,39.23c-15.447,23.779-18.175,53.25-7.467,79.332
			c-8.945,5.15-14.985,14.802-14.985,25.844c0,16.436,13.371,29.807,29.806,29.807c1.586,0,3.153-0.127,4.696-0.372l0.693,13.235
			c0.515,9.837,2.569,19.237,5.883,28.002h-0.325c-48.183,0-87.383,39.2-87.383,87.383v63.145
			c-7.809,4.573-15.167,10.004-21.935,16.252c-22.1,20.401-36.094,47.711-39.749,77.335h-2.382
			c-12.383,0-22.458,10.074-22.458,22.457c0,12.384,10.074,22.458,22.458,22.458h255.824c12.383,0,22.458-10.074,22.458-22.458
			c0-12.383-10.074-22.457-22.458-22.457h-2.387c-1.26-10.189-3.751-20.102-7.367-29.549V300.096l19.328,14.636
			c3.167,2.397,6.882,3.626,10.653,3.626c2.395,0,4.812-0.496,7.124-1.501c5.954-2.589,9.906-7.991,10.569-14.45l4.216-41.01
			c0.001-0.011,0.001-0.023,0.002-0.034c7.937-6.616,14.759-14.529,20.128-23.44h7.598c36.933,0,67.637,27.406,71.876,63.917
			c-5.143,6.38-8.119,14.428-8.119,22.992v57.43c0,4.143,3.358,7.5,7.5,7.5s7.5-3.357,7.5-7.5v-26.559h10.712
			c3.152,9.495,12.111,16.365,22.651,16.365s19.499-6.87,22.651-16.365h10.712v74.058h-66.726v-11.989c0-4.143-3.358-7.5-7.5-7.5
			s-7.5,3.357-7.5,7.5v72.095c0,12.202,9.927,22.129,22.129,22.129h52.467c12.202,0,22.129-9.927,22.129-22.129V324.832
			C510.312,310.092,501.542,296.845,487.967,291.084z M169.867,55.246c10.982-16.904,28.3-28.126,47.756-31.401
			c-2.638,3.091-5.022,6.433-7.094,10.015c-2.074,3.586-0.849,8.174,2.737,10.248c3.584,2.072,8.173,0.849,10.248-2.736
			C232.923,25.104,250.416,15,269.164,15h8.577c34.917,0,66.024,19.571,81.183,51.075c7.16,14.883,10.174,31.248,8.714,47.327
			c-1.518,16.722-7.946,32.767-18.611,46.486l-12.455-27.422c-8.12-17.878-26.686-28.464-46.207-26.317l-27.668,3.027
			c-11.134,1.215-22.055-1.986-30.752-9.021c-8.636-6.985-14.051-16.874-15.246-27.843c-0.449-4.118-4.147-7.095-8.269-6.644
			c-4.118,0.449-7.092,4.15-6.644,8.269c0.336,3.085,0.931,6.103,1.744,9.04c-16.489,8.048-28.566,22.783-33.618,39.945
			c-1.733-0.31-3.493-0.478-5.272-0.478c-0.068,0-0.136,0.005-0.204,0.005C154.75,100.509,156.773,75.402,169.867,55.246z
			 M164.642,167.058c-8.164,0-14.806-6.643-14.806-14.807s6.642-14.807,14.806-14.807c0.93,0,1.847,0.094,2.748,0.263
			c-0.113,2.188-0.125,4.393-0.009,6.61l1.162,22.206C167.281,166.868,165.978,167.058,164.642,167.058z M287.422,489.494
			c0,4.112-3.345,7.458-7.458,7.458H24.141c-4.112,0-7.458-3.346-7.458-7.458s3.345-7.457,7.458-7.457h255.824
			C284.077,482.037,287.422,485.382,287.422,489.494z M227.157,380.881c-3.331-2.461-8.027-1.757-10.489,1.573
			c-2.462,3.332-1.757,8.027,1.574,10.489c24.191,17.879,40.064,44.615,44.213,74.094H41.651
			c3.563-25.391,15.773-48.753,34.795-66.313c20.642-19.057,47.493-29.551,75.607-29.551c12.042,0,23.895,1.913,35.23,5.686
			c3.931,1.31,8.177-0.817,9.485-4.748c1.308-3.93-0.817-8.177-4.748-9.484c-10.502-3.495-21.394-5.559-32.467-6.208v-8.214
			c0-4.143-3.358-7.5-7.5-7.5s-7.5,3.357-7.5,7.5v8.198c-14.341,0.844-28.298,4.091-41.347,9.552v-55.648
			c0-39.912,32.471-72.383,72.383-72.383h7.598c5.37,8.912,12.193,16.826,20.131,23.442l4.219,41.042
			c0.664,6.46,4.615,11.861,10.57,14.45c2.313,1.006,4.729,1.501,7.123,1.501c3.771,0,7.487-1.229,10.653-3.626l19.327-14.636
			v109.368C247.518,398.634,238.088,388.959,227.157,380.881z M219.513,272.224c10.395,5.474,21.943,9.033,34.169,10.214
			l-26.853,20.335c-1.109,0.841-2.193,0.566-2.74,0.328s-1.487-0.844-1.629-2.228L219.513,272.224z M302.963,300.874
			c-0.142,1.384-1.082,1.989-1.629,2.228c-0.548,0.238-1.632,0.513-2.741-0.328l-26.854-20.335
			c12.226-1.182,23.773-4.742,34.169-10.216L302.963,300.874z M262.708,267.875c-41.405,0-75.534-32.39-77.699-73.737l-2.649-50.604
			c-1.022-19.521,9.777-37.963,27.086-46.737c3.387,5.658,7.777,10.744,13.065,15.021c11.829,9.569,26.681,13.931,41.818,12.27
			l27.668-3.027c13.063-1.43,25.484,5.648,30.918,17.61l13.34,29.371c1.139,2.509,2.968,4.533,5.208,5.933l-1.056,20.164
			C338.244,235.485,304.114,267.875,262.708,267.875z M479.493,214.239l-1.946,23.404h-31.197l-1.945-23.404H479.493z
			 M461.949,357.068c-4.888,0-8.865-3.977-8.865-8.865s3.977-8.865,8.865-8.865s8.865,3.977,8.865,8.865
			S466.837,357.068,461.949,357.068z M484.6,340.703c-3.152-9.495-12.111-16.365-22.651-16.365s-19.499,6.87-22.651,16.365h-10.712
			v-15.871c0-8.709,5.183-16.535,13.204-19.939c7.441-3.157,12.249-10.534,12.249-18.794v-33.455h15.82v33.455
			c0,8.26,4.808,15.637,12.249,18.794c8.021,3.404,13.204,11.23,13.204,19.939v15.871H484.6z M488.183,496.995h-52.467
			c-3.931,0-7.129-3.198-7.129-7.129v-45.105h66.726v45.105C495.312,493.797,492.114,496.995,488.183,496.995z"/>
		<path d="M471.577,402.134c4.142,0,7.5-3.357,7.5-7.5s-3.358-7.5-7.5-7.5h-19.256c-4.142,0-7.5,3.357-7.5,7.5s3.358,7.5,7.5,7.5
			H471.577z"/>
	</g>
</g>
<g>
</g>
<g>
</g>
<g>
</g>
<g>
</g>
<g>
</g>
<g>
</g>
<g>
</g>
<g>
</g>
<g>
</g>
<g>
</g>
<g>
</g>
<g>
</g>
<g>
</g>
<g>
</g>
<g>
</g>
</svg>
