<?xml version="1.0" encoding="iso-8859-1"?>
<!-- Generator: Adobe Illustrator 23.0.3, SVG Export Plug-In . SVG Version: 6.00 Build 0)  -->
<svg version="1.1" id="Capa_1" xmlns="http://www.w3.org/2000/svg" xmlns:xlink="http://www.w3.org/1999/xlink" x="0px" y="0px"
	 viewBox="0 0 512 512" style="enable-background:new 0 0 512 512;" xml:space="preserve">
<g>
	<g>
		<path style="fill:#E84649;" d="M339.83,301.927v173.544c0,5.545-4.501,10.046-10.046,10.046H31.999
			c-5.545,0-10.046-4.501-10.046-10.046V301.927c0-34.146,20.574-63.501,49.999-76.329c10.176-4.44,21.418-6.902,33.232-6.902H256.6
			c4.551,0,9.021,0.362,13.371,1.075c6.952,1.115,13.602,3.094,19.861,5.827C319.256,238.426,339.83,267.78,339.83,301.927z"/>
		<g>
			<path style="fill:#C47A4A;" d="M180.892,333.332L180.892,333.332c-27.343,0-49.508-22.165-49.508-49.508v-65.126H230.4v65.126
				C230.4,311.167,208.234,333.332,180.892,333.332z"/>
		</g>
		<path style="fill:#D73337;" d="M339.83,301.927v173.544c0,5.545-4.501,10.046-10.046,10.046h-59.814V219.771
			c6.952,1.115,13.602,3.094,19.861,5.827C319.256,238.426,339.83,267.78,339.83,301.927z"/>
		<g>
			<path style="fill:#D68A5A;" d="M339.83,301.927v173.544c0,5.548-4.498,10.046-10.046,10.046h-39.953V225.597
				C319.256,238.426,339.83,267.78,339.83,301.927z"/>
			<path style="fill:#C47A4A;" d="M339.83,301.927v173.544c0,5.545-4.501,10.046-10.046,10.046h-21.137
				c5.545,0,10.046-4.501,10.046-10.046V301.927c0-25.175-11.191-47.759-28.862-63.018v-13.311
				C319.256,238.426,339.83,267.78,339.83,301.927z"/>
			<path style="fill:#D68A5A;" d="M71.952,225.597v259.919H31.999c-5.548,0-10.046-4.498-10.046-10.046V301.927
				C21.953,267.78,42.527,238.426,71.952,225.597z"/>
		</g>
		<path style="fill:#FBCC85;" d="M438.723,503.517H282.295c-5.548,0-10.045-4.497-10.045-10.045v-36.399
			c0-5.548,4.497-10.045,10.045-10.045h156.427c5.548,0,10.045,4.497,10.045,10.045v36.399
			C448.768,499.02,444.271,503.517,438.723,503.517z"/>
		<path style="fill:#D8AA64;" d="M448.77,457.073v36.403c0,5.545-4.5,10.045-10.045,10.045h-21.727
			c5.545,0,10.045-4.5,10.045-10.045v-36.403c0-5.545-4.5-10.045-10.045-10.045h21.727
			C444.27,447.028,448.77,451.529,448.77,457.073z"/>
		<path style="fill:#2EA8FC;" d="M383.841,346.823L383.841,346.823c-8.876,0-16.072-7.196-16.072-16.072V164.579
			c0-8.876,7.196-16.072,16.072-16.072h0c8.876,0,16.072,7.196,16.072,16.072v166.172
			C399.912,339.628,392.717,346.823,383.841,346.823z"/>
		<rect x="367.769" y="186.295" style="fill:#FBCC85;" width="32.144" height="57.303"/>
		<g>
			<path style="fill:#FFF5F5;" d="M97.467,503.521H28.963c-11.854,0-21.463-9.609-21.463-21.463V373.557h111.43v108.501
				C118.93,493.912,109.321,503.521,97.467,503.521z"/>
			<path style="fill:#E0D3CE;" d="M118.93,373.56v108.5c0,11.85-9.61,21.46-21.46,21.46h-19.5c11.85,0,21.46-9.61,21.46-21.46
				v-108.5H118.93z"/>
		</g>
		<path style="fill:#2EA8FC;" d="M105.153,359.788l-83.486,0c-7.419,0-13.802,5.701-14.151,13.112
			c-0.372,7.912,5.932,14.443,13.762,14.443h27.364c4.837,0,8.757,3.921,8.757,8.757v27.475c0,7.836,6.022,14.579,13.85,14.947
			c8.357,0.393,15.256-6.266,15.256-14.536v-27.886c0-4.837,3.921-8.757,8.757-8.757h9.502c7.418,0,13.802-5.701,14.151-13.111
			C119.287,366.32,112.983,359.788,105.153,359.788z"/>
		<g>
			<circle style="fill:#2EA8FC;" cx="229.155" cy="381.164" r="19.91"/>
		</g>
		<g>
			<circle style="fill:#FBCC85;" cx="175.378" cy="418.667" r="19.91"/>
		</g>
		<g>
			<g>
				<circle style="fill:#C47A4A;" cx="283.073" cy="138.295" r="23.242"/>
			</g>
			<g>
				<circle style="fill:#C47A4A;" cx="78.71" cy="138.295" r="23.242"/>
			</g>
			<g>
				<path style="fill:#D68A5A;" d="M180.892,266.581L180.892,266.581c-47.283,0-86.289-37.018-88.761-84.236L86.102,67.169h189.579
					l-6.029,115.176C267.18,229.563,228.174,266.581,180.892,266.581z"/>
			</g>
			<path style="fill:#756F6F;" d="M77.242,71.064v24.584c0,19.192,15.558,34.75,34.75,34.75h29.364c3.054,0,5.53-2.476,5.53-5.53
				v-21.725c3.428,15.588,17.313,27.255,33.931,27.255h29.364c3.054,0,5.53-2.476,5.53-5.53v-21.725
				c3.428,15.588,17.313,27.255,33.931,27.255h29.364c3.054,0,5.53-2.476,5.53-5.53V71.064c0-34.565-28.021-62.586-62.586-62.586
				h-82.124C105.263,8.479,77.242,36.499,77.242,71.064z"/>
			<path style="fill:#5B5555;" d="M284.541,71.064v53.801c0,3.053-2.478,5.53-5.53,5.53h-22.298c3.053,0,5.53-2.478,5.53-5.53
				V71.064c0-34.564-28.017-62.581-62.581-62.581h22.287C256.513,8.483,284.541,36.499,284.541,71.064z"/>
		</g>
	</g>
	<g>
		<path d="M482.484,376.175h-79.014c-6.75,0-12.241-5.491-12.241-12.241V353.13c9.388-3.108,16.183-11.962,16.183-22.379V164.579
			c0-12.997-10.574-23.571-23.571-23.571c-12.998,0-23.572,10.574-23.572,23.571v166.173c0,10.334,6.688,19.13,15.961,22.303v10.878
			c0,15.021,12.221,27.241,27.241,27.241h79.014c8.004,0,14.516,6.512,14.516,14.516v49.073c0,8.004-6.512,14.516-14.516,14.516
			h-26.217v-12.207c0-9.675-7.871-17.545-17.545-17.545h-47.846c-4.143,0-7.5,3.357-7.5,7.5s3.357,7.5,7.5,7.5h47.846
			c1.403,0,2.545,1.142,2.545,2.545v36.399c0,1.403-1.142,2.545-2.545,2.545H282.295c-1.403,0-2.545-1.142-2.545-2.545v-36.399
			c0-1.403,1.142-2.545,2.545-2.545h72.828c4.143,0,7.5-3.357,7.5-7.5s-3.357-7.5-7.5-7.5h-7.795v-73.651c0-4.143-3.357-7.5-7.5-7.5
			s-7.5,3.357-7.5,7.5v73.651h-34.996V238.126c21.082,13.521,34.996,37.17,34.996,63.805v28.193c0,4.143,3.357,7.5,7.5,7.5
			s7.5-3.357,7.5-7.5v-28.193c0-44.882-32.963-82.72-76.462-89.606c3.554-9.243,5.732-19.187,6.276-29.589l0.741-14.152
			c1.711,0.293,3.447,0.452,5.189,0.452c16.951,0,30.742-13.79,30.742-30.741c0-13.755-8.947-25.548-21.777-29.417V71.064
			c0-38.646-31.44-70.086-70.086-70.086h-82.123c-38.646,0-70.086,31.44-70.086,70.086v24.584c0,4.431,0.689,8.704,1.96,12.72
			c-13.584,3.181-23.734,15.387-23.734,29.927c0,16.951,13.791,30.741,30.742,30.741c1.759,0,3.49-0.148,5.19-0.436l0.74,14.136
			c0.545,10.402,2.722,20.346,6.276,29.589c-43.495,6.888-76.463,44.733-76.463,89.605v51.583
			c-8.1,2.796-14.012,10.151-14.431,19.033c-0.008,0.174,0.006,0.344,0.001,0.517C0.014,373.227,0,373.39,0,373.557v108.501
			c0,15.971,12.993,28.964,28.963,28.964h68.504c15.97,0,28.963-12.993,28.963-28.964v-32.182c0-4.143-3.357-7.5-7.5-7.5
			s-7.5,3.357-7.5,7.5v32.182c0,7.699-6.264,13.964-13.963,13.964H28.963c-7.699,0-13.963-6.265-13.963-13.964v-88.174
			c2.02,0.626,4.136,0.959,6.277,0.959h27.364c0.693,0,1.257,0.564,1.257,1.258v27.475c0,12.028,9.223,21.885,20.997,22.439
			c0.359,0.017,0.718,0.024,1.075,0.024c5.695,0,11.059-2.142,15.202-6.096c4.342-4.142,6.832-9.958,6.832-15.957v-27.886
			c0-0.693,0.563-1.258,1.257-1.258h9.502c2.327,0,4.563-0.373,6.666-1.037v20.318c0,4.143,3.357,7.5,7.5,7.5s7.5-3.357,7.5-7.5
			v-40.567c0-0.191-0.015-0.379-0.029-0.567c-0.135-5.285-2.167-10.247-5.851-14.11c-3.997-4.189-9.608-6.592-15.397-6.592H79.451
			V230.702c5.811-2.106,11.959-3.509,18.345-4.128c6.664,11.315,15.57,21.125,26.088,28.848v28.402
			c0,31.435,25.573,57.008,57.008,57.008s57.008-25.573,57.008-57.008v-28.402c10.518-7.723,19.424-17.533,26.088-28.848
			c6.385,0.619,12.533,2.022,18.344,4.127v208.827h-0.037c-9.674,0-17.545,7.87-17.545,17.545v36.399
			c0,9.674,7.871,17.545,17.545,17.545h156.428c9.674,0,17.545-7.871,17.545-17.545v-9.192h26.217
			c16.275,0,29.516-13.24,29.516-29.516V405.69C512,389.415,498.76,376.175,482.484,376.175z M375.269,193.795h17.144v42.303
			h-17.144V193.795z M383.841,156.008c4.727,0,8.571,3.845,8.571,8.571v14.216h-17.144v-14.216
			C375.269,159.853,379.114,156.008,383.841,156.008z M375.269,251.098h17.144v79.654c0,4.727-3.845,8.571-8.571,8.571
			s-8.572-3.845-8.572-8.571V251.098z M109.696,369.234c1.195,1.253,1.809,2.902,1.726,4.645c-0.154,3.288-3.142,5.964-6.658,5.964
			h-9.502c-8.964,0-16.257,7.293-16.257,16.258v27.886c0,1.946-0.776,3.76-2.186,5.104c-1.408,1.343-3.268,2.035-5.219,1.939
			c-3.695-0.174-6.702-3.518-6.702-7.455v-27.475c0-8.965-7.293-16.258-16.257-16.258H21.277c-1.732,0-3.347-0.69-4.543-1.945
			c-1.195-1.253-1.809-2.903-1.727-4.646c0.154-3.288,3.142-5.964,6.659-5.964h83.485
			C106.886,367.288,108.499,367.979,109.696,369.234z M64.451,352.288H29.454v-50.357c0-26.627,13.916-50.279,34.997-63.802V352.288
			z M298.814,138.295c0,8.68-7.062,15.741-15.742,15.741c-1.514,0-2.982-0.213-4.395-0.624l0.813-15.538
			c6.81-0.252,12.292-5.744,12.524-12.559C296.167,128.167,298.814,132.939,298.814,138.295z M84.742,71.064
			c0-30.374,24.712-55.086,55.086-55.086h82.123c30.374,0,55.086,24.712,55.086,55.086v51.834h-27.395
			c-12.693,0-23.883-8.985-26.605-21.366c-0.764-3.47-3.838-5.889-7.318-5.889c-0.271,0-0.543,0.014-0.817,0.044
			c-3.806,0.413-6.689,3.628-6.689,7.456v19.755h-27.395c-12.694,0-23.883-8.985-26.605-21.366
			c-0.823-3.739-4.336-6.266-8.136-5.845c-3.806,0.413-6.689,3.628-6.689,7.456v19.755h-27.395c-15.025,0-27.25-12.225-27.25-27.25
			V71.064z M78.711,154.036c-8.681,0-15.742-7.062-15.742-15.741c0-8.681,7.062-15.742,15.742-15.742
			c0.255,0,0.509,0.026,0.763,0.038c0.682,0.822,1.401,1.612,2.143,2.38l1.488,28.42C81.688,153.803,80.223,154.036,78.711,154.036z
			 M222.899,283.824c0,23.163-18.845,42.008-42.008,42.008s-42.008-18.845-42.008-42.008v-19.359
			c12.716,6.164,26.973,9.615,42.008,9.615s29.292-3.452,42.008-9.615V283.824z M180.892,259.081
			c-43.309,0-79.007-33.879-81.271-77.128l-2.447-46.744c4.614,1.734,9.606,2.689,14.818,2.689h29.364
			c6.042,0,11.137-4.134,12.604-9.722c7.393,6.099,16.821,9.722,26.856,9.722h29.364c6.042,0,11.137-4.134,12.604-9.722
			c7.393,6.099,16.821,9.722,26.856,9.722h14.826l-2.305,44.055C259.898,225.202,224.2,259.081,180.892,259.081z"/>
		<path d="M229.155,353.754c-15.113,0-27.409,12.296-27.409,27.41c0,15.113,12.296,27.409,27.409,27.409
			c15.114,0,27.41-12.296,27.41-27.409C256.565,366.05,244.27,353.754,229.155,353.754z M229.155,393.573
			c-6.843,0-12.409-5.566-12.409-12.409s5.566-12.41,12.409-12.41s12.41,5.567,12.41,12.41S235.998,393.573,229.155,393.573z"/>
		<path d="M175.378,391.257c-15.113,0-27.409,12.296-27.409,27.41s12.296,27.41,27.409,27.41c15.114,0,27.41-12.296,27.41-27.41
			S190.492,391.257,175.378,391.257z M175.378,431.077c-6.843,0-12.409-5.567-12.409-12.41s5.566-12.41,12.409-12.41
			s12.41,5.567,12.41,12.41S182.221,431.077,175.378,431.077z"/>
		<path d="M139.459,160.701c-4.143,0-7.5,3.357-7.5,7.5v0.103c0,4.143,3.357,7.5,7.5,7.5s7.5-3.357,7.5-7.5v-0.103
			C146.959,164.059,143.602,160.701,139.459,160.701z"/>
		<path d="M222.324,160.701c-4.143,0-7.5,3.357-7.5,7.5v0.103c0,4.143,3.357,7.5,7.5,7.5s7.5-3.357,7.5-7.5v-0.103
			C229.824,164.059,226.467,160.701,222.324,160.701z"/>
		<path d="M206.117,194.927c-3.983-1.144-8.136,1.154-9.281,5.135c-2.034,7.073-8.591,12.013-15.944,12.013
			s-13.91-4.939-15.944-12.013c-1.146-3.98-5.3-6.278-9.281-5.135c-3.98,1.146-6.279,5.301-5.135,9.281
			c3.872,13.463,16.357,22.866,30.36,22.866s26.488-9.403,30.36-22.866C212.396,200.228,210.098,196.072,206.117,194.927z"/>
	</g>
</g>
<g>
</g>
<g>
</g>
<g>
</g>
<g>
</g>
<g>
</g>
<g>
</g>
<g>
</g>
<g>
</g>
<g>
</g>
<g>
</g>
<g>
</g>
<g>
</g>
<g>
</g>
<g>
</g>
<g>
</g>
</svg>
